<?xml version="1.0" encoding="UTF-8" standalone="no"?>
<!-- Generator: Adobe Illustrator 12.0.0, SVG Export Plug-In . SVG Version: 6.00 Build 51448)  -->

<svg
   version="1.0"
   id="Layer_1"
   width="435.68701"
   height="841.89001"
   viewBox="0 0 435.687 841.89"
   overflow="visible"
   enable-background="new 0 0 435.687 841.89"
   xml:space="preserve"
   sodipodi:version="0.32"
   inkscape:version="1.4.2 (f4327f4, 2025-05-13)"
   sodipodi:docname="all_bones_skull.svg"
   inkscape:output_extension="org.inkscape.output.svg.inkscape"
   style="overflow: visible; display: inline;"
   xmlns:inkscape="http://www.inkscape.org/namespaces/inkscape"
   xmlns:sodipodi="http://sodipodi.sourceforge.net/DTD/sodipodi-0.dtd"
   xmlns="http://www.w3.org/2000/svg"
   xmlns:svg="http://www.w3.org/2000/svg"
   xmlns:rdf="http://www.w3.org/1999/02/22-rdf-syntax-ns#"
   xmlns:cc="http://creativecommons.org/ns#"
   xmlns:dc="http://purl.org/dc/elements/1.1/"><metadata
   id="metadata3098"><rdf:RDF><cc:Work
       rdf:about=""><dc:format>image/svg+xml</dc:format><dc:type
         rdf:resource="http://purl.org/dc/dcmitype/StillImage" /></cc:Work><cc:Work
       rdf:about=""><dc:format>image/svg+xml</dc:format><dc:type
         rdf:resource="http://purl.org/dc/dcmitype/StillImage" /></cc:Work></rdf:RDF></metadata><defs
   id="defs3096"><inkscape:perspective
   sodipodi:type="inkscape:persp3d"
   inkscape:vp_x="0 : 420.94501 : 1"
   inkscape:vp_y="0 : 1000 : 0"
   inkscape:vp_z="435.68701 : 420.94501 : 1"
   inkscape:persp3d-origin="217.84351 : 280.63 : 1"
   id="perspective3100" />
		
		
		
		
	
		
		
	
		
		
		
		
		
	
	
	

		
		
		
	
			
			
		
				
				
				
				
				
			
	
	
</defs>
<sodipodi:namedview
   inkscape:window-height="1369"
   inkscape:window-width="2560"
   inkscape:pageshadow="2"
   inkscape:pageopacity="0.0"
   guidetolerance="10.0"
   gridtolerance="10.0"
   objecttolerance="10.0"
   borderopacity="1.0"
   bordercolor="#666666"
   pagecolor="#ffffff"
   id="base"
   showgrid="false"
   inkscape:zoom="1.9049022"
   inkscape:cx="217.85895"
   inkscape:cy="246.46935"
   inkscape:window-x="-8"
   inkscape:window-y="-8"
   inkscape:current-layer="layer3"
   showguides="true"
   inkscape:guide-bbox="true"
   inkscape:showpageshadow="2"
   inkscape:pagecheckerboard="0"
   inkscape:deskcolor="#d1d1d1"
   inkscape:window-maximized="1" />
<g
   inkscape:groupmode="layer"
   id="layer3"
   inkscape:label="Skeleton"
   style="display: inline;"><g
     style="overflow: visible; display: inline;"
     id="Skull"
     inkscape:label="Skull">
	<g
   id="Mandible"
   inkscape:label="Mandible">
		<g
   id="g1263">
			<path
   d="M 225.594,85.563 C 224.198,86.51 224.288,87.002 224.376,88.714 C 224.577,92.572 225.063,96.569 224.692,100.393 C 223.073,117.061 200.626,113.644 189.331,110.455 C 182.692,108.58 181.453,99.954 180.709,94.073 C 180.405,91.663 180.703,89.288 179.39,87.103 C 178.296,85.286 175.979,82.796 173.867,82.238 C 167.989,80.688 171.43,92.969 171.988,94.946 C 172.976,98.462 174.168,101.883 174.982,105.45 C 175.825,109.136 175.128,113.848 178.206,116.545 C 179.851,117.987 182,118.787 183.878,119.933 C 186.112,121.297 188.336,122.738 190.582,124.001 C 192.08,124.843 193.864,125.926 195.54,126.23 C 198.978,126.856 202.788,126.089 206.278,126.012 C 207.991,125.974 209.58,125.822 211.292,126.017 C 212.734,126.181 213.99,126.299 215.388,125.882 C 218.244,125.031 220.65,122.714 222.497,120.508 C 225.277,117.185 228.973,114.54 230.664,110.424 C 231.347,108.756 232.154,107.166 232.321,105.344 C 232.467,103.756 232.401,102.337 232.766,100.778 C 233.649,97.004 233.645,92.856 234.041,88.987 C 234.192,87.505 234.821,84.888 234.499,83.477 C 234.184,82.098 233.034,82.292 231.766,82.592 C 229.6,83.102 227.428,84.321 225.594,85.563 z"
   id="path1265"
   style="fill: rgb(244, 233, 215); stroke: rgb(150, 115, 72); stroke-width: 0.3199;" />
			<path
   d="M 180.671,97.257 C 180.238,95.549 180.565,93.001 179.467,91.589 C 178.259,93.254 178.974,96.437 179.275,98.334 C 179.579,100.248 179.941,102.2 180.488,104.055 C 181.32,106.879 181.879,110.281 184.299,112.208 C 184.176,110.927 184.387,109.052 184.111,107.989 C 183.687,106.349 182.595,104.864 182.145,103.153 C 181.638,101.22 181.168,99.216 180.671,97.257 z"
   id="path1267"
   style="fill: rgb(220, 192, 109);" />
			<path
   d="M 226.841,94.204 C 226.841,92.785 227.698,90.443 226.443,89.373 C 225.089,91.473 225.91,94.192 225.767,96.538 C 225.65,98.488 225.63,100.546 225.228,102.438 C 224.457,106.028 221.743,108.85 221.286,112.396 C 222.276,110.927 223.979,110.221 224.924,108.883 C 225.786,107.66 226.897,104.438 227.029,102.973 C 227.281,100.204 226.841,97.038 226.841,94.204 z"
   id="path1269"
   style="fill: rgb(220, 192, 109);" />
			<path
   d="M 176.911,102.834 C 177.212,104.731 177.435,106.701 177.358,108.625 C 177.307,109.896 176.584,112.276 177.144,113.468 C 176.354,111.784 176.189,110.687 176.415,108.875 C 177.394,101.046 170.968,94.524 171.987,86.714 C 174.387,87.89 175.44,92.26 175.863,94.64 C 176.346,97.358 176.481,100.114 176.911,102.834 z"
   id="path1271"
   style="fill: rgb(220, 192, 109);" />
			<path
   d="M 233.099,85.631 C 231.575,86.652 231.395,90.906 231.009,92.558 C 230.265,95.746 229.529,98.969 229.523,102.258 C 229.519,104.392 230.661,106.071 231.092,108.108 C 231.454,104.209 231.848,100.538 231.848,96.546 C 231.848,93.669 232.027,91.083 232.786,88.309 C 232.923,87.807 233.519,84.34 232.562,85.809"
   id="path1273"
   style="fill: rgb(220, 192, 109);" />
			<path
   d="M 207.924,122.983 C 209.34,122.679 210.451,123.688 211.592,124.429 C 211.306,124.035 211.04,123.616 210.812,123.192 C 211.578,123.654 212.435,124.19 213.228,124.59 C 212.443,123.167 210.417,122.699 209.319,121.389 C 208.512,120.428 208.114,119.612 208.092,118.376 C 208.248,118.346 208.389,118.347 208.54,118.323 C 208.378,118.349 207.03,116.169 206.87,115.917 C 206.795,116.428 207.098,123.161 207.924,122.983 z"
   id="path1275"
   style="fill: rgb(220, 192, 109);" />
			<path
   d="M 219.352,119.52 C 218.84,121.264 218.119,122.742 217.031,122.797 C 217.856,119.751 219.609,117.047 220.556,114.115 C 220.273,114.993 219.959,117.444 219.352,119.52 z"
   id="path1277"
   style="fill: rgb(220, 192, 109);" />
			<path
   d="M 222.193,118.351 C 222.809,116.883 224.677,116.06 225.778,114.997 C 226.953,113.861 228.176,112.482 228.998,111.084 C 228.434,112.732 227.329,114.373 226.134,115.665 C 224.776,117.134 222.814,117.694 221.479,119.245"
   id="path1279"
   style="fill: rgb(220, 192, 109);" />
		</g>
		<path
   d="M 190.483,116.345 C 190.397,115.349 190.401,114.202 190.14,113.255 C 189.525,113.484 189.613,113.955 189.745,114.488 C 189.903,115.121 190.425,115.683 190.483,116.345 z"
   id="path1281"
   style="fill: rgb(220, 192, 109);" />
		<path
   d="M 217.436,113.434 C 216.519,113.556 216.56,115.318 216.628,116.076 C 216.803,115.363 217.863,113.981 217.302,113.434"
   id="path1283"
   style="fill: rgb(220, 192, 109);" />
		<path
   d="M 187.531,112.361 C 187.631,112.522 187.751,112.663 187.893,112.785 C 187.581,113.312 188.162,114.019 188.409,114.499 C 188.265,113.856 188.224,112.796 187.665,112.495"
   id="path1285"
   style="fill: rgb(220, 192, 109);" />
		<path
   d="M 194.906,114.239 C 195.086,114.739 195.364,115.12 195.831,115.344 C 195.128,116.009 196.253,118.347 196.73,119.082 C 195.837,118.249 194.776,115.435 194.897,114.145 C 195.061,114.335 195.207,114.557 195.309,114.775"
   id="path1287"
   style="fill: rgb(220, 192, 109);" />
		<path
   d="M 211.669,115.042 C 212.004,114.753 212.336,114.485 212.724,114.285 C 212.643,114.557 212.588,114.975 212.462,115.261 C 212.485,115.209 212.525,115.189 212.583,115.2 C 212.336,115.809 212.517,116.633 212.734,117.148 C 213.244,116.206 213.798,115.16 214.464,114.282 C 213.864,115.443 212.999,116.689 212.706,117.982 C 212.683,117.944 212.623,117.812 212.576,117.737 C 212.301,118.03 212.1,118.456 212.064,118.901 C 212.271,118.264 212.725,116.711 212.307,116.168 C 212.234,116.226 212.164,116.285 212.096,116.346 C 212.064,116.157 212.064,116.03 211.947,115.877 C 211.806,116.098 211.497,116.326 211.392,116.604 C 211.543,116.038 211.65,115.495 211.533,114.908"
   id="path1289"
   style="fill: rgb(220, 192, 109);" />
		<path
   d="M 198.795,115.312 C 199.126,114.81 199.456,114.612 199.674,114.085 C 199.667,114.039 199.602,114.384 199.616,114.349 C 199.77,114.305 200.091,114.28 200.249,114.251 C 199.918,115.571 199.978,117.013 199.766,118.201 C 199.679,117.124 199.249,116.12 199.197,115.042"
   id="path1291"
   style="fill: rgb(220, 192, 109);" />
		<path
   d="M 203.758,114.641 C 202.869,114.969 203.479,116.293 203.519,117.053 C 203.798,116.423 203.623,115.376 203.623,114.641"
   id="path1293"
   style="fill: rgb(220, 192, 109);" />
		<path
   d="M 207.513,114.775 C 207.847,114.875 208.095,114.962 208.167,115.289 C 208.09,115.302 208.011,115.315 207.933,115.328 C 207.963,115.7 208.018,116.111 208.125,116.478 C 207.622,115.711 207.152,114.951 207.508,114.008 C 207.609,114.389 207.785,114.751 208.048,115.043"
   id="path1295"
   style="fill: rgb(220, 192, 109);" />
	</g>
	<g
   id="g1297">
		<path
   d="M 187.446,111.308 C 187.815,111.627 188.913,112.123 189.433,111.762 C 190.049,111.333 190.564,109.833 190.108,109.164 C 188.584,106.926 185.268,109.417 187.446,111.308 z"
   id="path1299"
   style="fill: rgb(225, 226, 227); stroke: rgb(150, 115, 72); stroke-width: 0.3915;" />
		<path
   d="M 190.753,108.981 C 190.497,108.441 189.771,107.867 189.146,107.878 C 188.862,107.883 187.918,108.22 187.813,108.532 C 187.487,109.511 187.771,110.995 188.357,111.911 C 188.549,112.211 188.836,112.554 189.162,112.696 C 189.721,112.939 189.66,112.773 190.056,112.356 C 190.306,112.091 190.904,111.724 191.021,111.381 C 191.16,110.976 190.944,109.382 190.753,108.981 z"
   id="path1301"
   style="fill: rgb(225, 226, 227); stroke: rgb(150, 115, 72); stroke-width: 0.3915;" />
		<path
   d="M 191.06,108.159 C 190.331,108.048 189.879,107.406 189.43,108.161 C 189.192,108.56 189.223,109.222 189.273,109.678 C 189.36,110.483 189.994,112.425 190.81,112.79 C 191.856,113.256 192.817,112.35 192.833,111.29 C 192.837,110.985 192.485,110.317 192.424,109.96 C 192.364,109.606 192.39,109.106 192.247,108.781 C 191.934,108.077 191.117,108.248 190.613,107.802"
   id="path1303"
   style="fill: rgb(225, 226, 227); stroke: rgb(150, 115, 72); stroke-width: 0.3915;" />
		<path
   d="M 191.854,112.129 C 192.356,112.706 193.498,113.899 193.544,113.869 C 195.328,112.715 195.008,107.853 192.427,107.747 C 190.521,107.669 191.065,110.847 191.631,111.849 C 191.657,111.894 191.738,111.994 191.854,112.129 z"
   id="path1305"
   style="fill: rgb(225, 226, 227); stroke: rgb(150, 115, 72); stroke-width: 0.3915;" />
		<path
   d="M 197.309,108.998 C 197.381,109.109 197.433,109.233 197.456,109.371 C 197.585,110.112 197.065,111.436 196.867,112.171 C 196.69,112.829 196.519,113.742 195.903,114.125 C 194.974,113.341 193.369,108.719 195.299,108.326 C 195.965,108.19 196.929,108.417 197.309,108.998 z"
   id="path1307"
   style="fill: rgb(225, 226, 227); stroke: rgb(150, 115, 72); stroke-width: 0.3805;" />
		<path
   d="M 200.069,109.005 C 200.948,109.48 199.786,113.981 198.816,114.176 C 197.861,114.367 197.475,111.452 197.43,110.832 C 197.298,108.996 198.355,108.079 200.069,109.005 z"
   id="path1309"
   style="fill: rgb(225, 226, 227); stroke: rgb(150, 115, 72); stroke-width: 0.3915;" />
		<path
   d="M 203.231,108.776 C 203.835,108.967 203.399,111.437 203.301,111.872 C 203.173,112.441 203.117,113.774 202.527,114.082 C 201.245,114.754 200.807,112.146 200.734,111.434 C 200.68,110.916 200.408,110.213 200.43,109.716 C 200.491,108.345 202.318,108.49 203.231,108.776 z"
   id="path1311"
   style="fill: rgb(225, 226, 227); stroke: rgb(150, 115, 72); stroke-width: 0.4269;" />
		<path
   d="M 220.015,111.412 C 219.642,111.726 218.537,112.207 218.023,111.839 C 217.411,111.402 216.916,109.895 217.383,109.232 C 218.936,107.016 222.218,109.55 220.015,111.412 z"
   id="path1313"
   style="fill: rgb(225, 226, 227); stroke: rgb(150, 115, 72); stroke-width: 0.3915;" />
		<path
   d="M 216.737,109.042 C 217.002,108.505 217.735,107.94 218.361,107.961 C 218.644,107.97 219.585,108.319 219.685,108.632 C 219.998,109.616 219.696,111.096 219.096,112.004 C 218.9,112.301 218.608,112.64 218.281,112.778 C 217.718,113.014 217.782,112.848 217.392,112.426 C 217.144,112.158 216.552,111.783 216.439,111.439 C 216.306,111.03 216.543,109.44 216.737,109.042 z"
   id="path1315"
   style="fill: rgb(225, 226, 227); stroke: rgb(150, 115, 72); stroke-width: 0.3915;" />
		<path
   d="M 216.442,108.215 C 217.173,108.114 217.631,107.477 218.074,108.239 C 218.304,108.641 218.266,109.303 218.21,109.759 C 218.11,110.563 217.453,112.496 216.632,112.85 C 215.581,113.302 214.631,112.384 214.629,111.323 C 214.629,111.018 214.992,110.354 215.056,109.998 C 215.122,109.643 215.1,109.143 215.248,108.821 C 215.57,108.122 216.387,108.303 216.895,107.864"
   id="path1317"
   style="fill: rgb(225, 226, 227); stroke: rgb(150, 115, 72); stroke-width: 0.3915;" />
		<path
   d="M 215.596,112.174 C 215.086,112.744 213.928,113.923 213.881,113.892 C 212.113,112.715 212.499,107.858 215.082,107.785 C 216.989,107.733 216.402,110.903 215.824,111.898 C 215.798,111.942 215.715,112.041 215.596,112.174 z"
   id="path1319"
   style="fill: rgb(225, 226, 227); stroke: rgb(150, 115, 72); stroke-width: 0.3915;" />
		<path
   d="M 210.185,108.972 C 210.11,109.081 210.057,109.204 210.032,109.341 C 209.893,110.082 210.397,111.413 210.584,112.15 C 210.751,112.81 210.91,113.725 211.521,114.116 C 212.461,113.344 214.127,108.744 212.203,108.325 C 211.537,108.182 210.571,108.396 210.185,108.972 z"
   id="path1321"
   style="fill: rgb(225, 226, 227); stroke: rgb(150, 115, 72); stroke-width: 0.3805;" />
		<path
   d="M 207.422,108.942 C 206.537,109.404 207.64,113.921 208.609,114.129 C 209.56,114.333 209.984,111.422 210.037,110.804 C 210.193,108.968 209.15,108.04 207.422,108.942 z"
   id="path1323"
   style="fill: rgb(225, 226, 227); stroke: rgb(150, 115, 72); stroke-width: 0.3915;" />
		<path
   d="M 204.454,108.974 C 203.854,109.174 204.328,111.637 204.433,112.07 C 204.569,112.637 204.648,113.97 205.242,114.269 C 206.534,114.921 206.931,112.306 206.993,111.592 C 207.038,111.073 207.3,110.367 207.27,109.87 C 207.186,108.498 205.362,108.672 204.454,108.974 z"
   id="path1325"
   style="fill: rgb(225, 226, 227); stroke: rgb(150, 115, 72); stroke-width: 0.4269;" />
	</g>
	<g
   id="Cranium"
   inkscape:label="Cranium">
		<g
   id="g1329">
			<path
   d="M 169.92,57.363 C 169.652,57.119 167.322,55.773 167.322,55.745 C 167.281,57.976 167.62,60.366 168.218,62.518 C 168.784,64.556 169.267,66.446 169.374,68.551 C 169.483,70.714 169.562,72.837 169.522,74.974 C 169.482,77.222 169.27,78.126 171.356,79.456 C 174.14,81.233 172.457,78.315 172.464,76.578 C 172.479,73.682 172.172,70.563 172.593,67.615 C 172.742,66.572 173.384,65.358 173.417,64.364 C 173.459,63.106 172.595,61.911 172.023,60.85 C 171.393,59.673 170.982,58.333 169.92,57.363 z"
   id="path1331"
   style="fill: rgb(249, 227, 183); stroke: rgb(150, 115, 72); stroke-width: 0.3199;" />
			<path
   d="M 171.63,58.673 C 169.912,59.133 170.572,61.14 170.993,62.259 C 171.833,64.49 172.676,65.279 174.097,62.798 C 173.674,62.287 172.355,58.479 171.63,58.673 z"
   id="path1333"
   style="fill: rgb(249, 227, 183); stroke: rgb(150, 115, 72); stroke-width: 0.3199;" />
			<path
   d="M 167.885,47.307 C 167.501,49.394 167.27,51.609 167.01,53.705 C 166.851,54.984 166.934,56.403 167.022,57.686 C 167.076,58.436 167.896,60.692 167.673,61.269 C 167.884,60.722 168.089,60.195 168.091,59.61 C 168.451,59.899 168.889,60.035 169.32,60.215 C 169.332,60.184 169.508,59.86 169.518,59.872 C 169.79,60.18 170.194,60.501 170.378,60.915 C 170.418,60.209 170.81,59.509 171.469,59.142 C 171.192,58.605 171.063,57.986 171.094,57.371 C 170.987,57.331 170.889,57.408 170.815,57.374 C 169.535,56.788 169.07,53.01 169.691,51.864 C 169.812,51.959 170.075,52.087 170.204,52.195 C 170.103,51.772 170.06,51.272 170.088,50.809 C 170.186,50.788 170.285,50.768 170.384,50.747 C 170.481,50.175 170.179,49.852 170.097,49.321 C 169.801,47.401 170.246,45.292 170.351,43.359 C 170.46,41.314 170.548,38.942 171.784,37.203 C 170.301,38.274 169.454,41.227 168.942,42.922 C 168.522,44.306 168.149,45.869 167.885,47.307 z"
   id="path1335"
   style="fill: rgb(249, 227, 183); stroke: rgb(150, 115, 72); stroke-width: 0.3199;" />
		</g>
		<g
   id="g1337">
			<path
   d="M 236.105,74.116 C 236.078,72.807 236.246,71.5 236.22,70.19 C 236.168,67.609 236.941,64.935 237.528,62.443 C 237.784,61.353 238.652,57.874 236.981,57.452 C 235.61,57.106 234.146,59.65 233.481,60.482 C 232.249,62.027 232.121,63.711 232.618,65.686 C 233.396,68.774 234.068,72.712 232.798,75.798 C 231.822,78.169 234.525,79.52 235.963,77.468 C 236.627,76.517 236.146,75.343 236.109,74.245 C 236.107,74.203 236.107,74.16 236.105,74.116 z"
   id="path1339"
   style="fill: rgb(249, 227, 183); stroke: rgb(150, 115, 72); stroke-width: 0.3199;" />
			<path
   d="M 238.003,47.189 C 238.61,51.196 238.444,56.522 237.282,60.409 C 237.017,59.703 236.465,59.776 236.26,60.55 C 236.185,60.272 235.928,59.985 235.857,59.773 C 235.546,60.081 235.194,60.412 234.844,60.724 C 234.127,59.468 233.571,61.004 233.545,61.827 C 233.114,61.585 232.564,61.17 231.982,61.475 C 232.708,59.559 231.906,57.034 232.535,55.052 C 232.946,53.764 233.661,53.259 233.571,51.647 C 233.515,50.666 233.137,49.763 233.076,48.799 C 233.007,47.723 233.322,46.783 233.394,45.71 C 233.481,44.414 233.076,42.87 233.253,41.638 C 233.352,40.974 233.871,40.645 234.042,40.047 C 234.278,39.216 233.982,38.296 234.372,37.553 C 235.498,38.699 235.763,40.582 236.306,42.033 C 236.945,43.746 237.724,45.36 238.003,47.189 z"
   id="path1341"
   style="fill: rgb(249, 227, 183); stroke: rgb(150, 115, 72); stroke-width: 0.3199;" />
			<path
   d="M 231.641,64.882 C 231.598,64.863 231.555,64.841 231.512,64.816 C 230.184,64.041 230.378,61.019 230.768,59.838 C 230.95,59.294 231.193,58.707 231.614,58.298 C 231.757,58.158 233.047,57.537 233.036,57.569 C 232.579,59.244 233.751,60.97 233.486,62.679 C 233.313,63.805 232.696,65.353 231.641,64.882 z"
   id="path1343"
   style="fill: rgb(249, 227, 183); stroke: rgb(150, 115, 72); stroke-width: 0.3199;" />
		</g>
		<path
   d="M 214.269,71.147 C 213.477,70.508 212.938,69.591 212.191,68.672 C 211.197,67.446 210.839,65.697 209.822,64.584 C 208.578,63.221 206.505,64.207 204.924,64.2 C 201.685,64.185 198.551,63.939 195.304,64.216 C 193.393,64.381 193.31,65.403 192.75,67.296 C 192.22,69.088 192.136,69.737 190.737,71.048 C 189.587,72.126 188.308,73.009 187.021,73.912 C 185.643,74.878 183.396,76.034 182.527,77.543 C 181.706,78.971 182.704,81.454 183.509,82.728 C 184.647,84.53 187.594,84.411 189.523,84.305 C 191.315,84.205 192.504,83.885 193.867,84.995 C 194.389,85.421 195.335,85.955 195.599,86.599 C 195.912,87.357 195.369,88.433 195.411,89.302 C 195.494,91.069 195.445,93.694 197.547,94.268 C 199.981,94.932 201.035,92.94 202.33,91.622 C 203.285,92.637 203.844,94.194 205.323,94.574 C 207.823,95.215 208.32,92.474 208.352,90.606 C 208.367,89.675 207.729,87.713 208.079,86.918 C 208.618,85.691 211.103,85.649 212.195,85.532 C 214.913,85.242 217.854,85.766 220.526,85.094 C 224.722,84.037 223.426,78.761 223.096,75.661 C 222.949,74.299 223.254,72.991 221.859,72.389 C 220.042,71.605 218.001,72.238 216.107,71.945 C 215.332,71.825 214.753,71.538 214.269,71.147 z"
   id="path1345"
   style="fill: rgb(35, 31, 32);" />
		<linearGradient
   id="XMLID_7_"
   gradientUnits="userSpaceOnUse"
   x1="202.647"
   y1="95.355499"
   x2="202.5137"
   y2="83.2285">
			<stop
   offset="0"
   style="stop-color: rgb(243, 212, 140);"
   id="stop1348" />
			<stop
   offset="0.3483"
   style="stop-color: rgb(204, 178, 92);"
   id="stop1350" />
			<stop
   offset="0.4438"
   style="stop-color: rgb(200, 175, 90);"
   id="stop1352" />
			<stop
   offset="0.5354"
   style="stop-color: rgb(189, 165, 85);"
   id="stop1354" />
			<stop
   offset="0.6256"
   style="stop-color: rgb(169, 148, 76);"
   id="stop1356" />
			<stop
   offset="0.7149"
   style="stop-color: rgb(142, 124, 64);"
   id="stop1358" />
			<stop
   offset="0.8035"
   style="stop-color: rgb(107, 93, 48);"
   id="stop1360" />
			<stop
   offset="0.8916"
   style="stop-color: rgb(64, 56, 29);"
   id="stop1362" />
			<stop
   offset="0.9778"
   style="stop-color: rgb(14, 12, 6);"
   id="stop1364" />
			<stop
   offset="1"
   style="stop-color: rgb(0, 0, 0);"
   id="stop1366" />
		</linearGradient>
		<path
   d="M 202.63,82.026 C 202.549,83.208 202.436,84.213 202.363,85.358 C 202.307,86.215 202.05,87.225 201.846,88.023 C 202.497,88.72 201.904,90.438 202.736,90.945 C 203.193,89.205 203.267,87.806 203.16,86.025 C 203.073,84.581 203.465,82.839 203.002,81.508 C 202.692,81.673 202.68,81.94 202.629,82.294"
   id="path1368"
   style="fill: url(#XMLID_7_) rgb(0, 0, 0);" />
		<g
   id="g1370">
			<path
   d="M 197.434,69.279 C 197.66,69.046 197.987,68.91 198.163,68.514 C 198.367,68.058 198.266,67.668 198.495,67.273 C 198.656,66.993 198.982,66.739 199.234,66.551 C 200.635,67.679 200.379,68.956 200.488,70.644 C 200.581,72.079 200.227,73.351 199.868,74.707 C 199.501,76.09 199.47,77.415 199.055,78.776 C 198.635,80.151 199.279,81.62 198.897,83.043 C 198.304,85.26 194.159,91.084 198.335,92.188 C 199.357,92.459 200.86,92.516 201.634,91.674 C 202.335,90.907 202.305,89.605 202.734,88.692 C 202.896,90.576 202.585,92.467 202.808,94.351 C 203.073,96.581 203.973,99.092 203.715,101.344 C 203.483,103.372 201.627,103.436 199.944,103.612 C 197.535,103.859 195.106,103.959 192.719,104.388 C 191.469,104.613 190.245,104.954 189.014,105.256 C 188.934,105.275 185.796,106.061 186.464,106.486 C 186.349,106.412 186.044,106.24 185.957,106.163 C 185.742,104.879 185.017,103.887 185.256,102.462 C 185.679,99.945 187.205,96.273 183.933,95.17 C 182.071,94.543 180.123,94.512 178.234,93.787 C 177.298,93.428 173.037,92.053 174.137,90.436 C 175.253,90.96 176.795,89.25 177.323,88.458 C 177.348,88.421 177.833,87.428 177.855,87.356 C 177.965,86.995 177.639,86.906 177.801,86.55 C 178.04,86.028 178.881,86.099 178.243,85.353 C 178.919,84.897 180.082,84.771 180.397,83.911 C 180.64,83.884 180.692,83.812 180.89,83.728 C 180.252,83.999 180.91,82.453 181.061,82.291 C 181.412,81.913 182.33,81.46 182.804,81.277 C 183.04,81.187 183.344,81.497 183.616,81.14 C 183.562,81.089 183.554,81.09 183.594,81.143 C 184.739,81.656 186.233,80.209 187.096,80.56 C 187.183,80.529 187.214,80.37 187.296,80.331 C 187.404,80.328 187.391,80.424 187.499,80.426 C 187.787,79.895 188.361,79.06 188.843,78.718 C 188.863,78.796 188.883,78.875 188.903,78.954 C 189.307,78.515 189.776,77.956 190.107,77.415 C 190.25,77.182 191.391,78.315 191.476,78.533 C 192.163,77.414 192.124,75.982 192.632,74.78 C 193.158,73.538 193.584,72.777 194.64,71.86 C 195.441,71.164 196.592,71.253 197.188,70.26 C 197.333,70.018 197.199,69.629 197.31,69.442 C 197.343,69.381 197.387,69.328 197.434,69.279 z"
   id="path1372"
   style="fill: rgb(249, 227, 183); stroke: rgb(150, 115, 72); stroke-width: 0.3199;" />
			<path
   d="M 208.148,89.481 C 208.15,88.462 207.666,87.489 207.329,86.459 C 206.95,85.308 206.675,84.124 206.66,82.926 C 206.634,80.989 207.236,79.251 206.255,77.428 C 205.589,76.188 205.57,74.799 205.553,73.336 C 205.534,71.554 206.376,69.09 205.31,67.529 C 205.928,67.465 206.08,66.904 205.846,66.458 C 206.712,66.243 207.349,64.596 207.456,63.781 C 210.429,65.687 207.155,69.674 209.913,72.053 C 211.154,73.124 212.677,73.625 213.631,75.084 C 214.448,76.333 214.147,77.862 215.606,78.666 C 217.423,79.664 219.732,79.414 221.725,79.41 C 223.983,79.403 225.324,79.045 226.176,81.519 C 226.639,82.864 226.25,83.95 226.257,85.375 C 226.266,86.835 226.734,87.607 227.871,88.526 C 228.074,88.69 229.158,89.296 229.224,89.46 C 229.622,90.464 226.861,91.633 226.214,91.861 C 224.535,92.456 222.629,93.282 221.791,94.953 C 220.929,96.669 221.522,98.746 221.491,100.57 C 221.474,101.566 221.715,104.341 220.728,104.921 C 220.12,105.277 217.951,104.733 217.148,104.777 C 215.484,104.867 213.835,104.5 212.195,104.285 C 210.538,104.069 208.678,104.157 207.13,103.48 C 206.885,103.375 203.196,101.743 203.393,102.599 C 202.998,100.876 203.77,98.874 203.327,97.086 C 202.715,94.627 202.824,91.654 202.758,89.134 C 203.31,90.393 204.153,92.559 205.832,92.421 C 207.043,92.321 207.886,91.183 208.101,90.023 C 208.133,89.841 208.148,89.66 208.148,89.481 z"
   id="path1374"
   style="fill: rgb(249, 227, 183); stroke: rgb(150, 115, 72); stroke-width: 0.3199;" />
			<linearGradient
   id="XMLID_8_"
   gradientUnits="userSpaceOnUse"
   x1="216.603"
   y1="83.698196"
   x2="218.7493"
   y2="82.625099">
				<stop
   offset="0"
   style="stop-color: rgb(243, 212, 140);"
   id="stop1377" />
				<stop
   offset="0.1075"
   style="stop-color: rgb(238, 208, 137);"
   id="stop1379" />
				<stop
   offset="0.2346"
   style="stop-color: rgb(224, 195, 129);"
   id="stop1381" />
				<stop
   offset="0.3717"
   style="stop-color: rgb(200, 174, 115);"
   id="stop1383" />
				<stop
   offset="0.5158"
   style="stop-color: rgb(166, 145, 96);"
   id="stop1385" />
				<stop
   offset="0.6655"
   style="stop-color: rgb(124, 108, 71);"
   id="stop1387" />
				<stop
   offset="0.8198"
   style="stop-color: rgb(71, 62, 41);"
   id="stop1389" />
				<stop
   offset="0.9751"
   style="stop-color: rgb(10, 9, 6);"
   id="stop1391" />
				<stop
   offset="1"
   style="stop-color: rgb(0, 0, 0);"
   id="stop1393" />
			</linearGradient>
			<path
   d="M 217.359,82.331 C 216.856,82.844 216.858,83.694 218.123,83.754 C 218.811,83.787 219.516,83.472 219.415,82.619 C 218.694,81.676 217.816,81.864 217.359,82.331 z"
   id="path1395"
   style="fill: url(#XMLID_8_) rgb(0, 0, 0);" />
			<path
   d="M 207.288,101.008 C 207.811,101.372 208.203,101.797 208.357,102.371 C 208.773,101.501 208.611,99.885 208.048,99.106 C 207.944,99.149 207.909,99.295 207.826,99.327 C 207.575,99.023 207.165,98.823 206.943,98.568 C 207.474,99.213 207.41,100.415 207.109,101.186"
   id="path1397"
   style="fill: rgb(220, 192, 109);" />
			<path
   d="M 201.209,100.829 C 201.725,100.742 202.152,100.906 202.482,101.302 C 202.284,100.822 202.329,100.507 202.271,99.996 C 202.297,100.09 202.346,100.168 202.42,100.232 C 202.616,99.433 202.143,98.514 201.511,98.028 C 201.251,98.898 201.539,100.118 201.029,100.83"
   id="path1399"
   style="fill: rgb(220, 192, 109);" />
			<path
   d="M 209.792,101.008 C 210.287,101.166 210.692,101.449 211.016,101.851 C 211.359,100.037 210.276,98.122 210.186,96.36 C 210.083,94.401 211.51,92.098 210.538,90.111 C 210.935,91.092 210.449,92.858 210.109,93.855 C 209.702,95.052 209.8,95.042 209.794,96.184 C 209.787,97.541 210.583,99.671 209.971,101.008"
   id="path1401"
   style="fill: rgb(220, 192, 109);" />
			<path
   d="M 196.917,102.438 C 197.143,102.001 197.515,101.596 197.93,101.359 C 197.035,101.076 197.566,96.186 197.788,95.314 C 196.155,95.532 195.985,92.327 195.657,91.226 C 195.685,93.643 196.92,95.902 196.917,98.38 C 196.915,99.675 197.027,101.062 196.738,102.259"
   id="path1403"
   style="fill: rgb(220, 192, 109);" />
			<path
   d="M 214.489,100.431 C 214.469,100.138 214.133,99.721 214.073,99.399 C 213.738,97.584 214.25,95.568 214.261,93.732 C 214.248,95.736 213.773,97.952 213.493,99.938 C 213.412,100.522 213.414,101.287 213.035,101.784 C 212.532,102.439 211.566,102.202 211.245,103.31 C 212.397,103.056 213.275,102.838 214.414,103.505 C 214.211,102.377 214.565,101.49 214.489,100.431 z"
   id="path1405"
   style="fill: rgb(220, 192, 109);" />
			<path
   d="M 215.691,103.69 C 215.633,103.109 215.77,102.485 215.896,101.928 C 218.069,101.751 217.197,97.221 217.34,95.654 C 217.875,97.32 217.092,100.557 218.055,102.054 C 218.176,102.018 218.217,101.947 218.347,101.928 C 218.198,102.204 218.061,103.254 218.742,102.951 C 219.063,102.809 219.185,101.719 219.268,101.518 C 219.287,101.59 219.429,101.899 219.481,102.066 C 220.935,101.152 219.33,99.865 219.769,99.072 C 219.844,99.122 219.844,99.144 219.765,99.137 C 219.908,98.791 220.222,97.921 220.336,97.251 C 220.503,96.28 220.204,95.081 220.68,94.249 C 220.405,94.303 220.11,94.23 219.818,94.364 C 220.695,93.751 221.311,92.573 222.128,91.771 C 222.644,92.895 225.525,91.403 226.538,91.199 C 224.583,93.273 221.262,93.051 220.876,96.358 C 220.581,98.882 221.83,102.824 219.843,104.748 C 219.768,104.273 219.553,103.798 219.271,103.487 C 218.83,103.725 218.461,104.049 218.195,104.429 C 217.805,104.044 217.331,103.483 216.755,103.313 C 216.239,103.162 216.098,104.499 215.512,103.33"
   id="path1407"
   style="fill: rgb(220, 192, 109);" />
			<path
   d="M 216.944,83.843 C 216.795,84.998 215.22,84.956 214.29,84.943 C 214.772,86.282 213.71,85.935 212.859,86.195 C 213.053,87.52 213.273,88.904 213.408,90.285 C 213.508,91.327 213.23,93.092 213.73,93.972 C 214.144,92.549 214.095,91.055 214.619,89.62 C 215.598,92.939 215.841,97.136 215.871,100.331 C 215.882,98.196 215.244,93.403 216.541,91.726 C 216.635,92.212 217.07,92.747 217.136,93.119 C 217.285,93.953 217.033,94.772 217.306,95.59 C 217.276,93.613 216.658,91.694 216.73,89.763 C 216.543,90.034 216.082,90.373 215.876,90.659 C 215.172,90.263 215.376,89.424 215.157,88.742 C 215.136,88.808 215.091,88.837 215.021,88.829 C 214.917,88.214 214.533,87.847 213.974,88.158 C 214.319,87.51 214.247,86.404 214.8,85.928 C 214.974,85.779 215.568,86.087 215.889,85.864 C 216.489,85.451 216.917,84.34 216.587,83.665"
   id="path1409"
   style="fill: rgb(220, 192, 109);" />
			<path
   d="M 210.447,82.155 C 210.23,80.732 209.69,77.194 208.385,76.345 C 208.498,77.949 209.344,79.708 209.622,81.344 C 209.81,82.441 210.164,85.141 209.103,85.854 C 210.033,86.708 210.317,88.029 210.694,89.237 C 210.035,87.127 210.784,84.364 210.447,82.155 z"
   id="path1411"
   style="fill: rgb(220, 192, 109);" />
			<path
   d="M 193.528,100.168 C 193.496,100.237 192.579,102.213 192.462,102.046 C 191.351,100.473 190.756,97.936 191.384,96.046 C 190.68,98.163 191.017,100.761 191.017,103 C 191.2,103.094 190.839,102.97 191.031,102.864 C 190.604,103.166 190.349,103.431 190.084,103.843 C 190.023,103.686 189.79,103.537 189.74,103.175 C 189.416,103.356 188.885,103.653 188.545,103.844 C 188.434,102.343 188.892,100.648 188.657,99.223 C 187.891,100.418 188.009,102.262 187.942,103.67 C 187.384,103.731 187.68,103.593 187.124,103.993 C 187.079,103.938 186.76,103.511 186.766,103.521 C 186.673,103.679 186.64,103.868 186.499,103.992 C 186.028,101.958 186.714,100.512 186.91,98.572 C 186.891,98.622 186.856,98.651 186.806,98.661 C 186.804,97.544 186.38,96.057 186.014,95.258 C 186.393,97.917 184.354,103.347 186.335,105.471 C 186.286,105.026 186.529,104.671 186.58,104.251 C 186.893,104.183 187.494,104.077 187.755,104.072 C 187.938,104.376 188.364,104.611 188.524,104.887 C 188.938,103.427 189.911,104.048 190.794,104.745 C 190.201,104.277 192.341,103.506 192.966,104.167 C 192.896,103.457 193.342,103.16 194.034,103.302 C 193.664,102.435 193.499,101.178 193.528,100.168 z"
   id="path1413"
   style="fill: rgb(220, 192, 109);" />
			<linearGradient
   id="XMLID_9_"
   gradientUnits="userSpaceOnUse"
   x1="189.9565"
   y1="83.639198"
   x2="188.1696"
   y2="82.745796">
				<stop
   offset="0"
   style="stop-color: rgb(243, 212, 140);"
   id="stop1416" />
				<stop
   offset="0.1075"
   style="stop-color: rgb(238, 208, 137);"
   id="stop1418" />
				<stop
   offset="0.2346"
   style="stop-color: rgb(224, 195, 129);"
   id="stop1420" />
				<stop
   offset="0.3717"
   style="stop-color: rgb(200, 174, 115);"
   id="stop1422" />
				<stop
   offset="0.5158"
   style="stop-color: rgb(166, 145, 96);"
   id="stop1424" />
				<stop
   offset="0.6655"
   style="stop-color: rgb(124, 108, 71);"
   id="stop1426" />
				<stop
   offset="0.8198"
   style="stop-color: rgb(71, 62, 41);"
   id="stop1428" />
				<stop
   offset="0.9751"
   style="stop-color: rgb(10, 9, 6);"
   id="stop1430" />
				<stop
   offset="1"
   style="stop-color: rgb(0, 0, 0);"
   id="stop1432" />
			</linearGradient>
			<path
   d="M 189.408,84.168 C 191.552,83.331 188.099,81.18 187.786,81.649 C 187.186,82.545 188.172,84.634 189.381,84.179 C 189.391,84.175 189.399,84.171 189.408,84.168 z"
   id="path1434"
   style="fill: url(#XMLID_9_) rgb(0, 0, 0);" />
			<path
   d="M 187.799,84.379 C 188.099,84.904 188.366,85.431 188.702,85.925 C 188.704,85.64 188.813,85.565 188.868,85.341 C 189.404,85.87 189.209,85.595 189.769,85.609 C 190.04,85.809 190.393,86.106 190.682,86.341 C 190.053,87.424 191.13,89.019 191.152,90.088 C 191.187,91.702 190.738,94.021 190.838,95.316 C 190.838,93.755 190.953,91.736 189.985,90.522 C 189.927,90.475 189.794,90.737 189.757,90.755 C 189.745,90.594 189.818,90.448 189.726,90.294 C 188.363,92.179 189.452,94.959 188.733,97.021 C 188.548,95.044 189.186,92.858 188.663,91.027 C 188.101,90.601 187.866,89.66 186.981,89.741 C 186.948,89.793 186.792,89.951 186.718,90.039 C 186.751,89.342 186.535,89.592 186.225,89.096 C 185.007,90.025 184.584,91.204 183.115,91.997 C 184.409,91.442 185.609,90.398 186.042,89.056 C 186.155,88.982 186.618,88.787 186.763,88.735 C 187.263,89.393 189.238,90.22 188.77,88.725 C 188.972,89.225 189.391,89.456 189.918,89.359 C 190.169,88.23 189.408,87.054 188.833,86.161 C 188.394,85.48 188.13,84.953 187.8,84.202"
   id="path1436"
   style="fill: rgb(220, 192, 109);" />
			<path
   d="M 197.633,77.585 C 197.617,81.184 195.146,84.553 195.501,88.066 C 194.811,85.803 195.609,83.454 196.252,81.205 C 196.806,79.255 197.112,77.219 197.888,75.337 C 197.511,76.522 197.169,77.534 197.99,78.658"
   id="path1438"
   style="fill: rgb(220, 192, 109);" />
		</g>
		<path
   d="M 193.378,63.639 C 191.503,61.618 189.755,60.889 187.118,62.457 C 185.069,63.675 183.281,65.653 181.894,67.572 C 181.341,68.336 179.536,69.333 179.378,70.25 C 179.223,71.143 180.917,73.472 181.687,73.808 C 181.656,73.604 181.632,73.529 181.558,73.33 C 182.483,73.215 181.928,73.823 182.431,74.196 C 182.868,74.519 183.392,74.644 183.69,75.118 C 184.39,76.23 183.863,78.161 184.438,79.346 C 186.464,78.959 188.082,76.849 189.962,76.06 C 189.95,76.106 189.847,75.961 189.841,75.98 C 190.026,75.743 190.39,75.607 190.609,75.462 C 192.011,77.729 192.78,74.249 193.117,73.329 C 193.737,71.644 194.911,70.215 195.317,68.465 C 195.512,67.623 195.57,66.604 195.298,65.785 C 194.94,64.71 194.188,64.512 193.378,63.639 z"
   id="path1440"
   style="fill: rgb(249, 227, 183); stroke: rgb(150, 115, 72); stroke-width: 0.3199;" />
		<path
   d="M 216.381,60.822 C 214.077,61.203 212.405,62.068 211.021,63.862 C 209.582,65.731 209.483,66.944 210.082,69.35 C 210.575,71.323 211.554,73.594 213.546,74.408 C 215.194,75.08 218.096,77.291 219.964,76.805 C 219.995,76.797 221.03,75.553 221.244,75.378 C 221.931,74.813 222.604,74.275 223.389,73.83 C 224.01,73.479 224.179,73.486 224.989,73.293 C 227.047,72.803 226.018,71.947 226.814,70.42 C 227.132,69.81 228.006,69.786 228.008,69.05 C 228.011,68.788 225.621,65.951 225.387,65.622 C 223.766,63.365 219.11,60.374 216.381,60.822 z"
   id="path1442"
   style="fill: rgb(249, 227, 183); stroke: rgb(150, 115, 72); stroke-width: 0.3199;" />
		<linearGradient
   id="XMLID_10_"
   gradientUnits="userSpaceOnUse"
   x1="217.979"
   y1="56.644501"
   x2="218.33701"
   y2="57.807701">
			<stop
   offset="0"
   style="stop-color: rgb(243, 212, 140);"
   id="stop1445" />
			<stop
   offset="0.1075"
   style="stop-color: rgb(238, 208, 137);"
   id="stop1447" />
			<stop
   offset="0.2346"
   style="stop-color: rgb(224, 195, 129);"
   id="stop1449" />
			<stop
   offset="0.3717"
   style="stop-color: rgb(200, 174, 115);"
   id="stop1451" />
			<stop
   offset="0.5158"
   style="stop-color: rgb(166, 145, 96);"
   id="stop1453" />
			<stop
   offset="0.6655"
   style="stop-color: rgb(124, 108, 71);"
   id="stop1455" />
			<stop
   offset="0.8198"
   style="stop-color: rgb(71, 62, 41);"
   id="stop1457" />
			<stop
   offset="0.9751"
   style="stop-color: rgb(10, 9, 6);"
   id="stop1459" />
			<stop
   offset="1"
   style="stop-color: rgb(0, 0, 0);"
   id="stop1461" />
		</linearGradient>
		<path
   d="M 217.225,57.385 C 217.236,57.425 217.263,57.466 217.306,57.504 C 217.539,57.713 219.317,57.612 219.155,57.28 C 218.733,56.416 217.097,56.936 217.225,57.385 z"
   id="path1463"
   style="fill: url(#XMLID_10_) rgb(0, 0, 0);" />
		<path
   d="M 203.715,74.836 C 203.813,74.32 203.777,73.742 203.858,73.259 C 204.102,71.823 204.191,70.019 203.575,68.664 C 203.267,67.988 202.933,67.762 202.85,66.988 C 202.824,66.772 202.889,66.293 202.739,66.113 C 202.731,66.103 202.394,65.683 202.353,65.934 C 202.364,65.863 202.33,65.693 202.353,65.602 C 201.689,65.507 200.457,66.721 200.207,66.218 C 199.586,66.845 198.554,66.973 199.405,68.009 C 199.806,68.497 200.052,68.583 200.142,69.25 C 200.352,70.794 199.546,71.651 199.056,72.98 C 198.726,73.879 198.54,74.84 198.542,75.8 C 198.543,76.386 198.522,77.834 199.054,78.191 C 199.39,77.781 199.653,77.282 199.919,76.826 C 200.001,76.686 201.132,75.132 201.298,75.492 C 201.416,75.752 201.557,75.942 201.614,76.231 C 202.474,75.808 202.939,76.439 203.515,75.42 C 203.615,75.243 203.677,75.045 203.715,74.836 z"
   id="path1465"
   style="fill: rgb(249, 227, 183); stroke: rgb(150, 115, 72); stroke-width: 0.3199;" />
		<g
   id="g1467">
			<path
   d="M 207.301,79.322 C 207.067,78.203 205.894,77.109 206.205,75.914 C 206.043,76.024 205.051,75.933 205.055,75.88 C 205.123,75.286 204.691,74.7 204.119,74.985 C 203.908,75.613 203.825,76.505 202.918,76.141 C 203.116,74.56 203.022,72.708 202.933,71.23 C 202.901,70.693 202.609,70.264 202.553,69.734 C 202.487,69.124 202.694,68.508 202.72,67.9 C 202.759,66.919 202.129,66.22 203.004,65.624 C 203.894,66.291 204.664,65.451 205.546,65.672 C 205.483,65.656 206.379,66.073 206.348,66.053 C 206.632,66.252 206.839,66.366 206.638,66.748 C 207.325,67.327 206.159,68.519 205.983,69.141 C 205.525,70.768 206.821,72.146 207.205,73.6 C 207.698,75.472 206.909,77.46 207.301,79.322 z"
   id="path1469"
   style="fill: rgb(249, 227, 183); stroke: rgb(150, 115, 72); stroke-width: 0.3199;" />
			<path
   d="M 204.07,69.539 C 204.121,69.79 204.199,70.033 204.302,70.267 C 204.259,70.17 204.417,69.933 204.477,69.864 C 205.514,71.017 205.455,73.43 205.538,74.895 C 205.662,74.904 205.708,74.778 205.824,74.742 C 206.01,75.217 205.874,75.136 206.172,75.284 C 206.496,76.052 206.398,76.879 206.385,77.701 C 207.255,76.304 207.033,74.821 206.556,73.335 C 206.225,72.309 204.879,70.297 205.353,69.212 C 205.948,68.854 206.16,67.809 206.001,67.052 C 205.466,67.794 204.887,68.755 204.115,69.334 C 204.04,69.251 203.968,69.135 203.878,69.066 C 203.856,69.263 203.933,69.4 204.07,69.539"
   id="path1471"
   style="fill: rgb(220, 192, 109);" />
		</g>
		<path
   d="M 197.455,72.068 C 197.19,72.609 196.856,73.116 196.508,73.56 C 196.81,73.176 195.895,71.358 195.831,70.91 C 195.7,70.013 195.854,69.261 196.458,68.531 C 197.519,67.25 198.104,68.975 198.012,70.167 C 197.963,70.811 197.752,71.46 197.455,72.068 z"
   id="path1473"
   style="fill: rgb(243, 212, 140); stroke: rgb(150, 115, 72); stroke-width: 0.3199;" />
		<path
   d="M 195.845,70.121 C 196.078,71.027 196.634,72.332 196.487,73.24 C 196.334,74.181 195.302,75.444 194.694,76.144 C 195.423,75.067 194.815,74.069 194.833,72.92 C 194.851,71.876 195.472,70.82 195.846,69.852"
   id="path1475"
   style="fill: rgb(249, 227, 183); stroke: rgb(150, 115, 72); stroke-width: 0.3199;" />
		<path
   d="M 209.218,70.207 C 210.357,70.164 210.978,71.992 211.204,72.844 C 211.6,74.336 211.535,75.432 212.695,76.677 C 210.942,75.642 209.449,73.987 208.79,72.007 C 208.589,71.404 208.246,70.243 209.218,70.207 z"
   id="path1477"
   style="fill: rgb(249, 227, 183); stroke: rgb(150, 115, 72); stroke-width: 0.3199;" />
		<path
   d="M 209.229,70.927 C 209.222,70.581 209.233,70.218 209.252,69.822 C 209.287,69.106 209.186,68.441 209.12,67.743 C 209.312,68.539 208.468,68.806 208.18,69.428 C 207.39,71.12 209.368,72.812 210.072,74.103 C 209.446,72.954 209.25,72.04 209.229,70.927 z"
   id="path1479"
   style="fill: rgb(243, 212, 140); stroke: rgb(150, 115, 72); stroke-width: 0.3199;" />
		<g
   id="g1481">
			<path
   d="M 182.146,73.026 C 181.955,72.913 181.751,72.806 181.497,72.693 C 181.276,72.595 180.581,72.303 180.452,72.104 C 180.236,71.769 180.81,71.551 180.685,71.327 C 180.391,70.799 179.578,70.605 179.121,70.244 C 178.828,70.013 178.813,69.404 178.619,69.275 C 178.314,69.072 177.892,69.262 177.561,69.08 C 177.187,68.875 177.024,68.502 176.775,68.202 C 176.15,67.441 175.612,66.559 174.929,65.827 C 174.429,65.292 173.877,64.987 173.69,64.225 C 173.654,64.084 171.857,66.836 171.718,67.208 C 171.154,68.717 170.695,70.401 170.902,72.022 C 171.006,72.817 171.158,73.246 171.168,74.01 C 171.185,75.336 171.958,76.886 171.68,78.157 C 171.28,77.354 170.639,78.281 170.088,78.264 C 169.83,78.256 168.124,77.212 168.171,77.072 C 167.826,78.08 167.695,79.225 167.439,80.227 C 168.881,80.787 170.296,84.998 171.002,86.311 C 171.636,87.491 172.779,90.48 173.854,91.094 C 174.803,90.673 175.547,91.009 176.504,90.968 C 176.861,89.203 178.335,88.089 179.061,86.511 C 178.93,86.359 178.9,86.425 178.737,86.316 C 178.831,86.111 179.004,85.78 179.056,85.68 C 180.014,85.15 181.848,84.202 181.873,82.979 C 181.771,82.958 181.671,82.938 181.568,82.918 C 181.826,82.273 182.391,81.758 182.247,80.866 C 182.327,81.028 182.406,81.12 182.467,81.309 C 183.584,81.47 185.545,81.444 186.414,80.851 C 187.034,80.427 187.744,79.75 187.941,79.024 C 187.175,78.966 186.675,79.769 185.922,79.916 C 185.254,80.045 184.338,79.934 183.666,79.885 C 183.477,79.488 183.322,74.349 183.996,74.589 C 183.929,74.565 183.565,74.46 183.516,74.525 C 183.603,74.412 183.662,74.151 183.763,74.036 C 182.913,74.161 183.094,73.654 182.675,73.369 C 182.488,73.242 182.322,73.131 182.146,73.026 z"
   id="path1483"
   style="fill: rgb(249, 227, 183); stroke: rgb(150, 115, 72); stroke-width: 0.3199;" />
			<path
   d="M 172.501,70.304 C 171.658,71.439 171.906,75.421 172.747,76.5 C 172.786,76.458 172.834,76.438 172.891,76.441 C 172.528,77.678 173.398,78.605 173.153,79.936 C 172.607,82.893 174.34,85.133 174.867,87.935 C 174.84,87.923 174.815,87.911 174.788,87.9 C 174.793,88.357 174.792,88.814 174.799,89.27 C 174.342,87.741 173.999,86.24 173.445,84.723 C 173.124,83.845 172.505,82.939 172.264,82.056 C 171.977,81.008 172.031,79.476 171.216,78.577 C 171.518,78.84 171.733,78.787 172.097,78.814 C 171.675,78.081 171.874,77.07 171.716,76.293 C 171.495,75.21 171.223,74.301 171.141,73.203 C 170.994,71.207 171.084,69.449 172.006,67.719 C 171.729,68.239 172.782,69.836 172.881,70.365 C 172.752,70.352 172.625,70.334 172.501,70.304 z"
   id="path1485"
   style="fill: rgb(220, 192, 109);" />
			<path
   d="M 174.926,77.898 C 175.422,77.978 175.768,78.273 175.938,78.723 C 175.544,77.595 175.218,76.528 174.965,75.358 C 174.759,74.399 174.894,73.008 174.516,72.18 C 174.556,74.132 174.667,75.889 175.059,77.764"
   id="path1487"
   style="fill: rgb(220, 192, 109);" />
			<path
   d="M 177.742,81.519 C 179.316,82.546 181.258,82.62 183.065,82.585 C 182.632,82.849 182.152,83.134 181.663,83.246 C 181.73,83.229 180.727,82.834 180.616,82.812 C 180.152,82.725 179.69,82.856 179.217,82.728 C 178.236,82.464 177.225,81.557 176.938,80.58"
   id="path1489"
   style="fill: rgb(220, 192, 109);" />
			<path
   d="M 179.801,78.074 C 178.226,76.443 177.418,74.303 177.47,72.039 C 177.653,73.072 179.401,74.049 180.241,74.695 C 179.387,74.039 178.91,73.016 178.242,72.198 C 177.562,71.364 176.65,70.509 176.542,69.355 C 175.879,71.004 175.56,73.157 176.021,74.904 C 176.45,76.526 177.514,78.223 178.835,79.26 C 180.091,80.248 183.545,81.977 185.071,80.84 C 183.955,81.674 180.465,78.763 179.801,78.074 z"
   id="path1491"
   style="fill: rgb(220, 192, 109);" />
		</g>
		<g
   id="g1493">
			<g
   id="g1495">
				<path
   d="M 230.388,67.167 C 230.326,67.19 230.267,67.215 230.209,67.239 C 230.218,67.235 228.147,68.096 228.806,68.367 C 228.249,68.138 227.687,67.803 227.11,67.45 C 227.096,68.489 226.509,68.965 226.036,69.834 C 225.938,70.014 225.847,70.198 225.76,70.385 C 225.416,71.125 224.991,72.067 224.028,71.884 C 224.07,72.156 223.93,72.527 223.987,72.796 C 223.792,72.655 223.389,72.645 223.224,72.552 C 223.272,72.771 223.14,73.099 223.182,73.32 C 222.078,73.564 222.161,74.176 222.005,75.104 C 221.95,75.441 221.992,76.114 221.717,76.38 C 221.637,76.456 220.838,76.773 220.948,76.572 C 220.719,76.986 220.408,77.282 220.366,77.745 C 219.987,77.771 215.642,77.069 215.715,76.71 C 215.09,79.814 218.999,79.333 220.804,79.334 C 221.541,79.334 222.421,79.066 223.131,79.341 C 223.911,79.642 224.818,80.487 225.566,80.95 C 225.266,81.16 224.987,81.464 224.822,81.768 C 225.207,81.768 225.616,81.807 225.982,81.947 C 225.423,82.444 224.605,82.729 224.697,83.542 C 224.728,83.838 225.454,83.908 225.368,84.585 C 225.49,84.594 225.614,84.61 225.735,84.632 C 225.596,84.875 225.103,85.805 225.196,86.079 C 225.427,86.76 226.299,86.627 226.77,86.915 C 226.714,86.984 226.659,87.053 226.599,87.12 C 227.332,87.713 227.588,88.866 227.237,89.716 C 227.969,89.55 227.969,90.303 228.048,90.889 C 228.125,91.502 231.822,88.99 232.06,88.764 C 233.027,87.847 233.53,86.879 234.6,86.086 C 235.996,85.051 236.16,84.473 236.479,82.859 C 236.927,80.604 238.432,78.492 238.042,76.155 C 237.709,74.17 236.679,74.655 235.677,75.351 C 235.407,75.538 235.286,75.874 234.966,76.035 C 234.574,76.232 233.892,76.026 233.647,76.156 C 233.163,76.415 232.718,77.04 232.333,77.593 C 233.355,76.133 234.181,73.885 234.229,72.082 C 234.274,70.363 234.385,68.476 233.946,66.803 C 233.849,66.433 233.303,65.406 233.768,65.042 C 233.323,65.391 233.143,66.066 232.657,66.359 C 232.038,66.729 231.106,66.89 230.388,67.167 z"
   id="path1497"
   style="fill: rgb(249, 227, 183); stroke: rgb(150, 115, 72); stroke-width: 0.3199;" />
				<path
   d="M 232.775,76.702 C 233.551,74.244 234.597,71.682 234.081,69.029 C 233.953,68.375 233.688,67.713 233.565,67.072 C 233.336,67.767 233.294,68.204 233.262,68.941 C 233.169,71.095 233.237,73.029 232.425,75.01 C 231.868,76.37 231.47,77.759 231.673,79.356 C 232.225,79.181 232.697,78.265 233.225,77.894 C 234.055,77.313 235.009,77.232 236.043,76.96 C 235.003,76.576 233.869,77.085 232.868,77.21 C 232.88,77.091 232.937,76.796 232.968,76.711 C 232.903,76.678 232.839,76.675 232.775,76.702 z"
   id="path1499"
   style="fill: rgb(220, 192, 109);" />
				<path
   d="M 230.577,89.296 C 231.302,88.614 231.925,87.713 232.294,86.788 C 232.443,86.416 232.62,84.891 233.009,84.767 C 234.329,84.343 235.099,82.883 235.407,81.65 C 235.468,81.413 235.117,81.304 235.184,81.12 C 235.286,80.831 235.635,80.69 235.806,80.446 C 236.193,79.894 236.719,79.497 237.02,78.876 C 236.702,81.329 236.672,84.871 233.953,85.834 C 233.8,87.434 231.755,88.347 230.711,89.297"
   id="path1501"
   style="fill: rgb(220, 192, 109);" />
				<path
   d="M 231.114,75.082 C 229.692,78.604 226.967,79.546 223.739,80.791 C 225.639,80.348 227.931,79.554 229.531,78.47 C 230.981,77.487 230.47,76.264 231.114,75.082"
   id="path1503"
   style="fill: rgb(220, 192, 109);" />
				<path
   d="M 231.733,69.746 C 231.506,70.786 231.57,71.85 231.536,72.691 C 231.814,72.186 232.146,71.539 232.193,70.956 C 232.214,70.676 231.764,69.597 231.733,69.746 z"
   id="path1505"
   style="fill: rgb(220, 192, 109);" />
			</g>
			<path
   d="M 228.047,71.405 C 227.863,71.443 227.685,71.427 227.522,71.34 C 226.855,72.412 225.391,73.679 225.226,74.96 C 226.051,75.286 226.45,73.803 227.213,73.614 C 225.999,77.411 220.94,78.094 217.741,78.841 C 218.976,78.552 220.603,78.986 221.917,78.808 C 223.837,78.548 225.612,77.4 227.138,76.287 C 229.071,74.878 229.653,72.21 229.475,69.938 C 229.37,70.5 228.687,71.274 228.047,71.405 z"
   id="path1507"
   style="fill: rgb(220, 192, 109);" />
		</g>
		<g
   id="g1509">
			<g
   id="g1511">
				<path
   d="M 169.929,49.853 C 169.913,51.023 169.47,52.309 169.558,53.618 C 169.684,55.499 170.052,56.97 171.128,58.446 C 171.883,59.482 172.66,60.242 173.236,61.374 C 173.524,61.937 172.505,64.071 172.369,64.714 C 172.173,65.634 171.777,66.597 171.699,67.525 C 171.888,67.3 172.23,67.162 172.366,67.051 C 172.317,67.219 172.298,67.411 172.262,67.561 C 172.368,67.458 172.649,67.3 172.757,67.18 C 172.632,67.534 172.612,67.998 172.811,68.365 C 173.322,67.867 173.64,67.009 174.103,66.405 C 174.102,66.516 174.037,66.645 174,66.748 C 174.132,66.743 174.378,66.734 174.503,66.788 C 174.518,66.947 174.543,67.124 174.546,67.281 C 174.921,67.602 175.366,67.74 175.729,68.002 C 176.995,68.916 178.02,69.684 179.432,70.425 C 181.121,71.31 180.857,70.963 182.248,69.414 C 183.566,67.948 185.251,66.548 186.318,64.909 C 186.165,64.875 186.005,64.871 185.849,64.856 C 186.782,64.256 187.655,63.524 188.518,62.634 C 188.576,62.746 188.619,62.859 188.68,62.96 C 188.965,62.613 189.36,62.264 189.725,62.044 C 189.723,62.046 193.583,65.117 194.094,65.494 C 195.567,66.582 197.324,67.518 198.344,69.11 C 200.04,68.228 200.677,66.489 202.779,66.545 C 203.534,66.566 205.055,66.477 205.817,66.719 C 206.529,66.944 206.945,67.775 207.529,68.306 C 207.687,68.379 207.467,68.357 207.463,68.166 C 207.467,68.867 207.587,69.496 208.137,69.88 C 208.073,68.936 209.414,67.269 210.187,66.461 C 212.117,64.429 215.135,63.663 216.952,61.69 C 217.331,61.706 217.704,61.722 218.163,61.705 C 218.833,64.545 222.18,65.903 223.912,68.043 C 224.07,67.952 224.292,67.859 224.426,67.762 C 224.457,68.23 224.323,68.721 224.058,69.131 C 224.651,68.899 225.855,68.596 226.437,68.12 C 226.634,68.74 226.183,69.33 226.041,70.029 C 226.327,69.591 226.705,69.208 227.117,68.877 C 227.08,69.031 227.015,69.166 226.973,69.316 C 227.331,68.941 227.609,68.441 227.813,67.975 C 227.769,68.441 227.935,68.902 228.03,69.297 C 229.178,67.37 230.445,67.258 232.841,67.188 C 232.728,66.507 233.385,65.907 233.362,65.566 C 233.32,64.954 232.614,64.376 232.322,63.817 C 231.432,62.119 231.791,60.356 232.176,58.471 C 232.312,58.474 232.327,58.577 232.453,58.606 C 233.385,58.813 234.577,54.19 234.718,53.427 C 235.118,51.276 235.266,49.067 234.307,47.025 C 234.537,47.208 234.906,47.31 235.162,47.505 C 235.206,46.475 234.426,45.558 234.489,44.553 C 234.726,44.72 234.982,44.751 235.153,44.841 C 235.164,44.08 234.935,43.268 234.671,42.559 C 235.019,42.764 235.494,42.77 235.868,42.879 C 236.098,41.682 235.542,40.357 235.055,39.296 C 233.517,35.933 231.711,33.118 229.475,30.213 C 228.284,28.662 226.774,27.857 225.21,26.782 C 221.407,24.166 217.408,22.465 212.863,21.578 C 208.382,20.704 203.079,19.873 198.53,20.589 C 195.424,21.078 192.659,21.344 189.674,22.318 C 186.982,23.198 184.431,24.511 182.083,26.086 C 177.382,29.238 173.107,33.657 171.03,39 C 170.384,40.663 169.673,42.377 169.613,44.183 C 169.549,46.057 169.954,47.968 169.929,49.853 z"
   id="path1513"
   style="fill: rgb(249, 227, 183); stroke: rgb(150, 115, 72); stroke-width: 0.3199;" />
				<path
   d="M 172.958,63.996 C 173.534,61.916 174.379,60.791 175.51,58.986 C 176.209,57.869 177.3,56.496 177.651,55.235 C 178.723,51.376 175.177,48.032 174.705,44.521 C 174.123,45.539 174.292,46.851 174.169,48.073 C 174.106,47.916 173.923,47.653 173.857,47.423 C 173.445,48.912 173.575,48.986 172.415,49.827 C 171.779,50.289 171.227,50.639 170.665,51.181 C 170.595,51.244 170.596,51.235 170.667,51.158 C 170.779,51.113 170.834,51.16 170.833,51.298 C 170.661,51.301 170.406,51.457 170.043,51.369 C 169.669,52.754 170.074,56.278 170.999,57.501 C 170.89,56.6 171.065,55.265 171.669,54.83 C 171.557,54.788 171.875,54.763 172.067,54.861 C 172.084,54.441 172.315,54.306 172.081,53.842 C 172.333,53.912 172.644,53.831 172.929,53.967 C 172.852,53.763 172.912,53.492 172.796,53.266 C 174.503,52.147 176.219,54.256 176.002,55.955 C 175.695,58.342 173.634,60.483 173.494,63.103"
   id="path1515"
   style="fill: rgb(220, 192, 109);" />
				<path
   d="M 232.499,64.175 C 230.981,61.093 228.216,58.21 227.851,54.659 C 227.575,51.951 229.49,50.53 230.027,47.931 C 231.861,47.78 232.122,43.964 232.179,42.592 C 234.135,45.403 233.669,51.122 232.853,54.303 C 232.86,53.771 232.729,53.236 232.369,52.921 C 231.987,53.584 232.049,54.483 231.605,55.071 C 231.256,55.536 230.859,55.189 230.529,55.579 C 229.82,56.419 229.933,57.571 229.998,58.635 C 230.104,60.418 230.839,61.743 231.605,63.28"
   id="path1517"
   style="fill: rgb(220, 192, 109);" />
				<path
   d="M 204.607,58.454 C 205.548,58.566 206.866,58.452 206.779,57.225 C 208.31,57.274 209.258,55.388 210.52,54.726 C 211.543,54.19 213.047,53.909 214.212,53.975 C 212.862,54.36 208.166,56.075 208.336,57.853 C 207.579,58.071 207.81,58.943 207.12,59.182 C 206.513,59.392 205.284,58.393 204.607,58.276"
   id="path1519"
   style="fill: rgb(220, 192, 109);" />
				<path
   d="M 185.323,43.997 C 185.282,44.087 185.276,44.179 185.305,44.272 C 184.875,43.472 184.097,43.118 183.221,43.229 C 183.504,41.408 180.832,41.742 179.808,41.975 C 181.156,41.488 182.24,42.074 183.367,42.365 C 185.148,42.826 186.907,43.439 187.415,45.43 C 186.877,44.729 186.117,44.339 185.323,43.997 z"
   id="path1521"
   style="fill: rgb(220, 192, 109);" />
				<path
   d="M 173.611,43.06 C 173.199,42.845 172.702,42.654 172.24,42.55 C 172.12,42.919 171.824,43.145 171.846,43.599 C 171.742,43.328 171.336,43.133 171.171,42.918 C 170.135,44.038 170.671,46.002 171.004,47.314 C 169.575,44.518 169.763,39.04 172.398,36.891 C 172.176,37.072 172.302,39.65 172.346,40.047 C 172.464,41.101 172.832,42.301 173.611,43.06 z"
   id="path1523"
   style="fill: rgb(220, 192, 109);" />
				<path
   d="M 230.89,33.779 C 232.093,35.446 231.427,38.3 231.092,40.152 C 232.009,39.555 233.461,40.312 233.897,41.247 C 233.917,40.447 233.499,39.686 233.603,38.876 C 233.929,39.201 234.219,39.717 234.432,40.168 C 234.418,38.126 232.473,36.135 231.425,34.494"
   id="path1525"
   style="fill: rgb(220, 192, 109);" />
				<path
   d="M 197.811,65.964 C 198.243,64.131 199.158,61.149 197.381,59.752 C 195.965,58.638 193.043,58.753 191.335,58.629 C 188.881,58.447 186.407,58.624 184.049,59.129 C 179.517,60.102 176.465,63.272 175.532,67.768 C 175.725,67.732 175.836,67.651 176.002,67.549 C 176.166,67.677 176.144,67.884 176.35,67.953 C 176.476,67.917 176.544,67.754 176.664,67.778 C 177.009,68.136 177.445,68.363 177.928,68.439 C 178.042,68.256 178.241,68.137 178.358,67.956 C 180.11,68.895 179.913,67.668 181.027,66.377 C 182.41,64.774 184.534,62.596 186.671,62.251 C 186.25,62.048 185.934,61.788 185.488,61.632 C 186.931,60.496 189.489,60.041 191.361,60.277 C 191.339,60.414 191.23,60.417 191.218,60.553 C 192.246,60.993 193.639,60.984 194.718,61.278 C 194.66,61.262 194.351,61.176 194.283,61.165 C 197.608,62.066 197.566,64.726 197.941,67.339 C 197.885,66.952 198.462,65.961 198.52,65.485 C 198.605,64.791 198.393,64.215 198.376,63.565 C 198.342,62.322 198.757,60.965 197.681,60.015 C 197.666,60.001 197.65,59.989 197.634,59.976"
   id="path1527"
   style="fill: rgb(220, 192, 109);" />
				<path
   d="M 208.257,61.376 C 209.848,59.501 213.674,59.269 215.8,59.19 C 219.443,59.055 223.217,59.107 226.304,61.317 C 227.158,61.928 227.919,62.669 228.491,63.555 C 228.821,64.07 229.302,66.419 229.615,66.619 C 228.745,66.064 227.651,65.106 226.816,66.122 C 226.74,65.68 226.42,65.51 226.281,65.261 C 225.996,66.209 225.053,67.125 223.982,66.829 C 223.941,66.817 222.907,64.337 222.677,64.044 C 221.937,63.11 220.996,62.445 219.981,61.846 C 217.895,60.612 215.487,61.08 213.356,62.184 C 212.428,62.666 211.599,64.017 210.686,64.354 C 209.754,64.7 208.967,64.22 208.248,65.104 C 207.875,65.562 207.873,66.378 207.696,66.921 C 206.945,65.504 207.148,63.269 207.901,61.886 C 208.003,61.706 208.12,61.535 208.257,61.376 z"
   id="path1529"
   style="fill: rgb(220, 192, 109);" />
				<path
   d="M 172.378,66.768 C 171.403,64.869 173.439,62.193 174.416,60.698 C 175.583,58.913 177.057,57.318 177.477,55.189 C 177.735,53.878 178.319,51.115 176.827,50.285 C 176.756,51.838 177.453,54.236 176.029,55.353 C 175.973,55.289 175.922,55.202 175.858,55.145 C 175.876,56.639 175.434,58.331 174.798,59.687 C 173.846,61.715 171.517,64.5 172.378,66.903"
   id="path1531"
   style="fill: rgb(204, 178, 92);" />
				<path
   d="M 228.566,50.81 C 228.345,51.951 227.768,52.969 227.753,54.16 C 227.74,55.414 228.278,56.668 228.831,57.78 C 230.005,60.136 231.39,62.367 232.163,64.873 C 231.383,63.81 231.089,61.927 230.577,60.616 C 230.154,59.529 229.722,58.442 229.617,57.268 C 227.429,57.142 228.388,51.7 228.835,50.542"
   id="path1533"
   style="fill: rgb(204, 178, 92);" />
				<linearGradient
   id="XMLID_11_"
   gradientUnits="userSpaceOnUse"
   x1="188.7832"
   y1="55.772499"
   x2="188.53349"
   y2="56.8964">
					<stop
   offset="0"
   style="stop-color: rgb(243, 212, 140);"
   id="stop1536" />
					<stop
   offset="0.1075"
   style="stop-color: rgb(238, 208, 137);"
   id="stop1538" />
					<stop
   offset="0.2346"
   style="stop-color: rgb(224, 195, 129);"
   id="stop1540" />
					<stop
   offset="0.3717"
   style="stop-color: rgb(200, 174, 115);"
   id="stop1542" />
					<stop
   offset="0.5158"
   style="stop-color: rgb(166, 145, 96);"
   id="stop1544" />
					<stop
   offset="0.6655"
   style="stop-color: rgb(124, 108, 71);"
   id="stop1546" />
					<stop
   offset="0.8198"
   style="stop-color: rgb(71, 62, 41);"
   id="stop1548" />
					<stop
   offset="0.9751"
   style="stop-color: rgb(10, 9, 6);"
   id="stop1550" />
					<stop
   offset="1"
   style="stop-color: rgb(0, 0, 0);"
   id="stop1552" />
				</linearGradient>
				<path
   d="M 187.869,56.042 C 188.529,55.814 189.284,56.005 189.631,56.669 C 189.201,57.164 187.994,56.769 187.62,56.291"
   id="path1554"
   style="fill: url(#XMLID_11_) rgb(0, 0, 0);" />
			</g>
			
				<linearGradient
   id="XMLID_12_"
   gradientUnits="userSpaceOnUse"
   x1="234.6821"
   y1="53.983898"
   x2="234.37109"
   y2="55.383999"
   gradientTransform="matrix(0.9824, -0.1867, 0.1867, 0.9824, -23.7507, 46.1742)">
				<stop
   offset="0"
   style="stop-color: rgb(243, 212, 140);"
   id="stop1557" />
				<stop
   offset="0.1075"
   style="stop-color: rgb(238, 208, 137);"
   id="stop1559" />
				<stop
   offset="0.2346"
   style="stop-color: rgb(224, 195, 129);"
   id="stop1561" />
				<stop
   offset="0.3717"
   style="stop-color: rgb(200, 174, 115);"
   id="stop1563" />
				<stop
   offset="0.5158"
   style="stop-color: rgb(166, 145, 96);"
   id="stop1565" />
				<stop
   offset="0.6655"
   style="stop-color: rgb(124, 108, 71);"
   id="stop1567" />
				<stop
   offset="0.8198"
   style="stop-color: rgb(71, 62, 41);"
   id="stop1569" />
				<stop
   offset="0.9751"
   style="stop-color: rgb(10, 9, 6);"
   id="stop1571" />
				<stop
   offset="1"
   style="stop-color: rgb(0, 0, 0);"
   id="stop1573" />
			</linearGradient>
			<path
   d="M 216.007,56.48 C 216.366,56.895 217.747,56.856 217.697,56.097 C 217.618,54.987 215.967,56.433 216.007,56.48 z"
   id="path1575"
   style="fill: url(#XMLID_12_) rgb(0, 0, 0);" />
		</g>
		<path
   d="M 197.948,69.92 C 198.667,67.258 200.6,60.637 196.558,59.526 C 194.908,59.073 193.251,59.44 191.585,59.268 C 189.949,59.1 188.753,58.245 187.144,58.571 C 184.684,59.068 181.25,59.266 179.487,61.216 C 177.263,63.675 175.685,67.173 175.126,70.421 C 174.739,72.674 175.856,76.707 177.098,78.709 C 178.451,80.889 181.816,81.331 184.14,81.161 C 191.004,80.659 196.164,76.534 197.948,69.92 z"
   id="path1577"
   style="opacity: 0.4; fill: rgb(204, 178, 92);" />
		<path
   d="M 226.465,77.644 C 228.615,75.855 229.855,73.059 229.906,69.749 C 229.942,67.408 228.042,64.274 226.461,62.738 C 222.996,59.363 217.562,58.916 213.076,59.5 C 209.894,59.914 206.737,60.11 206.571,64.386 C 206.345,70.146 209.222,76.103 214.409,78.616 C 216.529,79.644 218.922,79.925 221.236,79.719 C 223.31,79.534 225.077,78.798 226.465,77.644 z"
   id="path1579"
   style="opacity: 0.5; fill: rgb(204, 178, 92);" />
		<g
   id="g1581">
			<path
   d="M 187.747,104.399 C 187.572,104.283 187.382,104.2 187.177,104.164 C 186.49,105.499 186.49,108.018 186.941,109.49 C 187.033,109.785 188.573,108.758 188.673,108.636 C 189.06,108.172 189.15,107.785 189.131,107.189 C 189.108,106.409 188.619,104.98 187.747,104.399 z"
   id="path1583"
   style="fill: rgb(225, 226, 227); stroke: rgb(150, 115, 72); stroke-width: 0.3915;" />
			<path
   d="M 189.374,109.152 C 192.031,108.106 190.441,102.471 188.888,104.561 C 188.479,105.11 188.115,109.648 189.374,109.152 z"
   id="path1585"
   style="fill: rgb(225, 226, 227); stroke: rgb(150, 115, 72); stroke-width: 0.3915;" />
			<path
   d="M 193.291,107.858 C 193.939,106.156 192.65,102.925 190.998,104.347 C 190.214,105.02 190.192,108.443 191.353,108.741 C 192.413,109.012 193.021,108.569 193.291,107.858 z"
   id="path1587"
   style="fill: rgb(225, 226, 227); stroke: rgb(150, 115, 72); stroke-width: 0.3915;" />
			<path
   d="M 194.845,103.322 C 194.245,103.228 193.592,103.486 193.238,104.17 C 192.776,105.058 193.228,106.163 193.596,107.045 C 193.723,107.35 195.037,108.989 195.002,109.1 C 195.446,107.752 196.476,105.961 196.115,104.496 C 195.95,103.826 195.422,103.412 194.845,103.322 z"
   id="path1589"
   style="fill: rgb(225, 226, 227); stroke: rgb(150, 115, 72); stroke-width: 0.3751;" />
			<path
   d="M 198.609,107.718 C 199.377,107.075 199.162,104.317 198.743,103.54 C 198.033,102.225 196.692,103.139 196.365,104.248 C 196.038,105.35 196.057,106.888 196.319,108 C 197.444,108.229 198.167,108.088 198.609,107.718 z"
   id="path1591"
   style="fill: rgb(225, 226, 227); stroke: rgb(150, 115, 72); stroke-width: 0.3915;" />
			<path
   d="M 203.624,107.002 C 203.462,104.535 202.893,100.836 201.238,101.794 C 199.458,102.822 199.14,105.54 199.217,107.251 C 199.274,108.537 199.457,108.722 200.873,108.907 C 201.069,108.933 203.663,109.025 203.666,108.975 C 203.688,108.737 203.688,107.963 203.624,107.002 z"
   id="path1593"
   style="fill: rgb(225, 226, 227); stroke: rgb(150, 115, 72); stroke-width: 0.3915;" />
			<path
   d="M 219.475,103.685 C 219.644,103.56 219.831,103.467 220.032,103.421 C 220.787,104.719 220.912,107.234 220.54,108.727 C 220.463,109.027 218.874,108.079 218.766,107.962 C 218.356,107.518 218.248,107.136 218.235,106.54 C 218.219,105.761 218.635,104.31 219.475,103.685 z"
   id="path1595"
   style="fill: rgb(225, 226, 227); stroke: rgb(150, 115, 72); stroke-width: 0.3915;" />
			<path
   d="M 218.094,108.515 C 215.386,107.605 216.686,101.897 218.345,103.905 C 218.78,104.432 219.375,108.944 218.094,108.515 z"
   id="path1597"
   style="fill: rgb(225, 226, 227); stroke: rgb(150, 115, 72); stroke-width: 0.3915;" />
			<path
   d="M 214.115,107.421 C 213.38,105.754 214.504,102.462 216.227,103.797 C 217.044,104.43 217.24,107.846 216.095,108.204 C 215.052,108.529 214.42,108.118 214.115,107.421 z"
   id="path1599"
   style="fill: rgb(225, 226, 227); stroke: rgb(150, 115, 72); stroke-width: 0.3915;" />
			<path
   d="M 212.331,102.97 C 212.926,102.848 213.591,103.071 213.981,103.736 C 214.487,104.599 214.092,105.726 213.77,106.625 C 213.657,106.936 212.428,108.639 212.469,108.749 C 211.957,107.425 210.84,105.688 211.123,104.208 C 211.253,103.53 211.759,103.09 212.331,102.97 z"
   id="path1601"
   style="fill: rgb(225, 226, 227); stroke: rgb(150, 115, 72); stroke-width: 0.3751;" />
			<path
   d="M 208.796,107.553 C 207.996,106.949 208.071,104.183 208.449,103.386 C 209.091,102.036 210.477,102.88 210.861,103.971 C 211.243,105.056 211.302,106.594 211.095,107.718 C 209.984,108.003 209.254,107.899 208.796,107.553 z"
   id="path1603"
   style="fill: rgb(225, 226, 227); stroke: rgb(150, 115, 72); stroke-width: 0.3915;" />
			<path
   d="M 203.751,107.094 C 203.787,104.622 204.167,100.898 205.869,101.77 C 207.699,102.706 208.154,105.405 208.164,107.117 C 208.172,108.404 208,108.598 206.594,108.856 C 206.4,108.892 203.817,109.116 203.808,109.067 C 203.775,108.829 203.737,108.057 203.751,107.094 z"
   id="path1605"
   style="fill: rgb(225, 226, 227); stroke: rgb(150, 115, 72); stroke-width: 0.3915;" />
		</g>
	</g>
</g></g></svg>
