<?xml version="1.0" encoding="UTF-8" standalone="no"?>
<!-- Generator: Adobe Illustrator 12.0.0, SVG Export Plug-In . SVG Version: 6.00 Build 51448)  -->

<svg
   version="1.0"
   id="Layer_1"
   width="402.86176"
   height="801.23621"
   viewBox="0 0 402.86174 801.23619"
   overflow="visible"
   enable-background="new 0 0 435.687 841.89"
   xml:space="preserve"
   sodipodi:version="0.32"
   inkscape:version="1.4.2 (f4327f4, 2025-05-13)"
   sodipodi:docname="all_bones_skull.svg"
   inkscape:output_extension="org.inkscape.output.svg.inkscape"
   style="display:inline;overflow:visible"
   xmlns:inkscape="http://www.inkscape.org/namespaces/inkscape"
   xmlns:sodipodi="http://sodipodi.sourceforge.net/DTD/sodipodi-0.dtd"
   xmlns="http://www.w3.org/2000/svg"
   xmlns:svg="http://www.w3.org/2000/svg"
   xmlns:rdf="http://www.w3.org/1999/02/22-rdf-syntax-ns#"
   xmlns:cc="http://creativecommons.org/ns#"
   xmlns:dc="http://purl.org/dc/elements/1.1/"><metadata
   id="metadata3098"><rdf:RDF><cc:Work
       rdf:about=""><dc:format>image/svg+xml</dc:format><dc:type
         rdf:resource="http://purl.org/dc/dcmitype/StillImage" /></cc:Work><cc:Work
       rdf:about=""><dc:format>image/svg+xml</dc:format><dc:type
         rdf:resource="http://purl.org/dc/dcmitype/StillImage" /></cc:Work></rdf:RDF></metadata><defs
   id="defs3096"><inkscape:perspective
   sodipodi:type="inkscape:persp3d"
   inkscape:vp_x="0 : 420.94501 : 1"
   inkscape:vp_y="0 : 1000 : 0"
   inkscape:vp_z="435.687 : 420.94501 : 1"
   inkscape:persp3d-origin="217.84351 : 280.63 : 1"
   id="perspective3100" />
		
		
		
		
	
		
		
	
		
		
		
		
		
	
	
	

		
		
		
	
			
			
		
				
				
				
				
				
			
	
	
</defs>
<sodipodi:namedview
   inkscape:window-height="1369"
   inkscape:window-width="2560"
   inkscape:pageshadow="2"
   inkscape:pageopacity="0.0"
   guidetolerance="10.0"
   gridtolerance="10.0"
   objecttolerance="10.0"
   borderopacity="1.0"
   bordercolor="#666666"
   pagecolor="#ffffff"
   id="base"
   showgrid="false"
   inkscape:zoom="1.3469693"
   inkscape:cx="-76.467966"
   inkscape:cy="246.85047"
   inkscape:window-x="1912"
   inkscape:window-y="-8"
   inkscape:current-layer="layer3"
   showguides="true"
   inkscape:guide-bbox="true"
   inkscape:showpageshadow="2"
   inkscape:pagecheckerboard="0"
   inkscape:deskcolor="#d1d1d1"
   inkscape:window-maximized="1" />
<g
   inkscape:groupmode="layer"
   id="layer3"
   inkscape:label="Skeleton"
   style="display:inline"
   transform="translate(-1.3560185,-20.15719)"><g
     style="display:inline;overflow:visible"
     id="Skull"
     inkscape:label="Skull">
	<g
   id="Mandible"
   inkscape:label="Mandible">
		<g
   id="g1263">
			<path
   d="m 225.594,85.563 c -1.396,0.947 -1.306,1.439 -1.218,3.151 0.201,3.858 0.687,7.855 0.316,11.679 -1.619,16.668 -24.066,13.251 -35.361,10.062 -6.639,-1.875 -7.878,-10.501 -8.622,-16.382 -0.304,-2.41 -0.006,-4.785 -1.319,-6.97 -1.094,-1.817 -3.411,-4.307 -5.523,-4.865 -5.878,-1.55 -2.437,10.731 -1.879,12.708 0.988,3.516 2.18,6.937 2.994,10.504 0.843,3.686 0.146,8.398 3.224,11.095 1.645,1.442 3.794,2.242 5.672,3.388 2.234,1.364 4.458,2.805 6.704,4.068 1.498,0.842 3.282,1.925 4.958,2.229 3.438,0.626 7.248,-0.141 10.738,-0.218 1.713,-0.038 3.302,-0.19 5.014,0.005 1.442,0.164 2.698,0.282 4.096,-0.135 2.856,-0.851 5.262,-3.168 7.109,-5.374 2.78,-3.323 6.476,-5.968 8.167,-10.084 0.683,-1.668 1.49,-3.258 1.657,-5.08 0.146,-1.588 0.08,-3.007 0.445,-4.566 0.883,-3.774 0.879,-7.922 1.275,-11.791 0.151,-1.482 0.78,-4.099 0.458,-5.51 -0.315,-1.379 -1.465,-1.185 -2.733,-0.885 -2.166,0.51 -4.338,1.729 -6.172,2.971 z"
   id="path1265"
   style="fill:#f4e9d7;stroke:#967348;stroke-width:0.3199" />
			<path
   d="m 180.671,97.257 c -0.433,-1.708 -0.106,-4.256 -1.204,-5.668 -1.208,1.665 -0.493,4.848 -0.192,6.745 0.304,1.914 0.666,3.866 1.213,5.721 0.832,2.824 1.391,6.226 3.811,8.153 -0.123,-1.281 0.088,-3.156 -0.188,-4.219 -0.424,-1.64 -1.516,-3.125 -1.966,-4.836 -0.507,-1.933 -0.977,-3.937 -1.474,-5.896 z"
   id="path1267"
   style="fill:#dcc06d" />
			<path
   d="m 226.841,94.204 c 0,-1.419 0.857,-3.761 -0.398,-4.831 -1.354,2.1 -0.533,4.819 -0.676,7.165 -0.117,1.95 -0.137,4.008 -0.539,5.9 -0.771,3.59 -3.485,6.412 -3.942,9.958 0.99,-1.469 2.693,-2.175 3.638,-3.513 0.862,-1.223 1.973,-4.445 2.105,-5.91 0.252,-2.769 -0.188,-5.935 -0.188,-8.769 z"
   id="path1269"
   style="fill:#dcc06d" />
			<path
   d="m 176.911,102.834 c 0.301,1.897 0.524,3.867 0.447,5.791 -0.051,1.271 -0.774,3.651 -0.214,4.843 -0.79,-1.684 -0.955,-2.781 -0.729,-4.593 0.979,-7.829 -5.447,-14.351 -4.428,-22.161 2.4,1.176 3.453,5.546 3.876,7.926 0.483,2.718 0.618,5.474 1.048,8.194 z"
   id="path1271"
   style="fill:#dcc06d" />
			<path
   d="m 233.099,85.631 c -1.524,1.021 -1.704,5.275 -2.09,6.927 -0.744,3.188 -1.48,6.411 -1.486,9.7 -0.004,2.134 1.138,3.813 1.569,5.85 0.362,-3.899 0.756,-7.57 0.756,-11.562 0,-2.877 0.179,-5.463 0.938,-8.237 0.137,-0.502 0.733,-3.969 -0.224,-2.5"
   id="path1273"
   style="fill:#dcc06d" />
			<path
   d="m 207.924,122.983 c 1.416,-0.304 2.527,0.705 3.668,1.446 -0.286,-0.394 -0.552,-0.813 -0.78,-1.237 0.766,0.462 1.623,0.998 2.416,1.398 -0.785,-1.423 -2.811,-1.891 -3.909,-3.201 -0.807,-0.961 -1.205,-1.777 -1.227,-3.013 0.156,-0.03 0.297,-0.029 0.448,-0.053 -0.162,0.026 -1.51,-2.154 -1.67,-2.406 -0.075,0.511 0.228,7.244 1.054,7.066 z"
   id="path1275"
   style="fill:#dcc06d" />
			<path
   d="m 219.352,119.52 c -0.512,1.744 -1.233,3.222 -2.321,3.277 0.825,-3.046 2.578,-5.75 3.525,-8.682 -0.283,0.878 -0.597,3.329 -1.204,5.405 z"
   id="path1277"
   style="fill:#dcc06d" />
			<path
   d="m 222.193,118.351 c 0.616,-1.468 2.484,-2.291 3.585,-3.354 1.175,-1.136 2.398,-2.515 3.22,-3.913 -0.564,1.648 -1.669,3.289 -2.864,4.581 -1.358,1.469 -3.32,2.029 -4.655,3.58"
   id="path1279"
   style="fill:#dcc06d" />
		</g>
		<path
   d="m 190.483,116.345 c -0.086,-0.996 -0.082,-2.143 -0.343,-3.09 -0.615,0.229 -0.527,0.7 -0.395,1.233 0.158,0.633 0.68,1.195 0.738,1.857 z"
   id="path1281"
   style="fill:#dcc06d" />
		<path
   d="m 217.436,113.434 c -0.917,0.122 -0.876,1.884 -0.808,2.642 0.175,-0.713 1.235,-2.095 0.674,-2.642"
   id="path1283"
   style="fill:#dcc06d" />
		<path
   d="m 187.531,112.361 c 0.1,0.161 0.22,0.302 0.362,0.424 -0.312,0.527 0.269,1.234 0.516,1.714 -0.144,-0.643 -0.185,-1.703 -0.744,-2.004"
   id="path1285"
   style="fill:#dcc06d" />
		<path
   d="m 194.906,114.239 c 0.18,0.5 0.458,0.881 0.925,1.105 -0.703,0.665 0.422,3.003 0.899,3.738 -0.893,-0.833 -1.954,-3.647 -1.833,-4.937 0.164,0.19 0.31,0.412 0.412,0.63"
   id="path1287"
   style="fill:#dcc06d" />
		<path
   d="m 211.669,115.042 c 0.335,-0.289 0.667,-0.557 1.055,-0.757 -0.081,0.272 -0.136,0.69 -0.262,0.976 0.023,-0.052 0.063,-0.072 0.121,-0.061 -0.247,0.609 -0.066,1.433 0.151,1.948 0.51,-0.942 1.064,-1.988 1.73,-2.866 -0.6,1.161 -1.465,2.407 -1.758,3.7 -0.023,-0.038 -0.083,-0.17 -0.13,-0.245 -0.275,0.293 -0.476,0.719 -0.512,1.164 0.207,-0.637 0.661,-2.19 0.243,-2.733 -0.073,0.058 -0.143,0.117 -0.211,0.178 -0.032,-0.189 -0.032,-0.316 -0.149,-0.469 -0.141,0.221 -0.45,0.449 -0.555,0.727 0.151,-0.566 0.258,-1.109 0.141,-1.696"
   id="path1289"
   style="fill:#dcc06d" />
		<path
   d="m 198.795,115.312 c 0.331,-0.502 0.661,-0.7 0.879,-1.227 -0.007,-0.046 -0.072,0.299 -0.058,0.264 0.154,-0.044 0.475,-0.069 0.633,-0.098 -0.331,1.32 -0.271,2.762 -0.483,3.95 -0.087,-1.077 -0.517,-2.081 -0.569,-3.159"
   id="path1291"
   style="fill:#dcc06d" />
		<path
   d="m 203.758,114.641 c -0.889,0.328 -0.279,1.652 -0.239,2.412 0.279,-0.63 0.104,-1.677 0.104,-2.412"
   id="path1293"
   style="fill:#dcc06d" />
		<path
   d="m 207.513,114.775 c 0.334,0.1 0.582,0.187 0.654,0.514 -0.077,0.013 -0.156,0.026 -0.234,0.039 0.03,0.372 0.085,0.783 0.192,1.15 -0.503,-0.767 -0.973,-1.527 -0.617,-2.47 0.101,0.381 0.277,0.743 0.54,1.035"
   id="path1295"
   style="fill:#dcc06d" />
	</g>
	<g
   id="g1297">
		<path
   d="m 187.446,111.308 c 0.369,0.319 1.467,0.815 1.987,0.454 0.616,-0.429 1.131,-1.929 0.675,-2.598 -1.524,-2.238 -4.84,0.253 -2.662,2.144 z"
   id="path1299"
   style="fill:#e1e2e3;stroke:#967348;stroke-width:0.3915" />
		<path
   d="m 190.753,108.981 c -0.256,-0.54 -0.982,-1.114 -1.607,-1.103 -0.284,0.005 -1.228,0.342 -1.333,0.654 -0.326,0.979 -0.042,2.463 0.544,3.379 0.192,0.3 0.479,0.643 0.805,0.785 0.559,0.243 0.498,0.077 0.894,-0.34 0.25,-0.265 0.848,-0.632 0.965,-0.975 0.139,-0.405 -0.077,-1.999 -0.268,-2.4 z"
   id="path1301"
   style="fill:#e1e2e3;stroke:#967348;stroke-width:0.3915" />
		<path
   d="m 191.06,108.159 c -0.729,-0.111 -1.181,-0.753 -1.63,0.002 -0.238,0.399 -0.207,1.061 -0.157,1.517 0.087,0.805 0.721,2.747 1.537,3.112 1.046,0.466 2.007,-0.44 2.023,-1.5 0.004,-0.305 -0.348,-0.973 -0.409,-1.33 -0.06,-0.354 -0.034,-0.854 -0.177,-1.179 -0.313,-0.704 -1.13,-0.533 -1.634,-0.979"
   id="path1303"
   style="fill:#e1e2e3;stroke:#967348;stroke-width:0.3915" />
		<path
   d="m 191.854,112.129 c 0.502,0.577 1.644,1.77 1.69,1.74 1.784,-1.154 1.464,-6.016 -1.117,-6.122 -1.906,-0.078 -1.362,3.1 -0.796,4.102 0.026,0.045 0.107,0.145 0.223,0.28 z"
   id="path1305"
   style="fill:#e1e2e3;stroke:#967348;stroke-width:0.3915" />
		<path
   d="m 197.309,108.998 c 0.072,0.111 0.124,0.235 0.147,0.373 0.129,0.741 -0.391,2.065 -0.589,2.8 -0.177,0.658 -0.348,1.571 -0.964,1.954 -0.929,-0.784 -2.534,-5.406 -0.604,-5.799 0.666,-0.136 1.63,0.091 2.01,0.672 z"
   id="path1307"
   style="fill:#e1e2e3;stroke:#967348;stroke-width:0.3805" />
		<path
   d="m 200.069,109.005 c 0.879,0.475 -0.283,4.976 -1.253,5.171 -0.955,0.191 -1.341,-2.724 -1.386,-3.344 -0.132,-1.836 0.925,-2.753 2.639,-1.827 z"
   id="path1309"
   style="fill:#e1e2e3;stroke:#967348;stroke-width:0.3915" />
		<path
   d="m 203.231,108.776 c 0.604,0.191 0.168,2.661 0.07,3.096 -0.128,0.569 -0.184,1.902 -0.774,2.21 -1.282,0.672 -1.72,-1.936 -1.793,-2.648 -0.054,-0.518 -0.326,-1.221 -0.304,-1.718 0.061,-1.371 1.888,-1.226 2.801,-0.94 z"
   id="path1311"
   style="fill:#e1e2e3;stroke:#967348;stroke-width:0.4269" />
		<path
   d="m 220.015,111.412 c -0.373,0.314 -1.478,0.795 -1.992,0.427 -0.612,-0.437 -1.107,-1.944 -0.64,-2.607 1.553,-2.216 4.835,0.318 2.632,2.18 z"
   id="path1313"
   style="fill:#e1e2e3;stroke:#967348;stroke-width:0.3915" />
		<path
   d="m 216.737,109.042 c 0.265,-0.537 0.998,-1.102 1.624,-1.081 0.283,0.009 1.224,0.358 1.324,0.671 0.313,0.984 0.011,2.464 -0.589,3.372 -0.196,0.297 -0.488,0.636 -0.815,0.774 -0.563,0.236 -0.499,0.07 -0.889,-0.352 -0.248,-0.268 -0.84,-0.643 -0.953,-0.987 -0.133,-0.409 0.104,-1.999 0.298,-2.397 z"
   id="path1315"
   style="fill:#e1e2e3;stroke:#967348;stroke-width:0.3915" />
		<path
   d="m 216.442,108.215 c 0.731,-0.101 1.189,-0.738 1.632,0.024 0.23,0.402 0.192,1.064 0.136,1.52 -0.1,0.804 -0.757,2.737 -1.578,3.091 -1.051,0.452 -2.001,-0.466 -2.003,-1.527 0,-0.305 0.363,-0.969 0.427,-1.325 0.066,-0.355 0.044,-0.855 0.192,-1.177 0.322,-0.699 1.139,-0.518 1.647,-0.957"
   id="path1317"
   style="fill:#e1e2e3;stroke:#967348;stroke-width:0.3915" />
		<path
   d="m 215.596,112.174 c -0.51,0.57 -1.668,1.749 -1.715,1.718 -1.768,-1.177 -1.382,-6.034 1.201,-6.107 1.907,-0.052 1.32,3.118 0.742,4.113 -0.026,0.044 -0.109,0.143 -0.228,0.276 z"
   id="path1319"
   style="fill:#e1e2e3;stroke:#967348;stroke-width:0.3915" />
		<path
   d="m 210.185,108.972 c -0.075,0.109 -0.128,0.232 -0.153,0.369 -0.139,0.741 0.365,2.072 0.552,2.809 0.167,0.66 0.326,1.575 0.937,1.966 0.94,-0.772 2.606,-5.372 0.682,-5.791 -0.666,-0.143 -1.632,0.071 -2.018,0.647 z"
   id="path1321"
   style="fill:#e1e2e3;stroke:#967348;stroke-width:0.3805" />
		<path
   d="m 207.422,108.942 c -0.885,0.462 0.218,4.979 1.187,5.187 0.951,0.204 1.375,-2.707 1.428,-3.325 0.156,-1.836 -0.887,-2.764 -2.615,-1.862 z"
   id="path1323"
   style="fill:#e1e2e3;stroke:#967348;stroke-width:0.3915" />
		<path
   d="m 204.454,108.974 c -0.6,0.2 -0.126,2.663 -0.021,3.096 0.136,0.567 0.215,1.9 0.809,2.199 1.292,0.652 1.689,-1.963 1.751,-2.677 0.045,-0.519 0.307,-1.225 0.277,-1.722 -0.084,-1.372 -1.908,-1.198 -2.816,-0.896 z"
   id="path1325"
   style="fill:#e1e2e3;stroke:#967348;stroke-width:0.4269" />
	</g>
	<g
   id="Cranium"
   inkscape:label="Cranium">
		<g
   id="g1329">
			<path
   d="m 169.92,57.363 c -0.268,-0.244 -2.598,-1.59 -2.598,-1.618 -0.041,2.231 0.298,4.621 0.896,6.773 0.566,2.038 1.049,3.928 1.156,6.033 0.109,2.163 0.188,4.286 0.148,6.423 -0.04,2.248 -0.252,3.152 1.834,4.482 2.784,1.777 1.101,-1.141 1.108,-2.878 0.015,-2.896 -0.292,-6.015 0.129,-8.963 0.149,-1.043 0.791,-2.257 0.824,-3.251 0.042,-1.258 -0.822,-2.453 -1.394,-3.514 -0.63,-1.177 -1.041,-2.517 -2.103,-3.487 z"
   id="path1331"
   style="fill:#f9e3b7;stroke:#967348;stroke-width:0.3199" />
			<path
   d="m 171.63,58.673 c -1.718,0.46 -1.058,2.467 -0.637,3.586 0.84,2.231 1.683,3.02 3.104,0.539 -0.423,-0.511 -1.742,-4.319 -2.467,-4.125 z"
   id="path1333"
   style="fill:#f9e3b7;stroke:#967348;stroke-width:0.3199" />
			<path
   d="m 167.885,47.307 c -0.384,2.087 -0.615,4.302 -0.875,6.398 -0.159,1.279 -0.076,2.698 0.012,3.981 0.054,0.75 0.874,3.006 0.651,3.583 0.211,-0.547 0.416,-1.074 0.418,-1.659 0.36,0.289 0.798,0.425 1.229,0.605 0.012,-0.031 0.188,-0.355 0.198,-0.343 0.272,0.308 0.676,0.629 0.86,1.043 0.04,-0.706 0.432,-1.406 1.091,-1.773 -0.277,-0.537 -0.406,-1.156 -0.375,-1.771 -0.107,-0.04 -0.205,0.037 -0.279,0.003 -1.28,-0.586 -1.745,-4.364 -1.124,-5.51 0.121,0.095 0.384,0.223 0.513,0.331 -0.101,-0.423 -0.144,-0.923 -0.116,-1.386 0.098,-0.021 0.197,-0.041 0.296,-0.062 0.097,-0.572 -0.205,-0.895 -0.287,-1.426 -0.296,-1.92 0.149,-4.029 0.254,-5.962 0.109,-2.045 0.197,-4.417 1.433,-6.156 -1.483,1.071 -2.33,4.024 -2.842,5.719 -0.42,1.384 -0.793,2.947 -1.057,4.385 z"
   id="path1335"
   style="fill:#f9e3b7;stroke:#967348;stroke-width:0.3199" />
		</g>
		<g
   id="g1337">
			<path
   d="m 236.105,74.116 c -0.027,-1.309 0.141,-2.616 0.115,-3.926 -0.052,-2.581 0.721,-5.255 1.308,-7.747 0.256,-1.09 1.124,-4.569 -0.547,-4.991 -1.371,-0.346 -2.835,2.198 -3.5,3.03 -1.232,1.545 -1.36,3.229 -0.863,5.204 0.778,3.088 1.45,7.026 0.18,10.112 -0.976,2.371 1.727,3.722 3.165,1.67 0.664,-0.951 0.183,-2.125 0.146,-3.223 -0.002,-0.042 -0.002,-0.085 -0.004,-0.129 z"
   id="path1339"
   style="fill:#f9e3b7;stroke:#967348;stroke-width:0.3199" />
			<path
   d="m 238.003,47.189 c 0.607,4.007 0.441,9.333 -0.721,13.22 -0.265,-0.706 -0.817,-0.633 -1.022,0.141 -0.075,-0.278 -0.332,-0.565 -0.403,-0.777 -0.311,0.308 -0.663,0.639 -1.013,0.951 -0.717,-1.256 -1.273,0.28 -1.299,1.103 -0.431,-0.242 -0.981,-0.657 -1.563,-0.352 0.726,-1.916 -0.076,-4.441 0.553,-6.423 0.411,-1.288 1.126,-1.793 1.036,-3.405 -0.056,-0.981 -0.434,-1.884 -0.495,-2.848 -0.069,-1.076 0.246,-2.016 0.318,-3.089 0.087,-1.296 -0.318,-2.84 -0.141,-4.072 0.099,-0.664 0.618,-0.993 0.789,-1.591 0.236,-0.831 -0.06,-1.751 0.33,-2.494 1.126,1.146 1.391,3.029 1.934,4.48 0.639,1.713 1.418,3.327 1.697,5.156 z"
   id="path1341"
   style="fill:#f9e3b7;stroke:#967348;stroke-width:0.3199" />
			<path
   d="m 231.641,64.882 c -0.043,-0.019 -0.086,-0.041 -0.129,-0.066 -1.328,-0.775 -1.134,-3.797 -0.744,-4.978 0.182,-0.544 0.425,-1.131 0.846,-1.54 0.143,-0.14 1.433,-0.761 1.422,-0.729 -0.457,1.675 0.715,3.401 0.45,5.11 -0.173,1.126 -0.79,2.674 -1.845,2.203 z"
   id="path1343"
   style="fill:#f9e3b7;stroke:#967348;stroke-width:0.3199" />
		</g>
		<path
   d="m 214.269,71.147 c -0.792,-0.639 -1.331,-1.556 -2.078,-2.475 -0.994,-1.226 -1.352,-2.975 -2.369,-4.088 -1.244,-1.363 -3.317,-0.377 -4.898,-0.384 -3.239,-0.015 -6.373,-0.261 -9.62,0.016 -1.911,0.165 -1.994,1.187 -2.554,3.08 -0.53,1.792 -0.614,2.441 -2.013,3.752 -1.15,1.078 -2.429,1.961 -3.716,2.864 -1.378,0.966 -3.625,2.122 -4.494,3.631 -0.821,1.428 0.177,3.911 0.982,5.185 1.138,1.802 4.085,1.683 6.014,1.577 1.792,-0.1 2.981,-0.42 4.344,0.69 0.522,0.426 1.468,0.96 1.732,1.604 0.313,0.758 -0.23,1.834 -0.188,2.703 0.083,1.767 0.034,4.392 2.136,4.966 2.434,0.664 3.488,-1.328 4.783,-2.646 0.955,1.015 1.514,2.572 2.993,2.952 2.5,0.641 2.997,-2.1 3.029,-3.968 0.015,-0.931 -0.623,-2.893 -0.273,-3.688 0.539,-1.227 3.024,-1.269 4.116,-1.386 2.718,-0.29 5.659,0.234 8.331,-0.438 4.196,-1.057 2.9,-6.333 2.57,-9.433 -0.147,-1.362 0.158,-2.67 -1.237,-3.272 -1.817,-0.784 -3.858,-0.151 -5.752,-0.444 -0.775,-0.12 -1.354,-0.407 -1.838,-0.798 z"
   id="path1345"
   style="fill:#231f20" />
		<linearGradient
   id="XMLID_7_"
   gradientUnits="userSpaceOnUse"
   x1="202.647"
   y1="95.355499"
   x2="202.5137"
   y2="83.2285">
			<stop
   offset="0"
   style="stop-color: rgb(243, 212, 140);"
   id="stop1348" />
			<stop
   offset="0.3483"
   style="stop-color: rgb(204, 178, 92);"
   id="stop1350" />
			<stop
   offset="0.4438"
   style="stop-color: rgb(200, 175, 90);"
   id="stop1352" />
			<stop
   offset="0.5354"
   style="stop-color: rgb(189, 165, 85);"
   id="stop1354" />
			<stop
   offset="0.6256"
   style="stop-color: rgb(169, 148, 76);"
   id="stop1356" />
			<stop
   offset="0.7149"
   style="stop-color: rgb(142, 124, 64);"
   id="stop1358" />
			<stop
   offset="0.8035"
   style="stop-color: rgb(107, 93, 48);"
   id="stop1360" />
			<stop
   offset="0.8916"
   style="stop-color: rgb(64, 56, 29);"
   id="stop1362" />
			<stop
   offset="0.9778"
   style="stop-color: rgb(14, 12, 6);"
   id="stop1364" />
			<stop
   offset="1"
   style="stop-color: rgb(0, 0, 0);"
   id="stop1366" />
		</linearGradient>
		<path
   d="m 202.63,82.026 c -0.081,1.182 -0.194,2.187 -0.267,3.332 -0.056,0.857 -0.313,1.867 -0.517,2.665 0.651,0.697 0.058,2.415 0.89,2.922 0.457,-1.74 0.531,-3.139 0.424,-4.92 -0.087,-1.444 0.305,-3.186 -0.158,-4.517 -0.31,0.165 -0.322,0.432 -0.373,0.786"
   id="path1368"
   style="fill:url(#XMLID_7_)" />
		<g
   id="g1370">
			<path
   d="m 197.434,69.279 c 0.226,-0.233 0.553,-0.369 0.729,-0.765 0.204,-0.456 0.103,-0.846 0.332,-1.241 0.161,-0.28 0.487,-0.534 0.739,-0.722 1.401,1.128 1.145,2.405 1.254,4.093 0.093,1.435 -0.261,2.707 -0.62,4.063 -0.367,1.383 -0.398,2.708 -0.813,4.069 -0.42,1.375 0.224,2.844 -0.158,4.267 -0.593,2.217 -4.738,8.041 -0.562,9.145 1.022,0.271 2.525,0.328 3.299,-0.514 0.701,-0.767 0.671,-2.069 1.1,-2.982 0.162,1.884 -0.149,3.775 0.074,5.659 0.265,2.23 1.165,4.741 0.907,6.993 -0.232,2.028 -2.088,2.092 -3.771,2.268 -2.409,0.247 -4.838,0.347 -7.225,0.776 -1.25,0.225 -2.474,0.566 -3.705,0.868 -0.08,0.019 -3.218,0.805 -2.55,1.23 -0.115,-0.074 -0.42,-0.246 -0.507,-0.323 -0.215,-1.284 -0.94,-2.276 -0.701,-3.701 0.423,-2.517 1.949,-6.189 -1.323,-7.292 -1.862,-0.627 -3.81,-0.658 -5.699,-1.383 -0.936,-0.359 -5.197,-1.734 -4.097,-3.351 1.116,0.524 2.658,-1.186 3.186,-1.978 0.025,-0.037 0.51,-1.03 0.532,-1.102 0.11,-0.361 -0.216,-0.45 -0.054,-0.806 0.239,-0.522 1.08,-0.451 0.442,-1.197 0.676,-0.456 1.839,-0.582 2.154,-1.442 0.243,-0.027 0.295,-0.099 0.493,-0.183 -0.638,0.271 0.02,-1.275 0.171,-1.437 0.351,-0.378 1.269,-0.831 1.743,-1.014 0.236,-0.09 0.54,0.22 0.812,-0.137 -0.054,-0.051 -0.062,-0.05 -0.022,0.003 1.145,0.513 2.639,-0.934 3.502,-0.583 0.087,-0.031 0.118,-0.19 0.2,-0.229 0.108,-0.003 0.095,0.093 0.203,0.095 0.288,-0.531 0.862,-1.366 1.344,-1.708 0.02,0.078 0.04,0.157 0.06,0.236 0.404,-0.439 0.873,-0.998 1.204,-1.539 0.143,-0.233 1.284,0.9 1.369,1.118 0.687,-1.119 0.648,-2.551 1.156,-3.753 0.526,-1.242 0.952,-2.003 2.008,-2.92 0.801,-0.696 1.952,-0.607 2.548,-1.6 0.145,-0.242 0.011,-0.631 0.122,-0.818 0.033,-0.061 0.077,-0.114 0.124,-0.163 z"
   id="path1372"
   style="fill:#f9e3b7;stroke:#967348;stroke-width:0.3199" />
			<path
   d="m 208.148,89.481 c 0.002,-1.019 -0.482,-1.992 -0.819,-3.022 -0.379,-1.151 -0.654,-2.335 -0.669,-3.533 -0.026,-1.937 0.576,-3.675 -0.405,-5.498 -0.666,-1.24 -0.685,-2.629 -0.702,-4.092 -0.019,-1.782 0.823,-4.246 -0.243,-5.807 0.618,-0.064 0.77,-0.625 0.536,-1.071 0.866,-0.215 1.503,-1.862 1.61,-2.677 2.973,1.906 -0.301,5.893 2.457,8.272 1.241,1.071 2.764,1.572 3.718,3.031 0.817,1.249 0.516,2.778 1.975,3.582 1.817,0.998 4.126,0.748 6.119,0.744 2.258,-0.007 3.599,-0.365 4.451,2.109 0.463,1.345 0.074,2.431 0.081,3.856 0.009,1.46 0.477,2.232 1.614,3.151 0.203,0.164 1.287,0.77 1.353,0.934 0.398,1.004 -2.363,2.173 -3.01,2.401 -1.679,0.595 -3.585,1.421 -4.423,3.092 -0.862,1.716 -0.269,3.793 -0.3,5.617 -0.017,0.996 0.224,3.771 -0.763,4.351 -0.608,0.356 -2.777,-0.188 -3.58,-0.144 -1.664,0.09 -3.313,-0.277 -4.953,-0.492 -1.657,-0.216 -3.517,-0.128 -5.065,-0.805 -0.245,-0.105 -3.934,-1.737 -3.737,-0.881 -0.395,-1.723 0.377,-3.725 -0.066,-5.513 -0.612,-2.459 -0.503,-5.432 -0.569,-7.952 0.552,1.259 1.395,3.425 3.074,3.287 1.211,-0.1 2.054,-1.238 2.269,-2.398 0.032,-0.182 0.047,-0.363 0.047,-0.542 z"
   id="path1374"
   style="fill:#f9e3b7;stroke:#967348;stroke-width:0.3199" />
			<linearGradient
   id="XMLID_8_"
   gradientUnits="userSpaceOnUse"
   x1="216.603"
   y1="83.698196"
   x2="218.7493"
   y2="82.625099">
				<stop
   offset="0"
   style="stop-color: rgb(243, 212, 140);"
   id="stop1377" />
				<stop
   offset="0.1075"
   style="stop-color: rgb(238, 208, 137);"
   id="stop1379" />
				<stop
   offset="0.2346"
   style="stop-color: rgb(224, 195, 129);"
   id="stop1381" />
				<stop
   offset="0.3717"
   style="stop-color: rgb(200, 174, 115);"
   id="stop1383" />
				<stop
   offset="0.5158"
   style="stop-color: rgb(166, 145, 96);"
   id="stop1385" />
				<stop
   offset="0.6655"
   style="stop-color: rgb(124, 108, 71);"
   id="stop1387" />
				<stop
   offset="0.8198"
   style="stop-color: rgb(71, 62, 41);"
   id="stop1389" />
				<stop
   offset="0.9751"
   style="stop-color: rgb(10, 9, 6);"
   id="stop1391" />
				<stop
   offset="1"
   style="stop-color: rgb(0, 0, 0);"
   id="stop1393" />
			</linearGradient>
			<path
   d="m 217.359,82.331 c -0.503,0.513 -0.501,1.363 0.764,1.423 0.688,0.033 1.393,-0.282 1.292,-1.135 -0.721,-0.943 -1.599,-0.755 -2.056,-0.288 z"
   id="path1395"
   style="fill:url(#XMLID_8_)" />
			<path
   d="m 207.288,101.008 c 0.523,0.364 0.915,0.789 1.069,1.363 0.416,-0.87 0.254,-2.486 -0.309,-3.265 -0.104,0.043 -0.139,0.189 -0.222,0.221 -0.251,-0.304 -0.661,-0.504 -0.883,-0.759 0.531,0.645 0.467,1.847 0.166,2.618"
   id="path1397"
   style="fill:#dcc06d" />
			<path
   d="m 201.209,100.829 c 0.516,-0.087 0.943,0.077 1.273,0.473 -0.198,-0.48 -0.153,-0.795 -0.211,-1.306 0.026,0.094 0.075,0.172 0.149,0.236 0.196,-0.799 -0.277,-1.718 -0.909,-2.204 -0.26,0.87 0.028,2.09 -0.482,2.802"
   id="path1399"
   style="fill:#dcc06d" />
			<path
   d="m 209.792,101.008 c 0.495,0.158 0.9,0.441 1.224,0.843 0.343,-1.814 -0.74,-3.729 -0.83,-5.491 -0.103,-1.959 1.324,-4.262 0.352,-6.249 0.397,0.981 -0.089,2.747 -0.429,3.744 -0.407,1.197 -0.309,1.187 -0.315,2.329 -0.007,1.357 0.789,3.487 0.177,4.824"
   id="path1401"
   style="fill:#dcc06d" />
			<path
   d="m 196.917,102.438 c 0.226,-0.437 0.598,-0.842 1.013,-1.079 -0.895,-0.283 -0.364,-5.173 -0.142,-6.045 -1.633,0.218 -1.803,-2.987 -2.131,-4.088 0.028,2.417 1.263,4.676 1.26,7.154 -0.002,1.295 0.11,2.682 -0.179,3.879"
   id="path1403"
   style="fill:#dcc06d" />
			<path
   d="m 214.489,100.431 c -0.02,-0.293 -0.356,-0.71 -0.416,-1.032 -0.335,-1.815 0.177,-3.831 0.188,-5.667 -0.013,2.004 -0.488,4.22 -0.768,6.206 -0.081,0.584 -0.079,1.349 -0.458,1.846 -0.503,0.655 -1.469,0.418 -1.79,1.526 1.152,-0.254 2.03,-0.472 3.169,0.195 -0.203,-1.128 0.151,-2.015 0.075,-3.074 z"
   id="path1405"
   style="fill:#dcc06d" />
			<path
   d="m 215.691,103.69 c -0.058,-0.581 0.079,-1.205 0.205,-1.762 2.173,-0.177 1.301,-4.707 1.444,-6.274 0.535,1.666 -0.248,4.903 0.715,6.4 0.121,-0.036 0.162,-0.107 0.292,-0.126 -0.149,0.276 -0.286,1.326 0.395,1.023 0.321,-0.142 0.443,-1.232 0.526,-1.433 0.019,0.072 0.161,0.381 0.213,0.548 1.454,-0.914 -0.151,-2.201 0.288,-2.994 0.075,0.05 0.075,0.072 -0.004,0.065 0.143,-0.346 0.457,-1.216 0.571,-1.886 0.167,-0.971 -0.132,-2.17 0.344,-3.002 -0.275,0.054 -0.57,-0.019 -0.862,0.115 0.877,-0.613 1.493,-1.791 2.31,-2.593 0.516,1.124 3.397,-0.368 4.41,-0.572 -1.955,2.074 -5.276,1.852 -5.662,5.159 -0.295,2.524 0.954,6.466 -1.033,8.39 -0.075,-0.475 -0.29,-0.95 -0.572,-1.261 -0.441,0.238 -0.81,0.562 -1.076,0.942 -0.39,-0.385 -0.864,-0.946 -1.44,-1.116 -0.516,-0.151 -0.657,1.186 -1.243,0.017"
   id="path1407"
   style="fill:#dcc06d" />
			<path
   d="m 216.944,83.843 c -0.149,1.155 -1.724,1.113 -2.654,1.1 0.482,1.339 -0.58,0.992 -1.431,1.252 0.194,1.325 0.414,2.709 0.549,4.09 0.1,1.042 -0.178,2.807 0.322,3.687 0.414,-1.423 0.365,-2.917 0.889,-4.352 0.979,3.319 1.222,7.516 1.252,10.711 0.011,-2.135 -0.627,-6.928 0.67,-8.605 0.094,0.486 0.529,1.021 0.595,1.393 0.149,0.834 -0.103,1.653 0.17,2.471 -0.03,-1.977 -0.648,-3.896 -0.576,-5.827 -0.187,0.271 -0.648,0.61 -0.854,0.896 -0.704,-0.396 -0.5,-1.235 -0.719,-1.917 -0.021,0.066 -0.066,0.095 -0.136,0.087 -0.104,-0.615 -0.488,-0.982 -1.047,-0.671 0.345,-0.648 0.273,-1.754 0.826,-2.23 0.174,-0.149 0.768,0.159 1.089,-0.064 0.6,-0.413 1.028,-1.524 0.698,-2.199"
   id="path1409"
   style="fill:#dcc06d" />
			<path
   d="m 210.447,82.155 c -0.217,-1.423 -0.757,-4.961 -2.062,-5.81 0.113,1.604 0.959,3.363 1.237,4.999 0.188,1.097 0.542,3.797 -0.519,4.51 0.93,0.854 1.214,2.175 1.591,3.383 -0.659,-2.11 0.09,-4.873 -0.247,-7.082 z"
   id="path1411"
   style="fill:#dcc06d" />
			<path
   d="m 193.528,100.168 c -0.032,0.069 -0.949,2.045 -1.066,1.878 -1.111,-1.573 -1.706,-4.11 -1.078,-6 -0.704,2.117 -0.367,4.715 -0.367,6.954 0.183,0.094 -0.178,-0.03 0.014,-0.136 -0.427,0.302 -0.682,0.567 -0.947,0.979 -0.061,-0.157 -0.294,-0.306 -0.344,-0.668 -0.324,0.181 -0.855,0.478 -1.195,0.669 -0.111,-1.501 0.347,-3.196 0.112,-4.621 -0.766,1.195 -0.648,3.039 -0.715,4.447 -0.558,0.061 -0.262,-0.077 -0.818,0.323 -0.045,-0.055 -0.364,-0.482 -0.358,-0.472 -0.093,0.158 -0.126,0.347 -0.267,0.471 -0.471,-2.034 0.215,-3.48 0.411,-5.42 -0.019,0.05 -0.054,0.079 -0.104,0.089 -0.002,-1.117 -0.426,-2.604 -0.792,-3.403 0.379,2.659 -1.66,8.089 0.321,10.213 -0.049,-0.445 0.194,-0.8 0.245,-1.22 0.313,-0.068 0.914,-0.174 1.175,-0.179 0.183,0.304 0.609,0.539 0.769,0.815 0.414,-1.46 1.387,-0.839 2.27,-0.142 -0.593,-0.468 1.547,-1.239 2.172,-0.578 -0.07,-0.71 0.376,-1.007 1.068,-0.865 -0.37,-0.867 -0.535,-2.124 -0.506,-3.134 z"
   id="path1413"
   style="fill:#dcc06d" />
			<linearGradient
   id="XMLID_9_"
   gradientUnits="userSpaceOnUse"
   x1="189.9565"
   y1="83.639198"
   x2="188.1696"
   y2="82.745796">
				<stop
   offset="0"
   style="stop-color: rgb(243, 212, 140);"
   id="stop1416" />
				<stop
   offset="0.1075"
   style="stop-color: rgb(238, 208, 137);"
   id="stop1418" />
				<stop
   offset="0.2346"
   style="stop-color: rgb(224, 195, 129);"
   id="stop1420" />
				<stop
   offset="0.3717"
   style="stop-color: rgb(200, 174, 115);"
   id="stop1422" />
				<stop
   offset="0.5158"
   style="stop-color: rgb(166, 145, 96);"
   id="stop1424" />
				<stop
   offset="0.6655"
   style="stop-color: rgb(124, 108, 71);"
   id="stop1426" />
				<stop
   offset="0.8198"
   style="stop-color: rgb(71, 62, 41);"
   id="stop1428" />
				<stop
   offset="0.9751"
   style="stop-color: rgb(10, 9, 6);"
   id="stop1430" />
				<stop
   offset="1"
   style="stop-color: rgb(0, 0, 0);"
   id="stop1432" />
			</linearGradient>
			<path
   d="m 189.408,84.168 c 2.144,-0.837 -1.309,-2.988 -1.622,-2.519 -0.6,0.896 0.386,2.985 1.595,2.53 0.01,-0.004 0.018,-0.008 0.027,-0.011 z"
   id="path1434"
   style="fill:url(#XMLID_9_)" />
			<path
   d="m 187.799,84.379 c 0.3,0.525 0.567,1.052 0.903,1.546 0.002,-0.285 0.111,-0.36 0.166,-0.584 0.536,0.529 0.341,0.254 0.901,0.268 0.271,0.2 0.624,0.497 0.913,0.732 -0.629,1.083 0.448,2.678 0.47,3.747 0.035,1.614 -0.414,3.933 -0.314,5.228 0,-1.561 0.115,-3.58 -0.853,-4.794 -0.058,-0.047 -0.191,0.215 -0.228,0.233 -0.012,-0.161 0.061,-0.307 -0.031,-0.461 -1.363,1.885 -0.274,4.665 -0.993,6.727 -0.185,-1.977 0.453,-4.163 -0.07,-5.994 -0.562,-0.426 -0.797,-1.367 -1.682,-1.286 -0.033,0.052 -0.189,0.21 -0.263,0.298 0.033,-0.697 -0.183,-0.447 -0.493,-0.943 -1.218,0.929 -1.641,2.108 -3.11,2.901 1.294,-0.555 2.494,-1.599 2.927,-2.941 0.113,-0.074 0.576,-0.269 0.721,-0.321 0.5,0.658 2.475,1.485 2.007,-0.01 0.202,0.5 0.621,0.731 1.148,0.634 0.251,-1.129 -0.51,-2.305 -1.085,-3.198 -0.439,-0.681 -0.703,-1.208 -1.033,-1.959"
   id="path1436"
   style="fill:#dcc06d" />
			<path
   d="m 197.633,77.585 c -0.016,3.599 -2.487,6.968 -2.132,10.481 -0.69,-2.263 0.108,-4.612 0.751,-6.861 0.554,-1.95 0.86,-3.986 1.636,-5.868 -0.377,1.185 -0.719,2.197 0.102,3.321"
   id="path1438"
   style="fill:#dcc06d" />
		</g>
		<path
   d="m 193.378,63.639 c -1.875,-2.021 -3.623,-2.75 -6.26,-1.182 -2.049,1.218 -3.837,3.196 -5.224,5.115 -0.553,0.764 -2.358,1.761 -2.516,2.678 -0.155,0.893 1.539,3.222 2.309,3.558 -0.031,-0.204 -0.055,-0.279 -0.129,-0.478 0.925,-0.115 0.37,0.493 0.873,0.866 0.437,0.323 0.961,0.448 1.259,0.922 0.7,1.112 0.173,3.043 0.748,4.228 2.026,-0.387 3.644,-2.497 5.524,-3.286 -0.012,0.046 -0.115,-0.099 -0.121,-0.08 0.185,-0.237 0.549,-0.373 0.768,-0.518 1.402,2.267 2.171,-1.213 2.508,-2.133 0.62,-1.685 1.794,-3.114 2.2,-4.864 0.195,-0.842 0.253,-1.861 -0.019,-2.68 -0.358,-1.075 -1.11,-1.273 -1.92,-2.146 z"
   id="path1440"
   style="fill:#f9e3b7;stroke:#967348;stroke-width:0.3199" />
		<path
   d="m 216.381,60.822 c -2.304,0.381 -3.976,1.246 -5.36,3.04 -1.439,1.869 -1.538,3.082 -0.939,5.488 0.493,1.973 1.472,4.244 3.464,5.058 1.648,0.672 4.55,2.883 6.418,2.397 0.031,-0.008 1.066,-1.252 1.28,-1.427 0.687,-0.565 1.36,-1.103 2.145,-1.548 0.621,-0.351 0.79,-0.344 1.6,-0.537 2.058,-0.49 1.029,-1.346 1.825,-2.873 0.318,-0.61 1.192,-0.634 1.194,-1.37 0.003,-0.262 -2.387,-3.099 -2.621,-3.428 -1.621,-2.257 -6.277,-5.248 -9.006,-4.8 z"
   id="path1442"
   style="fill:#f9e3b7;stroke:#967348;stroke-width:0.3199" />
		<linearGradient
   id="XMLID_10_"
   gradientUnits="userSpaceOnUse"
   x1="217.979"
   y1="56.644501"
   x2="218.33701"
   y2="57.807701">
			<stop
   offset="0"
   style="stop-color: rgb(243, 212, 140);"
   id="stop1445" />
			<stop
   offset="0.1075"
   style="stop-color: rgb(238, 208, 137);"
   id="stop1447" />
			<stop
   offset="0.2346"
   style="stop-color: rgb(224, 195, 129);"
   id="stop1449" />
			<stop
   offset="0.3717"
   style="stop-color: rgb(200, 174, 115);"
   id="stop1451" />
			<stop
   offset="0.5158"
   style="stop-color: rgb(166, 145, 96);"
   id="stop1453" />
			<stop
   offset="0.6655"
   style="stop-color: rgb(124, 108, 71);"
   id="stop1455" />
			<stop
   offset="0.8198"
   style="stop-color: rgb(71, 62, 41);"
   id="stop1457" />
			<stop
   offset="0.9751"
   style="stop-color: rgb(10, 9, 6);"
   id="stop1459" />
			<stop
   offset="1"
   style="stop-color: rgb(0, 0, 0);"
   id="stop1461" />
		</linearGradient>
		<path
   d="m 217.225,57.385 c 0.011,0.04 0.038,0.081 0.081,0.119 0.233,0.209 2.011,0.108 1.849,-0.224 -0.422,-0.864 -2.058,-0.344 -1.93,0.105 z"
   id="path1463"
   style="fill:url(#XMLID_10_)" />
		<path
   d="m 203.715,74.836 c 0.098,-0.516 0.062,-1.094 0.143,-1.577 0.244,-1.436 0.333,-3.24 -0.283,-4.595 -0.308,-0.676 -0.642,-0.902 -0.725,-1.676 -0.026,-0.216 0.039,-0.695 -0.111,-0.875 -0.008,-0.01 -0.345,-0.43 -0.386,-0.179 0.011,-0.071 -0.023,-0.241 0,-0.332 -0.664,-0.095 -1.896,1.119 -2.146,0.616 -0.621,0.627 -1.653,0.755 -0.802,1.791 0.401,0.488 0.647,0.574 0.737,1.241 0.21,1.544 -0.596,2.401 -1.086,3.73 -0.33,0.899 -0.516,1.86 -0.514,2.82 0.001,0.586 -0.02,2.034 0.512,2.391 0.336,-0.41 0.599,-0.909 0.865,-1.365 0.082,-0.14 1.213,-1.694 1.379,-1.334 0.118,0.26 0.259,0.45 0.316,0.739 0.86,-0.423 1.325,0.208 1.901,-0.811 0.1,-0.177 0.162,-0.375 0.2,-0.584 z"
   id="path1465"
   style="fill:#f9e3b7;stroke:#967348;stroke-width:0.3199" />
		<g
   id="g1467">
			<path
   d="m 207.301,79.322 c -0.234,-1.119 -1.407,-2.213 -1.096,-3.408 -0.162,0.11 -1.154,0.019 -1.15,-0.034 0.068,-0.594 -0.364,-1.18 -0.936,-0.895 -0.211,0.628 -0.294,1.52 -1.201,1.156 0.198,-1.581 0.104,-3.433 0.015,-4.911 -0.032,-0.537 -0.324,-0.966 -0.38,-1.496 -0.066,-0.61 0.141,-1.226 0.167,-1.834 0.039,-0.981 -0.591,-1.68 0.284,-2.276 0.89,0.667 1.66,-0.173 2.542,0.048 -0.063,-0.016 0.833,0.401 0.802,0.381 0.284,0.199 0.491,0.313 0.29,0.695 0.687,0.579 -0.479,1.771 -0.655,2.393 -0.458,1.627 0.838,3.005 1.222,4.459 0.493,1.872 -0.296,3.86 0.096,5.722 z"
   id="path1469"
   style="fill:#f9e3b7;stroke:#967348;stroke-width:0.3199" />
			<path
   d="m 204.07,69.539 c 0.051,0.251 0.129,0.494 0.232,0.728 -0.043,-0.097 0.115,-0.334 0.175,-0.403 1.037,1.153 0.978,3.566 1.061,5.031 0.124,0.009 0.17,-0.117 0.286,-0.153 0.186,0.475 0.05,0.394 0.348,0.542 0.324,0.768 0.226,1.595 0.213,2.417 0.87,-1.397 0.648,-2.88 0.171,-4.366 -0.331,-1.026 -1.677,-3.038 -1.203,-4.123 0.595,-0.358 0.807,-1.403 0.648,-2.16 -0.535,0.742 -1.114,1.703 -1.886,2.282 -0.075,-0.083 -0.147,-0.199 -0.237,-0.268 -0.022,0.197 0.055,0.334 0.192,0.473"
   id="path1471"
   style="fill:#dcc06d" />
		</g>
		<path
   d="m 197.455,72.068 c -0.265,0.541 -0.599,1.048 -0.947,1.492 0.302,-0.384 -0.613,-2.202 -0.677,-2.65 -0.131,-0.897 0.023,-1.649 0.627,-2.379 1.061,-1.281 1.646,0.444 1.554,1.636 -0.049,0.644 -0.26,1.293 -0.557,1.901 z"
   id="path1473"
   style="fill:#f3d48c;stroke:#967348;stroke-width:0.3199" />
		<path
   d="m 195.845,70.121 c 0.233,0.906 0.789,2.211 0.642,3.119 -0.153,0.941 -1.185,2.204 -1.793,2.904 0.729,-1.077 0.121,-2.075 0.139,-3.224 0.018,-1.044 0.639,-2.1 1.013,-3.068"
   id="path1475"
   style="fill:#f9e3b7;stroke:#967348;stroke-width:0.3199" />
		<path
   d="m 209.218,70.207 c 1.139,-0.043 1.76,1.785 1.986,2.637 0.396,1.492 0.331,2.588 1.491,3.833 -1.753,-1.035 -3.246,-2.69 -3.905,-4.67 -0.201,-0.603 -0.544,-1.764 0.428,-1.8 z"
   id="path1477"
   style="fill:#f9e3b7;stroke:#967348;stroke-width:0.3199" />
		<path
   d="m 209.229,70.927 c -0.007,-0.346 0.004,-0.709 0.023,-1.105 0.035,-0.716 -0.066,-1.381 -0.132,-2.079 0.192,0.796 -0.652,1.063 -0.94,1.685 -0.79,1.692 1.188,3.384 1.892,4.675 -0.626,-1.149 -0.822,-2.063 -0.843,-3.176 z"
   id="path1479"
   style="fill:#f3d48c;stroke:#967348;stroke-width:0.3199" />
		<g
   id="g1481">
			<path
   d="m 182.146,73.026 c -0.191,-0.113 -0.395,-0.22 -0.649,-0.333 -0.221,-0.098 -0.916,-0.39 -1.045,-0.589 -0.216,-0.335 0.358,-0.553 0.233,-0.777 -0.294,-0.528 -1.107,-0.722 -1.564,-1.083 -0.293,-0.231 -0.308,-0.84 -0.502,-0.969 -0.305,-0.203 -0.727,-0.013 -1.058,-0.195 -0.374,-0.205 -0.537,-0.578 -0.786,-0.878 -0.625,-0.761 -1.163,-1.643 -1.846,-2.375 -0.5,-0.535 -1.052,-0.84 -1.239,-1.602 -0.036,-0.141 -1.833,2.611 -1.972,2.983 -0.564,1.509 -1.023,3.193 -0.816,4.814 0.104,0.795 0.256,1.224 0.266,1.988 0.017,1.326 0.79,2.876 0.512,4.147 -0.4,-0.803 -1.041,0.124 -1.592,0.107 -0.258,-0.008 -1.964,-1.052 -1.917,-1.192 -0.345,1.008 -0.476,2.153 -0.732,3.155 1.442,0.56 2.857,4.771 3.563,6.084 0.634,1.18 1.777,4.169 2.852,4.783 0.949,-0.421 1.693,-0.085 2.65,-0.126 0.357,-1.765 1.831,-2.879 2.557,-4.457 -0.131,-0.152 -0.161,-0.086 -0.324,-0.195 0.094,-0.205 0.267,-0.536 0.319,-0.636 0.958,-0.53 2.792,-1.478 2.817,-2.701 -0.102,-0.021 -0.202,-0.041 -0.305,-0.061 0.258,-0.645 0.823,-1.16 0.679,-2.052 0.08,0.162 0.159,0.254 0.22,0.443 1.117,0.161 3.078,0.135 3.947,-0.458 0.62,-0.424 1.33,-1.101 1.527,-1.827 -0.766,-0.058 -1.266,0.745 -2.019,0.892 -0.668,0.129 -1.584,0.018 -2.256,-0.031 -0.189,-0.397 -0.344,-5.536 0.33,-5.296 -0.067,-0.024 -0.431,-0.129 -0.48,-0.064 0.087,-0.113 0.146,-0.374 0.247,-0.489 -0.85,0.125 -0.669,-0.382 -1.088,-0.667 -0.187,-0.127 -0.353,-0.238 -0.529,-0.343 z"
   id="path1483"
   style="fill:#f9e3b7;stroke:#967348;stroke-width:0.3199" />
			<path
   d="m 172.501,70.304 c -0.843,1.135 -0.595,5.117 0.246,6.196 0.039,-0.042 0.087,-0.062 0.144,-0.059 -0.363,1.237 0.507,2.164 0.262,3.495 -0.546,2.957 1.187,5.197 1.714,7.999 -0.027,-0.012 -0.052,-0.024 -0.079,-0.035 0.005,0.457 0.004,0.914 0.011,1.37 -0.457,-1.529 -0.8,-3.03 -1.354,-4.547 -0.321,-0.878 -0.94,-1.784 -1.181,-2.667 -0.287,-1.048 -0.233,-2.58 -1.048,-3.479 0.302,0.263 0.517,0.21 0.881,0.237 -0.422,-0.733 -0.223,-1.744 -0.381,-2.521 -0.221,-1.083 -0.493,-1.992 -0.575,-3.09 -0.147,-1.996 -0.057,-3.754 0.865,-5.484 -0.277,0.52 0.776,2.117 0.875,2.646 -0.129,-0.013 -0.256,-0.031 -0.38,-0.061 z"
   id="path1485"
   style="fill:#dcc06d" />
			<path
   d="m 174.926,77.898 c 0.496,0.08 0.842,0.375 1.012,0.825 -0.394,-1.128 -0.72,-2.195 -0.973,-3.365 -0.206,-0.959 -0.071,-2.35 -0.449,-3.178 0.04,1.952 0.151,3.709 0.543,5.584"
   id="path1487"
   style="fill:#dcc06d" />
			<path
   d="m 177.742,81.519 c 1.574,1.027 3.516,1.101 5.323,1.066 -0.433,0.264 -0.913,0.549 -1.402,0.661 0.067,-0.017 -0.936,-0.412 -1.047,-0.434 -0.464,-0.087 -0.926,0.044 -1.399,-0.084 -0.981,-0.264 -1.992,-1.171 -2.279,-2.148"
   id="path1489"
   style="fill:#dcc06d" />
			<path
   d="m 179.801,78.074 c -1.575,-1.631 -2.383,-3.771 -2.331,-6.035 0.183,1.033 1.931,2.01 2.771,2.656 -0.854,-0.656 -1.331,-1.679 -1.999,-2.497 -0.68,-0.834 -1.592,-1.689 -1.7,-2.843 -0.663,1.649 -0.982,3.802 -0.521,5.549 0.429,1.622 1.493,3.319 2.814,4.356 1.256,0.988 4.71,2.717 6.236,1.58 -1.116,0.834 -4.606,-2.077 -5.27,-2.766 z"
   id="path1491"
   style="fill:#dcc06d" />
		</g>
		<g
   id="g1493">
			<g
   id="g1495">
				<path
   d="m 230.388,67.167 c -0.062,0.023 -0.121,0.048 -0.179,0.072 0.009,-0.004 -2.062,0.857 -1.403,1.128 -0.557,-0.229 -1.119,-0.564 -1.696,-0.917 -0.014,1.039 -0.601,1.515 -1.074,2.384 -0.098,0.18 -0.189,0.364 -0.276,0.551 -0.344,0.74 -0.769,1.682 -1.732,1.499 0.042,0.272 -0.098,0.643 -0.041,0.912 -0.195,-0.141 -0.598,-0.151 -0.763,-0.244 0.048,0.219 -0.084,0.547 -0.042,0.768 -1.104,0.244 -1.021,0.856 -1.177,1.784 -0.055,0.337 -0.013,1.01 -0.288,1.276 -0.08,0.076 -0.879,0.393 -0.769,0.192 -0.229,0.414 -0.54,0.71 -0.582,1.173 -0.379,0.026 -4.724,-0.676 -4.651,-1.035 -0.625,3.104 3.284,2.623 5.089,2.624 0.737,0 1.617,-0.268 2.327,0.007 0.78,0.301 1.687,1.146 2.435,1.609 -0.3,0.21 -0.579,0.514 -0.744,0.818 0.385,0 0.794,0.039 1.16,0.179 -0.559,0.497 -1.377,0.782 -1.285,1.595 0.031,0.296 0.757,0.366 0.671,1.043 0.122,0.009 0.246,0.025 0.367,0.047 -0.139,0.243 -0.632,1.173 -0.539,1.447 0.231,0.681 1.103,0.548 1.574,0.836 -0.056,0.069 -0.111,0.138 -0.171,0.205 0.733,0.593 0.989,1.746 0.638,2.596 0.732,-0.166 0.732,0.587 0.811,1.173 0.077,0.613 3.774,-1.899 4.012,-2.125 0.967,-0.917 1.47,-1.885 2.54,-2.678 1.396,-1.035 1.56,-1.613 1.879,-3.227 0.448,-2.255 1.953,-4.367 1.563,-6.704 -0.333,-1.985 -1.363,-1.5 -2.365,-0.804 -0.27,0.187 -0.391,0.523 -0.711,0.684 -0.392,0.197 -1.074,-0.009 -1.319,0.121 -0.484,0.259 -0.929,0.884 -1.314,1.437 1.022,-1.46 1.848,-3.708 1.896,-5.511 0.045,-1.719 0.156,-3.606 -0.283,-5.279 -0.097,-0.37 -0.643,-1.397 -0.178,-1.761 -0.445,0.349 -0.625,1.024 -1.111,1.317 -0.619,0.37 -1.551,0.531 -2.269,0.808 z"
   id="path1497"
   style="fill:#f9e3b7;stroke:#967348;stroke-width:0.3199" />
				<path
   d="m 232.775,76.702 c 0.776,-2.458 1.822,-5.02 1.306,-7.673 -0.128,-0.654 -0.393,-1.316 -0.516,-1.957 -0.229,0.695 -0.271,1.132 -0.303,1.869 -0.093,2.154 -0.025,4.088 -0.837,6.069 -0.557,1.36 -0.955,2.749 -0.752,4.346 0.552,-0.175 1.024,-1.091 1.552,-1.462 0.83,-0.581 1.784,-0.662 2.818,-0.934 -1.04,-0.384 -2.174,0.125 -3.175,0.25 0.012,-0.119 0.069,-0.414 0.1,-0.499 -0.065,-0.033 -0.129,-0.036 -0.193,-0.009 z"
   id="path1499"
   style="fill:#dcc06d" />
				<path
   d="m 230.577,89.296 c 0.725,-0.682 1.348,-1.583 1.717,-2.508 0.149,-0.372 0.326,-1.897 0.715,-2.021 1.32,-0.424 2.09,-1.884 2.398,-3.117 0.061,-0.237 -0.29,-0.346 -0.223,-0.53 0.102,-0.289 0.451,-0.43 0.622,-0.674 0.387,-0.552 0.913,-0.949 1.214,-1.57 -0.318,2.453 -0.348,5.995 -3.067,6.958 -0.153,1.6 -2.198,2.513 -3.242,3.463"
   id="path1501"
   style="fill:#dcc06d" />
				<path
   d="m 231.114,75.082 c -1.422,3.522 -4.147,4.464 -7.375,5.709 1.9,-0.443 4.192,-1.237 5.792,-2.321 1.45,-0.983 0.939,-2.206 1.583,-3.388"
   id="path1503"
   style="fill:#dcc06d" />
				<path
   d="m 231.733,69.746 c -0.227,1.04 -0.163,2.104 -0.197,2.945 0.278,-0.505 0.61,-1.152 0.657,-1.735 0.021,-0.28 -0.429,-1.359 -0.46,-1.21 z"
   id="path1505"
   style="fill:#dcc06d" />
			</g>
			<path
   d="m 228.047,71.405 c -0.184,0.038 -0.362,0.022 -0.525,-0.065 -0.667,1.072 -2.131,2.339 -2.296,3.62 0.825,0.326 1.224,-1.157 1.987,-1.346 -1.214,3.797 -6.273,4.48 -9.472,5.227 1.235,-0.289 2.862,0.145 4.176,-0.033 1.92,-0.26 3.695,-1.408 5.221,-2.521 1.933,-1.409 2.515,-4.077 2.337,-6.349 -0.105,0.562 -0.788,1.336 -1.428,1.467 z"
   id="path1507"
   style="fill:#dcc06d" />
		</g>
		<g
   id="g1509">
			<g
   id="g1511">
				<path
   d="m 169.929,49.853 c -0.016,1.17 -0.459,2.456 -0.371,3.765 0.126,1.881 0.494,3.352 1.57,4.828 0.755,1.036 1.532,1.796 2.108,2.928 0.288,0.563 -0.731,2.697 -0.867,3.34 -0.196,0.92 -0.592,1.883 -0.67,2.811 0.189,-0.225 0.531,-0.363 0.667,-0.474 -0.049,0.168 -0.068,0.36 -0.104,0.51 0.106,-0.103 0.387,-0.261 0.495,-0.381 -0.125,0.354 -0.145,0.818 0.054,1.185 0.511,-0.498 0.829,-1.356 1.292,-1.96 -0.001,0.111 -0.066,0.24 -0.103,0.343 0.132,-0.005 0.378,-0.014 0.503,0.04 0.015,0.159 0.04,0.336 0.043,0.493 0.375,0.321 0.82,0.459 1.183,0.721 1.266,0.914 2.291,1.682 3.703,2.423 1.689,0.885 1.425,0.538 2.816,-1.011 1.318,-1.466 3.003,-2.866 4.07,-4.505 -0.153,-0.034 -0.313,-0.038 -0.469,-0.053 0.933,-0.6 1.806,-1.332 2.669,-2.222 0.058,0.112 0.101,0.225 0.162,0.326 0.285,-0.347 0.68,-0.696 1.045,-0.916 -0.002,0.002 3.858,3.073 4.369,3.45 1.473,1.088 3.23,2.024 4.25,3.616 1.696,-0.882 2.333,-2.621 4.435,-2.565 0.755,0.021 2.276,-0.068 3.038,0.174 0.712,0.225 1.128,1.056 1.712,1.587 0.158,0.073 -0.062,0.051 -0.066,-0.14 0.004,0.701 0.124,1.33 0.674,1.714 -0.064,-0.944 1.277,-2.611 2.05,-3.419 1.93,-2.032 4.948,-2.798 6.765,-4.771 0.379,0.016 0.752,0.032 1.211,0.015 0.67,2.84 4.017,4.198 5.749,6.338 0.158,-0.091 0.38,-0.184 0.514,-0.281 0.031,0.468 -0.103,0.959 -0.368,1.369 0.593,-0.232 1.797,-0.535 2.379,-1.011 0.197,0.62 -0.254,1.21 -0.396,1.909 0.286,-0.438 0.664,-0.821 1.076,-1.152 -0.037,0.154 -0.102,0.289 -0.144,0.439 0.358,-0.375 0.636,-0.875 0.84,-1.341 -0.044,0.466 0.122,0.927 0.217,1.322 1.148,-1.927 2.415,-2.039 4.811,-2.109 -0.113,-0.681 0.544,-1.281 0.521,-1.622 -0.042,-0.612 -0.748,-1.19 -1.04,-1.749 -0.89,-1.698 -0.531,-3.461 -0.146,-5.346 0.136,0.003 0.151,0.106 0.277,0.135 0.932,0.207 2.124,-4.416 2.265,-5.179 0.4,-2.151 0.548,-4.36 -0.411,-6.402 0.23,0.183 0.599,0.285 0.855,0.48 0.044,-1.03 -0.736,-1.947 -0.673,-2.952 0.237,0.167 0.493,0.198 0.664,0.288 0.011,-0.761 -0.218,-1.573 -0.482,-2.282 0.348,0.205 0.823,0.211 1.197,0.32 0.23,-1.197 -0.326,-2.522 -0.813,-3.583 -1.538,-3.363 -3.344,-6.178 -5.58,-9.083 -1.191,-1.551 -2.701,-2.356 -4.265,-3.431 -3.803,-2.616 -7.802,-4.317 -12.347,-5.204 -4.481,-0.874 -9.784,-1.705 -14.333,-0.989 -3.106,0.489 -5.871,0.755 -8.856,1.729 -2.692,0.88 -5.243,2.193 -7.591,3.768 -4.701,3.152 -8.976,7.571 -11.053,12.914 -0.646,1.663 -1.357,3.377 -1.417,5.183 -0.064,1.874 0.341,3.785 0.316,5.67 z"
   id="path1513"
   style="fill:#f9e3b7;stroke:#967348;stroke-width:0.3199" />
				<path
   d="m 172.958,63.996 c 0.576,-2.08 1.421,-3.205 2.552,-5.01 0.699,-1.117 1.79,-2.49 2.141,-3.751 1.072,-3.859 -2.474,-7.203 -2.946,-10.714 -0.582,1.018 -0.413,2.33 -0.536,3.552 -0.063,-0.157 -0.246,-0.42 -0.312,-0.65 -0.412,1.489 -0.282,1.563 -1.442,2.404 -0.636,0.462 -1.188,0.812 -1.75,1.354 -0.07,0.063 -0.069,0.054 0.002,-0.023 0.112,-0.045 0.167,0.002 0.166,0.14 -0.172,0.003 -0.427,0.159 -0.79,0.071 -0.374,1.385 0.031,4.909 0.956,6.132 -0.109,-0.901 0.066,-2.236 0.67,-2.671 -0.112,-0.042 0.206,-0.067 0.398,0.031 0.017,-0.42 0.248,-0.555 0.014,-1.019 0.252,0.07 0.563,-0.011 0.848,0.125 -0.077,-0.204 -0.017,-0.475 -0.133,-0.701 1.707,-1.119 3.423,0.99 3.206,2.689 -0.307,2.387 -2.368,4.528 -2.508,7.148"
   id="path1515"
   style="fill:#dcc06d" />
				<path
   d="m 232.499,64.175 c -1.518,-3.082 -4.283,-5.965 -4.648,-9.516 -0.276,-2.708 1.639,-4.129 2.176,-6.728 1.834,-0.151 2.095,-3.967 2.152,-5.339 1.956,2.811 1.49,8.53 0.674,11.711 0.007,-0.532 -0.124,-1.067 -0.484,-1.382 -0.382,0.663 -0.32,1.562 -0.764,2.15 -0.349,0.465 -0.746,0.118 -1.076,0.508 -0.709,0.84 -0.596,1.992 -0.531,3.056 0.106,1.783 0.841,3.108 1.607,4.645"
   id="path1517"
   style="fill:#dcc06d" />
				<path
   d="m 204.607,58.454 c 0.941,0.112 2.259,-0.002 2.172,-1.229 1.531,0.049 2.479,-1.837 3.741,-2.499 1.023,-0.536 2.527,-0.817 3.692,-0.751 -1.35,0.385 -6.046,2.1 -5.876,3.878 -0.757,0.218 -0.526,1.09 -1.216,1.329 -0.607,0.21 -1.836,-0.789 -2.513,-0.906"
   id="path1519"
   style="fill:#dcc06d" />
				<path
   d="m 185.323,43.997 c -0.041,0.09 -0.047,0.182 -0.018,0.275 -0.43,-0.8 -1.208,-1.154 -2.084,-1.043 0.283,-1.821 -2.389,-1.487 -3.413,-1.254 1.348,-0.487 2.432,0.099 3.559,0.39 1.781,0.461 3.54,1.074 4.048,3.065 -0.538,-0.701 -1.298,-1.091 -2.092,-1.433 z"
   id="path1521"
   style="fill:#dcc06d" />
				<path
   d="m 173.611,43.06 c -0.412,-0.215 -0.909,-0.406 -1.371,-0.51 -0.12,0.369 -0.416,0.595 -0.394,1.049 -0.104,-0.271 -0.51,-0.466 -0.675,-0.681 -1.036,1.12 -0.5,3.084 -0.167,4.396 -1.429,-2.796 -1.241,-8.274 1.394,-10.423 -0.222,0.181 -0.096,2.759 -0.052,3.156 0.118,1.054 0.486,2.254 1.265,3.013 z"
   id="path1523"
   style="fill:#dcc06d" />
				<path
   d="m 230.89,33.779 c 1.203,1.667 0.537,4.521 0.202,6.373 0.917,-0.597 2.369,0.16 2.805,1.095 0.02,-0.8 -0.398,-1.561 -0.294,-2.371 0.326,0.325 0.616,0.841 0.829,1.292 -0.014,-2.042 -1.959,-4.033 -3.007,-5.674"
   id="path1525"
   style="fill:#dcc06d" />
				<path
   d="m 197.811,65.964 c 0.432,-1.833 1.347,-4.815 -0.43,-6.212 -1.416,-1.114 -4.338,-0.999 -6.046,-1.123 -2.454,-0.182 -4.928,-0.005 -7.286,0.5 -4.532,0.973 -7.584,4.143 -8.517,8.639 0.193,-0.036 0.304,-0.117 0.47,-0.219 0.164,0.128 0.142,0.335 0.348,0.404 0.126,-0.036 0.194,-0.199 0.314,-0.175 0.345,0.358 0.781,0.585 1.264,0.661 0.114,-0.183 0.313,-0.302 0.43,-0.483 1.752,0.939 1.555,-0.288 2.669,-1.579 1.383,-1.603 3.507,-3.781 5.644,-4.126 -0.421,-0.203 -0.737,-0.463 -1.183,-0.619 1.443,-1.136 4.001,-1.591 5.873,-1.355 -0.022,0.137 -0.131,0.14 -0.143,0.276 1.028,0.44 2.421,0.431 3.5,0.725 -0.058,-0.016 -0.367,-0.102 -0.435,-0.113 3.325,0.901 3.283,3.561 3.658,6.174 -0.056,-0.387 0.521,-1.378 0.579,-1.854 0.085,-0.694 -0.127,-1.27 -0.144,-1.92 -0.034,-1.243 0.381,-2.6 -0.695,-3.55 -0.015,-0.014 -0.031,-0.026 -0.047,-0.039"
   id="path1527"
   style="fill:#dcc06d" />
				<path
   d="m 208.257,61.376 c 1.591,-1.875 5.417,-2.107 7.543,-2.186 3.643,-0.135 7.417,-0.083 10.504,2.127 0.854,0.611 1.615,1.352 2.187,2.238 0.33,0.515 0.811,2.864 1.124,3.064 -0.87,-0.555 -1.964,-1.513 -2.799,-0.497 -0.076,-0.442 -0.396,-0.612 -0.535,-0.861 -0.285,0.948 -1.228,1.864 -2.299,1.568 -0.041,-0.012 -1.075,-2.492 -1.305,-2.785 -0.74,-0.934 -1.681,-1.599 -2.696,-2.198 -2.086,-1.234 -4.494,-0.766 -6.625,0.338 -0.928,0.482 -1.757,1.833 -2.67,2.17 -0.932,0.346 -1.719,-0.134 -2.438,0.75 -0.373,0.458 -0.375,1.274 -0.552,1.817 -0.751,-1.417 -0.548,-3.652 0.205,-5.035 0.102,-0.18 0.219,-0.351 0.356,-0.51 z"
   id="path1529"
   style="fill:#dcc06d" />
				<path
   d="m 172.378,66.768 c -0.975,-1.899 1.061,-4.575 2.038,-6.07 1.167,-1.785 2.641,-3.38 3.061,-5.509 0.258,-1.311 0.842,-4.074 -0.65,-4.904 -0.071,1.553 0.626,3.951 -0.798,5.068 -0.056,-0.064 -0.107,-0.151 -0.171,-0.208 0.018,1.494 -0.424,3.186 -1.06,4.542 -0.952,2.028 -3.281,4.813 -2.42,7.216"
   id="path1531"
   style="fill:#ccb25c" />
				<path
   d="m 228.566,50.81 c -0.221,1.141 -0.798,2.159 -0.813,3.35 -0.013,1.254 0.525,2.508 1.078,3.62 1.174,2.356 2.559,4.587 3.332,7.093 -0.78,-1.063 -1.074,-2.946 -1.586,-4.257 -0.423,-1.087 -0.855,-2.174 -0.96,-3.348 -2.188,-0.126 -1.229,-5.568 -0.782,-6.726"
   id="path1533"
   style="fill:#ccb25c" />
				<linearGradient
   id="XMLID_11_"
   gradientUnits="userSpaceOnUse"
   x1="188.7832"
   y1="55.772499"
   x2="188.53349"
   y2="56.8964">
					<stop
   offset="0"
   style="stop-color: rgb(243, 212, 140);"
   id="stop1536" />
					<stop
   offset="0.1075"
   style="stop-color: rgb(238, 208, 137);"
   id="stop1538" />
					<stop
   offset="0.2346"
   style="stop-color: rgb(224, 195, 129);"
   id="stop1540" />
					<stop
   offset="0.3717"
   style="stop-color: rgb(200, 174, 115);"
   id="stop1542" />
					<stop
   offset="0.5158"
   style="stop-color: rgb(166, 145, 96);"
   id="stop1544" />
					<stop
   offset="0.6655"
   style="stop-color: rgb(124, 108, 71);"
   id="stop1546" />
					<stop
   offset="0.8198"
   style="stop-color: rgb(71, 62, 41);"
   id="stop1548" />
					<stop
   offset="0.9751"
   style="stop-color: rgb(10, 9, 6);"
   id="stop1550" />
					<stop
   offset="1"
   style="stop-color: rgb(0, 0, 0);"
   id="stop1552" />
				</linearGradient>
				<path
   d="m 187.869,56.042 c 0.66,-0.228 1.415,-0.037 1.762,0.627 -0.43,0.495 -1.637,0.1 -2.011,-0.378"
   id="path1554"
   style="fill:url(#XMLID_11_)" />
			</g>
			
				<linearGradient
   id="XMLID_12_"
   gradientUnits="userSpaceOnUse"
   x1="234.6821"
   y1="53.983898"
   x2="234.37109"
   y2="55.383999"
   gradientTransform="matrix(0.9824,-0.1867,0.1867,0.9824,-23.7507,46.1742)">
				<stop
   offset="0"
   style="stop-color: rgb(243, 212, 140);"
   id="stop1557" />
				<stop
   offset="0.1075"
   style="stop-color: rgb(238, 208, 137);"
   id="stop1559" />
				<stop
   offset="0.2346"
   style="stop-color: rgb(224, 195, 129);"
   id="stop1561" />
				<stop
   offset="0.3717"
   style="stop-color: rgb(200, 174, 115);"
   id="stop1563" />
				<stop
   offset="0.5158"
   style="stop-color: rgb(166, 145, 96);"
   id="stop1565" />
				<stop
   offset="0.6655"
   style="stop-color: rgb(124, 108, 71);"
   id="stop1567" />
				<stop
   offset="0.8198"
   style="stop-color: rgb(71, 62, 41);"
   id="stop1569" />
				<stop
   offset="0.9751"
   style="stop-color: rgb(10, 9, 6);"
   id="stop1571" />
				<stop
   offset="1"
   style="stop-color: rgb(0, 0, 0);"
   id="stop1573" />
			</linearGradient>
			<path
   d="m 216.007,56.48 c 0.359,0.415 1.74,0.376 1.69,-0.383 -0.079,-1.11 -1.73,0.336 -1.69,0.383 z"
   id="path1575"
   style="fill:url(#XMLID_12_)" />
		</g>
		<path
   d="m 197.948,69.92 c 0.719,-2.662 2.652,-9.283 -1.39,-10.394 -1.65,-0.453 -3.307,-0.086 -4.973,-0.258 -1.636,-0.168 -2.832,-1.023 -4.441,-0.697 -2.46,0.497 -5.894,0.695 -7.657,2.645 -2.224,2.459 -3.802,5.957 -4.361,9.205 -0.387,2.253 0.73,6.286 1.972,8.288 1.353,2.18 4.718,2.622 7.042,2.452 6.864,-0.502 12.024,-4.627 13.808,-11.241 z"
   id="path1577"
   style="opacity:0.4;fill:#ccb25c" />
		<path
   d="m 226.465,77.644 c 2.15,-1.789 3.39,-4.585 3.441,-7.895 0.036,-2.341 -1.864,-5.475 -3.445,-7.011 -3.465,-3.375 -8.899,-3.822 -13.385,-3.238 -3.182,0.414 -6.339,0.61 -6.505,4.886 -0.226,5.76 2.651,11.717 7.838,14.23 2.12,1.028 4.513,1.309 6.827,1.103 2.074,-0.185 3.841,-0.921 5.229,-2.075 z"
   id="path1579"
   style="opacity:0.5;fill:#ccb25c" />
		<g
   id="g1581">
			<path
   d="m 187.747,104.399 c -0.175,-0.116 -0.365,-0.199 -0.57,-0.235 -0.687,1.335 -0.687,3.854 -0.236,5.326 0.092,0.295 1.632,-0.732 1.732,-0.854 0.387,-0.464 0.477,-0.851 0.458,-1.447 -0.023,-0.78 -0.512,-2.209 -1.384,-2.79 z"
   id="path1583"
   style="fill:#e1e2e3;stroke:#967348;stroke-width:0.3915" />
			<path
   d="m 189.374,109.152 c 2.657,-1.046 1.067,-6.681 -0.486,-4.591 -0.409,0.549 -0.773,5.087 0.486,4.591 z"
   id="path1585"
   style="fill:#e1e2e3;stroke:#967348;stroke-width:0.3915" />
			<path
   d="m 193.291,107.858 c 0.648,-1.702 -0.641,-4.933 -2.293,-3.511 -0.784,0.673 -0.806,4.096 0.355,4.394 1.06,0.271 1.668,-0.172 1.938,-0.883 z"
   id="path1587"
   style="fill:#e1e2e3;stroke:#967348;stroke-width:0.3915" />
			<path
   d="m 194.845,103.322 c -0.6,-0.094 -1.253,0.164 -1.607,0.848 -0.462,0.888 -0.01,1.993 0.358,2.875 0.127,0.305 1.441,1.944 1.406,2.055 0.444,-1.348 1.474,-3.139 1.113,-4.604 -0.165,-0.67 -0.693,-1.084 -1.27,-1.174 z"
   id="path1589"
   style="fill:#e1e2e3;stroke:#967348;stroke-width:0.3751" />
			<path
   d="m 198.609,107.718 c 0.768,-0.643 0.553,-3.401 0.134,-4.178 -0.71,-1.315 -2.051,-0.401 -2.378,0.708 -0.327,1.102 -0.308,2.64 -0.046,3.752 1.125,0.229 1.848,0.088 2.29,-0.282 z"
   id="path1591"
   style="fill:#e1e2e3;stroke:#967348;stroke-width:0.3915" />
			<path
   d="m 203.624,107.002 c -0.162,-2.467 -0.731,-6.166 -2.386,-5.208 -1.78,1.028 -2.098,3.746 -2.021,5.457 0.057,1.286 0.24,1.471 1.656,1.656 0.196,0.026 2.79,0.118 2.793,0.068 0.022,-0.238 0.022,-1.012 -0.042,-1.973 z"
   id="path1593"
   style="fill:#e1e2e3;stroke:#967348;stroke-width:0.3915" />
			<path
   d="m 219.475,103.685 c 0.169,-0.125 0.356,-0.218 0.557,-0.264 0.755,1.298 0.88,3.813 0.508,5.306 -0.077,0.3 -1.666,-0.648 -1.774,-0.765 -0.41,-0.444 -0.518,-0.826 -0.531,-1.422 -0.016,-0.779 0.4,-2.23 1.24,-2.855 z"
   id="path1595"
   style="fill:#e1e2e3;stroke:#967348;stroke-width:0.3915" />
			<path
   d="m 218.094,108.515 c -2.708,-0.91 -1.408,-6.618 0.251,-4.61 0.435,0.527 1.03,5.039 -0.251,4.61 z"
   id="path1597"
   style="fill:#e1e2e3;stroke:#967348;stroke-width:0.3915" />
			<path
   d="m 214.115,107.421 c -0.735,-1.667 0.389,-4.959 2.112,-3.624 0.817,0.633 1.013,4.049 -0.132,4.407 -1.043,0.325 -1.675,-0.086 -1.98,-0.783 z"
   id="path1599"
   style="fill:#e1e2e3;stroke:#967348;stroke-width:0.3915" />
			<path
   d="m 212.331,102.97 c 0.595,-0.122 1.26,0.101 1.65,0.766 0.506,0.863 0.111,1.99 -0.211,2.889 -0.113,0.311 -1.342,2.014 -1.301,2.124 -0.512,-1.324 -1.629,-3.061 -1.346,-4.541 0.13,-0.678 0.636,-1.118 1.208,-1.238 z"
   id="path1601"
   style="fill:#e1e2e3;stroke:#967348;stroke-width:0.3751" />
			<path
   d="m 208.796,107.553 c -0.8,-0.604 -0.725,-3.37 -0.347,-4.167 0.642,-1.35 2.028,-0.506 2.412,0.585 0.382,1.085 0.441,2.623 0.234,3.747 -1.111,0.285 -1.841,0.181 -2.299,-0.165 z"
   id="path1603"
   style="fill:#e1e2e3;stroke:#967348;stroke-width:0.3915" />
			<path
   d="m 203.751,107.094 c 0.036,-2.472 0.416,-6.196 2.118,-5.324 1.83,0.936 2.285,3.635 2.295,5.347 0.008,1.287 -0.164,1.481 -1.57,1.739 -0.194,0.036 -2.777,0.26 -2.786,0.211 -0.033,-0.238 -0.071,-1.01 -0.057,-1.973 z"
   id="path1605"
   style="fill:#e1e2e3;stroke:#967348;stroke-width:0.3915" />
		</g>
	</g>
</g></g></svg>
