<?xml version="1.0" encoding="UTF-8" standalone="no"?>
<!-- Generator: Adobe Illustrator 12.0.0, SVG Export Plug-In . SVG Version: 6.00 Build 51448)  -->

<svg
   version="1.0"
   id="Layer_1"
   width="403.66785"
   height="801.23621"
   viewBox="0 0 403.66784 801.23619"
   overflow="visible"
   enable-background="new 0 0 435.687 841.89"
   xml:space="preserve"
   sodipodi:version="0.32"
   inkscape:version="1.4.2 (f4327f4, 2025-05-13)"
   sodipodi:docname="all_bones_lower.svg"
   inkscape:output_extension="org.inkscape.output.svg.inkscape"
   style="display:inline;overflow:visible"
   xmlns:inkscape="http://www.inkscape.org/namespaces/inkscape"
   xmlns:sodipodi="http://sodipodi.sourceforge.net/DTD/sodipodi-0.dtd"
   xmlns="http://www.w3.org/2000/svg"
   xmlns:svg="http://www.w3.org/2000/svg"
   xmlns:rdf="http://www.w3.org/1999/02/22-rdf-syntax-ns#"
   xmlns:cc="http://creativecommons.org/ns#"
   xmlns:dc="http://purl.org/dc/elements/1.1/"><metadata
   id="metadata3098"><rdf:RDF><cc:Work
       rdf:about=""><dc:format>image/svg+xml</dc:format><dc:type
         rdf:resource="http://purl.org/dc/dcmitype/StillImage" /></cc:Work><cc:Work
       rdf:about=""><dc:format>image/svg+xml</dc:format><dc:type
         rdf:resource="http://purl.org/dc/dcmitype/StillImage" /></cc:Work></rdf:RDF></metadata><defs
   id="defs3096"><inkscape:perspective
   sodipodi:type="inkscape:persp3d"
   inkscape:vp_x="0 : 420.94501 : 1"
   inkscape:vp_y="0 : 1000 : 0"
   inkscape:vp_z="435.68702 : 420.94501 : 1"
   inkscape:persp3d-origin="217.84351 : 280.63 : 1"
   id="perspective3100" />
		
		
		
		
	
		
		
	
		
		
		
		
		
	
	
	

		
		
		
	
			
			
		
				
				
				
				
				
			
	
	
</defs>
<sodipodi:namedview
   inkscape:window-height="1369"
   inkscape:window-width="2560"
   inkscape:pageshadow="2"
   inkscape:pageopacity="0.0"
   guidetolerance="10.0"
   gridtolerance="10.0"
   objecttolerance="10.0"
   borderopacity="1.0"
   bordercolor="#666666"
   pagecolor="#ffffff"
   id="base"
   showgrid="false"
   inkscape:zoom="1.3469693"
   inkscape:cx="328.14409"
   inkscape:cy="514.85956"
   inkscape:window-x="1912"
   inkscape:window-y="-8"
   inkscape:current-layer="layer3"
   showguides="true"
   inkscape:guide-bbox="true"
   inkscape:showpageshadow="2"
   inkscape:pagecheckerboard="0"
   inkscape:deskcolor="#d1d1d1"
   inkscape:window-maximized="1" />
<g
   inkscape:groupmode="layer"
   id="layer3"
   inkscape:label="Skeleton"
   style="display:inline"
   transform="translate(-0.5499227,-20.15719)"><path
     d="m 194.521,324.339 c 0.168,-0.519 0.202,-1.443 0.021,-1.939 -0.12,0.621 -0.393,1.146 -0.549,1.74 0.237,0.113 0.445,0.27 0.618,0.467"
     id="path417"
     style="display:inline;overflow:visible;fill:#dcc06d" /><g
     style="display:inline;overflow:visible"
     id="FibulaRight"
     inkscape:label="Fibula">
	<path
   d="m 161.602,622.69 c -0.275,-2.346 -0.951,-4.168 -2.552,-3.871 0.797,0.265 1.891,0.255 2.705,0.294 -0.374,-4.057 -3.704,-10.944 -7.75,-12.409 -0.174,2.168 -1.705,4.22 -2.235,6.392 -0.67,2.753 0.531,4.255 1.512,6.732 0.391,-0.027 0.918,0.146 1.314,0.116 -0.696,10.504 0.201,22.204 2.567,32.567 2.996,13.12 2.502,26.338 4.36,39.64 0.993,7.099 1.341,14.367 2.704,21.404 1.083,5.585 2.419,11.185 2.251,16.871 -0.142,4.861 -1.109,10.005 -0.698,14.851 0.377,4.429 0.298,7.965 -1.021,12.386 -0.709,2.374 -0.367,3.96 0.323,6.643 1.3,0.114 4.856,-1.633 6.024,-2.459 1.78,-1.258 2.252,-2.554 2.514,-4.979 0.603,-5.566 -1.39,-10.995 -0.722,-16.415 0.583,-4.72 -0.384,-9.293 -0.726,-13.989 -0.352,-4.823 -0.855,-9.8 -1.092,-14.573 -0.237,-4.777 -0.902,-9.389 -1.412,-14.106 -0.859,-7.952 -1.591,-15.354 -3.149,-23.225 -1.656,-8.368 -2.897,-16.83 -3.368,-25.354 -0.333,-6.037 -0.686,-12.204 -1.36,-18.238 -0.367,-3.285 1.058,-9.483 -2.02,-11.897 3.647,-0.181 1.972,-5.425 0.975,-7.404 -1.183,-2.347 -3.372,-8.546 -6.07,-5.05 0.289,0.063 0.517,-0.041 0.688,-0.313"
   id="path421"
   style="fill:#f3d48c;stroke:#967348;stroke-width:0.3218" />
	<path
   d="m 156.08,610.236 c -1.864,1.217 -2.291,3.849 -1.457,5.695 0.34,-0.112 0.713,-0.165 1.045,-0.298 -0.342,1.742 1.001,2.34 2.437,2.471 -2.682,-0.242 -3.931,1.899 -5.345,-1.877 -1.108,-2.958 0.063,-6.575 2.506,-8.458 0.489,0.687 1.159,1.394 1.529,2.108"
   id="path423"
   style="fill:#dcc06d" />
	<path
   d="m 161.086,635.269 c 0.28,3.864 -1.332,7.653 -0.733,11.437 0.505,3.187 1.645,6.415 2.162,9.56 0.248,-3.411 -0.544,-6.938 -0.722,-10.337 -0.175,-3.338 1.014,-8.397 -0.35,-11.376"
   id="path425"
   style="fill:#dcc06d" />
	<path
   d="m 163.589,700.708 c 2.303,8.906 4.048,18.152 4.927,27.186 0.749,7.691 -0.353,17.322 2.262,24.558 -1.044,-2.758 -1.563,-4.041 -2.899,-0.972 -1.217,2.798 -1.625,6.267 -2.519,9.201 1.925,-11.97 2.222,-24.375 0.724,-36.372 -0.558,-4.463 -1.449,-8.801 -2.216,-13.23 -0.621,-3.589 -2.634,-11.246 -0.27,-14.533 0.776,2.998 0.981,6.424 1.422,9.526"
   id="path427"
   style="fill:#dcc06d" />
</g><g
     style="display:inline;overflow:visible"
     id="TibiaRight"
     inkscape:label="Tibia">
	<path
   d="m 153.748,591.677 c -1.213,2.563 -0.193,7.182 -0.051,9.959 0.193,3.769 2.044,6.459 4.367,9.315 2.713,3.338 4.924,8.374 6.499,12.427 4.457,11.476 4.983,25.45 4.926,37.644 -0.03,6.397 0.458,12.963 1.083,19.287 0.617,6.25 2.122,12.087 3.209,18.255 2.601,14.741 1.397,29.671 1.708,44.549 0.116,5.581 -3.227,11.08 -1.242,16.617 1.563,4.362 7.873,4.551 11.603,6.404 1.48,0.735 2.295,2.353 4.083,2.642 4.836,0.778 7.059,-6.007 7.806,-9.521 1.006,-4.735 -1.775,-8.615 -2.959,-13.115 -0.578,-2.196 -0.424,-4.219 -0.657,-6.375 -0.299,-2.771 -1.43,-5.474 -2.126,-8.185 -1.561,-6.076 -2.569,-12.319 -2.481,-18.608 0.079,-5.609 1.053,-11.303 0.713,-16.908 -0.28,-4.626 -0.851,-9.24 -1.062,-13.921 -0.457,-10.102 -1.598,-20.121 -1.091,-30.155 0.793,-15.703 4.327,-30.654 7.179,-46.023 0.474,-2.549 -0.094,-3.852 -0.646,-6.195 -0.397,-1.685 -0.279,-1.379 -0.079,-3.138 0.204,-1.787 1.234,-1.773 -0.288,-3.567 -3.437,-4.05 -10.172,-0.603 -14.106,0.367 -4.095,1.008 -9.379,1.331 -13.615,1.08 -1.26,-0.077 -12.378,-3.67 -12.773,-2.835 z"
   id="path431"
   style="fill:#f3d48c;stroke:#967348;stroke-width:0.3218" />
	<path
   d="m 189.774,618.452 c 1.121,-2.655 7.147,-14.558 4.003,-17.203 -1.482,-1.247 -5.577,1.628 -6.646,2.956 1.951,-2.426 4.772,-4.687 5.472,-7.871 1.053,-4.792 -2.578,-2.763 -5.597,-2.101 -4.163,0.913 -8.882,1.227 -12.721,3.442 2.945,-0.276 6.083,-1.668 9.101,-1.688 -0.113,1.878 -4.018,3.7 -5.479,4.518 -2.657,1.491 -5.339,2.076 -8.328,2.57 -2.314,0.383 -6.096,0.314 -7.83,2.066 1.407,2.214 3.98,3.471 6.522,3.659 1.423,0.105 6.589,-0.024 7.339,-1.291 -1.938,3.273 -2.195,8.78 2.404,3.908 0.291,1.352 -0.69,1.591 -0.748,2.674 -0.099,1.867 0.155,1.075 0.91,2.942 1.479,3.659 2.052,9.383 1.664,12.97 0.78,-3.769 0.87,-7.328 1.063,-10.81 0.18,-3.241 2.916,-7.492 5.71,-8.929 -0.16,0.356 -0.367,0.745 -0.552,1.111 1.511,-2.112 3.55,-4.55 5.934,-5.68 -0.472,1.96 -9.14,10.848 -6.459,11.771 -0.591,1.861 0.004,4.869 -0.214,6.716 -0.353,2.986 -1.646,6.241 -2.235,9.278 -2.143,11.057 -0.458,22.718 -1.064,33.98 -0.339,6.303 -0.299,12.938 0.043,19.319 0.462,8.606 2.523,17.889 1.555,26.439 -1.09,9.619 1.319,17.887 3.286,27.14 1.016,4.785 7.142,16.229 1.63,20.387 -0.769,-0.937 -1.787,-1.389 -2.704,-0.784 -0.392,-1.688 -0.738,-3.709 -0.968,-5.488 -0.202,2.521 -1.123,3.585 0.34,5.615 0.896,1.241 4.422,4.67 5.676,4.956 -0.396,-0.091 0.511,-13.187 4.64,-10.716 0.837,-5.152 -1.958,-12.493 -3.405,-17.485 -1.234,-4.253 -3.414,-8.361 -3.693,-12.777 -0.643,-10.15 -0.693,-20.113 -1.332,-30.232 -0.768,-12.16 -1.136,-24.041 -1.153,-36.307 -0.011,-7.577 0.16,-15.347 0.794,-22.885 0.424,-5.013 1.081,-11.521 3.042,-16.17 z"
   id="path433"
   style="fill:#dcc06d" />
	<path
   d="m 172.708,626.328 c -0.091,-0.593 -0.347,-0.869 -0.769,-0.83 -0.215,5.463 1.349,12.675 3.647,17.56 -0.076,-3.051 -0.176,-5.861 -0.655,-8.89 -0.303,-1.913 -1.551,-5.883 -1.09,-7.786 0.536,-2.214 3.409,-2.61 2.728,-5.396 -0.781,1.148 -2.57,3.98 -4.506,3.866 -1.603,-0.093 -1.699,-3.043 -4.031,-1.055 -0.193,-0.486 -0.639,-1.11 -0.724,-1.667 1.197,3.769 1.446,7.949 2.912,11.611 -0.126,-2.778 -1.86,-6.773 -0.015,-9.201"
   id="path435"
   style="fill:#dcc06d" />
	<path
   d="m 192.044,598.696 c 0.747,-0.607 2.271,-3.133 1.959,-4.168 -0.663,-2.2 -1.25,-0.534 -2.582,-1.105 3.686,1.583 -4.614,6.538 -5.714,7.838 1.014,-0.813 3.021,-1.066 3.297,0.663 0.283,1.772 -2.493,3.298 -3.672,4.082 -1.837,1.219 -2.72,2.416 -4.281,3.763 3.308,-2.853 6.747,-5.536 10.466,-7.723 -0.119,0.199 -0.177,0.415 -0.173,0.646 0.681,-0.707 1.561,-0.758 2.399,-0.983 0.149,0.531 0.418,1.075 0.436,1.623 -0.23,-1.666 -0.743,-3.654 -2.135,-4.636 z"
   id="path437"
   style="fill:#ccb25c" />
	<path
   d="m 186.296,697.132 c 0.047,6.914 0.991,13.771 1.422,20.654 0.37,5.9 2.233,11.478 2.866,17.141 -0.948,-8.573 -2.143,-17.006 -2.143,-25.646 0,-4.108 1.058,-11.764 -1.341,-15.012 -0.608,1.578 -0.512,3.32 -0.447,5.007"
   id="path439"
   style="fill:#ccb25c" />
	<path
   d="m 187.728,761.499 c 2.161,0.196 3.663,1.889 4.943,3.206 0.123,-1.663 -0.614,-5.002 0.421,-6.451 1.778,-2.491 2.332,0.227 2.207,2.143 3.413,-1.964 0.939,-8.501 -1.153,-10.608 -1.512,4.073 -1.466,9.86 -5.346,12.783"
   id="path441"
   style="fill:#ccb25c" />
	<path
   d="m 178.429,751.843 c -0.815,2.656 -3.313,7.766 1.393,6.749 -0.959,-2.324 -1.423,-4.273 -0.32,-6.749"
   id="path443"
   style="fill:#ccb25c" />
	<path
   d="m 188.529,632.001 c 0.138,-1.604 0.356,-3.172 0.708,-4.679 0.62,-2.658 2.193,-5.052 2.582,-7.736 0.25,-1.743 -0.013,-3.646 0.218,-5.444 0.194,-1.511 0.539,-8.811 2.518,-9.268 -0.436,0.099 -1.351,0.648 -1.706,0.973 3.422,4.877 -3.29,10.241 -4.572,14.535 -1.853,6.206 -1.167,12.802 -1.883,19.159 -1.159,10.284 -0.495,20.742 -0.455,31.028 -0.014,-7.842 0.902,-15.638 1.874,-23.406 0.606,-4.846 0.283,-10.174 0.716,-15.162 z"
   id="path445"
   style="fill:#ccb25c" />
</g><g
     style="display:inline;overflow:visible"
     id="g447">
	<path
   d="m 174.425,389.556 c 1.445,-2.521 4.873,-5.618 5.351,-8.24 0.636,-3.487 -3.673,-4.885 -6.077,-6.953 -2.549,-2.192 -3.363,-4.174 -6.827,-4.662 -3.307,-0.466 -7.498,-1.073 -10.823,-0.632 -2.893,0.384 -6.688,0.904 -8.367,3.218 -1.997,2.754 -2.437,9.078 -0.269,11.532 2.374,2.684 6.24,3.764 8.843,6.177 3.878,3.596 5.747,7.578 4.907,12.582 -0.787,4.688 -0.273,7.283 3.873,9.857 2.389,1.483 4.93,4.063 7.511,4.927 2.914,0.976 9.766,0.63 12.807,0.002 5.656,-1.171 8.03,-7.883 13.898,-8.332 5.969,-0.456 9.586,5.047 14.777,6.988 6.665,2.492 15.139,4.35 21.463,-0.159 5.404,-3.852 4.903,-9.069 5.451,-14.913 0.591,-6.279 3.285,-11.451 7.678,-15.924 0.038,0.282 0.018,0.56 0.044,0.793 2.768,-2.007 3.312,-5.777 3.167,-9.248 -0.205,-4.953 -4.885,-4.264 -8.403,-3.331 -4.04,1.07 -5.345,0.129 -9.055,-0.31 -3.225,-0.381 -5.351,1.725 -7.583,3.747 -2.874,2.6 -7.558,5.451 -6.016,9.584 7.786,1.78 12.519,15.145 7.199,21.376 -1.684,1.973 -6.495,2.857 -8.948,2.145 -2.862,-0.83 -3.768,-3.471 -6.063,-4.847 -2.306,-1.382 -6.654,-1.263 -9.306,-1.526 -8.722,-0.866 -15.839,5.605 -24.401,4.099 -5.629,-0.991 -6.068,-2.87 -7.336,-8.006 -0.977,-3.947 0.582,-6.591 2.505,-9.944 z"
   id="path449"
   style="fill:#f9ce82;stroke:#967348;stroke-width:0.3218" />
	<path
   d="m 209.278,404.201 c -4.927,-1.708 0.588,5.267 1.429,6.061 2.517,2.378 5.651,5.069 9.263,4.951 -0.209,-0.388 -0.299,-0.909 -0.527,-1.321 6.074,5.909 15.909,-0.356 18.164,-6.811 1.122,-3.212 0.17,-4.622 -0.525,-7.519 -0.724,-3.018 0.098,-6.862 1.805,-9.285 -0.303,3.978 1.794,2.482 3.299,0.077 1.645,-2.625 3.093,-5.062 5.337,-7.238 2.502,-2.427 2.521,-2.833 -0.788,-4.998 -1.84,-1.206 -6.555,-1.997 -6.033,-4.555 -1.053,0.875 -2.509,1.154 -3.766,1.264 0.155,-0.203 0.313,-0.406 0.471,-0.609 -1.732,0.3 -3.672,3.209 -5.599,4.167 -1.64,0.813 -3.376,1.465 -5.008,2.304 -2.361,1.215 -6.102,3.518 -1.126,4.265 0.032,0.324 0.06,0.634 0.106,0.958 5.979,-1.176 2.688,12.12 5.231,13.971 0.177,-0.618 0.893,-1.319 1.063,-1.737 3.622,7.034 -1.282,15.527 -9.037,14.656 1.312,-0.336 2.536,-1.035 3.672,-1.732 -4.231,0.081 -7.363,0.437 -11.359,-2.219 -1.668,-1.109 -5.157,-7.893 -7.146,-4.648"
   id="path451"
   style="fill:#dcc06d" />
	<path
   d="m 177.523,410.29 c 4.895,1.657 11.114,-1.297 15.348,-3.818 -0.403,0.434 -0.623,1.147 -1.009,1.602 0.849,-0.082 1.869,0.187 2.727,0.116 -3.687,8.59 -17.054,11.74 -23.819,5.633 1.621,0.485 3.588,0.631 5.134,0.132 -4.64,-1.803 -7.967,-7.882 -9.52,-12.585 -1.003,0.634 -1.449,1.859 -1.893,3.105 -0.84,-2.882 1.122,-8.059 -0.342,-10.643 -0.776,-1.371 -1.485,-0.542 -2.449,-1.434 -0.804,-0.744 -1.134,-1.67 -1.824,-2.574 -2.33,-3.046 -5.09,-5.275 -8.117,-7.444 -3.366,-2.414 -2.897,-5.567 -0.419,-8.938 2.418,1.282 5.989,1.824 8.659,0.979 1.435,-0.455 2.75,-1.749 4.23,-1.974 3.14,-0.477 7.473,3.221 9.913,4.935 3.952,2.773 2.7,4.085 0.439,7.965 -4.474,7.674 -8.311,21.134 2.942,24.943 z"
   id="path453"
   style="fill:#dcc06d" />
	<path
   d="m 160.206,389.162 c -1.7,-2.983 -2.025,-18.452 -9.164,-15.719 -2.658,1.018 -2.919,4.284 -2.358,6.693 0.772,3.312 2.499,3.494 4.651,5.356 -2.3,-1.991 -2.951,-5.866 1.184,-4.27 2.65,1.024 4.375,5.638 5.687,7.94 z"
   id="path455"
   style="fill:#ccb25c" />
	<path
   d="m 236.099,387.395 c 0.396,-5.067 9.067,-6.824 7.84,-0.457 1.878,-2.278 6.379,-5.111 5.317,-8.84 -1.259,-4.42 -7.512,-3.059 -9.942,-1.011 -2.902,2.449 -5.21,8.214 -3.879,12.023 1.468,4.204 4.979,3.149 6.355,-0.133 -3.142,1.076 -4.531,-1.232 -4.619,-4.086"
   id="path457"
   style="fill:#ccb25c" />
	<path
   d="m 210.351,410.638 c 2.41,1.552 5.78,2.702 8.552,3.424 -2.198,-1.468 -6.697,-3.761 -6.488,-6.971 -0.648,1.064 -1.414,2.638 -2.064,3.906"
   id="path459"
   style="fill:#ccb25c" />
	<path
   d="m 181.027,414.929 c 3.431,1.331 9.133,-1.399 10.594,-4.748 -0.787,-0.759 -1.61,-1.321 -2.665,-1.274 -0.705,3.192 -5.276,5.497 -8.286,5.665"
   id="path461"
   style="fill:#ccb25c" />
</g><path
     d="m 169.335,592.031 c -4.383,-1.106 -10.063,1.451 -13.592,-1.467 -2.613,-2.16 -5.664,-8.213 -2.964,-11.299 0.902,3.14 6.469,5.402 9.404,6.071 3.184,0.727 7.134,-0.117 10.003,-1.721 1.905,-1.064 1.25,-1.634 3.64,-1.426 3.969,0.346 6.464,1.957 10.672,0.622 4.472,-1.418 7.393,-4.307 7.547,-8.885 5.976,-3.271 1.519,8.783 0.393,11.03 -0.926,1.846 -1.852,4.888 -3.675,5.732 -2.021,0.936 -4.589,-0.368 -6.784,-0.367 -5.366,0.003 -9.239,3.074 -14.644,1.71 z"
     id="path479"
     style="fill:#e1e2e3;stroke:#967348;stroke-width:0.3218" /><g
     id="g3760"><path
       d="m 190.045,563.119 c -6.429,-13.702 -10.378,-27.696 -15.011,-42.17 -6.567,-20.521 -12.748,-41.185 -18.673,-61.855 -2.334,-8.146 -3.671,-16.238 -6.088,-24.325 -2.152,-7.193 -6.471,-15.421 -4.544,-23.134 -1.611,3.339 -0.641,11.489 1.7,14.166 0.2,-2.5 0.714,-4.924 0.786,-7.46 0.12,-4.177 -1.453,-7.591 -0.323,-11.749 0.764,-2.819 4.466,-11.608 8.868,-10.511 -2.788,-0.742 -7.337,0.828 -9.508,2.823 3.381,-4.315 8.504,-0.984 12.057,-4.542 1.681,-1.684 2.375,-3.973 2.156,-6.35 -0.424,-4.606 -6.979,-12.549 -12.196,-11.915 -5.491,0.668 -5.055,8.206 -7.567,11.396 -1.437,1.827 -5.069,3.538 -7.295,3.674 1.399,-3.479 -4.642,-1.622 -6.133,-1.01 -3.697,1.519 -2.798,2.865 -3.377,6.348 -0.536,3.215 -2.971,6.091 -2.78,9.298 0.208,3.493 3.143,5.325 4.726,8.207 3.908,7.111 6.2,15.041 8.583,22.904 2.784,9.185 5.647,18.028 7.102,27.424 1.573,10.152 5.258,19.811 7.566,29.793 2.672,11.555 6.159,23.231 7.699,34.939 1.418,10.777 1.269,23.275 -0.358,34.055 -0.892,5.913 -5.612,11.212 -5.298,17.324 0.209,4.056 5.092,8.72 9.239,8.722 3.656,0.002 6.687,-1.727 10.104,-2.789 5.073,-1.577 8.838,0.337 13.658,0.087 4.481,-0.232 7.142,-2.827 9.487,-6.514 4.303,-6.766 -1.852,-11.022 -4.58,-16.836 z"
       id="path469"
       style="fill:#f3d48c;stroke:#967348;stroke-width:0.3218" /><path
       style="fill:#dcc06d"
       id="path473"
       d="m 158.221,583.635 c 2.483,1.407 3.886,-0.451 6.053,-0.409 -0.118,0.359 -0.223,0.663 -0.287,1.044 0.818,0.345 1.89,0.317 2.812,0.011 -3.842,4.32 7,3.305 7.537,-0.396 0.455,-3.126 -8.432,-8.482 -11.047,-8.277 0.219,-2.989 -3.873,-3.483 -5.719,-4.665 1.463,-5.126 3.954,-12.842 3.44,-18.044 -0.727,2.688 -2.123,11.944 -0.382,14.565 1.457,2.192 3.868,1.13 5.765,0.733 0.547,3.036 6.002,5.899 8.278,7.563 3.695,2.698 9.939,5.591 12.889,0.26 0.723,-1.307 1.083,-4.738 0.724,-6.082 -0.492,-1.833 -2.622,-4.774 -4.253,-2.072 2.858,-4.283 -3.612,-12.904 -5.141,-16.852 -1.439,-3.714 -3.134,-7.051 -3.583,-11.042 -0.32,-2.836 -0.329,-5.582 -0.986,-8.383 -3.094,-13.179 -9.463,-25.313 -11.362,-38.908 -1.543,-11.056 -5.296,-21.408 -9.388,-31.808 -3.67,-9.333 -4.873,-19.382 -8.303,-28.713 -0.695,-1.893 -1.229,-6.083 -3.352,-6.681 0.242,-0.354 0.948,-0.956 1.296,-1.124 1.637,1.122 1.104,3.58 3.163,4.322 0.473,-3.04 -2.575,-6.763 -4.335,-8.875 -3.412,2.053 -2.704,-5.251 -2.822,-6.794 -0.206,-0.038 -0.411,-0.083 -0.613,-0.133 1.419,-2.65 -1.884,-3.049 -2.222,-4.92 -0.26,-1.443 1.701,-3.423 1.749,-5.003 0.041,-1.332 -0.611,-3.482 -1.309,-4.53 1.059,1.591 2.681,4.092 4.463,4.909 1.372,0.629 2.633,-0.395 3.458,-1.371 1.059,-1.25 2.165,-2.461 3.521,-3.398 0.41,-0.283 4.765,-2.58 5.004,-1.797 0.27,0.883 -1.635,1.647 -2.106,2.193 -1.001,1.164 -1.91,2.455 -2.592,3.835 -1.017,2.058 -1.749,4.839 -1.575,7.15 0.162,2.134 0.617,4.348 0.741,6.493 0.062,1.04 -0.055,2.053 -0.233,3.059 -0.222,1.256 -0.215,3.152 -0.712,4.24 -0.98,-2.018 -1.321,-4.849 -1.47,-7.083 -0.08,-1.167 0.046,-2.569 0.395,-3.674 0.192,-0.608 0.701,-1.522 0.13,-2.081 -0.571,0.325 -0.759,1.647 -0.934,2.286 -1.868,6.859 1.412,13.176 3.732,19.439 2.924,7.894 3.206,16.534 6.098,24.603 3.722,10.377 5.516,20.812 8.235,31.461 4.222,16.536 9.566,32.468 14.661,48.711 2.471,7.881 6.154,15.248 9.102,22.898 2.671,6.93 10.591,11.961 5.84,20.231 -1.688,2.938 -4.693,4.944 -8.048,5.399 -1.098,0.149 -10.296,-2.238 -9.396,-3.067 -2.138,1.972 -3.051,3.601 -6.169,4.513 -2.978,0.87 -6.135,0.5 -8.944,-0.694 -2.393,-1.017 -5.729,-1.89 -6.942,-4.446 -1.387,-2.925 0.167,-7.477 2.229,-9.68 0.164,4.328 7.56,4.596 5.512,9.099 -0.371,-1.718 -2.855,-5.782 -5.109,-4.438 -2.619,1.557 0.989,5.562 2.507,6.423 z" /><path
       style="fill:#dcc06d"
       id="path475"
       d="m 134.853,392.979 c -0.043,0.943 0.066,1.945 0.45,2.811 0.661,-3.814 6.281,-4.07 7.393,-7.803 -1.058,1.365 -3.187,2.527 -4.698,3.351 -1.25,0.682 -2.968,1.344 -4.399,1.417 0.244,-0.687 0.108,-1.373 -0.42,-1.9 -0.791,-0.792 -1.319,-0.554 -2.173,-0.074 0.95,0.127 1.299,0.544 0.401,1.126 -1.196,0.776 -2.378,0.799 -3.361,1.967 0.786,-1.213 5.401,-2.873 6.075,-0.792" /><path
       style="fill:#dcc06d"
       id="path477"
       d="m 132.108,409.464 c 0.273,1.686 -0.852,3.86 -2.279,4.666 -0.279,-0.404 -1.382,-1.179 -1.866,-0.739 -0.489,0.443 0.131,1.702 0.352,2.104 -0.486,-2.493 -2.711,-3.718 -3.794,-5.847 1.371,-0.31 2.309,2.025 3.574,2.248 0.783,0.138 1.708,-0.219 2.359,-0.62 0.401,-0.246 1.747,-1.241 1.654,-1.812 z" /><path
       style="fill:#ccb25c"
       id="path483"
       d="m 146.074,411.793 c -0.275,1.815 -0.639,3.301 -0.54,5.153 0.098,1.826 0.456,3.798 1.082,5.514 -0.182,-2.291 -0.556,-4.563 -0.407,-6.882 0.042,-0.665 0.361,-1.41 0.37,-2.041 0.011,-0.673 -0.438,-1.213 -0.505,-1.878" /><path
       style="fill:#ccb25c"
       id="path485"
       d="m 153.941,396.362 c -1.682,0.721 -2.845,2.158 -3.961,3.549 0.866,-1.506 -1.486,-0.333 -1.892,-0.136 -1.471,0.717 -2.793,1.518 -4.006,2.63 -0.382,0.351 -0.914,1.33 -1.492,1.352 -0.379,0.014 -1.031,-0.533 -1.365,-0.708 -0.929,-0.485 -1.572,-0.996 -2.347,-1.671 1.021,0.936 1.554,1.58 3.035,1.469 3.166,-0.234 4.689,-3.619 7.371,-5.031 1.517,-0.797 3.181,-0.857 4.657,-1.454 z" /><path
       d="m 188.55,578.677 c 0.863,-1.372 3.047,-6.863 0.545,-7.567 1.375,0.388 -1.801,-9.151 -1.878,-9.623 0.548,0.247 0.573,0.374 1.046,-0.061 0.787,1.925 1.806,3.745 2.97,5.468 1.319,1.947 3.416,3.313 3.479,5.902 -1.144,0.014 -2.211,4.776 -2.882,5.832 -2.366,3.727 -7.056,4.677 -11.149,4.247 -0.992,-0.105 -2.25,0.192 -3.175,-0.003 -1.756,-0.375 -2.982,-2.325 -4.296,-3.388 -1.222,-0.988 -2.49,-1.554 -3.857,-2.264 2.683,1.896 6.981,5.03 10.301,5.367 3.061,0.312 7.232,-1.263 8.896,-3.91 z"
       id="path487"
       style="fill:#ccb25c" /></g><path
     d="m 158.591,394.719 c 1.419,-2.629 -8.889,-5.732 -10.656,-7.152 -2.859,-2.296 -6.188,-6.174 -3.325,-9.155 2.898,-3.018 6.788,-2.515 9.977,-0.415 5.186,3.416 11.667,14.471 2.932,17.794"
     id="path481"
     style="fill:#e1e2e3;stroke:#967348;stroke-width:0.3218" /><g
     inkscape:label="Femur"
     id="FemurLeft">
		<path
   style="fill:#f3d48c;stroke:#967348;stroke-width:0.3218"
   id="path493"
   d="m 248.121,579.791 c -0.447,2.931 -1.395,5.811 -3.142,8.059 -1.589,2.044 -3.415,0.892 -5.635,0.716 -2.531,-0.199 -4.677,-1.898 -7.311,-2.132 -3.671,-0.324 -7.22,0.529 -10.447,2.28 -2.515,1.364 -5.358,2.271 -8.169,2.345 0.365,2.138 -2.519,0.265 -3.076,-0.352 -1.459,-1.616 -2.085,-3.382 -2.962,-5.299 -0.527,-1.149 -0.997,-1.91 -0.907,-3.222 0.096,-1.366 0.194,-2.734 0.307,-4.1 0.103,-1.235 0.36,-2.392 0.207,-3.645 -0.088,-0.716 -0.239,-1.483 -0.054,-2.197 0.182,-0.692 0.708,-1.234 1.101,-1.813 1.083,-1.604 2.146,-3.204 3.097,-4.892 1.922,-3.412 3.535,-6.986 5.115,-10.565 1.83,-4.142 3.393,-8.275 4.873,-12.533 0.917,-2.641 1.613,-5.185 2.332,-7.88 2.053,-7.713 5.059,-15.053 7.041,-22.806 2.077,-8.129 3.568,-16.411 5.335,-24.619 1.607,-7.456 4.435,-14.527 6.915,-21.736 1.327,-3.852 2.264,-7.851 3.682,-11.707 0.789,-2.148 1.452,-4.297 2.007,-6.521 0.78,-3.121 0.941,-6.193 1.562,-9.338 0.744,-3.757 2.086,-7.361 3.329,-10.97 0.555,-1.61 1.016,-3.235 1.591,-4.846 0.905,-2.529 0.83,-4.528 0.879,-7.107 0.542,1.254 0.54,2.815 0.237,4.237 -0.579,2.727 -1.628,5.657 -2.656,8.25 -0.53,-1.293 -0.307,-2.682 -0.571,-4.23 -0.248,-1.44 -0.723,-2.963 -1.352,-4.278 -0.257,-0.537 -1.055,-1.425 -1.168,-1.936 -0.343,-1.554 1.295,-2.237 2.055,-3.303 1.651,-2.321 2.235,-6.321 0.618,-8.793 -1.378,-2.108 -3.079,-4.518 -5.44,-5.573 -2.277,-1.017 -5.55,-1.07 -7.147,-3.181 -4.536,-6.002 0.391,-10.687 4.748,-14.668 2.527,-2.309 6.149,-3.723 9.397,-1.729 3.538,2.171 1.407,7.326 -0.405,9.81 1.064,-2.195 2.18,-3.361 2.304,-5.925 0.165,-0.062 0.35,-0.112 0.521,-0.153 1.078,2.056 1.653,4.628 3.371,6.432 1.972,2.074 5.48,3.941 8.417,3.622 -0.982,0.095 -3.941,-0.268 -4.259,-1.558 -0.168,-0.687 0.807,-2.113 0.825,-2.987 2.284,-0.798 5.554,-1.411 7.681,0.168 1.04,0.772 1.182,1.8 1.687,2.865 0.56,1.173 1.482,2.044 2.329,2.898 -1.066,1.481 -0.213,4.421 0.324,5.999 0.78,2.289 2.534,3.888 1.726,6.472 -0.854,2.725 -3.205,4.583 -4.498,7.058 -3.756,7.193 -5.878,15.168 -8.096,23.081 -2.15,7.677 -4.431,15.339 -5.833,23.196 -0.66,3.683 -0.623,7.289 -1.727,10.899 -1.116,3.659 -2.764,7.124 -4.118,10.695 -1.879,4.949 -3.212,10.009 -4.587,15.11 -1.417,5.258 -2.08,10.63 -3.52,15.896 -0.753,2.761 -1.117,5.516 -1.922,8.245 -0.937,3.187 -2.118,6.323 -2.438,9.654 -0.353,3.703 -0.529,7.455 -0.613,11.169 -0.057,2.622 0.581,5.093 0.675,7.647 0.111,3.005 0.106,5.896 0.397,8.92 0.202,2.1 0.601,3.99 1.516,5.894 0.881,1.829 2.101,3.011 3.355,4.529 1.077,1.308 0.784,3.221 0.822,5.063 0.038,1.722 -0.047,3.565 -0.325,5.385 z" />
		<path
   style="fill:#dcc06d"
   id="path495"
   d="m 241.91,557.729 c -0.963,-4.215 -1.149,-8.277 -1.236,-12.578 -0.053,-2.668 -0.275,-5.354 -0.348,-8.006 -0.085,-3.018 0.962,-6.085 1.246,-9.093 -0.259,2.739 -1.074,5.492 -1.489,8.225 -0.403,2.645 -1.393,5.15 -1.896,7.772 -0.449,2.344 -0.561,4.064 -2.061,6.056 -1.478,1.969 -3.399,3.869 -5.233,5.495 -1.735,1.535 -5.307,3.282 -6.157,5.131 -1.049,2.275 -0.111,5.24 -1.762,7.287 -1.733,2.147 -4.929,3.705 -7.089,5.446 1.021,1.223 -2.192,2.839 -3.144,3.08 -0.094,-1.291 -0.909,-2.311 -1.225,-3.545 -0.224,-0.872 0.248,-1.944 -1.25,-1.593 -0.089,-0.777 0.241,-2.019 0.868,-2.499 0.759,0.572 1.715,0.665 2.009,1.683 -0.092,-0.575 -0.572,-0.721 -0.751,-1.178 -0.234,-0.594 -0.182,-0.642 -0.243,-1.243 -0.104,-1.053 0.548,-2.035 0.307,-3.04 -1.461,0.961 -2.419,3.825 -3.451,5.296 -0.785,1.119 -1.384,2.511 -1.867,3.732 3.679,3.119 3.744,8.318 4.735,12.549 -0.458,-3.41 1.698,-6.798 3.719,-9.203 1.515,-1.802 2.815,-3.845 4.776,-5.219 1.254,-0.88 2.71,-1.326 4.054,-2.085 2.663,-1.503 4.79,-4.659 7.02,-6.778 1.888,-1.795 3.852,-5.395 6.281,-6.338 0.581,1.242 -0.65,3.341 -0.477,4.836 0.256,2.182 2.057,3.913 3.063,5.779 0.821,1.524 1.901,4.114 1.483,5.891 -0.34,1.438 -1.03,1.229 -2.212,1.717 2.62,2.796 2.46,7.39 -0.865,9.419 -2.041,1.245 -3.896,1.716 -6.112,1.293 -2.185,-0.416 -4.071,-0.18 -6.179,0.596 2.855,-0.678 5.518,-0.16 8.35,0.382 2.099,0.401 4.266,1.403 6.414,1.299 2.367,-0.117 3.124,-0.926 4.273,-2.911 1.841,-3.176 2.438,-7.348 2.101,-10.961 -0.406,-4.344 -3.245,-7.082 -4.619,-11.037 -0.608,-1.752 -0.61,-3.814 -1.033,-5.657 z" />
		<path
   style="fill:#dcc06d"
   id="path497"
   d="m 265.474,416.94 c 0.656,-1.637 0.897,-2.811 2.113,-3.728 1.38,-1.044 2.847,-1.615 4.038,-2.965 0.825,-0.937 1.392,-2.023 2.093,-3.041 -0.485,1.112 -1.059,2.129 -1.725,3.146 -1.079,1.646 -3.523,3.602 -3.995,5.539 -0.354,1.457 1.198,2.114 0.382,3.758 -0.821,1.659 -2.56,2.684 -3.02,4.635 -0.489,2.074 -0.324,4.512 -0.676,6.659 -1.387,8.438 -4.768,16.445 -6.909,24.696 -0.829,3.192 -1.58,6.406 -2.166,9.652 -0.555,3.072 -0.485,5.761 -1.425,8.808 -0.796,2.564 -1.446,5.17 -2.283,7.726 -2.264,6.918 -4.416,13.813 -7.167,20.56 -0.434,1.064 -1.692,2.914 -1.715,4.106 -0.018,0.944 0.684,1.46 0.654,2.875 -0.126,6.031 -3.095,12.258 -2.438,18.3 0.643,-1.302 0.881,-3.353 1.246,-4.85 0.751,-3.104 1.427,-6.217 2.173,-9.326 0.841,-3.496 2.029,-6.879 3.038,-10.327 1.987,-6.795 3.628,-13.717 5.784,-20.474 2.312,-7.24 5.37,-14.361 7.049,-21.735 0.688,-3.025 0.994,-5.981 1.165,-9.029 0.179,-3.221 1.86,-6.482 2.782,-9.538 0.524,-1.733 0.736,-3.459 1.232,-5.197 0.712,-2.497 1.402,-5.003 2.178,-7.481 0.8,-2.555 2.073,-5.057 2.709,-7.644 0.468,-1.896 0.663,-3.306 1.695,-5.049 1.438,-2.427 2.992,-4.792 4.647,-7.077 1.327,-1.832 2.033,-3.06 1.313,-5.416 -0.595,-1.95 -1.805,-3.577 -2.216,-5.461 -0.385,-1.75 -0.147,-3.479 -1.138,-5.024 -1.097,-1.706 -3.32,-3.767 -5.19,-4.513 -1.882,-0.751 -3.161,1.041 -4.335,2.416 1.248,-0.606 6.269,-2.013 6.241,0.77 -0.026,2.776 -7.653,1.217 -9.081,0.506 -1.421,-0.705 -2.52,-1.588 -3.703,-2.602 -0.874,-0.749 -2.455,-1.279 -2.7,-2.515 -0.683,0.571 -0.926,1.415 -1.391,2.158 -1.301,2.083 -2.858,2.785 -5.059,3.677 -0.769,0.312 -1.513,0.521 -2.319,0.687 -1.121,0.228 -2.563,0.179 -3.571,0.693 1.964,0.709 5.086,1.333 6.135,3.356 -0.357,-0.636 -1.915,-1.418 -1.65,-2.423 0.232,-0.879 1.681,-0.955 2.391,-0.892 0.248,0.021 2.676,1.091 2.097,1.327 1.691,-0.686 1.901,-2.531 4.032,-2.989 1.729,-0.372 2.717,0.06 3.94,0.858 -0.002,-0.001 0.427,0.583 0.542,0.677 0.164,0.134 0.563,-0.006 0.778,0.141 0.353,0.239 0.906,0.573 1.063,0.959 1.145,2.829 -1.871,5.837 -4.345,6.687 -2.376,0.814 -2.525,-0.884 -3.943,-2.063 -0.683,1.225 0.209,3.95 0.254,5.392 0.074,2.589 -0.069,3.989 -1.297,6.378 -0.476,0.924 -2.084,2.588 -2.304,3.441 -0.481,1.858 2.587,4.251 2.507,6.558 0.71,-1.718 0.986,-3.297 1.149,-5.111 0.119,-1.371 -0.104,-2.763 -0.05,-4.146 -0.012,0.366 0.896,1.396 1.064,1.816 0.267,0.659 0.422,1.345 0.476,2.053 0.115,1.509 -0.344,2.894 -0.681,4.336 -0.307,1.3 -0.384,2.386 -0.992,3.597 -0.759,1.515 -1.703,2.907 -2.283,4.512 -0.702,1.941 -1.256,4.111 -1.794,6.146 -0.486,1.846 -0.569,3.427 -0.598,5.312 -0.017,1.152 -0.35,2.474 0.02,3.564 1.96,-7.658 4.599,-15.064 6.778,-22.669 0.535,-1.875 0.938,-3.854 1.396,-5.75 0.487,-2.036 -0.232,-4.147 -0.271,-6.213 -0.03,-1.589 -0.805,-5.345 0.471,-6.578 0.666,-0.642 1.976,-0.969 2.754,-1.538 1.503,-1.094 1.866,-2.392 2.596,-3.958 0.304,-0.654 0.465,-2.068 0.831,-2.566 1.796,-2.451 9.72,-0.534 8.128,3.051 -1.44,3.245 -5.011,4.308 -6.909,7.098 -0.9,1.328 -0.396,2.825 -0.378,4.388 0.03,2.292 0.216,4.608 -0.217,6.874 z" />
		
		<path
   style="fill:#ccb25c"
   id="path501"
   d="m 256.603,385.524 c -0.362,1.962 -0.844,4.162 -2.156,5.738 -0.968,1.167 -2.568,1.862 -3.742,2.729 2.672,-1.412 4.372,-3.271 6.513,-5.254 0.299,0.577 0.859,1.087 1.425,1.518 0.068,-0.857 -0.598,-1.214 -0.96,-1.928 -0.375,-0.742 -0.369,-2.232 -1.077,-2.624" />
		<path
   style="fill:#ccb25c"
   id="path503"
   d="m 266.698,389.245 c -0.834,0.311 -2.106,2.31 -1.514,3.258 0.324,0.52 1.402,0.625 1.944,0.779 -1.047,-0.839 -1.634,-2.259 -0.6,-3.498" />
		<path
   style="fill:#ccb25c"
   id="path505"
   d="m 254.852,412.566 c 0.109,-0.282 0.165,-0.6 0.267,-0.888 -0.447,0.413 -1.442,1.228 -1.642,1.812 -0.34,0.979 0.404,1.728 0.696,2.717 0.604,2.059 0.066,3.959 0.34,5.969 0.697,-3.256 2.182,-7.063 0.149,-10.142" />
		<path
   style="fill:#ccb25c"
   id="path507"
   d="m 276.408,400.306 c -0.328,1.152 -1.103,2.147 -1.52,3.237 1.023,-0.573 2.128,0.483 2.697,1.206 1.042,1.317 0.608,1.93 -0.303,3.219 -0.658,0.932 -1.715,1.664 -2.306,2.555 -1,1.506 -1.863,3.835 -2.358,5.54 1.194,-2.406 3.097,-4.705 4.515,-7.021 0.535,-0.874 1.466,-1.925 1.684,-2.926 0.495,-2.256 -2.346,-3.46 -2.403,-5.632" />
		<path
   style="fill:#ccb25c"
   id="path509"
   d="m 241.524,560.032 c -0.029,1.771 0.184,3.65 0.648,5.359 0.353,1.302 0.378,2.893 0.937,4.094 0.364,0.786 2.956,2.733 1.572,3.208 -0.016,1.596 -0.113,2.701 -2.065,2.508 1.007,0.505 2.394,1.024 3.521,1.021 0.278,2.467 -0.575,5.075 -1.751,7.225 -0.962,1.762 -2.049,1.94 -4.102,2.225 0.111,0.218 0.086,0.457 0.165,0.646 -1.657,0.214 -2.419,-0.343 -3.729,-0.933 -1.263,-0.566 -2.472,-0.416 -3.799,-0.526 -3.436,-0.287 -6.813,-0.68 -10.118,0.746 1.589,0.201 3.83,-0.799 5.487,-1.023 1.727,-0.231 3.557,0.055 5.2,0.653 1.619,0.588 3.652,3.03 5.228,3.137 0.909,0.061 1.109,-0.854 1.776,-1.007 0.788,-0.179 1.502,0.377 2.338,0.186 1.645,-0.379 2.508,-3.332 3.059,-4.763 0.826,-2.15 1.414,-4.447 1.655,-6.773 0.162,-1.589 0.766,-5.091 -0.491,-6.406 -0.161,-0.169 -0.775,-0.046 -1.002,-0.229 -0.381,-0.312 -0.602,-0.685 -0.953,-1.026 -0.557,-0.536 -1.057,-1.072 -1.425,-1.744 -1.126,-2.047 -1.054,-4.313 -1.79,-6.403" />
		<path
   style="fill:#ccb25c"
   id="path511"
   d="m 213.84,578.503 c -1.16,1.426 -1.787,3.467 -2.188,5.225 3.988,-6.23 10.892,-10.151 15.189,-16.183 -2.845,2.574 -5.856,5.019 -8.938,7.303 -1.603,1.187 -3.989,3.755 -5.479,4.4" />
	</g><path
     style="fill:#e1e2e3;stroke:#967348;stroke-width:0.3218"
     id="path513"
     d="m 245.023,588.769 c 1.036,-0.721 1.978,-1.515 2.737,-2.271 1.88,-1.879 0.869,-4.551 0.778,-6.832 -0.026,-0.713 1.058,-8.91 -1.682,-6.686 -0.684,0.555 -0.941,1.392 -1.295,2.168 -0.495,1.085 -0.896,2.176 -1.707,3.072 -1.313,1.454 -2.89,2.824 -4.574,3.827 -2.082,1.238 -3.329,0.341 -5.511,0.815 -2.212,0.481 -4.324,0.925 -6.61,1.074 -0.685,0.044 -1.615,0.048 -2.271,0.228 -0.755,0.208 -1.27,0.626 -1.954,0.981 -2.076,1.077 -4.612,1.541 -6.959,1.319 -3.594,-0.339 -5.52,-3.905 -6.257,-7.065 -0.369,-1.588 -0.593,-3.094 -1.069,-4.649 -0.186,-0.611 -0.254,-1.762 -0.778,-2.206 -0.077,-0.064 -1.517,-0.773 -1.295,-0.111 0.55,1.656 0.335,3.708 0.286,5.504 -0.045,1.719 -1.024,3.738 -0.48,5.374 0.785,2.362 1.634,5.307 3.434,7.114 1.356,1.362 2.413,0.897 3.995,1.211 1.374,0.272 2.606,0.784 4.095,0.891 3.898,0.281 7.571,-1.885 11.462,-1.622 3.297,0.223 6.581,0.796 9.898,0.378 1.878,-0.239 3.958,-1.267 5.757,-2.514 z" /><path
     style="display:inline;overflow:visible;fill:#e1e2e3;stroke:#967348;stroke-width:0.3218"
     id="path499"
     d="m 245.284,378.301 c -6.745,1.467 -10.107,11.286 -5.941,16.778 1.032,1.357 2.848,1.809 4.221,2.714 -0.631,-0.417 -1.371,-0.654 -1.458,-1.592 -0.127,-1.345 0.469,-0.964 1.391,-1.259 2.061,-0.659 4.159,-1.106 6.225,-1.726 2.43,-0.729 3.296,-1.234 4.688,-3.394 0.829,-1.285 1.275,-2.389 1.67,-3.891 1.19,-4.514 -1.196,-7.428 -5.629,-7.862 -1.613,-0.157 -3.458,-0.139 -5.167,0.232 z" /><g
     style="display:inline;overflow:visible"
     id="PelvicGirdle"
     inkscape:label="Pelvic Girdle">
	<path
   d="m 157.196,381.135 c 0.199,0.169 0.39,0.349 0.57,0.542 3.535,3.754 1.875,10.125 7.255,11.759 2.957,0.898 5.912,1.375 8.709,2.744 3.48,1.702 6.141,4.375 9.271,6.592 2.348,1.663 13.377,10.67 15.732,6.541 1.043,0.234 2.388,-0.093 3.752,0.027 2.28,0.199 3.174,1.041 5.555,-0.107 2.817,-1.359 5.119,-3.955 7.392,-6.038 4.629,-4.237 9.468,-4.878 15.369,-6.452 2.419,-0.646 4.671,-1.069 6.544,-2.762 3.696,-3.343 2.121,-8.956 4.293,-13.266 2.5,0.996 6.271,-0.866 8.849,-1.068 2.725,-0.214 5.446,0.243 6.952,-2.654 1.635,-3.149 0.336,-9.2 4.454,-10.725 -0.08,-0.049 -0.559,-0.515 -0.633,-0.564 3.212,1.355 7.64,-2.908 9.589,-4.926 3.268,-3.378 4.523,-6.503 3.722,-11.225 -1.548,-9.115 -6.406,-18.03 -14.607,-22.886 -9.704,-5.746 -22.864,-5.493 -31.646,1.639 -6.516,5.291 -4.644,13.95 -9.639,20.022 -1.832,2.228 -2.762,3.213 -1.514,5.793 1.143,2.363 3.487,5.527 5.262,7.488 4.102,4.527 7.641,6.545 5.926,13.305 -1.148,4.529 -2.849,9.012 -5.414,12.938 -2.47,3.779 -6.064,6.138 -8.917,9.541 -2.463,2.939 -4.893,2.813 -8.512,2.142 -1.201,-0.224 -2.741,-2.114 -3.001,0.74 -1.169,0.13 -2.269,0.46 -3.46,0.358 0.026,-0.388 -0.159,-0.93 -0.118,-1.309 0.052,-0.487 -5.023,1.446 -5.354,1.438 -2.233,-0.048 -3.016,-1.743 -4.355,-3.312 -3.737,-4.38 -8.451,-7.677 -12.388,-11.85 -3.473,-3.683 -5.198,-8.105 -5.274,-13.23 -0.095,-6.407 4.682,-5.207 7.247,-9.719 1.349,-2.377 0.58,-5.573 1.397,-8.083 0.883,-2.715 2.959,-5.273 3.819,-7.946 1.153,-3.585 1.375,-7.023 -0.574,-10.451 -5.036,-8.855 -14.673,-9.916 -23.763,-10.997 -6.814,-0.812 -10.663,-0.054 -16.08,4.756 -4.441,3.944 -9.167,10.351 -11.312,15.893 -1.192,3.082 -1.542,6.186 -0.706,9.479 0.32,1.262 0.828,3.303 1.627,4.267 2.108,2.548 8.998,5.685 12.013,3.258 -0.729,0.716 -1.293,1.211 -2.319,1.448 -0.683,0.157 1.411,10.193 3.867,10.593 1.134,0.185 2.171,-1.287 2.878,-1.024 1.1,0.41 0.853,2.355 1.689,3.278 1.63,1.801 4.042,2.465 5.853,4.013 z"
   id="path517"
   style="fill:#f9ce82;stroke:#967348;stroke-width:0.3218" />
	<path
   d="m 202.148,409.921 c 0.83,-1.747 1.341,-9.106 -0.764,-10.093 -3.217,-1.509 -1.716,8.605 -1.684,10.001 0.589,0.367 2.062,0.905 2.448,0.092 z"
   id="path519"
   style="fill:#e1e2e3;stroke:#967348;stroke-width:0.2358" />
	<path
   d="m 178.25,360.635 c 1.224,2.592 -3.9,4.67 -5.642,6.169 -2.328,2.005 -2.756,3.472 -2.502,6.705 0.536,6.82 4.859,13.282 9.172,17.645 -4.631,-3.736 -7.917,-8.135 -10.264,-13.572 0.149,0.128 0.258,0.287 0.324,0.471 -0.488,-2.688 -0.806,-5.016 -0.162,-7.701 -3.791,-1.078 6.268,-6.978 5.272,-9.743 0.716,-0.231 1.652,-0.498 2.371,-0.654 0.337,0.438 0.881,0.933 1.073,1.396"
   id="path521"
   style="fill:#dcc06d" />
	<path
   d="m 224.739,359.563 c -2.252,2.46 1.188,3.956 2.494,5.713 1.569,2.116 1.974,3.851 2.153,6.445 0.382,5.443 -2.142,10.29 -3.967,15.275 3.312,-6.279 5.323,-10.667 5.102,-17.717 0.261,-0.147 0.514,-0.296 0.699,-0.411 -1.119,-3.161 -3.836,-7.091 -6.84,-8.949"
   id="path523"
   style="fill:#dcc06d" />
	<path
   d="m 148.518,363.557 c -1.305,-0.496 -1.762,-2.182 -3.166,-2.912 -1.16,-0.602 -2.061,-0.436 -2.991,-1.476 -1.068,-1.194 -0.802,-3.15 -1.997,-4.343 -1.861,-1.86 -4.72,-1.614 -5.399,-4.561 -1.751,-7.602 9.458,-16.474 15.007,-19.175 -2.819,2.566 -9.403,7.994 -8.85,12.352 0.123,-0.298 0.849,-1.042 1.023,-1.632 0.136,0.676 0.539,0.941 0.803,1.553 0.219,-0.469 0.781,-0.9 0.967,-1.318 1.386,1.173 4.07,7.57 7.138,5.303 0.798,-0.59 0.706,-2.27 0.421,-3.035 0.448,0.463 0.469,0.578 0.652,1.144 1.689,1.446 0.251,6.447 1.722,9.043 1.983,3.5 4.139,3.263 7.853,3.686 -1.718,1.983 -3.99,3.563 -5.264,5.895 -1.284,-0.216 -2.743,1.915 -2.876,3.43 -0.182,2.068 1.578,3.65 2.761,5.221 -1.367,0.429 -1.379,0.46 -0.913,1.743 -1.411,-1.975 -3.71,-3.066 -5.296,-4.832 -0.813,-0.905 -1.412,-1.282 -1.75,-2.546 -0.11,-0.412 0.334,-3.472 0.155,-3.54 z"
   id="path525"
   style="fill:#dcc06d" />
	<path
   d="m 259.069,364.569 c -1.482,-1.421 -2.124,-4.8 -0.261,-6.39 0.727,-0.618 1.896,-0.374 2.477,-0.492 2.988,-0.607 5.242,-1.657 7.124,-4.205 5.788,-7.838 -4.848,-21.924 -11.11,-25.358 1.741,2.64 4.999,4.203 6.356,7.375 0.919,2.156 2.544,7.462 0.865,9.392 -0.113,-0.477 -0.412,-0.942 -0.527,-1.419 -1.024,0.955 -1.213,2.957 -2.081,4.304 0.042,0.126 -0.654,-0.469 -0.646,-0.464 0.05,-0.273 0.253,-0.277 0.269,-0.568 -0.896,0.09 -2.604,1.634 -3.436,2.082 -1.947,1.046 -3.745,1.224 -5.366,3.227 1.738,2.043 2.226,4.088 1.681,6.687 0.041,-0.044 0.292,-0.569 0.365,-0.662 0.542,0.911 0.013,1.915 -1.02,2.654 3.984,4.376 -7.691,12.303 -3.345,16.329 -0.175,-3.955 3.063,-10.575 7.084,-11.846 -0.123,-0.176 -0.183,-0.371 -0.178,-0.585 0.6,0.267 0.811,-0.043 1.425,0.529 -0.67,-1.045 -0.841,-2.294 -0.392,-3.452"
   id="path527"
   style="fill:#dcc06d" />
	<path
   d="m 249.318,332.465 c -1.109,0.285 -2.578,-0.045 -3.793,0.257 -1.386,0.344 -2.911,1.114 -4.228,1.694 -2.935,1.296 -5.737,2.979 -7.978,5.301 -2.739,2.84 -5.544,8.622 -4.309,12.694 0.677,2.229 3.142,3.272 5.701,3.877 -0.657,-1.688 -2.289,-2.93 -3.037,-4.612 1.18,-0.393 0.008,-6.804 0.957,-8.875 3.09,-6.743 10.382,-8.72 16.687,-10.336 z"
   id="path529"
   style="fill:#dcc06d" />
	<path
   d="m 178.25,346.69 c -2.228,1.527 -3.823,0.682 -4.875,-1.555 -1.058,-2.254 0.608,-4.964 -0.687,-7.162 -2.408,-4.082 -8.931,-4.894 -12.95,-6.58 2.338,0.981 6.226,-0.099 8.954,0.912 3.255,1.206 6.069,3.973 6.652,7.528 -3.468,1.139 1.26,8.83 2.566,5.531 -0.118,0.805 0.019,1.685 -0.018,2.397"
   id="path531"
   style="fill:#dcc06d" />
	<path
   d="m 183.972,394.607 c 4.331,3.059 6.174,9.073 9.94,12.48 -0.217,-0.778 0.067,-1.823 0.065,-2.353 0.232,0.221 0.409,0.435 0.632,0.575 0.399,-1.206 0.937,-2.492 2.199,-2.914 -1.282,-1.171 -3.583,0.277 -5.405,-0.547 -1.984,-0.897 -3.796,-3.315 -4.929,-5.095"
   id="path533"
   style="fill:#dcc06d" />
	<path
   d="m 203.997,401.402 c 0.364,1.394 0.69,2.802 0.697,4.243 0.203,-0.75 0.73,-1.307 1.011,-1.989 0.389,0.992 0.544,2 0.493,3.062 2.681,-0.398 6.658,-6.221 8.874,-8.097 2.674,-2.264 5.424,-4.564 7.751,-7.204 -5.004,5.799 -11.414,10.207 -18.738,8.964 -0.213,0.357 -0.488,0.47 -0.804,0.662"
   id="path535"
   style="fill:#dcc06d" />
	<path
   d="m 145.709,334.531 c -6.458,4.817 -10.258,10.597 -9.592,18.908 2.307,-0.776 3.476,0.972 5.334,2.43 -0.324,-2.722 -3.407,-3.168 -4.341,-5.248 -1.752,-3.903 3.764,-11.775 6.454,-13.229"
   id="path537"
   style="fill:#ccb25c" />
	<path
   d="m 148.212,365.285 c 0.673,2.172 0.383,4.739 0.075,6.76 0.842,-0.041 1.574,-0.324 2.286,-1.03 -1.516,-1.733 -1.945,-4.917 -2.003,-7.161"
   id="path539"
   style="fill:#ccb25c" />
</g><g
     id="Coccyx"
     inkscape:label="Coccyx">
		<path
   style="fill:#f3d48c;stroke:#967348;stroke-width:0.3218"
   id="path579"
   d="m 198.249,385.062 c 0.035,0.459 -0.397,0.825 -0.323,1.323 0.032,0.217 0.688,1.32 0.961,1.183 2.043,-1.035 0.172,1.63 0.229,1.858 0.222,0.887 0.946,0.827 1.733,0.731 0.019,0.532 -0.406,0.536 -0.52,0.916 -0.411,1.379 0.876,3.818 2.551,3.194 0.629,-0.234 1.158,-1.245 1.312,-1.851 0.207,-0.806 -0.512,-1.441 -0.215,-1.991 -0.056,0.104 0.612,-0.112 0.65,-0.135 0.312,-0.188 0.523,-0.717 0.566,-1.059 0.134,-1.096 -1.901,-0.889 -1.21,-1.748 0.42,-0.523 1.28,-0.112 1.647,-0.869 0.365,-0.754 -0.328,-1.633 -1.046,-1.852 0.82,-1.04 2.236,0.639 3.091,-0.799 0.683,-1.148 1.058,-2.039 0.548,-3.191 -1.47,0.095 -3.046,0.718 -4.531,1.045 -1.61,0.356 -2.947,0.027 -4.566,0.004 -0.789,-0.011 -1.525,-0.004 -2.28,-0.134 -1.021,-0.175 -2.207,-0.839 -2.452,0.469 -0.143,0.77 0.594,2.614 1.272,3.027 0.721,0.435 1.807,-0.179 2.583,-0.121 z" />
		<path
   style="fill:#dcc06d"
   id="path581"
   d="m 201.137,392.282 c 1.157,-0.221 0.59,1.354 1.612,0.673 0.689,-0.458 0.329,-1.046 -0.392,-1.099 0.375,-0.704 -0.316,-0.979 -0.801,-1.16 0.546,0.193 1.813,0.3 1.843,-0.54 -0.604,0.044 -1.105,-0.135 -1.685,-0.154 1.101,-0.159 1.25,-0.334 1.809,-0.972 -0.047,0.02 -0.085,0.01 -0.113,-0.028 0.085,0.04 -0.07,-0.254 -0.013,-0.181 -0.438,-0.182 -0.418,-0.042 -0.537,-0.546 -1.117,0.089 -0.854,0.339 -1.194,1.29 0.047,-1.018 -0.455,-1.214 -1.179,-1.742 0.277,-0.319 1.296,-0.264 1.84,-0.393 0,-0.425 -0.033,-0.597 -0.472,-0.784 0.887,-0.206 2.274,-0.467 1.672,-1.72 -1.465,-0.081 -3.042,0.308 -4.358,-0.295 1.154,0.488 2.796,-0.179 3.967,-0.426 -0.1,-0.281 -0.047,-0.568 -0.132,-0.868 0.108,0.266 0.398,0.557 0.516,0.751 0.056,-0.125 0.145,-0.238 0.194,-0.335 1.005,0.871 1.643,-1.068 1.713,-1.757 0.279,0.809 -0.036,1.987 1.233,1.469 0.395,-0.161 1.342,-1.335 1.393,-1.766 -0.1,0.854 -0.147,1.728 -0.855,2.268 -0.826,0.628 -1.574,-0.284 -2.411,0.244 -0.96,0.605 -0.42,0.592 -0.023,1.194 1.123,1.713 -2.314,1.232 -1.324,2.963 0.482,0.018 1.247,0.232 1.331,0.836 0.096,0.703 -0.785,0.718 -1.058,1.099 -0.324,0.451 0.021,1.007 0.005,1.543 -0.02,0.625 -0.393,1.817 -1.082,1.997 -0.806,0.211 -1.793,-0.955 -1.365,-1.698" />
		<path
   style="fill:#ccb25c"
   id="path583"
   d="m 196.31,382.09 c 1.197,-0.57 1.667,0.995 2.084,1.733 -0.102,-0.57 -0.455,-1.065 -0.596,-1.575 0.672,0.129 1.161,-0.006 1.822,-0.023 -0.982,-0.004 -1.966,-0.317 -2.909,-0.269" />
		<path
   style="fill:#ccb25c"
   id="path585"
   d="m 199.93,385.174 c 1.161,-0.153 2.485,0.367 3.6,0.185 -0.009,0.17 0.079,0.438 0.049,0.607 0.751,-0.343 0.516,-0.848 -0.03,-1.058 -0.749,-0.29 -2.565,0.408 -3.35,0.536" />
		<path
   style="fill:#ccb25c"
   id="path587"
   d="m 203.282,388.125 c -0.68,-0.333 -1.728,-0.127 -2.297,0.134 0.849,0.68 2.105,-0.157 3.085,0.385 -0.073,-0.441 -0.646,-0.569 -1.056,-0.788" />
		<path
   style="fill:#ccb25c"
   id="path589"
   d="m 203.148,390.538 c -0.691,-0.091 -1.284,0.204 -1.964,0.128 0.498,0.327 1.13,0.571 1.669,0.797 0.009,-0.415 -0.081,-0.772 -0.106,-1.193" />
	</g><g
     id="Sacrum"
     inkscape:label="Sacrum">
		<path
   style="fill:#f9e3b7;stroke:#967348;stroke-width:0.3218"
   id="path593"
   d="m 215.167,346.926 c 1.5,-0.815 2.696,-2.308 3.88,-3.331 3.02,-2.604 5.527,0.485 6.585,3.407 1.543,4.255 2.068,9.056 1.016,13.488 -0.384,1.624 -0.519,3.139 -2.193,3.684 -1.364,0.445 -3.208,0.202 -4.504,0.876 -0.844,0.441 -1.559,1.667 -2.004,2.474 -1.09,1.965 -0.83,3.723 -1.532,5.721 -0.648,1.852 -1.962,3.242 -3.794,4.068 -1.685,0.76 -3.664,2.306 -5.336,2.757 -0.636,1.858 -0.444,2.571 -2.522,2.661 -1.977,0.085 -3.922,0.223 -5.864,0 -1.944,-0.223 -2.444,-0.47 -3.442,-1.976 -1.692,-2.555 -6.592,-1.052 -7.687,-4.47 -1.057,-3.294 0.097,-7.015 -2.183,-10.013 -1.32,-1.735 -3.159,-1.97 -5.163,-1.84 -1.811,0.118 -2.936,0.209 -3.538,-1.673 -1.457,-4.549 -0.792,-9.993 1.558,-14.132 1.612,-2.841 5.653,-4.695 8.422,-2.598 4.084,3.093 8.613,4.362 13.789,4.339 2.084,-0.01 4.356,-0.243 6.603,-0.696 2.816,-0.571 5.591,-1.487 7.909,-2.746 z m -23.91,14.299 c -1.82,-0.345 -3.877,0.67 -4.858,2.202 0.712,-0.672 1.684,-1.015 2.353,-1.438 -0.224,0.141 2.521,2.737 3.7,2.106 1.482,-0.794 -0.024,-2.65 -1.195,-2.87 z m 0.357,6.724 c 2.052,0.099 1.25,-1.993 -0.204,-2.34 -1.106,-0.262 -2.888,0.72 -3.858,0.49 1.401,0.331 2.622,1.78 4.062,1.85 z m 1.041,2.746 c -0.884,-0.457 -2.435,-1.227 -3.405,-0.806 1.192,0.512 3.046,3.983 4.506,3.234 2.693,-1.381 -3.113,-3.422 -3.946,-3.377 m 3.799,5.882 c -0.052,-1.811 -3.031,-1.752 -2.012,0.106 0.487,0.888 2.051,1.28 2.012,-0.106 z m 18.599,-11.763 c 0.687,-0.785 1.574,-1.18 2.342,-1.871 0.708,0.465 1.792,1.19 2.693,1.613 -0.39,-0.307 -1.058,-0.996 -1.536,-1.257 -1.269,-0.691 -3.737,-1.749 -5.198,-0.959 -0.748,0.404 -1.503,1.585 -0.875,2.415 0.8,1.055 2.615,-0.05 3.522,-0.32 m 1.879,2.613 c -0.97,0.229 -2.751,-0.752 -3.858,-0.49 -1.452,0.347 -2.254,2.439 -0.202,2.34 1.439,-0.07 2.661,-1.519 4.06,-1.85 z m -2.257,3.648 c -0.834,-0.045 -6.639,1.996 -3.946,3.377 1.459,0.749 3.312,-2.722 4.504,-3.234 -0.97,-0.421 -2.521,0.349 -3.404,0.806 m 1.059,5.038 c 1.02,-1.858 -1.96,-1.917 -2.011,-0.106 -0.041,1.386 1.522,0.994 2.011,0.106 z" />
		<g
   id="g595">
			<path
   style="fill:#dcc06d"
   id="path597"
   d="m 191.233,359.975 c 0.61,-0.203 1.098,-0.382 1.489,-1.039 0.187,-0.316 0.626,-2.252 0.446,-2.54 0.563,0.899 -0.029,2.183 0.663,3.033 0.733,0.905 2.605,0.91 3.659,1.03 1.766,0.204 6.225,0.952 6.487,-1.795 -0.01,0.634 -0.015,1.274 0.028,1.908 3.161,0.616 1.735,-3.181 0.768,-2.267 -0.062,-0.134 -0.196,-0.733 -0.203,-0.845 1.453,-0.023 2.908,-1.089 4.322,-1.574 -0.431,1.042 -3.27,1.188 -2.453,2.556 0.039,-0.097 0.151,-0.358 0.201,-0.436 0,0.593 0.213,1.161 0.601,1.616 0.909,-0.287 0.352,-1.087 0.384,-1.853 0.101,0.938 0.958,1.276 1.821,1.478 0.192,0.046 0.35,-2.604 0.438,-2.821 0.312,-0.771 1.137,-1.321 1.617,-2.031 -0.521,0.771 -1.209,2.255 -1.229,3.188 -0.04,1.751 1.182,1.779 2.636,2.215 1.943,0.581 5.038,1.507 5.851,3.566 -0.803,-0.217 -1.506,-0.649 -2.183,-1.075 0.71,0.827 1.44,1.838 1.943,2.848 -1.497,-0.774 -2.519,-2.538 -4.065,-3.294 -1.156,-0.567 -3.79,-1.207 -5.063,-0.563 -1.865,0.944 -0.173,2.329 -0.6,3.537 1.821,2.136 6.398,-1.208 7.833,1.835 -1.393,-0.627 -2.726,-1.053 -4.244,-1.123 -0.981,-0.045 -4.372,0.934 -2.163,2.142 -0.102,0.098 -0.245,0.372 -0.335,0.476 0.561,0.171 0.781,0.571 0.563,1.11 1.209,-0.172 2.988,-0.544 4.112,0.072 1.811,0.995 0.025,1.826 0.569,2.632 -0.934,-1.384 -2.097,-2.645 -3.935,-2.399 -1.073,0.144 -3.649,1.417 -3.226,2.819 0.331,1.076 1.898,0.749 2.79,0.981 0.591,0.153 2.803,1.589 3.208,1.467 -0.499,0.149 -0.945,0.395 -1.307,0.73 -1.011,-1.487 -5.899,-2.139 -5.311,0.652 0.425,2.008 3.311,1.985 4.624,0.972 -1.602,1.236 -3.504,1.755 -5.105,2.883 -0.143,-0.009 -0.211,-0.1 -0.384,-0.091 -0.254,0.61 -0.294,1.343 -0.256,1.992 -1.374,-0.398 -1.133,-3.366 -0.749,-4.452 -0.598,-0.112 -1.029,0.138 -1.167,0.716 -0.062,-0.089 -0.122,-0.172 -0.181,-0.348 -0.147,0.228 -0.561,0.562 -0.683,0.93 0.063,-0.445 -0.032,-0.919 0.082,-1.341 -1.565,-0.006 -4.834,0.754 -6.057,-0.299 -0.102,0.472 -0.203,1.039 -0.277,1.541 -0.367,-0.646 -0.21,-1.409 -0.27,-2.147 -0.527,-0.138 -0.954,-0.474 -1.234,-0.954 1.801,0.684 3.709,1.494 5.858,1.166 1.182,-0.18 3.003,-0.283 3.915,-1.16 0.518,-0.498 0.755,-0.853 0.631,-1.594 -0.109,-0.645 -1.543,-1.471 -1.519,-1.251 0.066,0.573 -0.02,1.107 -0.367,1.466 -0.853,-2.904 -6.194,-1.199 -8.504,-2.057 0.375,-1.895 -6.348,-3.118 -7.306,-2.845 2.806,-1.952 4.815,0.776 7.368,1.138 -0.247,-0.813 -0.406,-1.718 -0.284,-2.623 0.283,1.105 0.475,2.707 1.276,3.4 0.123,-0.188 0.334,-0.352 0.52,-0.471 1.179,1.27 2.803,1.343 4.448,1.238 0.59,-0.037 6.21,-1.703 6.022,-1.976 -0.618,-0.896 -0.778,-2.191 -0.189,-3.148 -0.518,0.254 -1.124,0.217 -1.28,-0.38 0.168,0.015 0.451,-0.021 0.631,-0.029 -0.149,0.025 -0.294,0.014 -0.435,-0.037 -0.032,-0.105 -0.062,-0.212 -0.087,-0.319 -0.066,-0.073 -0.06,-0.07 0.018,0.01 -2.735,0.565 -6.935,2.262 -9.759,0.327 0.047,0.044 0.095,0.085 0.145,0.125 -1.639,-0.822 -4.018,-1.288 -5.851,-1.05 0.94,-0.122 3.159,-0.08 3.947,-0.471 1.125,-0.56 0.449,-1.334 0.889,-2.369 -0.001,0.879 0.064,2.18 1.006,2.455 0.794,0.231 1.17,-0.126 0.977,-1.083 0.587,2.895 3.496,2.1 5.785,1.8 0.99,-0.129 2.355,-0.504 3.017,-1.316 1.021,-1.249 -0.194,-2.268 0.433,-3.55 -4.271,1.425 -8.556,-0.289 -12.813,-0.604 -3.329,-0.246 -6.608,0.965 -9.134,3.164 -0.118,-0.187 -0.152,-0.301 -0.226,-0.505 1.628,-1.528 3.902,-2.194 5.952,-2.934 0.161,-0.058 0.315,-0.107 0.461,-0.155 z" />
			<path
   style="fill:#dcc06d"
   id="path599"
   d="m 223.329,345.422 c -1.356,0.928 -2.452,2.159 -3.787,3.083 -0.813,0.562 -1.884,0.863 -2.647,1.249 1.544,-0.401 4.882,-1.352 5.677,-2.737 0.096,0.189 0.267,0.779 0.312,1.021 -0.984,0.718 -2.175,1.007 -3.112,1.766 1.278,-0.079 2.709,-0.815 3.871,-1.363 -0.431,0.216 -0.771,0.601 -1.056,0.933 0.851,-0.011 1.527,-0.628 2.285,-0.037 -0.992,-1.69 -1.103,-4.93 -3.434,-5.412 -0.352,0.374 -0.715,0.74 -1.086,1.095 0.322,-0.165 0.873,-0.233 1.244,-0.48 0.064,0.136 0.042,0.328 0.055,0.477 0.597,-0.066 0.971,0.207 1.111,0.786" />
			<path
   style="fill:#dcc06d"
   id="path601"
   d="m 178.743,353.391 c 0.23,-2.4 2.187,-5.14 4.226,-6.404 2.635,-1.632 4.163,0.401 6.72,1.669 -1.375,0.019 -3,-0.955 -4.229,-1.503 0.099,0.151 0.184,0.389 0.274,0.517 -0.974,-0.644 -2.626,-0.26 -2.447,1.177 0.183,1.475 2.69,2.532 3.935,2.65 -1.681,-0.288 -3.21,-0.948 -4.604,-1.874 0.023,0.101 0.066,0.192 0.127,0.274 -1.756,-0.124 -3,1.363 -3.49,2.878 -0.358,1.11 -0.436,1.473 -1.081,2.513 -0.587,0.946 -1.345,2.024 -0.75,3.167 -0.104,-2.166 0.123,-3.951 1.508,-5.824" />
			<path
   style="fill:#dcc06d"
   id="path603"
   d="m 225.608,353.581 c -1.009,0.938 0.211,2.939 0.189,4.221 -0.02,1.077 -0.203,2.714 -0.536,3.438 1.105,-1.994 1.592,-5.614 0.347,-7.659" />
			<path
   style="fill:#dcc06d"
   id="path605"
   d="m 185.953,364.965 c 0.479,0.251 1.037,0.469 1.519,0.674 0.832,-0.233 1.756,-0.425 2.598,-0.679 -0.833,-0.274 -3.11,-0.673 -3.737,0.005" />
			<path
   style="fill:#dcc06d"
   id="path607"
   d="m 188.419,374.072 c 0.81,0.159 1.306,0.812 2.049,0.924 0.366,-0.781 1.22,-1.229 2.068,-1.157 -1.019,-0.571 -3.07,-0.668 -3.927,0.232" />
			<path
   style="fill:#dcc06d"
   id="path609"
   d="m 178.743,361.929 c -0.024,0.71 0.239,1.335 0.758,1.735 0.598,-0.729 2.179,-0.305 2.999,-0.046 1.014,-2.336 4.876,-3.3 6.853,-4.46 -1.482,0.761 -3.209,1.322 -4.769,2.054 -1.22,0.572 -2.311,1.51 -3.739,1.263 0.22,-0.565 0.7,-0.932 1.247,-1.276 -0.928,0.634 -2.974,1.371 -3.704,0.161 0.014,0.545 0.278,1.035 0.734,1.328" />
			<path
   style="fill:#dcc06d"
   id="path611"
   d="m 197.526,357.565 c 1.2,0.896 3.418,0.618 4.728,0.337 -1.148,-0.595 -3.123,-0.337 -4.538,-0.337" />
			<path
   style="fill:#ccb25c"
   id="path613"
   d="m 191.456,364.016 c 2.662,1.629 3.586,-1.413 1.198,-2.41 0.593,0.988 1.122,2.514 -0.44,2.79" />
			<path
   style="fill:#ccb25c"
   id="path615"
   d="m 209.671,361.359 c -2.088,1.331 -0.469,4.63 0.74,3.074 -1.314,-0.048 -1.434,-1.622 -0.74,-2.504" />
			<path
   style="fill:#ccb25c"
   id="path617"
   d="m 202.649,371.795 c 1.058,0.353 5.347,0.566 4.706,-1.503 -0.096,0.171 -0.448,0.474 -0.578,0.716 -0.714,0.033 -1.955,0.44 -2.846,0.55 -0.941,0.116 -2.232,0.121 -3.179,0.427" />
			<path
   style="fill:#ccb25c"
   id="path619"
   d="m 202.838,367.052 c 1.547,0.089 3.989,-0.302 5.295,-1.139 -0.028,-0.188 -0.09,-0.707 -0.162,-0.892 -0.299,2.442 -6.78,1.578 -8.485,1.642 1.115,0.41 2.322,0.384 3.542,0.389" />
			<path
   style="fill:#ccb25c"
   id="path621"
   d="m 201.321,361.359 c 0.806,-0.362 7.554,0.212 6.503,-1.84 -0.154,0.367 -0.488,0.537 -0.678,0.826 -0.075,-0.146 -0.1,-0.285 -0.169,-0.438 -1.689,1.756 -5.612,1.234 -7.772,0.855 -0.162,0.099 -0.152,0.234 0.029,0.409" />
			<path
   style="fill:#ccb25c"
   id="path623"
   d="m 212.896,349.786 c 0.015,0.615 0.155,0.91 0.032,1.487 1.646,-2.25 4.831,-3.543 7.309,-4.72 -1.036,0.172 -2.163,0.703 -3.148,0.734 0.567,-1.156 3.25,-2.949 4.51,-3.225 -0.087,-0.325 -0.311,-0.683 -0.597,-0.891 -1.508,1.325 -3.449,2.256 -5.029,3.59 -1.169,0.988 -2.489,1.936 -3.784,2.434 0.122,0.39 0.369,0.568 0.706,0.782" />
			<path
   style="fill:#ccb25c"
   id="path625"
   d="m 184.624,346.75 c -0.718,-0.343 -1.431,-0.203 -1.877,0.332 1.735,0.979 3.578,1.628 5.425,2.295 -0.415,-0.448 -0.909,-0.96 -1.486,-1.233 1.108,1.281 3.473,1.99 5.13,2.33 -0.004,-0.283 -0.119,-0.937 -0.201,-1.229 -2.537,-0.147 -5.204,-1.959 -7.587,-2.685 -0.258,-0.342 0.068,-0.094 0.218,-0.189" />
			<path
   style="fill:#ccb25c"
   id="path627"
   d="m 203.598,377.107 c 0.861,-0.188 1.675,-0.57 2.449,-0.929 -0.358,0.943 -0.177,2.138 -0.168,3.154 -0.1,-0.477 -0.164,-1.622 -0.422,-1.996 -0.408,-0.595 -0.971,0.047 -1.289,-0.607" />
		</g>
	</g><g
     style="display:inline;overflow:visible"
     id="FibulaLeft"
     inkscape:label="Fibula">
	<path
   d="m 239.479,620.989 c 0.32,-2.339 1.032,-4.147 2.628,-3.819 -0.802,0.25 -1.896,0.217 -2.711,0.24 0.457,-4.05 3.922,-10.868 7.996,-12.251 0.132,2.17 1.621,4.253 2.106,6.436 0.617,2.765 -0.616,4.242 -1.646,6.7 -0.388,-0.036 -0.919,0.127 -1.315,0.09 0.486,10.516 -0.643,22.194 -3.217,32.509 -3.254,13.059 -3.023,26.284 -5.148,39.544 -1.133,7.077 -1.627,14.337 -3.131,21.347 -1.192,5.563 -2.641,11.135 -2.585,16.823 0.045,4.863 0.908,10.024 0.401,14.862 -0.466,4.42 -0.457,7.957 0.771,12.402 0.663,2.389 0.288,3.968 -0.454,6.636 -1.301,0.087 -4.823,-1.73 -5.975,-2.579 -1.755,-1.293 -2.2,-2.598 -2.413,-5.026 -0.493,-5.579 1.609,-10.966 1.049,-16.398 -0.488,-4.73 0.568,-9.283 1.004,-13.972 0.448,-4.815 1.052,-9.781 1.383,-14.548 0.332,-4.774 1.09,-9.371 1.692,-14.078 1.019,-7.934 1.896,-15.317 3.612,-23.156 1.822,-8.333 3.23,-16.77 3.873,-25.281 0.452,-6.029 0.928,-12.188 1.723,-18.207 0.431,-3.277 -0.87,-9.502 2.257,-11.855 -3.643,-0.252 -1.864,-5.463 -0.828,-7.421 1.229,-2.324 3.543,-8.478 6.169,-4.93 -0.288,0.059 -0.514,-0.05 -0.679,-0.326"
   id="path2361"
   style="fill:#f3d48c;stroke:#967348;stroke-width:0.3218" />
	<path
   d="m 245.246,608.648 c 1.841,1.253 2.214,3.894 1.345,5.723 -0.34,-0.118 -0.71,-0.179 -1.04,-0.316 0.308,1.746 -1.047,2.318 -2.484,2.42 2.686,-0.189 3.893,1.978 5.381,-1.77 1.167,-2.936 0.067,-6.576 -2.339,-8.507 -0.502,0.677 -1.187,1.369 -1.57,2.078"
   id="path2363"
   style="fill:#dcc06d" />
	<path
   d="m 239.742,633.574 c -0.356,3.858 1.18,7.68 0.505,11.449 -0.569,3.177 -1.772,6.382 -2.353,9.516 -0.18,-3.416 0.683,-6.925 0.931,-10.321 0.238,-3.333 -0.85,-8.415 0.573,-11.365"
   id="path2365"
   style="fill:#dcc06d" />
	<path
   d="m 235.934,698.951 c -2.479,8.86 -4.408,18.07 -5.467,27.082 -0.902,7.677 0.007,17.327 -2.751,24.508 1.099,-2.736 1.642,-4.008 2.916,-0.914 1.162,2.823 1.501,6.299 2.336,9.251 -1.688,-12.006 -1.734,-24.415 0.002,-36.379 0.645,-4.451 1.625,-8.771 2.479,-13.186 0.692,-3.575 2.856,-11.189 0.558,-14.523 -0.834,2.981 -1.106,6.402 -1.61,9.497"
   id="path2367"
   style="fill:#dcc06d" />
</g><g
     style="display:inline;overflow:visible"
     id="TibiaLeft"
     inkscape:label="Tibia">
	<path
   d="m 247.396,590.918 c 1.194,2.572 0.136,7.183 -0.025,9.96 -0.223,3.766 -2.095,6.443 -4.438,9.281 -2.739,3.316 -4.989,8.335 -6.595,12.377 -4.545,11.44 -5.179,25.412 -5.215,37.604 -0.019,6.396 -0.557,12.959 -1.23,19.277 -0.666,6.246 -2.214,12.071 -3.351,18.229 -2.713,14.721 -1.624,29.661 -2.05,44.531 -0.128,4.469 1.793,10.134 0.575,14.4 -0.476,1.66 -1.571,2.433 -2.908,3.438 -1.408,1.057 -2.587,2.987 -4.065,3.795 -1.713,0.939 -4.025,0.256 -5.96,0.459 -2.184,0.228 -3.888,1.412 -5.646,2.675 -2.301,1.651 -3.944,2.373 -4.756,-0.987 -0.784,-3.241 -1.25,-7.284 -0.58,-10.538 0.942,-4.573 2.821,-8.881 4.272,-13.301 2.762,-8.415 3.265,-18.039 4.372,-26.832 0.832,-6.607 -0.136,-13.575 0.318,-20.268 0.316,-4.621 0.923,-9.232 1.171,-13.912 0.533,-10.097 1.751,-20.108 1.32,-30.145 -0.672,-15.709 -4.091,-30.688 -6.825,-46.076 -0.452,-2.555 0.124,-3.852 0.693,-6.191 0.41,-1.682 0.29,-1.378 0.104,-3.137 -0.19,-1.79 -1.222,-1.783 0.313,-3.564 3.468,-4.024 10.176,-0.524 14.103,0.474 4.088,1.04 9.369,1.403 13.607,1.186 1.261,-0.066 12.406,-3.571 12.796,-2.735 z"
   id="path2371"
   style="fill:#f3d48c;stroke:#967348;stroke-width:0.3218" />
	<path
   d="m 211.166,617.417 c -1.101,-2.666 -7.037,-14.613 -3.871,-17.234 1.491,-1.234 5.564,1.672 6.622,3.008 -1.932,-2.44 -4.737,-4.724 -5.411,-7.913 -1.016,-4.8 2.6,-2.743 5.611,-2.058 4.157,0.946 8.872,1.294 12.694,3.538 -2.94,-0.297 -6.069,-1.712 -9.088,-1.756 0.1,1.878 3.99,3.729 5.443,4.56 2.646,1.51 5.323,2.116 8.309,2.634 2.313,0.401 6.094,0.361 7.815,2.126 -1.426,2.203 -4.01,3.44 -6.552,3.608 -1.423,0.095 -6.589,-0.074 -7.327,-1.346 1.912,3.287 2.127,8.797 -2.435,3.889 -0.301,1.35 0.678,1.596 0.727,2.679 0.085,1.869 -0.165,1.075 -0.932,2.936 -1.508,3.647 -2.124,9.366 -1.764,12.959 -0.75,-3.776 -0.814,-7.336 -0.98,-10.82 -0.154,-3.241 -2.858,-7.513 -5.642,-8.973 0.158,0.357 0.362,0.75 0.544,1.117 -1.496,-2.124 -3.515,-4.577 -5.891,-5.726 0.458,1.964 9.058,10.919 6.371,11.82 0.576,1.868 -0.041,4.869 0.164,6.717 0.329,2.99 1.598,6.254 2.161,9.297 2.061,11.071 0.286,22.722 0.806,33.987 0.29,6.305 0.198,12.94 -0.194,19.318 -0.527,8.603 -2.66,17.87 -1.757,26.427 1.015,9.627 -1.457,17.876 -3.494,27.114 -1.053,4.776 -7.266,16.174 -1.787,20.372 0.774,-0.929 1.798,-1.374 2.711,-0.763 0.403,-1.686 0.766,-3.703 1.011,-5.48 0.182,2.521 1.094,3.594 -0.384,5.612 -0.906,1.234 -4.458,4.635 -5.713,4.913 0.396,-0.088 -0.41,-13.19 -4.559,-10.752 -0.798,-5.158 2.054,-12.478 3.541,-17.459 1.264,-4.242 3.476,-8.335 3.79,-12.749 0.719,-10.144 0.849,-20.107 1.566,-30.222 0.859,-12.152 1.318,-24.03 1.429,-36.296 0.071,-7.577 -0.041,-15.346 -0.619,-22.889 -0.384,-5.018 -0.992,-11.533 -2.915,-16.195 z"
   id="path2373"
   style="fill:#dcc06d" />
	<path
   d="m 228.17,625.423 c 0.094,-0.593 0.354,-0.867 0.774,-0.824 0.175,5.464 -1.445,12.665 -3.781,17.532 0.101,-3.05 0.222,-5.862 0.723,-8.885 0.318,-1.912 1.596,-5.871 1.15,-7.777 -0.52,-2.219 -3.39,-2.637 -2.686,-5.417 0.77,1.154 2.54,3.998 4.474,3.901 1.604,-0.083 1.723,-3.031 4.04,-1.024 0.196,-0.486 0.646,-1.106 0.736,-1.662 -1.224,3.759 -1.506,7.938 -2.999,11.588 0.147,-2.776 1.911,-6.759 0.085,-9.199"
   id="path2375"
   style="fill:#dcc06d" />
	<path
   d="m 209.048,597.644 c -0.742,-0.613 -2.246,-3.149 -1.926,-4.183 0.676,-2.194 1.254,-0.525 2.589,-1.087 -3.698,1.556 4.563,6.573 5.652,7.883 -1.007,-0.821 -3.012,-1.09 -3.302,0.638 -0.296,1.771 2.467,3.317 3.641,4.11 1.828,1.232 2.703,2.437 4.253,3.795 -3.287,-2.877 -6.704,-5.587 -10.408,-7.803 0.117,0.2 0.175,0.416 0.169,0.647 -0.676,-0.711 -1.555,-0.769 -2.391,-1.001 -0.154,0.53 -0.427,1.071 -0.448,1.62 0.243,-1.664 0.772,-3.649 2.171,-4.619 z"
   id="path2377"
   style="fill:#ccb25c" />
	<path
   d="m 214.039,696.121 c -0.1,6.913 -1.096,13.762 -1.581,20.643 -0.414,5.897 -2.32,11.46 -2.999,17.117 1.015,-8.567 2.275,-16.987 2.342,-25.628 0.03,-4.106 -0.968,-11.771 1.455,-15.001 0.595,1.584 0.486,3.324 0.41,5.011"
   id="path2379"
   style="fill:#ccb25c" />
	<path
   d="m 212.115,760.475 c -2.163,0.181 -3.679,1.86 -4.969,3.168 -0.109,-1.664 0.653,-4.997 -0.371,-6.453 -1.758,-2.507 -2.334,0.208 -2.223,2.124 -3.398,-1.989 -0.875,-8.508 1.233,-10.6 1.482,4.088 1.393,9.872 5.249,12.825"
   id="path2381"
   style="fill:#ccb25c" />
	<path
   d="m 221.487,750.892 c 0.793,2.66 3.252,7.788 -1.444,6.738 0.975,-2.319 1.455,-4.265 0.371,-6.747"
   id="path2383"
   style="fill:#ccb25c" />
	<path
   d="m 212.307,630.974 c -0.126,-1.604 -0.33,-3.175 -0.671,-4.683 -0.6,-2.662 -2.154,-5.069 -2.523,-7.756 -0.237,-1.746 0.041,-3.646 -0.175,-5.446 -0.181,-1.513 -0.471,-8.814 -2.447,-9.286 0.434,0.102 1.344,0.658 1.698,0.985 -3.459,4.85 3.21,10.267 4.46,14.569 1.804,6.22 1.068,12.811 1.736,19.173 1.079,10.293 0.334,20.746 0.217,31.03 0.075,-7.84 -0.783,-15.643 -1.695,-23.42 -0.57,-4.849 -0.205,-10.175 -0.6,-15.166 z"
   id="path2385"
   style="fill:#ccb25c" />
</g><g
     style="display:inline;overflow:visible"
     id="PatellaRight"
     inkscape:label="Patella">
	<path
   d="m 180.755,584.773 c -4.698,-4.028 -9.615,-5.254 -14.558,-1.356 -1.465,1.155 -4.251,2.186 -5.231,3.629 -0.95,1.399 -1.549,4.478 -1.4,6.115 0.232,2.555 2.67,4.852 4.285,6.765 1.458,1.726 3.382,4.255 5.633,4.773 5.525,1.275 10.236,-2.619 12.677,-6.985 1.258,-2.249 2.46,-3.595 2.602,-6.161 0.16,-2.901 -1.641,-4.749 -4.008,-6.78 z"
   id="path2389"
   style="fill:#f3d48c;stroke:#967348;stroke-width:0.3218" />
	<path
   d="m 175.25,603.838 c -7.515,3.753 -17.199,-11.348 -11.633,-13.121 -0.336,1.554 1.834,4.828 3.458,2.993 1.174,-1.329 -1.719,-3.062 -2.41,-3.794 0.286,-0.25 0.799,-0.436 1.205,-0.489 0.964,2.899 5.335,1.224 2.04,-1.098 0.871,-0.581 4.408,1.568 5.778,1.811 2.074,0.362 4.733,0.88 5.947,-1.276 -0.543,-0.492 -1.174,-1.217 -1.562,-1.89 2.196,-0.887 3.78,0.51 5.511,2.179 1.89,1.821 1.446,3.188 0.317,5.553 -1.67,3.492 -5.159,7.388 -8.651,9.132 z"
   id="path2391"
   style="fill:#dcc06d" />
	<path
   d="m 169.758,603.084 c 2.161,1.094 6.984,-1.682 5.921,-4.213 1.093,-0.837 2.089,-1.917 3.138,-2.734 0.082,0.277 0.23,0.52 0.308,0.759 3.321,-0.715 -0.067,-3.609 -1.216,-4.525 0.116,-0.733 0.268,-1.405 0.477,-2.12 3.839,-0.048 1.33,-3.376 0.148,-4.565 -0.542,0.21 -1.018,0.074 -1.599,0.194 0.044,-0.136 0.501,-1.085 0.574,-1.213 2.221,1.585 6.162,3.575 5.871,6.881 -0.371,4.229 -3.339,8.16 -6.596,10.464 -4.251,3.007 -9.122,3.666 -11.559,-2.092 2.688,-0.91 2.921,4.448 6.141,2.628"
   id="path2393"
   style="fill:#ccb25c" />
</g><g
     style="display:inline;overflow:visible"
     id="PatellaLeft"
     inkscape:label="Patella">
	<path
   d="m 237.796,584.717 c -4.699,-4.028 -9.614,-5.254 -14.559,-1.356 -1.462,1.155 -4.251,2.186 -5.229,3.629 -0.952,1.399 -1.55,4.478 -1.401,6.115 0.233,2.555 2.671,4.852 4.285,6.765 1.459,1.726 3.383,4.255 5.634,4.773 5.525,1.275 10.234,-2.619 12.677,-6.985 1.258,-2.249 2.461,-3.595 2.603,-6.161 0.157,-2.902 -1.644,-4.75 -4.01,-6.78 z"
   id="path2397"
   style="fill:#f3d48c;stroke:#967348;stroke-width:0.3218" />
	<path
   d="m 232.29,603.781 c -7.515,3.753 -17.197,-11.348 -11.633,-13.121 -0.335,1.554 1.834,4.829 3.457,2.993 1.176,-1.329 -1.719,-3.062 -2.41,-3.794 0.286,-0.25 0.8,-0.436 1.205,-0.488 0.965,2.898 5.337,1.223 2.041,-1.099 0.869,-0.581 4.406,1.568 5.778,1.811 2.073,0.362 4.732,0.88 5.946,-1.276 -0.544,-0.492 -1.176,-1.217 -1.562,-1.889 2.194,-0.887 3.779,0.509 5.512,2.178 1.89,1.821 1.444,3.188 0.315,5.553 -1.669,3.493 -5.156,7.389 -8.649,9.132 z"
   id="path2399"
   style="fill:#dcc06d" />
	<path
   d="m 226.799,603.027 c 2.16,1.094 6.982,-1.682 5.921,-4.212 1.094,-0.838 2.09,-1.918 3.137,-2.734 0.083,0.276 0.23,0.519 0.31,0.758 3.32,-0.715 -0.067,-3.609 -1.215,-4.525 0.115,-0.733 0.266,-1.404 0.475,-2.12 3.84,-0.048 1.329,-3.376 0.147,-4.565 -0.542,0.21 -1.018,0.074 -1.598,0.194 0.043,-0.136 0.502,-1.085 0.574,-1.213 2.22,1.585 6.162,3.575 5.871,6.881 -0.373,4.229 -3.34,8.16 -6.597,10.464 -4.25,3.007 -9.122,3.666 -11.558,-2.091 2.687,-0.911 2.92,4.447 6.14,2.627"
   id="path2401"
   style="fill:#ccb25c" />
</g></g></svg>
