<?xml version="1.0" encoding="UTF-8" standalone="no"?>
<!-- Generator: Adobe Illustrator 12.0.0, SVG Export Plug-In . SVG Version: 6.00 Build 51448)  -->

<svg
   version="1.0"
   id="Layer_1"
   width="435.68701"
   height="841.89001"
   viewBox="0 0 435.687 841.89"
   overflow="visible"
   enable-background="new 0 0 435.687 841.89"
   xml:space="preserve"
   sodipodi:version="0.32"
   inkscape:version="1.4.2 (f4327f4, 2025-05-13)"
   sodipodi:docname="lower_bones_tibia.svg"
   inkscape:output_extension="org.inkscape.output.svg.inkscape"
   style="overflow: visible; display: inline;"
   xmlns:inkscape="http://www.inkscape.org/namespaces/inkscape"
   xmlns:sodipodi="http://sodipodi.sourceforge.net/DTD/sodipodi-0.dtd"
   xmlns="http://www.w3.org/2000/svg"
   xmlns:svg="http://www.w3.org/2000/svg"
   xmlns:rdf="http://www.w3.org/1999/02/22-rdf-syntax-ns#"
   xmlns:cc="http://creativecommons.org/ns#"
   xmlns:dc="http://purl.org/dc/elements/1.1/"><metadata
   id="metadata3098"><rdf:RDF><cc:Work
       rdf:about=""><dc:format>image/svg+xml</dc:format><dc:type
         rdf:resource="http://purl.org/dc/dcmitype/StillImage" /></cc:Work><cc:Work
       rdf:about=""><dc:format>image/svg+xml</dc:format><dc:type
         rdf:resource="http://purl.org/dc/dcmitype/StillImage" /></cc:Work></rdf:RDF></metadata><defs
   id="defs3096"><inkscape:perspective
   sodipodi:type="inkscape:persp3d"
   inkscape:vp_x="0 : 420.94501 : 1"
   inkscape:vp_y="0 : 1000 : 0"
   inkscape:vp_z="435.68701 : 420.94501 : 1"
   inkscape:persp3d-origin="217.84351 : 280.63 : 1"
   id="perspective3100" />
		
		
		
		
	
		
		
	
		
		
		
		
		
	
	
	

		
		
		
	
			
			
		
				
				
				
				
				
			
	
	
</defs>
<sodipodi:namedview
   inkscape:window-height="1369"
   inkscape:window-width="2560"
   inkscape:pageshadow="2"
   inkscape:pageopacity="0.0"
   guidetolerance="10.0"
   gridtolerance="10.0"
   objecttolerance="10.0"
   borderopacity="1.0"
   bordercolor="#666666"
   pagecolor="#ffffff"
   id="base"
   showgrid="false"
   inkscape:zoom="1.9049022"
   inkscape:cx="217.85895"
   inkscape:cy="487.95156"
   inkscape:window-x="-8"
   inkscape:window-y="-8"
   inkscape:current-layer="layer3"
   showguides="true"
   inkscape:guide-bbox="true"
   inkscape:showpageshadow="2"
   inkscape:pagecheckerboard="0"
   inkscape:deskcolor="#d1d1d1"
   inkscape:window-maximized="1" />
<g
   inkscape:groupmode="layer"
   id="layer3"
   inkscape:label="Skeleton"
   style="display: inline;"><g
     style="overflow: visible; display: inline;"
     id="TibiaRight"
     inkscape:label="Tibia">
	<path
   d="M 153.748,591.677 C 152.535,594.24 153.555,598.859 153.697,601.636 C 153.89,605.405 155.741,608.095 158.064,610.951 C 160.777,614.289 162.988,619.325 164.563,623.378 C 169.02,634.854 169.546,648.828 169.489,661.022 C 169.459,667.419 169.947,673.985 170.572,680.309 C 171.189,686.559 172.694,692.396 173.781,698.564 C 176.382,713.305 175.178,728.235 175.489,743.113 C 175.605,748.694 172.262,754.193 174.247,759.73 C 175.81,764.092 182.12,764.281 185.85,766.134 C 187.33,766.869 188.145,768.487 189.933,768.776 C 194.769,769.554 196.992,762.769 197.739,759.255 C 198.745,754.52 195.964,750.64 194.78,746.14 C 194.202,743.944 194.356,741.921 194.123,739.765 C 193.824,736.994 192.693,734.291 191.997,731.58 C 190.436,725.504 189.428,719.261 189.516,712.972 C 189.595,707.363 190.569,701.669 190.229,696.064 C 189.949,691.438 189.378,686.824 189.167,682.143 C 188.71,672.041 187.569,662.022 188.076,651.988 C 188.869,636.285 192.403,621.334 195.255,605.965 C 195.729,603.416 195.161,602.113 194.609,599.77 C 194.212,598.085 194.33,598.391 194.53,596.632 C 194.734,594.845 195.764,594.859 194.242,593.065 C 190.805,589.015 184.07,592.462 180.136,593.432 C 176.041,594.44 170.757,594.763 166.521,594.512 C 165.261,594.435 154.143,590.842 153.748,591.677 z"
   id="path431"
   style="fill: rgb(243, 212, 140); stroke: rgb(150, 115, 72); stroke-width: 0.3218;" />
	<path
   d="M 189.774,618.452 C 190.895,615.797 196.921,603.894 193.777,601.249 C 192.295,600.002 188.2,602.877 187.131,604.205 C 189.082,601.779 191.903,599.518 192.603,596.334 C 193.656,591.542 190.025,593.571 187.006,594.233 C 182.843,595.146 178.124,595.46 174.285,597.675 C 177.23,597.399 180.368,596.007 183.386,595.987 C 183.273,597.865 179.368,599.687 177.907,600.505 C 175.25,601.996 172.568,602.581 169.579,603.075 C 167.265,603.458 163.483,603.389 161.749,605.141 C 163.156,607.355 165.729,608.612 168.271,608.8 C 169.694,608.905 174.86,608.776 175.61,607.509 C 173.672,610.782 173.415,616.289 178.014,611.417 C 178.305,612.769 177.324,613.008 177.266,614.091 C 177.167,615.958 177.421,615.166 178.176,617.033 C 179.655,620.692 180.228,626.416 179.84,630.003 C 180.62,626.234 180.71,622.675 180.903,619.193 C 181.083,615.952 183.819,611.701 186.613,610.264 C 186.453,610.62 186.246,611.009 186.061,611.375 C 187.572,609.263 189.611,606.825 191.995,605.695 C 191.523,607.655 182.855,616.543 185.536,617.466 C 184.945,619.327 185.54,622.335 185.322,624.182 C 184.969,627.168 183.676,630.423 183.087,633.46 C 180.944,644.517 182.629,656.178 182.023,667.44 C 181.684,673.743 181.724,680.378 182.066,686.759 C 182.528,695.365 184.589,704.648 183.621,713.198 C 182.531,722.817 184.94,731.085 186.907,740.338 C 187.923,745.123 194.049,756.567 188.537,760.725 C 187.768,759.788 186.75,759.336 185.833,759.941 C 185.441,758.253 185.095,756.232 184.865,754.453 C 184.663,756.974 183.742,758.038 185.205,760.068 C 186.101,761.309 189.627,764.738 190.881,765.024 C 190.485,764.933 191.392,751.837 195.521,754.308 C 196.358,749.156 193.563,741.815 192.116,736.823 C 190.882,732.57 188.702,728.462 188.423,724.046 C 187.78,713.896 187.73,703.933 187.091,693.814 C 186.323,681.654 185.955,669.773 185.938,657.507 C 185.927,649.93 186.098,642.16 186.732,634.622 C 187.156,629.609 187.813,623.101 189.774,618.452 z"
   id="path433"
   style="fill: rgb(220, 192, 109);" />
	<path
   d="M 172.708,626.328 C 172.617,625.735 172.361,625.459 171.939,625.498 C 171.724,630.961 173.288,638.173 175.586,643.058 C 175.51,640.007 175.41,637.197 174.931,634.168 C 174.628,632.255 173.38,628.285 173.841,626.382 C 174.377,624.168 177.25,623.772 176.569,620.986 C 175.788,622.134 173.999,624.966 172.063,624.852 C 170.46,624.759 170.364,621.809 168.032,623.797 C 167.839,623.311 167.393,622.687 167.308,622.13 C 168.505,625.899 168.754,630.079 170.22,633.741 C 170.094,630.963 168.36,626.968 170.205,624.54"
   id="path435"
   style="fill: rgb(220, 192, 109);" />
	<path
   d="M 192.044,598.696 C 192.791,598.089 194.315,595.563 194.003,594.528 C 193.34,592.328 192.753,593.994 191.421,593.423 C 195.107,595.006 186.807,599.961 185.707,601.261 C 186.721,600.448 188.728,600.195 189.004,601.924 C 189.287,603.696 186.511,605.222 185.332,606.006 C 183.495,607.225 182.612,608.422 181.051,609.769 C 184.359,606.916 187.798,604.233 191.517,602.046 C 191.398,602.245 191.34,602.461 191.344,602.692 C 192.025,601.985 192.905,601.934 193.743,601.709 C 193.892,602.24 194.161,602.784 194.179,603.332 C 193.949,601.666 193.436,599.678 192.044,598.696 z"
   id="path437"
   style="fill: rgb(204, 178, 92);" />
	<path
   d="M 186.296,697.132 C 186.343,704.046 187.287,710.903 187.718,717.786 C 188.088,723.686 189.951,729.264 190.584,734.927 C 189.636,726.354 188.441,717.921 188.441,709.281 C 188.441,705.173 189.499,697.517 187.1,694.269 C 186.492,695.847 186.588,697.589 186.653,699.276"
   id="path439"
   style="fill: rgb(204, 178, 92);" />
	<path
   d="M 187.728,761.499 C 189.889,761.695 191.391,763.388 192.671,764.705 C 192.794,763.042 192.057,759.703 193.092,758.254 C 194.87,755.763 195.424,758.481 195.299,760.397 C 198.712,758.433 196.238,751.896 194.146,749.789 C 192.634,753.862 192.68,759.649 188.8,762.572"
   id="path441"
   style="fill: rgb(204, 178, 92);" />
	<path
   d="M 178.429,751.843 C 177.614,754.499 175.116,759.609 179.822,758.592 C 178.863,756.268 178.399,754.319 179.502,751.843"
   id="path443"
   style="fill: rgb(204, 178, 92);" />
	<path
   d="M 188.529,632.001 C 188.667,630.397 188.885,628.829 189.237,627.322 C 189.857,624.664 191.43,622.27 191.819,619.586 C 192.069,617.843 191.806,615.94 192.037,614.142 C 192.231,612.631 192.576,605.331 194.555,604.874 C 194.119,604.973 193.204,605.522 192.849,605.847 C 196.271,610.724 189.559,616.088 188.277,620.382 C 186.424,626.588 187.11,633.184 186.394,639.541 C 185.235,649.825 185.899,660.283 185.939,670.569 C 185.925,662.727 186.841,654.931 187.813,647.163 C 188.419,642.317 188.096,636.989 188.529,632.001 z"
   id="path445"
   style="fill: rgb(204, 178, 92);" />
</g><g
     style="overflow: visible; display: inline;"
     id="TibiaLeft"
     inkscape:label="Tibia">
	<path
   d="M 247.396,590.918 C 248.59,593.49 247.532,598.101 247.371,600.878 C 247.148,604.644 245.276,607.321 242.933,610.159 C 240.194,613.475 237.944,618.494 236.338,622.536 C 231.793,633.976 231.159,647.948 231.123,660.14 C 231.104,666.536 230.566,673.099 229.893,679.417 C 229.227,685.663 227.679,691.488 226.542,697.646 C 223.829,712.367 224.918,727.307 224.492,742.177 C 224.364,746.646 226.285,752.311 225.067,756.577 C 224.591,758.237 223.496,759.01 222.159,760.015 C 220.751,761.072 219.572,763.002 218.094,763.81 C 216.381,764.749 214.069,764.066 212.134,764.269 C 209.95,764.497 208.246,765.681 206.488,766.944 C 204.187,768.595 202.544,769.317 201.732,765.957 C 200.948,762.716 200.482,758.673 201.152,755.419 C 202.094,750.846 203.973,746.538 205.424,742.118 C 208.186,733.703 208.689,724.079 209.796,715.286 C 210.628,708.679 209.66,701.711 210.114,695.018 C 210.43,690.397 211.037,685.786 211.285,681.106 C 211.818,671.009 213.036,660.998 212.605,650.961 C 211.933,635.252 208.514,620.273 205.78,604.885 C 205.328,602.33 205.904,601.033 206.473,598.694 C 206.883,597.012 206.763,597.316 206.577,595.557 C 206.387,593.767 205.355,593.774 206.89,591.993 C 210.358,587.969 217.066,591.469 220.993,592.467 C 225.081,593.507 230.362,593.87 234.6,593.653 C 235.861,593.587 247.006,590.082 247.396,590.918 z"
   id="path2371"
   style="fill: rgb(243, 212, 140); stroke: rgb(150, 115, 72); stroke-width: 0.3218;" />
	<path
   d="M 211.166,617.417 C 210.065,614.751 204.129,602.804 207.295,600.183 C 208.786,598.949 212.859,601.855 213.917,603.191 C 211.985,600.751 209.18,598.467 208.506,595.278 C 207.49,590.478 211.106,592.535 214.117,593.22 C 218.274,594.166 222.989,594.514 226.811,596.758 C 223.871,596.461 220.742,595.046 217.723,595.002 C 217.823,596.88 221.713,598.731 223.166,599.562 C 225.812,601.072 228.489,601.678 231.475,602.196 C 233.788,602.597 237.569,602.557 239.29,604.322 C 237.864,606.525 235.28,607.762 232.738,607.93 C 231.315,608.025 226.149,607.856 225.411,606.584 C 227.323,609.871 227.538,615.381 222.976,610.473 C 222.675,611.823 223.654,612.069 223.703,613.152 C 223.788,615.021 223.538,614.227 222.771,616.088 C 221.263,619.735 220.647,625.454 221.007,629.047 C 220.257,625.271 220.193,621.711 220.027,618.227 C 219.873,614.986 217.169,610.714 214.385,609.254 C 214.543,609.611 214.747,610.004 214.929,610.371 C 213.433,608.247 211.414,605.794 209.038,604.645 C 209.496,606.609 218.096,615.564 215.409,616.465 C 215.985,618.333 215.368,621.334 215.573,623.182 C 215.902,626.172 217.171,629.436 217.734,632.479 C 219.795,643.55 218.02,655.201 218.54,666.466 C 218.83,672.771 218.738,679.406 218.346,685.784 C 217.819,694.387 215.686,703.654 216.589,712.211 C 217.604,721.838 215.132,730.087 213.095,739.325 C 212.042,744.101 205.829,755.499 211.308,759.697 C 212.082,758.768 213.106,758.323 214.019,758.934 C 214.422,757.248 214.785,755.231 215.03,753.454 C 215.212,755.975 216.124,757.048 214.646,759.066 C 213.74,760.3 210.188,763.701 208.933,763.979 C 209.329,763.891 208.523,750.789 204.374,753.227 C 203.576,748.069 206.428,740.749 207.915,735.768 C 209.179,731.526 211.391,727.433 211.705,723.019 C 212.424,712.875 212.554,702.912 213.271,692.797 C 214.13,680.645 214.589,668.767 214.7,656.501 C 214.771,648.924 214.659,641.155 214.081,633.612 C 213.697,628.594 213.089,622.079 211.166,617.417 z"
   id="path2373"
   style="fill: rgb(220, 192, 109);" />
	<path
   d="M 228.17,625.423 C 228.264,624.83 228.524,624.556 228.944,624.599 C 229.119,630.063 227.499,637.264 225.163,642.131 C 225.264,639.081 225.385,636.269 225.886,633.246 C 226.204,631.334 227.482,627.375 227.036,625.469 C 226.516,623.25 223.646,622.832 224.35,620.052 C 225.12,621.206 226.89,624.05 228.824,623.953 C 230.428,623.87 230.547,620.922 232.864,622.929 C 233.06,622.443 233.51,621.823 233.6,621.267 C 232.376,625.026 232.094,629.205 230.601,632.855 C 230.748,630.079 232.512,626.096 230.686,623.656"
   id="path2375"
   style="fill: rgb(220, 192, 109);" />
	<path
   d="M 209.048,597.644 C 208.306,597.031 206.802,594.495 207.122,593.461 C 207.798,591.267 208.376,592.936 209.711,592.374 C 206.013,593.93 214.274,598.947 215.363,600.257 C 214.356,599.436 212.351,599.167 212.061,600.895 C 211.765,602.666 214.528,604.212 215.702,605.005 C 217.53,606.237 218.405,607.442 219.955,608.8 C 216.668,605.923 213.251,603.213 209.547,600.997 C 209.664,601.197 209.722,601.413 209.716,601.644 C 209.04,600.933 208.161,600.875 207.325,600.643 C 207.171,601.173 206.898,601.714 206.877,602.263 C 207.12,600.599 207.649,598.614 209.048,597.644 z"
   id="path2377"
   style="fill: rgb(204, 178, 92);" />
	<path
   d="M 214.039,696.121 C 213.939,703.034 212.943,709.883 212.458,716.764 C 212.044,722.661 210.138,728.224 209.459,733.881 C 210.474,725.314 211.734,716.894 211.801,708.253 C 211.831,704.147 210.833,696.482 213.256,693.252 C 213.851,694.836 213.742,696.576 213.666,698.263"
   id="path2379"
   style="fill: rgb(204, 178, 92);" />
	<path
   d="M 212.115,760.475 C 209.952,760.656 208.436,762.335 207.146,763.643 C 207.037,761.979 207.799,758.646 206.775,757.19 C 205.017,754.683 204.441,757.398 204.552,759.314 C 201.154,757.325 203.677,750.806 205.785,748.714 C 207.267,752.802 207.178,758.586 211.034,761.539"
   id="path2381"
   style="fill: rgb(204, 178, 92);" />
	<path
   d="M 221.487,750.892 C 222.28,753.552 224.739,758.68 220.043,757.63 C 221.018,755.311 221.498,753.365 220.414,750.883"
   id="path2383"
   style="fill: rgb(204, 178, 92);" />
	<path
   d="M 212.307,630.974 C 212.181,629.37 211.977,627.799 211.636,626.291 C 211.036,623.629 209.482,621.222 209.113,618.535 C 208.876,616.789 209.154,614.889 208.938,613.089 C 208.757,611.576 208.467,604.275 206.491,603.803 C 206.925,603.905 207.835,604.461 208.189,604.788 C 204.73,609.638 211.399,615.055 212.649,619.357 C 214.453,625.577 213.717,632.168 214.385,638.53 C 215.464,648.823 214.719,659.276 214.602,669.56 C 214.677,661.72 213.819,653.917 212.907,646.14 C 212.337,641.291 212.702,635.965 212.307,630.974 z"
   id="path2385"
   style="fill: rgb(204, 178, 92);" />
</g></g></svg>
