<?xml version="1.0" encoding="UTF-8" standalone="no"?>
<!-- Generator: Adobe Illustrator 12.0.0, SVG Export Plug-In . SVG Version: 6.00 Build 51448)  -->

<svg
   version="1.0"
   id="Layer_1"
   width="435.68701"
   height="841.89001"
   viewBox="0 0 435.687 841.89"
   overflow="visible"
   enable-background="new 0 0 435.687 841.89"
   xml:space="preserve"
   sodipodi:version="0.32"
   inkscape:version="1.4.2 (f4327f4, 2025-05-13)"
   sodipodi:docname="lower_bones_coxae.svg"
   inkscape:output_extension="org.inkscape.output.svg.inkscape"
   style="overflow: visible; display: inline;"
   xmlns:inkscape="http://www.inkscape.org/namespaces/inkscape"
   xmlns:sodipodi="http://sodipodi.sourceforge.net/DTD/sodipodi-0.dtd"
   xmlns="http://www.w3.org/2000/svg"
   xmlns:svg="http://www.w3.org/2000/svg"
   xmlns:rdf="http://www.w3.org/1999/02/22-rdf-syntax-ns#"
   xmlns:cc="http://creativecommons.org/ns#"
   xmlns:dc="http://purl.org/dc/elements/1.1/"><metadata
   id="metadata3098"><rdf:RDF><cc:Work
       rdf:about=""><dc:format>image/svg+xml</dc:format><dc:type
         rdf:resource="http://purl.org/dc/dcmitype/StillImage" /></cc:Work><cc:Work
       rdf:about=""><dc:format>image/svg+xml</dc:format><dc:type
         rdf:resource="http://purl.org/dc/dcmitype/StillImage" /></cc:Work></rdf:RDF></metadata><defs
   id="defs3096"><inkscape:perspective
   sodipodi:type="inkscape:persp3d"
   inkscape:vp_x="0 : 420.94501 : 1"
   inkscape:vp_y="0 : 1000 : 0"
   inkscape:vp_z="435.68701 : 420.94501 : 1"
   inkscape:persp3d-origin="217.84351 : 280.63 : 1"
   id="perspective3100" />
		
		
		
		
	
		
		
	
		
		
		
		
		
	
	
	

		
		
		
	
			
			
		
				
				
				
				
				
			
	
	
</defs>
<sodipodi:namedview
   inkscape:window-height="1369"
   inkscape:window-width="2560"
   inkscape:pageshadow="2"
   inkscape:pageopacity="0.0"
   guidetolerance="10.0"
   gridtolerance="10.0"
   objecttolerance="10.0"
   borderopacity="1.0"
   bordercolor="#666666"
   pagecolor="#ffffff"
   id="base"
   showgrid="false"
   inkscape:zoom="1.9049022"
   inkscape:cx="217.85895"
   inkscape:cy="385.05914"
   inkscape:window-x="-8"
   inkscape:window-y="-8"
   inkscape:current-layer="layer3"
   showguides="true"
   inkscape:guide-bbox="true"
   inkscape:showpageshadow="2"
   inkscape:pagecheckerboard="0"
   inkscape:deskcolor="#d1d1d1"
   inkscape:window-maximized="1" />
<g
   inkscape:groupmode="layer"
   id="layer3"
   inkscape:label="Skeleton"
   style="display: inline;"><g
     style="overflow: visible; display: inline;"
     id="g447">
	<path
   d="M 174.425,389.556 C 175.87,387.035 179.298,383.938 179.776,381.316 C 180.412,377.829 176.103,376.431 173.699,374.363 C 171.15,372.171 170.336,370.189 166.872,369.701 C 163.565,369.235 159.374,368.628 156.049,369.069 C 153.156,369.453 149.361,369.973 147.682,372.287 C 145.685,375.041 145.245,381.365 147.413,383.819 C 149.787,386.503 153.653,387.583 156.256,389.996 C 160.134,393.592 162.003,397.574 161.163,402.578 C 160.376,407.266 160.89,409.861 165.036,412.435 C 167.425,413.918 169.966,416.498 172.547,417.362 C 175.461,418.338 182.313,417.992 185.354,417.364 C 191.01,416.193 193.384,409.481 199.252,409.032 C 205.221,408.576 208.838,414.079 214.029,416.02 C 220.694,418.512 229.168,420.37 235.492,415.861 C 240.896,412.009 240.395,406.792 240.943,400.948 C 241.534,394.669 244.228,389.497 248.621,385.024 C 248.659,385.306 248.639,385.584 248.665,385.817 C 251.433,383.81 251.977,380.04 251.832,376.569 C 251.627,371.616 246.947,372.305 243.429,373.238 C 239.389,374.308 238.084,373.367 234.374,372.928 C 231.149,372.547 229.023,374.653 226.791,376.675 C 223.917,379.275 219.233,382.126 220.775,386.259 C 228.561,388.039 233.294,401.404 227.974,407.635 C 226.29,409.608 221.479,410.492 219.026,409.78 C 216.164,408.95 215.258,406.309 212.963,404.933 C 210.657,403.551 206.309,403.67 203.657,403.407 C 194.935,402.541 187.818,409.012 179.256,407.506 C 173.627,406.515 173.188,404.636 171.92,399.5 C 170.943,395.553 172.502,392.909 174.425,389.556 z"
   id="path449"
   style="fill: rgb(249, 206, 130); stroke: rgb(150, 115, 72); stroke-width: 0.3218;" />
	<path
   d="M 209.278,404.201 C 204.351,402.493 209.866,409.468 210.707,410.262 C 213.224,412.64 216.358,415.331 219.97,415.213 C 219.761,414.825 219.671,414.304 219.443,413.892 C 225.517,419.801 235.352,413.536 237.607,407.081 C 238.729,403.869 237.777,402.459 237.082,399.562 C 236.358,396.544 237.18,392.7 238.887,390.277 C 238.584,394.255 240.681,392.759 242.186,390.354 C 243.831,387.729 245.279,385.292 247.523,383.116 C 250.025,380.689 250.044,380.283 246.735,378.118 C 244.895,376.912 240.18,376.121 240.702,373.563 C 239.649,374.438 238.193,374.717 236.936,374.827 C 237.091,374.624 237.249,374.421 237.407,374.218 C 235.675,374.518 233.735,377.427 231.808,378.385 C 230.168,379.198 228.432,379.85 226.8,380.689 C 224.439,381.904 220.698,384.207 225.674,384.954 C 225.706,385.278 225.734,385.588 225.78,385.912 C 231.759,384.736 228.468,398.032 231.011,399.883 C 231.188,399.265 231.904,398.564 232.074,398.146 C 235.696,405.18 230.792,413.673 223.037,412.802 C 224.349,412.466 225.573,411.767 226.709,411.07 C 222.478,411.151 219.346,411.507 215.35,408.851 C 213.682,407.742 210.193,400.958 208.204,404.203"
   id="path451"
   style="fill: rgb(220, 192, 109);" />
	<path
   d="M 177.523,410.29 C 182.418,411.947 188.637,408.993 192.871,406.472 C 192.468,406.906 192.248,407.619 191.862,408.074 C 192.711,407.992 193.731,408.261 194.589,408.19 C 190.902,416.78 177.535,419.93 170.77,413.823 C 172.391,414.308 174.358,414.454 175.904,413.955 C 171.264,412.152 167.937,406.073 166.384,401.37 C 165.381,402.004 164.935,403.229 164.491,404.475 C 163.651,401.593 165.613,396.416 164.149,393.832 C 163.373,392.461 162.664,393.29 161.7,392.398 C 160.896,391.654 160.566,390.728 159.876,389.824 C 157.546,386.778 154.786,384.549 151.759,382.38 C 148.393,379.966 148.862,376.813 151.34,373.442 C 153.758,374.724 157.329,375.266 159.999,374.421 C 161.434,373.966 162.749,372.672 164.229,372.447 C 167.369,371.97 171.702,375.668 174.142,377.382 C 178.094,380.155 176.842,381.467 174.581,385.347 C 170.107,393.021 166.27,406.481 177.523,410.29 z"
   id="path453"
   style="fill: rgb(220, 192, 109);" />
	<path
   d="M 160.206,389.162 C 158.506,386.179 158.181,370.71 151.042,373.443 C 148.384,374.461 148.123,377.727 148.684,380.136 C 149.456,383.448 151.183,383.63 153.335,385.492 C 151.035,383.501 150.384,379.626 154.519,381.222 C 157.169,382.246 158.894,386.86 160.206,389.162 z"
   id="path455"
   style="fill: rgb(204, 178, 92);" />
	<path
   d="M 236.099,387.395 C 236.495,382.328 245.166,380.571 243.939,386.938 C 245.817,384.66 250.318,381.827 249.256,378.098 C 247.997,373.678 241.744,375.039 239.314,377.087 C 236.412,379.536 234.104,385.301 235.435,389.11 C 236.903,393.314 240.414,392.259 241.79,388.977 C 238.648,390.053 237.259,387.745 237.171,384.891"
   id="path457"
   style="fill: rgb(204, 178, 92);" />
	<path
   d="M 210.351,410.638 C 212.761,412.19 216.131,413.34 218.903,414.062 C 216.705,412.594 212.206,410.301 212.415,407.091 C 211.767,408.155 211.001,409.729 210.351,410.997"
   id="path459"
   style="fill: rgb(204, 178, 92);" />
	<path
   d="M 181.027,414.929 C 184.458,416.26 190.16,413.53 191.621,410.181 C 190.834,409.422 190.011,408.86 188.956,408.907 C 188.251,412.099 183.68,414.404 180.67,414.572"
   id="path461"
   style="fill: rgb(204, 178, 92);" />
</g><g
     style="overflow: visible; display: inline;"
     id="PelvicGirdle"
     inkscape:label="Pelvic Girdle">
	<path
   d="M 157.196,381.135 C 157.395,381.304 157.586,381.484 157.766,381.677 C 161.301,385.431 159.641,391.802 165.021,393.436 C 167.978,394.334 170.933,394.811 173.73,396.18 C 177.21,397.882 179.871,400.555 183.001,402.772 C 185.349,404.435 196.378,413.442 198.733,409.313 C 199.776,409.547 201.121,409.22 202.485,409.34 C 204.765,409.539 205.659,410.381 208.04,409.233 C 210.857,407.874 213.159,405.278 215.432,403.195 C 220.061,398.958 224.9,398.317 230.801,396.743 C 233.22,396.097 235.472,395.674 237.345,393.981 C 241.041,390.638 239.466,385.025 241.638,380.715 C 244.138,381.711 247.909,379.849 250.487,379.647 C 253.212,379.433 255.933,379.89 257.439,376.993 C 259.074,373.844 257.775,367.793 261.893,366.268 C 261.813,366.219 261.334,365.753 261.26,365.704 C 264.472,367.059 268.9,362.796 270.849,360.778 C 274.117,357.4 275.372,354.275 274.571,349.553 C 273.023,340.438 268.165,331.523 259.964,326.667 C 250.26,320.921 237.1,321.174 228.318,328.306 C 221.802,333.597 223.674,342.256 218.679,348.328 C 216.847,350.556 215.917,351.541 217.165,354.121 C 218.308,356.484 220.652,359.648 222.427,361.609 C 226.529,366.136 230.068,368.154 228.353,374.914 C 227.205,379.443 225.504,383.926 222.939,387.852 C 220.469,391.631 216.875,393.99 214.022,397.393 C 211.559,400.332 209.129,400.206 205.51,399.535 C 204.309,399.311 202.769,397.421 202.509,400.275 C 201.34,400.405 200.24,400.735 199.049,400.633 C 199.075,400.245 198.89,399.703 198.931,399.324 C 198.983,398.837 193.908,400.77 193.577,400.762 C 191.344,400.714 190.561,399.019 189.222,397.45 C 185.485,393.07 180.771,389.773 176.834,385.6 C 173.361,381.917 171.636,377.495 171.56,372.37 C 171.465,365.963 176.242,367.163 178.807,362.651 C 180.156,360.274 179.387,357.078 180.204,354.568 C 181.087,351.853 183.163,349.295 184.023,346.622 C 185.176,343.037 185.398,339.599 183.449,336.171 C 178.413,327.316 168.776,326.255 159.686,325.174 C 152.872,324.362 149.023,325.12 143.606,329.93 C 139.165,333.874 134.439,340.281 132.294,345.823 C 131.102,348.905 130.752,352.009 131.588,355.302 C 131.908,356.564 132.416,358.605 133.215,359.569 C 135.323,362.117 142.213,365.254 145.228,362.827 C 144.499,363.543 143.935,364.038 142.909,364.275 C 142.226,364.432 144.32,374.468 146.776,374.868 C 147.91,375.053 148.947,373.581 149.654,373.844 C 150.754,374.254 150.507,376.199 151.343,377.122 C 152.973,378.923 155.385,379.587 157.196,381.135 z"
   id="path517"
   style="fill: rgb(249, 206, 130); stroke: rgb(150, 115, 72); stroke-width: 0.3218;" />
	
	<path
   d="M 178.25,360.635 C 179.474,363.227 174.35,365.305 172.608,366.804 C 170.28,368.809 169.852,370.276 170.106,373.509 C 170.642,380.329 174.965,386.791 179.278,391.154 C 174.647,387.418 171.361,383.019 169.014,377.582 C 169.163,377.71 169.272,377.869 169.338,378.053 C 168.85,375.365 168.532,373.037 169.176,370.352 C 165.385,369.274 175.444,363.374 174.448,360.609 C 175.164,360.378 176.1,360.111 176.819,359.955 C 177.156,360.393 177.7,360.888 177.892,361.351"
   id="path521"
   style="fill: rgb(220, 192, 109);" />
	<path
   d="M 224.739,359.563 C 222.487,362.023 225.927,363.519 227.233,365.276 C 228.802,367.392 229.207,369.127 229.386,371.721 C 229.768,377.164 227.244,382.011 225.419,386.996 C 228.731,380.717 230.742,376.329 230.521,369.279 C 230.782,369.132 231.035,368.983 231.22,368.868 C 230.101,365.707 227.384,361.777 224.38,359.919"
   id="path523"
   style="fill: rgb(220, 192, 109);" />
	<path
   d="M 148.518,363.557 C 147.213,363.061 146.756,361.375 145.352,360.645 C 144.192,360.043 143.291,360.209 142.361,359.169 C 141.293,357.975 141.559,356.019 140.364,354.826 C 138.503,352.966 135.644,353.212 134.965,350.265 C 133.214,342.663 144.423,333.791 149.972,331.09 C 147.153,333.656 140.569,339.084 141.122,343.442 C 141.245,343.144 141.971,342.4 142.145,341.81 C 142.281,342.486 142.684,342.751 142.948,343.363 C 143.167,342.894 143.729,342.463 143.915,342.045 C 145.301,343.218 147.985,349.615 151.053,347.348 C 151.851,346.758 151.759,345.078 151.474,344.313 C 151.922,344.776 151.943,344.891 152.126,345.457 C 153.815,346.903 152.377,351.904 153.848,354.5 C 155.831,358 157.987,357.763 161.701,358.186 C 159.983,360.169 157.711,361.749 156.437,364.081 C 155.153,363.865 153.694,365.996 153.561,367.511 C 153.379,369.579 155.139,371.161 156.322,372.732 C 154.955,373.161 154.943,373.192 155.409,374.475 C 153.998,372.5 151.699,371.409 150.113,369.643 C 149.3,368.738 148.701,368.361 148.363,367.097 C 148.253,366.685 148.697,363.625 148.518,363.557 z"
   id="path525"
   style="fill: rgb(220, 192, 109);" />
	<path
   d="M 259.069,364.569 C 257.587,363.148 256.945,359.769 258.808,358.179 C 259.535,357.561 260.704,357.805 261.285,357.687 C 264.273,357.08 266.527,356.03 268.409,353.482 C 274.197,345.644 263.561,331.558 257.299,328.124 C 259.04,330.764 262.298,332.327 263.655,335.499 C 264.574,337.655 266.199,342.961 264.52,344.891 C 264.407,344.414 264.108,343.949 263.993,343.472 C 262.969,344.427 262.78,346.429 261.912,347.776 C 261.954,347.902 261.258,347.307 261.266,347.312 C 261.316,347.039 261.519,347.035 261.535,346.744 C 260.639,346.834 258.931,348.378 258.099,348.826 C 256.152,349.872 254.354,350.05 252.733,352.053 C 254.471,354.096 254.959,356.141 254.414,358.74 C 254.455,358.696 254.706,358.171 254.779,358.078 C 255.321,358.989 254.792,359.993 253.759,360.732 C 257.743,365.108 246.068,373.035 250.414,377.061 C 250.239,373.106 253.477,366.486 257.498,365.215 C 257.375,365.039 257.315,364.844 257.32,364.63 C 257.92,364.897 258.131,364.587 258.745,365.159 C 258.075,364.114 257.904,362.865 258.353,361.707"
   id="path527"
   style="fill: rgb(220, 192, 109);" />
	<path
   d="M 249.318,332.465 C 248.209,332.75 246.74,332.42 245.525,332.722 C 244.139,333.066 242.614,333.836 241.297,334.416 C 238.362,335.712 235.56,337.395 233.319,339.717 C 230.58,342.557 227.775,348.339 229.01,352.411 C 229.687,354.64 232.152,355.683 234.711,356.288 C 234.054,354.6 232.422,353.358 231.674,351.676 C 232.854,351.283 231.682,344.872 232.631,342.801 C 235.721,336.058 243.013,334.081 249.318,332.465 z"
   id="path529"
   style="fill: rgb(220, 192, 109);" />
	<path
   d="M 178.25,346.69 C 176.022,348.217 174.427,347.372 173.375,345.135 C 172.317,342.881 173.983,340.171 172.688,337.973 C 170.28,333.891 163.757,333.079 159.738,331.393 C 162.076,332.374 165.964,331.294 168.692,332.305 C 171.947,333.511 174.761,336.278 175.344,339.833 C 171.876,340.972 176.604,348.663 177.91,345.364 C 177.792,346.169 177.929,347.049 177.892,347.761"
   id="path531"
   style="fill: rgb(220, 192, 109);" />
	<path
   d="M 183.972,394.607 C 188.303,397.666 190.146,403.68 193.912,407.087 C 193.695,406.309 193.979,405.264 193.977,404.734 C 194.209,404.955 194.386,405.169 194.609,405.309 C 195.008,404.103 195.546,402.817 196.808,402.395 C 195.526,401.224 193.225,402.672 191.403,401.848 C 189.419,400.951 187.607,398.533 186.474,396.753"
   id="path533"
   style="fill: rgb(220, 192, 109);" />
	<path
   d="M 203.997,401.402 C 204.361,402.796 204.687,404.204 204.694,405.645 C 204.897,404.895 205.424,404.338 205.705,403.656 C 206.094,404.648 206.249,405.656 206.198,406.718 C 208.879,406.32 212.856,400.497 215.072,398.621 C 217.746,396.357 220.496,394.057 222.823,391.417 C 217.819,397.216 211.409,401.624 204.085,400.381 C 203.872,400.738 203.597,400.851 203.281,401.043"
   id="path535"
   style="fill: rgb(220, 192, 109);" />
	<path
   d="M 145.709,334.531 C 139.251,339.348 135.451,345.128 136.117,353.439 C 138.424,352.663 139.593,354.411 141.451,355.869 C 141.127,353.147 138.044,352.701 137.11,350.621 C 135.358,346.718 140.874,338.846 143.564,337.392"
   id="path537"
   style="fill: rgb(204, 178, 92);" />
	<path
   d="M 148.212,365.285 C 148.885,367.457 148.595,370.024 148.287,372.045 C 149.129,372.004 149.861,371.721 150.573,371.015 C 149.057,369.282 148.628,366.098 148.57,363.854"
   id="path539"
   style="fill: rgb(204, 178, 92);" />
</g></g></svg>
