<?xml version="1.0" encoding="UTF-8" standalone="no"?>
<!-- Generator: Adobe Illustrator 12.0.0, SVG Export Plug-In . SVG Version: 6.00 Build 51448)  -->

<svg
   version="1.0"
   id="Layer_1"
   width="157.45488"
   height="446.52948"
   viewBox="0 0 157.45488 446.52947"
   overflow="visible"
   enable-background="new 0 0 435.687 841.89"
   xml:space="preserve"
   sodipodi:version="0.32"
   inkscape:version="1.4.2 (f4327f4, 2025-05-13)"
   sodipodi:docname="lower_bones_pubis.svg"
   inkscape:output_extension="org.inkscape.output.svg.inkscape"
   style="display:inline;overflow:visible"
   xmlns:inkscape="http://www.inkscape.org/namespaces/inkscape"
   xmlns:sodipodi="http://sodipodi.sourceforge.net/DTD/sodipodi-0.dtd"
   xmlns="http://www.w3.org/2000/svg"
   xmlns:svg="http://www.w3.org/2000/svg"
   xmlns:rdf="http://www.w3.org/1999/02/22-rdf-syntax-ns#"
   xmlns:cc="http://creativecommons.org/ns#"
   xmlns:dc="http://purl.org/dc/elements/1.1/"><metadata
   id="metadata3098"><rdf:RDF><cc:Work
       rdf:about=""><dc:format>image/svg+xml</dc:format><dc:type
         rdf:resource="http://purl.org/dc/dcmitype/StillImage" /></cc:Work><cc:Work
       rdf:about=""><dc:format>image/svg+xml</dc:format><dc:type
         rdf:resource="http://purl.org/dc/dcmitype/StillImage" /></cc:Work></rdf:RDF></metadata><defs
   id="defs3096"><inkscape:perspective
   sodipodi:type="inkscape:persp3d"
   inkscape:vp_x="0 : 25.584482 : 1"
   inkscape:vp_y="0 : 1000 : 0"
   inkscape:vp_z="435.68702 : 25.584482 : 1"
   inkscape:persp3d-origin="217.84352 : -114.73053 : 1"
   id="perspective3100" />
		
		
		
		
	
		
		
	
		
		
		
		
		
	
	
	

		
		
		
	
			
			
		
				
				
				
				
				
			
	
	

	
	
	
	
	
	
	
	
	
	
	
	

	
	
	
	
	
	
	
</defs>
<sodipodi:namedview
   inkscape:window-height="1369"
   inkscape:window-width="2560"
   inkscape:pageshadow="2"
   inkscape:pageopacity="0.0"
   guidetolerance="10.0"
   gridtolerance="10.0"
   objecttolerance="10.0"
   borderopacity="1.0"
   bordercolor="#666666"
   pagecolor="#ffffff"
   id="base"
   showgrid="false"
   inkscape:zoom="3.8098044"
   inkscape:cx="-14.173956"
   inkscape:cy="120.08491"
   inkscape:window-x="-8"
   inkscape:window-y="-8"
   inkscape:current-layer="Layer_1"
   showguides="true"
   inkscape:guide-bbox="true"
   inkscape:showpageshadow="2"
   inkscape:pagecheckerboard="0"
   inkscape:deskcolor="#d1d1d1"
   inkscape:window-maximized="1" />
<path
   id="path449"
   style="fill:#f9ce82;stroke:#967348;stroke-width:0.3218"
   d="M 24.736328 60.179688 C 24.744 60.196946 24.753916 60.211411 24.761719 60.228516 A 17.061243 24.935663 0 0 1 24.763672 60.181641 A 46.721558 38.322178 0 0 1 24.736328 60.179688 z M 58.523438 66.640625 A 17.061243 24.935663 0 0 1 55.828125 76.261719 C 57.580085 77.57656 59.238148 79.016069 61.054688 80.302734 C 61.934683 80.926003 64.034354 82.581195 66.439453 84.189453 C 63.934907 84.921943 61.399444 85.427796 58.736328 85.21875 A 15.092638 15.88008 0 0 1 62.458984 95.0625 C 62.804531 95.009455 63.123214 94.953385 63.408203 94.894531 C 67.718502 94.002141 70.12396 89.893184 73.621094 87.789062 C 75.044108 88.092952 76.191952 87.887234 76.787109 86.84375 C 77.793895 87.069625 79.083401 86.774285 80.398438 86.861328 C 84.666027 88.019268 87.851612 91.968228 92.083984 93.550781 C 92.798655 93.817992 93.53377 94.078639 94.285156 94.324219 A 19.68605 19.29233 0 0 1 97.109375 87.318359 C 97.099533 87.315575 97.089846 87.313382 97.080078 87.310547 C 94.381944 86.528069 93.422423 84.137163 91.398438 82.712891 C 92.106058 82.036176 92.797556 81.35776 93.486328 80.726562 C 97.457767 77.091442 101.58363 76.103712 106.40234 74.902344 A 15.355119 11.94287 0 0 1 107.01562 72.658203 A 19.423569 14.961398 0 0 1 98.347656 68.646484 C 96.306237 70.7737 94.019006 72.606456 92.076172 74.923828 C 89.613172 77.862828 87.183453 77.737406 83.564453 77.066406 C 82.363453 76.842406 80.824453 74.952641 80.564453 77.806641 C 79.395453 77.936641 78.294516 78.266062 77.103516 78.164062 C 77.129516 77.776062 76.945328 77.234469 76.986328 76.855469 C 77.038328 76.368469 71.961859 78.300969 71.630859 78.292969 C 69.397859 78.244969 68.616344 76.549469 67.277344 74.980469 C 64.640789 71.89026 61.516904 69.340255 58.523438 66.640625 z " /></svg>
