<?xml version="1.0" encoding="UTF-8" standalone="no"?>
<!-- Generator: Adobe Illustrator 12.0.0, SVG Export Plug-In . SVG Version: 6.00 Build 51448)  -->

<svg
   version="1.0"
   id="Layer_1"
   width="157.45488"
   height="446.52948"
   viewBox="0 0 157.45488 446.52947"
   overflow="visible"
   enable-background="new 0 0 435.687 841.89"
   xml:space="preserve"
   sodipodi:version="0.32"
   inkscape:version="1.4.2 (f4327f4, 2025-05-13)"
   sodipodi:docname="lower_bones_sacrum.svg"
   inkscape:output_extension="org.inkscape.output.svg.inkscape"
   style="display:inline;overflow:visible"
   xmlns:inkscape="http://www.inkscape.org/namespaces/inkscape"
   xmlns:sodipodi="http://sodipodi.sourceforge.net/DTD/sodipodi-0.dtd"
   xmlns="http://www.w3.org/2000/svg"
   xmlns:svg="http://www.w3.org/2000/svg"
   xmlns:rdf="http://www.w3.org/1999/02/22-rdf-syntax-ns#"
   xmlns:cc="http://creativecommons.org/ns#"
   xmlns:dc="http://purl.org/dc/elements/1.1/"><metadata
   id="metadata3098"><rdf:RDF><cc:Work
       rdf:about=""><dc:format>image/svg+xml</dc:format><dc:type
         rdf:resource="http://purl.org/dc/dcmitype/StillImage" /></cc:Work><cc:Work
       rdf:about=""><dc:format>image/svg+xml</dc:format><dc:type
         rdf:resource="http://purl.org/dc/dcmitype/StillImage" /></cc:Work></rdf:RDF></metadata><defs
   id="defs3096"><inkscape:perspective
   sodipodi:type="inkscape:persp3d"
   inkscape:vp_x="0 : 25.584482 : 1"
   inkscape:vp_y="0 : 1000 : 0"
   inkscape:vp_z="435.68702 : 25.584482 : 1"
   inkscape:persp3d-origin="217.84352 : -114.73053 : 1"
   id="perspective3100" />
		
		
		
		
	
		
		
	
		
		
		
		
		
	
	
	

		
		
		
	
			
			
		
				
				
				
				
				
			
	
	
</defs>
<sodipodi:namedview
   inkscape:window-height="1360"
   inkscape:window-width="1278"
   inkscape:pageshadow="2"
   inkscape:pageopacity="0.0"
   guidetolerance="10.0"
   gridtolerance="10.0"
   objecttolerance="10.0"
   borderopacity="1.0"
   bordercolor="#666666"
   pagecolor="#ffffff"
   id="base"
   showgrid="false"
   inkscape:zoom="1.9049022"
   inkscape:cx="96.067924"
   inkscape:cy="165.88778"
   inkscape:window-x="1913"
   inkscape:window-y="0"
   inkscape:current-layer="layer3"
   showguides="true"
   inkscape:guide-bbox="true"
   inkscape:showpageshadow="2"
   inkscape:pagecheckerboard="0"
   inkscape:deskcolor="#d1d1d1"
   inkscape:window-maximized="0" />
<g
   inkscape:groupmode="layer"
   id="layer3"
   inkscape:label="Skeleton"
   style="display:inline"
   transform="translate(-121.94541,-322.46856)"><g
     id="Sacrum"
     inkscape:label="Sacrum">
		<path
   style="fill:#f9e3b7;stroke:#967348;stroke-width:0.3218"
   id="path593"
   d="m 215.167,346.926 c 1.5,-0.815 2.696,-2.308 3.88,-3.331 3.02,-2.604 5.527,0.485 6.585,3.407 1.543,4.255 2.068,9.056 1.016,13.488 -0.384,1.624 -0.519,3.139 -2.193,3.684 -1.364,0.445 -3.208,0.202 -4.504,0.876 -0.844,0.441 -1.559,1.667 -2.004,2.474 -1.09,1.965 -0.83,3.723 -1.532,5.721 -0.648,1.852 -1.962,3.242 -3.794,4.068 -1.685,0.76 -3.664,2.306 -5.336,2.757 -0.636,1.858 -0.444,2.571 -2.522,2.661 -1.977,0.085 -3.922,0.223 -5.864,0 -1.944,-0.223 -2.444,-0.47 -3.442,-1.976 -1.692,-2.555 -6.592,-1.052 -7.687,-4.47 -1.057,-3.294 0.097,-7.015 -2.183,-10.013 -1.32,-1.735 -3.159,-1.97 -5.163,-1.84 -1.811,0.118 -2.936,0.209 -3.538,-1.673 -1.457,-4.549 -0.792,-9.993 1.558,-14.132 1.612,-2.841 5.653,-4.695 8.422,-2.598 4.084,3.093 8.613,4.362 13.789,4.339 2.084,-0.01 4.356,-0.243 6.603,-0.696 2.816,-0.571 5.591,-1.487 7.909,-2.746 z m -23.91,14.299 c -1.82,-0.345 -3.877,0.67 -4.858,2.202 0.712,-0.672 1.684,-1.015 2.353,-1.438 -0.224,0.141 2.521,2.737 3.7,2.106 1.482,-0.794 -0.024,-2.65 -1.195,-2.87 z m 0.357,6.724 c 2.052,0.099 1.25,-1.993 -0.204,-2.34 -1.106,-0.262 -2.888,0.72 -3.858,0.49 1.401,0.331 2.622,1.78 4.062,1.85 z m 1.041,2.746 c -0.884,-0.457 -2.435,-1.227 -3.405,-0.806 1.192,0.512 3.046,3.983 4.506,3.234 2.693,-1.381 -3.113,-3.422 -3.946,-3.377 m 3.799,5.882 c -0.052,-1.811 -3.031,-1.752 -2.012,0.106 0.487,0.888 2.051,1.28 2.012,-0.106 z m 18.599,-11.763 c 0.687,-0.785 1.574,-1.18 2.342,-1.871 0.708,0.465 1.792,1.19 2.693,1.613 -0.39,-0.307 -1.058,-0.996 -1.536,-1.257 -1.269,-0.691 -3.737,-1.749 -5.198,-0.959 -0.748,0.404 -1.503,1.585 -0.875,2.415 0.8,1.055 2.615,-0.05 3.522,-0.32 m 1.879,2.613 c -0.97,0.229 -2.751,-0.752 -3.858,-0.49 -1.452,0.347 -2.254,2.439 -0.202,2.34 1.439,-0.07 2.661,-1.519 4.06,-1.85 z m -2.257,3.648 c -0.834,-0.045 -6.639,1.996 -3.946,3.377 1.459,0.749 3.312,-2.722 4.504,-3.234 -0.97,-0.421 -2.521,0.349 -3.404,0.806 m 1.059,5.038 c 1.02,-1.858 -1.96,-1.917 -2.011,-0.106 -0.041,1.386 1.522,0.994 2.011,0.106 z" />
		<g
   id="g595">
			<path
   style="fill:#dcc06d"
   id="path597"
   d="m 191.233,359.975 c 0.61,-0.203 1.098,-0.382 1.489,-1.039 0.187,-0.316 0.626,-2.252 0.446,-2.54 0.563,0.899 -0.029,2.183 0.663,3.033 0.733,0.905 2.605,0.91 3.659,1.03 1.766,0.204 6.225,0.952 6.487,-1.795 -0.01,0.634 -0.015,1.274 0.028,1.908 3.161,0.616 1.735,-3.181 0.768,-2.267 -0.062,-0.134 -0.196,-0.733 -0.203,-0.845 1.453,-0.023 2.908,-1.089 4.322,-1.574 -0.431,1.042 -3.27,1.188 -2.453,2.556 0.039,-0.097 0.151,-0.358 0.201,-0.436 0,0.593 0.213,1.161 0.601,1.616 0.909,-0.287 0.352,-1.087 0.384,-1.853 0.101,0.938 0.958,1.276 1.821,1.478 0.192,0.046 0.35,-2.604 0.438,-2.821 0.312,-0.771 1.137,-1.321 1.617,-2.031 -0.521,0.771 -1.209,2.255 -1.229,3.188 -0.04,1.751 1.182,1.779 2.636,2.215 1.943,0.581 5.038,1.507 5.851,3.566 -0.803,-0.217 -1.506,-0.649 -2.183,-1.075 0.71,0.827 1.44,1.838 1.943,2.848 -1.497,-0.774 -2.519,-2.538 -4.065,-3.294 -1.156,-0.567 -3.79,-1.207 -5.063,-0.563 -1.865,0.944 -0.173,2.329 -0.6,3.537 1.821,2.136 6.398,-1.208 7.833,1.835 -1.393,-0.627 -2.726,-1.053 -4.244,-1.123 -0.981,-0.045 -4.372,0.934 -2.163,2.142 -0.102,0.098 -0.245,0.372 -0.335,0.476 0.561,0.171 0.781,0.571 0.563,1.11 1.209,-0.172 2.988,-0.544 4.112,0.072 1.811,0.995 0.025,1.826 0.569,2.632 -0.934,-1.384 -2.097,-2.645 -3.935,-2.399 -1.073,0.144 -3.649,1.417 -3.226,2.819 0.331,1.076 1.898,0.749 2.79,0.981 0.591,0.153 2.803,1.589 3.208,1.467 -0.499,0.149 -0.945,0.395 -1.307,0.73 -1.011,-1.487 -5.899,-2.139 -5.311,0.652 0.425,2.008 3.311,1.985 4.624,0.972 -1.602,1.236 -3.504,1.755 -5.105,2.883 -0.143,-0.009 -0.211,-0.1 -0.384,-0.091 -0.254,0.61 -0.294,1.343 -0.256,1.992 -1.374,-0.398 -1.133,-3.366 -0.749,-4.452 -0.598,-0.112 -1.029,0.138 -1.167,0.716 -0.062,-0.089 -0.122,-0.172 -0.181,-0.348 -0.147,0.228 -0.561,0.562 -0.683,0.93 0.063,-0.445 -0.032,-0.919 0.082,-1.341 -1.565,-0.006 -4.834,0.754 -6.057,-0.299 -0.102,0.472 -0.203,1.039 -0.277,1.541 -0.367,-0.646 -0.21,-1.409 -0.27,-2.147 -0.527,-0.138 -0.954,-0.474 -1.234,-0.954 1.801,0.684 3.709,1.494 5.858,1.166 1.182,-0.18 3.003,-0.283 3.915,-1.16 0.518,-0.498 0.755,-0.853 0.631,-1.594 -0.109,-0.645 -1.543,-1.471 -1.519,-1.251 0.066,0.573 -0.02,1.107 -0.367,1.466 -0.853,-2.904 -6.194,-1.199 -8.504,-2.057 0.375,-1.895 -6.348,-3.118 -7.306,-2.845 2.806,-1.952 4.815,0.776 7.368,1.138 -0.247,-0.813 -0.406,-1.718 -0.284,-2.623 0.283,1.105 0.475,2.707 1.276,3.4 0.123,-0.188 0.334,-0.352 0.52,-0.471 1.179,1.27 2.803,1.343 4.448,1.238 0.59,-0.037 6.21,-1.703 6.022,-1.976 -0.618,-0.896 -0.778,-2.191 -0.189,-3.148 -0.518,0.254 -1.124,0.217 -1.28,-0.38 0.168,0.015 0.451,-0.021 0.631,-0.029 -0.149,0.025 -0.294,0.014 -0.435,-0.037 -0.032,-0.105 -0.062,-0.212 -0.087,-0.319 -0.066,-0.073 -0.06,-0.07 0.018,0.01 -2.735,0.565 -6.935,2.262 -9.759,0.327 0.047,0.044 0.095,0.085 0.145,0.125 -1.639,-0.822 -4.018,-1.288 -5.851,-1.05 0.94,-0.122 3.159,-0.08 3.947,-0.471 1.125,-0.56 0.449,-1.334 0.889,-2.369 -0.001,0.879 0.064,2.18 1.006,2.455 0.794,0.231 1.17,-0.126 0.977,-1.083 0.587,2.895 3.496,2.1 5.785,1.8 0.99,-0.129 2.355,-0.504 3.017,-1.316 1.021,-1.249 -0.194,-2.268 0.433,-3.55 -4.271,1.425 -8.556,-0.289 -12.813,-0.604 -3.329,-0.246 -6.608,0.965 -9.134,3.164 -0.118,-0.187 -0.152,-0.301 -0.226,-0.505 1.628,-1.528 3.902,-2.194 5.952,-2.934 0.161,-0.058 0.315,-0.107 0.461,-0.155 z" />
			<path
   style="fill:#dcc06d"
   id="path599"
   d="m 223.329,345.422 c -1.356,0.928 -2.452,2.159 -3.787,3.083 -0.813,0.562 -1.884,0.863 -2.647,1.249 1.544,-0.401 4.882,-1.352 5.677,-2.737 0.096,0.189 0.267,0.779 0.312,1.021 -0.984,0.718 -2.175,1.007 -3.112,1.766 1.278,-0.079 2.709,-0.815 3.871,-1.363 -0.431,0.216 -0.771,0.601 -1.056,0.933 0.851,-0.011 1.527,-0.628 2.285,-0.037 -0.992,-1.69 -1.103,-4.93 -3.434,-5.412 -0.352,0.374 -0.715,0.74 -1.086,1.095 0.322,-0.165 0.873,-0.233 1.244,-0.48 0.064,0.136 0.042,0.328 0.055,0.477 0.597,-0.066 0.971,0.207 1.111,0.786" />
			<path
   style="fill:#dcc06d"
   id="path601"
   d="m 178.743,353.391 c 0.23,-2.4 2.187,-5.14 4.226,-6.404 2.635,-1.632 4.163,0.401 6.72,1.669 -1.375,0.019 -3,-0.955 -4.229,-1.503 0.099,0.151 0.184,0.389 0.274,0.517 -0.974,-0.644 -2.626,-0.26 -2.447,1.177 0.183,1.475 2.69,2.532 3.935,2.65 -1.681,-0.288 -3.21,-0.948 -4.604,-1.874 0.023,0.101 0.066,0.192 0.127,0.274 -1.756,-0.124 -3,1.363 -3.49,2.878 -0.358,1.11 -0.436,1.473 -1.081,2.513 -0.587,0.946 -1.345,2.024 -0.75,3.167 -0.104,-2.166 0.123,-3.951 1.508,-5.824" />
			<path
   style="fill:#dcc06d"
   id="path603"
   d="m 225.608,353.581 c -1.009,0.938 0.211,2.939 0.189,4.221 -0.02,1.077 -0.203,2.714 -0.536,3.438 1.105,-1.994 1.592,-5.614 0.347,-7.659" />
			<path
   style="fill:#dcc06d"
   id="path605"
   d="m 185.953,364.965 c 0.479,0.251 1.037,0.469 1.519,0.674 0.832,-0.233 1.756,-0.425 2.598,-0.679 -0.833,-0.274 -3.11,-0.673 -3.737,0.005" />
			<path
   style="fill:#dcc06d"
   id="path607"
   d="m 188.419,374.072 c 0.81,0.159 1.306,0.812 2.049,0.924 0.366,-0.781 1.22,-1.229 2.068,-1.157 -1.019,-0.571 -3.07,-0.668 -3.927,0.232" />
			<path
   style="fill:#dcc06d"
   id="path609"
   d="m 178.743,361.929 c -0.024,0.71 0.239,1.335 0.758,1.735 0.598,-0.729 2.179,-0.305 2.999,-0.046 1.014,-2.336 4.876,-3.3 6.853,-4.46 -1.482,0.761 -3.209,1.322 -4.769,2.054 -1.22,0.572 -2.311,1.51 -3.739,1.263 0.22,-0.565 0.7,-0.932 1.247,-1.276 -0.928,0.634 -2.974,1.371 -3.704,0.161 0.014,0.545 0.278,1.035 0.734,1.328" />
			<path
   style="fill:#dcc06d"
   id="path611"
   d="m 197.526,357.565 c 1.2,0.896 3.418,0.618 4.728,0.337 -1.148,-0.595 -3.123,-0.337 -4.538,-0.337" />
			<path
   style="fill:#ccb25c"
   id="path613"
   d="m 191.456,364.016 c 2.662,1.629 3.586,-1.413 1.198,-2.41 0.593,0.988 1.122,2.514 -0.44,2.79" />
			<path
   style="fill:#ccb25c"
   id="path615"
   d="m 209.671,361.359 c -2.088,1.331 -0.469,4.63 0.74,3.074 -1.314,-0.048 -1.434,-1.622 -0.74,-2.504" />
			<path
   style="fill:#ccb25c"
   id="path617"
   d="m 202.649,371.795 c 1.058,0.353 5.347,0.566 4.706,-1.503 -0.096,0.171 -0.448,0.474 -0.578,0.716 -0.714,0.033 -1.955,0.44 -2.846,0.55 -0.941,0.116 -2.232,0.121 -3.179,0.427" />
			<path
   style="fill:#ccb25c"
   id="path619"
   d="m 202.838,367.052 c 1.547,0.089 3.989,-0.302 5.295,-1.139 -0.028,-0.188 -0.09,-0.707 -0.162,-0.892 -0.299,2.442 -6.78,1.578 -8.485,1.642 1.115,0.41 2.322,0.384 3.542,0.389" />
			<path
   style="fill:#ccb25c"
   id="path621"
   d="m 201.321,361.359 c 0.806,-0.362 7.554,0.212 6.503,-1.84 -0.154,0.367 -0.488,0.537 -0.678,0.826 -0.075,-0.146 -0.1,-0.285 -0.169,-0.438 -1.689,1.756 -5.612,1.234 -7.772,0.855 -0.162,0.099 -0.152,0.234 0.029,0.409" />
			<path
   style="fill:#ccb25c"
   id="path623"
   d="m 212.896,349.786 c 0.015,0.615 0.155,0.91 0.032,1.487 1.646,-2.25 4.831,-3.543 7.309,-4.72 -1.036,0.172 -2.163,0.703 -3.148,0.734 0.567,-1.156 3.25,-2.949 4.51,-3.225 -0.087,-0.325 -0.311,-0.683 -0.597,-0.891 -1.508,1.325 -3.449,2.256 -5.029,3.59 -1.169,0.988 -2.489,1.936 -3.784,2.434 0.122,0.39 0.369,0.568 0.706,0.782" />
			<path
   style="fill:#ccb25c"
   id="path625"
   d="m 184.624,346.75 c -0.718,-0.343 -1.431,-0.203 -1.877,0.332 1.735,0.979 3.578,1.628 5.425,2.295 -0.415,-0.448 -0.909,-0.96 -1.486,-1.233 1.108,1.281 3.473,1.99 5.13,2.33 -0.004,-0.283 -0.119,-0.937 -0.201,-1.229 -2.537,-0.147 -5.204,-1.959 -7.587,-2.685 -0.258,-0.342 0.068,-0.094 0.218,-0.189" />
			<path
   style="fill:#ccb25c"
   id="path627"
   d="m 203.598,377.107 c 0.861,-0.188 1.675,-0.57 2.449,-0.929 -0.358,0.943 -0.177,2.138 -0.168,3.154 -0.1,-0.477 -0.164,-1.622 -0.422,-1.996 -0.408,-0.595 -0.971,0.047 -1.289,-0.607" />
		</g>
	</g></g></svg>
