<?xml version="1.0" encoding="UTF-8" standalone="no"?>
<!-- Generator: Adobe Illustrator 12.0.0, SVG Export Plug-In . SVG Version: 6.00 Build 51448)  -->

<svg
   version="1.0"
   id="Layer_1"
   width="435.68701"
   height="841.89001"
   viewBox="0 0 435.687 841.89"
   overflow="visible"
   enable-background="new 0 0 435.687 841.89"
   xml:space="preserve"
   sodipodi:version="0.32"
   inkscape:version="1.4.2 (f4327f4, 2025-05-13)"
   sodipodi:docname="lower_bones_patella.svg"
   inkscape:output_extension="org.inkscape.output.svg.inkscape"
   style="overflow: visible; display: inline;"
   xmlns:inkscape="http://www.inkscape.org/namespaces/inkscape"
   xmlns:sodipodi="http://sodipodi.sourceforge.net/DTD/sodipodi-0.dtd"
   xmlns="http://www.w3.org/2000/svg"
   xmlns:svg="http://www.w3.org/2000/svg"
   xmlns:rdf="http://www.w3.org/1999/02/22-rdf-syntax-ns#"
   xmlns:cc="http://creativecommons.org/ns#"
   xmlns:dc="http://purl.org/dc/elements/1.1/"><metadata
   id="metadata3098"><rdf:RDF><cc:Work
       rdf:about=""><dc:format>image/svg+xml</dc:format><dc:type
         rdf:resource="http://purl.org/dc/dcmitype/StillImage" /></cc:Work><cc:Work
       rdf:about=""><dc:format>image/svg+xml</dc:format><dc:type
         rdf:resource="http://purl.org/dc/dcmitype/StillImage" /></cc:Work></rdf:RDF></metadata><defs
   id="defs3096"><inkscape:perspective
   sodipodi:type="inkscape:persp3d"
   inkscape:vp_x="0 : 420.94501 : 1"
   inkscape:vp_y="0 : 1000 : 0"
   inkscape:vp_z="435.68701 : 420.94501 : 1"
   inkscape:persp3d-origin="217.84351 : 280.63 : 1"
   id="perspective3100" />
		
		
		
		
	
		
		
	
		
		
		
		
		
	
	
	

		
		
		
	
			
			
		
				
				
				
				
				
			
	
	
</defs>
<sodipodi:namedview
   inkscape:window-height="1369"
   inkscape:window-width="2560"
   inkscape:pageshadow="2"
   inkscape:pageopacity="0.0"
   guidetolerance="10.0"
   gridtolerance="10.0"
   objecttolerance="10.0"
   borderopacity="1.0"
   bordercolor="#666666"
   pagecolor="#ffffff"
   id="base"
   showgrid="false"
   inkscape:zoom="1.9049022"
   inkscape:cx="217.85895"
   inkscape:cy="487.95156"
   inkscape:window-x="-8"
   inkscape:window-y="-8"
   inkscape:current-layer="layer3"
   showguides="true"
   inkscape:guide-bbox="true"
   inkscape:showpageshadow="2"
   inkscape:pagecheckerboard="0"
   inkscape:deskcolor="#d1d1d1"
   inkscape:window-maximized="1" />
<g
   inkscape:groupmode="layer"
   id="layer3"
   inkscape:label="Skeleton"
   style="display: inline;"><g
     style="overflow: visible; display: inline;"
     id="PatellaRight"
     inkscape:label="Patella">
	<path
   d="M 180.755,584.773 C 176.057,580.745 171.14,579.519 166.197,583.417 C 164.732,584.572 161.946,585.603 160.966,587.046 C 160.016,588.445 159.417,591.524 159.566,593.161 C 159.798,595.716 162.236,598.013 163.851,599.926 C 165.309,601.652 167.233,604.181 169.484,604.699 C 175.009,605.974 179.72,602.08 182.161,597.714 C 183.419,595.465 184.621,594.119 184.763,591.553 C 184.923,588.652 183.122,586.804 180.755,584.773 z"
   id="path2389"
   style="fill: rgb(243, 212, 140); stroke: rgb(150, 115, 72); stroke-width: 0.3218;" />
	<path
   d="M 175.25,603.838 C 167.735,607.591 158.051,592.49 163.617,590.717 C 163.281,592.271 165.451,595.545 167.075,593.71 C 168.249,592.381 165.356,590.648 164.665,589.916 C 164.951,589.666 165.464,589.48 165.87,589.427 C 166.834,592.326 171.205,590.651 167.91,588.329 C 168.781,587.748 172.318,589.897 173.688,590.14 C 175.762,590.502 178.421,591.02 179.635,588.864 C 179.092,588.372 178.461,587.647 178.073,586.974 C 180.269,586.087 181.853,587.484 183.584,589.153 C 185.474,590.974 185.03,592.341 183.901,594.706 C 182.231,598.198 178.742,602.094 175.25,603.838 z"
   id="path2391"
   style="fill: rgb(220, 192, 109);" />
	<path
   d="M 169.758,603.084 C 171.919,604.178 176.742,601.402 175.679,598.871 C 176.772,598.034 177.768,596.954 178.817,596.137 C 178.899,596.414 179.047,596.657 179.125,596.896 C 182.446,596.181 179.058,593.287 177.909,592.371 C 178.025,591.638 178.177,590.966 178.386,590.251 C 182.225,590.203 179.716,586.875 178.534,585.686 C 177.992,585.896 177.516,585.76 176.935,585.88 C 176.979,585.744 177.436,584.795 177.509,584.667 C 179.73,586.252 183.671,588.242 183.38,591.548 C 183.009,595.777 180.041,599.708 176.784,602.012 C 172.533,605.019 167.662,605.678 165.225,599.92 C 167.913,599.01 168.146,604.368 171.366,602.548"
   id="path2393"
   style="fill: rgb(204, 178, 92);" />
</g><g
     style="overflow: visible; display: inline;"
     id="PatellaLeft"
     inkscape:label="Patella">
	<path
   d="M 237.796,584.717 C 233.097,580.689 228.182,579.463 223.237,583.361 C 221.775,584.516 218.986,585.547 218.008,586.99 C 217.056,588.389 216.458,591.468 216.607,593.105 C 216.84,595.66 219.278,597.957 220.892,599.87 C 222.351,601.596 224.275,604.125 226.526,604.643 C 232.051,605.918 236.76,602.024 239.203,597.658 C 240.461,595.409 241.664,594.063 241.806,591.497 C 241.963,588.595 240.162,586.747 237.796,584.717 z"
   id="path2397"
   style="fill: rgb(243, 212, 140); stroke: rgb(150, 115, 72); stroke-width: 0.3218;" />
	<path
   d="M 232.29,603.781 C 224.775,607.534 215.093,592.433 220.657,590.66 C 220.322,592.214 222.491,595.489 224.114,593.653 C 225.29,592.324 222.395,590.591 221.704,589.859 C 221.99,589.609 222.504,589.423 222.909,589.371 C 223.874,592.269 228.246,590.594 224.95,588.272 C 225.819,587.691 229.356,589.84 230.728,590.083 C 232.801,590.445 235.46,590.963 236.674,588.807 C 236.13,588.315 235.498,587.59 235.112,586.918 C 237.306,586.031 238.891,587.427 240.624,589.096 C 242.514,590.917 242.068,592.284 240.939,594.649 C 239.27,598.142 235.783,602.038 232.29,603.781 z"
   id="path2399"
   style="fill: rgb(220, 192, 109);" />
	<path
   d="M 226.799,603.027 C 228.959,604.121 233.781,601.345 232.72,598.815 C 233.814,597.977 234.81,596.897 235.857,596.081 C 235.94,596.357 236.087,596.6 236.167,596.839 C 239.487,596.124 236.1,593.23 234.952,592.314 C 235.067,591.581 235.218,590.91 235.427,590.194 C 239.267,590.146 236.756,586.818 235.574,585.629 C 235.032,585.839 234.556,585.703 233.976,585.823 C 234.019,585.687 234.478,584.738 234.55,584.61 C 236.77,586.195 240.712,588.185 240.421,591.491 C 240.048,595.72 237.081,599.651 233.824,601.955 C 229.574,604.962 224.702,605.621 222.266,599.864 C 224.953,598.953 225.186,604.311 228.406,602.491"
   id="path2401"
   style="fill: rgb(204, 178, 92);" />
</g></g></svg>
