<?xml version="1.0" encoding="UTF-8" standalone="no"?>
<!-- Generator: Adobe Illustrator 12.0.0, SVG Export Plug-In . SVG Version: 6.00 Build 51448)  -->

<svg
   version="1.0"
   id="Layer_1"
   width="157.45488"
   height="446.52948"
   viewBox="0 0 157.45488 446.52947"
   overflow="visible"
   enable-background="new 0 0 435.687 841.89"
   xml:space="preserve"
   sodipodi:version="0.32"
   inkscape:version="1.4.2 (f4327f4, 2025-05-13)"
   sodipodi:docname="lower_bones_tibia.svg"
   inkscape:output_extension="org.inkscape.output.svg.inkscape"
   style="display:inline;overflow:visible"
   xmlns:inkscape="http://www.inkscape.org/namespaces/inkscape"
   xmlns:sodipodi="http://sodipodi.sourceforge.net/DTD/sodipodi-0.dtd"
   xmlns="http://www.w3.org/2000/svg"
   xmlns:svg="http://www.w3.org/2000/svg"
   xmlns:rdf="http://www.w3.org/1999/02/22-rdf-syntax-ns#"
   xmlns:cc="http://creativecommons.org/ns#"
   xmlns:dc="http://purl.org/dc/elements/1.1/"><metadata
   id="metadata3098"><rdf:RDF><cc:Work
       rdf:about=""><dc:format>image/svg+xml</dc:format><dc:type
         rdf:resource="http://purl.org/dc/dcmitype/StillImage" /></cc:Work><cc:Work
       rdf:about=""><dc:format>image/svg+xml</dc:format><dc:type
         rdf:resource="http://purl.org/dc/dcmitype/StillImage" /></cc:Work></rdf:RDF></metadata><defs
   id="defs3096"><inkscape:perspective
   sodipodi:type="inkscape:persp3d"
   inkscape:vp_x="0 : 25.584482 : 1"
   inkscape:vp_y="0 : 1000 : 0"
   inkscape:vp_z="435.68702 : 25.584482 : 1"
   inkscape:persp3d-origin="217.84352 : -114.73053 : 1"
   id="perspective3100" />
		
		
		
		
	
		
		
	
		
		
		
		
		
	
	
	

		
		
		
	
			
			
		
				
				
				
				
				
			
	
	
</defs>
<sodipodi:namedview
   inkscape:window-height="1360"
   inkscape:window-width="1278"
   inkscape:pageshadow="2"
   inkscape:pageopacity="0.0"
   guidetolerance="10.0"
   gridtolerance="10.0"
   objecttolerance="10.0"
   borderopacity="1.0"
   bordercolor="#666666"
   pagecolor="#ffffff"
   id="base"
   showgrid="false"
   inkscape:zoom="1.9049022"
   inkscape:cx="96.067924"
   inkscape:cy="165.88778"
   inkscape:window-x="1913"
   inkscape:window-y="0"
   inkscape:current-layer="layer3"
   showguides="true"
   inkscape:guide-bbox="true"
   inkscape:showpageshadow="2"
   inkscape:pagecheckerboard="0"
   inkscape:deskcolor="#d1d1d1"
   inkscape:window-maximized="0" />
<g
   inkscape:groupmode="layer"
   id="layer3"
   inkscape:label="Skeleton"
   style="display:inline"
   transform="translate(-121.94541,-322.46856)"><g
     style="display:inline;overflow:visible"
     id="TibiaRight"
     inkscape:label="Tibia">
	<path
   d="m 153.748,591.677 c -1.213,2.563 -0.193,7.182 -0.051,9.959 0.193,3.769 2.044,6.459 4.367,9.315 2.713,3.338 4.924,8.374 6.499,12.427 4.457,11.476 4.983,25.45 4.926,37.644 -0.03,6.397 0.458,12.963 1.083,19.287 0.617,6.25 2.122,12.087 3.209,18.255 2.601,14.741 1.397,29.671 1.708,44.549 0.116,5.581 -3.227,11.08 -1.242,16.617 1.563,4.362 7.873,4.551 11.603,6.404 1.48,0.735 2.295,2.353 4.083,2.642 4.836,0.778 7.059,-6.007 7.806,-9.521 1.006,-4.735 -1.775,-8.615 -2.959,-13.115 -0.578,-2.196 -0.424,-4.219 -0.657,-6.375 -0.299,-2.771 -1.43,-5.474 -2.126,-8.185 -1.561,-6.076 -2.569,-12.319 -2.481,-18.608 0.079,-5.609 1.053,-11.303 0.713,-16.908 -0.28,-4.626 -0.851,-9.24 -1.062,-13.921 -0.457,-10.102 -1.598,-20.121 -1.091,-30.155 0.793,-15.703 4.327,-30.654 7.179,-46.023 0.474,-2.549 -0.094,-3.852 -0.646,-6.195 -0.397,-1.685 -0.279,-1.379 -0.079,-3.138 0.204,-1.787 1.234,-1.773 -0.288,-3.567 -3.437,-4.05 -10.172,-0.603 -14.106,0.367 -4.095,1.008 -9.379,1.331 -13.615,1.08 -1.26,-0.077 -12.378,-3.67 -12.773,-2.835 z"
   id="path431"
   style="fill:#f3d48c;stroke:#967348;stroke-width:0.3218" />
	<path
   d="m 189.774,618.452 c 1.121,-2.655 7.147,-14.558 4.003,-17.203 -1.482,-1.247 -5.577,1.628 -6.646,2.956 1.951,-2.426 4.772,-4.687 5.472,-7.871 1.053,-4.792 -2.578,-2.763 -5.597,-2.101 -4.163,0.913 -8.882,1.227 -12.721,3.442 2.945,-0.276 6.083,-1.668 9.101,-1.688 -0.113,1.878 -4.018,3.7 -5.479,4.518 -2.657,1.491 -5.339,2.076 -8.328,2.57 -2.314,0.383 -6.096,0.314 -7.83,2.066 1.407,2.214 3.98,3.471 6.522,3.659 1.423,0.105 6.589,-0.024 7.339,-1.291 -1.938,3.273 -2.195,8.78 2.404,3.908 0.291,1.352 -0.69,1.591 -0.748,2.674 -0.099,1.867 0.155,1.075 0.91,2.942 1.479,3.659 2.052,9.383 1.664,12.97 0.78,-3.769 0.87,-7.328 1.063,-10.81 0.18,-3.241 2.916,-7.492 5.71,-8.929 -0.16,0.356 -0.367,0.745 -0.552,1.111 1.511,-2.112 3.55,-4.55 5.934,-5.68 -0.472,1.96 -9.14,10.848 -6.459,11.771 -0.591,1.861 0.004,4.869 -0.214,6.716 -0.353,2.986 -1.646,6.241 -2.235,9.278 -2.143,11.057 -0.458,22.718 -1.064,33.98 -0.339,6.303 -0.299,12.938 0.043,19.319 0.462,8.606 2.523,17.889 1.555,26.439 -1.09,9.619 1.319,17.887 3.286,27.14 1.016,4.785 7.142,16.229 1.63,20.387 -0.769,-0.937 -1.787,-1.389 -2.704,-0.784 -0.392,-1.688 -0.738,-3.709 -0.968,-5.488 -0.202,2.521 -1.123,3.585 0.34,5.615 0.896,1.241 4.422,4.67 5.676,4.956 -0.396,-0.091 0.511,-13.187 4.64,-10.716 0.837,-5.152 -1.958,-12.493 -3.405,-17.485 -1.234,-4.253 -3.414,-8.361 -3.693,-12.777 -0.643,-10.15 -0.693,-20.113 -1.332,-30.232 -0.768,-12.16 -1.136,-24.041 -1.153,-36.307 -0.011,-7.577 0.16,-15.347 0.794,-22.885 0.424,-5.013 1.081,-11.521 3.042,-16.17 z"
   id="path433"
   style="fill:#dcc06d" />
	<path
   d="m 172.708,626.328 c -0.091,-0.593 -0.347,-0.869 -0.769,-0.83 -0.215,5.463 1.349,12.675 3.647,17.56 -0.076,-3.051 -0.176,-5.861 -0.655,-8.89 -0.303,-1.913 -1.551,-5.883 -1.09,-7.786 0.536,-2.214 3.409,-2.61 2.728,-5.396 -0.781,1.148 -2.57,3.98 -4.506,3.866 -1.603,-0.093 -1.699,-3.043 -4.031,-1.055 -0.193,-0.486 -0.639,-1.11 -0.724,-1.667 1.197,3.769 1.446,7.949 2.912,11.611 -0.126,-2.778 -1.86,-6.773 -0.015,-9.201"
   id="path435"
   style="fill:#dcc06d" />
	<path
   d="m 192.044,598.696 c 0.747,-0.607 2.271,-3.133 1.959,-4.168 -0.663,-2.2 -1.25,-0.534 -2.582,-1.105 3.686,1.583 -4.614,6.538 -5.714,7.838 1.014,-0.813 3.021,-1.066 3.297,0.663 0.283,1.772 -2.493,3.298 -3.672,4.082 -1.837,1.219 -2.72,2.416 -4.281,3.763 3.308,-2.853 6.747,-5.536 10.466,-7.723 -0.119,0.199 -0.177,0.415 -0.173,0.646 0.681,-0.707 1.561,-0.758 2.399,-0.983 0.149,0.531 0.418,1.075 0.436,1.623 -0.23,-1.666 -0.743,-3.654 -2.135,-4.636 z"
   id="path437"
   style="fill:#ccb25c" />
	<path
   d="m 186.296,697.132 c 0.047,6.914 0.991,13.771 1.422,20.654 0.37,5.9 2.233,11.478 2.866,17.141 -0.948,-8.573 -2.143,-17.006 -2.143,-25.646 0,-4.108 1.058,-11.764 -1.341,-15.012 -0.608,1.578 -0.512,3.32 -0.447,5.007"
   id="path439"
   style="fill:#ccb25c" />
	<path
   d="m 187.728,761.499 c 2.161,0.196 3.663,1.889 4.943,3.206 0.123,-1.663 -0.614,-5.002 0.421,-6.451 1.778,-2.491 2.332,0.227 2.207,2.143 3.413,-1.964 0.939,-8.501 -1.153,-10.608 -1.512,4.073 -1.466,9.86 -5.346,12.783"
   id="path441"
   style="fill:#ccb25c" />
	<path
   d="m 178.429,751.843 c -0.815,2.656 -3.313,7.766 1.393,6.749 -0.959,-2.324 -1.423,-4.273 -0.32,-6.749"
   id="path443"
   style="fill:#ccb25c" />
	<path
   d="m 188.529,632.001 c 0.138,-1.604 0.356,-3.172 0.708,-4.679 0.62,-2.658 2.193,-5.052 2.582,-7.736 0.25,-1.743 -0.013,-3.646 0.218,-5.444 0.194,-1.511 0.539,-8.811 2.518,-9.268 -0.436,0.099 -1.351,0.648 -1.706,0.973 3.422,4.877 -3.29,10.241 -4.572,14.535 -1.853,6.206 -1.167,12.802 -1.883,19.159 -1.159,10.284 -0.495,20.742 -0.455,31.028 -0.014,-7.842 0.902,-15.638 1.874,-23.406 0.606,-4.846 0.283,-10.174 0.716,-15.162 z"
   id="path445"
   style="fill:#ccb25c" />
</g><g
     style="display:inline;overflow:visible"
     id="TibiaLeft"
     inkscape:label="Tibia">
	<path
   d="m 247.396,590.918 c 1.194,2.572 0.136,7.183 -0.025,9.96 -0.223,3.766 -2.095,6.443 -4.438,9.281 -2.739,3.316 -4.989,8.335 -6.595,12.377 -4.545,11.44 -5.179,25.412 -5.215,37.604 -0.019,6.396 -0.557,12.959 -1.23,19.277 -0.666,6.246 -2.214,12.071 -3.351,18.229 -2.713,14.721 -1.624,29.661 -2.05,44.531 -0.128,4.469 1.793,10.134 0.575,14.4 -0.476,1.66 -1.571,2.433 -2.908,3.438 -1.408,1.057 -2.587,2.987 -4.065,3.795 -1.713,0.939 -4.025,0.256 -5.96,0.459 -2.184,0.228 -3.888,1.412 -5.646,2.675 -2.301,1.651 -3.944,2.373 -4.756,-0.987 -0.784,-3.241 -1.25,-7.284 -0.58,-10.538 0.942,-4.573 2.821,-8.881 4.272,-13.301 2.762,-8.415 3.265,-18.039 4.372,-26.832 0.832,-6.607 -0.136,-13.575 0.318,-20.268 0.316,-4.621 0.923,-9.232 1.171,-13.912 0.533,-10.097 1.751,-20.108 1.32,-30.145 -0.672,-15.709 -4.091,-30.688 -6.825,-46.076 -0.452,-2.555 0.124,-3.852 0.693,-6.191 0.41,-1.682 0.29,-1.378 0.104,-3.137 -0.19,-1.79 -1.222,-1.783 0.313,-3.564 3.468,-4.024 10.176,-0.524 14.103,0.474 4.088,1.04 9.369,1.403 13.607,1.186 1.261,-0.066 12.406,-3.571 12.796,-2.735 z"
   id="path2371"
   style="fill:#f3d48c;stroke:#967348;stroke-width:0.3218" />
	<path
   d="m 211.166,617.417 c -1.101,-2.666 -7.037,-14.613 -3.871,-17.234 1.491,-1.234 5.564,1.672 6.622,3.008 -1.932,-2.44 -4.737,-4.724 -5.411,-7.913 -1.016,-4.8 2.6,-2.743 5.611,-2.058 4.157,0.946 8.872,1.294 12.694,3.538 -2.94,-0.297 -6.069,-1.712 -9.088,-1.756 0.1,1.878 3.99,3.729 5.443,4.56 2.646,1.51 5.323,2.116 8.309,2.634 2.313,0.401 6.094,0.361 7.815,2.126 -1.426,2.203 -4.01,3.44 -6.552,3.608 -1.423,0.095 -6.589,-0.074 -7.327,-1.346 1.912,3.287 2.127,8.797 -2.435,3.889 -0.301,1.35 0.678,1.596 0.727,2.679 0.085,1.869 -0.165,1.075 -0.932,2.936 -1.508,3.647 -2.124,9.366 -1.764,12.959 -0.75,-3.776 -0.814,-7.336 -0.98,-10.82 -0.154,-3.241 -2.858,-7.513 -5.642,-8.973 0.158,0.357 0.362,0.75 0.544,1.117 -1.496,-2.124 -3.515,-4.577 -5.891,-5.726 0.458,1.964 9.058,10.919 6.371,11.82 0.576,1.868 -0.041,4.869 0.164,6.717 0.329,2.99 1.598,6.254 2.161,9.297 2.061,11.071 0.286,22.722 0.806,33.987 0.29,6.305 0.198,12.94 -0.194,19.318 -0.527,8.603 -2.66,17.87 -1.757,26.427 1.015,9.627 -1.457,17.876 -3.494,27.114 -1.053,4.776 -7.266,16.174 -1.787,20.372 0.774,-0.929 1.798,-1.374 2.711,-0.763 0.403,-1.686 0.766,-3.703 1.011,-5.48 0.182,2.521 1.094,3.594 -0.384,5.612 -0.906,1.234 -4.458,4.635 -5.713,4.913 0.396,-0.088 -0.41,-13.19 -4.559,-10.752 -0.798,-5.158 2.054,-12.478 3.541,-17.459 1.264,-4.242 3.476,-8.335 3.79,-12.749 0.719,-10.144 0.849,-20.107 1.566,-30.222 0.859,-12.152 1.318,-24.03 1.429,-36.296 0.071,-7.577 -0.041,-15.346 -0.619,-22.889 -0.384,-5.018 -0.992,-11.533 -2.915,-16.195 z"
   id="path2373"
   style="fill:#dcc06d" />
	<path
   d="m 228.17,625.423 c 0.094,-0.593 0.354,-0.867 0.774,-0.824 0.175,5.464 -1.445,12.665 -3.781,17.532 0.101,-3.05 0.222,-5.862 0.723,-8.885 0.318,-1.912 1.596,-5.871 1.15,-7.777 -0.52,-2.219 -3.39,-2.637 -2.686,-5.417 0.77,1.154 2.54,3.998 4.474,3.901 1.604,-0.083 1.723,-3.031 4.04,-1.024 0.196,-0.486 0.646,-1.106 0.736,-1.662 -1.224,3.759 -1.506,7.938 -2.999,11.588 0.147,-2.776 1.911,-6.759 0.085,-9.199"
   id="path2375"
   style="fill:#dcc06d" />
	<path
   d="m 209.048,597.644 c -0.742,-0.613 -2.246,-3.149 -1.926,-4.183 0.676,-2.194 1.254,-0.525 2.589,-1.087 -3.698,1.556 4.563,6.573 5.652,7.883 -1.007,-0.821 -3.012,-1.09 -3.302,0.638 -0.296,1.771 2.467,3.317 3.641,4.11 1.828,1.232 2.703,2.437 4.253,3.795 -3.287,-2.877 -6.704,-5.587 -10.408,-7.803 0.117,0.2 0.175,0.416 0.169,0.647 -0.676,-0.711 -1.555,-0.769 -2.391,-1.001 -0.154,0.53 -0.427,1.071 -0.448,1.62 0.243,-1.664 0.772,-3.649 2.171,-4.619 z"
   id="path2377"
   style="fill:#ccb25c" />
	<path
   d="m 214.039,696.121 c -0.1,6.913 -1.096,13.762 -1.581,20.643 -0.414,5.897 -2.32,11.46 -2.999,17.117 1.015,-8.567 2.275,-16.987 2.342,-25.628 0.03,-4.106 -0.968,-11.771 1.455,-15.001 0.595,1.584 0.486,3.324 0.41,5.011"
   id="path2379"
   style="fill:#ccb25c" />
	<path
   d="m 212.115,760.475 c -2.163,0.181 -3.679,1.86 -4.969,3.168 -0.109,-1.664 0.653,-4.997 -0.371,-6.453 -1.758,-2.507 -2.334,0.208 -2.223,2.124 -3.398,-1.989 -0.875,-8.508 1.233,-10.6 1.482,4.088 1.393,9.872 5.249,12.825"
   id="path2381"
   style="fill:#ccb25c" />
	<path
   d="m 221.487,750.892 c 0.793,2.66 3.252,7.788 -1.444,6.738 0.975,-2.319 1.455,-4.265 0.371,-6.747"
   id="path2383"
   style="fill:#ccb25c" />
	<path
   d="m 212.307,630.974 c -0.126,-1.604 -0.33,-3.175 -0.671,-4.683 -0.6,-2.662 -2.154,-5.069 -2.523,-7.756 -0.237,-1.746 0.041,-3.646 -0.175,-5.446 -0.181,-1.513 -0.471,-8.814 -2.447,-9.286 0.434,0.102 1.344,0.658 1.698,0.985 -3.459,4.85 3.21,10.267 4.46,14.569 1.804,6.22 1.068,12.811 1.736,19.173 1.079,10.293 0.334,20.746 0.217,31.03 0.075,-7.84 -0.783,-15.643 -1.695,-23.42 -0.57,-4.849 -0.205,-10.175 -0.6,-15.166 z"
   id="path2385"
   style="fill:#ccb25c" />
</g></g></svg>
