<?xml version="1.0" encoding="UTF-8" standalone="no"?>
<!-- Generator: Adobe Illustrator 12.0.0, SVG Export Plug-In . SVG Version: 6.00 Build 51448)  -->

<svg
   version="1.0"
   id="Layer_1"
   width="435.68701"
   height="841.89001"
   viewBox="0 0 435.687 841.89"
   overflow="visible"
   enable-background="new 0 0 435.687 841.89"
   xml:space="preserve"
   sodipodi:version="0.32"
   inkscape:version="1.4.2 (f4327f4, 2025-05-13)"
   sodipodi:docname="lower_bones_coccygis.svg"
   inkscape:output_extension="org.inkscape.output.svg.inkscape"
   style="overflow: visible; display: inline;"
   xmlns:inkscape="http://www.inkscape.org/namespaces/inkscape"
   xmlns:sodipodi="http://sodipodi.sourceforge.net/DTD/sodipodi-0.dtd"
   xmlns="http://www.w3.org/2000/svg"
   xmlns:svg="http://www.w3.org/2000/svg"
   xmlns:rdf="http://www.w3.org/1999/02/22-rdf-syntax-ns#"
   xmlns:cc="http://creativecommons.org/ns#"
   xmlns:dc="http://purl.org/dc/elements/1.1/"><metadata
   id="metadata3098"><rdf:RDF><cc:Work
       rdf:about=""><dc:format>image/svg+xml</dc:format><dc:type
         rdf:resource="http://purl.org/dc/dcmitype/StillImage" /></cc:Work><cc:Work
       rdf:about=""><dc:format>image/svg+xml</dc:format><dc:type
         rdf:resource="http://purl.org/dc/dcmitype/StillImage" /></cc:Work></rdf:RDF></metadata><defs
   id="defs3096"><inkscape:perspective
   sodipodi:type="inkscape:persp3d"
   inkscape:vp_x="0 : 420.94501 : 1"
   inkscape:vp_y="0 : 1000 : 0"
   inkscape:vp_z="435.68701 : 420.94501 : 1"
   inkscape:persp3d-origin="217.84351 : 280.63 : 1"
   id="perspective3100" />
		
		
		
		
	
		
		
	
		
		
		
		
		
	
	
	

		
		
		
	
			
			
		
				
				
				
				
				
			
	
	
</defs>
<sodipodi:namedview
   inkscape:window-height="1369"
   inkscape:window-width="2560"
   inkscape:pageshadow="2"
   inkscape:pageopacity="0.0"
   guidetolerance="10.0"
   gridtolerance="10.0"
   objecttolerance="10.0"
   borderopacity="1.0"
   bordercolor="#666666"
   pagecolor="#ffffff"
   id="base"
   showgrid="false"
   inkscape:zoom="1.9049022"
   inkscape:cx="217.85895"
   inkscape:cy="385.05914"
   inkscape:window-x="-8"
   inkscape:window-y="-8"
   inkscape:current-layer="layer3"
   showguides="true"
   inkscape:guide-bbox="true"
   inkscape:showpageshadow="2"
   inkscape:pagecheckerboard="0"
   inkscape:deskcolor="#d1d1d1"
   inkscape:window-maximized="1" />
<g
   inkscape:groupmode="layer"
   id="layer3"
   inkscape:label="Skeleton"
   style="display: inline;"><g
     id="Coccyx"
     inkscape:label="Coccyx">
		<path
   style="fill: rgb(243, 212, 140); stroke: rgb(150, 115, 72); stroke-width: 0.3218;"
   id="path579"
   d="M 198.249,385.062 C 198.284,385.521 197.852,385.887 197.926,386.385 C 197.958,386.602 198.614,387.705 198.887,387.568 C 200.93,386.533 199.059,389.198 199.116,389.426 C 199.338,390.313 200.062,390.253 200.849,390.157 C 200.868,390.689 200.443,390.693 200.329,391.073 C 199.918,392.452 201.205,394.891 202.88,394.267 C 203.509,394.033 204.038,393.022 204.192,392.416 C 204.399,391.61 203.68,390.975 203.977,390.425 C 203.921,390.529 204.589,390.313 204.627,390.29 C 204.939,390.102 205.15,389.573 205.193,389.231 C 205.327,388.135 203.292,388.342 203.983,387.483 C 204.403,386.96 205.263,387.371 205.63,386.614 C 205.995,385.86 205.302,384.981 204.584,384.762 C 205.404,383.722 206.82,385.401 207.675,383.963 C 208.358,382.815 208.733,381.924 208.223,380.772 C 206.753,380.867 205.177,381.49 203.692,381.817 C 202.082,382.173 200.745,381.844 199.126,381.821 C 198.337,381.81 197.601,381.817 196.846,381.687 C 195.825,381.512 194.639,380.848 194.394,382.156 C 194.251,382.926 194.988,384.77 195.666,385.183 C 196.387,385.618 197.473,385.004 198.249,385.062 z" />
		<path
   style="fill: rgb(220, 192, 109);"
   id="path581"
   d="M 201.137,392.282 C 202.294,392.061 201.727,393.636 202.749,392.955 C 203.438,392.497 203.078,391.909 202.357,391.856 C 202.732,391.152 202.041,390.877 201.556,390.696 C 202.102,390.889 203.369,390.996 203.399,390.156 C 202.795,390.2 202.294,390.021 201.714,390.002 C 202.815,389.843 202.964,389.668 203.523,389.03 C 203.476,389.05 203.438,389.04 203.41,389.002 C 203.495,389.042 203.34,388.748 203.397,388.821 C 202.959,388.639 202.979,388.779 202.86,388.275 C 201.743,388.364 202.006,388.614 201.666,389.565 C 201.713,388.547 201.211,388.351 200.487,387.823 C 200.764,387.504 201.783,387.559 202.327,387.43 C 202.327,387.005 202.294,386.833 201.855,386.646 C 202.742,386.44 204.129,386.179 203.527,384.926 C 202.062,384.845 200.485,385.234 199.169,384.631 C 200.323,385.119 201.965,384.452 203.136,384.205 C 203.036,383.924 203.089,383.637 203.004,383.337 C 203.112,383.603 203.402,383.894 203.52,384.088 C 203.576,383.963 203.665,383.85 203.714,383.753 C 204.719,384.624 205.357,382.685 205.427,381.996 C 205.706,382.805 205.391,383.983 206.66,383.465 C 207.055,383.304 208.002,382.13 208.053,381.699 C 207.953,382.553 207.906,383.427 207.198,383.967 C 206.372,384.595 205.624,383.683 204.787,384.211 C 203.827,384.816 204.367,384.803 204.764,385.405 C 205.887,387.118 202.45,386.637 203.44,388.368 C 203.922,388.386 204.687,388.6 204.771,389.204 C 204.867,389.907 203.986,389.922 203.713,390.303 C 203.389,390.754 203.734,391.31 203.718,391.846 C 203.698,392.471 203.325,393.663 202.636,393.843 C 201.83,394.054 200.843,392.888 201.271,392.145" />
		<path
   style="fill: rgb(204, 178, 92);"
   id="path583"
   d="M 196.31,382.09 C 197.507,381.52 197.977,383.085 198.394,383.823 C 198.292,383.253 197.939,382.758 197.798,382.248 C 198.47,382.377 198.959,382.242 199.62,382.225 C 198.638,382.221 197.654,381.908 196.711,381.956" />
		<path
   style="fill: rgb(204, 178, 92);"
   id="path585"
   d="M 199.93,385.174 C 201.091,385.021 202.415,385.541 203.53,385.359 C 203.521,385.529 203.609,385.797 203.579,385.966 C 204.33,385.623 204.095,385.118 203.549,384.908 C 202.8,384.618 200.984,385.316 200.199,385.444" />
		<path
   style="fill: rgb(204, 178, 92);"
   id="path587"
   d="M 203.282,388.125 C 202.602,387.792 201.554,387.998 200.985,388.259 C 201.834,388.939 203.09,388.102 204.07,388.644 C 203.997,388.203 203.424,388.075 203.014,387.856" />
		<path
   style="fill: rgb(204, 178, 92);"
   id="path589"
   d="M 203.148,390.538 C 202.457,390.447 201.864,390.742 201.184,390.666 C 201.682,390.993 202.314,391.237 202.853,391.463 C 202.862,391.048 202.772,390.691 202.747,390.27" />
	</g></g></svg>
