<?xml version="1.0" encoding="UTF-8" standalone="no"?>
<!-- Generator: Adobe Illustrator 12.0.0, SVG Export Plug-In . SVG Version: 6.00 Build 51448)  -->

<svg
   version="1.0"
   id="Layer_1"
   width="435.68701"
   height="841.89001"
   viewBox="0 0 435.687 841.89"
   overflow="visible"
   enable-background="new 0 0 435.687 841.89"
   xml:space="preserve"
   sodipodi:version="0.32"
   inkscape:version="1.4.2 (f4327f4, 2025-05-13)"
   sodipodi:docname="lower_bones_sacrum.svg"
   inkscape:output_extension="org.inkscape.output.svg.inkscape"
   style="overflow: visible; display: inline;"
   xmlns:inkscape="http://www.inkscape.org/namespaces/inkscape"
   xmlns:sodipodi="http://sodipodi.sourceforge.net/DTD/sodipodi-0.dtd"
   xmlns="http://www.w3.org/2000/svg"
   xmlns:svg="http://www.w3.org/2000/svg"
   xmlns:rdf="http://www.w3.org/1999/02/22-rdf-syntax-ns#"
   xmlns:cc="http://creativecommons.org/ns#"
   xmlns:dc="http://purl.org/dc/elements/1.1/"><metadata
   id="metadata3098"><rdf:RDF><cc:Work
       rdf:about=""><dc:format>image/svg+xml</dc:format><dc:type
         rdf:resource="http://purl.org/dc/dcmitype/StillImage" /></cc:Work><cc:Work
       rdf:about=""><dc:format>image/svg+xml</dc:format><dc:type
         rdf:resource="http://purl.org/dc/dcmitype/StillImage" /></cc:Work></rdf:RDF></metadata><defs
   id="defs3096"><inkscape:perspective
   sodipodi:type="inkscape:persp3d"
   inkscape:vp_x="0 : 420.94501 : 1"
   inkscape:vp_y="0 : 1000 : 0"
   inkscape:vp_z="435.68701 : 420.94501 : 1"
   inkscape:persp3d-origin="217.84351 : 280.63 : 1"
   id="perspective3100" />
		
		
		
		
	
		
		
	
		
		
		
		
		
	
	
	

		
		
		
	
			
			
		
				
				
				
				
				
			
	
	
</defs>
<sodipodi:namedview
   inkscape:window-height="1369"
   inkscape:window-width="2560"
   inkscape:pageshadow="2"
   inkscape:pageopacity="0.0"
   guidetolerance="10.0"
   gridtolerance="10.0"
   objecttolerance="10.0"
   borderopacity="1.0"
   bordercolor="#666666"
   pagecolor="#ffffff"
   id="base"
   showgrid="false"
   inkscape:zoom="1.9049022"
   inkscape:cx="217.85895"
   inkscape:cy="385.05914"
   inkscape:window-x="-8"
   inkscape:window-y="-8"
   inkscape:current-layer="layer3"
   showguides="true"
   inkscape:guide-bbox="true"
   inkscape:showpageshadow="2"
   inkscape:pagecheckerboard="0"
   inkscape:deskcolor="#d1d1d1"
   inkscape:window-maximized="1" />
<g
   inkscape:groupmode="layer"
   id="layer3"
   inkscape:label="Skeleton"
   style="display: inline;"><g
     id="Sacrum"
     inkscape:label="Sacrum">
		<path
   style="fill: rgb(249, 227, 183); stroke: rgb(150, 115, 72); stroke-width: 0.3218;"
   id="path593"
   d="M 215.167,346.926 C 216.667,346.111 217.863,344.618 219.047,343.595 C 222.067,340.991 224.574,344.08 225.632,347.002 C 227.175,351.257 227.7,356.058 226.648,360.49 C 226.264,362.114 226.129,363.629 224.455,364.174 C 223.091,364.619 221.247,364.376 219.951,365.05 C 219.107,365.491 218.392,366.717 217.947,367.524 C 216.857,369.489 217.117,371.247 216.415,373.245 C 215.767,375.097 214.453,376.487 212.621,377.313 C 210.936,378.073 208.957,379.619 207.285,380.07 C 206.649,381.928 206.841,382.641 204.763,382.731 C 202.786,382.816 200.841,382.954 198.899,382.731 C 196.955,382.508 196.455,382.261 195.457,380.755 C 193.765,378.2 188.865,379.703 187.77,376.285 C 186.713,372.991 187.867,369.27 185.587,366.272 C 184.267,364.537 182.428,364.302 180.424,364.432 C 178.613,364.55 177.488,364.641 176.886,362.759 C 175.429,358.21 176.094,352.766 178.444,348.627 C 180.056,345.786 184.097,343.932 186.866,346.029 C 190.95,349.122 195.479,350.391 200.655,350.368 C 202.739,350.358 205.011,350.125 207.258,349.672 C 210.074,349.101 212.849,348.185 215.167,346.926 z M 191.257,361.225 C 189.437,360.88 187.38,361.895 186.399,363.427 C 187.111,362.755 188.083,362.412 188.752,361.989 C 188.528,362.13 191.273,364.726 192.452,364.095 C 193.934,363.301 192.428,361.445 191.257,361.225 z M 191.614,367.949 C 193.666,368.048 192.864,365.956 191.41,365.609 C 190.304,365.347 188.522,366.329 187.552,366.099 C 188.953,366.43 190.174,367.879 191.614,367.949 z M 192.655,370.695 C 191.771,370.238 190.22,369.468 189.25,369.889 C 190.442,370.401 192.296,373.872 193.756,373.123 C 196.449,371.742 190.643,369.701 189.81,369.746 M 193.609,375.628 C 193.557,373.817 190.578,373.876 191.597,375.734 C 192.084,376.622 193.648,377.014 193.609,375.628 z M 212.208,363.865 C 212.895,363.08 213.782,362.685 214.55,361.994 C 215.258,362.459 216.342,363.184 217.243,363.607 C 216.853,363.3 216.185,362.611 215.707,362.35 C 214.438,361.659 211.97,360.601 210.509,361.391 C 209.761,361.795 209.006,362.976 209.634,363.806 C 210.434,364.861 212.249,363.756 213.156,363.486 M 215.035,366.099 C 214.065,366.328 212.284,365.347 211.177,365.609 C 209.725,365.956 208.923,368.048 210.975,367.949 C 212.414,367.879 213.636,366.43 215.035,366.099 z M 212.778,369.747 C 211.944,369.702 206.139,371.743 208.832,373.124 C 210.291,373.873 212.144,370.402 213.336,369.89 C 212.366,369.469 210.815,370.239 209.932,370.696 M 210.991,375.734 C 212.011,373.876 209.031,373.817 208.98,375.628 C 208.939,377.014 210.502,376.622 210.991,375.734 z" />
		<g
   id="g595">
			<path
   style="fill: rgb(220, 192, 109);"
   id="path597"
   d="M 191.233,359.975 C 191.843,359.772 192.331,359.593 192.722,358.936 C 192.909,358.62 193.348,356.684 193.168,356.396 C 193.731,357.295 193.139,358.579 193.831,359.429 C 194.564,360.334 196.436,360.339 197.49,360.459 C 199.256,360.663 203.715,361.411 203.977,358.664 C 203.967,359.298 203.962,359.938 204.005,360.572 C 207.166,361.188 205.74,357.391 204.773,358.305 C 204.711,358.171 204.577,357.572 204.57,357.46 C 206.023,357.437 207.478,356.371 208.892,355.886 C 208.461,356.928 205.622,357.074 206.439,358.442 C 206.478,358.345 206.59,358.084 206.64,358.006 C 206.64,358.599 206.853,359.167 207.241,359.622 C 208.15,359.335 207.593,358.535 207.625,357.769 C 207.726,358.707 208.583,359.045 209.446,359.247 C 209.638,359.293 209.796,356.643 209.884,356.426 C 210.196,355.655 211.021,355.105 211.501,354.395 C 210.98,355.166 210.292,356.65 210.272,357.583 C 210.232,359.334 211.454,359.362 212.908,359.798 C 214.851,360.379 217.946,361.305 218.759,363.364 C 217.956,363.147 217.253,362.715 216.576,362.289 C 217.286,363.116 218.016,364.127 218.519,365.137 C 217.022,364.363 216,362.599 214.454,361.843 C 213.298,361.276 210.664,360.636 209.391,361.28 C 207.526,362.224 209.218,363.609 208.791,364.817 C 210.612,366.953 215.189,363.609 216.624,366.652 C 215.231,366.025 213.898,365.599 212.38,365.529 C 211.399,365.484 208.008,366.463 210.217,367.671 C 210.115,367.769 209.972,368.043 209.882,368.147 C 210.443,368.318 210.663,368.718 210.445,369.257 C 211.654,369.085 213.433,368.713 214.557,369.329 C 216.368,370.324 214.582,371.155 215.126,371.961 C 214.192,370.577 213.029,369.316 211.191,369.562 C 210.118,369.706 207.542,370.979 207.965,372.381 C 208.296,373.457 209.863,373.13 210.755,373.362 C 211.346,373.515 213.558,374.951 213.963,374.829 C 213.464,374.978 213.018,375.224 212.656,375.559 C 211.645,374.072 206.757,373.42 207.345,376.211 C 207.77,378.219 210.656,378.196 211.969,377.183 C 210.367,378.419 208.465,378.938 206.864,380.066 C 206.721,380.057 206.653,379.966 206.48,379.975 C 206.226,380.585 206.186,381.318 206.224,381.967 C 204.85,381.569 205.091,378.601 205.475,377.515 C 204.877,377.403 204.446,377.653 204.308,378.231 C 204.246,378.142 204.186,378.059 204.127,377.883 C 203.98,378.111 203.566,378.445 203.444,378.813 C 203.507,378.368 203.412,377.894 203.526,377.472 C 201.961,377.466 198.692,378.226 197.469,377.173 C 197.367,377.645 197.266,378.212 197.192,378.714 C 196.825,378.068 196.982,377.305 196.922,376.567 C 196.395,376.429 195.968,376.093 195.688,375.613 C 197.489,376.297 199.397,377.107 201.546,376.779 C 202.728,376.599 204.549,376.496 205.461,375.619 C 205.979,375.121 206.216,374.766 206.092,374.025 C 205.983,373.38 204.549,372.554 204.573,372.774 C 204.639,373.347 204.553,373.881 204.206,374.24 C 203.353,371.336 198.012,373.041 195.702,372.183 C 196.077,370.288 189.354,369.065 188.396,369.338 C 191.202,367.386 193.211,370.114 195.764,370.476 C 195.517,369.663 195.358,368.758 195.48,367.853 C 195.763,368.958 195.955,370.56 196.756,371.253 C 196.879,371.065 197.09,370.901 197.276,370.782 C 198.455,372.052 200.079,372.125 201.724,372.02 C 202.314,371.983 207.934,370.317 207.746,370.044 C 207.128,369.148 206.968,367.853 207.557,366.896 C 207.039,367.15 206.433,367.113 206.277,366.516 C 206.445,366.531 206.728,366.495 206.908,366.487 C 206.759,366.512 206.614,366.501 206.473,366.45 C 206.441,366.345 206.411,366.238 206.386,366.131 C 206.32,366.058 206.326,366.061 206.404,366.141 C 203.669,366.706 199.469,368.403 196.645,366.468 C 196.692,366.512 196.74,366.553 196.79,366.593 C 195.151,365.771 192.772,365.305 190.939,365.543 C 191.879,365.421 194.098,365.463 194.886,365.072 C 196.011,364.512 195.335,363.738 195.775,362.703 C 195.774,363.582 195.839,364.883 196.781,365.158 C 197.575,365.389 197.951,365.032 197.758,364.075 C 198.345,366.97 201.254,366.175 203.543,365.875 C 204.533,365.746 205.898,365.371 206.56,364.559 C 207.581,363.31 206.366,362.291 206.993,361.009 C 202.722,362.434 198.437,360.72 194.18,360.405 C 190.851,360.159 187.572,361.37 185.046,363.569 C 184.928,363.382 184.894,363.268 184.82,363.064 C 186.448,361.536 188.722,360.87 190.772,360.13 C 190.933,360.072 191.087,360.023 191.233,359.975 z" />
			<path
   style="fill: rgb(220, 192, 109);"
   id="path599"
   d="M 223.329,345.422 C 221.973,346.35 220.877,347.581 219.542,348.505 C 218.729,349.067 217.658,349.368 216.895,349.754 C 218.439,349.353 221.777,348.402 222.572,347.017 C 222.668,347.206 222.839,347.796 222.884,348.038 C 221.9,348.756 220.709,349.045 219.772,349.804 C 221.05,349.725 222.481,348.989 223.643,348.441 C 223.212,348.657 222.872,349.042 222.587,349.374 C 223.438,349.363 224.114,348.746 224.872,349.337 C 223.88,347.647 223.769,344.407 221.438,343.925 C 221.086,344.299 220.723,344.665 220.352,345.02 C 220.674,344.855 221.225,344.787 221.596,344.54 C 221.66,344.676 221.638,344.868 221.651,345.017 C 222.248,344.951 222.622,345.224 222.762,345.803" />
			<path
   style="fill: rgb(220, 192, 109);"
   id="path601"
   d="M 178.743,353.391 C 178.973,350.991 180.93,348.251 182.969,346.987 C 185.604,345.355 187.132,347.388 189.689,348.656 C 188.314,348.675 186.689,347.701 185.46,347.153 C 185.559,347.304 185.644,347.542 185.734,347.67 C 184.76,347.026 183.108,347.41 183.287,348.847 C 183.47,350.322 185.977,351.379 187.222,351.497 C 185.541,351.209 184.012,350.549 182.618,349.623 C 182.641,349.724 182.684,349.815 182.745,349.897 C 180.989,349.773 179.745,351.26 179.255,352.775 C 178.897,353.885 178.819,354.248 178.174,355.288 C 177.587,356.234 176.829,357.312 177.424,358.455 C 177.32,356.289 177.547,354.504 178.932,352.631" />
			<path
   style="fill: rgb(220, 192, 109);"
   id="path603"
   d="M 225.608,353.581 C 224.599,354.519 225.819,356.52 225.797,357.802 C 225.777,358.879 225.594,360.516 225.261,361.24 C 226.366,359.246 226.853,355.626 225.608,353.581" />
			<path
   style="fill: rgb(220, 192, 109);"
   id="path605"
   d="M 185.953,364.965 C 186.432,365.216 186.99,365.434 187.472,365.639 C 188.304,365.406 189.228,365.214 190.07,364.96 C 189.237,364.686 186.96,364.287 186.333,364.965" />
			<path
   style="fill: rgb(220, 192, 109);"
   id="path607"
   d="M 188.419,374.072 C 189.229,374.231 189.725,374.884 190.468,374.996 C 190.834,374.215 191.688,373.767 192.536,373.839 C 191.517,373.268 189.466,373.171 188.609,374.071" />
			<path
   style="fill: rgb(220, 192, 109);"
   id="path609"
   d="M 178.743,361.929 C 178.719,362.639 178.982,363.264 179.501,363.664 C 180.099,362.935 181.68,363.359 182.5,363.618 C 183.514,361.282 187.376,360.318 189.353,359.158 C 187.871,359.919 186.144,360.48 184.584,361.212 C 183.364,361.784 182.273,362.722 180.845,362.475 C 181.065,361.91 181.545,361.543 182.092,361.199 C 181.164,361.833 179.118,362.57 178.388,361.36 C 178.402,361.905 178.666,362.395 179.122,362.688" />
			<path
   style="fill: rgb(220, 192, 109);"
   id="path611"
   d="M 197.526,357.565 C 198.726,358.461 200.944,358.183 202.254,357.902 C 201.106,357.307 199.131,357.565 197.716,357.565" />
			<path
   style="fill: rgb(204, 178, 92);"
   id="path613"
   d="M 191.456,364.016 C 194.118,365.645 195.042,362.603 192.654,361.606 C 193.247,362.594 193.776,364.12 192.214,364.396" />
			<path
   style="fill: rgb(204, 178, 92);"
   id="path615"
   d="M 209.671,361.359 C 207.583,362.69 209.202,365.989 210.411,364.433 C 209.097,364.385 208.977,362.811 209.671,361.929" />
			<path
   style="fill: rgb(204, 178, 92);"
   id="path617"
   d="M 202.649,371.795 C 203.707,372.148 207.996,372.361 207.355,370.292 C 207.259,370.463 206.907,370.766 206.777,371.008 C 206.063,371.041 204.822,371.448 203.931,371.558 C 202.99,371.674 201.699,371.679 200.752,371.985" />
			<path
   style="fill: rgb(204, 178, 92);"
   id="path619"
   d="M 202.838,367.052 C 204.385,367.141 206.827,366.75 208.133,365.913 C 208.105,365.725 208.043,365.206 207.971,365.021 C 207.672,367.463 201.191,366.599 199.486,366.663 C 200.601,367.073 201.808,367.047 203.028,367.052" />
			<path
   style="fill: rgb(204, 178, 92);"
   id="path621"
   d="M 201.321,361.359 C 202.127,360.997 208.875,361.571 207.824,359.519 C 207.67,359.886 207.336,360.056 207.146,360.345 C 207.071,360.199 207.046,360.06 206.977,359.907 C 205.288,361.663 201.365,361.141 199.205,360.762 C 199.043,360.861 199.053,360.996 199.234,361.171" />
			<path
   style="fill: rgb(204, 178, 92);"
   id="path623"
   d="M 212.896,349.786 C 212.911,350.401 213.051,350.696 212.928,351.273 C 214.574,349.023 217.759,347.73 220.237,346.553 C 219.201,346.725 218.074,347.256 217.089,347.287 C 217.656,346.131 220.339,344.338 221.599,344.062 C 221.512,343.737 221.288,343.379 221.002,343.171 C 219.494,344.496 217.553,345.427 215.973,346.761 C 214.804,347.749 213.484,348.697 212.189,349.195 C 212.311,349.585 212.558,349.763 212.895,349.977" />
			<path
   style="fill: rgb(204, 178, 92);"
   id="path625"
   d="M 184.624,346.75 C 183.906,346.407 183.193,346.547 182.747,347.082 C 184.482,348.061 186.325,348.71 188.172,349.377 C 187.757,348.929 187.263,348.417 186.686,348.144 C 187.794,349.425 190.159,350.134 191.816,350.474 C 191.812,350.191 191.697,349.537 191.615,349.245 C 189.078,349.098 186.411,347.286 184.028,346.56 C 183.77,346.218 184.096,346.466 184.246,346.371" />
			<path
   style="fill: rgb(204, 178, 92);"
   id="path627"
   d="M 203.598,377.107 C 204.459,376.919 205.273,376.537 206.047,376.178 C 205.689,377.121 205.87,378.316 205.879,379.332 C 205.779,378.855 205.715,377.71 205.457,377.336 C 205.049,376.741 204.486,377.383 204.168,376.729" />
		</g>
	</g></g></svg>
