<?xml version="1.0" encoding="UTF-8" standalone="no"?>
<!-- Generator: Adobe Illustrator 12.0.0, SVG Export Plug-In . SVG Version: 6.00 Build 51448)  -->

<svg
   version="1.0"
   id="Layer_1"
   width="435.68701"
   height="841.89001"
   viewBox="0 0 435.687 841.89"
   overflow="visible"
   enable-background="new 0 0 435.687 841.89"
   xml:space="preserve"
   sodipodi:version="0.32"
   inkscape:version="1.4.2 (f4327f4, 2025-05-13)"
   sodipodi:docname="lower_bones_femur.svg"
   inkscape:output_extension="org.inkscape.output.svg.inkscape"
   style="overflow: visible; display: inline;"
   xmlns:inkscape="http://www.inkscape.org/namespaces/inkscape"
   xmlns:sodipodi="http://sodipodi.sourceforge.net/DTD/sodipodi-0.dtd"
   xmlns="http://www.w3.org/2000/svg"
   xmlns:svg="http://www.w3.org/2000/svg"
   xmlns:rdf="http://www.w3.org/1999/02/22-rdf-syntax-ns#"
   xmlns:cc="http://creativecommons.org/ns#"
   xmlns:dc="http://purl.org/dc/elements/1.1/"><metadata
   id="metadata3098"><rdf:RDF><cc:Work
       rdf:about=""><dc:format>image/svg+xml</dc:format><dc:type
         rdf:resource="http://purl.org/dc/dcmitype/StillImage" /></cc:Work><cc:Work
       rdf:about=""><dc:format>image/svg+xml</dc:format><dc:type
         rdf:resource="http://purl.org/dc/dcmitype/StillImage" /></cc:Work></rdf:RDF></metadata><defs
   id="defs3096"><inkscape:perspective
   sodipodi:type="inkscape:persp3d"
   inkscape:vp_x="0 : 420.94501 : 1"
   inkscape:vp_y="0 : 1000 : 0"
   inkscape:vp_z="435.68701 : 420.94501 : 1"
   inkscape:persp3d-origin="217.84351 : 280.63 : 1"
   id="perspective3100" />
		
		
		
		
	
		
		
	
		
		
		
		
		
	
	
	

		
		
		
	
			
			
		
				
				
				
				
				
			
	
	
</defs>
<sodipodi:namedview
   inkscape:window-height="1369"
   inkscape:window-width="2560"
   inkscape:pageshadow="2"
   inkscape:pageopacity="0.0"
   guidetolerance="10.0"
   gridtolerance="10.0"
   objecttolerance="10.0"
   borderopacity="1.0"
   bordercolor="#666666"
   pagecolor="#ffffff"
   id="base"
   showgrid="false"
   inkscape:zoom="1.9049022"
   inkscape:cx="217.85895"
   inkscape:cy="487.95156"
   inkscape:window-x="-8"
   inkscape:window-y="-8"
   inkscape:current-layer="layer3"
   showguides="true"
   inkscape:guide-bbox="true"
   inkscape:showpageshadow="2"
   inkscape:pagecheckerboard="0"
   inkscape:deskcolor="#d1d1d1"
   inkscape:window-maximized="1" />
<g
   inkscape:groupmode="layer"
   id="layer3"
   inkscape:label="Skeleton"
   style="display: inline;"><g
     id="g3760"><path
       d="M 190.045,563.119 C 183.616,549.417 179.667,535.423 175.034,520.949 C 168.467,500.428 162.286,479.764 156.361,459.094 C 154.027,450.948 152.69,442.856 150.273,434.769 C 148.121,427.576 143.802,419.348 145.729,411.635 C 144.118,414.974 145.088,423.124 147.429,425.801 C 147.629,423.301 148.143,420.877 148.215,418.341 C 148.335,414.164 146.762,410.75 147.892,406.592 C 148.656,403.773 152.358,394.984 156.76,396.081 C 153.972,395.339 149.423,396.909 147.252,398.904 C 150.633,394.589 155.756,397.92 159.309,394.362 C 160.99,392.678 161.684,390.389 161.465,388.012 C 161.041,383.406 154.486,375.463 149.269,376.097 C 143.778,376.765 144.214,384.303 141.702,387.493 C 140.265,389.32 136.633,391.031 134.407,391.167 C 135.806,387.688 129.765,389.545 128.274,390.157 C 124.577,391.676 125.476,393.022 124.897,396.505 C 124.361,399.72 121.926,402.596 122.117,405.803 C 122.325,409.296 125.26,411.128 126.843,414.01 C 130.751,421.121 133.043,429.051 135.426,436.914 C 138.21,446.099 141.073,454.942 142.528,464.338 C 144.101,474.49 147.786,484.149 150.094,494.131 C 152.766,505.686 156.253,517.362 157.793,529.07 C 159.211,539.847 159.062,552.345 157.435,563.125 C 156.543,569.038 151.823,574.337 152.137,580.449 C 152.346,584.505 157.229,589.169 161.376,589.171 C 165.032,589.173 168.063,587.444 171.48,586.382 C 176.553,584.805 180.318,586.719 185.138,586.469 C 189.619,586.237 192.28,583.642 194.625,579.955 C 198.928,573.189 192.773,568.933 190.045,563.119 z"
       id="path469"
       style="fill: rgb(243, 212, 140); stroke: rgb(150, 115, 72); stroke-width: 0.3218;" /><path
       style="fill: rgb(220, 192, 109);"
       id="path473"
       d="M 158.221,583.635 C 160.704,585.042 162.107,583.184 164.274,583.226 C 164.156,583.585 164.051,583.889 163.987,584.27 C 164.805,584.615 165.877,584.587 166.799,584.281 C 162.957,588.601 173.799,587.586 174.336,583.885 C 174.791,580.759 165.904,575.403 163.289,575.608 C 163.508,572.619 159.416,572.125 157.57,570.943 C 159.033,565.817 161.524,558.101 161.01,552.899 C 160.283,555.587 158.887,564.843 160.628,567.464 C 162.085,569.656 164.496,568.594 166.393,568.197 C 166.94,571.233 172.395,574.096 174.671,575.76 C 178.366,578.458 184.61,581.351 187.56,576.02 C 188.283,574.713 188.643,571.282 188.284,569.938 C 187.792,568.105 185.662,565.164 184.031,567.866 C 186.889,563.583 180.419,554.962 178.89,551.014 C 177.451,547.3 175.756,543.963 175.307,539.972 C 174.987,537.136 174.978,534.39 174.321,531.589 C 171.227,518.41 164.858,506.276 162.959,492.681 C 161.416,481.625 157.663,471.273 153.571,460.873 C 149.901,451.54 148.698,441.491 145.268,432.16 C 144.573,430.267 144.039,426.077 141.916,425.479 C 142.158,425.125 142.864,424.523 143.212,424.355 C 144.849,425.477 144.316,427.935 146.375,428.677 C 146.848,425.637 143.8,421.914 142.04,419.802 C 138.628,421.855 139.336,414.551 139.218,413.008 C 139.012,412.97 138.807,412.925 138.605,412.875 C 140.024,410.225 136.721,409.826 136.383,407.955 C 136.123,406.512 138.084,404.532 138.132,402.952 C 138.173,401.62 137.521,399.47 136.823,398.422 C 137.882,400.013 139.504,402.514 141.286,403.331 C 142.658,403.96 143.919,402.936 144.744,401.96 C 145.803,400.71 146.909,399.499 148.265,398.562 C 148.675,398.279 153.03,395.982 153.269,396.765 C 153.539,397.648 151.634,398.412 151.163,398.958 C 150.162,400.122 149.253,401.413 148.571,402.793 C 147.554,404.851 146.822,407.632 146.996,409.943 C 147.158,412.077 147.613,414.291 147.737,416.436 C 147.799,417.476 147.682,418.489 147.504,419.495 C 147.282,420.751 147.289,422.647 146.792,423.735 C 145.812,421.717 145.471,418.886 145.322,416.652 C 145.242,415.485 145.368,414.083 145.717,412.978 C 145.909,412.37 146.418,411.456 145.847,410.897 C 145.276,411.222 145.088,412.544 144.913,413.183 C 143.045,420.042 146.325,426.359 148.645,432.622 C 151.569,440.516 151.851,449.156 154.743,457.225 C 158.465,467.602 160.259,478.037 162.978,488.686 C 167.2,505.222 172.544,521.154 177.639,537.397 C 180.11,545.278 183.793,552.645 186.741,560.295 C 189.412,567.225 197.332,572.256 192.581,580.526 C 190.893,583.464 187.888,585.47 184.533,585.925 C 183.435,586.074 174.237,583.687 175.137,582.858 C 172.999,584.83 172.086,586.459 168.968,587.371 C 165.99,588.241 162.833,587.871 160.024,586.677 C 157.631,585.66 154.295,584.787 153.082,582.231 C 151.695,579.306 153.249,574.754 155.311,572.551 C 155.475,576.879 162.871,577.147 160.823,581.65 C 160.452,579.932 157.968,575.868 155.714,577.212 C 153.095,578.769 156.703,582.774 158.221,583.635 z" /><path
       style="fill: rgb(220, 192, 109);"
       id="path475"
       d="M 134.853,392.979 C 134.81,393.922 134.919,394.924 135.303,395.79 C 135.964,391.976 141.584,391.72 142.696,387.987 C 141.638,389.352 139.509,390.514 137.998,391.338 C 136.748,392.02 135.03,392.682 133.599,392.755 C 133.843,392.068 133.707,391.382 133.179,390.855 C 132.388,390.063 131.86,390.301 131.006,390.781 C 131.956,390.908 132.305,391.325 131.407,391.907 C 130.211,392.683 129.029,392.706 128.046,393.874 C 128.832,392.661 133.447,391.001 134.121,393.082" /><path
       style="fill: rgb(220, 192, 109);"
       id="path477"
       d="M 132.108,409.464 C 132.381,411.15 131.256,413.324 129.829,414.13 C 129.55,413.726 128.447,412.951 127.963,413.391 C 127.474,413.834 128.094,415.093 128.315,415.495 C 127.829,413.002 125.604,411.777 124.521,409.648 C 125.892,409.338 126.83,411.673 128.095,411.896 C 128.878,412.034 129.803,411.677 130.454,411.276 C 130.855,411.03 132.201,410.035 132.108,409.464 z" /><path
       style="fill: rgb(204, 178, 92);"
       id="path483"
       d="M 146.074,411.793 C 145.799,413.608 145.435,415.094 145.534,416.946 C 145.632,418.772 145.99,420.744 146.616,422.46 C 146.434,420.169 146.06,417.897 146.209,415.578 C 146.251,414.913 146.57,414.168 146.579,413.537 C 146.59,412.864 146.141,412.324 146.074,411.659" /><path
       style="fill: rgb(204, 178, 92);"
       id="path485"
       d="M 153.941,396.362 C 152.259,397.083 151.096,398.52 149.98,399.911 C 150.846,398.405 148.494,399.578 148.088,399.775 C 146.617,400.492 145.295,401.293 144.082,402.405 C 143.7,402.756 143.168,403.735 142.59,403.757 C 142.211,403.771 141.559,403.224 141.225,403.049 C 140.296,402.564 139.653,402.053 138.878,401.378 C 139.899,402.314 140.432,402.958 141.913,402.847 C 145.079,402.613 146.602,399.228 149.284,397.816 C 150.801,397.019 152.465,396.959 153.941,396.362 z" /><path
       d="M 188.55,578.677 C 189.413,577.305 191.597,571.814 189.095,571.11 C 190.47,571.498 187.294,561.959 187.217,561.487 C 187.765,561.734 187.79,561.861 188.263,561.426 C 189.05,563.351 190.069,565.171 191.233,566.894 C 192.552,568.841 194.649,570.207 194.712,572.796 C 193.568,572.81 192.501,577.572 191.83,578.628 C 189.464,582.355 184.774,583.305 180.681,582.875 C 179.689,582.77 178.431,583.067 177.506,582.872 C 175.75,582.497 174.524,580.547 173.21,579.484 C 171.988,578.496 170.72,577.93 169.353,577.22 C 172.036,579.116 176.334,582.25 179.654,582.587 C 182.715,582.899 186.886,581.324 188.55,578.677 z"
       id="path487"
       style="fill: rgb(204, 178, 92);" /></g><g
     inkscape:label="Femur"
     id="FemurLeft">
		<path
   style="fill: rgb(243, 212, 140); stroke: rgb(150, 115, 72); stroke-width: 0.3218;"
   id="path493"
   d="M 248.121,579.791 C 247.674,582.722 246.726,585.602 244.979,587.85 C 243.39,589.894 241.564,588.742 239.344,588.566 C 236.813,588.367 234.667,586.668 232.033,586.434 C 228.362,586.11 224.813,586.963 221.586,588.714 C 219.071,590.078 216.228,590.985 213.417,591.059 C 213.782,593.197 210.898,591.324 210.341,590.707 C 208.882,589.091 208.256,587.325 207.379,585.408 C 206.852,584.259 206.382,583.498 206.472,582.186 C 206.568,580.82 206.666,579.452 206.779,578.086 C 206.882,576.851 207.139,575.694 206.986,574.441 C 206.898,573.725 206.747,572.958 206.932,572.244 C 207.114,571.552 207.64,571.01 208.033,570.431 C 209.116,568.827 210.179,567.227 211.13,565.539 C 213.052,562.127 214.665,558.553 216.245,554.974 C 218.075,550.832 219.638,546.699 221.118,542.441 C 222.035,539.8 222.731,537.256 223.45,534.561 C 225.503,526.848 228.509,519.508 230.491,511.755 C 232.568,503.626 234.059,495.344 235.826,487.136 C 237.433,479.68 240.261,472.609 242.741,465.4 C 244.068,461.548 245.005,457.549 246.423,453.693 C 247.212,451.545 247.875,449.396 248.43,447.172 C 249.21,444.051 249.371,440.979 249.992,437.834 C 250.736,434.077 252.078,430.473 253.321,426.864 C 253.876,425.254 254.337,423.629 254.912,422.018 C 255.817,419.489 255.742,417.49 255.791,414.911 C 256.333,416.165 256.331,417.726 256.028,419.148 C 255.449,421.875 254.4,424.805 253.372,427.398 C 252.842,426.105 253.065,424.716 252.801,423.168 C 252.553,421.728 252.078,420.205 251.449,418.89 C 251.192,418.353 250.394,417.465 250.281,416.954 C 249.938,415.4 251.576,414.717 252.336,413.651 C 253.987,411.33 254.571,407.33 252.954,404.858 C 251.576,402.75 249.875,400.34 247.514,399.285 C 245.237,398.268 241.964,398.215 240.367,396.104 C 235.831,390.102 240.758,385.417 245.115,381.436 C 247.642,379.127 251.264,377.713 254.512,379.707 C 258.05,381.878 255.919,387.033 254.107,389.517 C 255.171,387.322 256.287,386.156 256.411,383.592 C 256.576,383.53 256.761,383.48 256.932,383.439 C 258.01,385.495 258.585,388.067 260.303,389.871 C 262.275,391.945 265.783,393.812 268.72,393.493 C 267.738,393.588 264.779,393.225 264.461,391.935 C 264.293,391.248 265.268,389.822 265.286,388.948 C 267.57,388.15 270.84,387.537 272.967,389.116 C 274.007,389.888 274.149,390.916 274.654,391.981 C 275.214,393.154 276.136,394.025 276.983,394.879 C 275.917,396.36 276.77,399.3 277.307,400.878 C 278.087,403.167 279.841,404.766 279.033,407.35 C 278.179,410.075 275.828,411.933 274.535,414.408 C 270.779,421.601 268.657,429.576 266.439,437.489 C 264.289,445.166 262.008,452.828 260.606,460.685 C 259.946,464.368 259.983,467.974 258.879,471.584 C 257.763,475.243 256.115,478.708 254.761,482.279 C 252.882,487.228 251.549,492.288 250.174,497.389 C 248.757,502.647 248.094,508.019 246.654,513.285 C 245.901,516.046 245.537,518.801 244.732,521.53 C 243.795,524.717 242.614,527.853 242.294,531.184 C 241.941,534.887 241.765,538.639 241.681,542.353 C 241.624,544.975 242.262,547.446 242.356,550 C 242.467,553.005 242.462,555.896 242.753,558.92 C 242.955,561.02 243.354,562.91 244.269,564.814 C 245.15,566.643 246.37,567.825 247.624,569.343 C 248.701,570.651 248.408,572.564 248.446,574.406 C 248.484,576.128 248.399,577.971 248.121,579.791 z" />
		<path
   style="fill: rgb(220, 192, 109);"
   id="path495"
   d="M 241.91,557.729 C 240.947,553.514 240.761,549.452 240.674,545.151 C 240.621,542.483 240.399,539.797 240.326,537.145 C 240.241,534.127 241.288,531.06 241.572,528.052 C 241.313,530.791 240.498,533.544 240.083,536.277 C 239.68,538.922 238.69,541.427 238.187,544.049 C 237.738,546.393 237.626,548.113 236.126,550.105 C 234.648,552.074 232.727,553.974 230.893,555.6 C 229.158,557.135 225.586,558.882 224.736,560.731 C 223.687,563.006 224.625,565.971 222.974,568.018 C 221.241,570.165 218.045,571.723 215.885,573.464 C 216.906,574.687 213.693,576.303 212.741,576.544 C 212.647,575.253 211.832,574.233 211.516,572.999 C 211.292,572.127 211.764,571.055 210.266,571.406 C 210.177,570.629 210.507,569.387 211.134,568.907 C 211.893,569.479 212.849,569.572 213.143,570.59 C 213.051,570.015 212.571,569.869 212.392,569.412 C 212.158,568.818 212.21,568.77 212.149,568.169 C 212.045,567.116 212.697,566.134 212.456,565.129 C 210.995,566.09 210.037,568.954 209.005,570.425 C 208.22,571.544 207.621,572.936 207.138,574.157 C 210.817,577.276 210.882,582.475 211.873,586.706 C 211.415,583.296 213.571,579.908 215.592,577.503 C 217.107,575.701 218.407,573.658 220.368,572.284 C 221.622,571.404 223.078,570.958 224.422,570.199 C 227.085,568.696 229.212,565.54 231.442,563.421 C 233.33,561.626 235.294,558.026 237.723,557.083 C 238.304,558.325 237.073,560.424 237.246,561.919 C 237.502,564.101 239.303,565.832 240.309,567.698 C 241.13,569.222 242.21,571.812 241.792,573.589 C 241.452,575.027 240.762,574.818 239.58,575.306 C 242.2,578.102 242.04,582.696 238.715,584.725 C 236.674,585.97 234.819,586.441 232.603,586.018 C 230.418,585.602 228.532,585.838 226.424,586.614 C 229.279,585.936 231.942,586.454 234.774,586.996 C 236.873,587.397 239.04,588.399 241.188,588.295 C 243.555,588.178 244.312,587.369 245.461,585.384 C 247.302,582.208 247.899,578.036 247.562,574.423 C 247.156,570.079 244.317,567.341 242.943,563.386 C 242.335,561.634 242.333,559.572 241.91,557.729 z" />
		<path
   style="fill: rgb(220, 192, 109);"
   id="path497"
   d="M 265.474,416.94 C 266.13,415.303 266.371,414.129 267.587,413.212 C 268.967,412.168 270.434,411.597 271.625,410.247 C 272.45,409.31 273.017,408.224 273.718,407.206 C 273.233,408.318 272.659,409.335 271.993,410.352 C 270.914,411.998 268.47,413.954 267.998,415.891 C 267.644,417.348 269.196,418.005 268.38,419.649 C 267.559,421.308 265.82,422.333 265.36,424.284 C 264.871,426.358 265.036,428.796 264.684,430.943 C 263.297,439.381 259.916,447.388 257.775,455.639 C 256.946,458.831 256.195,462.045 255.609,465.291 C 255.054,468.363 255.124,471.052 254.184,474.099 C 253.388,476.663 252.738,479.269 251.901,481.825 C 249.637,488.743 247.485,495.638 244.734,502.385 C 244.3,503.449 243.042,505.299 243.019,506.491 C 243.001,507.435 243.703,507.951 243.673,509.366 C 243.547,515.397 240.578,521.624 241.235,527.666 C 241.878,526.364 242.116,524.313 242.481,522.816 C 243.232,519.712 243.908,516.599 244.654,513.49 C 245.495,509.994 246.683,506.611 247.692,503.163 C 249.679,496.368 251.32,489.446 253.476,482.689 C 255.788,475.449 258.846,468.328 260.525,460.954 C 261.213,457.929 261.519,454.973 261.69,451.925 C 261.869,448.704 263.55,445.443 264.472,442.387 C 264.996,440.654 265.208,438.928 265.704,437.19 C 266.416,434.693 267.106,432.187 267.882,429.709 C 268.682,427.154 269.955,424.652 270.591,422.065 C 271.059,420.169 271.254,418.759 272.286,417.016 C 273.724,414.589 275.278,412.224 276.933,409.939 C 278.26,408.107 278.966,406.879 278.246,404.523 C 277.651,402.573 276.441,400.946 276.03,399.062 C 275.645,397.312 275.883,395.583 274.892,394.038 C 273.795,392.332 271.572,390.271 269.702,389.525 C 267.82,388.774 266.541,390.566 265.367,391.941 C 266.615,391.335 271.636,389.928 271.608,392.711 C 271.582,395.487 263.955,393.928 262.527,393.217 C 261.106,392.512 260.007,391.629 258.824,390.615 C 257.95,389.866 256.369,389.336 256.124,388.1 C 255.441,388.671 255.198,389.515 254.733,390.258 C 253.432,392.341 251.875,393.043 249.674,393.935 C 248.905,394.247 248.161,394.456 247.355,394.622 C 246.234,394.85 244.792,394.801 243.784,395.315 C 245.748,396.024 248.87,396.648 249.919,398.671 C 249.562,398.035 248.004,397.253 248.269,396.248 C 248.501,395.369 249.95,395.293 250.66,395.356 C 250.908,395.377 253.336,396.447 252.757,396.683 C 254.448,395.997 254.658,394.152 256.789,393.694 C 258.518,393.322 259.506,393.754 260.729,394.552 C 260.727,394.551 261.156,395.135 261.271,395.229 C 261.435,395.363 261.834,395.223 262.049,395.37 C 262.402,395.609 262.955,395.943 263.112,396.329 C 264.257,399.158 261.241,402.166 258.767,403.016 C 256.391,403.83 256.242,402.132 254.824,400.953 C 254.141,402.178 255.033,404.903 255.078,406.345 C 255.152,408.934 255.009,410.334 253.781,412.723 C 253.305,413.647 251.697,415.311 251.477,416.164 C 250.996,418.022 254.064,420.415 253.984,422.722 C 254.694,421.004 254.97,419.425 255.133,417.611 C 255.252,416.24 255.029,414.848 255.083,413.465 C 255.071,413.831 255.979,414.861 256.147,415.281 C 256.414,415.94 256.569,416.626 256.623,417.334 C 256.738,418.843 256.279,420.228 255.942,421.67 C 255.635,422.97 255.558,424.056 254.95,425.267 C 254.191,426.782 253.247,428.174 252.667,429.779 C 251.965,431.72 251.411,433.89 250.873,435.925 C 250.387,437.771 250.304,439.352 250.275,441.237 C 250.258,442.389 249.925,443.711 250.295,444.801 C 252.255,437.143 254.894,429.737 257.073,422.132 C 257.608,420.257 258.011,418.278 258.469,416.382 C 258.956,414.346 258.237,412.235 258.198,410.169 C 258.168,408.58 257.393,404.824 258.669,403.591 C 259.335,402.949 260.645,402.622 261.423,402.053 C 262.926,400.959 263.289,399.661 264.019,398.095 C 264.323,397.441 264.484,396.027 264.85,395.529 C 266.646,393.078 274.57,394.995 272.978,398.58 C 271.538,401.825 267.967,402.888 266.069,405.678 C 265.169,407.006 265.673,408.503 265.691,410.066 C 265.721,412.358 265.907,414.674 265.474,416.94 z" />
		
		<path
   style="fill: rgb(204, 178, 92);"
   id="path501"
   d="M 256.603,385.524 C 256.241,387.486 255.759,389.686 254.447,391.262 C 253.479,392.429 251.879,393.124 250.705,393.991 C 253.377,392.579 255.077,390.72 257.218,388.737 C 257.517,389.314 258.077,389.824 258.643,390.255 C 258.711,389.398 258.045,389.041 257.683,388.327 C 257.308,387.585 257.314,386.095 256.606,385.703" />
		<path
   style="fill: rgb(204, 178, 92);"
   id="path503"
   d="M 266.698,389.245 C 265.864,389.556 264.592,391.555 265.184,392.503 C 265.508,393.023 266.586,393.128 267.128,393.282 C 266.081,392.443 265.494,391.023 266.528,389.784" />
		<path
   style="fill: rgb(204, 178, 92);"
   id="path505"
   d="M 254.852,412.566 C 254.961,412.284 255.017,411.966 255.119,411.678 C 254.672,412.091 253.677,412.906 253.477,413.49 C 253.137,414.469 253.881,415.218 254.173,416.207 C 254.777,418.266 254.239,420.166 254.513,422.176 C 255.21,418.92 256.695,415.113 254.662,412.034" />
		<path
   style="fill: rgb(204, 178, 92);"
   id="path507"
   d="M 276.408,400.306 C 276.08,401.458 275.305,402.453 274.888,403.543 C 275.911,402.97 277.016,404.026 277.585,404.749 C 278.627,406.066 278.193,406.679 277.282,407.968 C 276.624,408.9 275.567,409.632 274.976,410.523 C 273.976,412.029 273.113,414.358 272.618,416.063 C 273.812,413.657 275.715,411.358 277.133,409.042 C 277.668,408.168 278.599,407.117 278.817,406.116 C 279.312,403.86 276.471,402.656 276.414,400.484" />
		<path
   style="fill: rgb(204, 178, 92);"
   id="path509"
   d="M 241.524,560.032 C 241.495,561.803 241.708,563.682 242.172,565.391 C 242.525,566.693 242.55,568.284 243.109,569.485 C 243.473,570.271 246.065,572.218 244.681,572.693 C 244.665,574.289 244.568,575.394 242.616,575.201 C 243.623,575.706 245.01,576.225 246.137,576.222 C 246.415,578.689 245.562,581.297 244.386,583.447 C 243.424,585.209 242.337,585.387 240.284,585.672 C 240.395,585.89 240.37,586.129 240.449,586.318 C 238.792,586.532 238.03,585.975 236.72,585.385 C 235.457,584.819 234.248,584.969 232.921,584.859 C 229.485,584.572 226.108,584.179 222.803,585.605 C 224.392,585.806 226.633,584.806 228.29,584.582 C 230.017,584.351 231.847,584.637 233.49,585.235 C 235.109,585.823 237.142,588.265 238.718,588.372 C 239.627,588.433 239.827,587.518 240.494,587.365 C 241.282,587.186 241.996,587.742 242.832,587.551 C 244.477,587.172 245.34,584.219 245.891,582.788 C 246.717,580.638 247.305,578.341 247.546,576.015 C 247.708,574.426 248.312,570.924 247.055,569.609 C 246.894,569.44 246.28,569.563 246.053,569.38 C 245.672,569.068 245.451,568.695 245.1,568.354 C 244.543,567.818 244.043,567.282 243.675,566.61 C 242.549,564.563 242.621,562.297 241.885,560.207" />
		<path
   style="fill: rgb(204, 178, 92);"
   id="path511"
   d="M 213.84,578.503 C 212.68,579.929 212.053,581.97 211.652,583.728 C 215.64,577.498 222.544,573.577 226.841,567.545 C 223.996,570.119 220.985,572.564 217.903,574.848 C 216.3,576.035 213.914,578.603 212.424,579.248" />
	</g></g></svg>
