<?xml version="1.0" encoding="UTF-8" standalone="no"?>
<!-- Generator: Adobe Illustrator 12.0.0, SVG Export Plug-In . SVG Version: 6.00 Build 51448)  -->

<svg
   version="1.0"
   id="Layer_1"
   width="435.68701"
   height="841.89001"
   viewBox="0 0 435.687 841.89"
   overflow="visible"
   enable-background="new 0 0 435.687 841.89"
   xml:space="preserve"
   sodipodi:version="0.32"
   inkscape:version="1.4.2 (f4327f4, 2025-05-13)"
   sodipodi:docname="lower_bones_base.svg"
   inkscape:output_extension="org.inkscape.output.svg.inkscape"
   style="overflow: visible; display: inline;"
   xmlns:inkscape="http://www.inkscape.org/namespaces/inkscape"
   xmlns:sodipodi="http://sodipodi.sourceforge.net/DTD/sodipodi-0.dtd"
   xmlns="http://www.w3.org/2000/svg"
   xmlns:svg="http://www.w3.org/2000/svg"
   xmlns:rdf="http://www.w3.org/1999/02/22-rdf-syntax-ns#"
   xmlns:cc="http://creativecommons.org/ns#"
   xmlns:dc="http://purl.org/dc/elements/1.1/"><metadata
   id="metadata3098"><rdf:RDF><cc:Work
       rdf:about=""><dc:format>image/svg+xml</dc:format><dc:type
         rdf:resource="http://purl.org/dc/dcmitype/StillImage" /></cc:Work><cc:Work
       rdf:about=""><dc:format>image/svg+xml</dc:format><dc:type
         rdf:resource="http://purl.org/dc/dcmitype/StillImage" /></cc:Work></rdf:RDF></metadata><defs
   id="defs3096"><inkscape:perspective
   sodipodi:type="inkscape:persp3d"
   inkscape:vp_x="0 : 420.94501 : 1"
   inkscape:vp_y="0 : 1000 : 0"
   inkscape:vp_z="435.68701 : 420.94501 : 1"
   inkscape:persp3d-origin="217.84351 : 280.63 : 1"
   id="perspective3100" />
		
		
		
		
	
		
		
	
		
		
		
		
		
	
	
	

		
		
		
	
			
			
		
				
				
				
				
				
			
	
	
</defs>
<sodipodi:namedview
   inkscape:window-height="1369"
   inkscape:window-width="2560"
   inkscape:pageshadow="2"
   inkscape:pageopacity="0.0"
   guidetolerance="10.0"
   gridtolerance="10.0"
   objecttolerance="10.0"
   borderopacity="1.0"
   bordercolor="#666666"
   pagecolor="#ffffff"
   id="base"
   showgrid="false"
   inkscape:zoom="1.9049022"
   inkscape:cx="217.85895"
   inkscape:cy="487.95156"
   inkscape:window-x="-8"
   inkscape:window-y="-8"
   inkscape:current-layer="layer3"
   showguides="true"
   inkscape:guide-bbox="true"
   inkscape:showpageshadow="2"
   inkscape:pagecheckerboard="0"
   inkscape:deskcolor="#d1d1d1"
   inkscape:window-maximized="1" />
<g
   inkscape:groupmode="layer"
   id="layer3"
   inkscape:label="Skeleton"
   style="display: inline;"><g
     style="overflow: visible; display: inline;"
     id="FibulaRight"
     inkscape:label="Fibula">
	<path
   d="M 161.602,622.69 C 161.327,620.344 160.651,618.522 159.05,618.819 C 159.847,619.084 160.941,619.074 161.755,619.113 C 161.381,615.056 158.051,608.169 154.005,606.704 C 153.831,608.872 152.3,610.924 151.77,613.096 C 151.1,615.849 152.301,617.351 153.282,619.828 C 153.673,619.801 154.2,619.974 154.596,619.944 C 153.9,630.448 154.797,642.148 157.163,652.511 C 160.159,665.631 159.665,678.849 161.523,692.151 C 162.516,699.25 162.864,706.518 164.227,713.555 C 165.31,719.14 166.646,724.74 166.478,730.426 C 166.336,735.287 165.369,740.431 165.78,745.277 C 166.157,749.706 166.078,753.242 164.759,757.663 C 164.05,760.037 164.392,761.623 165.082,764.306 C 166.382,764.42 169.938,762.673 171.106,761.847 C 172.886,760.589 173.358,759.293 173.62,756.868 C 174.223,751.302 172.23,745.873 172.898,740.453 C 173.481,735.733 172.514,731.16 172.172,726.464 C 171.82,721.641 171.317,716.664 171.08,711.891 C 170.843,707.114 170.178,702.502 169.668,697.785 C 168.809,689.833 168.077,682.431 166.519,674.56 C 164.863,666.192 163.622,657.73 163.151,649.206 C 162.818,643.169 162.465,637.002 161.791,630.968 C 161.424,627.683 162.849,621.485 159.771,619.071 C 163.418,618.89 161.743,613.646 160.746,611.667 C 159.563,609.32 157.374,603.121 154.676,606.617 C 154.965,606.68 155.193,606.576 155.364,606.304"
   id="path421"
   style="fill: rgb(243, 212, 140); stroke: rgb(150, 115, 72); stroke-width: 0.3218;" />
	<path
   d="M 156.08,610.236 C 154.216,611.453 153.789,614.085 154.623,615.931 C 154.963,615.819 155.336,615.766 155.668,615.633 C 155.326,617.375 156.669,617.973 158.105,618.104 C 155.423,617.862 154.174,620.003 152.76,616.227 C 151.652,613.269 152.823,609.652 155.266,607.769 C 155.755,608.456 156.425,609.163 156.795,609.877"
   id="path423"
   style="fill: rgb(220, 192, 109);" />
	<path
   d="M 161.086,635.269 C 161.366,639.133 159.754,642.922 160.353,646.706 C 160.858,649.893 161.998,653.121 162.515,656.266 C 162.763,652.855 161.971,649.328 161.793,645.929 C 161.618,642.591 162.807,637.532 161.443,634.553"
   id="path425"
   style="fill: rgb(220, 192, 109);" />
	<path
   d="M 163.589,700.708 C 165.892,709.614 167.637,718.86 168.516,727.894 C 169.265,735.585 168.163,745.216 170.778,752.452 C 169.734,749.694 169.215,748.411 167.879,751.48 C 166.662,754.278 166.254,757.747 165.36,760.681 C 167.285,748.711 167.582,736.306 166.084,724.309 C 165.526,719.846 164.635,715.508 163.868,711.079 C 163.247,707.49 161.234,699.833 163.598,696.546 C 164.374,699.544 164.579,702.97 165.02,706.072"
   id="path427"
   style="fill: rgb(220, 192, 109);" />
</g><g
     style="overflow: visible; display: inline;"
     id="TibiaRight"
     inkscape:label="Tibia">
	<path
   d="M 153.748,591.677 C 152.535,594.24 153.555,598.859 153.697,601.636 C 153.89,605.405 155.741,608.095 158.064,610.951 C 160.777,614.289 162.988,619.325 164.563,623.378 C 169.02,634.854 169.546,648.828 169.489,661.022 C 169.459,667.419 169.947,673.985 170.572,680.309 C 171.189,686.559 172.694,692.396 173.781,698.564 C 176.382,713.305 175.178,728.235 175.489,743.113 C 175.605,748.694 172.262,754.193 174.247,759.73 C 175.81,764.092 182.12,764.281 185.85,766.134 C 187.33,766.869 188.145,768.487 189.933,768.776 C 194.769,769.554 196.992,762.769 197.739,759.255 C 198.745,754.52 195.964,750.64 194.78,746.14 C 194.202,743.944 194.356,741.921 194.123,739.765 C 193.824,736.994 192.693,734.291 191.997,731.58 C 190.436,725.504 189.428,719.261 189.516,712.972 C 189.595,707.363 190.569,701.669 190.229,696.064 C 189.949,691.438 189.378,686.824 189.167,682.143 C 188.71,672.041 187.569,662.022 188.076,651.988 C 188.869,636.285 192.403,621.334 195.255,605.965 C 195.729,603.416 195.161,602.113 194.609,599.77 C 194.212,598.085 194.33,598.391 194.53,596.632 C 194.734,594.845 195.764,594.859 194.242,593.065 C 190.805,589.015 184.07,592.462 180.136,593.432 C 176.041,594.44 170.757,594.763 166.521,594.512 C 165.261,594.435 154.143,590.842 153.748,591.677 z"
   id="path431"
   style="fill: rgb(243, 212, 140); stroke: rgb(150, 115, 72); stroke-width: 0.3218;" />
	<path
   d="M 189.774,618.452 C 190.895,615.797 196.921,603.894 193.777,601.249 C 192.295,600.002 188.2,602.877 187.131,604.205 C 189.082,601.779 191.903,599.518 192.603,596.334 C 193.656,591.542 190.025,593.571 187.006,594.233 C 182.843,595.146 178.124,595.46 174.285,597.675 C 177.23,597.399 180.368,596.007 183.386,595.987 C 183.273,597.865 179.368,599.687 177.907,600.505 C 175.25,601.996 172.568,602.581 169.579,603.075 C 167.265,603.458 163.483,603.389 161.749,605.141 C 163.156,607.355 165.729,608.612 168.271,608.8 C 169.694,608.905 174.86,608.776 175.61,607.509 C 173.672,610.782 173.415,616.289 178.014,611.417 C 178.305,612.769 177.324,613.008 177.266,614.091 C 177.167,615.958 177.421,615.166 178.176,617.033 C 179.655,620.692 180.228,626.416 179.84,630.003 C 180.62,626.234 180.71,622.675 180.903,619.193 C 181.083,615.952 183.819,611.701 186.613,610.264 C 186.453,610.62 186.246,611.009 186.061,611.375 C 187.572,609.263 189.611,606.825 191.995,605.695 C 191.523,607.655 182.855,616.543 185.536,617.466 C 184.945,619.327 185.54,622.335 185.322,624.182 C 184.969,627.168 183.676,630.423 183.087,633.46 C 180.944,644.517 182.629,656.178 182.023,667.44 C 181.684,673.743 181.724,680.378 182.066,686.759 C 182.528,695.365 184.589,704.648 183.621,713.198 C 182.531,722.817 184.94,731.085 186.907,740.338 C 187.923,745.123 194.049,756.567 188.537,760.725 C 187.768,759.788 186.75,759.336 185.833,759.941 C 185.441,758.253 185.095,756.232 184.865,754.453 C 184.663,756.974 183.742,758.038 185.205,760.068 C 186.101,761.309 189.627,764.738 190.881,765.024 C 190.485,764.933 191.392,751.837 195.521,754.308 C 196.358,749.156 193.563,741.815 192.116,736.823 C 190.882,732.57 188.702,728.462 188.423,724.046 C 187.78,713.896 187.73,703.933 187.091,693.814 C 186.323,681.654 185.955,669.773 185.938,657.507 C 185.927,649.93 186.098,642.16 186.732,634.622 C 187.156,629.609 187.813,623.101 189.774,618.452 z"
   id="path433"
   style="fill: rgb(220, 192, 109);" />
	<path
   d="M 172.708,626.328 C 172.617,625.735 172.361,625.459 171.939,625.498 C 171.724,630.961 173.288,638.173 175.586,643.058 C 175.51,640.007 175.41,637.197 174.931,634.168 C 174.628,632.255 173.38,628.285 173.841,626.382 C 174.377,624.168 177.25,623.772 176.569,620.986 C 175.788,622.134 173.999,624.966 172.063,624.852 C 170.46,624.759 170.364,621.809 168.032,623.797 C 167.839,623.311 167.393,622.687 167.308,622.13 C 168.505,625.899 168.754,630.079 170.22,633.741 C 170.094,630.963 168.36,626.968 170.205,624.54"
   id="path435"
   style="fill: rgb(220, 192, 109);" />
	<path
   d="M 192.044,598.696 C 192.791,598.089 194.315,595.563 194.003,594.528 C 193.34,592.328 192.753,593.994 191.421,593.423 C 195.107,595.006 186.807,599.961 185.707,601.261 C 186.721,600.448 188.728,600.195 189.004,601.924 C 189.287,603.696 186.511,605.222 185.332,606.006 C 183.495,607.225 182.612,608.422 181.051,609.769 C 184.359,606.916 187.798,604.233 191.517,602.046 C 191.398,602.245 191.34,602.461 191.344,602.692 C 192.025,601.985 192.905,601.934 193.743,601.709 C 193.892,602.24 194.161,602.784 194.179,603.332 C 193.949,601.666 193.436,599.678 192.044,598.696 z"
   id="path437"
   style="fill: rgb(204, 178, 92);" />
	<path
   d="M 186.296,697.132 C 186.343,704.046 187.287,710.903 187.718,717.786 C 188.088,723.686 189.951,729.264 190.584,734.927 C 189.636,726.354 188.441,717.921 188.441,709.281 C 188.441,705.173 189.499,697.517 187.1,694.269 C 186.492,695.847 186.588,697.589 186.653,699.276"
   id="path439"
   style="fill: rgb(204, 178, 92);" />
	<path
   d="M 187.728,761.499 C 189.889,761.695 191.391,763.388 192.671,764.705 C 192.794,763.042 192.057,759.703 193.092,758.254 C 194.87,755.763 195.424,758.481 195.299,760.397 C 198.712,758.433 196.238,751.896 194.146,749.789 C 192.634,753.862 192.68,759.649 188.8,762.572"
   id="path441"
   style="fill: rgb(204, 178, 92);" />
	<path
   d="M 178.429,751.843 C 177.614,754.499 175.116,759.609 179.822,758.592 C 178.863,756.268 178.399,754.319 179.502,751.843"
   id="path443"
   style="fill: rgb(204, 178, 92);" />
	<path
   d="M 188.529,632.001 C 188.667,630.397 188.885,628.829 189.237,627.322 C 189.857,624.664 191.43,622.27 191.819,619.586 C 192.069,617.843 191.806,615.94 192.037,614.142 C 192.231,612.631 192.576,605.331 194.555,604.874 C 194.119,604.973 193.204,605.522 192.849,605.847 C 196.271,610.724 189.559,616.088 188.277,620.382 C 186.424,626.588 187.11,633.184 186.394,639.541 C 185.235,649.825 185.899,660.283 185.939,670.569 C 185.925,662.727 186.841,654.931 187.813,647.163 C 188.419,642.317 188.096,636.989 188.529,632.001 z"
   id="path445"
   style="fill: rgb(204, 178, 92);" />
</g><g
     style="overflow: visible; display: inline;"
     id="g447">
	<path
   d="M 174.425,389.556 C 175.87,387.035 179.298,383.938 179.776,381.316 C 180.412,377.829 176.103,376.431 173.699,374.363 C 171.15,372.171 170.336,370.189 166.872,369.701 C 163.565,369.235 159.374,368.628 156.049,369.069 C 153.156,369.453 149.361,369.973 147.682,372.287 C 145.685,375.041 145.245,381.365 147.413,383.819 C 149.787,386.503 153.653,387.583 156.256,389.996 C 160.134,393.592 162.003,397.574 161.163,402.578 C 160.376,407.266 160.89,409.861 165.036,412.435 C 167.425,413.918 169.966,416.498 172.547,417.362 C 175.461,418.338 182.313,417.992 185.354,417.364 C 191.01,416.193 193.384,409.481 199.252,409.032 C 205.221,408.576 208.838,414.079 214.029,416.02 C 220.694,418.512 229.168,420.37 235.492,415.861 C 240.896,412.009 240.395,406.792 240.943,400.948 C 241.534,394.669 244.228,389.497 248.621,385.024 C 248.659,385.306 248.639,385.584 248.665,385.817 C 251.433,383.81 251.977,380.04 251.832,376.569 C 251.627,371.616 246.947,372.305 243.429,373.238 C 239.389,374.308 238.084,373.367 234.374,372.928 C 231.149,372.547 229.023,374.653 226.791,376.675 C 223.917,379.275 219.233,382.126 220.775,386.259 C 228.561,388.039 233.294,401.404 227.974,407.635 C 226.29,409.608 221.479,410.492 219.026,409.78 C 216.164,408.95 215.258,406.309 212.963,404.933 C 210.657,403.551 206.309,403.67 203.657,403.407 C 194.935,402.541 187.818,409.012 179.256,407.506 C 173.627,406.515 173.188,404.636 171.92,399.5 C 170.943,395.553 172.502,392.909 174.425,389.556 z"
   id="path449"
   style="fill: rgb(249, 206, 130); stroke: rgb(150, 115, 72); stroke-width: 0.3218;" />
	<path
   d="M 209.278,404.201 C 204.351,402.493 209.866,409.468 210.707,410.262 C 213.224,412.64 216.358,415.331 219.97,415.213 C 219.761,414.825 219.671,414.304 219.443,413.892 C 225.517,419.801 235.352,413.536 237.607,407.081 C 238.729,403.869 237.777,402.459 237.082,399.562 C 236.358,396.544 237.18,392.7 238.887,390.277 C 238.584,394.255 240.681,392.759 242.186,390.354 C 243.831,387.729 245.279,385.292 247.523,383.116 C 250.025,380.689 250.044,380.283 246.735,378.118 C 244.895,376.912 240.18,376.121 240.702,373.563 C 239.649,374.438 238.193,374.717 236.936,374.827 C 237.091,374.624 237.249,374.421 237.407,374.218 C 235.675,374.518 233.735,377.427 231.808,378.385 C 230.168,379.198 228.432,379.85 226.8,380.689 C 224.439,381.904 220.698,384.207 225.674,384.954 C 225.706,385.278 225.734,385.588 225.78,385.912 C 231.759,384.736 228.468,398.032 231.011,399.883 C 231.188,399.265 231.904,398.564 232.074,398.146 C 235.696,405.18 230.792,413.673 223.037,412.802 C 224.349,412.466 225.573,411.767 226.709,411.07 C 222.478,411.151 219.346,411.507 215.35,408.851 C 213.682,407.742 210.193,400.958 208.204,404.203"
   id="path451"
   style="fill: rgb(220, 192, 109);" />
	<path
   d="M 177.523,410.29 C 182.418,411.947 188.637,408.993 192.871,406.472 C 192.468,406.906 192.248,407.619 191.862,408.074 C 192.711,407.992 193.731,408.261 194.589,408.19 C 190.902,416.78 177.535,419.93 170.77,413.823 C 172.391,414.308 174.358,414.454 175.904,413.955 C 171.264,412.152 167.937,406.073 166.384,401.37 C 165.381,402.004 164.935,403.229 164.491,404.475 C 163.651,401.593 165.613,396.416 164.149,393.832 C 163.373,392.461 162.664,393.29 161.7,392.398 C 160.896,391.654 160.566,390.728 159.876,389.824 C 157.546,386.778 154.786,384.549 151.759,382.38 C 148.393,379.966 148.862,376.813 151.34,373.442 C 153.758,374.724 157.329,375.266 159.999,374.421 C 161.434,373.966 162.749,372.672 164.229,372.447 C 167.369,371.97 171.702,375.668 174.142,377.382 C 178.094,380.155 176.842,381.467 174.581,385.347 C 170.107,393.021 166.27,406.481 177.523,410.29 z"
   id="path453"
   style="fill: rgb(220, 192, 109);" />
	<path
   d="M 160.206,389.162 C 158.506,386.179 158.181,370.71 151.042,373.443 C 148.384,374.461 148.123,377.727 148.684,380.136 C 149.456,383.448 151.183,383.63 153.335,385.492 C 151.035,383.501 150.384,379.626 154.519,381.222 C 157.169,382.246 158.894,386.86 160.206,389.162 z"
   id="path455"
   style="fill: rgb(204, 178, 92);" />
	<path
   d="M 236.099,387.395 C 236.495,382.328 245.166,380.571 243.939,386.938 C 245.817,384.66 250.318,381.827 249.256,378.098 C 247.997,373.678 241.744,375.039 239.314,377.087 C 236.412,379.536 234.104,385.301 235.435,389.11 C 236.903,393.314 240.414,392.259 241.79,388.977 C 238.648,390.053 237.259,387.745 237.171,384.891"
   id="path457"
   style="fill: rgb(204, 178, 92);" />
	<path
   d="M 210.351,410.638 C 212.761,412.19 216.131,413.34 218.903,414.062 C 216.705,412.594 212.206,410.301 212.415,407.091 C 211.767,408.155 211.001,409.729 210.351,410.997"
   id="path459"
   style="fill: rgb(204, 178, 92);" />
	<path
   d="M 181.027,414.929 C 184.458,416.26 190.16,413.53 191.621,410.181 C 190.834,409.422 190.011,408.86 188.956,408.907 C 188.251,412.099 183.68,414.404 180.67,414.572"
   id="path461"
   style="fill: rgb(204, 178, 92);" />
</g><path
     d="M 169.335,592.031 C 164.952,590.925 159.272,593.482 155.743,590.564 C 153.13,588.404 150.079,582.351 152.779,579.265 C 153.681,582.405 159.248,584.667 162.183,585.336 C 165.367,586.063 169.317,585.219 172.186,583.615 C 174.091,582.551 173.436,581.981 175.826,582.189 C 179.795,582.535 182.29,584.146 186.498,582.811 C 190.97,581.393 193.891,578.504 194.045,573.926 C 200.021,570.655 195.564,582.709 194.438,584.956 C 193.512,586.802 192.586,589.844 190.763,590.688 C 188.742,591.624 186.174,590.32 183.979,590.321 C 178.613,590.324 174.74,593.395 169.335,592.031 z"
     id="path479"
     style="fill: rgb(225, 226, 227); stroke: rgb(150, 115, 72); stroke-width: 0.3218;" /><g
     id="g3760"><path
       d="M 190.045,563.119 C 183.616,549.417 179.667,535.423 175.034,520.949 C 168.467,500.428 162.286,479.764 156.361,459.094 C 154.027,450.948 152.69,442.856 150.273,434.769 C 148.121,427.576 143.802,419.348 145.729,411.635 C 144.118,414.974 145.088,423.124 147.429,425.801 C 147.629,423.301 148.143,420.877 148.215,418.341 C 148.335,414.164 146.762,410.75 147.892,406.592 C 148.656,403.773 152.358,394.984 156.76,396.081 C 153.972,395.339 149.423,396.909 147.252,398.904 C 150.633,394.589 155.756,397.92 159.309,394.362 C 160.99,392.678 161.684,390.389 161.465,388.012 C 161.041,383.406 154.486,375.463 149.269,376.097 C 143.778,376.765 144.214,384.303 141.702,387.493 C 140.265,389.32 136.633,391.031 134.407,391.167 C 135.806,387.688 129.765,389.545 128.274,390.157 C 124.577,391.676 125.476,393.022 124.897,396.505 C 124.361,399.72 121.926,402.596 122.117,405.803 C 122.325,409.296 125.26,411.128 126.843,414.01 C 130.751,421.121 133.043,429.051 135.426,436.914 C 138.21,446.099 141.073,454.942 142.528,464.338 C 144.101,474.49 147.786,484.149 150.094,494.131 C 152.766,505.686 156.253,517.362 157.793,529.07 C 159.211,539.847 159.062,552.345 157.435,563.125 C 156.543,569.038 151.823,574.337 152.137,580.449 C 152.346,584.505 157.229,589.169 161.376,589.171 C 165.032,589.173 168.063,587.444 171.48,586.382 C 176.553,584.805 180.318,586.719 185.138,586.469 C 189.619,586.237 192.28,583.642 194.625,579.955 C 198.928,573.189 192.773,568.933 190.045,563.119 z"
       id="path469"
       style="fill: rgb(243, 212, 140); stroke: rgb(150, 115, 72); stroke-width: 0.3218;" /><path
       style="fill: rgb(220, 192, 109);"
       id="path473"
       d="M 158.221,583.635 C 160.704,585.042 162.107,583.184 164.274,583.226 C 164.156,583.585 164.051,583.889 163.987,584.27 C 164.805,584.615 165.877,584.587 166.799,584.281 C 162.957,588.601 173.799,587.586 174.336,583.885 C 174.791,580.759 165.904,575.403 163.289,575.608 C 163.508,572.619 159.416,572.125 157.57,570.943 C 159.033,565.817 161.524,558.101 161.01,552.899 C 160.283,555.587 158.887,564.843 160.628,567.464 C 162.085,569.656 164.496,568.594 166.393,568.197 C 166.94,571.233 172.395,574.096 174.671,575.76 C 178.366,578.458 184.61,581.351 187.56,576.02 C 188.283,574.713 188.643,571.282 188.284,569.938 C 187.792,568.105 185.662,565.164 184.031,567.866 C 186.889,563.583 180.419,554.962 178.89,551.014 C 177.451,547.3 175.756,543.963 175.307,539.972 C 174.987,537.136 174.978,534.39 174.321,531.589 C 171.227,518.41 164.858,506.276 162.959,492.681 C 161.416,481.625 157.663,471.273 153.571,460.873 C 149.901,451.54 148.698,441.491 145.268,432.16 C 144.573,430.267 144.039,426.077 141.916,425.479 C 142.158,425.125 142.864,424.523 143.212,424.355 C 144.849,425.477 144.316,427.935 146.375,428.677 C 146.848,425.637 143.8,421.914 142.04,419.802 C 138.628,421.855 139.336,414.551 139.218,413.008 C 139.012,412.97 138.807,412.925 138.605,412.875 C 140.024,410.225 136.721,409.826 136.383,407.955 C 136.123,406.512 138.084,404.532 138.132,402.952 C 138.173,401.62 137.521,399.47 136.823,398.422 C 137.882,400.013 139.504,402.514 141.286,403.331 C 142.658,403.96 143.919,402.936 144.744,401.96 C 145.803,400.71 146.909,399.499 148.265,398.562 C 148.675,398.279 153.03,395.982 153.269,396.765 C 153.539,397.648 151.634,398.412 151.163,398.958 C 150.162,400.122 149.253,401.413 148.571,402.793 C 147.554,404.851 146.822,407.632 146.996,409.943 C 147.158,412.077 147.613,414.291 147.737,416.436 C 147.799,417.476 147.682,418.489 147.504,419.495 C 147.282,420.751 147.289,422.647 146.792,423.735 C 145.812,421.717 145.471,418.886 145.322,416.652 C 145.242,415.485 145.368,414.083 145.717,412.978 C 145.909,412.37 146.418,411.456 145.847,410.897 C 145.276,411.222 145.088,412.544 144.913,413.183 C 143.045,420.042 146.325,426.359 148.645,432.622 C 151.569,440.516 151.851,449.156 154.743,457.225 C 158.465,467.602 160.259,478.037 162.978,488.686 C 167.2,505.222 172.544,521.154 177.639,537.397 C 180.11,545.278 183.793,552.645 186.741,560.295 C 189.412,567.225 197.332,572.256 192.581,580.526 C 190.893,583.464 187.888,585.47 184.533,585.925 C 183.435,586.074 174.237,583.687 175.137,582.858 C 172.999,584.83 172.086,586.459 168.968,587.371 C 165.99,588.241 162.833,587.871 160.024,586.677 C 157.631,585.66 154.295,584.787 153.082,582.231 C 151.695,579.306 153.249,574.754 155.311,572.551 C 155.475,576.879 162.871,577.147 160.823,581.65 C 160.452,579.932 157.968,575.868 155.714,577.212 C 153.095,578.769 156.703,582.774 158.221,583.635 z" /><path
       style="fill: rgb(220, 192, 109);"
       id="path475"
       d="M 134.853,392.979 C 134.81,393.922 134.919,394.924 135.303,395.79 C 135.964,391.976 141.584,391.72 142.696,387.987 C 141.638,389.352 139.509,390.514 137.998,391.338 C 136.748,392.02 135.03,392.682 133.599,392.755 C 133.843,392.068 133.707,391.382 133.179,390.855 C 132.388,390.063 131.86,390.301 131.006,390.781 C 131.956,390.908 132.305,391.325 131.407,391.907 C 130.211,392.683 129.029,392.706 128.046,393.874 C 128.832,392.661 133.447,391.001 134.121,393.082" /><path
       style="fill: rgb(220, 192, 109);"
       id="path477"
       d="M 132.108,409.464 C 132.381,411.15 131.256,413.324 129.829,414.13 C 129.55,413.726 128.447,412.951 127.963,413.391 C 127.474,413.834 128.094,415.093 128.315,415.495 C 127.829,413.002 125.604,411.777 124.521,409.648 C 125.892,409.338 126.83,411.673 128.095,411.896 C 128.878,412.034 129.803,411.677 130.454,411.276 C 130.855,411.03 132.201,410.035 132.108,409.464 z" /><path
       style="fill: rgb(204, 178, 92);"
       id="path483"
       d="M 146.074,411.793 C 145.799,413.608 145.435,415.094 145.534,416.946 C 145.632,418.772 145.99,420.744 146.616,422.46 C 146.434,420.169 146.06,417.897 146.209,415.578 C 146.251,414.913 146.57,414.168 146.579,413.537 C 146.59,412.864 146.141,412.324 146.074,411.659" /><path
       style="fill: rgb(204, 178, 92);"
       id="path485"
       d="M 153.941,396.362 C 152.259,397.083 151.096,398.52 149.98,399.911 C 150.846,398.405 148.494,399.578 148.088,399.775 C 146.617,400.492 145.295,401.293 144.082,402.405 C 143.7,402.756 143.168,403.735 142.59,403.757 C 142.211,403.771 141.559,403.224 141.225,403.049 C 140.296,402.564 139.653,402.053 138.878,401.378 C 139.899,402.314 140.432,402.958 141.913,402.847 C 145.079,402.613 146.602,399.228 149.284,397.816 C 150.801,397.019 152.465,396.959 153.941,396.362 z" /><path
       d="M 188.55,578.677 C 189.413,577.305 191.597,571.814 189.095,571.11 C 190.47,571.498 187.294,561.959 187.217,561.487 C 187.765,561.734 187.79,561.861 188.263,561.426 C 189.05,563.351 190.069,565.171 191.233,566.894 C 192.552,568.841 194.649,570.207 194.712,572.796 C 193.568,572.81 192.501,577.572 191.83,578.628 C 189.464,582.355 184.774,583.305 180.681,582.875 C 179.689,582.77 178.431,583.067 177.506,582.872 C 175.75,582.497 174.524,580.547 173.21,579.484 C 171.988,578.496 170.72,577.93 169.353,577.22 C 172.036,579.116 176.334,582.25 179.654,582.587 C 182.715,582.899 186.886,581.324 188.55,578.677 z"
       id="path487"
       style="fill: rgb(204, 178, 92);" /></g><path
     d="M 158.591,394.719 C 160.01,392.09 149.702,388.987 147.935,387.567 C 145.076,385.271 141.747,381.393 144.61,378.412 C 147.508,375.394 151.398,375.897 154.587,377.997 C 159.773,381.413 166.254,392.468 157.519,395.791"
     id="path481"
     style="fill: rgb(225, 226, 227); stroke: rgb(150, 115, 72); stroke-width: 0.3218;" /><g
     inkscape:label="Femur"
     id="FemurLeft">
		<path
   style="fill: rgb(243, 212, 140); stroke: rgb(150, 115, 72); stroke-width: 0.3218;"
   id="path493"
   d="M 248.121,579.791 C 247.674,582.722 246.726,585.602 244.979,587.85 C 243.39,589.894 241.564,588.742 239.344,588.566 C 236.813,588.367 234.667,586.668 232.033,586.434 C 228.362,586.11 224.813,586.963 221.586,588.714 C 219.071,590.078 216.228,590.985 213.417,591.059 C 213.782,593.197 210.898,591.324 210.341,590.707 C 208.882,589.091 208.256,587.325 207.379,585.408 C 206.852,584.259 206.382,583.498 206.472,582.186 C 206.568,580.82 206.666,579.452 206.779,578.086 C 206.882,576.851 207.139,575.694 206.986,574.441 C 206.898,573.725 206.747,572.958 206.932,572.244 C 207.114,571.552 207.64,571.01 208.033,570.431 C 209.116,568.827 210.179,567.227 211.13,565.539 C 213.052,562.127 214.665,558.553 216.245,554.974 C 218.075,550.832 219.638,546.699 221.118,542.441 C 222.035,539.8 222.731,537.256 223.45,534.561 C 225.503,526.848 228.509,519.508 230.491,511.755 C 232.568,503.626 234.059,495.344 235.826,487.136 C 237.433,479.68 240.261,472.609 242.741,465.4 C 244.068,461.548 245.005,457.549 246.423,453.693 C 247.212,451.545 247.875,449.396 248.43,447.172 C 249.21,444.051 249.371,440.979 249.992,437.834 C 250.736,434.077 252.078,430.473 253.321,426.864 C 253.876,425.254 254.337,423.629 254.912,422.018 C 255.817,419.489 255.742,417.49 255.791,414.911 C 256.333,416.165 256.331,417.726 256.028,419.148 C 255.449,421.875 254.4,424.805 253.372,427.398 C 252.842,426.105 253.065,424.716 252.801,423.168 C 252.553,421.728 252.078,420.205 251.449,418.89 C 251.192,418.353 250.394,417.465 250.281,416.954 C 249.938,415.4 251.576,414.717 252.336,413.651 C 253.987,411.33 254.571,407.33 252.954,404.858 C 251.576,402.75 249.875,400.34 247.514,399.285 C 245.237,398.268 241.964,398.215 240.367,396.104 C 235.831,390.102 240.758,385.417 245.115,381.436 C 247.642,379.127 251.264,377.713 254.512,379.707 C 258.05,381.878 255.919,387.033 254.107,389.517 C 255.171,387.322 256.287,386.156 256.411,383.592 C 256.576,383.53 256.761,383.48 256.932,383.439 C 258.01,385.495 258.585,388.067 260.303,389.871 C 262.275,391.945 265.783,393.812 268.72,393.493 C 267.738,393.588 264.779,393.225 264.461,391.935 C 264.293,391.248 265.268,389.822 265.286,388.948 C 267.57,388.15 270.84,387.537 272.967,389.116 C 274.007,389.888 274.149,390.916 274.654,391.981 C 275.214,393.154 276.136,394.025 276.983,394.879 C 275.917,396.36 276.77,399.3 277.307,400.878 C 278.087,403.167 279.841,404.766 279.033,407.35 C 278.179,410.075 275.828,411.933 274.535,414.408 C 270.779,421.601 268.657,429.576 266.439,437.489 C 264.289,445.166 262.008,452.828 260.606,460.685 C 259.946,464.368 259.983,467.974 258.879,471.584 C 257.763,475.243 256.115,478.708 254.761,482.279 C 252.882,487.228 251.549,492.288 250.174,497.389 C 248.757,502.647 248.094,508.019 246.654,513.285 C 245.901,516.046 245.537,518.801 244.732,521.53 C 243.795,524.717 242.614,527.853 242.294,531.184 C 241.941,534.887 241.765,538.639 241.681,542.353 C 241.624,544.975 242.262,547.446 242.356,550 C 242.467,553.005 242.462,555.896 242.753,558.92 C 242.955,561.02 243.354,562.91 244.269,564.814 C 245.15,566.643 246.37,567.825 247.624,569.343 C 248.701,570.651 248.408,572.564 248.446,574.406 C 248.484,576.128 248.399,577.971 248.121,579.791 z" />
		<path
   style="fill: rgb(220, 192, 109);"
   id="path495"
   d="M 241.91,557.729 C 240.947,553.514 240.761,549.452 240.674,545.151 C 240.621,542.483 240.399,539.797 240.326,537.145 C 240.241,534.127 241.288,531.06 241.572,528.052 C 241.313,530.791 240.498,533.544 240.083,536.277 C 239.68,538.922 238.69,541.427 238.187,544.049 C 237.738,546.393 237.626,548.113 236.126,550.105 C 234.648,552.074 232.727,553.974 230.893,555.6 C 229.158,557.135 225.586,558.882 224.736,560.731 C 223.687,563.006 224.625,565.971 222.974,568.018 C 221.241,570.165 218.045,571.723 215.885,573.464 C 216.906,574.687 213.693,576.303 212.741,576.544 C 212.647,575.253 211.832,574.233 211.516,572.999 C 211.292,572.127 211.764,571.055 210.266,571.406 C 210.177,570.629 210.507,569.387 211.134,568.907 C 211.893,569.479 212.849,569.572 213.143,570.59 C 213.051,570.015 212.571,569.869 212.392,569.412 C 212.158,568.818 212.21,568.77 212.149,568.169 C 212.045,567.116 212.697,566.134 212.456,565.129 C 210.995,566.09 210.037,568.954 209.005,570.425 C 208.22,571.544 207.621,572.936 207.138,574.157 C 210.817,577.276 210.882,582.475 211.873,586.706 C 211.415,583.296 213.571,579.908 215.592,577.503 C 217.107,575.701 218.407,573.658 220.368,572.284 C 221.622,571.404 223.078,570.958 224.422,570.199 C 227.085,568.696 229.212,565.54 231.442,563.421 C 233.33,561.626 235.294,558.026 237.723,557.083 C 238.304,558.325 237.073,560.424 237.246,561.919 C 237.502,564.101 239.303,565.832 240.309,567.698 C 241.13,569.222 242.21,571.812 241.792,573.589 C 241.452,575.027 240.762,574.818 239.58,575.306 C 242.2,578.102 242.04,582.696 238.715,584.725 C 236.674,585.97 234.819,586.441 232.603,586.018 C 230.418,585.602 228.532,585.838 226.424,586.614 C 229.279,585.936 231.942,586.454 234.774,586.996 C 236.873,587.397 239.04,588.399 241.188,588.295 C 243.555,588.178 244.312,587.369 245.461,585.384 C 247.302,582.208 247.899,578.036 247.562,574.423 C 247.156,570.079 244.317,567.341 242.943,563.386 C 242.335,561.634 242.333,559.572 241.91,557.729 z" />
		<path
   style="fill: rgb(220, 192, 109);"
   id="path497"
   d="M 265.474,416.94 C 266.13,415.303 266.371,414.129 267.587,413.212 C 268.967,412.168 270.434,411.597 271.625,410.247 C 272.45,409.31 273.017,408.224 273.718,407.206 C 273.233,408.318 272.659,409.335 271.993,410.352 C 270.914,411.998 268.47,413.954 267.998,415.891 C 267.644,417.348 269.196,418.005 268.38,419.649 C 267.559,421.308 265.82,422.333 265.36,424.284 C 264.871,426.358 265.036,428.796 264.684,430.943 C 263.297,439.381 259.916,447.388 257.775,455.639 C 256.946,458.831 256.195,462.045 255.609,465.291 C 255.054,468.363 255.124,471.052 254.184,474.099 C 253.388,476.663 252.738,479.269 251.901,481.825 C 249.637,488.743 247.485,495.638 244.734,502.385 C 244.3,503.449 243.042,505.299 243.019,506.491 C 243.001,507.435 243.703,507.951 243.673,509.366 C 243.547,515.397 240.578,521.624 241.235,527.666 C 241.878,526.364 242.116,524.313 242.481,522.816 C 243.232,519.712 243.908,516.599 244.654,513.49 C 245.495,509.994 246.683,506.611 247.692,503.163 C 249.679,496.368 251.32,489.446 253.476,482.689 C 255.788,475.449 258.846,468.328 260.525,460.954 C 261.213,457.929 261.519,454.973 261.69,451.925 C 261.869,448.704 263.55,445.443 264.472,442.387 C 264.996,440.654 265.208,438.928 265.704,437.19 C 266.416,434.693 267.106,432.187 267.882,429.709 C 268.682,427.154 269.955,424.652 270.591,422.065 C 271.059,420.169 271.254,418.759 272.286,417.016 C 273.724,414.589 275.278,412.224 276.933,409.939 C 278.26,408.107 278.966,406.879 278.246,404.523 C 277.651,402.573 276.441,400.946 276.03,399.062 C 275.645,397.312 275.883,395.583 274.892,394.038 C 273.795,392.332 271.572,390.271 269.702,389.525 C 267.82,388.774 266.541,390.566 265.367,391.941 C 266.615,391.335 271.636,389.928 271.608,392.711 C 271.582,395.487 263.955,393.928 262.527,393.217 C 261.106,392.512 260.007,391.629 258.824,390.615 C 257.95,389.866 256.369,389.336 256.124,388.1 C 255.441,388.671 255.198,389.515 254.733,390.258 C 253.432,392.341 251.875,393.043 249.674,393.935 C 248.905,394.247 248.161,394.456 247.355,394.622 C 246.234,394.85 244.792,394.801 243.784,395.315 C 245.748,396.024 248.87,396.648 249.919,398.671 C 249.562,398.035 248.004,397.253 248.269,396.248 C 248.501,395.369 249.95,395.293 250.66,395.356 C 250.908,395.377 253.336,396.447 252.757,396.683 C 254.448,395.997 254.658,394.152 256.789,393.694 C 258.518,393.322 259.506,393.754 260.729,394.552 C 260.727,394.551 261.156,395.135 261.271,395.229 C 261.435,395.363 261.834,395.223 262.049,395.37 C 262.402,395.609 262.955,395.943 263.112,396.329 C 264.257,399.158 261.241,402.166 258.767,403.016 C 256.391,403.83 256.242,402.132 254.824,400.953 C 254.141,402.178 255.033,404.903 255.078,406.345 C 255.152,408.934 255.009,410.334 253.781,412.723 C 253.305,413.647 251.697,415.311 251.477,416.164 C 250.996,418.022 254.064,420.415 253.984,422.722 C 254.694,421.004 254.97,419.425 255.133,417.611 C 255.252,416.24 255.029,414.848 255.083,413.465 C 255.071,413.831 255.979,414.861 256.147,415.281 C 256.414,415.94 256.569,416.626 256.623,417.334 C 256.738,418.843 256.279,420.228 255.942,421.67 C 255.635,422.97 255.558,424.056 254.95,425.267 C 254.191,426.782 253.247,428.174 252.667,429.779 C 251.965,431.72 251.411,433.89 250.873,435.925 C 250.387,437.771 250.304,439.352 250.275,441.237 C 250.258,442.389 249.925,443.711 250.295,444.801 C 252.255,437.143 254.894,429.737 257.073,422.132 C 257.608,420.257 258.011,418.278 258.469,416.382 C 258.956,414.346 258.237,412.235 258.198,410.169 C 258.168,408.58 257.393,404.824 258.669,403.591 C 259.335,402.949 260.645,402.622 261.423,402.053 C 262.926,400.959 263.289,399.661 264.019,398.095 C 264.323,397.441 264.484,396.027 264.85,395.529 C 266.646,393.078 274.57,394.995 272.978,398.58 C 271.538,401.825 267.967,402.888 266.069,405.678 C 265.169,407.006 265.673,408.503 265.691,410.066 C 265.721,412.358 265.907,414.674 265.474,416.94 z" />
		
		<path
   style="fill: rgb(204, 178, 92);"
   id="path501"
   d="M 256.603,385.524 C 256.241,387.486 255.759,389.686 254.447,391.262 C 253.479,392.429 251.879,393.124 250.705,393.991 C 253.377,392.579 255.077,390.72 257.218,388.737 C 257.517,389.314 258.077,389.824 258.643,390.255 C 258.711,389.398 258.045,389.041 257.683,388.327 C 257.308,387.585 257.314,386.095 256.606,385.703" />
		<path
   style="fill: rgb(204, 178, 92);"
   id="path503"
   d="M 266.698,389.245 C 265.864,389.556 264.592,391.555 265.184,392.503 C 265.508,393.023 266.586,393.128 267.128,393.282 C 266.081,392.443 265.494,391.023 266.528,389.784" />
		<path
   style="fill: rgb(204, 178, 92);"
   id="path505"
   d="M 254.852,412.566 C 254.961,412.284 255.017,411.966 255.119,411.678 C 254.672,412.091 253.677,412.906 253.477,413.49 C 253.137,414.469 253.881,415.218 254.173,416.207 C 254.777,418.266 254.239,420.166 254.513,422.176 C 255.21,418.92 256.695,415.113 254.662,412.034" />
		<path
   style="fill: rgb(204, 178, 92);"
   id="path507"
   d="M 276.408,400.306 C 276.08,401.458 275.305,402.453 274.888,403.543 C 275.911,402.97 277.016,404.026 277.585,404.749 C 278.627,406.066 278.193,406.679 277.282,407.968 C 276.624,408.9 275.567,409.632 274.976,410.523 C 273.976,412.029 273.113,414.358 272.618,416.063 C 273.812,413.657 275.715,411.358 277.133,409.042 C 277.668,408.168 278.599,407.117 278.817,406.116 C 279.312,403.86 276.471,402.656 276.414,400.484" />
		<path
   style="fill: rgb(204, 178, 92);"
   id="path509"
   d="M 241.524,560.032 C 241.495,561.803 241.708,563.682 242.172,565.391 C 242.525,566.693 242.55,568.284 243.109,569.485 C 243.473,570.271 246.065,572.218 244.681,572.693 C 244.665,574.289 244.568,575.394 242.616,575.201 C 243.623,575.706 245.01,576.225 246.137,576.222 C 246.415,578.689 245.562,581.297 244.386,583.447 C 243.424,585.209 242.337,585.387 240.284,585.672 C 240.395,585.89 240.37,586.129 240.449,586.318 C 238.792,586.532 238.03,585.975 236.72,585.385 C 235.457,584.819 234.248,584.969 232.921,584.859 C 229.485,584.572 226.108,584.179 222.803,585.605 C 224.392,585.806 226.633,584.806 228.29,584.582 C 230.017,584.351 231.847,584.637 233.49,585.235 C 235.109,585.823 237.142,588.265 238.718,588.372 C 239.627,588.433 239.827,587.518 240.494,587.365 C 241.282,587.186 241.996,587.742 242.832,587.551 C 244.477,587.172 245.34,584.219 245.891,582.788 C 246.717,580.638 247.305,578.341 247.546,576.015 C 247.708,574.426 248.312,570.924 247.055,569.609 C 246.894,569.44 246.28,569.563 246.053,569.38 C 245.672,569.068 245.451,568.695 245.1,568.354 C 244.543,567.818 244.043,567.282 243.675,566.61 C 242.549,564.563 242.621,562.297 241.885,560.207" />
		<path
   style="fill: rgb(204, 178, 92);"
   id="path511"
   d="M 213.84,578.503 C 212.68,579.929 212.053,581.97 211.652,583.728 C 215.64,577.498 222.544,573.577 226.841,567.545 C 223.996,570.119 220.985,572.564 217.903,574.848 C 216.3,576.035 213.914,578.603 212.424,579.248" />
	</g><path
     style="fill: rgb(225, 226, 227); stroke: rgb(150, 115, 72); stroke-width: 0.3218;"
     id="path513"
     d="M 245.023,588.769 C 246.059,588.048 247.001,587.254 247.76,586.498 C 249.64,584.619 248.629,581.947 248.538,579.666 C 248.512,578.953 249.596,570.756 246.856,572.98 C 246.172,573.535 245.915,574.372 245.561,575.148 C 245.066,576.233 244.665,577.324 243.854,578.22 C 242.541,579.674 240.964,581.044 239.28,582.047 C 237.198,583.285 235.951,582.388 233.769,582.862 C 231.557,583.343 229.445,583.787 227.159,583.936 C 226.474,583.98 225.544,583.984 224.888,584.164 C 224.133,584.372 223.618,584.79 222.934,585.145 C 220.858,586.222 218.322,586.686 215.975,586.464 C 212.381,586.125 210.455,582.559 209.718,579.399 C 209.349,577.811 209.125,576.305 208.649,574.75 C 208.463,574.139 208.395,572.988 207.871,572.544 C 207.794,572.48 206.354,571.771 206.576,572.433 C 207.126,574.089 206.911,576.141 206.862,577.937 C 206.817,579.656 205.838,581.675 206.382,583.311 C 207.167,585.673 208.016,588.618 209.816,590.425 C 211.172,591.787 212.229,591.322 213.811,591.636 C 215.185,591.908 216.417,592.42 217.906,592.527 C 221.804,592.808 225.477,590.642 229.368,590.905 C 232.665,591.128 235.949,591.701 239.266,591.283 C 241.144,591.044 243.224,590.016 245.023,588.769 z" /><path
     style="overflow: visible; display: inline; fill: rgb(225, 226, 227); stroke: rgb(150, 115, 72); stroke-width: 0.3218;"
     id="path499"
     d="M 245.284,378.301 C 238.539,379.768 235.177,389.587 239.343,395.079 C 240.375,396.436 242.191,396.888 243.564,397.793 C 242.933,397.376 242.193,397.139 242.106,396.201 C 241.979,394.856 242.575,395.237 243.497,394.942 C 245.558,394.283 247.656,393.836 249.722,393.216 C 252.152,392.487 253.018,391.982 254.41,389.822 C 255.239,388.537 255.685,387.433 256.08,385.931 C 257.27,381.417 254.884,378.503 250.451,378.069 C 248.838,377.912 246.993,377.93 245.284,378.301 z" /><g
     style="overflow: visible; display: inline;"
     id="PelvicGirdle"
     inkscape:label="Pelvic Girdle">
	<path
   d="M 157.196,381.135 C 157.395,381.304 157.586,381.484 157.766,381.677 C 161.301,385.431 159.641,391.802 165.021,393.436 C 167.978,394.334 170.933,394.811 173.73,396.18 C 177.21,397.882 179.871,400.555 183.001,402.772 C 185.349,404.435 196.378,413.442 198.733,409.313 C 199.776,409.547 201.121,409.22 202.485,409.34 C 204.765,409.539 205.659,410.381 208.04,409.233 C 210.857,407.874 213.159,405.278 215.432,403.195 C 220.061,398.958 224.9,398.317 230.801,396.743 C 233.22,396.097 235.472,395.674 237.345,393.981 C 241.041,390.638 239.466,385.025 241.638,380.715 C 244.138,381.711 247.909,379.849 250.487,379.647 C 253.212,379.433 255.933,379.89 257.439,376.993 C 259.074,373.844 257.775,367.793 261.893,366.268 C 261.813,366.219 261.334,365.753 261.26,365.704 C 264.472,367.059 268.9,362.796 270.849,360.778 C 274.117,357.4 275.372,354.275 274.571,349.553 C 273.023,340.438 268.165,331.523 259.964,326.667 C 250.26,320.921 237.1,321.174 228.318,328.306 C 221.802,333.597 223.674,342.256 218.679,348.328 C 216.847,350.556 215.917,351.541 217.165,354.121 C 218.308,356.484 220.652,359.648 222.427,361.609 C 226.529,366.136 230.068,368.154 228.353,374.914 C 227.205,379.443 225.504,383.926 222.939,387.852 C 220.469,391.631 216.875,393.99 214.022,397.393 C 211.559,400.332 209.129,400.206 205.51,399.535 C 204.309,399.311 202.769,397.421 202.509,400.275 C 201.34,400.405 200.24,400.735 199.049,400.633 C 199.075,400.245 198.89,399.703 198.931,399.324 C 198.983,398.837 193.908,400.77 193.577,400.762 C 191.344,400.714 190.561,399.019 189.222,397.45 C 185.485,393.07 180.771,389.773 176.834,385.6 C 173.361,381.917 171.636,377.495 171.56,372.37 C 171.465,365.963 176.242,367.163 178.807,362.651 C 180.156,360.274 179.387,357.078 180.204,354.568 C 181.087,351.853 183.163,349.295 184.023,346.622 C 185.176,343.037 185.398,339.599 183.449,336.171 C 178.413,327.316 168.776,326.255 159.686,325.174 C 152.872,324.362 149.023,325.12 143.606,329.93 C 139.165,333.874 134.439,340.281 132.294,345.823 C 131.102,348.905 130.752,352.009 131.588,355.302 C 131.908,356.564 132.416,358.605 133.215,359.569 C 135.323,362.117 142.213,365.254 145.228,362.827 C 144.499,363.543 143.935,364.038 142.909,364.275 C 142.226,364.432 144.32,374.468 146.776,374.868 C 147.91,375.053 148.947,373.581 149.654,373.844 C 150.754,374.254 150.507,376.199 151.343,377.122 C 152.973,378.923 155.385,379.587 157.196,381.135 z"
   id="path517"
   style="fill: rgb(249, 206, 130); stroke: rgb(150, 115, 72); stroke-width: 0.3218;" />
	<path
   d="M 202.148,409.921 C 202.978,408.174 203.489,400.815 201.384,399.828 C 198.167,398.319 199.668,408.433 199.7,409.829 C 200.289,410.196 201.762,410.734 202.148,409.921 z"
   id="path519"
   style="fill: rgb(225, 226, 227); stroke: rgb(150, 115, 72); stroke-width: 0.2358;" />
	<path
   d="M 178.25,360.635 C 179.474,363.227 174.35,365.305 172.608,366.804 C 170.28,368.809 169.852,370.276 170.106,373.509 C 170.642,380.329 174.965,386.791 179.278,391.154 C 174.647,387.418 171.361,383.019 169.014,377.582 C 169.163,377.71 169.272,377.869 169.338,378.053 C 168.85,375.365 168.532,373.037 169.176,370.352 C 165.385,369.274 175.444,363.374 174.448,360.609 C 175.164,360.378 176.1,360.111 176.819,359.955 C 177.156,360.393 177.7,360.888 177.892,361.351"
   id="path521"
   style="fill: rgb(220, 192, 109);" />
	<path
   d="M 224.739,359.563 C 222.487,362.023 225.927,363.519 227.233,365.276 C 228.802,367.392 229.207,369.127 229.386,371.721 C 229.768,377.164 227.244,382.011 225.419,386.996 C 228.731,380.717 230.742,376.329 230.521,369.279 C 230.782,369.132 231.035,368.983 231.22,368.868 C 230.101,365.707 227.384,361.777 224.38,359.919"
   id="path523"
   style="fill: rgb(220, 192, 109);" />
	<path
   d="M 148.518,363.557 C 147.213,363.061 146.756,361.375 145.352,360.645 C 144.192,360.043 143.291,360.209 142.361,359.169 C 141.293,357.975 141.559,356.019 140.364,354.826 C 138.503,352.966 135.644,353.212 134.965,350.265 C 133.214,342.663 144.423,333.791 149.972,331.09 C 147.153,333.656 140.569,339.084 141.122,343.442 C 141.245,343.144 141.971,342.4 142.145,341.81 C 142.281,342.486 142.684,342.751 142.948,343.363 C 143.167,342.894 143.729,342.463 143.915,342.045 C 145.301,343.218 147.985,349.615 151.053,347.348 C 151.851,346.758 151.759,345.078 151.474,344.313 C 151.922,344.776 151.943,344.891 152.126,345.457 C 153.815,346.903 152.377,351.904 153.848,354.5 C 155.831,358 157.987,357.763 161.701,358.186 C 159.983,360.169 157.711,361.749 156.437,364.081 C 155.153,363.865 153.694,365.996 153.561,367.511 C 153.379,369.579 155.139,371.161 156.322,372.732 C 154.955,373.161 154.943,373.192 155.409,374.475 C 153.998,372.5 151.699,371.409 150.113,369.643 C 149.3,368.738 148.701,368.361 148.363,367.097 C 148.253,366.685 148.697,363.625 148.518,363.557 z"
   id="path525"
   style="fill: rgb(220, 192, 109);" />
	<path
   d="M 259.069,364.569 C 257.587,363.148 256.945,359.769 258.808,358.179 C 259.535,357.561 260.704,357.805 261.285,357.687 C 264.273,357.08 266.527,356.03 268.409,353.482 C 274.197,345.644 263.561,331.558 257.299,328.124 C 259.04,330.764 262.298,332.327 263.655,335.499 C 264.574,337.655 266.199,342.961 264.52,344.891 C 264.407,344.414 264.108,343.949 263.993,343.472 C 262.969,344.427 262.78,346.429 261.912,347.776 C 261.954,347.902 261.258,347.307 261.266,347.312 C 261.316,347.039 261.519,347.035 261.535,346.744 C 260.639,346.834 258.931,348.378 258.099,348.826 C 256.152,349.872 254.354,350.05 252.733,352.053 C 254.471,354.096 254.959,356.141 254.414,358.74 C 254.455,358.696 254.706,358.171 254.779,358.078 C 255.321,358.989 254.792,359.993 253.759,360.732 C 257.743,365.108 246.068,373.035 250.414,377.061 C 250.239,373.106 253.477,366.486 257.498,365.215 C 257.375,365.039 257.315,364.844 257.32,364.63 C 257.92,364.897 258.131,364.587 258.745,365.159 C 258.075,364.114 257.904,362.865 258.353,361.707"
   id="path527"
   style="fill: rgb(220, 192, 109);" />
	<path
   d="M 249.318,332.465 C 248.209,332.75 246.74,332.42 245.525,332.722 C 244.139,333.066 242.614,333.836 241.297,334.416 C 238.362,335.712 235.56,337.395 233.319,339.717 C 230.58,342.557 227.775,348.339 229.01,352.411 C 229.687,354.64 232.152,355.683 234.711,356.288 C 234.054,354.6 232.422,353.358 231.674,351.676 C 232.854,351.283 231.682,344.872 232.631,342.801 C 235.721,336.058 243.013,334.081 249.318,332.465 z"
   id="path529"
   style="fill: rgb(220, 192, 109);" />
	<path
   d="M 178.25,346.69 C 176.022,348.217 174.427,347.372 173.375,345.135 C 172.317,342.881 173.983,340.171 172.688,337.973 C 170.28,333.891 163.757,333.079 159.738,331.393 C 162.076,332.374 165.964,331.294 168.692,332.305 C 171.947,333.511 174.761,336.278 175.344,339.833 C 171.876,340.972 176.604,348.663 177.91,345.364 C 177.792,346.169 177.929,347.049 177.892,347.761"
   id="path531"
   style="fill: rgb(220, 192, 109);" />
	<path
   d="M 183.972,394.607 C 188.303,397.666 190.146,403.68 193.912,407.087 C 193.695,406.309 193.979,405.264 193.977,404.734 C 194.209,404.955 194.386,405.169 194.609,405.309 C 195.008,404.103 195.546,402.817 196.808,402.395 C 195.526,401.224 193.225,402.672 191.403,401.848 C 189.419,400.951 187.607,398.533 186.474,396.753"
   id="path533"
   style="fill: rgb(220, 192, 109);" />
	<path
   d="M 203.997,401.402 C 204.361,402.796 204.687,404.204 204.694,405.645 C 204.897,404.895 205.424,404.338 205.705,403.656 C 206.094,404.648 206.249,405.656 206.198,406.718 C 208.879,406.32 212.856,400.497 215.072,398.621 C 217.746,396.357 220.496,394.057 222.823,391.417 C 217.819,397.216 211.409,401.624 204.085,400.381 C 203.872,400.738 203.597,400.851 203.281,401.043"
   id="path535"
   style="fill: rgb(220, 192, 109);" />
	<path
   d="M 145.709,334.531 C 139.251,339.348 135.451,345.128 136.117,353.439 C 138.424,352.663 139.593,354.411 141.451,355.869 C 141.127,353.147 138.044,352.701 137.11,350.621 C 135.358,346.718 140.874,338.846 143.564,337.392"
   id="path537"
   style="fill: rgb(204, 178, 92);" />
	<path
   d="M 148.212,365.285 C 148.885,367.457 148.595,370.024 148.287,372.045 C 149.129,372.004 149.861,371.721 150.573,371.015 C 149.057,369.282 148.628,366.098 148.57,363.854"
   id="path539"
   style="fill: rgb(204, 178, 92);" />
</g><g
     id="Coccyx"
     inkscape:label="Coccyx">
		<path
   style="fill: rgb(243, 212, 140); stroke: rgb(150, 115, 72); stroke-width: 0.3218;"
   id="path579"
   d="M 198.249,385.062 C 198.284,385.521 197.852,385.887 197.926,386.385 C 197.958,386.602 198.614,387.705 198.887,387.568 C 200.93,386.533 199.059,389.198 199.116,389.426 C 199.338,390.313 200.062,390.253 200.849,390.157 C 200.868,390.689 200.443,390.693 200.329,391.073 C 199.918,392.452 201.205,394.891 202.88,394.267 C 203.509,394.033 204.038,393.022 204.192,392.416 C 204.399,391.61 203.68,390.975 203.977,390.425 C 203.921,390.529 204.589,390.313 204.627,390.29 C 204.939,390.102 205.15,389.573 205.193,389.231 C 205.327,388.135 203.292,388.342 203.983,387.483 C 204.403,386.96 205.263,387.371 205.63,386.614 C 205.995,385.86 205.302,384.981 204.584,384.762 C 205.404,383.722 206.82,385.401 207.675,383.963 C 208.358,382.815 208.733,381.924 208.223,380.772 C 206.753,380.867 205.177,381.49 203.692,381.817 C 202.082,382.173 200.745,381.844 199.126,381.821 C 198.337,381.81 197.601,381.817 196.846,381.687 C 195.825,381.512 194.639,380.848 194.394,382.156 C 194.251,382.926 194.988,384.77 195.666,385.183 C 196.387,385.618 197.473,385.004 198.249,385.062 z" />
		<path
   style="fill: rgb(220, 192, 109);"
   id="path581"
   d="M 201.137,392.282 C 202.294,392.061 201.727,393.636 202.749,392.955 C 203.438,392.497 203.078,391.909 202.357,391.856 C 202.732,391.152 202.041,390.877 201.556,390.696 C 202.102,390.889 203.369,390.996 203.399,390.156 C 202.795,390.2 202.294,390.021 201.714,390.002 C 202.815,389.843 202.964,389.668 203.523,389.03 C 203.476,389.05 203.438,389.04 203.41,389.002 C 203.495,389.042 203.34,388.748 203.397,388.821 C 202.959,388.639 202.979,388.779 202.86,388.275 C 201.743,388.364 202.006,388.614 201.666,389.565 C 201.713,388.547 201.211,388.351 200.487,387.823 C 200.764,387.504 201.783,387.559 202.327,387.43 C 202.327,387.005 202.294,386.833 201.855,386.646 C 202.742,386.44 204.129,386.179 203.527,384.926 C 202.062,384.845 200.485,385.234 199.169,384.631 C 200.323,385.119 201.965,384.452 203.136,384.205 C 203.036,383.924 203.089,383.637 203.004,383.337 C 203.112,383.603 203.402,383.894 203.52,384.088 C 203.576,383.963 203.665,383.85 203.714,383.753 C 204.719,384.624 205.357,382.685 205.427,381.996 C 205.706,382.805 205.391,383.983 206.66,383.465 C 207.055,383.304 208.002,382.13 208.053,381.699 C 207.953,382.553 207.906,383.427 207.198,383.967 C 206.372,384.595 205.624,383.683 204.787,384.211 C 203.827,384.816 204.367,384.803 204.764,385.405 C 205.887,387.118 202.45,386.637 203.44,388.368 C 203.922,388.386 204.687,388.6 204.771,389.204 C 204.867,389.907 203.986,389.922 203.713,390.303 C 203.389,390.754 203.734,391.31 203.718,391.846 C 203.698,392.471 203.325,393.663 202.636,393.843 C 201.83,394.054 200.843,392.888 201.271,392.145" />
		<path
   style="fill: rgb(204, 178, 92);"
   id="path583"
   d="M 196.31,382.09 C 197.507,381.52 197.977,383.085 198.394,383.823 C 198.292,383.253 197.939,382.758 197.798,382.248 C 198.47,382.377 198.959,382.242 199.62,382.225 C 198.638,382.221 197.654,381.908 196.711,381.956" />
		<path
   style="fill: rgb(204, 178, 92);"
   id="path585"
   d="M 199.93,385.174 C 201.091,385.021 202.415,385.541 203.53,385.359 C 203.521,385.529 203.609,385.797 203.579,385.966 C 204.33,385.623 204.095,385.118 203.549,384.908 C 202.8,384.618 200.984,385.316 200.199,385.444" />
		<path
   style="fill: rgb(204, 178, 92);"
   id="path587"
   d="M 203.282,388.125 C 202.602,387.792 201.554,387.998 200.985,388.259 C 201.834,388.939 203.09,388.102 204.07,388.644 C 203.997,388.203 203.424,388.075 203.014,387.856" />
		<path
   style="fill: rgb(204, 178, 92);"
   id="path589"
   d="M 203.148,390.538 C 202.457,390.447 201.864,390.742 201.184,390.666 C 201.682,390.993 202.314,391.237 202.853,391.463 C 202.862,391.048 202.772,390.691 202.747,390.27" />
	</g><g
     id="Sacrum"
     inkscape:label="Sacrum">
		<path
   style="fill: rgb(249, 227, 183); stroke: rgb(150, 115, 72); stroke-width: 0.3218;"
   id="path593"
   d="M 215.167,346.926 C 216.667,346.111 217.863,344.618 219.047,343.595 C 222.067,340.991 224.574,344.08 225.632,347.002 C 227.175,351.257 227.7,356.058 226.648,360.49 C 226.264,362.114 226.129,363.629 224.455,364.174 C 223.091,364.619 221.247,364.376 219.951,365.05 C 219.107,365.491 218.392,366.717 217.947,367.524 C 216.857,369.489 217.117,371.247 216.415,373.245 C 215.767,375.097 214.453,376.487 212.621,377.313 C 210.936,378.073 208.957,379.619 207.285,380.07 C 206.649,381.928 206.841,382.641 204.763,382.731 C 202.786,382.816 200.841,382.954 198.899,382.731 C 196.955,382.508 196.455,382.261 195.457,380.755 C 193.765,378.2 188.865,379.703 187.77,376.285 C 186.713,372.991 187.867,369.27 185.587,366.272 C 184.267,364.537 182.428,364.302 180.424,364.432 C 178.613,364.55 177.488,364.641 176.886,362.759 C 175.429,358.21 176.094,352.766 178.444,348.627 C 180.056,345.786 184.097,343.932 186.866,346.029 C 190.95,349.122 195.479,350.391 200.655,350.368 C 202.739,350.358 205.011,350.125 207.258,349.672 C 210.074,349.101 212.849,348.185 215.167,346.926 z M 191.257,361.225 C 189.437,360.88 187.38,361.895 186.399,363.427 C 187.111,362.755 188.083,362.412 188.752,361.989 C 188.528,362.13 191.273,364.726 192.452,364.095 C 193.934,363.301 192.428,361.445 191.257,361.225 z M 191.614,367.949 C 193.666,368.048 192.864,365.956 191.41,365.609 C 190.304,365.347 188.522,366.329 187.552,366.099 C 188.953,366.43 190.174,367.879 191.614,367.949 z M 192.655,370.695 C 191.771,370.238 190.22,369.468 189.25,369.889 C 190.442,370.401 192.296,373.872 193.756,373.123 C 196.449,371.742 190.643,369.701 189.81,369.746 M 193.609,375.628 C 193.557,373.817 190.578,373.876 191.597,375.734 C 192.084,376.622 193.648,377.014 193.609,375.628 z M 212.208,363.865 C 212.895,363.08 213.782,362.685 214.55,361.994 C 215.258,362.459 216.342,363.184 217.243,363.607 C 216.853,363.3 216.185,362.611 215.707,362.35 C 214.438,361.659 211.97,360.601 210.509,361.391 C 209.761,361.795 209.006,362.976 209.634,363.806 C 210.434,364.861 212.249,363.756 213.156,363.486 M 215.035,366.099 C 214.065,366.328 212.284,365.347 211.177,365.609 C 209.725,365.956 208.923,368.048 210.975,367.949 C 212.414,367.879 213.636,366.43 215.035,366.099 z M 212.778,369.747 C 211.944,369.702 206.139,371.743 208.832,373.124 C 210.291,373.873 212.144,370.402 213.336,369.89 C 212.366,369.469 210.815,370.239 209.932,370.696 M 210.991,375.734 C 212.011,373.876 209.031,373.817 208.98,375.628 C 208.939,377.014 210.502,376.622 210.991,375.734 z" />
		<g
   id="g595">
			<path
   style="fill: rgb(220, 192, 109);"
   id="path597"
   d="M 191.233,359.975 C 191.843,359.772 192.331,359.593 192.722,358.936 C 192.909,358.62 193.348,356.684 193.168,356.396 C 193.731,357.295 193.139,358.579 193.831,359.429 C 194.564,360.334 196.436,360.339 197.49,360.459 C 199.256,360.663 203.715,361.411 203.977,358.664 C 203.967,359.298 203.962,359.938 204.005,360.572 C 207.166,361.188 205.74,357.391 204.773,358.305 C 204.711,358.171 204.577,357.572 204.57,357.46 C 206.023,357.437 207.478,356.371 208.892,355.886 C 208.461,356.928 205.622,357.074 206.439,358.442 C 206.478,358.345 206.59,358.084 206.64,358.006 C 206.64,358.599 206.853,359.167 207.241,359.622 C 208.15,359.335 207.593,358.535 207.625,357.769 C 207.726,358.707 208.583,359.045 209.446,359.247 C 209.638,359.293 209.796,356.643 209.884,356.426 C 210.196,355.655 211.021,355.105 211.501,354.395 C 210.98,355.166 210.292,356.65 210.272,357.583 C 210.232,359.334 211.454,359.362 212.908,359.798 C 214.851,360.379 217.946,361.305 218.759,363.364 C 217.956,363.147 217.253,362.715 216.576,362.289 C 217.286,363.116 218.016,364.127 218.519,365.137 C 217.022,364.363 216,362.599 214.454,361.843 C 213.298,361.276 210.664,360.636 209.391,361.28 C 207.526,362.224 209.218,363.609 208.791,364.817 C 210.612,366.953 215.189,363.609 216.624,366.652 C 215.231,366.025 213.898,365.599 212.38,365.529 C 211.399,365.484 208.008,366.463 210.217,367.671 C 210.115,367.769 209.972,368.043 209.882,368.147 C 210.443,368.318 210.663,368.718 210.445,369.257 C 211.654,369.085 213.433,368.713 214.557,369.329 C 216.368,370.324 214.582,371.155 215.126,371.961 C 214.192,370.577 213.029,369.316 211.191,369.562 C 210.118,369.706 207.542,370.979 207.965,372.381 C 208.296,373.457 209.863,373.13 210.755,373.362 C 211.346,373.515 213.558,374.951 213.963,374.829 C 213.464,374.978 213.018,375.224 212.656,375.559 C 211.645,374.072 206.757,373.42 207.345,376.211 C 207.77,378.219 210.656,378.196 211.969,377.183 C 210.367,378.419 208.465,378.938 206.864,380.066 C 206.721,380.057 206.653,379.966 206.48,379.975 C 206.226,380.585 206.186,381.318 206.224,381.967 C 204.85,381.569 205.091,378.601 205.475,377.515 C 204.877,377.403 204.446,377.653 204.308,378.231 C 204.246,378.142 204.186,378.059 204.127,377.883 C 203.98,378.111 203.566,378.445 203.444,378.813 C 203.507,378.368 203.412,377.894 203.526,377.472 C 201.961,377.466 198.692,378.226 197.469,377.173 C 197.367,377.645 197.266,378.212 197.192,378.714 C 196.825,378.068 196.982,377.305 196.922,376.567 C 196.395,376.429 195.968,376.093 195.688,375.613 C 197.489,376.297 199.397,377.107 201.546,376.779 C 202.728,376.599 204.549,376.496 205.461,375.619 C 205.979,375.121 206.216,374.766 206.092,374.025 C 205.983,373.38 204.549,372.554 204.573,372.774 C 204.639,373.347 204.553,373.881 204.206,374.24 C 203.353,371.336 198.012,373.041 195.702,372.183 C 196.077,370.288 189.354,369.065 188.396,369.338 C 191.202,367.386 193.211,370.114 195.764,370.476 C 195.517,369.663 195.358,368.758 195.48,367.853 C 195.763,368.958 195.955,370.56 196.756,371.253 C 196.879,371.065 197.09,370.901 197.276,370.782 C 198.455,372.052 200.079,372.125 201.724,372.02 C 202.314,371.983 207.934,370.317 207.746,370.044 C 207.128,369.148 206.968,367.853 207.557,366.896 C 207.039,367.15 206.433,367.113 206.277,366.516 C 206.445,366.531 206.728,366.495 206.908,366.487 C 206.759,366.512 206.614,366.501 206.473,366.45 C 206.441,366.345 206.411,366.238 206.386,366.131 C 206.32,366.058 206.326,366.061 206.404,366.141 C 203.669,366.706 199.469,368.403 196.645,366.468 C 196.692,366.512 196.74,366.553 196.79,366.593 C 195.151,365.771 192.772,365.305 190.939,365.543 C 191.879,365.421 194.098,365.463 194.886,365.072 C 196.011,364.512 195.335,363.738 195.775,362.703 C 195.774,363.582 195.839,364.883 196.781,365.158 C 197.575,365.389 197.951,365.032 197.758,364.075 C 198.345,366.97 201.254,366.175 203.543,365.875 C 204.533,365.746 205.898,365.371 206.56,364.559 C 207.581,363.31 206.366,362.291 206.993,361.009 C 202.722,362.434 198.437,360.72 194.18,360.405 C 190.851,360.159 187.572,361.37 185.046,363.569 C 184.928,363.382 184.894,363.268 184.82,363.064 C 186.448,361.536 188.722,360.87 190.772,360.13 C 190.933,360.072 191.087,360.023 191.233,359.975 z" />
			<path
   style="fill: rgb(220, 192, 109);"
   id="path599"
   d="M 223.329,345.422 C 221.973,346.35 220.877,347.581 219.542,348.505 C 218.729,349.067 217.658,349.368 216.895,349.754 C 218.439,349.353 221.777,348.402 222.572,347.017 C 222.668,347.206 222.839,347.796 222.884,348.038 C 221.9,348.756 220.709,349.045 219.772,349.804 C 221.05,349.725 222.481,348.989 223.643,348.441 C 223.212,348.657 222.872,349.042 222.587,349.374 C 223.438,349.363 224.114,348.746 224.872,349.337 C 223.88,347.647 223.769,344.407 221.438,343.925 C 221.086,344.299 220.723,344.665 220.352,345.02 C 220.674,344.855 221.225,344.787 221.596,344.54 C 221.66,344.676 221.638,344.868 221.651,345.017 C 222.248,344.951 222.622,345.224 222.762,345.803" />
			<path
   style="fill: rgb(220, 192, 109);"
   id="path601"
   d="M 178.743,353.391 C 178.973,350.991 180.93,348.251 182.969,346.987 C 185.604,345.355 187.132,347.388 189.689,348.656 C 188.314,348.675 186.689,347.701 185.46,347.153 C 185.559,347.304 185.644,347.542 185.734,347.67 C 184.76,347.026 183.108,347.41 183.287,348.847 C 183.47,350.322 185.977,351.379 187.222,351.497 C 185.541,351.209 184.012,350.549 182.618,349.623 C 182.641,349.724 182.684,349.815 182.745,349.897 C 180.989,349.773 179.745,351.26 179.255,352.775 C 178.897,353.885 178.819,354.248 178.174,355.288 C 177.587,356.234 176.829,357.312 177.424,358.455 C 177.32,356.289 177.547,354.504 178.932,352.631" />
			<path
   style="fill: rgb(220, 192, 109);"
   id="path603"
   d="M 225.608,353.581 C 224.599,354.519 225.819,356.52 225.797,357.802 C 225.777,358.879 225.594,360.516 225.261,361.24 C 226.366,359.246 226.853,355.626 225.608,353.581" />
			<path
   style="fill: rgb(220, 192, 109);"
   id="path605"
   d="M 185.953,364.965 C 186.432,365.216 186.99,365.434 187.472,365.639 C 188.304,365.406 189.228,365.214 190.07,364.96 C 189.237,364.686 186.96,364.287 186.333,364.965" />
			<path
   style="fill: rgb(220, 192, 109);"
   id="path607"
   d="M 188.419,374.072 C 189.229,374.231 189.725,374.884 190.468,374.996 C 190.834,374.215 191.688,373.767 192.536,373.839 C 191.517,373.268 189.466,373.171 188.609,374.071" />
			<path
   style="fill: rgb(220, 192, 109);"
   id="path609"
   d="M 178.743,361.929 C 178.719,362.639 178.982,363.264 179.501,363.664 C 180.099,362.935 181.68,363.359 182.5,363.618 C 183.514,361.282 187.376,360.318 189.353,359.158 C 187.871,359.919 186.144,360.48 184.584,361.212 C 183.364,361.784 182.273,362.722 180.845,362.475 C 181.065,361.91 181.545,361.543 182.092,361.199 C 181.164,361.833 179.118,362.57 178.388,361.36 C 178.402,361.905 178.666,362.395 179.122,362.688" />
			<path
   style="fill: rgb(220, 192, 109);"
   id="path611"
   d="M 197.526,357.565 C 198.726,358.461 200.944,358.183 202.254,357.902 C 201.106,357.307 199.131,357.565 197.716,357.565" />
			<path
   style="fill: rgb(204, 178, 92);"
   id="path613"
   d="M 191.456,364.016 C 194.118,365.645 195.042,362.603 192.654,361.606 C 193.247,362.594 193.776,364.12 192.214,364.396" />
			<path
   style="fill: rgb(204, 178, 92);"
   id="path615"
   d="M 209.671,361.359 C 207.583,362.69 209.202,365.989 210.411,364.433 C 209.097,364.385 208.977,362.811 209.671,361.929" />
			<path
   style="fill: rgb(204, 178, 92);"
   id="path617"
   d="M 202.649,371.795 C 203.707,372.148 207.996,372.361 207.355,370.292 C 207.259,370.463 206.907,370.766 206.777,371.008 C 206.063,371.041 204.822,371.448 203.931,371.558 C 202.99,371.674 201.699,371.679 200.752,371.985" />
			<path
   style="fill: rgb(204, 178, 92);"
   id="path619"
   d="M 202.838,367.052 C 204.385,367.141 206.827,366.75 208.133,365.913 C 208.105,365.725 208.043,365.206 207.971,365.021 C 207.672,367.463 201.191,366.599 199.486,366.663 C 200.601,367.073 201.808,367.047 203.028,367.052" />
			<path
   style="fill: rgb(204, 178, 92);"
   id="path621"
   d="M 201.321,361.359 C 202.127,360.997 208.875,361.571 207.824,359.519 C 207.67,359.886 207.336,360.056 207.146,360.345 C 207.071,360.199 207.046,360.06 206.977,359.907 C 205.288,361.663 201.365,361.141 199.205,360.762 C 199.043,360.861 199.053,360.996 199.234,361.171" />
			<path
   style="fill: rgb(204, 178, 92);"
   id="path623"
   d="M 212.896,349.786 C 212.911,350.401 213.051,350.696 212.928,351.273 C 214.574,349.023 217.759,347.73 220.237,346.553 C 219.201,346.725 218.074,347.256 217.089,347.287 C 217.656,346.131 220.339,344.338 221.599,344.062 C 221.512,343.737 221.288,343.379 221.002,343.171 C 219.494,344.496 217.553,345.427 215.973,346.761 C 214.804,347.749 213.484,348.697 212.189,349.195 C 212.311,349.585 212.558,349.763 212.895,349.977" />
			<path
   style="fill: rgb(204, 178, 92);"
   id="path625"
   d="M 184.624,346.75 C 183.906,346.407 183.193,346.547 182.747,347.082 C 184.482,348.061 186.325,348.71 188.172,349.377 C 187.757,348.929 187.263,348.417 186.686,348.144 C 187.794,349.425 190.159,350.134 191.816,350.474 C 191.812,350.191 191.697,349.537 191.615,349.245 C 189.078,349.098 186.411,347.286 184.028,346.56 C 183.77,346.218 184.096,346.466 184.246,346.371" />
			<path
   style="fill: rgb(204, 178, 92);"
   id="path627"
   d="M 203.598,377.107 C 204.459,376.919 205.273,376.537 206.047,376.178 C 205.689,377.121 205.87,378.316 205.879,379.332 C 205.779,378.855 205.715,377.71 205.457,377.336 C 205.049,376.741 204.486,377.383 204.168,376.729" />
		</g>
	</g><g
     style="overflow: visible; display: inline;"
     id="FibulaLeft"
     inkscape:label="Fibula">
	<path
   d="M 239.479,620.989 C 239.799,618.65 240.511,616.842 242.107,617.17 C 241.305,617.42 240.211,617.387 239.396,617.41 C 239.853,613.36 243.318,606.542 247.392,605.159 C 247.524,607.329 249.013,609.412 249.498,611.595 C 250.115,614.36 248.882,615.837 247.852,618.295 C 247.464,618.259 246.933,618.422 246.537,618.385 C 247.023,628.901 245.894,640.579 243.32,650.894 C 240.066,663.953 240.297,677.178 238.172,690.438 C 237.039,697.515 236.545,704.775 235.041,711.785 C 233.849,717.348 232.4,722.92 232.456,728.608 C 232.501,733.471 233.364,738.632 232.857,743.47 C 232.391,747.89 232.4,751.427 233.628,755.872 C 234.291,758.261 233.916,759.84 233.174,762.508 C 231.873,762.595 228.351,760.778 227.199,759.929 C 225.444,758.636 224.999,757.331 224.786,754.903 C 224.293,749.324 226.395,743.937 225.835,738.505 C 225.347,733.775 226.403,729.222 226.839,724.533 C 227.287,719.718 227.891,714.752 228.222,709.985 C 228.554,705.211 229.312,700.614 229.914,695.907 C 230.933,687.973 231.81,680.59 233.526,672.751 C 235.348,664.418 236.756,655.981 237.399,647.47 C 237.851,641.441 238.327,635.282 239.122,629.263 C 239.553,625.986 238.252,619.761 241.379,617.408 C 237.736,617.156 239.515,611.945 240.551,609.987 C 241.78,607.663 244.094,601.509 246.72,605.057 C 246.432,605.116 246.206,605.007 246.041,604.731"
   id="path2361"
   style="fill: rgb(243, 212, 140); stroke: rgb(150, 115, 72); stroke-width: 0.3218;" />
	<path
   d="M 245.246,608.648 C 247.087,609.901 247.46,612.542 246.591,614.371 C 246.251,614.253 245.881,614.192 245.551,614.055 C 245.859,615.801 244.504,616.373 243.067,616.475 C 245.753,616.286 246.96,618.453 248.448,614.705 C 249.615,611.769 248.515,608.129 246.109,606.198 C 245.607,606.875 244.922,607.567 244.539,608.276"
   id="path2363"
   style="fill: rgb(220, 192, 109);" />
	<path
   d="M 239.742,633.574 C 239.386,637.432 240.922,641.254 240.247,645.023 C 239.678,648.2 238.475,651.405 237.894,654.539 C 237.714,651.123 238.577,647.614 238.825,644.218 C 239.063,640.885 237.975,635.803 239.398,632.853"
   id="path2365"
   style="fill: rgb(220, 192, 109);" />
	<path
   d="M 235.934,698.951 C 233.455,707.811 231.526,717.021 230.467,726.033 C 229.565,733.71 230.474,743.36 227.716,750.541 C 228.815,747.805 229.358,746.533 230.632,749.627 C 231.794,752.45 232.133,755.926 232.968,758.878 C 231.28,746.872 231.234,734.463 232.97,722.499 C 233.615,718.048 234.595,713.728 235.449,709.313 C 236.141,705.738 238.305,698.124 236.007,694.79 C 235.173,697.771 234.901,701.192 234.397,704.287"
   id="path2367"
   style="fill: rgb(220, 192, 109);" />
</g><g
     style="overflow: visible; display: inline;"
     id="TibiaLeft"
     inkscape:label="Tibia">
	<path
   d="M 247.396,590.918 C 248.59,593.49 247.532,598.101 247.371,600.878 C 247.148,604.644 245.276,607.321 242.933,610.159 C 240.194,613.475 237.944,618.494 236.338,622.536 C 231.793,633.976 231.159,647.948 231.123,660.14 C 231.104,666.536 230.566,673.099 229.893,679.417 C 229.227,685.663 227.679,691.488 226.542,697.646 C 223.829,712.367 224.918,727.307 224.492,742.177 C 224.364,746.646 226.285,752.311 225.067,756.577 C 224.591,758.237 223.496,759.01 222.159,760.015 C 220.751,761.072 219.572,763.002 218.094,763.81 C 216.381,764.749 214.069,764.066 212.134,764.269 C 209.95,764.497 208.246,765.681 206.488,766.944 C 204.187,768.595 202.544,769.317 201.732,765.957 C 200.948,762.716 200.482,758.673 201.152,755.419 C 202.094,750.846 203.973,746.538 205.424,742.118 C 208.186,733.703 208.689,724.079 209.796,715.286 C 210.628,708.679 209.66,701.711 210.114,695.018 C 210.43,690.397 211.037,685.786 211.285,681.106 C 211.818,671.009 213.036,660.998 212.605,650.961 C 211.933,635.252 208.514,620.273 205.78,604.885 C 205.328,602.33 205.904,601.033 206.473,598.694 C 206.883,597.012 206.763,597.316 206.577,595.557 C 206.387,593.767 205.355,593.774 206.89,591.993 C 210.358,587.969 217.066,591.469 220.993,592.467 C 225.081,593.507 230.362,593.87 234.6,593.653 C 235.861,593.587 247.006,590.082 247.396,590.918 z"
   id="path2371"
   style="fill: rgb(243, 212, 140); stroke: rgb(150, 115, 72); stroke-width: 0.3218;" />
	<path
   d="M 211.166,617.417 C 210.065,614.751 204.129,602.804 207.295,600.183 C 208.786,598.949 212.859,601.855 213.917,603.191 C 211.985,600.751 209.18,598.467 208.506,595.278 C 207.49,590.478 211.106,592.535 214.117,593.22 C 218.274,594.166 222.989,594.514 226.811,596.758 C 223.871,596.461 220.742,595.046 217.723,595.002 C 217.823,596.88 221.713,598.731 223.166,599.562 C 225.812,601.072 228.489,601.678 231.475,602.196 C 233.788,602.597 237.569,602.557 239.29,604.322 C 237.864,606.525 235.28,607.762 232.738,607.93 C 231.315,608.025 226.149,607.856 225.411,606.584 C 227.323,609.871 227.538,615.381 222.976,610.473 C 222.675,611.823 223.654,612.069 223.703,613.152 C 223.788,615.021 223.538,614.227 222.771,616.088 C 221.263,619.735 220.647,625.454 221.007,629.047 C 220.257,625.271 220.193,621.711 220.027,618.227 C 219.873,614.986 217.169,610.714 214.385,609.254 C 214.543,609.611 214.747,610.004 214.929,610.371 C 213.433,608.247 211.414,605.794 209.038,604.645 C 209.496,606.609 218.096,615.564 215.409,616.465 C 215.985,618.333 215.368,621.334 215.573,623.182 C 215.902,626.172 217.171,629.436 217.734,632.479 C 219.795,643.55 218.02,655.201 218.54,666.466 C 218.83,672.771 218.738,679.406 218.346,685.784 C 217.819,694.387 215.686,703.654 216.589,712.211 C 217.604,721.838 215.132,730.087 213.095,739.325 C 212.042,744.101 205.829,755.499 211.308,759.697 C 212.082,758.768 213.106,758.323 214.019,758.934 C 214.422,757.248 214.785,755.231 215.03,753.454 C 215.212,755.975 216.124,757.048 214.646,759.066 C 213.74,760.3 210.188,763.701 208.933,763.979 C 209.329,763.891 208.523,750.789 204.374,753.227 C 203.576,748.069 206.428,740.749 207.915,735.768 C 209.179,731.526 211.391,727.433 211.705,723.019 C 212.424,712.875 212.554,702.912 213.271,692.797 C 214.13,680.645 214.589,668.767 214.7,656.501 C 214.771,648.924 214.659,641.155 214.081,633.612 C 213.697,628.594 213.089,622.079 211.166,617.417 z"
   id="path2373"
   style="fill: rgb(220, 192, 109);" />
	<path
   d="M 228.17,625.423 C 228.264,624.83 228.524,624.556 228.944,624.599 C 229.119,630.063 227.499,637.264 225.163,642.131 C 225.264,639.081 225.385,636.269 225.886,633.246 C 226.204,631.334 227.482,627.375 227.036,625.469 C 226.516,623.25 223.646,622.832 224.35,620.052 C 225.12,621.206 226.89,624.05 228.824,623.953 C 230.428,623.87 230.547,620.922 232.864,622.929 C 233.06,622.443 233.51,621.823 233.6,621.267 C 232.376,625.026 232.094,629.205 230.601,632.855 C 230.748,630.079 232.512,626.096 230.686,623.656"
   id="path2375"
   style="fill: rgb(220, 192, 109);" />
	<path
   d="M 209.048,597.644 C 208.306,597.031 206.802,594.495 207.122,593.461 C 207.798,591.267 208.376,592.936 209.711,592.374 C 206.013,593.93 214.274,598.947 215.363,600.257 C 214.356,599.436 212.351,599.167 212.061,600.895 C 211.765,602.666 214.528,604.212 215.702,605.005 C 217.53,606.237 218.405,607.442 219.955,608.8 C 216.668,605.923 213.251,603.213 209.547,600.997 C 209.664,601.197 209.722,601.413 209.716,601.644 C 209.04,600.933 208.161,600.875 207.325,600.643 C 207.171,601.173 206.898,601.714 206.877,602.263 C 207.12,600.599 207.649,598.614 209.048,597.644 z"
   id="path2377"
   style="fill: rgb(204, 178, 92);" />
	<path
   d="M 214.039,696.121 C 213.939,703.034 212.943,709.883 212.458,716.764 C 212.044,722.661 210.138,728.224 209.459,733.881 C 210.474,725.314 211.734,716.894 211.801,708.253 C 211.831,704.147 210.833,696.482 213.256,693.252 C 213.851,694.836 213.742,696.576 213.666,698.263"
   id="path2379"
   style="fill: rgb(204, 178, 92);" />
	<path
   d="M 212.115,760.475 C 209.952,760.656 208.436,762.335 207.146,763.643 C 207.037,761.979 207.799,758.646 206.775,757.19 C 205.017,754.683 204.441,757.398 204.552,759.314 C 201.154,757.325 203.677,750.806 205.785,748.714 C 207.267,752.802 207.178,758.586 211.034,761.539"
   id="path2381"
   style="fill: rgb(204, 178, 92);" />
	<path
   d="M 221.487,750.892 C 222.28,753.552 224.739,758.68 220.043,757.63 C 221.018,755.311 221.498,753.365 220.414,750.883"
   id="path2383"
   style="fill: rgb(204, 178, 92);" />
	<path
   d="M 212.307,630.974 C 212.181,629.37 211.977,627.799 211.636,626.291 C 211.036,623.629 209.482,621.222 209.113,618.535 C 208.876,616.789 209.154,614.889 208.938,613.089 C 208.757,611.576 208.467,604.275 206.491,603.803 C 206.925,603.905 207.835,604.461 208.189,604.788 C 204.73,609.638 211.399,615.055 212.649,619.357 C 214.453,625.577 213.717,632.168 214.385,638.53 C 215.464,648.823 214.719,659.276 214.602,669.56 C 214.677,661.72 213.819,653.917 212.907,646.14 C 212.337,641.291 212.702,635.965 212.307,630.974 z"
   id="path2385"
   style="fill: rgb(204, 178, 92);" />
</g><g
     style="overflow: visible; display: inline;"
     id="PatellaRight"
     inkscape:label="Patella">
	<path
   d="M 180.755,584.773 C 176.057,580.745 171.14,579.519 166.197,583.417 C 164.732,584.572 161.946,585.603 160.966,587.046 C 160.016,588.445 159.417,591.524 159.566,593.161 C 159.798,595.716 162.236,598.013 163.851,599.926 C 165.309,601.652 167.233,604.181 169.484,604.699 C 175.009,605.974 179.72,602.08 182.161,597.714 C 183.419,595.465 184.621,594.119 184.763,591.553 C 184.923,588.652 183.122,586.804 180.755,584.773 z"
   id="path2389"
   style="fill: rgb(243, 212, 140); stroke: rgb(150, 115, 72); stroke-width: 0.3218;" />
	<path
   d="M 175.25,603.838 C 167.735,607.591 158.051,592.49 163.617,590.717 C 163.281,592.271 165.451,595.545 167.075,593.71 C 168.249,592.381 165.356,590.648 164.665,589.916 C 164.951,589.666 165.464,589.48 165.87,589.427 C 166.834,592.326 171.205,590.651 167.91,588.329 C 168.781,587.748 172.318,589.897 173.688,590.14 C 175.762,590.502 178.421,591.02 179.635,588.864 C 179.092,588.372 178.461,587.647 178.073,586.974 C 180.269,586.087 181.853,587.484 183.584,589.153 C 185.474,590.974 185.03,592.341 183.901,594.706 C 182.231,598.198 178.742,602.094 175.25,603.838 z"
   id="path2391"
   style="fill: rgb(220, 192, 109);" />
	<path
   d="M 169.758,603.084 C 171.919,604.178 176.742,601.402 175.679,598.871 C 176.772,598.034 177.768,596.954 178.817,596.137 C 178.899,596.414 179.047,596.657 179.125,596.896 C 182.446,596.181 179.058,593.287 177.909,592.371 C 178.025,591.638 178.177,590.966 178.386,590.251 C 182.225,590.203 179.716,586.875 178.534,585.686 C 177.992,585.896 177.516,585.76 176.935,585.88 C 176.979,585.744 177.436,584.795 177.509,584.667 C 179.73,586.252 183.671,588.242 183.38,591.548 C 183.009,595.777 180.041,599.708 176.784,602.012 C 172.533,605.019 167.662,605.678 165.225,599.92 C 167.913,599.01 168.146,604.368 171.366,602.548"
   id="path2393"
   style="fill: rgb(204, 178, 92);" />
</g><g
     style="overflow: visible; display: inline;"
     id="PatellaLeft"
     inkscape:label="Patella">
	<path
   d="M 237.796,584.717 C 233.097,580.689 228.182,579.463 223.237,583.361 C 221.775,584.516 218.986,585.547 218.008,586.99 C 217.056,588.389 216.458,591.468 216.607,593.105 C 216.84,595.66 219.278,597.957 220.892,599.87 C 222.351,601.596 224.275,604.125 226.526,604.643 C 232.051,605.918 236.76,602.024 239.203,597.658 C 240.461,595.409 241.664,594.063 241.806,591.497 C 241.963,588.595 240.162,586.747 237.796,584.717 z"
   id="path2397"
   style="fill: rgb(243, 212, 140); stroke: rgb(150, 115, 72); stroke-width: 0.3218;" />
	<path
   d="M 232.29,603.781 C 224.775,607.534 215.093,592.433 220.657,590.66 C 220.322,592.214 222.491,595.489 224.114,593.653 C 225.29,592.324 222.395,590.591 221.704,589.859 C 221.99,589.609 222.504,589.423 222.909,589.371 C 223.874,592.269 228.246,590.594 224.95,588.272 C 225.819,587.691 229.356,589.84 230.728,590.083 C 232.801,590.445 235.46,590.963 236.674,588.807 C 236.13,588.315 235.498,587.59 235.112,586.918 C 237.306,586.031 238.891,587.427 240.624,589.096 C 242.514,590.917 242.068,592.284 240.939,594.649 C 239.27,598.142 235.783,602.038 232.29,603.781 z"
   id="path2399"
   style="fill: rgb(220, 192, 109);" />
	<path
   d="M 226.799,603.027 C 228.959,604.121 233.781,601.345 232.72,598.815 C 233.814,597.977 234.81,596.897 235.857,596.081 C 235.94,596.357 236.087,596.6 236.167,596.839 C 239.487,596.124 236.1,593.23 234.952,592.314 C 235.067,591.581 235.218,590.91 235.427,590.194 C 239.267,590.146 236.756,586.818 235.574,585.629 C 235.032,585.839 234.556,585.703 233.976,585.823 C 234.019,585.687 234.478,584.738 234.55,584.61 C 236.77,586.195 240.712,588.185 240.421,591.491 C 240.048,595.72 237.081,599.651 233.824,601.955 C 229.574,604.962 224.702,605.621 222.266,599.864 C 224.953,598.953 225.186,604.311 228.406,602.491"
   id="path2401"
   style="fill: rgb(204, 178, 92);" />
</g></g></svg>
