<?xml version="1.0" encoding="UTF-8" standalone="no"?>
<!-- Generator: Adobe Illustrator 12.0.0, SVG Export Plug-In . SVG Version: 6.00 Build 51448)  -->

<svg
   version="1.0"
   id="Layer_1"
   width="157.45488"
   height="446.52948"
   viewBox="0 0 157.45488 446.52947"
   overflow="visible"
   enable-background="new 0 0 435.687 841.89"
   xml:space="preserve"
   sodipodi:version="0.32"
   inkscape:version="1.4.2 (f4327f4, 2025-05-13)"
   sodipodi:docname="lower_bones_ischium.svg"
   inkscape:output_extension="org.inkscape.output.svg.inkscape"
   style="display:inline;overflow:visible"
   xmlns:inkscape="http://www.inkscape.org/namespaces/inkscape"
   xmlns:sodipodi="http://sodipodi.sourceforge.net/DTD/sodipodi-0.dtd"
   xmlns="http://www.w3.org/2000/svg"
   xmlns:svg="http://www.w3.org/2000/svg"
   xmlns:rdf="http://www.w3.org/1999/02/22-rdf-syntax-ns#"
   xmlns:cc="http://creativecommons.org/ns#"
   xmlns:dc="http://purl.org/dc/elements/1.1/"><metadata
   id="metadata3098"><rdf:RDF><cc:Work
       rdf:about=""><dc:format>image/svg+xml</dc:format><dc:type
         rdf:resource="http://purl.org/dc/dcmitype/StillImage" /></cc:Work><cc:Work
       rdf:about=""><dc:format>image/svg+xml</dc:format><dc:type
         rdf:resource="http://purl.org/dc/dcmitype/StillImage" /></cc:Work></rdf:RDF></metadata><defs
   id="defs3096"><inkscape:perspective
   sodipodi:type="inkscape:persp3d"
   inkscape:vp_x="0 : 25.584482 : 1"
   inkscape:vp_y="0 : 1000 : 0"
   inkscape:vp_z="435.68702 : 25.584482 : 1"
   inkscape:persp3d-origin="217.84352 : -114.73053 : 1"
   id="perspective3100" />
		
		
		
		
	
		
		
	
		
		
		
		
		
	
	
	

		
		
		
	
			
			
		
				
				
				
				
				
			
	
	

	
	
	
	
	
	
	
	
	
	
	
	

	
	
	
	
	
	
	
</defs>
<sodipodi:namedview
   inkscape:window-height="1369"
   inkscape:window-width="2560"
   inkscape:pageshadow="2"
   inkscape:pageopacity="0.0"
   guidetolerance="10.0"
   gridtolerance="10.0"
   objecttolerance="10.0"
   borderopacity="1.0"
   bordercolor="#666666"
   pagecolor="#ffffff"
   id="base"
   showgrid="false"
   inkscape:zoom="3.8098044"
   inkscape:cx="-14.173956"
   inkscape:cy="120.08491"
   inkscape:window-x="-8"
   inkscape:window-y="-8"
   inkscape:current-layer="Layer_1"
   showguides="true"
   inkscape:guide-bbox="true"
   inkscape:showpageshadow="2"
   inkscape:pagecheckerboard="0"
   inkscape:deskcolor="#d1d1d1"
   inkscape:window-maximized="1" />
<path
   id="path449"
   style="fill:#f9ce82;stroke:#967348;stroke-width:0.3218"
   d="M 108.20508 76.652344 C 108.54157 79.831105 107.9215 82.94979 106.0293 85.166016 C 104.87975 86.512846 102.27255 87.352932 99.953125 87.523438 A 25.591866 26.116827 0 0 1 92.822266 93.822266 C 99.365857 96.171089 107.45418 97.736643 113.54688 93.392578 C 118.95086 89.540578 118.45005 84.322516 118.99805 78.478516 C 119.02735 78.167212 119.06197 77.858644 119.10156 77.552734 A 28.479153 26.248066 0 0 1 116.14844 77.693359 A 28.479153 26.248066 0 0 1 108.20508 76.652344 z M 39.392578 77.0625 C 39.450974 78.036588 39.394687 79.04966 39.216797 80.109375 C 38.429797 84.797375 38.943844 87.392797 43.089844 89.966797 C 45.478844 91.449797 48.020562 94.028578 50.601562 94.892578 C 53.515563 95.868578 60.367203 95.522531 63.408203 94.894531 C 64.587055 94.650466 65.622937 94.165324 66.578125 93.546875 A 25.591866 26.116827 0 0 1 58.265625 85.173828 C 57.949293 85.139018 57.630772 85.093435 57.310547 85.037109 C 51.985514 84.099624 51.305256 82.368352 50.173828 77.835938 A 24.935663 17.586205 0 0 1 47.246094 77.957031 A 24.935663 17.586205 0 0 1 39.392578 77.0625 z " /></svg>
