<?xml version="1.0" encoding="UTF-8" standalone="no"?>
<!-- Generator: Adobe Illustrator 12.0.0, SVG Export Plug-In . SVG Version: 6.00 Build 51448)  -->

<svg
   version="1.0"
   id="Layer_1"
   width="157.45488"
   height="446.52948"
   viewBox="0 0 157.45488 446.52947"
   overflow="visible"
   enable-background="new 0 0 435.687 841.89"
   xml:space="preserve"
   sodipodi:version="0.32"
   inkscape:version="1.4.2 (f4327f4, 2025-05-13)"
   sodipodi:docname="lower_bones_femur.svg"
   inkscape:output_extension="org.inkscape.output.svg.inkscape"
   style="display:inline;overflow:visible"
   xmlns:inkscape="http://www.inkscape.org/namespaces/inkscape"
   xmlns:sodipodi="http://sodipodi.sourceforge.net/DTD/sodipodi-0.dtd"
   xmlns="http://www.w3.org/2000/svg"
   xmlns:svg="http://www.w3.org/2000/svg"
   xmlns:rdf="http://www.w3.org/1999/02/22-rdf-syntax-ns#"
   xmlns:cc="http://creativecommons.org/ns#"
   xmlns:dc="http://purl.org/dc/elements/1.1/"><metadata
   id="metadata3098"><rdf:RDF><cc:Work
       rdf:about=""><dc:format>image/svg+xml</dc:format><dc:type
         rdf:resource="http://purl.org/dc/dcmitype/StillImage" /></cc:Work><cc:Work
       rdf:about=""><dc:format>image/svg+xml</dc:format><dc:type
         rdf:resource="http://purl.org/dc/dcmitype/StillImage" /></cc:Work></rdf:RDF></metadata><defs
   id="defs3096"><inkscape:perspective
   sodipodi:type="inkscape:persp3d"
   inkscape:vp_x="0 : 25.584482 : 1"
   inkscape:vp_y="0 : 1000 : 0"
   inkscape:vp_z="435.68702 : 25.584482 : 1"
   inkscape:persp3d-origin="217.84352 : -114.73053 : 1"
   id="perspective3100" />
		
		
		
		
	
		
		
	
		
		
		
		
		
	
	
	

		
		
		
	
			
			
		
				
				
				
				
				
			
	
	
</defs>
<sodipodi:namedview
   inkscape:window-height="1360"
   inkscape:window-width="1278"
   inkscape:pageshadow="2"
   inkscape:pageopacity="0.0"
   guidetolerance="10.0"
   gridtolerance="10.0"
   objecttolerance="10.0"
   borderopacity="1.0"
   bordercolor="#666666"
   pagecolor="#ffffff"
   id="base"
   showgrid="false"
   inkscape:zoom="1.9049022"
   inkscape:cx="96.067924"
   inkscape:cy="165.88778"
   inkscape:window-x="1913"
   inkscape:window-y="0"
   inkscape:current-layer="layer3"
   showguides="true"
   inkscape:guide-bbox="true"
   inkscape:showpageshadow="2"
   inkscape:pagecheckerboard="0"
   inkscape:deskcolor="#d1d1d1"
   inkscape:window-maximized="0" />
<g
   inkscape:groupmode="layer"
   id="layer3"
   inkscape:label="Skeleton"
   style="display:inline"
   transform="translate(-121.94541,-322.46856)"><g
     id="g3760"><path
       d="m 190.045,563.119 c -6.429,-13.702 -10.378,-27.696 -15.011,-42.17 -6.567,-20.521 -12.748,-41.185 -18.673,-61.855 -2.334,-8.146 -3.671,-16.238 -6.088,-24.325 -2.152,-7.193 -6.471,-15.421 -4.544,-23.134 -1.611,3.339 -0.641,11.489 1.7,14.166 0.2,-2.5 0.714,-4.924 0.786,-7.46 0.12,-4.177 -1.453,-7.591 -0.323,-11.749 0.764,-2.819 4.466,-11.608 8.868,-10.511 -2.788,-0.742 -7.337,0.828 -9.508,2.823 3.381,-4.315 8.504,-0.984 12.057,-4.542 1.681,-1.684 2.375,-3.973 2.156,-6.35 -0.424,-4.606 -6.979,-12.549 -12.196,-11.915 -5.491,0.668 -5.055,8.206 -7.567,11.396 -1.437,1.827 -5.069,3.538 -7.295,3.674 1.399,-3.479 -4.642,-1.622 -6.133,-1.01 -3.697,1.519 -2.798,2.865 -3.377,6.348 -0.536,3.215 -2.971,6.091 -2.78,9.298 0.208,3.493 3.143,5.325 4.726,8.207 3.908,7.111 6.2,15.041 8.583,22.904 2.784,9.185 5.647,18.028 7.102,27.424 1.573,10.152 5.258,19.811 7.566,29.793 2.672,11.555 6.159,23.231 7.699,34.939 1.418,10.777 1.269,23.275 -0.358,34.055 -0.892,5.913 -5.612,11.212 -5.298,17.324 0.209,4.056 5.092,8.72 9.239,8.722 3.656,0.002 6.687,-1.727 10.104,-2.789 5.073,-1.577 8.838,0.337 13.658,0.087 4.481,-0.232 7.142,-2.827 9.487,-6.514 4.303,-6.766 -1.852,-11.022 -4.58,-16.836 z"
       id="path469"
       style="fill:#f3d48c;stroke:#967348;stroke-width:0.3218" /><path
       style="fill:#dcc06d"
       id="path473"
       d="m 158.221,583.635 c 2.483,1.407 3.886,-0.451 6.053,-0.409 -0.118,0.359 -0.223,0.663 -0.287,1.044 0.818,0.345 1.89,0.317 2.812,0.011 -3.842,4.32 7,3.305 7.537,-0.396 0.455,-3.126 -8.432,-8.482 -11.047,-8.277 0.219,-2.989 -3.873,-3.483 -5.719,-4.665 1.463,-5.126 3.954,-12.842 3.44,-18.044 -0.727,2.688 -2.123,11.944 -0.382,14.565 1.457,2.192 3.868,1.13 5.765,0.733 0.547,3.036 6.002,5.899 8.278,7.563 3.695,2.698 9.939,5.591 12.889,0.26 0.723,-1.307 1.083,-4.738 0.724,-6.082 -0.492,-1.833 -2.622,-4.774 -4.253,-2.072 2.858,-4.283 -3.612,-12.904 -5.141,-16.852 -1.439,-3.714 -3.134,-7.051 -3.583,-11.042 -0.32,-2.836 -0.329,-5.582 -0.986,-8.383 -3.094,-13.179 -9.463,-25.313 -11.362,-38.908 -1.543,-11.056 -5.296,-21.408 -9.388,-31.808 -3.67,-9.333 -4.873,-19.382 -8.303,-28.713 -0.695,-1.893 -1.229,-6.083 -3.352,-6.681 0.242,-0.354 0.948,-0.956 1.296,-1.124 1.637,1.122 1.104,3.58 3.163,4.322 0.473,-3.04 -2.575,-6.763 -4.335,-8.875 -3.412,2.053 -2.704,-5.251 -2.822,-6.794 -0.206,-0.038 -0.411,-0.083 -0.613,-0.133 1.419,-2.65 -1.884,-3.049 -2.222,-4.92 -0.26,-1.443 1.701,-3.423 1.749,-5.003 0.041,-1.332 -0.611,-3.482 -1.309,-4.53 1.059,1.591 2.681,4.092 4.463,4.909 1.372,0.629 2.633,-0.395 3.458,-1.371 1.059,-1.25 2.165,-2.461 3.521,-3.398 0.41,-0.283 4.765,-2.58 5.004,-1.797 0.27,0.883 -1.635,1.647 -2.106,2.193 -1.001,1.164 -1.91,2.455 -2.592,3.835 -1.017,2.058 -1.749,4.839 -1.575,7.15 0.162,2.134 0.617,4.348 0.741,6.493 0.062,1.04 -0.055,2.053 -0.233,3.059 -0.222,1.256 -0.215,3.152 -0.712,4.24 -0.98,-2.018 -1.321,-4.849 -1.47,-7.083 -0.08,-1.167 0.046,-2.569 0.395,-3.674 0.192,-0.608 0.701,-1.522 0.13,-2.081 -0.571,0.325 -0.759,1.647 -0.934,2.286 -1.868,6.859 1.412,13.176 3.732,19.439 2.924,7.894 3.206,16.534 6.098,24.603 3.722,10.377 5.516,20.812 8.235,31.461 4.222,16.536 9.566,32.468 14.661,48.711 2.471,7.881 6.154,15.248 9.102,22.898 2.671,6.93 10.591,11.961 5.84,20.231 -1.688,2.938 -4.693,4.944 -8.048,5.399 -1.098,0.149 -10.296,-2.238 -9.396,-3.067 -2.138,1.972 -3.051,3.601 -6.169,4.513 -2.978,0.87 -6.135,0.5 -8.944,-0.694 -2.393,-1.017 -5.729,-1.89 -6.942,-4.446 -1.387,-2.925 0.167,-7.477 2.229,-9.68 0.164,4.328 7.56,4.596 5.512,9.099 -0.371,-1.718 -2.855,-5.782 -5.109,-4.438 -2.619,1.557 0.989,5.562 2.507,6.423 z" /><path
       style="fill:#dcc06d"
       id="path475"
       d="m 134.853,392.979 c -0.043,0.943 0.066,1.945 0.45,2.811 0.661,-3.814 6.281,-4.07 7.393,-7.803 -1.058,1.365 -3.187,2.527 -4.698,3.351 -1.25,0.682 -2.968,1.344 -4.399,1.417 0.244,-0.687 0.108,-1.373 -0.42,-1.9 -0.791,-0.792 -1.319,-0.554 -2.173,-0.074 0.95,0.127 1.299,0.544 0.401,1.126 -1.196,0.776 -2.378,0.799 -3.361,1.967 0.786,-1.213 5.401,-2.873 6.075,-0.792" /><path
       style="fill:#dcc06d"
       id="path477"
       d="m 132.108,409.464 c 0.273,1.686 -0.852,3.86 -2.279,4.666 -0.279,-0.404 -1.382,-1.179 -1.866,-0.739 -0.489,0.443 0.131,1.702 0.352,2.104 -0.486,-2.493 -2.711,-3.718 -3.794,-5.847 1.371,-0.31 2.309,2.025 3.574,2.248 0.783,0.138 1.708,-0.219 2.359,-0.62 0.401,-0.246 1.747,-1.241 1.654,-1.812 z" /><path
       style="fill:#ccb25c"
       id="path483"
       d="m 146.074,411.793 c -0.275,1.815 -0.639,3.301 -0.54,5.153 0.098,1.826 0.456,3.798 1.082,5.514 -0.182,-2.291 -0.556,-4.563 -0.407,-6.882 0.042,-0.665 0.361,-1.41 0.37,-2.041 0.011,-0.673 -0.438,-1.213 -0.505,-1.878" /><path
       style="fill:#ccb25c"
       id="path485"
       d="m 153.941,396.362 c -1.682,0.721 -2.845,2.158 -3.961,3.549 0.866,-1.506 -1.486,-0.333 -1.892,-0.136 -1.471,0.717 -2.793,1.518 -4.006,2.63 -0.382,0.351 -0.914,1.33 -1.492,1.352 -0.379,0.014 -1.031,-0.533 -1.365,-0.708 -0.929,-0.485 -1.572,-0.996 -2.347,-1.671 1.021,0.936 1.554,1.58 3.035,1.469 3.166,-0.234 4.689,-3.619 7.371,-5.031 1.517,-0.797 3.181,-0.857 4.657,-1.454 z" /><path
       d="m 188.55,578.677 c 0.863,-1.372 3.047,-6.863 0.545,-7.567 1.375,0.388 -1.801,-9.151 -1.878,-9.623 0.548,0.247 0.573,0.374 1.046,-0.061 0.787,1.925 1.806,3.745 2.97,5.468 1.319,1.947 3.416,3.313 3.479,5.902 -1.144,0.014 -2.211,4.776 -2.882,5.832 -2.366,3.727 -7.056,4.677 -11.149,4.247 -0.992,-0.105 -2.25,0.192 -3.175,-0.003 -1.756,-0.375 -2.982,-2.325 -4.296,-3.388 -1.222,-0.988 -2.49,-1.554 -3.857,-2.264 2.683,1.896 6.981,5.03 10.301,5.367 3.061,0.312 7.232,-1.263 8.896,-3.91 z"
       id="path487"
       style="fill:#ccb25c" /></g><g
     inkscape:label="Femur"
     id="FemurLeft">
		<path
   style="fill:#f3d48c;stroke:#967348;stroke-width:0.3218"
   id="path493"
   d="m 248.121,579.791 c -0.447,2.931 -1.395,5.811 -3.142,8.059 -1.589,2.044 -3.415,0.892 -5.635,0.716 -2.531,-0.199 -4.677,-1.898 -7.311,-2.132 -3.671,-0.324 -7.22,0.529 -10.447,2.28 -2.515,1.364 -5.358,2.271 -8.169,2.345 0.365,2.138 -2.519,0.265 -3.076,-0.352 -1.459,-1.616 -2.085,-3.382 -2.962,-5.299 -0.527,-1.149 -0.997,-1.91 -0.907,-3.222 0.096,-1.366 0.194,-2.734 0.307,-4.1 0.103,-1.235 0.36,-2.392 0.207,-3.645 -0.088,-0.716 -0.239,-1.483 -0.054,-2.197 0.182,-0.692 0.708,-1.234 1.101,-1.813 1.083,-1.604 2.146,-3.204 3.097,-4.892 1.922,-3.412 3.535,-6.986 5.115,-10.565 1.83,-4.142 3.393,-8.275 4.873,-12.533 0.917,-2.641 1.613,-5.185 2.332,-7.88 2.053,-7.713 5.059,-15.053 7.041,-22.806 2.077,-8.129 3.568,-16.411 5.335,-24.619 1.607,-7.456 4.435,-14.527 6.915,-21.736 1.327,-3.852 2.264,-7.851 3.682,-11.707 0.789,-2.148 1.452,-4.297 2.007,-6.521 0.78,-3.121 0.941,-6.193 1.562,-9.338 0.744,-3.757 2.086,-7.361 3.329,-10.97 0.555,-1.61 1.016,-3.235 1.591,-4.846 0.905,-2.529 0.83,-4.528 0.879,-7.107 0.542,1.254 0.54,2.815 0.237,4.237 -0.579,2.727 -1.628,5.657 -2.656,8.25 -0.53,-1.293 -0.307,-2.682 -0.571,-4.23 -0.248,-1.44 -0.723,-2.963 -1.352,-4.278 -0.257,-0.537 -1.055,-1.425 -1.168,-1.936 -0.343,-1.554 1.295,-2.237 2.055,-3.303 1.651,-2.321 2.235,-6.321 0.618,-8.793 -1.378,-2.108 -3.079,-4.518 -5.44,-5.573 -2.277,-1.017 -5.55,-1.07 -7.147,-3.181 -4.536,-6.002 0.391,-10.687 4.748,-14.668 2.527,-2.309 6.149,-3.723 9.397,-1.729 3.538,2.171 1.407,7.326 -0.405,9.81 1.064,-2.195 2.18,-3.361 2.304,-5.925 0.165,-0.062 0.35,-0.112 0.521,-0.153 1.078,2.056 1.653,4.628 3.371,6.432 1.972,2.074 5.48,3.941 8.417,3.622 -0.982,0.095 -3.941,-0.268 -4.259,-1.558 -0.168,-0.687 0.807,-2.113 0.825,-2.987 2.284,-0.798 5.554,-1.411 7.681,0.168 1.04,0.772 1.182,1.8 1.687,2.865 0.56,1.173 1.482,2.044 2.329,2.898 -1.066,1.481 -0.213,4.421 0.324,5.999 0.78,2.289 2.534,3.888 1.726,6.472 -0.854,2.725 -3.205,4.583 -4.498,7.058 -3.756,7.193 -5.878,15.168 -8.096,23.081 -2.15,7.677 -4.431,15.339 -5.833,23.196 -0.66,3.683 -0.623,7.289 -1.727,10.899 -1.116,3.659 -2.764,7.124 -4.118,10.695 -1.879,4.949 -3.212,10.009 -4.587,15.11 -1.417,5.258 -2.08,10.63 -3.52,15.896 -0.753,2.761 -1.117,5.516 -1.922,8.245 -0.937,3.187 -2.118,6.323 -2.438,9.654 -0.353,3.703 -0.529,7.455 -0.613,11.169 -0.057,2.622 0.581,5.093 0.675,7.647 0.111,3.005 0.106,5.896 0.397,8.92 0.202,2.1 0.601,3.99 1.516,5.894 0.881,1.829 2.101,3.011 3.355,4.529 1.077,1.308 0.784,3.221 0.822,5.063 0.038,1.722 -0.047,3.565 -0.325,5.385 z" />
		<path
   style="fill:#dcc06d"
   id="path495"
   d="m 241.91,557.729 c -0.963,-4.215 -1.149,-8.277 -1.236,-12.578 -0.053,-2.668 -0.275,-5.354 -0.348,-8.006 -0.085,-3.018 0.962,-6.085 1.246,-9.093 -0.259,2.739 -1.074,5.492 -1.489,8.225 -0.403,2.645 -1.393,5.15 -1.896,7.772 -0.449,2.344 -0.561,4.064 -2.061,6.056 -1.478,1.969 -3.399,3.869 -5.233,5.495 -1.735,1.535 -5.307,3.282 -6.157,5.131 -1.049,2.275 -0.111,5.24 -1.762,7.287 -1.733,2.147 -4.929,3.705 -7.089,5.446 1.021,1.223 -2.192,2.839 -3.144,3.08 -0.094,-1.291 -0.909,-2.311 -1.225,-3.545 -0.224,-0.872 0.248,-1.944 -1.25,-1.593 -0.089,-0.777 0.241,-2.019 0.868,-2.499 0.759,0.572 1.715,0.665 2.009,1.683 -0.092,-0.575 -0.572,-0.721 -0.751,-1.178 -0.234,-0.594 -0.182,-0.642 -0.243,-1.243 -0.104,-1.053 0.548,-2.035 0.307,-3.04 -1.461,0.961 -2.419,3.825 -3.451,5.296 -0.785,1.119 -1.384,2.511 -1.867,3.732 3.679,3.119 3.744,8.318 4.735,12.549 -0.458,-3.41 1.698,-6.798 3.719,-9.203 1.515,-1.802 2.815,-3.845 4.776,-5.219 1.254,-0.88 2.71,-1.326 4.054,-2.085 2.663,-1.503 4.79,-4.659 7.02,-6.778 1.888,-1.795 3.852,-5.395 6.281,-6.338 0.581,1.242 -0.65,3.341 -0.477,4.836 0.256,2.182 2.057,3.913 3.063,5.779 0.821,1.524 1.901,4.114 1.483,5.891 -0.34,1.438 -1.03,1.229 -2.212,1.717 2.62,2.796 2.46,7.39 -0.865,9.419 -2.041,1.245 -3.896,1.716 -6.112,1.293 -2.185,-0.416 -4.071,-0.18 -6.179,0.596 2.855,-0.678 5.518,-0.16 8.35,0.382 2.099,0.401 4.266,1.403 6.414,1.299 2.367,-0.117 3.124,-0.926 4.273,-2.911 1.841,-3.176 2.438,-7.348 2.101,-10.961 -0.406,-4.344 -3.245,-7.082 -4.619,-11.037 -0.608,-1.752 -0.61,-3.814 -1.033,-5.657 z" />
		<path
   style="fill:#dcc06d"
   id="path497"
   d="m 265.474,416.94 c 0.656,-1.637 0.897,-2.811 2.113,-3.728 1.38,-1.044 2.847,-1.615 4.038,-2.965 0.825,-0.937 1.392,-2.023 2.093,-3.041 -0.485,1.112 -1.059,2.129 -1.725,3.146 -1.079,1.646 -3.523,3.602 -3.995,5.539 -0.354,1.457 1.198,2.114 0.382,3.758 -0.821,1.659 -2.56,2.684 -3.02,4.635 -0.489,2.074 -0.324,4.512 -0.676,6.659 -1.387,8.438 -4.768,16.445 -6.909,24.696 -0.829,3.192 -1.58,6.406 -2.166,9.652 -0.555,3.072 -0.485,5.761 -1.425,8.808 -0.796,2.564 -1.446,5.17 -2.283,7.726 -2.264,6.918 -4.416,13.813 -7.167,20.56 -0.434,1.064 -1.692,2.914 -1.715,4.106 -0.018,0.944 0.684,1.46 0.654,2.875 -0.126,6.031 -3.095,12.258 -2.438,18.3 0.643,-1.302 0.881,-3.353 1.246,-4.85 0.751,-3.104 1.427,-6.217 2.173,-9.326 0.841,-3.496 2.029,-6.879 3.038,-10.327 1.987,-6.795 3.628,-13.717 5.784,-20.474 2.312,-7.24 5.37,-14.361 7.049,-21.735 0.688,-3.025 0.994,-5.981 1.165,-9.029 0.179,-3.221 1.86,-6.482 2.782,-9.538 0.524,-1.733 0.736,-3.459 1.232,-5.197 0.712,-2.497 1.402,-5.003 2.178,-7.481 0.8,-2.555 2.073,-5.057 2.709,-7.644 0.468,-1.896 0.663,-3.306 1.695,-5.049 1.438,-2.427 2.992,-4.792 4.647,-7.077 1.327,-1.832 2.033,-3.06 1.313,-5.416 -0.595,-1.95 -1.805,-3.577 -2.216,-5.461 -0.385,-1.75 -0.147,-3.479 -1.138,-5.024 -1.097,-1.706 -3.32,-3.767 -5.19,-4.513 -1.882,-0.751 -3.161,1.041 -4.335,2.416 1.248,-0.606 6.269,-2.013 6.241,0.77 -0.026,2.776 -7.653,1.217 -9.081,0.506 -1.421,-0.705 -2.52,-1.588 -3.703,-2.602 -0.874,-0.749 -2.455,-1.279 -2.7,-2.515 -0.683,0.571 -0.926,1.415 -1.391,2.158 -1.301,2.083 -2.858,2.785 -5.059,3.677 -0.769,0.312 -1.513,0.521 -2.319,0.687 -1.121,0.228 -2.563,0.179 -3.571,0.693 1.964,0.709 5.086,1.333 6.135,3.356 -0.357,-0.636 -1.915,-1.418 -1.65,-2.423 0.232,-0.879 1.681,-0.955 2.391,-0.892 0.248,0.021 2.676,1.091 2.097,1.327 1.691,-0.686 1.901,-2.531 4.032,-2.989 1.729,-0.372 2.717,0.06 3.94,0.858 -0.002,-0.001 0.427,0.583 0.542,0.677 0.164,0.134 0.563,-0.006 0.778,0.141 0.353,0.239 0.906,0.573 1.063,0.959 1.145,2.829 -1.871,5.837 -4.345,6.687 -2.376,0.814 -2.525,-0.884 -3.943,-2.063 -0.683,1.225 0.209,3.95 0.254,5.392 0.074,2.589 -0.069,3.989 -1.297,6.378 -0.476,0.924 -2.084,2.588 -2.304,3.441 -0.481,1.858 2.587,4.251 2.507,6.558 0.71,-1.718 0.986,-3.297 1.149,-5.111 0.119,-1.371 -0.104,-2.763 -0.05,-4.146 -0.012,0.366 0.896,1.396 1.064,1.816 0.267,0.659 0.422,1.345 0.476,2.053 0.115,1.509 -0.344,2.894 -0.681,4.336 -0.307,1.3 -0.384,2.386 -0.992,3.597 -0.759,1.515 -1.703,2.907 -2.283,4.512 -0.702,1.941 -1.256,4.111 -1.794,6.146 -0.486,1.846 -0.569,3.427 -0.598,5.312 -0.017,1.152 -0.35,2.474 0.02,3.564 1.96,-7.658 4.599,-15.064 6.778,-22.669 0.535,-1.875 0.938,-3.854 1.396,-5.75 0.487,-2.036 -0.232,-4.147 -0.271,-6.213 -0.03,-1.589 -0.805,-5.345 0.471,-6.578 0.666,-0.642 1.976,-0.969 2.754,-1.538 1.503,-1.094 1.866,-2.392 2.596,-3.958 0.304,-0.654 0.465,-2.068 0.831,-2.566 1.796,-2.451 9.72,-0.534 8.128,3.051 -1.44,3.245 -5.011,4.308 -6.909,7.098 -0.9,1.328 -0.396,2.825 -0.378,4.388 0.03,2.292 0.216,4.608 -0.217,6.874 z" />
		
		<path
   style="fill:#ccb25c"
   id="path501"
   d="m 256.603,385.524 c -0.362,1.962 -0.844,4.162 -2.156,5.738 -0.968,1.167 -2.568,1.862 -3.742,2.729 2.672,-1.412 4.372,-3.271 6.513,-5.254 0.299,0.577 0.859,1.087 1.425,1.518 0.068,-0.857 -0.598,-1.214 -0.96,-1.928 -0.375,-0.742 -0.369,-2.232 -1.077,-2.624" />
		<path
   style="fill:#ccb25c"
   id="path503"
   d="m 266.698,389.245 c -0.834,0.311 -2.106,2.31 -1.514,3.258 0.324,0.52 1.402,0.625 1.944,0.779 -1.047,-0.839 -1.634,-2.259 -0.6,-3.498" />
		<path
   style="fill:#ccb25c"
   id="path505"
   d="m 254.852,412.566 c 0.109,-0.282 0.165,-0.6 0.267,-0.888 -0.447,0.413 -1.442,1.228 -1.642,1.812 -0.34,0.979 0.404,1.728 0.696,2.717 0.604,2.059 0.066,3.959 0.34,5.969 0.697,-3.256 2.182,-7.063 0.149,-10.142" />
		<path
   style="fill:#ccb25c"
   id="path507"
   d="m 276.408,400.306 c -0.328,1.152 -1.103,2.147 -1.52,3.237 1.023,-0.573 2.128,0.483 2.697,1.206 1.042,1.317 0.608,1.93 -0.303,3.219 -0.658,0.932 -1.715,1.664 -2.306,2.555 -1,1.506 -1.863,3.835 -2.358,5.54 1.194,-2.406 3.097,-4.705 4.515,-7.021 0.535,-0.874 1.466,-1.925 1.684,-2.926 0.495,-2.256 -2.346,-3.46 -2.403,-5.632" />
		<path
   style="fill:#ccb25c"
   id="path509"
   d="m 241.524,560.032 c -0.029,1.771 0.184,3.65 0.648,5.359 0.353,1.302 0.378,2.893 0.937,4.094 0.364,0.786 2.956,2.733 1.572,3.208 -0.016,1.596 -0.113,2.701 -2.065,2.508 1.007,0.505 2.394,1.024 3.521,1.021 0.278,2.467 -0.575,5.075 -1.751,7.225 -0.962,1.762 -2.049,1.94 -4.102,2.225 0.111,0.218 0.086,0.457 0.165,0.646 -1.657,0.214 -2.419,-0.343 -3.729,-0.933 -1.263,-0.566 -2.472,-0.416 -3.799,-0.526 -3.436,-0.287 -6.813,-0.68 -10.118,0.746 1.589,0.201 3.83,-0.799 5.487,-1.023 1.727,-0.231 3.557,0.055 5.2,0.653 1.619,0.588 3.652,3.03 5.228,3.137 0.909,0.061 1.109,-0.854 1.776,-1.007 0.788,-0.179 1.502,0.377 2.338,0.186 1.645,-0.379 2.508,-3.332 3.059,-4.763 0.826,-2.15 1.414,-4.447 1.655,-6.773 0.162,-1.589 0.766,-5.091 -0.491,-6.406 -0.161,-0.169 -0.775,-0.046 -1.002,-0.229 -0.381,-0.312 -0.602,-0.685 -0.953,-1.026 -0.557,-0.536 -1.057,-1.072 -1.425,-1.744 -1.126,-2.047 -1.054,-4.313 -1.79,-6.403" />
		<path
   style="fill:#ccb25c"
   id="path511"
   d="m 213.84,578.503 c -1.16,1.426 -1.787,3.467 -2.188,5.225 3.988,-6.23 10.892,-10.151 15.189,-16.183 -2.845,2.574 -5.856,5.019 -8.938,7.303 -1.603,1.187 -3.989,3.755 -5.479,4.4" />
	</g></g></svg>
