<?xml version="1.0" encoding="UTF-8" standalone="no"?>
<!-- Generator: Adobe Illustrator 12.0.0, SVG Export Plug-In . SVG Version: 6.00 Build 51448)  -->

<svg
   version="1.0"
   id="Layer_1"
   width="157.45488"
   height="446.52948"
   viewBox="0 0 157.45488 446.52947"
   overflow="visible"
   enable-background="new 0 0 435.687 841.89"
   xml:space="preserve"
   sodipodi:version="0.32"
   inkscape:version="1.4.2 (f4327f4, 2025-05-13)"
   sodipodi:docname="lower_bones_ilium.svg"
   inkscape:output_extension="org.inkscape.output.svg.inkscape"
   style="display:inline;overflow:visible"
   xmlns:inkscape="http://www.inkscape.org/namespaces/inkscape"
   xmlns:sodipodi="http://sodipodi.sourceforge.net/DTD/sodipodi-0.dtd"
   xmlns="http://www.w3.org/2000/svg"
   xmlns:svg="http://www.w3.org/2000/svg"
   xmlns:rdf="http://www.w3.org/1999/02/22-rdf-syntax-ns#"
   xmlns:cc="http://creativecommons.org/ns#"
   xmlns:dc="http://purl.org/dc/elements/1.1/"><metadata
   id="metadata3098"><rdf:RDF><cc:Work
       rdf:about=""><dc:format>image/svg+xml</dc:format><dc:type
         rdf:resource="http://purl.org/dc/dcmitype/StillImage" /></cc:Work><cc:Work
       rdf:about=""><dc:format>image/svg+xml</dc:format><dc:type
         rdf:resource="http://purl.org/dc/dcmitype/StillImage" /></cc:Work></rdf:RDF></metadata><defs
   id="defs3096"><inkscape:perspective
   sodipodi:type="inkscape:persp3d"
   inkscape:vp_x="0 : 25.584482 : 1"
   inkscape:vp_y="0 : 1000 : 0"
   inkscape:vp_z="435.68702 : 25.584482 : 1"
   inkscape:persp3d-origin="217.84352 : -114.73053 : 1"
   id="perspective3100" />
		
		
		
		
	
		
		
	
		
		
		
		
		
	
	
	

		
		
		
	
			
			
		
				
				
				
				
				
			
	
	

	
	
	
	
	
	
	
	
	
	
	
	
</defs>
<sodipodi:namedview
   inkscape:window-height="1369"
   inkscape:window-width="2560"
   inkscape:pageshadow="2"
   inkscape:pageopacity="0.0"
   guidetolerance="10.0"
   gridtolerance="10.0"
   objecttolerance="10.0"
   borderopacity="1.0"
   bordercolor="#666666"
   pagecolor="#ffffff"
   id="base"
   showgrid="false"
   inkscape:zoom="3.8098044"
   inkscape:cx="-14.173956"
   inkscape:cy="120.08491"
   inkscape:window-x="-8"
   inkscape:window-y="-8"
   inkscape:current-layer="Layer_1"
   showguides="true"
   inkscape:guide-bbox="true"
   inkscape:showpageshadow="2"
   inkscape:pagecheckerboard="0"
   inkscape:deskcolor="#d1d1d1"
   inkscape:window-maximized="1" />
<path
   id="path517"
   style="display:inline;overflow:visible;fill:#f9ce82;stroke:#967348;stroke-width:0.3218"
   inkscape:label="path517"
   d="M 243.79502 322.65801 C 238.19427 322.89451 232.70946 324.74045 228.31846 328.30645 C 221.80246 333.59745 223.67478 342.25594 218.67978 348.32794 C 216.84778 350.55594 215.91616 351.5409 217.16416 354.1209 C 218.30716 356.4839 220.65283 359.64819 222.42783 361.60919 C 226.52983 366.13619 230.06861 368.15387 228.35361 374.91387 C 227.85053 376.89859 227.2398 378.87459 226.49814 380.79864 A 54.464737 19.029848 0 0 1 240.21103 386.61114 C 240.47132 384.59299 240.72041 382.537 241.63877 380.71465 C 244.13877 381.71065 247.90843 379.84829 250.48643 379.64629 C 253.21143 379.43229 255.93355 379.89095 257.43955 376.99395 C 259.07455 373.84495 257.77468 367.79239 261.89268 366.26739 C 261.81268 366.21839 261.33386 365.75389 261.25986 365.70489 C 264.47186 367.05989 268.90071 362.79515 270.84971 360.77715 C 274.11771 357.39915 275.37141 354.27454 274.57041 349.55254 C 273.02241 340.43754 268.16594 331.52378 259.96494 326.66778 C 255.11294 323.79478 249.39577 322.42151 243.79502 322.65801 z M 155.06064 324.89825 C 150.84954 324.99434 147.66832 326.322 143.60557 329.9295 C 139.16457 333.8735 134.43807 340.28008 132.29307 345.82208 C 131.10107 348.90408 130.75199 352.00954 131.58799 355.30254 C 131.90799 356.56454 132.41594 358.60417 133.21494 359.56817 C 135.32294 362.11617 142.21361 365.25494 145.22861 362.82794 C 144.49961 363.54394 143.9343 364.0382 142.9083 364.2752 C 142.2253 364.4322 144.31949 374.46895 146.77549 374.86895 C 147.90949 375.05395 148.94739 373.58056 149.65439 373.84356 C 150.75439 374.25356 150.50785 376.19986 151.34385 377.12286 C 152.93252 378.87819 155.26282 379.55301 157.05674 381.01934 A 54.464737 19.029848 0 0 1 172.34775 377.84356 C 171.84913 376.11955 171.58918 374.29499 171.56064 372.3709 C 171.46564 365.9639 176.24174 367.1622 178.80674 362.6502 C 180.15574 360.2732 179.38622 357.07817 180.20322 354.56817 C 181.08622 351.85317 183.16353 349.29586 184.02353 346.62286 C 185.17654 343.03786 185.39832 339.59969 183.44932 336.17169 C 178.41332 327.31669 168.77564 326.25464 159.68564 325.17364 C 157.98214 324.97064 156.46435 324.86622 155.06064 324.89825 z "
   transform="translate(-121.94541,-322.46856)" /><g
   inkscape:groupmode="layer"
   id="layer3"
   inkscape:label="Skeleton"
   style="display:inline"
   transform="translate(-121.94541,-322.46856)" /></svg>
