<?xml version="1.0" encoding="UTF-8" standalone="no"?>
<!-- Generator: Adobe Illustrator 12.0.0, SVG Export Plug-In . SVG Version: 6.00 Build 51448)  -->

<svg
   version="1.0"
   id="Layer_1"
   width="435.68701"
   height="841.89001"
   viewBox="0 0 435.687 841.89"
   overflow="visible"
   enable-background="new 0 0 435.687 841.89"
   xml:space="preserve"
   sodipodi:version="0.32"
   inkscape:version="1.4.2 (f4327f4, 2025-05-13)"
   sodipodi:docname="lower_bones_fibula.svg"
   inkscape:output_extension="org.inkscape.output.svg.inkscape"
   style="overflow: visible; display: inline;"
   xmlns:inkscape="http://www.inkscape.org/namespaces/inkscape"
   xmlns:sodipodi="http://sodipodi.sourceforge.net/DTD/sodipodi-0.dtd"
   xmlns="http://www.w3.org/2000/svg"
   xmlns:svg="http://www.w3.org/2000/svg"
   xmlns:rdf="http://www.w3.org/1999/02/22-rdf-syntax-ns#"
   xmlns:cc="http://creativecommons.org/ns#"
   xmlns:dc="http://purl.org/dc/elements/1.1/"><metadata
   id="metadata3098"><rdf:RDF><cc:Work
       rdf:about=""><dc:format>image/svg+xml</dc:format><dc:type
         rdf:resource="http://purl.org/dc/dcmitype/StillImage" /></cc:Work><cc:Work
       rdf:about=""><dc:format>image/svg+xml</dc:format><dc:type
         rdf:resource="http://purl.org/dc/dcmitype/StillImage" /></cc:Work></rdf:RDF></metadata><defs
   id="defs3096"><inkscape:perspective
   sodipodi:type="inkscape:persp3d"
   inkscape:vp_x="0 : 420.94501 : 1"
   inkscape:vp_y="0 : 1000 : 0"
   inkscape:vp_z="435.68701 : 420.94501 : 1"
   inkscape:persp3d-origin="217.84351 : 280.63 : 1"
   id="perspective3100" />
		
		
		
		
	
		
		
	
		
		
		
		
		
	
	
	

		
		
		
	
			
			
		
				
				
				
				
				
			
	
	
</defs>
<sodipodi:namedview
   inkscape:window-height="1369"
   inkscape:window-width="2560"
   inkscape:pageshadow="2"
   inkscape:pageopacity="0.0"
   guidetolerance="10.0"
   gridtolerance="10.0"
   objecttolerance="10.0"
   borderopacity="1.0"
   bordercolor="#666666"
   pagecolor="#ffffff"
   id="base"
   showgrid="false"
   inkscape:zoom="1.9049022"
   inkscape:cx="217.85895"
   inkscape:cy="487.95156"
   inkscape:window-x="-8"
   inkscape:window-y="-8"
   inkscape:current-layer="layer3"
   showguides="true"
   inkscape:guide-bbox="true"
   inkscape:showpageshadow="2"
   inkscape:pagecheckerboard="0"
   inkscape:deskcolor="#d1d1d1"
   inkscape:window-maximized="1" />
<g
   inkscape:groupmode="layer"
   id="layer3"
   inkscape:label="Skeleton"
   style="display: inline;"><g
     style="overflow: visible; display: inline;"
     id="FibulaRight"
     inkscape:label="Fibula">
	<path
   d="M 161.602,622.69 C 161.327,620.344 160.651,618.522 159.05,618.819 C 159.847,619.084 160.941,619.074 161.755,619.113 C 161.381,615.056 158.051,608.169 154.005,606.704 C 153.831,608.872 152.3,610.924 151.77,613.096 C 151.1,615.849 152.301,617.351 153.282,619.828 C 153.673,619.801 154.2,619.974 154.596,619.944 C 153.9,630.448 154.797,642.148 157.163,652.511 C 160.159,665.631 159.665,678.849 161.523,692.151 C 162.516,699.25 162.864,706.518 164.227,713.555 C 165.31,719.14 166.646,724.74 166.478,730.426 C 166.336,735.287 165.369,740.431 165.78,745.277 C 166.157,749.706 166.078,753.242 164.759,757.663 C 164.05,760.037 164.392,761.623 165.082,764.306 C 166.382,764.42 169.938,762.673 171.106,761.847 C 172.886,760.589 173.358,759.293 173.62,756.868 C 174.223,751.302 172.23,745.873 172.898,740.453 C 173.481,735.733 172.514,731.16 172.172,726.464 C 171.82,721.641 171.317,716.664 171.08,711.891 C 170.843,707.114 170.178,702.502 169.668,697.785 C 168.809,689.833 168.077,682.431 166.519,674.56 C 164.863,666.192 163.622,657.73 163.151,649.206 C 162.818,643.169 162.465,637.002 161.791,630.968 C 161.424,627.683 162.849,621.485 159.771,619.071 C 163.418,618.89 161.743,613.646 160.746,611.667 C 159.563,609.32 157.374,603.121 154.676,606.617 C 154.965,606.68 155.193,606.576 155.364,606.304"
   id="path421"
   style="fill: rgb(243, 212, 140); stroke: rgb(150, 115, 72); stroke-width: 0.3218;" />
	<path
   d="M 156.08,610.236 C 154.216,611.453 153.789,614.085 154.623,615.931 C 154.963,615.819 155.336,615.766 155.668,615.633 C 155.326,617.375 156.669,617.973 158.105,618.104 C 155.423,617.862 154.174,620.003 152.76,616.227 C 151.652,613.269 152.823,609.652 155.266,607.769 C 155.755,608.456 156.425,609.163 156.795,609.877"
   id="path423"
   style="fill: rgb(220, 192, 109);" />
	<path
   d="M 161.086,635.269 C 161.366,639.133 159.754,642.922 160.353,646.706 C 160.858,649.893 161.998,653.121 162.515,656.266 C 162.763,652.855 161.971,649.328 161.793,645.929 C 161.618,642.591 162.807,637.532 161.443,634.553"
   id="path425"
   style="fill: rgb(220, 192, 109);" />
	<path
   d="M 163.589,700.708 C 165.892,709.614 167.637,718.86 168.516,727.894 C 169.265,735.585 168.163,745.216 170.778,752.452 C 169.734,749.694 169.215,748.411 167.879,751.48 C 166.662,754.278 166.254,757.747 165.36,760.681 C 167.285,748.711 167.582,736.306 166.084,724.309 C 165.526,719.846 164.635,715.508 163.868,711.079 C 163.247,707.49 161.234,699.833 163.598,696.546 C 164.374,699.544 164.579,702.97 165.02,706.072"
   id="path427"
   style="fill: rgb(220, 192, 109);" />
</g><g
     style="overflow: visible; display: inline;"
     id="FibulaLeft"
     inkscape:label="Fibula">
	<path
   d="M 239.479,620.989 C 239.799,618.65 240.511,616.842 242.107,617.17 C 241.305,617.42 240.211,617.387 239.396,617.41 C 239.853,613.36 243.318,606.542 247.392,605.159 C 247.524,607.329 249.013,609.412 249.498,611.595 C 250.115,614.36 248.882,615.837 247.852,618.295 C 247.464,618.259 246.933,618.422 246.537,618.385 C 247.023,628.901 245.894,640.579 243.32,650.894 C 240.066,663.953 240.297,677.178 238.172,690.438 C 237.039,697.515 236.545,704.775 235.041,711.785 C 233.849,717.348 232.4,722.92 232.456,728.608 C 232.501,733.471 233.364,738.632 232.857,743.47 C 232.391,747.89 232.4,751.427 233.628,755.872 C 234.291,758.261 233.916,759.84 233.174,762.508 C 231.873,762.595 228.351,760.778 227.199,759.929 C 225.444,758.636 224.999,757.331 224.786,754.903 C 224.293,749.324 226.395,743.937 225.835,738.505 C 225.347,733.775 226.403,729.222 226.839,724.533 C 227.287,719.718 227.891,714.752 228.222,709.985 C 228.554,705.211 229.312,700.614 229.914,695.907 C 230.933,687.973 231.81,680.59 233.526,672.751 C 235.348,664.418 236.756,655.981 237.399,647.47 C 237.851,641.441 238.327,635.282 239.122,629.263 C 239.553,625.986 238.252,619.761 241.379,617.408 C 237.736,617.156 239.515,611.945 240.551,609.987 C 241.78,607.663 244.094,601.509 246.72,605.057 C 246.432,605.116 246.206,605.007 246.041,604.731"
   id="path2361"
   style="fill: rgb(243, 212, 140); stroke: rgb(150, 115, 72); stroke-width: 0.3218;" />
	<path
   d="M 245.246,608.648 C 247.087,609.901 247.46,612.542 246.591,614.371 C 246.251,614.253 245.881,614.192 245.551,614.055 C 245.859,615.801 244.504,616.373 243.067,616.475 C 245.753,616.286 246.96,618.453 248.448,614.705 C 249.615,611.769 248.515,608.129 246.109,606.198 C 245.607,606.875 244.922,607.567 244.539,608.276"
   id="path2363"
   style="fill: rgb(220, 192, 109);" />
	<path
   d="M 239.742,633.574 C 239.386,637.432 240.922,641.254 240.247,645.023 C 239.678,648.2 238.475,651.405 237.894,654.539 C 237.714,651.123 238.577,647.614 238.825,644.218 C 239.063,640.885 237.975,635.803 239.398,632.853"
   id="path2365"
   style="fill: rgb(220, 192, 109);" />
	<path
   d="M 235.934,698.951 C 233.455,707.811 231.526,717.021 230.467,726.033 C 229.565,733.71 230.474,743.36 227.716,750.541 C 228.815,747.805 229.358,746.533 230.632,749.627 C 231.794,752.45 232.133,755.926 232.968,758.878 C 231.28,746.872 231.234,734.463 232.97,722.499 C 233.615,718.048 234.595,713.728 235.449,709.313 C 236.141,705.738 238.305,698.124 236.007,694.79 C 235.173,697.771 234.901,701.192 234.397,704.287"
   id="path2367"
   style="fill: rgb(220, 192, 109);" />
</g></g></svg>
