<?xml version="1.0" encoding="UTF-8" standalone="no"?>
<!-- Generator: Adobe Illustrator 12.0.0, SVG Export Plug-In . SVG Version: 6.00 Build 51448)  -->

<svg
   version="1.0"
   id="Layer_1"
   width="157.45488"
   height="446.52948"
   viewBox="0 0 157.45488 446.52947"
   overflow="visible"
   enable-background="new 0 0 435.687 841.89"
   xml:space="preserve"
   sodipodi:version="0.32"
   inkscape:version="1.4.2 (f4327f4, 2025-05-13)"
   sodipodi:docname="lower_bones_coccygis.svg"
   inkscape:output_extension="org.inkscape.output.svg.inkscape"
   style="display:inline;overflow:visible"
   xmlns:inkscape="http://www.inkscape.org/namespaces/inkscape"
   xmlns:sodipodi="http://sodipodi.sourceforge.net/DTD/sodipodi-0.dtd"
   xmlns="http://www.w3.org/2000/svg"
   xmlns:svg="http://www.w3.org/2000/svg"
   xmlns:rdf="http://www.w3.org/1999/02/22-rdf-syntax-ns#"
   xmlns:cc="http://creativecommons.org/ns#"
   xmlns:dc="http://purl.org/dc/elements/1.1/"><metadata
   id="metadata3098"><rdf:RDF><cc:Work
       rdf:about=""><dc:format>image/svg+xml</dc:format><dc:type
         rdf:resource="http://purl.org/dc/dcmitype/StillImage" /></cc:Work><cc:Work
       rdf:about=""><dc:format>image/svg+xml</dc:format><dc:type
         rdf:resource="http://purl.org/dc/dcmitype/StillImage" /></cc:Work></rdf:RDF></metadata><defs
   id="defs3096"><inkscape:perspective
   sodipodi:type="inkscape:persp3d"
   inkscape:vp_x="0 : 25.584482 : 1"
   inkscape:vp_y="0 : 1000 : 0"
   inkscape:vp_z="435.68702 : 25.584482 : 1"
   inkscape:persp3d-origin="217.84352 : -114.73053 : 1"
   id="perspective3100" />
		
		
		
		
	
		
		
	
		
		
		
		
		
	
	
	

		
		
		
	
			
			
		
				
				
				
				
				
			
	
	
</defs>
<sodipodi:namedview
   inkscape:window-height="1360"
   inkscape:window-width="1278"
   inkscape:pageshadow="2"
   inkscape:pageopacity="0.0"
   guidetolerance="10.0"
   gridtolerance="10.0"
   objecttolerance="10.0"
   borderopacity="1.0"
   bordercolor="#666666"
   pagecolor="#ffffff"
   id="base"
   showgrid="false"
   inkscape:zoom="1.9049022"
   inkscape:cx="96.067924"
   inkscape:cy="165.88778"
   inkscape:window-x="1913"
   inkscape:window-y="0"
   inkscape:current-layer="layer3"
   showguides="true"
   inkscape:guide-bbox="true"
   inkscape:showpageshadow="2"
   inkscape:pagecheckerboard="0"
   inkscape:deskcolor="#d1d1d1"
   inkscape:window-maximized="0" />
<g
   inkscape:groupmode="layer"
   id="layer3"
   inkscape:label="Skeleton"
   style="display:inline"
   transform="translate(-121.94541,-322.46856)"><g
     id="Coccyx"
     inkscape:label="Coccyx">
		<path
   style="fill:#f3d48c;stroke:#967348;stroke-width:0.3218"
   id="path579"
   d="m 198.249,385.062 c 0.035,0.459 -0.397,0.825 -0.323,1.323 0.032,0.217 0.688,1.32 0.961,1.183 2.043,-1.035 0.172,1.63 0.229,1.858 0.222,0.887 0.946,0.827 1.733,0.731 0.019,0.532 -0.406,0.536 -0.52,0.916 -0.411,1.379 0.876,3.818 2.551,3.194 0.629,-0.234 1.158,-1.245 1.312,-1.851 0.207,-0.806 -0.512,-1.441 -0.215,-1.991 -0.056,0.104 0.612,-0.112 0.65,-0.135 0.312,-0.188 0.523,-0.717 0.566,-1.059 0.134,-1.096 -1.901,-0.889 -1.21,-1.748 0.42,-0.523 1.28,-0.112 1.647,-0.869 0.365,-0.754 -0.328,-1.633 -1.046,-1.852 0.82,-1.04 2.236,0.639 3.091,-0.799 0.683,-1.148 1.058,-2.039 0.548,-3.191 -1.47,0.095 -3.046,0.718 -4.531,1.045 -1.61,0.356 -2.947,0.027 -4.566,0.004 -0.789,-0.011 -1.525,-0.004 -2.28,-0.134 -1.021,-0.175 -2.207,-0.839 -2.452,0.469 -0.143,0.77 0.594,2.614 1.272,3.027 0.721,0.435 1.807,-0.179 2.583,-0.121 z" />
		<path
   style="fill:#dcc06d"
   id="path581"
   d="m 201.137,392.282 c 1.157,-0.221 0.59,1.354 1.612,0.673 0.689,-0.458 0.329,-1.046 -0.392,-1.099 0.375,-0.704 -0.316,-0.979 -0.801,-1.16 0.546,0.193 1.813,0.3 1.843,-0.54 -0.604,0.044 -1.105,-0.135 -1.685,-0.154 1.101,-0.159 1.25,-0.334 1.809,-0.972 -0.047,0.02 -0.085,0.01 -0.113,-0.028 0.085,0.04 -0.07,-0.254 -0.013,-0.181 -0.438,-0.182 -0.418,-0.042 -0.537,-0.546 -1.117,0.089 -0.854,0.339 -1.194,1.29 0.047,-1.018 -0.455,-1.214 -1.179,-1.742 0.277,-0.319 1.296,-0.264 1.84,-0.393 0,-0.425 -0.033,-0.597 -0.472,-0.784 0.887,-0.206 2.274,-0.467 1.672,-1.72 -1.465,-0.081 -3.042,0.308 -4.358,-0.295 1.154,0.488 2.796,-0.179 3.967,-0.426 -0.1,-0.281 -0.047,-0.568 -0.132,-0.868 0.108,0.266 0.398,0.557 0.516,0.751 0.056,-0.125 0.145,-0.238 0.194,-0.335 1.005,0.871 1.643,-1.068 1.713,-1.757 0.279,0.809 -0.036,1.987 1.233,1.469 0.395,-0.161 1.342,-1.335 1.393,-1.766 -0.1,0.854 -0.147,1.728 -0.855,2.268 -0.826,0.628 -1.574,-0.284 -2.411,0.244 -0.96,0.605 -0.42,0.592 -0.023,1.194 1.123,1.713 -2.314,1.232 -1.324,2.963 0.482,0.018 1.247,0.232 1.331,0.836 0.096,0.703 -0.785,0.718 -1.058,1.099 -0.324,0.451 0.021,1.007 0.005,1.543 -0.02,0.625 -0.393,1.817 -1.082,1.997 -0.806,0.211 -1.793,-0.955 -1.365,-1.698" />
		<path
   style="fill:#ccb25c"
   id="path583"
   d="m 196.31,382.09 c 1.197,-0.57 1.667,0.995 2.084,1.733 -0.102,-0.57 -0.455,-1.065 -0.596,-1.575 0.672,0.129 1.161,-0.006 1.822,-0.023 -0.982,-0.004 -1.966,-0.317 -2.909,-0.269" />
		<path
   style="fill:#ccb25c"
   id="path585"
   d="m 199.93,385.174 c 1.161,-0.153 2.485,0.367 3.6,0.185 -0.009,0.17 0.079,0.438 0.049,0.607 0.751,-0.343 0.516,-0.848 -0.03,-1.058 -0.749,-0.29 -2.565,0.408 -3.35,0.536" />
		<path
   style="fill:#ccb25c"
   id="path587"
   d="m 203.282,388.125 c -0.68,-0.333 -1.728,-0.127 -2.297,0.134 0.849,0.68 2.105,-0.157 3.085,0.385 -0.073,-0.441 -0.646,-0.569 -1.056,-0.788" />
		<path
   style="fill:#ccb25c"
   id="path589"
   d="m 203.148,390.538 c -0.691,-0.091 -1.284,0.204 -1.964,0.128 0.498,0.327 1.13,0.571 1.669,0.797 0.009,-0.415 -0.081,-0.772 -0.106,-1.193" />
	</g></g></svg>
