<?xml version="1.0" encoding="UTF-8" standalone="no"?>
<!-- Generator: Adobe Illustrator 12.0.0, SVG Export Plug-In . SVG Version: 6.00 Build 51448)  -->

<svg
   version="1.0"
   id="Layer_1"
   width="157.45488"
   height="446.52948"
   viewBox="0 0 157.45488 446.52947"
   overflow="visible"
   enable-background="new 0 0 435.687 841.89"
   xml:space="preserve"
   sodipodi:version="0.32"
   inkscape:version="1.4.2 (f4327f4, 2025-05-13)"
   sodipodi:docname="lower_bones_coxae.svg"
   inkscape:output_extension="org.inkscape.output.svg.inkscape"
   style="display:inline;overflow:visible"
   xmlns:inkscape="http://www.inkscape.org/namespaces/inkscape"
   xmlns:sodipodi="http://sodipodi.sourceforge.net/DTD/sodipodi-0.dtd"
   xmlns="http://www.w3.org/2000/svg"
   xmlns:svg="http://www.w3.org/2000/svg"
   xmlns:rdf="http://www.w3.org/1999/02/22-rdf-syntax-ns#"
   xmlns:cc="http://creativecommons.org/ns#"
   xmlns:dc="http://purl.org/dc/elements/1.1/"><metadata
   id="metadata3098"><rdf:RDF><cc:Work
       rdf:about=""><dc:format>image/svg+xml</dc:format><dc:type
         rdf:resource="http://purl.org/dc/dcmitype/StillImage" /></cc:Work><cc:Work
       rdf:about=""><dc:format>image/svg+xml</dc:format><dc:type
         rdf:resource="http://purl.org/dc/dcmitype/StillImage" /></cc:Work></rdf:RDF></metadata><defs
   id="defs3096"><inkscape:perspective
   sodipodi:type="inkscape:persp3d"
   inkscape:vp_x="0 : 25.584482 : 1"
   inkscape:vp_y="0 : 1000 : 0"
   inkscape:vp_z="435.68702 : 25.584482 : 1"
   inkscape:persp3d-origin="217.84352 : -114.73053 : 1"
   id="perspective3100" />
		
		
		
		
	
		
		
	
		
		
		
		
		
	
	
	

		
		
		
	
			
			
		
				
				
				
				
				
			
	
	
</defs>
<sodipodi:namedview
   inkscape:window-height="1360"
   inkscape:window-width="1278"
   inkscape:pageshadow="2"
   inkscape:pageopacity="0.0"
   guidetolerance="10.0"
   gridtolerance="10.0"
   objecttolerance="10.0"
   borderopacity="1.0"
   bordercolor="#666666"
   pagecolor="#ffffff"
   id="base"
   showgrid="false"
   inkscape:zoom="1.9049022"
   inkscape:cx="96.067924"
   inkscape:cy="165.88778"
   inkscape:window-x="1913"
   inkscape:window-y="0"
   inkscape:current-layer="layer3"
   showguides="true"
   inkscape:guide-bbox="true"
   inkscape:showpageshadow="2"
   inkscape:pagecheckerboard="0"
   inkscape:deskcolor="#d1d1d1"
   inkscape:window-maximized="0" />
<g
   inkscape:groupmode="layer"
   id="layer3"
   inkscape:label="Skeleton"
   style="display:inline"
   transform="translate(-121.94541,-322.46856)"><g
     style="display:inline;overflow:visible"
     id="g447">
	<path
   d="m 174.425,389.556 c 1.445,-2.521 4.873,-5.618 5.351,-8.24 0.636,-3.487 -3.673,-4.885 -6.077,-6.953 -2.549,-2.192 -3.363,-4.174 -6.827,-4.662 -3.307,-0.466 -7.498,-1.073 -10.823,-0.632 -2.893,0.384 -6.688,0.904 -8.367,3.218 -1.997,2.754 -2.437,9.078 -0.269,11.532 2.374,2.684 6.24,3.764 8.843,6.177 3.878,3.596 5.747,7.578 4.907,12.582 -0.787,4.688 -0.273,7.283 3.873,9.857 2.389,1.483 4.93,4.063 7.511,4.927 2.914,0.976 9.766,0.63 12.807,0.002 5.656,-1.171 8.03,-7.883 13.898,-8.332 5.969,-0.456 9.586,5.047 14.777,6.988 6.665,2.492 15.139,4.35 21.463,-0.159 5.404,-3.852 4.903,-9.069 5.451,-14.913 0.591,-6.279 3.285,-11.451 7.678,-15.924 0.038,0.282 0.018,0.56 0.044,0.793 2.768,-2.007 3.312,-5.777 3.167,-9.248 -0.205,-4.953 -4.885,-4.264 -8.403,-3.331 -4.04,1.07 -5.345,0.129 -9.055,-0.31 -3.225,-0.381 -5.351,1.725 -7.583,3.747 -2.874,2.6 -7.558,5.451 -6.016,9.584 7.786,1.78 12.519,15.145 7.199,21.376 -1.684,1.973 -6.495,2.857 -8.948,2.145 -2.862,-0.83 -3.768,-3.471 -6.063,-4.847 -2.306,-1.382 -6.654,-1.263 -9.306,-1.526 -8.722,-0.866 -15.839,5.605 -24.401,4.099 -5.629,-0.991 -6.068,-2.87 -7.336,-8.006 -0.977,-3.947 0.582,-6.591 2.505,-9.944 z"
   id="path449"
   style="fill:#f9ce82;stroke:#967348;stroke-width:0.3218" />
	<path
   d="m 209.278,404.201 c -4.927,-1.708 0.588,5.267 1.429,6.061 2.517,2.378 5.651,5.069 9.263,4.951 -0.209,-0.388 -0.299,-0.909 -0.527,-1.321 6.074,5.909 15.909,-0.356 18.164,-6.811 1.122,-3.212 0.17,-4.622 -0.525,-7.519 -0.724,-3.018 0.098,-6.862 1.805,-9.285 -0.303,3.978 1.794,2.482 3.299,0.077 1.645,-2.625 3.093,-5.062 5.337,-7.238 2.502,-2.427 2.521,-2.833 -0.788,-4.998 -1.84,-1.206 -6.555,-1.997 -6.033,-4.555 -1.053,0.875 -2.509,1.154 -3.766,1.264 0.155,-0.203 0.313,-0.406 0.471,-0.609 -1.732,0.3 -3.672,3.209 -5.599,4.167 -1.64,0.813 -3.376,1.465 -5.008,2.304 -2.361,1.215 -6.102,3.518 -1.126,4.265 0.032,0.324 0.06,0.634 0.106,0.958 5.979,-1.176 2.688,12.12 5.231,13.971 0.177,-0.618 0.893,-1.319 1.063,-1.737 3.622,7.034 -1.282,15.527 -9.037,14.656 1.312,-0.336 2.536,-1.035 3.672,-1.732 -4.231,0.081 -7.363,0.437 -11.359,-2.219 -1.668,-1.109 -5.157,-7.893 -7.146,-4.648"
   id="path451"
   style="fill:#dcc06d" />
	<path
   d="m 177.523,410.29 c 4.895,1.657 11.114,-1.297 15.348,-3.818 -0.403,0.434 -0.623,1.147 -1.009,1.602 0.849,-0.082 1.869,0.187 2.727,0.116 -3.687,8.59 -17.054,11.74 -23.819,5.633 1.621,0.485 3.588,0.631 5.134,0.132 -4.64,-1.803 -7.967,-7.882 -9.52,-12.585 -1.003,0.634 -1.449,1.859 -1.893,3.105 -0.84,-2.882 1.122,-8.059 -0.342,-10.643 -0.776,-1.371 -1.485,-0.542 -2.449,-1.434 -0.804,-0.744 -1.134,-1.67 -1.824,-2.574 -2.33,-3.046 -5.09,-5.275 -8.117,-7.444 -3.366,-2.414 -2.897,-5.567 -0.419,-8.938 2.418,1.282 5.989,1.824 8.659,0.979 1.435,-0.455 2.75,-1.749 4.23,-1.974 3.14,-0.477 7.473,3.221 9.913,4.935 3.952,2.773 2.7,4.085 0.439,7.965 -4.474,7.674 -8.311,21.134 2.942,24.943 z"
   id="path453"
   style="fill:#dcc06d" />
	<path
   d="m 160.206,389.162 c -1.7,-2.983 -2.025,-18.452 -9.164,-15.719 -2.658,1.018 -2.919,4.284 -2.358,6.693 0.772,3.312 2.499,3.494 4.651,5.356 -2.3,-1.991 -2.951,-5.866 1.184,-4.27 2.65,1.024 4.375,5.638 5.687,7.94 z"
   id="path455"
   style="fill:#ccb25c" />
	<path
   d="m 236.099,387.395 c 0.396,-5.067 9.067,-6.824 7.84,-0.457 1.878,-2.278 6.379,-5.111 5.317,-8.84 -1.259,-4.42 -7.512,-3.059 -9.942,-1.011 -2.902,2.449 -5.21,8.214 -3.879,12.023 1.468,4.204 4.979,3.149 6.355,-0.133 -3.142,1.076 -4.531,-1.232 -4.619,-4.086"
   id="path457"
   style="fill:#ccb25c" />
	<path
   d="m 210.351,410.638 c 2.41,1.552 5.78,2.702 8.552,3.424 -2.198,-1.468 -6.697,-3.761 -6.488,-6.971 -0.648,1.064 -1.414,2.638 -2.064,3.906"
   id="path459"
   style="fill:#ccb25c" />
	<path
   d="m 181.027,414.929 c 3.431,1.331 9.133,-1.399 10.594,-4.748 -0.787,-0.759 -1.61,-1.321 -2.665,-1.274 -0.705,3.192 -5.276,5.497 -8.286,5.665"
   id="path461"
   style="fill:#ccb25c" />
</g><g
     style="display:inline;overflow:visible"
     id="PelvicGirdle"
     inkscape:label="Pelvic Girdle">
	<path
   d="m 157.196,381.135 c 0.199,0.169 0.39,0.349 0.57,0.542 3.535,3.754 1.875,10.125 7.255,11.759 2.957,0.898 5.912,1.375 8.709,2.744 3.48,1.702 6.141,4.375 9.271,6.592 2.348,1.663 13.377,10.67 15.732,6.541 1.043,0.234 2.388,-0.093 3.752,0.027 2.28,0.199 3.174,1.041 5.555,-0.107 2.817,-1.359 5.119,-3.955 7.392,-6.038 4.629,-4.237 9.468,-4.878 15.369,-6.452 2.419,-0.646 4.671,-1.069 6.544,-2.762 3.696,-3.343 2.121,-8.956 4.293,-13.266 2.5,0.996 6.271,-0.866 8.849,-1.068 2.725,-0.214 5.446,0.243 6.952,-2.654 1.635,-3.149 0.336,-9.2 4.454,-10.725 -0.08,-0.049 -0.559,-0.515 -0.633,-0.564 3.212,1.355 7.64,-2.908 9.589,-4.926 3.268,-3.378 4.523,-6.503 3.722,-11.225 -1.548,-9.115 -6.406,-18.03 -14.607,-22.886 -9.704,-5.746 -22.864,-5.493 -31.646,1.639 -6.516,5.291 -4.644,13.95 -9.639,20.022 -1.832,2.228 -2.762,3.213 -1.514,5.793 1.143,2.363 3.487,5.527 5.262,7.488 4.102,4.527 7.641,6.545 5.926,13.305 -1.148,4.529 -2.849,9.012 -5.414,12.938 -2.47,3.779 -6.064,6.138 -8.917,9.541 -2.463,2.939 -4.893,2.813 -8.512,2.142 -1.201,-0.224 -2.741,-2.114 -3.001,0.74 -1.169,0.13 -2.269,0.46 -3.46,0.358 0.026,-0.388 -0.159,-0.93 -0.118,-1.309 0.052,-0.487 -5.023,1.446 -5.354,1.438 -2.233,-0.048 -3.016,-1.743 -4.355,-3.312 -3.737,-4.38 -8.451,-7.677 -12.388,-11.85 -3.473,-3.683 -5.198,-8.105 -5.274,-13.23 -0.095,-6.407 4.682,-5.207 7.247,-9.719 1.349,-2.377 0.58,-5.573 1.397,-8.083 0.883,-2.715 2.959,-5.273 3.819,-7.946 1.153,-3.585 1.375,-7.023 -0.574,-10.451 -5.036,-8.855 -14.673,-9.916 -23.763,-10.997 -6.814,-0.812 -10.663,-0.054 -16.08,4.756 -4.441,3.944 -9.167,10.351 -11.312,15.893 -1.192,3.082 -1.542,6.186 -0.706,9.479 0.32,1.262 0.828,3.303 1.627,4.267 2.108,2.548 8.998,5.685 12.013,3.258 -0.729,0.716 -1.293,1.211 -2.319,1.448 -0.683,0.157 1.411,10.193 3.867,10.593 1.134,0.185 2.171,-1.287 2.878,-1.024 1.1,0.41 0.853,2.355 1.689,3.278 1.63,1.801 4.042,2.465 5.853,4.013 z"
   id="path517"
   style="fill:#f9ce82;stroke:#967348;stroke-width:0.3218" />
	<path
   d="m 202.148,409.921 c 0.83,-1.747 1.341,-9.106 -0.764,-10.093 -3.217,-1.509 -1.716,8.605 -1.684,10.001 0.589,0.367 2.062,0.905 2.448,0.092 z"
   id="path519"
   style="fill:#e1e2e3;stroke:#967348;stroke-width:0.2358" />
	<path
   d="m 178.25,360.635 c 1.224,2.592 -3.9,4.67 -5.642,6.169 -2.328,2.005 -2.756,3.472 -2.502,6.705 0.536,6.82 4.859,13.282 9.172,17.645 -4.631,-3.736 -7.917,-8.135 -10.264,-13.572 0.149,0.128 0.258,0.287 0.324,0.471 -0.488,-2.688 -0.806,-5.016 -0.162,-7.701 -3.791,-1.078 6.268,-6.978 5.272,-9.743 0.716,-0.231 1.652,-0.498 2.371,-0.654 0.337,0.438 0.881,0.933 1.073,1.396"
   id="path521"
   style="fill:#dcc06d" />
	<path
   d="m 224.739,359.563 c -2.252,2.46 1.188,3.956 2.494,5.713 1.569,2.116 1.974,3.851 2.153,6.445 0.382,5.443 -2.142,10.29 -3.967,15.275 3.312,-6.279 5.323,-10.667 5.102,-17.717 0.261,-0.147 0.514,-0.296 0.699,-0.411 -1.119,-3.161 -3.836,-7.091 -6.84,-8.949"
   id="path523"
   style="fill:#dcc06d" />
	<path
   d="m 148.518,363.557 c -1.305,-0.496 -1.762,-2.182 -3.166,-2.912 -1.16,-0.602 -2.061,-0.436 -2.991,-1.476 -1.068,-1.194 -0.802,-3.15 -1.997,-4.343 -1.861,-1.86 -4.72,-1.614 -5.399,-4.561 -1.751,-7.602 9.458,-16.474 15.007,-19.175 -2.819,2.566 -9.403,7.994 -8.85,12.352 0.123,-0.298 0.849,-1.042 1.023,-1.632 0.136,0.676 0.539,0.941 0.803,1.553 0.219,-0.469 0.781,-0.9 0.967,-1.318 1.386,1.173 4.07,7.57 7.138,5.303 0.798,-0.59 0.706,-2.27 0.421,-3.035 0.448,0.463 0.469,0.578 0.652,1.144 1.689,1.446 0.251,6.447 1.722,9.043 1.983,3.5 4.139,3.263 7.853,3.686 -1.718,1.983 -3.99,3.563 -5.264,5.895 -1.284,-0.216 -2.743,1.915 -2.876,3.43 -0.182,2.068 1.578,3.65 2.761,5.221 -1.367,0.429 -1.379,0.46 -0.913,1.743 -1.411,-1.975 -3.71,-3.066 -5.296,-4.832 -0.813,-0.905 -1.412,-1.282 -1.75,-2.546 -0.11,-0.412 0.334,-3.472 0.155,-3.54 z"
   id="path525"
   style="fill:#dcc06d" />
	<path
   d="m 259.069,364.569 c -1.482,-1.421 -2.124,-4.8 -0.261,-6.39 0.727,-0.618 1.896,-0.374 2.477,-0.492 2.988,-0.607 5.242,-1.657 7.124,-4.205 5.788,-7.838 -4.848,-21.924 -11.11,-25.358 1.741,2.64 4.999,4.203 6.356,7.375 0.919,2.156 2.544,7.462 0.865,9.392 -0.113,-0.477 -0.412,-0.942 -0.527,-1.419 -1.024,0.955 -1.213,2.957 -2.081,4.304 0.042,0.126 -0.654,-0.469 -0.646,-0.464 0.05,-0.273 0.253,-0.277 0.269,-0.568 -0.896,0.09 -2.604,1.634 -3.436,2.082 -1.947,1.046 -3.745,1.224 -5.366,3.227 1.738,2.043 2.226,4.088 1.681,6.687 0.041,-0.044 0.292,-0.569 0.365,-0.662 0.542,0.911 0.013,1.915 -1.02,2.654 3.984,4.376 -7.691,12.303 -3.345,16.329 -0.175,-3.955 3.063,-10.575 7.084,-11.846 -0.123,-0.176 -0.183,-0.371 -0.178,-0.585 0.6,0.267 0.811,-0.043 1.425,0.529 -0.67,-1.045 -0.841,-2.294 -0.392,-3.452"
   id="path527"
   style="fill:#dcc06d" />
	<path
   d="m 249.318,332.465 c -1.109,0.285 -2.578,-0.045 -3.793,0.257 -1.386,0.344 -2.911,1.114 -4.228,1.694 -2.935,1.296 -5.737,2.979 -7.978,5.301 -2.739,2.84 -5.544,8.622 -4.309,12.694 0.677,2.229 3.142,3.272 5.701,3.877 -0.657,-1.688 -2.289,-2.93 -3.037,-4.612 1.18,-0.393 0.008,-6.804 0.957,-8.875 3.09,-6.743 10.382,-8.72 16.687,-10.336 z"
   id="path529"
   style="fill:#dcc06d" />
	<path
   d="m 178.25,346.69 c -2.228,1.527 -3.823,0.682 -4.875,-1.555 -1.058,-2.254 0.608,-4.964 -0.687,-7.162 -2.408,-4.082 -8.931,-4.894 -12.95,-6.58 2.338,0.981 6.226,-0.099 8.954,0.912 3.255,1.206 6.069,3.973 6.652,7.528 -3.468,1.139 1.26,8.83 2.566,5.531 -0.118,0.805 0.019,1.685 -0.018,2.397"
   id="path531"
   style="fill:#dcc06d" />
	<path
   d="m 183.972,394.607 c 4.331,3.059 6.174,9.073 9.94,12.48 -0.217,-0.778 0.067,-1.823 0.065,-2.353 0.232,0.221 0.409,0.435 0.632,0.575 0.399,-1.206 0.937,-2.492 2.199,-2.914 -1.282,-1.171 -3.583,0.277 -5.405,-0.547 -1.984,-0.897 -3.796,-3.315 -4.929,-5.095"
   id="path533"
   style="fill:#dcc06d" />
	<path
   d="m 203.997,401.402 c 0.364,1.394 0.69,2.802 0.697,4.243 0.203,-0.75 0.73,-1.307 1.011,-1.989 0.389,0.992 0.544,2 0.493,3.062 2.681,-0.398 6.658,-6.221 8.874,-8.097 2.674,-2.264 5.424,-4.564 7.751,-7.204 -5.004,5.799 -11.414,10.207 -18.738,8.964 -0.213,0.357 -0.488,0.47 -0.804,0.662"
   id="path535"
   style="fill:#dcc06d" />
	<path
   d="m 145.709,334.531 c -6.458,4.817 -10.258,10.597 -9.592,18.908 2.307,-0.776 3.476,0.972 5.334,2.43 -0.324,-2.722 -3.407,-3.168 -4.341,-5.248 -1.752,-3.903 3.764,-11.775 6.454,-13.229"
   id="path537"
   style="fill:#ccb25c" />
	<path
   d="m 148.212,365.285 c 0.673,2.172 0.383,4.739 0.075,6.76 0.842,-0.041 1.574,-0.324 2.286,-1.03 -1.516,-1.733 -1.945,-4.917 -2.003,-7.161"
   id="path539"
   style="fill:#ccb25c" />
</g></g></svg>
