<?xml version="1.0" encoding="UTF-8" standalone="no"?>
<!-- Generator: Adobe Illustrator 12.0.0, SVG Export Plug-In . SVG Version: 6.00 Build 51448)  -->

<svg
   version="1.1"
   id="Layer_1"
   width="536.764"
   height="308.853"
   viewBox="0 0 536.764 308.853"
   overflow="visible"
   enable-background="new 0 0 536.764 308.853"
   xml:space="preserve"
   sodipodi:docname="skull_bones_sphenoidale.svg"
   inkscape:version="1.4.2 (f4327f4, 2025-05-13)"
   xmlns:inkscape="http://www.inkscape.org/namespaces/inkscape"
   xmlns:sodipodi="http://sodipodi.sourceforge.net/DTD/sodipodi-0.dtd"
   xmlns="http://www.w3.org/2000/svg"
   xmlns:svg="http://www.w3.org/2000/svg"><defs
   id="defs285" /><sodipodi:namedview
   id="namedview285"
   pagecolor="#ffffff"
   bordercolor="#000000"
   borderopacity="0.25"
   inkscape:showpageshadow="2"
   inkscape:pageopacity="0.0"
   inkscape:pagecheckerboard="0"
   inkscape:deskcolor="#d1d1d1"
   inkscape:zoom="3.7784966"
   inkscape:cx="268.3607"
   inkscape:cy="133.25406"
   inkscape:window-width="2560"
   inkscape:window-height="1369"
   inkscape:window-x="1912"
   inkscape:window-y="-8"
   inkscape:window-maximized="1"
   inkscape:current-layer="g285" />

<g
   id="g285">
	
	
	<g
   id="g33">
		
		<path
   fill="#FFFFFF"
   stroke="#000000"
   stroke-width="0.7797"
   d="M53.747,111.293c-4.189,1.123-2.579,6.012-1.553,8.741    c2.048,5.438,4.103,7.36,7.567,1.312C58.729,120.102,55.514,110.82,53.747,111.293z"
   id="path32" />
		
	</g>
	<g
   id="g36">
		
		
		<path
   fill="#FFFFFF"
   stroke="#000000"
   stroke-width="0.7797"
   d="M200.024,126.429c-0.104-0.046-0.208-0.1-0.314-0.163    c-3.238-1.888-2.766-9.254-1.812-12.133c0.438-1.328,1.031-2.758,2.055-3.752c0.353-0.341,3.493-1.856,3.47-1.777    c-1.116,4.084,1.741,8.292,1.099,12.458C204.097,123.804,202.593,127.574,200.024,126.429z"
   id="path36" />
	</g>
	
	<linearGradient
   id="XMLID_12_"
   gradientUnits="userSpaceOnUse"
   x1="129.3521"
   y1="200.709"
   x2="129.0272"
   y2="171.1463">
		<stop
   offset="0"
   style="stop-color:#FFFFFF"
   id="stop37" />
		<stop
   offset="0.3483"
   style="stop-color:#BCBEC0"
   id="stop38" />
		<stop
   offset="0.4466"
   style="stop-color:#B8BABC"
   id="stop39" />
		<stop
   offset="0.541"
   style="stop-color:#ADAFB1"
   id="stop40" />
		<stop
   offset="0.6338"
   style="stop-color:#9A9C9D"
   id="stop41" />
		<stop
   offset="0.7257"
   style="stop-color:#7F8182"
   id="stop42" />
		<stop
   offset="0.817"
   style="stop-color:#5D5E5F"
   id="stop43" />
		<stop
   offset="0.9078"
   style="stop-color:#333334"
   id="stop44" />
		<stop
   offset="0.9965"
   style="stop-color:#020202"
   id="stop45" />
		<stop
   offset="1"
   style="stop-color:#000000"
   id="stop46" />
	</linearGradient>
	
	
	<path
   fill="#FFFFFF"
   stroke="#000000"
   stroke-width="0.7797"
   d="M106.758,123.397c-4.569-4.925-8.831-6.699-15.258-2.879   c-4.995,2.969-9.352,7.79-12.735,12.467c-1.346,1.862-5.746,4.294-6.131,6.528c-0.378,2.177,3.751,7.854,5.628,8.671   c-0.077-0.496-0.137-0.681-0.314-1.163c2.253-0.282,0.901,1.201,2.128,2.111c1.064,0.788,2.34,1.09,3.068,2.246   c1.706,2.711,0.422,7.418,1.824,10.306c4.939-0.945,8.882-6.085,13.463-8.008c-0.027,0.112-0.279-0.241-0.292-0.196   c0.45-0.578,1.338-0.909,1.872-1.263c3.417,5.526,5.291-2.956,6.113-5.198c1.509-4.108,4.372-7.592,5.362-11.855   c0.476-2.053,0.618-4.537-0.047-6.534C110.565,126.01,108.732,125.526,106.758,123.397z"
   id="path76" />
	<path
   fill="#FFFFFF"
   stroke="#000000"
   stroke-width="0.7797"
   d="M162.828,116.534c-5.618,0.926-9.691,3.035-13.065,7.408   c-3.513,4.555-3.75,7.511-2.288,13.375c1.199,4.809,3.583,10.347,8.443,12.33c4.02,1.638,11.087,7.027,15.641,5.843   c0.077-0.02,2.6-3.052,3.118-3.478c1.675-1.378,3.317-2.687,5.233-3.772c1.514-0.857,1.922-0.838,3.897-1.308   c5.017-1.197,2.512-3.282,4.45-7.005c0.774-1.484,2.906-1.543,2.914-3.336c0.002-0.641-5.817-7.555-6.392-8.357   C180.832,122.729,169.48,115.438,162.828,116.534z"
   id="path77" />
	<linearGradient
   id="XMLID_15_"
   gradientUnits="userSpaceOnUse"
   x1="166.7222"
   y1="106.3491"
   x2="167.5948"
   y2="109.1841">
		<stop
   offset="0"
   style="stop-color:#F4D58D"
   id="stop77" />
		<stop
   offset="0.1072"
   style="stop-color:#EFD18A"
   id="stop78" />
		<stop
   offset="0.2341"
   style="stop-color:#E1C482"
   id="stop79" />
		<stop
   offset="0.3708"
   style="stop-color:#C9AF74"
   id="stop80" />
		<stop
   offset="0.5146"
   style="stop-color:#A79261"
   id="stop81" />
		<stop
   offset="0.6639"
   style="stop-color:#7D6D48"
   id="stop82" />
		<stop
   offset="0.8179"
   style="stop-color:#483F2A"
   id="stop83" />
		<stop
   offset="0.9728"
   style="stop-color:#0B0A07"
   id="stop84" />
		<stop
   offset="1"
   style="stop-color:#000000"
   id="stop85" />
	</linearGradient>
	
	
	
	
	
	
	
	
	
	
	
	
	
	
	<g
   id="g157">
		<path
   fill="#D8D9DA"
   stroke="#967348"
   stroke-width="0.426"
   d="M335.46,160.538c-10.325,1.769-3-15.479-3.179-19.454    c-0.198-4.402-3.077-8.253-3.583-12.492c-0.433-3.624,0.152-6.932-1.004-10.588c2.988-0.778,5.961-9.273,6.763-12.077    c1.815,0.047,2.347-1.931,3.23-3.212c1.401,0.697,1.62-0.892,2.741-0.7c1.141,0.194,1.572,1.275,2.484,1.65    c2.125,0.875,3.836,0.325,6.33,0.497c0.572,1.28,2.393,0.931,2.918,2.404c0.455,1.277-0.813,2.155-0.897,3.294    c-0.081,1.09,0.528,2,0.588,3.08c0.132,2.382-0.64,4.517-1.209,6.799c-1.109,4.438-0.383,6.861,0.531,11.234    c0.81,3.87-0.603,7.852-1.351,11.622c-0.734,3.708,0.106,3.164,1.13,6.442c0.531,1.702,0.532,1.881,0.425,3.878    c-0.055,0.996,0.206,4.025-0.421,4.763c-0.771,0.906-6.004,1.528-7.591,2.021c-2.771,0.859-6.012,1.795-8.945,1.602    c-0.41-0.128-0.419-0.383-0.026-0.763"
   id="path152" />
		<path
   fill="#FFFFFF"
   d="M332.57,124.767c0.297-0.311,0.773-0.631,1.141-0.878c0.217,0.873,0.469,1.522,0.011,2.519    c0.476-0.094,1.208,0.196,1.687,0.108c0.143,2.159-0.338,4.534,0.486,6.582c0.184-0.391,0.47-0.757,0.629-1.184    c0.104,0.778,0.908,1.571,1.085,2.055c0.536,1.47,0.345,3.203,0.32,4.834c0.657-1.489,1.246-3.018,1.88-4.504    c2.408,0.405,5.914-1.371,3.603-4.65c0.147-0.255,0.482-0.794,0.655-1.022c-0.039-0.057,0.362,0.59,0.258,0.53    c0.043-0.132,0.137-0.185,0.277-0.159c2.844,3.656,0.693,9.122,2.208,13.328c1.45-3.353,1.106-7.547,0.436-10.79    c-0.755-3.652-0.128-7.523,0.21-11.086c-1.076,1.263-1.726,3.623-2.766,4.888c-0.551-1.567-1.412-3.367-2.219-4.891    c-0.235,0.265-0.747,0.586-1.011,0.921c1.655-2.991-2.794-2.927-4.784-4.096C337.158,119.21,333.749,123.533,332.57,124.767z"
   id="path153" />
		<path
   fill="#BCBEC0"
   d="M342.744,158.628c0.367-0.111,0.717-0.219,1.044-0.319c4.513-1.389,4.989-3.66,4.365-8.472    c-1.2,1.63-2.706,3.263-4.851,3.46c-0.021-0.019-0.561-0.886-0.442-0.869c-1.791-0.253-2.958,1.334-4.525-0.027    c0.313-0.938,0.226-1.75,0.338-2.742c-1.821,2.757-4.578-0.32-4.64-2.61c-0.059-2.182,2.572-5.754,0.857-7.436    c0.432-1.182,0.331-2.447-0.416-3.459c-1.184,2.812-1.772,7.123-2.477,10.166c-0.628,2.722-3.249,12.934,0.624,13.791    C335.429,160.732,339.701,159.553,342.744,158.628z"
   id="path154" />
		<path
   fill="#BCBEC0"
   d="M337.589,110.132c-0.81,0.741-1.363,1.686-1.365,2.7c0.174-0.116,0.367-0.173,0.576-0.17    c0.514,0.946,0.521,2.063,0.515,3.121c0.886-1.334,0.911-4.029-0.08-5.295"
   id="path155" />
		<path
   fill="#BCBEC0"
   d="M342.205,108.002c-0.645,0.631-1.175,0.969-1.016,1.756c2.49-0.8,1.729,5.794,1.707,6.465    C343.53,114.685,343.16,108.001,342.205,108.002"
   id="path156" />
		<path
   fill="#CDB35C"
   d="M347.884,109.067c0,0.355,0,0.71,0,1.065"
   id="path157" />
	</g>
	
	
	
	
	
	
	
	
	
	
	
	
	<linearGradient
   id="XMLID_21_"
   gradientUnits="userSpaceOnUse"
   x1="96.6118"
   y1="256.2207"
   x2="96.0039"
   y2="258.9571">
		<stop
   offset="0"
   style="stop-color:#FFFFFF"
   id="stop268" />
		<stop
   offset="0.1046"
   style="stop-color:#FAFAFA"
   id="stop269" />
		<stop
   offset="0.2282"
   style="stop-color:#ECECEC"
   id="stop270" />
		<stop
   offset="0.3616"
   style="stop-color:#D4D4D4"
   id="stop271" />
		<stop
   offset="0.5018"
   style="stop-color:#B2B2B2"
   id="stop272" />
		<stop
   offset="0.6474"
   style="stop-color:#888888"
   id="stop273" />
		<stop
   offset="0.7976"
   style="stop-color:#535353"
   id="stop274" />
		<stop
   offset="0.9487"
   style="stop-color:#161616"
   id="stop275" />
		<stop
   offset="1"
   style="stop-color:#000000"
   id="stop276" />
	</linearGradient>
	
	
		<linearGradient
   id="XMLID_22_"
   gradientUnits="userSpaceOnUse"
   x1="135.9546"
   y1="232.6323"
   x2="135.1961"
   y2="236.0464"
   gradientTransform="matrix(0.9824 -0.1867 0.1867 0.9824 -11.894 52.1387)">
		<stop
   offset="0"
   style="stop-color:#FFFFFF"
   id="stop277" />
		<stop
   offset="0.1046"
   style="stop-color:#FAFAFA"
   id="stop278" />
		<stop
   offset="0.2282"
   style="stop-color:#ECECEC"
   id="stop279" />
		<stop
   offset="0.3616"
   style="stop-color:#D4D4D4"
   id="stop280" />
		<stop
   offset="0.5018"
   style="stop-color:#B2B2B2"
   id="stop281" />
		<stop
   offset="0.6474"
   style="stop-color:#888888"
   id="stop282" />
		<stop
   offset="0.7976"
   style="stop-color:#535353"
   id="stop283" />
		<stop
   offset="0.9487"
   style="stop-color:#161616"
   id="stop284" />
		<stop
   offset="1"
   style="stop-color:#000000"
   id="stop285" />
	</linearGradient>
	
</g>
</svg>
