<?xml version="1.0" encoding="UTF-8" standalone="no"?>
<!-- Generator: Adobe Illustrator 12.0.0, SVG Export Plug-In . SVG Version: 6.00 Build 51448)  -->

<svg
   version="1.1"
   id="Layer_1"
   width="536.764"
   height="308.853"
   viewBox="0 0 536.764 308.853"
   overflow="visible"
   enable-background="new 0 0 536.764 308.853"
   xml:space="preserve"
   sodipodi:docname="skull_bones_temporale.svg"
   inkscape:version="1.4.2 (f4327f4, 2025-05-13)"
   xmlns:inkscape="http://www.inkscape.org/namespaces/inkscape"
   xmlns:sodipodi="http://sodipodi.sourceforge.net/DTD/sodipodi-0.dtd"
   xmlns="http://www.w3.org/2000/svg"
   xmlns:svg="http://www.w3.org/2000/svg"><defs
   id="defs285" /><sodipodi:namedview
   id="namedview285"
   pagecolor="#ffffff"
   bordercolor="#000000"
   borderopacity="0.25"
   inkscape:showpageshadow="2"
   inkscape:pageopacity="0.0"
   inkscape:pagecheckerboard="0"
   inkscape:deskcolor="#d1d1d1"
   inkscape:zoom="2.6128935"
   inkscape:cx="228.48233"
   inkscape:cy="172.41422"
   inkscape:window-width="1920"
   inkscape:window-height="1009"
   inkscape:window-x="-8"
   inkscape:window-y="-8"
   inkscape:window-maximized="1"
   inkscape:current-layer="Layer_1" />

<g
   id="g285">
	
	
	<g
   id="g33">
		<path
   fill="#FFFFFF"
   stroke="#000000"
   stroke-width="0.7797"
   d="M49.579,108.1c-0.65-0.593-6.332-3.876-6.33-3.943    c-0.1,5.438,0.728,11.264,2.186,16.508c1.381,4.967,2.557,9.574,2.817,14.706c0.265,5.271,0.456,10.446,0.362,15.656    c-0.098,5.479-0.615,7.683,4.469,10.926c6.787,4.329,2.683-2.782,2.702-7.019c0.035-7.059-0.712-14.659,0.314-21.847    c0.365-2.542,1.928-5.5,2.01-7.926c0.101-3.067-2.004-5.978-3.396-8.564C53.169,113.731,52.168,110.467,49.579,108.1z"
   id="path31" />
		
		
	</g>
	<g
   id="g36">
		<path
   fill="#FFFFFF"
   stroke="#000000"
   stroke-width="0.7797"
   d="M210.905,148.938c-0.071-3.19,0.34-6.378,0.279-9.571    c-0.125-6.291,1.759-12.81,3.186-18.881c0.625-2.657,2.738-11.14-1.33-12.167c-3.342-0.844-6.907,5.358-8.53,7.387    c-3.007,3.766-3.319,7.871-2.106,12.685c1.897,7.527,3.534,17.123,0.436,24.646c-2.377,5.778,4.209,9.074,7.712,4.07    c1.622-2.315,0.45-5.178,0.363-7.855C210.91,149.147,210.908,149.043,210.905,148.938z"
   id="path34" />
		
		
	</g>
	
	<linearGradient
   id="XMLID_12_"
   gradientUnits="userSpaceOnUse"
   x1="129.3521"
   y1="200.709"
   x2="129.0272"
   y2="171.1463">
		<stop
   offset="0"
   style="stop-color:#FFFFFF"
   id="stop37" />
		<stop
   offset="0.3483"
   style="stop-color:#BCBEC0"
   id="stop38" />
		<stop
   offset="0.4466"
   style="stop-color:#B8BABC"
   id="stop39" />
		<stop
   offset="0.541"
   style="stop-color:#ADAFB1"
   id="stop40" />
		<stop
   offset="0.6338"
   style="stop-color:#9A9C9D"
   id="stop41" />
		<stop
   offset="0.7257"
   style="stop-color:#7F8182"
   id="stop42" />
		<stop
   offset="0.817"
   style="stop-color:#5D5E5F"
   id="stop43" />
		<stop
   offset="0.9078"
   style="stop-color:#333334"
   id="stop44" />
		<stop
   offset="0.9965"
   style="stop-color:#020202"
   id="stop45" />
		<stop
   offset="1"
   style="stop-color:#000000"
   id="stop46" />
	</linearGradient>
	
	
	
	
	<linearGradient
   id="XMLID_15_"
   gradientUnits="userSpaceOnUse"
   x1="166.7222"
   y1="106.3491"
   x2="167.5948"
   y2="109.1841">
		<stop
   offset="0"
   style="stop-color:#F4D58D"
   id="stop77" />
		<stop
   offset="0.1072"
   style="stop-color:#EFD18A"
   id="stop78" />
		<stop
   offset="0.2341"
   style="stop-color:#E1C482"
   id="stop79" />
		<stop
   offset="0.3708"
   style="stop-color:#C9AF74"
   id="stop80" />
		<stop
   offset="0.5146"
   style="stop-color:#A79261"
   id="stop81" />
		<stop
   offset="0.6639"
   style="stop-color:#7D6D48"
   id="stop82" />
		<stop
   offset="0.8179"
   style="stop-color:#483F2A"
   id="stop83" />
		<stop
   offset="0.9728"
   style="stop-color:#0B0A07"
   id="stop84" />
		<stop
   offset="1"
   style="stop-color:#000000"
   id="stop85" />
	</linearGradient>
	
	
	
	
	
	
	
	
	
	
	
	
	
	
	
	
	
	
	
	
	
	
	
	
	
	
	<g
   id="g268">
		<path
   fill="#FFFFFF"
   stroke="#000000"
   stroke-width="0.426"
   d="M390.328,169.818c0.992,1.313,1.715,3.83,3.125,2.589    c-0.456,1.669-1.948,3.342-2.651,5.238c-0.852,2.292-1.388,4.457-1.57,6.828c3.595-3.188,3.465,4.579,2.935,6.235    c0.653-0.097,1.604,0.269,2.257,0.179c-1.733,5.594-6.309,9.627-4.341,16.326c2.488-5.475,8.081-12.313,12.436-16.48    c1.098,0.696,2.451,0.771,3.716,0.234c0.198,0.274,0.115,0.849,0.176,1.189c2.027,0.791,2.903,9.325,3.751,11.817    c3.292-0.231,6.601,0.761,9.88-0.38c1.52-0.527,2.404-1.638,3.789-2.271c1.426-0.652,2.961-0.479,4.271-1.041    c6.506-2.791,8.047-10.511,15.996-9.563c-0.369-1.628,0.173-3.195,1.773-3.715c-0.353-0.346-0.542-0.565-0.814-0.957    c1.298-1.296,3.896-1.3,4.92-2.331c1.582-1.598,0.59-4.115,3.009-4.743c-0.203-1.201,2.925-3.403,4.067-4.641    c0.858-0.928,2.024-1.872,2.604-3.062c0.767-1.573,0.29-1.855,0.581-3.163c0.73-3.268,2.43-5.603,2.401-8.541    c-0.018-1.842-0.951-4.912-1.988-6.579c-2.9,1.438-6.222,0.718-9.383,0.887c-3.769,0.201-3.68,1.501-6.081,2.766    c0.424-0.724,0.547-1.898,1.278-2.638c-0.974-1.057-0.848-2.22,0.023-3.368c-3.301-0.288-2.186,3.336-1.433,5.05    c-0.51-0.152-1.289,0.006-1.844-0.19c-0.439,0.989-1.459,1.649-1.993,2.554c1.274-2.159-3.643-3.119-3.839-3.325    c-1.149-1.209-1.317-3.181-2.862-4.227c1.205-0.863,1.149-1.731,0.374-2.869c1.102-1.792,1.545-6.952-1.455-6.233    c1.831-1.357,1.133-3.063-0.105-4.466c2.148-0.898,1.273-3.735,1.785-5.69c-1.668-0.377-4.072-1.206-4.565-3.029    c-0.671-2.479,2.977-3.289,1.017-5.501c0.328,0.148,1.279,0.188,1.633,0.342c1.404-6.048-4.693-4.671-7.523-1.999    c0.879-2.764-0.337-9.761-4.603-6.981c2.512-1.637-5.357-7.126-6.543-7.248c0.197-2.35-1.585-3.228-3.414-1.757    c-0.744-1.689-2.643-1.359-4.28-1.941c0.198-0.423,0.222-0.873,0.355-1.255c-0.821,0.435-1.861,0.319-2.734,0.688    c1.186-4.235-3.55-0.68-4.673-0.605c-1.745,0.116-3.444-1.098-5.24-2.154c0.178-0.415,0.209-0.864,0.33-1.228    c-1.725,0.589-4.471,0.539-4.769-1.928c-0.32,0.414-1.37,0.932-1.681,1.326c-0.065-0.273-0.128-0.546-0.188-0.821    c-0.302,0.122-1.428,0.342-1.847,0.36c-0.139-0.452-0.768-1.159-0.875-1.468c-0.378,0.517-1.563,1.121-1.859,1.49    c-0.008-0.823-0.496-1.153-0.639-1.693c-0.69,0.679-1.604,0.707-2.281,1.303c-0.225-0.329-0.323-0.507-0.555-0.961    c-1.862,0.824-2.688,4.854-4.25,2c-1.879,2.071-4.271,2.481-5.03,5.016c-0.056-1.346-0.437-2.052-0.179-3.228    c-2.278,1.707-5.472,3.505-6.555,5.962c-0.138-0.43-0.793-1.181-1.027-1.703c-1.61,0.806-3.86,1.734-4.731-0.344    c-3.08,1.744-4.634,2.97-7.904,4.074c2.484,2.059,0.377,2.918-0.416,5.226c-0.73,2.127-0.582,4.277-0.949,6.143    c-0.905,4.603,1.273,9.637-0.375,14.151c0.543-0.21,1.147-0.198,1.645-0.355c-1.762,3.399-1.858,6.661-2.734,10.339    c2.225,1.082,2.084,3.266,1.421,5.127c0.426,0.044,0.815,0.069,1.224,0.2c-0.081,2.176,0.389,3.963-0.047,6.047    c-0.311,1.491-0.847,1.218,0.471,2.107c0.552,0.373,1.503,0.338,2.138,0.537c2.909,0.908,5.694,1.728,8.64,2.319    c3.004,0.604,6.108,0.704,9.229,0.704c1.83,0,3.659-0.003,5.489,0c1.112,0.001,3.439-0.54,4.253-0.053    c-2.054-0.028-3.996,0.573-6.076,0.473c-2.429-0.116-4.928-0.548-7.347-0.836c-3.656-0.436-7.273-0.277-10.695-1.886    c-3.044-1.431-6.188-1.728-9.703-1.491c-2.295,0.155-4.576,0.98-6.858,0.885c-1.123-0.046-3.979-1.141-4.345,0.686    c-0.193,0.976,2.41,3.44,2.146,4.113c-0.187,0.474-0.464,0.942-0.822,1.316c1.985,0.882,4.302,2.883,4.766,4.795    c0.341-0.075,0.384-0.378,0.736-0.362c0.831,1.092,1.466,1.292,1.632,2.726c-0.05-0.429,2.189,0.653,2.221,2.071    c6.277-4.347,13.176-4,19.939-0.96c2.542,1.143,5.062,3.198,7.958,3.275c2.799,0.075,4.541-2.011,6.295-3.868    c0.444-0.47,0.716-1.164,1.174-1.644c1.028-1.081,2.038-1.521,3.491-1.674c1.473-0.155,3.404,0.057,4.584,1.056    c1.218,1.029,1.356,2.605,2.335,3.889c1.69-1.053,2.008-3.817,3.704-5.086c-3.036,2.414-3.287,7.359-1.633,10.713    c0.108-0.039,0.598-0.302,0.677-0.356c0.016,0.123,0.042,0.243,0.081,0.36c0.272-0.199,0.365-0.3,0.686-0.377    c0.332,0.878,0.438,1.883,0.746,2.794c1.41-0.652,1.696,1.31,1.64,2.371c0.288-0.195,0.804-0.205,1.087-0.413    c0.044,0.346,0.377,0.626,0.333,1.111c0.262-0.022,0.618,0.1,0.88,0.071c-0.077,0.185-0.07,0.626-0.17,0.862    c1.729,1.126,2.22-0.144,3.211,1.669c0.139-0.213,0.397-0.395,0.558-0.597c-0.104,1.166,0.813,2.152,2.028,2.04    c-1.641,0.218-1.503-1.587-2.562-2.3c-1.444-0.973-3.516,0.774-3.313-2.379c-0.587-0.265-1.015-0.152-1.142-0.042"
   id="path232" />
		<path
   fill="#D8D9DA"
   d="M341.187,163.619c-1.328-0.018-2.666,0.734-3.645-0.554c2.249-1.18-1.494-2.81-1.26-3.03    c0.344-0.325,5.996-1.426,6.1-1.373c-0.119-0.061-0.242-0.081-0.371-0.06c1.043-0.2,2.12-0.25,3.154-0.478    c-0.097,0.141-0.275,0.317-0.359,0.431c0.979,0.592,2.185,0.119,3.179-0.201c1.187,0.623,2.937-0.008,4.292,0.492    c-2.565,0.456,0.212,1.684,1.309,1.839c1.748,0.247,3.54-0.146,5.303-0.195c-0.092,0.03-0.134,0.094-0.127,0.191    c0.828,0.317,1.688,0.278,2.509,0.543c-2.486-0.142-5.05,1.383-7.467,0.899c-0.026-0.217-0.04-0.421-0.058-0.641    c-0.902-0.143-1.793-0.38-2.734-0.259c0.08-0.122,0.26-0.194,0.355-0.308c-1.613-2.012-7.855,3.157-10.1,3.095    C341.24,163.879,341.212,163.749,341.187,163.619z"
   id="path233" />
		<path
   fill="#D8D9DA"
   d="M349.271,169.257c1.268,0.937,4.756-0.309,6.426-0.473c2.541-0.25,4.84,0.354,7.283,0.419    c-1.916-2.091-6.334-1.602-9.205-1.602c-2.243,0-6.268-0.274-7.97,1.408c0.577,0.672,0.411,1.851,1.101,2.165    c0.706,0.32,2.781-0.994,3.55-1.208"
   id="path234" />
		<path
   fill="#D8D9DA"
   d="M371.517,162.632c1.73,0.755,3.595,0.283,5.216,0.928c-0.308,0.643-0.984,1.016-1.589,1.437    c0.452,0.542,1.083,0.797,1.797,0.745c-0.447,0.86-0.033,1.77,0.931,1.829c0.032-0.205,0.007-0.395,0.053-0.593    c1.622,0.472,2.965-0.815,4.389-0.094c-0.817,0.81-2.024,1.016-2.738,1.91c0.097,0.103,0.251,0.259,0.387,0.403    c-1.932,1.23-4.016,3.237-6.473,3.183c0.294,0.451,0.604,0.866,0.916,1.349c3.361-1.248,15.115-11.649,17.268-3.089    c0.854,0.094,2.5-3.045,2.851-3.461c0.245-0.273,1.284-0.635,2.043-0.49c0.306,1.23-1.688,3.042-2.07,4.372    c0.395-0.15,0.779-0.02,1.129-0.112c-0.379,1.822-1.205,3.098-1.164,5.324c0.179-0.25,0.511-0.425,0.674-0.603    c-0.054,0.826,0.286,0.894,0.705,1.366c0.13-0.118,0.199-0.298,0.335-0.408c1.424,0.257,1.122,1.924,1.189,3.028    c0.005-0.008,0.191-0.354,0.243-0.43c0.093-0.014,0.152,0.023,0.179,0.113c0.445-0.619,0.294-0.606,1.1-0.587    c-0.622,0.985-0.509,2.617,0.756,2.782c-0.065-0.402,0.125-0.951,0.076-1.354c0.611-0.337,0.787-1.019,0.717-1.838    c0.412,1.008,1.414,3.196,0.924,4.118c0.212,0.013,0.437,0.072,0.652,0.077c-0.054,0.552,0.32,1.123,0.319,1.625    c0.539-0.373,1.146-0.865,1.803-0.928c0.148,0.896,0.413,1.808,0.813,2.549c1.157-0.416,2.425-1.788,2.726-2.985    c0.233,1.594-0.388,2.532-0.863,3.938c2.721-0.474,3.214-5.401,3.063-7.714c-0.464,0.872-0.999,1.82-1.862,2.288    c0.029-0.491-0.137-1.096-0.096-1.578c-0.163,0.651-0.559,1.199-1.094,1.322c0.016-1.234-0.324-2.44-0.295-3.683    c0.18,0.481,0.711,0.806,0.911,1.092c0.2-0.542,0.537-1.017,0.566-1.623c0.329,0.334,1.063,0.794,1.333,1.149    c1.513-2.875-2.708-4.971-4.366-6.393c1.324,0.625,2.544,0.922,3.656,1.916c0.768,0.687,1.157,1.725,1.898,2.343    c-0.336-1.372-0.898-2.791-2.069-3.673c0.317,0.311,1,0.556,1.347,0.833c0.427-1.633-1.472-3.163-2.292-4.436    c2.085,0.31,3.809,2.061,5.878,2.62c-0.966,0.879-2.595,3-0.207,3.27c0.908,0.104,3.336-1.701,3.972-2.18    c0.205-3.59,6.51-2.891,8.795-2.32c1.304,0.325,2.478,0.833,3.781,1.407c2.237,0.985,3.347,0.581,5.603,0.342    c-0.095,0.101-0.238,0.322-0.188,0.236c-0.288,0.275-0.523,0.588-0.817,0.871c2.204-1.898,5.84-1.496,7.46-4.483    c-1.248,0.117-2-0.967-3.04-0.533c0.92-1.808,3.761-2.266,4.221-4.4c-2.063,1.514-4.974,3.621-7.505,4.123    c1.504,0.314,2.263,1.169,1.099,2.135c-1.213,1.009-4.548,0.823-5.817,0.007c0.654-0.487,1.493-0.697,2.245-1.083    c-0.326-0.061-0.754-0.097-1.085-0.088c-0.023-0.129-0.039-0.26-0.046-0.391c-3.175-0.492-6.136,0.918-9.445,0.391    c0.157-0.117,0.359-0.444,0.638-0.609c-1.93-0.782-6.652,0.42-7.731-1.204c2.471-0.248,4.947,0.342,7.504-0.093    c1.842-0.313,2.727-1.354,4.339-1.764c0.046,0.443,0.541,1.012,0.681,1.371c0.937-0.406,1.623-1.889,2.567-1.595    c-0.059,0.564,0.126,1.233,0.077,1.79c1.361-1.208,2.13-2.42,3.993-3.24c0.604-0.265,1.25-0.546,1.869-0.788    c0.375-0.146,0.762,0.365,1.214,0.177c0.133-0.055,0.768-1.331,0.929-1.526c0.138,0.297,0.561,0.58,0.716,0.89    c0.926-0.387,0.357-3.04,0.213-4.042c-0.086-0.6,0.684-0.323,0.207-1.112c-0.195-0.323-1.301-0.191-1.657-0.959    c-1.352,0.716-1.01-0.25-1.373-0.982c-0.582-1.177-0.193-1.082-1.13-1.894c-0.562-0.487-1.116-0.47-1.657-1.222    c-0.507-0.707-0.623-1.826-1.166-2.57c-1.731,3.116-1.312,5.533-4.624,7.295c-1.956,1.042-4.114,2.11-6.271,2.704    c0.438,0.079,0.875,0.394,1.34,0.473c-1.416,1.323-4.743,0.37-6.617,0.705c-1.737,0.311-3.322,1.04-5.137,1.135    c-6.151,0.325-12.479,0.492-18.669,0.475c-4.856-0.015-9.645,0.471-14.52,0.473c-2.176,0-8.016-0.622-9.703,0.473"
   id="path235" />
		<path
   fill="#D8D9DA"
   d="M380.494,158.308c-0.558-0.317-1.893,0.108-2.083-0.877c-0.268-1.383,3.963-2.15,4.924-2.342    c-0.216,0.235-0.485,1.082-0.664,1.347c1.847,0.588,3.729-1.23,4.927-2.312c1.086-0.98,2.212-1.692,3.55-2.307    c0.546-0.252,0.886-0.683,1.443-0.815c0.129-0.031,0.625,0.677,1.172,0.532c1.233-0.326,2.579-1.993,3.786-2.627    c2.384-1.25,4.675-1.587,7.328-1.893c4.389-0.505,8.368,0.079,11.588-3.283c-4.075,1.872-8.372,2.104-12.764,2.558    c-3.241,0.336-6.156,1.606-9.21,2.586c0.247-0.531,0.861-1.061,1.398-1.346c-1.374,0.079-2.813,0.748-4.226,0.63    c-0.341-2.922,7.4-4.286,9.432-4.932c3.255-1.035,6.314-3.92,10.114-4.981c-5.065-0.038-9.942,3.16-14.6,4.997    c-2.774,1.095-8.204,2.512-9.218,5.632c0.46-0.158,0.921-0.102,1.382-0.423c-0.328,0.877-0.753,1.84-1.807,2.052    c0.125,0.02,0.236,0.073,0.33,0.16c-0.674,0.857-4.792,3.573-5.403,1.561c-0.35-1.156,2.153-2.156,1.941-3.503    c1.231-0.396,4.167-1.372,3.741-3.097c-2.895,0.219-5.328,2.934-8.198,3.066c3.893-2.13,8.146-4.904,11.96-6.604    c-3.981-0.277-9.696,4.023-12.725,6.359c-1.469,1.132-4.045,4.283-6.125,3.987c0.073-1.165,0.438-3.32,1.211-4.245    c1.422-1.7,4.538-1.668,6.31-3.268c1.313-1.186,1.666-2.259,3.341-3.118c2.655-1.362,5.477-2.567,8.232-3.727    c-0.647-0.272-1.063-0.794-1.182-1.485c-1.216,0.417-2.153,1.41-3.447,1.636c0.599-0.366,0.594-0.932,0.861-1.352    c-2.559,0.586-1.475-2.782,0.029-3.266c-1.336,0.874-2.936,2.212-4.398,2.737c0.363-2.414,3.151-3.682,2.706-6.345    c-0.417,0.201-0.944,0.271-1.324,0.607c0.488-0.345,0.885-0.883,1.307-1.3c-1.909-0.809-5.293,1.861-6.572,3    c-2.645,2.354-6.915,6.124-8.034,9.5c1.724-1.508,5.056-4.063,7.511-4.241c-0.847,0.944-2.31,1.829-2.042,3.257    c1.987,0.122,4.161-1.253,6.129-1.608c-0.775,1.545-3.778,2.67-5.142,3.964c1.592,0.96-3.934,4.041-5.194,3.902    c-2.133-0.233-0.716-2.047-0.109-3.598c-0.317,0.168-1.09,0.23-1.442,0.436c0.019-0.168-0.01-0.436,0.013-0.664    c-0.797,0.076-1.643,0.218-2.329,0.677c0.519,1.07-0.452,1.779-0.759,2.807c-1.567,0.232-0.918-2.579-0.889-3.662    c-0.881,0.192-0.98-0.831-1.195-1.673c-1.07,1.907-2.683,0.89-3.085,2.568c-0.805,3.35,1.444,7.152-0.238,10.624    c-0.674-0.979-0.412-2.168-0.463-3.451c-0.047-1.231-0.254-2.434-0.305-3.665c-0.029-0.738,0.521-2.471,0.334-3.046    c-0.242-0.756-3.214-3.597-0.307-3.845c0.018-0.276,0.082-0.603,0.071-0.877c3.204-0.107-0.052-6.938,0.94-8.458    c-1.707,0.754-3.322,1.686-5.236,1.968c-1.847,0.274-1.768-0.046-3.057-1.307c1.649,0.025,1.607-1.296,0.536-2.125    c0.723-0.788-0.261-1.427-0.799-2.175c-1.222-1.702-0.822-1.74-0.646-3.766c0.576,1.491-0.104,5.488-0.512,7.134    c-0.502,2.022-2.506,3.135-3.264,5.274c-1.25,3.534-1.27,9.22,0.365,12.412c1.088,2.126-0.133,4.024,0.047,6.166    c0.2,2.373,1.918,1.702,4.016,2.105c2.08,0.399,4.035,1.542,6.152,1.905c2.27,0.388,4.613,0.2,6.881,0.256    c2.369,0.061,4.707,0.456,7.062,0.697C377.542,160.1,378.056,159.747,380.494,158.308z"
   id="path236" />
		<path
   fill="#D8D9DA"
   d="M432.334,120.271c-1.531,0.24-2.524,1.73-4.171,1.687c0.688,2.036-4.282,4.716-5.946,5.424    c1.294,2.64-5.301,6.368-6.886,7.962c1.549-0.778,4.111-1.815,5.818-1.777c-0.297,0.183-0.542,0.461-0.782,0.641    c1.806-0.263,3.835-2.058,5.595-1.429c-0.78,1.378-5.919,2.687-5.496,4.494c0.257,1.096,2.645,0.307,3.095,2.131    c-0.218,0.055-0.437,0.153-0.627,0.207c4.967,1.19-0.938,8.216-1.943,10.172c3.06-2.335,4.588-5.804,6.907-8.663    c0.673,0.33,4.117-0.572,4.613-1.503c0.673-1.264-1.432-1.69-2.051-2.74c1.443-0.37,4.467-1.077,2.855-3.057    c0.654-0.56,1.339-1.085,1.344-1.912c-1.591-0.846-4.807-1.822-4.945-4.075c-0.063-1.032,1.133-1.737,1.502-2.532    c0.623-1.338-0.101-1.694,0.208-3.099c0.307,0.122,1.034,0.021,1.348,0.17c0.188-0.905-0.152-1.903-0.911-2.335"
   id="path237" />
		<path
   fill="#D8D9DA"
   d="M407.25,104.18c-0.883-0.5-1.622-0.209-2.095,0.533c0.615,1.059-0.722,1.744-1.436,2.264    c0.265-0.103,0.846-0.088,1.133-0.164c-0.512,3.688-2.605,5.282-5.178,7.523c3.028-1.007,5.555-4.08,8.036-5.844    c-0.553,0.065-1.111-0.266-1.631-0.337c0.205-0.695,0.546-1.352,0.837-2.054c-0.148,0.049-0.471,0.122-0.589,0.165    c0.581-0.776,1.754-1.312,2.582-1.562c-0.576,0.01-1.535-0.2-1.66-0.288"
   id="path238" />
		<path
   fill="#D8D9DA"
   d="M413.875,107.967c-0.892,0.761-2.07,1.31-2.854,2.099c0.937-0.099,2.051-0.146,2.113,0.936    c-1.328,0.459-2.067,1.46-2.134,2.845c-1.978-0.398-2.958,2.71-4.461,3.78c-4.441,3.16-9.845,6.155-13.938,9.935    c4.476-3.322,9.242-6.256,13.858-9.377c1.061-0.717,3.81-3.855,5.036-2.415c0.287-0.627,0.767-1.068,1.409-1.218    c-0.771-1.505,0.688-1.633,1.854-1.872c-0.118,0.054-0.235,0.105-0.354,0.157c0.776-0.24,1.464-0.51,2.243-0.409    c-0.122,3.269,5.175-1.769-0.13-2.143c0.189-0.135,0.52-0.793,0.656-0.911c-0.957-0.511-2.283-0.867-3.063-1.408"
   id="path239" />
		<path
   fill="#D8D9DA"
   d="M381.928,99.447c-0.315-0.179-0.649-0.252-1.002-0.22c-0.274,1.286,1.949,0.497,2.893,0.913    c-0.261,0.945-1.254,1.3-1.888,1.879c1.542-0.338,2.44-1.649,3.79-2.234c1.067-0.462,2.154-0.283,3.292-0.392    c-0.907-0.352-2.378-0.721-3.509-0.939c-0.641-1.643-3.76,0.082-4.759,0.756"
   id="path240" />
		<path
   fill="#D8D9DA"
   d="M358.975,107.729c-2.921,0.517-6.75,5.3-7.429,7.783c1.016-1.066,2.185-2.388,3.592-2.798    c-0.334,0.308-0.607,0.801-0.879,1.085c0.205-0.119,0.442-0.217,0.657-0.321c-0.089,0.365,0.14,0.941,0.071,1.313    c0.236,0.077,0.881,0.178,1.118,0.156c-0.046-0.01-0.085,0.01-0.114,0.063c2.008-0.805,3.756-3.783,6.217-4.462    c-0.57,0.726-1.455,1.245-1.533,2.127c0.244-0.051,0.623-0.113,0.863-0.172c0.029,0.13,0.055,0.261,0.074,0.392    c0.563-0.037,1.1,0.089,1.637-0.177c0.663,1.081-0.467,1.629-0.975,2.549c-0.744,1.346-1.203,2.933-1.186,4.48    c0.983-1.998,2.599-4.143,4.444-5.388c-0.343,0.422-0.39,0.935-0.588,1.351c0.759-0.326,1.516-0.703,2.315-0.867    c-1.188,1.511,0.214,1.649,1.34,2.105c-0.373,0.905,0.223,1.323,1.146,1.065c-0.36,1.376-1.205,2.727-1.305,4.136    c1.177-0.568,2.243-2.37,3.306-3.303c1.094-0.96,2.27-1.93,3.541-2.609c2.044-1.093,3.207-1.968-0.423-1.545    c1.882-1.719-0.324-1.589-1.603-1.296c1.394-1.669,3.072-3.182,4.581-4.746c-2.318,0.829-5.857,3.415-8.16,2.84    c0.723-0.831,1.899-1.506,2.035-2.556c-0.948,0.58-1.906,1.407-2.999,1.841c-1.086-1.154,0.677-2.544,1.301-3.555    c-2.012,1.314-3.614,3.205-5.847,3.593c-0.769,0.133-1.699-0.069-2.568,0.201c0.072-0.208,0.109-0.448,0.184-0.658    c-1.197,0.237-1.802,1.369-3.017,1.609c-0.202-0.988,0.473-1.78,0.839-2.513c-0.307,0.251-0.803,0.439-1.097,0.642    c0.294-1.018,1.869-2.177,0.74-3.072c-0.833,0.593-1.589,1.282-2.411,1.891"
   id="path241" />
		<path
   fill="#D8D9DA"
   d="M410.8,196.944c-0.113-1.704-0.84-0.577-0.899,0.521c-0.072,1.354,0.708,2.939,0.668,4.383    c-0.908-4.514-5.644-11.082,0.199-14.352c-0.509,1.443-1.138,3.091-1.159,4.636c-0.012,0.908,0.727,3.564,1.772,1.73    c-3.699,1.671,2.252,4.146,2.708,5.63c-0.357-1.162-0.964-2.424-1.833-3.322c0.756-0.33,1.377-0.996,1.183-2.049    c1.063,0.404,1.847,1.446,2.589,2.277c-0.34-1.037-0.767-2.195-0.932-3.223c0.119,0.139,0.492,0.396,0.685,0.607    c-0.084-0.341,0.071-0.743,0.025-1.063c1.965-0.396,2.389,2.805,3.478,3.725c-0.445-1.386-1.278-2.83-1.585-4.192    c1.771-0.973,3.216,1.494,4.193,2.548c-0.309-1.207-3.981-3.134-1.822-4.677c1.545-1.104,2.563,1.551,3.472,2.234    c-0.43-0.545-2.391-3.487-1.819-4.187c1.228-1.504,2.978,2.471,3.53,3.017c0.007-0.205-0.003-0.367,0.036-0.564    c0.165,0.377,0.423,0.671,0.609,1.037c0.192-1.734-1.111-3.419-0.392-5.099c1.143,0.263,2.007,2.459,2.096,3.684    c0.004-0.895-0.077-5.514,1.669-3.796c0.228-0.691,0.551-1.549,0.68-2.265c1.468,0.513,0.975,3.577,1.45,4.883    c0.039-0.842-1.08-6.7,0.934-4.985c0.134-0.418,0.604-0.678,0.757-1.063c1.734,0.491,1.117,2.307,0.931,3.635    c0.387-0.552,0.76-1.128,1.098-1.7c0.035,0.148,0.112,0.324,0.202,0.449c-2.124,1.701-0.611,4.118-2.226,5.595    c-0.136-0.32-0.345-0.447-0.478-0.655c0.01,2.68-3.242,2.385-3.603,4.637c-0.089-1.694,1.438-2.93,1.141-4.643    c-0.643,0.609-1.338,1.438-2.008,2.088c0.051-0.064,0.302-0.313,0.382-0.422c-0.664,0.136-1.3,0.578-1.84,0.9    c-0.025-0.223-0.064-0.45-0.071-0.674c-1.979,1.067-1.394,2.033-1.425,3.932c-0.488-0.55-0.771-1.241-0.895-1.974    c-0.897,0.344-1.196,0.057-1.909,0.864c-0.577,0.655,0.292,1.346-0.706,2.113c-0.204-0.111-0.254-0.223-0.472-0.382    c-0.127,0.301-0.566,0.661-0.717,0.905c-0.105-0.155-0.364-0.384-0.462-0.542c-0.428,0.511-0.65,1.209-1.004,1.845    c-0.187-0.439-0.411-0.328-0.416-1.028c-0.173,0.88-0.593,1.634-0.278,2.452c-0.716-1.235-1.443-2.698-1.195-4.119    c-1.396,2.324,0.214,4.042-2.774,4.902c0.04,0.224,0.139,0.221,0.197,0.413c-0.526,0.559-5.044-0.195-3.018,1.793    c1.124,1.105,4.618-0.007,5.868-0.36c2.002-0.567,3.366-1.926,5.225-2.733c1.46-0.634,2.981-0.75,4.489-1.289    c3.628-1.297,6.273-4.038,8.979-6.625c1.768-1.692,2.874-2.133,5.053-3.03c1.443-0.595,0.717-0.155,1.825-1.438    c0.633-0.735,1.279-1.061,1.632-2.069c-1.304-0.261-2.896,0.862-4.379,0.627c0.065-0.104,0.104-0.215,0.115-0.335    c-1.911,0.653-1.05-3.521-1.197-4.516c-1.751,1.606,0.422,5.831-2.048,7.002c-0.274-0.852-0.969-0.722-1.674-0.236    c0.759-2.136,0.521-5.104,2.508-6.79c-0.938-0.499-2.169-0.604-3.201-0.798c-0.025-0.131-0.053-0.263-0.08-0.394    c-1.317-0.258-1.939,0.676-3.036,0.91c-0.977,0.209-1.919-0.263-2.839,0.286c-2.171,1.296-0.516,3.493-3.497,1.386    c-0.754,0.991-0.909,1.84-1.711,2.583c-1.019,0.947-2.336,0.624-3.323,1.173c-1.341,0.745-0.682,1.56-1.634,2.146    c-0.264,0.162-1.533,0.147-1.863,0.221c0.261-0.059-0.8,1.002-0.739,0.935c-0.242-0.301-0.806-0.484-0.975-0.667    c-0.238,0.479-0.191,1.406-0.458,1.826c-0.417,0.656-0.698,0.535-1.365,1.054c-0.733,0.568-1.581,0.691-2.196,1.139"
   id="path242" />
		<linearGradient
   id="XMLID_19_"
   gradientUnits="userSpaceOnUse"
   x1="447.8579"
   y1="175.6475"
   x2="450.5708"
   y2="175.6475">
			<stop
   offset="0"
   style="stop-color:#FFFFFF"
   id="stop242" />
			<stop
   offset="0.1046"
   style="stop-color:#FAFAFA"
   id="stop243" />
			<stop
   offset="0.2282"
   style="stop-color:#ECECEC"
   id="stop244" />
			<stop
   offset="0.3616"
   style="stop-color:#D4D4D4"
   id="stop245" />
			<stop
   offset="0.5018"
   style="stop-color:#B2B2B2"
   id="stop246" />
			<stop
   offset="0.6474"
   style="stop-color:#888888"
   id="stop247" />
			<stop
   offset="0.7976"
   style="stop-color:#535353"
   id="stop248" />
			<stop
   offset="0.9487"
   style="stop-color:#161616"
   id="stop249" />
			<stop
   offset="1"
   style="stop-color:#000000"
   id="stop250" />
		</linearGradient>
		<path
   fill="url(#XMLID_19_)"
   d="M448.428,177.271c2.388,0.348,3.061-4.667,0.562-2.877    C448.442,174.786,447.097,177.077,448.428,177.271z"
   id="path250" />
		<path
   fill="#BCBEC0"
   d="M377.904,159.372c-0.346,0.737-8.461-1.191-9.2-1.516c0.593-1.155,2.108-1.579,3-2.483    c-2.075,0.622-4.225,1.835-6.562,1.543c0.487-1.96,0.189-3.74,1.333-5.965c-0.485,0.688-0.847,1.457-1.325,2.134    c0.002,0.003-0.707,2.221-1.377,2.695c-1.498,1.063-0.918,0.375-1.954-0.498c-1.075-0.905-2.06-1.22-3.382-1.662    c-0.578-0.194-0.822,0.671-1.324,0.003c-0.396-0.526,0.311-2.024,0.438-2.571c-0.252,0.324-0.91,0.803-1.148,1.18    c-0.188-1.535,0.17-3.203,0.466-4.708c-0.512,1.519-1.062,4.001-2.405,4.914c-0.77-0.946-0.325-2.367-0.688-3.475    c-0.14-0.058-0.244-0.02-0.312,0.114c-0.812-2.699,0.564-6.151,0.5-8.953c-1.255,1.88-1.576,4.629-1.65,6.854    c-1.133-1.556-1.21-3.422-1.362-5.262c-0.044-0.544-0.616-4.19-0.491-4.337c-0.4,0.47-0.615,1.165-0.705,1.766    c0.066-0.446,0.205-0.859-0.297-0.718c-2.645,3.338,4.307,12.569,2.458,17.84c1.301,1.072,2.944,0.865,4.469,1.396    c2.239,0.779,3.878,1.595,6.142,1.879c4.937,0.62,9.778,0.351,14.631,0.93C377.296,160.32,377.823,159.543,377.904,159.372z"
   id="path251" />
		<path
   fill="#BCBEC0"
   d="M403.227,165.944c1.722-0.455,3.25,2.038,3.313,3.49c0.05-0.773,0.05-1.546-0.16-2.275    c0.719,0.082,1.351,0.437,1.971,0.884c-0.397-0.515-0.638-1.13-0.542-1.773c1.385,0.32,3.762,1.06,5.077,0.372    c-2.586,0.164-5.485-0.484-8.017-0.992c-0.989-0.198-2.246-0.905-3.062-0.415"
   id="path252" />
		<path
   fill="#BCBEC0"
   d="M422.16,162.632c2.121-1.033,4.739-0.688,7.012-1.838c2.26-1.145,4.279-2.887,5.334-5.232    c0.897,0.319,1.813,0.633,2.708,0.905c-0.812,1.112-2.152,2.353-3.19,3.053c0.389-0.304,1.48-0.765,1.652,0.029    c0.153,0.71-3.052,1.647-3.584,1.886c-3.452,1.547-6.007,1.151-9.696,0.959"
   id="path253" />
		<path
   fill="#BCBEC0"
   d="M413.64,203.098c1.736-0.706,3.983,0.561,5.862-0.048c1.136-0.368,1.799-1.432,2.715-2.023    c2.064-1.331,4.72-0.64,7.027-1.998c2.337-1.374,4.092-3.83,5.943-5.563c1.457-1.364,5.876-5.16,7.777-4.373    c-1.467-2.411-3.891,0.864-5.481,1.611c-0.304-0.268-0.549-0.166-0.717-0.24c-0.111-0.181-0.241-0.359-0.346-0.547    c-0.489,0.563-0.847,1.223-1.027,1.946c-0.029-0.133-0.026-0.388-0.03-0.528c-0.974,1.48-1.75,4.453-3.934,4.408    c-0.172-0.622-0.369-0.919-0.143-1.532c-0.082,0.624-0.293,1.186-0.616,1.723c-0.103-0.186-0.198-0.406-0.295-0.593    c-0.43,3.206-3.335,4.103-3.483,0.253c-0.006,1.1,0.194,2.23-0.298,3.221c-0.138,0.059-0.208-0.161-0.354-0.179    c-0.056,0.258-0.264,0.55-0.332,0.876c-0.944-0.328-2.458,0.124-3-0.846c0.194,1.588-2.112,1.821-3.275,2.538    c-1.421,0.874-2.88,1.395-4.54,0.976c-0.064,1.012-1.084,1.126-1.929,0.918"
   id="path254" />
		<path
   fill="#BCBEC0"
   d="M392.578,175.41c-1.92,1.519-2.506,6.03-2.554,8.259c3.082-1.267,2.785,4.001,2.891,5.709    c0.168,0.188,0.389,0.332,0.564,0.455c0.145-1.403,0.651-2.725,0.519-4.175c0.063,1.066,0.04,2.895,0.251,3.568    c-0.054,0.217-0.07,0.558-0.03,0.776c0.033,0.022,0.913,0.286,1.152,0.289c0.549-1.163,0.677-2.493,1.007-3.732    c-0.024,1.149-0.081,2.347,0.041,3.474c0.054-0.189,0.171-0.437,0.241-0.644c0.154,0.681,0.875,1.126,1.598,1.193    c0.396-0.518,0.701-1.261,1.147-1.849c-0.232,0.701-0.456,1.415-0.21,2.044c0.754-0.608,1.547,0.033,1.943-0.904    c0.805,0.266,1.69,0.269,2.549,0.161c-1.548-1.103-2.716-1.266-2.643-3.679c-0.438,1.098-0.383,2.31-0.697,3.456    c-0.217,0.001-0.414,0.014-0.634-0.005c-0.093-1.207,0.011-2.474-0.071-3.678c-0.294,0.433-0.837,0.824-1.106,1.276    c0.155-0.771,0.105-1.674-0.711-1.856c-0.341-1.263-0.208-3.318-1.467-4.022c-0.138,0.149-0.301,0.309-0.459,0.486    c-1.405-0.64-0.466-2.42-1.369-3.255c-0.133,0.119-0.221,0.283-0.354,0.401c-1.693-0.59-1.815-2.724-1.833-3.75"
   id="path255" />
		<path
   fill="#BCBEC0"
   d="M395.892,191.502c-0.322,0.188-0.643,0.374-0.964,0.56c2.009-0.007,3.065,0.509,1.889,2.918    c0.823-1.191,2.358-1.921,3.085-3.193c-1.388-0.548-3.665-0.248-4.484-0.284"
   id="path256" />
		<path
   fill="#D8D9DA"
   d="M395.18,197.598c0.819-0.963,2.725-2.316,2.707-3.708c-0.032-2.423-2.061-1.107-2.862-1.677    c2.229,1.581-1.949,6.42-2.854,7.86c-1.069,1.703-1.366,3.198-1.923,5.105C391.452,202.437,393.239,199.88,395.18,197.598z"
   id="path257" />
		<path
   fill="#BCBEC0"
   d="M402.333,189.203c0.825,1.266,2.212,1.125,3.445,0.581c-0.097-1.262-1.245-0.523-1.372-0.75    c-0.353-0.626-0.425-2.419-1.227-2.69C401.495,185.771,401.784,188.362,402.333,189.203z"
   id="path258" />
		<path
   fill="#BCBEC0"
   d="M395.92,170.399c1.508,0.451-0.394,3.412-0.761,4.453c0.546-0.581,1.031-1.243,1.578-1.802    c-0.368,1.552,0.199,2.346,0.142,3.766c0.13-0.171,0.688-0.476,0.853-0.673c0.079,0.419,0.434,0.696,0.526,0.956    c0.329-0.431,0.729-0.789,0.75-1.45c1.882,1.989,3.218,4.257,3.549,7.042c0.434-0.672,0.564-1.495,0.842-2.241    c0.109,0.338,0.423,0.676,0.538,1.04c0.087-0.286,0.321-0.542,0.41-0.807c0.68,0.945,1.192,2.253,1.234,3.415    c0.985-2.577,0.277-6.562-0.373-9.159c0.341,0.497,0.843,1.044,1.289,1.392c-0.485-1.794-1.39-3.792-1.827-5.682    c1.238-0.11,2.642,1.499,3.673,2.139c-0.621-0.385-1.394-2.604-2.018-3.278c-0.732-0.793-1.622-1.632-2.663-2.014    c-1.523-0.556-3.208-0.258-4.678,0.314C398.848,167.863,395.164,170.173,395.92,170.399z"
   id="path259" />
		<linearGradient
   id="XMLID_20_"
   gradientUnits="userSpaceOnUse"
   x1="403.3823"
   y1="178.5234"
   x2="399.3711"
   y2="167.3044">
			<stop
   offset="0"
   style="stop-color:#808284"
   id="stop259" />
			<stop
   offset="0.1524"
   style="stop-color:#7B7D7F"
   id="stop260" />
			<stop
   offset="0.3326"
   style="stop-color:#6D6F71"
   id="stop261" />
			<stop
   offset="0.5268"
   style="stop-color:#565859"
   id="stop262" />
			<stop
   offset="0.7309"
   style="stop-color:#363738"
   id="stop263" />
			<stop
   offset="0.9407"
   style="stop-color:#0D0D0D"
   id="stop264" />
			<stop
   offset="1"
   style="stop-color:#000000"
   id="stop265" />
		</linearGradient>
		<path
   fill="url(#XMLID_20_)"
   d="M400.625,166.417c-1.053-0.047-2.255,0.154-2.809,0.965c0.204,0.025,0.365,0.004,0.637,0.011    c0,0.013,0.044,0.685,0.006,0.642c-1.319,0.371-1.657,1.846-2.069,3.051c0.26-0.245,0.676-0.445,0.885-0.626    c-0.053,0.372-0.044,0.546-0.176,0.893c0.195-0.049,0.452-0.216,0.655-0.179c-0.777,1.853,0.167,3.141-0.342,5.165    c0.14-0.282,0.636-0.684,0.786-0.909c0.106,0.569,0.496,1.205,0.711,1.619c0.425-0.655,0.727-1.572,1-2.15    c1.287,1.358,2.474,3.762,2.846,5.657c0.023-0.675,0.192-1.361,0.461-1.971c0.613,0.474,0.908,1.253,1.265,1.98    c0.355-1.165,0.515-3.593-0.211-4.71c0.078,0.028,0.564,0.22,0.591,0.235c-0.417-0.793-2.293-1.601-0.951-2.389    c-0.488-1.13,0.39-2.186-0.12-3.328c0.599-0.232,1.315,0.063,1.776,0.503c-0.315-0.561-0.801-1.269-1.136-1.837    c0.248,0.139,0.66,0.284,0.903,0.424c-0.935-1.96-3.886-2.786-5.892-2.809"
   id="path265" />
		<path
   fill="none"
   stroke="#000000"
   stroke-width="0.426"
   d="M409.143,166.654c-1.404,0.055-3.399,0.071-4.667-0.497    c1.278,0.896,2.79,1.95,3.57,3.342c0.241,0.431,1.022,4.171,1.31,4.218c-0.325-0.053-0.801,0.127-1.122,0.071    c-0.033,1.167,0.635,2.261,0.402,3.483c-0.198-0.032-0.422-0.077-0.641-0.124c0.136,0.028-0.316,6.455-0.406,6.988    c-0.207,1.226-0.53,2.28-1.212,3.322c-1.043,1.594-1.551,1.398-0.393,3.534c-0.824,0.059-2.266,0.373-2.999,0.237    c-1.045-0.193-1.659-1.819-2.427,0.017c-1.393-1.401-4.286,0.918-5.201-1.076c-0.449,0.596-0.717,0.218-1.36,0.384"
   id="path266" />
		<path
   fill="none"
   stroke="#000000"
   stroke-width="0.426"
   d="M426.182,161.447c2.775-0.087,8.369-3.142,8.991-6.152"
   id="path267" />
		<path
   fill="none"
   stroke="#000000"
   stroke-width="0.426"
   d="M449.847,174.464c0.331-0.08,0.606-0.008,0.827,0.219    c0.007,1.472-1.572,2.856-2.917,2.822c0.031-0.343-0.167-0.279-0.277-0.438"
   id="path268" />
	</g>
	<linearGradient
   id="XMLID_21_"
   gradientUnits="userSpaceOnUse"
   x1="96.6118"
   y1="256.2207"
   x2="96.0039"
   y2="258.9571">
		<stop
   offset="0"
   style="stop-color:#FFFFFF"
   id="stop268" />
		<stop
   offset="0.1046"
   style="stop-color:#FAFAFA"
   id="stop269" />
		<stop
   offset="0.2282"
   style="stop-color:#ECECEC"
   id="stop270" />
		<stop
   offset="0.3616"
   style="stop-color:#D4D4D4"
   id="stop271" />
		<stop
   offset="0.5018"
   style="stop-color:#B2B2B2"
   id="stop272" />
		<stop
   offset="0.6474"
   style="stop-color:#888888"
   id="stop273" />
		<stop
   offset="0.7976"
   style="stop-color:#535353"
   id="stop274" />
		<stop
   offset="0.9487"
   style="stop-color:#161616"
   id="stop275" />
		<stop
   offset="1"
   style="stop-color:#000000"
   id="stop276" />
	</linearGradient>
	
	
		<linearGradient
   id="XMLID_22_"
   gradientUnits="userSpaceOnUse"
   x1="135.9546"
   y1="232.6323"
   x2="135.1961"
   y2="236.0464"
   gradientTransform="matrix(0.9824 -0.1867 0.1867 0.9824 -11.894 52.1387)">
		<stop
   offset="0"
   style="stop-color:#FFFFFF"
   id="stop277" />
		<stop
   offset="0.1046"
   style="stop-color:#FAFAFA"
   id="stop278" />
		<stop
   offset="0.2282"
   style="stop-color:#ECECEC"
   id="stop279" />
		<stop
   offset="0.3616"
   style="stop-color:#D4D4D4"
   id="stop280" />
		<stop
   offset="0.5018"
   style="stop-color:#B2B2B2"
   id="stop281" />
		<stop
   offset="0.6474"
   style="stop-color:#888888"
   id="stop282" />
		<stop
   offset="0.7976"
   style="stop-color:#535353"
   id="stop283" />
		<stop
   offset="0.9487"
   style="stop-color:#161616"
   id="stop284" />
		<stop
   offset="1"
   style="stop-color:#000000"
   id="stop285" />
	</linearGradient>
	
</g>
</svg>
