<?xml version="1.0" encoding="UTF-8" standalone="no"?>
<!-- Generator: Adobe Illustrator 12.0.0, SVG Export Plug-In . SVG Version: 6.00 Build 51448)  -->

<svg
   version="1.1"
   id="Layer_1"
   width="536.764"
   height="308.853"
   viewBox="0 0 536.764 308.853"
   overflow="visible"
   enable-background="new 0 0 536.764 308.853"
   xml:space="preserve"
   sodipodi:docname="skull_bones_maxilla.svg"
   inkscape:version="1.4.2 (f4327f4, 2025-05-13)"
   xmlns:inkscape="http://www.inkscape.org/namespaces/inkscape"
   xmlns:sodipodi="http://sodipodi.sourceforge.net/DTD/sodipodi-0.dtd"
   xmlns="http://www.w3.org/2000/svg"
   xmlns:svg="http://www.w3.org/2000/svg"><defs
   id="defs285" /><sodipodi:namedview
   id="namedview285"
   pagecolor="#ffffff"
   bordercolor="#000000"
   borderopacity="0.25"
   inkscape:showpageshadow="2"
   inkscape:pageopacity="0.0"
   inkscape:pagecheckerboard="0"
   inkscape:deskcolor="#d1d1d1"
   inkscape:zoom="2.6128935"
   inkscape:cx="268.4763"
   inkscape:cy="154.4265"
   inkscape:window-width="2560"
   inkscape:window-height="1369"
   inkscape:window-x="1912"
   inkscape:window-y="-8"
   inkscape:window-maximized="1"
   inkscape:current-layer="g285" />

<g
   id="g285">
	
	
	
	
	
	<linearGradient
   id="XMLID_12_"
   gradientUnits="userSpaceOnUse"
   x1="129.3521"
   y1="200.709"
   x2="129.0272"
   y2="171.1463">
		<stop
   offset="0"
   style="stop-color:#FFFFFF"
   id="stop37" />
		<stop
   offset="0.3483"
   style="stop-color:#BCBEC0"
   id="stop38" />
		<stop
   offset="0.4466"
   style="stop-color:#B8BABC"
   id="stop39" />
		<stop
   offset="0.541"
   style="stop-color:#ADAFB1"
   id="stop40" />
		<stop
   offset="0.6338"
   style="stop-color:#9A9C9D"
   id="stop41" />
		<stop
   offset="0.7257"
   style="stop-color:#7F8182"
   id="stop42" />
		<stop
   offset="0.817"
   style="stop-color:#5D5E5F"
   id="stop43" />
		<stop
   offset="0.9078"
   style="stop-color:#333334"
   id="stop44" />
		<stop
   offset="0.9965"
   style="stop-color:#020202"
   id="stop45" />
		<stop
   offset="1"
   style="stop-color:#000000"
   id="stop46" />
	</linearGradient>
	
	
	
	
	<linearGradient
   id="XMLID_15_"
   gradientUnits="userSpaceOnUse"
   x1="166.7222"
   y1="106.3491"
   x2="167.5948"
   y2="109.1841">
		<stop
   offset="0"
   style="stop-color:#F4D58D"
   id="stop77" />
		<stop
   offset="0.1072"
   style="stop-color:#EFD18A"
   id="stop78" />
		<stop
   offset="0.2341"
   style="stop-color:#E1C482"
   id="stop79" />
		<stop
   offset="0.3708"
   style="stop-color:#C9AF74"
   id="stop80" />
		<stop
   offset="0.5146"
   style="stop-color:#A79261"
   id="stop81" />
		<stop
   offset="0.6639"
   style="stop-color:#7D6D48"
   id="stop82" />
		<stop
   offset="0.8179"
   style="stop-color:#483F2A"
   id="stop83" />
		<stop
   offset="0.9728"
   style="stop-color:#0B0A07"
   id="stop84" />
		<stop
   offset="1"
   style="stop-color:#000000"
   id="stop85" />
	</linearGradient>
	
	
	
	
	
	
	
	
	
	
	
	
	
	
	
	
	
	
	
	<g
   id="g286"><g
     id="g75">
		<path
   fill="#FFFFFF"
   stroke="#000000"
   stroke-width="0.7797"
   d="M116.644,137.146c0.551-0.57,1.35-0.899,1.779-1.866    c0.494-1.11,0.247-2.061,0.806-3.027c0.394-0.68,1.189-1.302,1.803-1.758c3.414,2.75,2.789,5.86,3.056,9.976    c0.227,3.497-0.636,6.598-1.511,9.903c-0.894,3.372-0.968,6.6-1.981,9.921c-1.025,3.351,0.543,6.932-0.386,10.4    c-1.447,5.404-11.549,19.598-1.369,22.288c2.492,0.66,6.156,0.802,8.042-1.253c1.711-1.868,1.637-5.041,2.679-7.267    c0.398,4.594-0.362,9.201,0.185,13.795c0.646,5.436,2.839,11.553,2.209,17.042c-0.567,4.945-5.089,5.103-9.193,5.526    c-5.871,0.604-11.793,0.849-17.61,1.894c-3.046,0.548-6.029,1.381-9.034,2.116c-0.19,0.047-7.84,1.963-6.212,2.999    c-0.282-0.179-1.026-0.599-1.238-0.788c-0.523-3.129-2.29-5.547-1.708-9.021c1.03-6.135,4.749-15.085-3.226-17.772    c-4.541-1.528-9.286-1.604-13.892-3.371c-2.284-0.875-12.669-4.227-9.988-8.167c2.722,1.277,6.478-2.889,7.764-4.817    c0.063-0.091,1.244-2.512,1.296-2.688c0.268-0.88-0.527-1.1-0.13-1.965c0.58-1.273,2.633-1.098,1.077-2.917    c1.649-1.112,4.485-1.42,5.251-3.517c0.593-0.066,0.72-0.241,1.201-0.445c-1.554,0.657,0.051-3.108,0.417-3.505    c0.857-0.919,3.096-2.023,4.252-2.468c0.575-0.221,1.315,0.536,1.977-0.335c-0.132-0.125-0.151-0.123-0.055,0.008    c2.793,1.249,6.435-2.279,8.539-1.421c0.208-0.078,0.284-0.464,0.488-0.558c0.262-0.008,0.23,0.226,0.492,0.231    c0.702-1.294,2.104-3.329,3.276-4.162c0.049,0.192,0.097,0.384,0.146,0.576c0.986-1.07,2.13-2.434,2.934-3.75    c0.349-0.57,3.131,2.193,3.335,2.722c1.675-2.727,1.582-6.218,2.819-9.147c1.28-3.028,2.318-4.881,4.893-7.118    c1.954-1.696,4.758-1.479,6.21-3.898c0.355-0.59,0.028-1.538,0.299-1.994C116.424,137.396,116.528,137.265,116.644,137.146z"
   id="path47" />
		<path
   fill="#FFFFFF"
   stroke="#000000"
   stroke-width="0.7797"
   d="M142.757,186.389c0.004-2.482-1.172-4.856-1.998-7.366    c-0.925-2.805-1.595-5.693-1.632-8.613c-0.058-4.719,1.404-8.957-0.984-13.4c-1.625-3.024-1.672-6.409-1.712-9.975    c-0.049-4.344,2.007-10.348-0.592-14.154c1.509-0.154,1.876-1.522,1.308-2.608c2.106-0.526,3.665-4.541,3.921-6.528    c7.248,4.648-0.734,14.365,5.99,20.165c3.026,2.609,6.738,3.831,9.062,7.386c1.989,3.046,1.259,6.773,4.816,8.728    c4.428,2.434,10.059,1.826,14.913,1.814c5.502-0.013,8.77-0.889,10.848,5.144c1.131,3.277,0.182,5.925,0.199,9.397    c0.02,3.564,1.157,5.44,3.933,7.682c0.498,0.402,3.138,1.878,3.296,2.279c0.976,2.446-5.758,5.296-7.334,5.854    c-4.088,1.449-8.741,3.464-10.781,7.533c-2.099,4.183-0.654,9.248-0.733,13.692c-0.041,2.427,0.543,9.191-1.864,10.605    c-1.478,0.869-6.767-0.458-8.721-0.351c-4.057,0.222-8.074-0.676-12.073-1.198c-4.039-0.528-8.573-0.316-12.347-1.962    c-0.595-0.259-9.587-4.235-9.109-2.148c-0.961-4.2,0.924-9.08-0.158-13.439c-1.492-5.995-1.227-13.239-1.387-19.382    c1.341,3.068,3.4,8.349,7.487,8.011c2.957-0.245,5.008-3.017,5.531-5.846C142.719,187.263,142.756,186.826,142.757,186.389z"
   id="path48" />
		<linearGradient
   id="XMLID_13_"
   gradientUnits="userSpaceOnUse"
   x1="163.3672"
   y1="172.29"
   x2="168.5966"
   y2="169.6753">
			<stop
   offset="0"
   style="stop-color:#FFFFFF"
   id="stop48" />
			<stop
   offset="0.1046"
   style="stop-color:#FAFAFA"
   id="stop49" />
			<stop
   offset="0.2282"
   style="stop-color:#ECECEC"
   id="stop50" />
			<stop
   offset="0.3616"
   style="stop-color:#D4D4D4"
   id="stop51" />
			<stop
   offset="0.5018"
   style="stop-color:#B2B2B2"
   id="stop52" />
			<stop
   offset="0.6474"
   style="stop-color:#888888"
   id="stop53" />
			<stop
   offset="0.7976"
   style="stop-color:#535353"
   id="stop54" />
			<stop
   offset="0.9487"
   style="stop-color:#161616"
   id="stop55" />
			<stop
   offset="1"
   style="stop-color:#000000"
   id="stop56" />
		</linearGradient>
		<path
   fill="url(#XMLID_13_)"
   d="M165.21,168.96c-1.225,1.251-1.221,3.321,1.864,3.47c1.678,0.081,3.392-0.688,3.146-2.766    C168.464,167.364,166.327,167.821,165.21,168.96z"
   id="path56" />
		<path
   fill="#D8D9DA"
   d="M140.664,214.484c1.273,0.891,2.231,1.926,2.603,3.322c1.015-2.118,0.622-6.058-0.75-7.955    c-0.258,0.103-0.34,0.458-0.545,0.538c-0.612-0.741-1.611-1.23-2.148-1.853c1.293,1.574,1.134,4.504,0.404,6.383"
   id="path57" />
		<path
   fill="#D8D9DA"
   d="M125.846,214.049c1.256-0.215,2.297,0.187,3.104,1.152c-0.481-1.17-0.372-1.937-0.512-3.184    c0.061,0.229,0.181,0.419,0.361,0.574c0.478-1.946-0.675-4.186-2.212-5.373c-0.635,2.122,0.066,5.098-1.178,6.83"
   id="path58" />
		<path
   fill="#D8D9DA"
   d="M146.766,214.484c1.206,0.388,2.193,1.075,2.984,2.058c0.837-4.424-1.805-9.091-2.024-13.386    c-0.248-4.775,3.229-10.389,0.857-15.23c0.968,2.392-0.217,6.693-1.044,9.124c-0.99,2.917-0.751,2.894-0.766,5.678    c-0.017,3.31,1.923,8.5,0.427,11.757"
   id="path59" />
		<path
   fill="#D8D9DA"
   d="M115.387,217.971c0.55-1.065,1.458-2.054,2.469-2.632c-2.181-0.69-0.886-12.608-0.347-14.734    c-3.981,0.531-4.396-7.282-5.194-9.965c0.069,5.892,3.08,11.396,3.072,17.438c-0.006,3.158,0.265,6.539-0.437,9.458"
   id="path60" />
		<path
   fill="#D8D9DA"
   d="M158.216,213.08c-0.051-0.717-0.868-1.732-1.014-2.519c-0.819-4.424,0.43-9.336,0.458-13.813    c-0.031,4.884-1.192,10.285-1.872,15.129c-0.2,1.421-0.191,3.287-1.121,4.499c-1.223,1.597-3.581,1.02-4.361,3.719    c2.811-0.616,4.951-1.147,7.724,0.478C157.539,217.823,158.4,215.661,158.216,213.08z"
   id="path61" />
		<path
   fill="#D8D9DA"
   d="M161.147,221.021c-0.144-1.415,0.189-2.936,0.498-4.292c5.299-0.433,3.169-11.476,3.521-15.293    c1.306,4.061-0.607,11.95,1.742,15.601c0.296-0.087,0.393-0.262,0.712-0.309c-0.365,0.673-0.699,3.231,0.958,2.495    c0.786-0.349,1.085-3.005,1.284-3.494c0.049,0.175,0.394,0.931,0.523,1.338c3.537-2.229-0.37-5.366,0.697-7.3    c0.188,0.122,0.185,0.178-0.009,0.162c0.352-0.848,1.113-2.968,1.395-4.6c0.408-2.369-0.319-5.29,0.838-7.316    c-0.672,0.128-1.387-0.049-2.1,0.279c2.138-1.494,3.639-4.364,5.63-6.319c1.259,2.737,8.281-0.898,10.751-1.396    c-4.77,5.056-12.86,4.516-13.802,12.575c-0.717,6.154,2.324,15.761-2.518,20.451c-0.181-1.158-0.707-2.316-1.394-3.073    c-1.075,0.58-1.971,1.366-2.625,2.297c-0.953-0.939-2.107-2.308-3.509-2.72c-1.259-0.37-1.602,2.889-3.029,0.042"
   id="path62" />
		<path
   fill="#D8D9DA"
   d="M164.197,172.646c-0.365,2.814-4.201,2.713-6.469,2.681c1.177,3.264-1.409,2.417-3.488,3.051    c0.477,3.228,1.009,6.602,1.338,9.969c0.246,2.54-0.431,6.842,0.787,8.987c1.009-3.47,0.886-7.113,2.168-10.609    c2.385,8.089,2.978,18.321,3.049,26.109c0.026-5.204-1.526-16.887,1.634-20.977c0.23,1.186,1.287,2.493,1.451,3.396    c0.365,2.031-0.25,4.027,0.413,6.023c-0.069-4.82-1.58-9.499-1.404-14.203c-0.455,0.659-1.581,1.484-2.084,2.184    c-1.716-0.965-1.213-3.01-1.752-4.672c-0.048,0.16-0.158,0.231-0.329,0.212c-0.255-1.499-1.192-2.393-2.556-1.638    c0.845-1.578,0.669-4.275,2.015-5.435c0.424-0.364,1.869,0.389,2.656-0.155c1.458-1.005,2.505-3.715,1.7-5.359"
   id="path63" />
		<path
   fill="#D8D9DA"
   d="M148.36,168.531c-0.53-3.468-1.842-12.093-5.027-14.16c0.279,3.908,2.339,8.198,3.019,12.185    c0.455,2.671,1.32,9.253-1.264,10.991c2.267,2.084,2.957,5.301,3.879,8.245C147.358,180.651,149.184,173.917,148.36,168.531z"
   id="path64" />
		<path
   fill="#D8D9DA"
   d="M107.125,212.44c-0.079,0.164-2.313,4.983-2.6,4.576c-2.709-3.834-4.16-10.019-2.627-14.623    c-1.716,5.158-0.893,11.492-0.893,16.949c0.444,0.23-0.435-0.071,0.031-0.329c-1.038,0.735-1.663,1.38-2.308,2.387    c-0.147-0.382-0.717-0.745-0.837-1.629c-0.791,0.439-2.087,1.166-2.913,1.63c-0.271-3.659,0.845-7.789,0.273-11.261    c-1.87,2.913-1.581,7.407-1.744,10.837c-1.358,0.149-0.641-0.188-1.995,0.787c-0.112-0.132-0.886-1.173-0.874-1.147    c-0.224,0.385-0.309,0.845-0.647,1.146c-1.149-4.956,0.523-8.48,1-13.209c-0.048,0.122-0.132,0.193-0.255,0.214    c-0.005-2.721-1.036-6.347-1.934-8.293c0.928,6.479-4.043,19.719,0.784,24.894c-0.12-1.082,0.474-1.95,0.599-2.973    c0.76-0.168,2.228-0.424,2.864-0.438c0.445,0.741,1.482,1.313,1.875,1.986c1.008-3.56,3.378-2.047,5.531-0.345    c-1.446-1.144,3.772-3.021,5.293-1.411c-0.171-1.729,0.918-2.451,2.606-2.105C107.455,217.964,107.052,214.9,107.125,212.44z"
   id="path65" />
		<linearGradient
   id="XMLID_14_"
   gradientUnits="userSpaceOnUse"
   x1="98.4185"
   y1="172.1499"
   x2="94.0606"
   y2="169.9713">
			<stop
   offset="0"
   style="stop-color:#FFFFFF"
   id="stop65" />
			<stop
   offset="0.1046"
   style="stop-color:#FAFAFA"
   id="stop66" />
			<stop
   offset="0.2282"
   style="stop-color:#ECECEC"
   id="stop67" />
			<stop
   offset="0.3616"
   style="stop-color:#D4D4D4"
   id="stop68" />
			<stop
   offset="0.5018"
   style="stop-color:#B2B2B2"
   id="stop69" />
			<stop
   offset="0.6474"
   style="stop-color:#888888"
   id="stop70" />
			<stop
   offset="0.7976"
   style="stop-color:#535353"
   id="stop71" />
			<stop
   offset="0.9487"
   style="stop-color:#161616"
   id="stop72" />
			<stop
   offset="1"
   style="stop-color:#000000"
   id="stop73" />
		</linearGradient>
		<path
   fill="url(#XMLID_14_)"
   d="M97.082,173.438c5.222-2.039-3.192-7.281-3.956-6.14c-1.46,2.186,0.941,7.277,3.889,6.167    C97.039,173.455,97.06,173.446,97.082,173.438z"
   id="path73" />
		<path
   fill="#D8D9DA"
   d="M93.16,173.953c0.732,1.278,1.382,2.566,2.202,3.771c0.004-0.696,0.269-0.881,0.403-1.427    c1.305,1.289,0.833,0.619,2.199,0.652c0.661,0.488,1.521,1.214,2.225,1.788c-1.534,2.639,1.09,6.524,1.146,9.132    c0.083,3.932-1.007,9.585-0.765,12.74c0-3.807,0.278-8.727-2.081-11.688c-0.141-0.113-0.466,0.525-0.557,0.57    c-0.027-0.394,0.147-0.748-0.076-1.125c-3.321,4.595-0.667,11.372-2.419,16.397c-0.449-4.82,1.105-10.148-0.171-14.612    c-1.369-1.037-1.942-3.333-4.1-3.135c-0.079,0.127-0.461,0.513-0.641,0.729c0.08-1.7-0.449-1.089-1.202-2.3    c-2.967,2.267-4,5.139-7.579,7.072c3.152-1.353,6.078-3.896,7.131-7.169c0.277-0.18,1.408-0.655,1.758-0.784    c1.219,1.604,6.033,3.622,4.893-0.022c0.49,1.221,1.512,1.781,2.799,1.544c0.61-2.754-1.241-5.618-2.646-7.797    c-1.072-1.659-1.712-2.944-2.518-4.772"
   id="path74" />
		<path
   fill="#D8D9DA"
   d="M117.129,157.392c-0.04,8.771-6.061,16.985-5.195,25.548c-1.683-5.516,0.266-11.242,1.829-16.724    c1.354-4.753,2.099-9.718,3.991-14.303c-0.92,2.885-1.755,5.355,0.249,8.095"
   id="path75" />
	</g><g
     id="g186">
		<g
   id="g185">
			<path
   fill="#FFFFFF"
   stroke="#000000"
   stroke-width="0.426"
   d="M382.507,182.071c2.641-4.442,0.351-9.316,0.406-14.445     c-1.24,0.761-2.198,0.405-3.53,0.622c-0.328,0.053-0.778-0.525-1.412-0.407c-0.421,0.079-0.317,0.746-0.639,0.832     c-2.383,0.633-5.028,1.344-7.512,0.949c-2.745-0.437-3.339-2.205-5.44-3.444c-3.268-1.925-8.024-0.552-11.61-0.036     c-3.866,0.556-4.759,2.079-7.341,4.295c-1.272,1.093-2.896,0.695-4.018,1.403c-1.6,1.009-2.799,3.488-4.263,4.796     c-1.621,1.446-3.202,2.275-5.228,3.196c-4.572,2.08-9.214,4.038-12.79,7.693c-1.503,1.536-2.685,3.562-4.97,3.548     c-4.706-0.027-4.369-7.596-5.313-10.688c-0.702-2.304-2.275-8.833-4.631-9.655c0.549-3.724-4.5-4.389-5.466-7.661     c-1.312-4.448,5.503-9.443,6.885-3.717c0.519,2.154-1.796,3.481-2.005,5.28c1.678,0.542,2.486,0.416,3.772-0.639     c0.756-0.62,0.947-1.838,1.534-2.576c1.239-1.556,2.914-2.292,4.428-3.476c2.576-2.015,7.893-4.386,5.516-8.067     c0.203-0.209,0.508-0.611,0.642-0.747c0.057-0.057-4.002,0.172-4.421,0.303c-1.424,0.444-2.821,1.986-4.426,1.09     c-0.618,1.578-2.072,1.405-3.115,1.072c-0.161,0.515-0.488,1.033-0.769,1.488c-0.248-1.851-2.651-3.213-1.019-4.883     c-2.274,0.409-2.222-2.265-1.654-2.203c-0.329-0.036-0.646-0.07-0.977-0.096c0.126-2.46-0.261-4.155,0.322-6.621     c0.725-3.064,2.182-5.131,0.258-7.749c-0.992-1.349-2.02-2.337-2.676-3.887c-0.275-0.653-1.848-4.32-1.598-4.843     c-0.54,1.129-0.344,2.84-1.117,3.83c-0.565,0.723-2.949,1.166-2.382-0.289c-1.271,3.261-4.554,5.863-6.722,8.528     c-1.006,1.237-2.76,2.559-3.443,3.691c-1.04,1.725-0.467,3.358-1.215,5.2c-0.393-0.041-0.935,0.159-1.322,0.125     c1.051,2.406-3.711,5.399-4.305,7.737c-0.738,2.914,0.635,6.274-0.311,9.158c4.146,1.913,6.016,4.251,6.354,8.59     c0.248,3.176,2.073,7.273-0.035,10.169c1.065-1.223,0.922-2.988,0.311-4.452c-1.032,1.532-2.404,2.297-4.403,2.421     c0.354,2.968-8.059,0.88-9.499,2.752c-1.289,1.677,1.652,3.963,2.082,6.274c0.442,2.375,0.074,5-0.543,7.312     c-0.984,3.688-4.904,7.61-4.187,11.678c1.813,0.017,3.325,1.157,4.925,1.847c2.365,1.021,4.488,1.32,7.021,1.739     c4.238,0.7,8.647,2.213,12.926,2.521c9,0.646,19.539,0.491,27.961-2.406c6.023-2.072,11.344-4.866,17.396-6.753     c6.938-2.163,12.84-3.517,15.185-11.085c1.481-4.779,4.065-18.265,12.166-14.917c2.989,1.236,4.977,5.431,6.882,7.838     c1,1.265,2.286,3.288,3.687,4.128c1.62,0.97,3.652,0.404,5.26,1.467C379.097,187.753,381.058,184.509,382.507,182.071z"
   id="path174" />
			<path
   fill="#D8D9DA"
   d="M273.984,181.086c-3.305-0.415,1.553,6.21,0.633,8.495c0.038,0.073-0.329-0.61-0.286-0.572     c0.374,5.551-4.838,9.246-4.977,14.687c1.765-3.32,2.696-6.279,5.364-8.995c-0.302,3.098-2.735,5.29-2.438,8.65     c1.735-3.372,4.564-15.725,9.468-14.757c-0.779,4.412-3.229,9.579-4.523,14.061c2.137-3.227,3.999-14.957,8.682-15.523     c-0.127-0.045-0.184-0.139-0.165-0.278c0.394-0.207,0.927-0.231,1.317-0.407c0.618,1.967,1.895,0.016,3.281,1.369     c1.576,1.538,1.207,6.235,0.736,8.13c1.078-2.503,1.156-5.414,1.73-8.027c0.029,0.279-0.028,0.574-0.025,0.856     c0.694-0.225,0.289-0.531,1.091-0.364c1.315-3.194,3.204-5.678,5.147-8.422c0.148,0.184,0.447,0.458,0.611,0.69     c1.291-1.113,3.732-2.749,5.254-1.136c0.122-1.721-1.509-2.011-1.74-3.71c0.688-0.223,0.944-0.7,1.302-0.656     c-3.613-2.156-6.392-5.463-7.468-10.068c-1.446,1.156,1,6.763,0.814,9.103c-1.67,0.109-4.771,11.896-6.061,14.224     c-1.184-3.442-3.399-2.387-5.617-1.72c-0.045-0.205-0.091-0.41-0.141-0.614c-0.544,0.394-1.238,0.656-1.643,1.251     c1.633-2.292,4.46-5.132,4.924-7.311c0.959-4.491-2.83-9.068-3.495-13.07c3.567,6.546-0.735,14.81-3.959,20.116     c-1.123-0.641-2.491-0.158-3.497,0.363c-0.191-1.085-0.302-2.218-0.638-3.193c0.396,0.032,0.875-0.071,1.234-0.028     c-0.003-2.006,2.636-1.8,3.956-2.807c1.427-1.087,2.544-2.932,2.059-4.842c-2.214,4.356-8.505,2.965-11.996,4.507"
   id="path175" />
			<path
   fill="#D8D9DA"
   d="M304.867,183.57c0.375,1.714,0.866,3.591,1.019,5.279c-4.986-0.046-8.418,16.984-7.171,20.542     c-1.646-1.533-0.988-7.421-4.162-6.747c-1.281,0.271-2.623,3.036-3.023,3.979c1.252-3.645,3.264-7.147,4.133-10.894     c-0.676,1.88-1.331,3.89-1.035,5.893c4.176,2.136,7.572-13.034,8.438-15.53c0.327,0.106,0.7,0.143,1.019,0.267     c0.512-1.212,1.207-2.905,0.783-4.208"
   id="path176" />
			<path
   fill="#D8D9DA"
   d="M337.32,198.486c1.497,0.229,1.023-19.316,0.852-21.257c-5.13,1.99-9.367,7.279-14.119,10.323     c-3.315,2.124-9.48,6.74-13.531,4.316c0.477,2.328-1.323,4.817-3.833,4.543c0.76,3.528,9.644,0.332,11.951-0.735     c0.644,0.879,0.903,1.997,0.835,3.044c0.984-0.676,1.957-1.176,3.113-1.26c0.009,3.047-2.322,2.61-4.24,3.485     c-2.566,1.169-5.252,3.132-6.619,5.757c3.48-2.021,7.477-5.007,11.172-2.596c0.085-0.167,0.102-0.337,0.053-0.512     c2.176-0.049,5.261-2.354,7.556-2.985c1.935-0.531,3.306-0.74,5.188-0.408c-0.011-0.242,0-0.64,0.024-0.891     c1.031,0.61,2.457-0.21,2.922-0.478C338.015,198.871,337.774,198.556,337.32,198.486z"
   id="path177" />
			<path
   fill="#D8D9DA"
   d="M285.645,157.003c-0.238,1.827,1.952,4.006,3.169,1.835c0.453,2.596,5.149,4.235,6.744,2.052     c0.287,0.453,0.373,1.202,0.389,1.676c-3.231,0.421-1.301,5.89-1.366,8.119c-0.573-2.13-1.255-4.539-2.864-6.157     c0.066,0.688-0.094,1.424,0.034,2.102c-0.207-0.471-0.489-0.958-0.665-1.427c0.33,1.861,0.275,3.887,0.299,5.86     c-0.414-5.521-4.807-8.074-9.244-10.149c-1.465-0.686-2.465-0.265-2.867-2.509c-0.242-1.342-0.451-5.621,0.365-6.744     c0.131-0.038,1.525-0.308,1.403-0.297C278.455,151.581,285.351,159.254,285.645,157.003z"
   id="path178" />
			<path
   fill="#D8D9DA"
   d="M300.251,130.68c2.07,3.052,0.05,7.917-1.721,10.561c0.191-0.286,0.342,6.311,0.355,6.778     c0.111,4.593,2.203,3.052,5.268,4.962c-0.461,0.078-0.77,0.295-1.242,0.424c0.512,1.015-0.745,2.122-1.201,2.707     c2.305,0.62,4.967,0.476,7.084-0.728c2.174-1.235,4.912-3.2,6.097-5.485c-1.851,1.059-4.095,0.932-5.937,2.078     c-0.795,0.494-0.287,2.062-2.102,1.997c-0.914-0.033-1.891-1.755-2.92-2.068"
   id="path179" />
			<path
   fill="none"
   d="M294.927,128.906c-0.307,1.09-0.845,2.103-1.385,3.063c0.348-0.085,0.656-0.131,0.97-0.18     c0.173,0.831,0.548,1.477,0.413,2.369c0.002-1.946,0.171-3.736,0.305-5.507c-0.512,0.347-0.713,0.782-1.013,1.318"
   id="path180" />
			<path
   fill="#BCBEC0"
   d="M336.364,192.533c-0.36,2.235-0.993,4.214-1.655,5.076c-0.076-0.083-1.434-1.094-1.375-0.672     c-0.236-1.717-0.828-3.43-1.24-5.126c0.297,1.964-2.18,4.142,0.433,4.964c-0.411,0.964-1.519,0.923-1.962,1.579     c-0.322,0.476-0.036,1.373-0.304,1.694c-0.63,0.756-1.161,1.144-1.905,1.839c-0.789,0.733-5.208,2.955-3.949,4.63     c-1.952-2.596-3.318-1.506-6.051-1.207c-2.479,0.272-4.881-0.272-6.744,2.255c-2.241-2.625-11.238-0.307-12.406,2.494     c-1.619-1.586-3.631-3.159-5.793-3.501c-1.796-0.284-1.986,0.896-3.801-0.279c-1.021-0.662-2.094-2.524-3.478-2.413     c-1.069,0.086-1.549,2.011-2.556,2.172c-1.688,0.27-1.908-1.396-3.107-2.313c-2.946-2.249-3.481-0.041-6.506,0.422     c-1.12,0.172-7.269-1.005-4.248,1.104c0.219,0.152,3.482,0.467,4.268,0.701c1.695,0.506,3.303,1.147,5.066,1.765     c5.644,1.975,18.221-1.211,20.217,6.272c1.588-4.188,6.553-3.722,10.213-3.016c1.037,0.2,0.916,1.129,2.15,0.94     c0.348-0.055,1.295-1.691,1.826-1.985c2.635-1.455,5.985-0.865,8.803-1.847c4.836-1.683,9.401-4.207,14.128-6.14     c3.702-1.513,7.46-2.422,10.72-4.962c3.705-2.885,3.541-7.027,5.938-10.802c0.261,0.142,0.473,0.326,0.738,0.464     c1.049-2.51,0.268-5.032,1.934-7.279c0.943,0.177,1.205-0.114,1.987-0.851c-0.096-0.203-0.278-0.372-0.345-0.623     c4.227-4.591,11.106-1.459,14.163,2.443c0.046-0.202,0.093-0.404,0.141-0.606c2.146-0.051,5.892,2.799,7.694,4.074     c-0.239-2.638,1.411-4.266,2.111-6.62c0.382-1.281,1.094-5.538-0.72-6.69c-0.829-0.527-3.385,0.132-4.231,0.273     c-2.889,0.484-4.896,1.054-7.749,0.045c-4.277-1.513-7.107-2.854-11.633-2.838c-6.944,0.028-13.275,3.565-18.624,7.715     c-2.334,1.813-4.275,3.649-7.059,4.785c-2.99,1.219-6.209,1.729-8.779,3.831c-3.455,2.824-4.56,8.423-10.16,8.164     c3.802,2.066,8.712-1.329,11.962-3.398c0.909,2.116,0.839-0.05,1.384-0.122c-0.504,0.066,1.287-0.965,1.083-0.843     c0.214-0.129,1.209,0.763,1.79,0.423c1.981-1.158,2.905-6.409,5.627-5.53C336.787,183.779,337.004,188.562,336.364,192.533z"
   id="path181" />
			<path
   fill="#BCBEC0"
   d="M300.961,130.325c1.179,1.316,2.194,2.898,2.806,4.563c-2.609,0.204-3.063,4.059-3.506,6.067     c-0.828,3.758-0.602,7.135-0.72,10.915c0.268-4.079-1.45-7.852-0.442-11.952c0.786-3.193,3.177-6.54,1.801-9.839     c-0.252,0.16-0.469,0.36-0.648,0.602"
   id="path182" />
			<path
   fill="#BCBEC0"
   d="M281.083,159.433c-1.566,2.741,2.812,4.21,3.852,6.473c-0.542-0.808-0.514-1.607-0.604-2.514     c4.09-0.244,8.027,2.484,12.271,2.084c-5.331-1.602-10.738-2.209-15.52-5.333"
   id="path183" />
			<path
   fill="#BCBEC0"
   d="M274.822,184.307c3.032-1.664,10.288-2.063,10.07-6.815c-1.404,0.283-3.824,1.353-4.867,2.475     c-0.699,0.753-0.66,1.708-1.418,2.441C277.667,183.316,275.964,183.68,274.822,184.307z"
   id="path184" />
			<path
   fill="#D8D9DA"
   d="M282.148,202.739c0.229,0.49,0.51,0.946,0.844,1.367c0.47-1.365,1.447-2.491,2.227-3.737     c-1.671,0.856-3.641,1.54-2.715,3.789"
   id="path185" />
		</g>
		<path
   fill="#D8D9DA"
   d="M308.771,200.964c0.295,0.996,0.416,2.038,0.337,3.067c0.291,0.212,1.253,0.98,1.817,1.43    C310.823,203.619,309.81,202.334,308.771,200.964"
   id="path186" />
	</g></g>
	
	
	
	
	
	
	
	<linearGradient
   id="XMLID_21_"
   gradientUnits="userSpaceOnUse"
   x1="96.6118"
   y1="256.2207"
   x2="96.0039"
   y2="258.9571">
		<stop
   offset="0"
   style="stop-color:#FFFFFF"
   id="stop268" />
		<stop
   offset="0.1046"
   style="stop-color:#FAFAFA"
   id="stop269" />
		<stop
   offset="0.2282"
   style="stop-color:#ECECEC"
   id="stop270" />
		<stop
   offset="0.3616"
   style="stop-color:#D4D4D4"
   id="stop271" />
		<stop
   offset="0.5018"
   style="stop-color:#B2B2B2"
   id="stop272" />
		<stop
   offset="0.6474"
   style="stop-color:#888888"
   id="stop273" />
		<stop
   offset="0.7976"
   style="stop-color:#535353"
   id="stop274" />
		<stop
   offset="0.9487"
   style="stop-color:#161616"
   id="stop275" />
		<stop
   offset="1"
   style="stop-color:#000000"
   id="stop276" />
	</linearGradient>
	
	
		<linearGradient
   id="XMLID_22_"
   gradientUnits="userSpaceOnUse"
   x1="135.9546"
   y1="232.6323"
   x2="135.1961"
   y2="236.0464"
   gradientTransform="matrix(0.9824 -0.1867 0.1867 0.9824 -11.894 52.1387)">
		<stop
   offset="0"
   style="stop-color:#FFFFFF"
   id="stop277" />
		<stop
   offset="0.1046"
   style="stop-color:#FAFAFA"
   id="stop278" />
		<stop
   offset="0.2282"
   style="stop-color:#ECECEC"
   id="stop279" />
		<stop
   offset="0.3616"
   style="stop-color:#D4D4D4"
   id="stop280" />
		<stop
   offset="0.5018"
   style="stop-color:#B2B2B2"
   id="stop281" />
		<stop
   offset="0.6474"
   style="stop-color:#888888"
   id="stop282" />
		<stop
   offset="0.7976"
   style="stop-color:#535353"
   id="stop283" />
		<stop
   offset="0.9487"
   style="stop-color:#161616"
   id="stop284" />
		<stop
   offset="1"
   style="stop-color:#000000"
   id="stop285" />
	</linearGradient>
	
</g>
</svg>
