<?xml version="1.0" encoding="UTF-8" standalone="no"?>
<!-- Generator: Adobe Illustrator 12.0.0, SVG Export Plug-In . SVG Version: 6.00 Build 51448)  -->

<svg
   version="1.1"
   id="Layer_1"
   width="243.85306"
   height="516.15979"
   viewBox="0 0 243.85307 516.1598"
   overflow="visible"
   enable-background="new 0 0 536.764 308.853"
   xml:space="preserve"
   sodipodi:docname="skull_bones_nasale.svg"
   inkscape:version="1.4.2 (f4327f4, 2025-05-13)"
   xmlns:inkscape="http://www.inkscape.org/namespaces/inkscape"
   xmlns:sodipodi="http://sodipodi.sourceforge.net/DTD/sodipodi-0.dtd"
   xmlns="http://www.w3.org/2000/svg"
   xmlns:svg="http://www.w3.org/2000/svg"><defs
   id="defs285" /><sodipodi:namedview
   id="namedview285"
   pagecolor="#ffffff"
   bordercolor="#000000"
   borderopacity="0.25"
   inkscape:showpageshadow="2"
   inkscape:pageopacity="0.0"
   inkscape:pagecheckerboard="0"
   inkscape:deskcolor="#d1d1d1"
   inkscape:zoom="1.3359003"
   inkscape:cx="104.79824"
   inkscape:cy="189.75967"
   inkscape:window-width="2560"
   inkscape:window-height="1369"
   inkscape:window-x="1912"
   inkscape:window-y="-8"
   inkscape:window-maximized="1"
   inkscape:current-layer="g285" />

<g
   id="g285"
   transform="translate(-49.76388,-17.411481)">
	
	
	
	
	
	<linearGradient
   id="XMLID_12_"
   gradientUnits="userSpaceOnUse"
   x1="129.3521"
   y1="200.709"
   x2="129.02721"
   y2="171.1463"
   gradientTransform="translate(42.667855)">
		<stop
   offset="0"
   style="stop-color:#FFFFFF"
   id="stop37" />
		<stop
   offset="0.3483"
   style="stop-color:#BCBEC0"
   id="stop38" />
		<stop
   offset="0.4466"
   style="stop-color:#B8BABC"
   id="stop39" />
		<stop
   offset="0.541"
   style="stop-color:#ADAFB1"
   id="stop40" />
		<stop
   offset="0.6338"
   style="stop-color:#9A9C9D"
   id="stop41" />
		<stop
   offset="0.7257"
   style="stop-color:#7F8182"
   id="stop42" />
		<stop
   offset="0.817"
   style="stop-color:#5D5E5F"
   id="stop43" />
		<stop
   offset="0.9078"
   style="stop-color:#333334"
   id="stop44" />
		<stop
   offset="0.9965"
   style="stop-color:#020202"
   id="stop45" />
		<stop
   offset="1"
   style="stop-color:#000000"
   id="stop46" />
	</linearGradient>
	
	
	
	
	<linearGradient
   id="XMLID_15_"
   gradientUnits="userSpaceOnUse"
   x1="166.7222"
   y1="106.3491"
   x2="167.5948"
   y2="109.1841"
   gradientTransform="translate(42.667855)">
		<stop
   offset="0"
   style="stop-color:#F4D58D"
   id="stop77" />
		<stop
   offset="0.1072"
   style="stop-color:#EFD18A"
   id="stop78" />
		<stop
   offset="0.2341"
   style="stop-color:#E1C482"
   id="stop79" />
		<stop
   offset="0.3708"
   style="stop-color:#C9AF74"
   id="stop80" />
		<stop
   offset="0.5146"
   style="stop-color:#A79261"
   id="stop81" />
		<stop
   offset="0.6639"
   style="stop-color:#7D6D48"
   id="stop82" />
		<stop
   offset="0.8179"
   style="stop-color:#483F2A"
   id="stop83" />
		<stop
   offset="0.9728"
   style="stop-color:#0B0A07"
   id="stop84" />
		<stop
   offset="1"
   style="stop-color:#000000"
   id="stop85" />
	</linearGradient>
	
	<path
   fill="#ffffff"
   stroke="#000000"
   stroke-width="0.7797"
   d="m 174.62485,150.691 c 0.239,-1.258 0.148,-2.667 0.347,-3.846 0.592,-3.499 0.81,-7.896 -0.694,-11.2 -0.748,-1.647 -1.56,-2.199 -1.768,-4.082 -0.059,-0.529 0.095,-1.696 -0.267,-2.132 -0.023,-0.026 -0.844,-1.048 -0.944,-0.437 0.03,-0.175 -0.056,-0.588 0,-0.811 -1.617,-0.23 -4.618,2.729 -5.229,1.503 -1.514,1.527 -4.028,1.841 -1.955,4.364 0.977,1.19 1.577,1.398 1.797,3.026 0.51,3.763 -1.453,5.849 -2.646,9.092 -0.805,2.19 -1.259,4.534 -1.255,6.872 0.001,1.43 -0.048,4.96 1.25,5.829 0.817,-0.999 1.458,-2.214 2.108,-3.329 0.197,-0.34 2.956,-4.13 3.359,-3.251 0.29,0.635 0.634,1.098 0.772,1.802 2.098,-1.031 3.23,0.508 4.631,-1.975 0.246,-0.434 0.397,-0.916 0.494,-1.425 z"
   id="path86" />
	<g
   id="g88"
   transform="translate(42.667855)">
		<path
   fill="#ffffff"
   stroke="#000000"
   stroke-width="0.7797"
   d="m 140.695,161.627 c -0.575,-2.726 -3.43,-5.395 -2.671,-8.307 -0.395,0.266 -2.816,0.045 -2.802,-0.084 0.163,-1.448 -0.892,-2.875 -2.284,-2.181 -0.516,1.534 -0.715,3.707 -2.93,2.818 0.485,-3.851 0.256,-8.367 0.039,-11.971 -0.079,-1.31 -0.79,-2.354 -0.925,-3.645 -0.16,-1.488 0.346,-2.988 0.404,-4.472 0.096,-2.393 -1.44,-4.095 0.692,-5.549 2.167,1.629 4.045,-0.421 6.2,0.119 -0.161,-0.04 2.024,0.976 1.954,0.928 0.689,0.484 1.195,0.763 0.707,1.694 1.672,1.413 -1.169,4.315 -1.599,5.835 -1.119,3.964 2.045,7.325 2.98,10.869 1.204,4.559 -0.722,9.407 0.235,13.946 z"
   id="path87" />
		<path
   fill="#d8d9da"
   d="m 132.819,137.78 c 0.126,0.612 0.315,1.202 0.564,1.772 -0.104,-0.235 0.285,-0.816 0.428,-0.982 2.525,2.809 2.383,8.691 2.582,12.264 0.304,0.022 0.419,-0.285 0.7,-0.375 0.449,1.159 0.121,0.961 0.848,1.322 0.787,1.872 0.55,3.889 0.521,5.893 2.12,-3.408 1.582,-7.022 0.413,-10.642 -0.806,-2.499 -4.087,-7.407 -2.932,-10.05 1.452,-0.874 1.966,-3.42 1.583,-5.266 -1.306,1.811 -2.717,4.151 -4.594,5.565 -0.187,-0.201 -0.36,-0.489 -0.578,-0.654 -0.055,0.479 0.132,0.811 0.465,1.153"
   id="path88" />
	</g>
	
	
	
	
	
	
	
	
	
	
	
	
	
	
	
	<g
   id="g173"
   transform="translate(-217.08207,264.24128)">
		<path
   fill="#ffffff"
   stroke="#000000"
   stroke-width="0.426"
   d="m 273.679,140.585 c 1.148,0.491 2.59,0.238 3.735,-0.051 -0.138,0.564 -1.052,1.979 -1.063,2.431 -0.036,1.382 1.885,0.755 0.541,2.502 1.209,1.039 0.951,2.65 0.976,4.135 0.853,-0.671 1.788,-0.722 2.725,-0.292 0.706,-2.126 3.628,-2.474 5.263,-3.41 -1.957,-6.878 7.425,-10.752 9.449,-16.395 1.123,-3.131 1.383,-10.51 -2.898,-12.05 2.072,0.745 -2.491,8.89 -3.25,9.982 -3.279,4.711 -9.375,5.534 -13.221,9.517 -0.286,0.293 -1.368,4.01 -2.257,3.631 z"
   id="path171" />
		<path
   fill="#d8d9da"
   d="m 279.235,146.523 c 1.493,-0.292 2.022,-1.238 1.463,-2.387 1.356,-1.273 2.061,-3.759 3.073,-5.048 1.095,-1.396 1.961,-2.958 2.92,-3.923 1.254,-1.267 2.874,-2.076 3.911,-3.629 0.901,-1.35 2.433,-4.925 -0.69,-3.516 1.155,-1.605 2.094,-3.984 3.078,-5.614 1.674,6.392 0.008,8.174 -3.912,12.404 -2.58,2.784 -5.358,7.234 -5.999,10.943 -1.192,0.48 -2.003,1.464 -2.858,2.402 -0.504,-0.205 -0.765,-0.466 -1.039,-0.905 0.256,-0.338 0.482,-0.778 0.764,-1.082"
   id="path172" />
		<path
   fill="none"
   d="m 278.88,139.068 c 0.16,0.439 0.278,0.888 0.355,1.347 0.588,-0.459 1.233,-1.169 1.648,-1.816 -0.756,-0.012 -1.617,0.153 -2.359,0.469"
   id="path173" />
	</g>
	
	
	
	
	
	
	
	
	<linearGradient
   id="XMLID_21_"
   gradientUnits="userSpaceOnUse"
   x1="96.611801"
   y1="256.2207"
   x2="96.003899"
   y2="258.95709"
   gradientTransform="translate(42.667855)">
		<stop
   offset="0"
   style="stop-color:#FFFFFF"
   id="stop268" />
		<stop
   offset="0.1046"
   style="stop-color:#FAFAFA"
   id="stop269" />
		<stop
   offset="0.2282"
   style="stop-color:#ECECEC"
   id="stop270" />
		<stop
   offset="0.3616"
   style="stop-color:#D4D4D4"
   id="stop271" />
		<stop
   offset="0.5018"
   style="stop-color:#B2B2B2"
   id="stop272" />
		<stop
   offset="0.6474"
   style="stop-color:#888888"
   id="stop273" />
		<stop
   offset="0.7976"
   style="stop-color:#535353"
   id="stop274" />
		<stop
   offset="0.9487"
   style="stop-color:#161616"
   id="stop275" />
		<stop
   offset="1"
   style="stop-color:#000000"
   id="stop276" />
	</linearGradient>
	
	
		<linearGradient
   id="XMLID_22_"
   gradientUnits="userSpaceOnUse"
   x1="135.95461"
   y1="232.63229"
   x2="135.19611"
   y2="236.0464"
   gradientTransform="matrix(0.9824,-0.1867,0.1867,0.9824,30.773855,52.1387)">
		<stop
   offset="0"
   style="stop-color:#FFFFFF"
   id="stop277" />
		<stop
   offset="0.1046"
   style="stop-color:#FAFAFA"
   id="stop278" />
		<stop
   offset="0.2282"
   style="stop-color:#ECECEC"
   id="stop279" />
		<stop
   offset="0.3616"
   style="stop-color:#D4D4D4"
   id="stop280" />
		<stop
   offset="0.5018"
   style="stop-color:#B2B2B2"
   id="stop281" />
		<stop
   offset="0.6474"
   style="stop-color:#888888"
   id="stop282" />
		<stop
   offset="0.7976"
   style="stop-color:#535353"
   id="stop283" />
		<stop
   offset="0.9487"
   style="stop-color:#161616"
   id="stop284" />
		<stop
   offset="1"
   style="stop-color:#000000"
   id="stop285" />
	</linearGradient>
	
</g>
</svg>
