<?xml version="1.0" encoding="UTF-8" standalone="no"?>
<!-- Generator: Adobe Illustrator 12.0.0, SVG Export Plug-In . SVG Version: 6.00 Build 51448)  -->

<svg
   version="1.1"
   id="Layer_1"
   width="468.82397"
   height="259.53882"
   viewBox="0 0 468.82399 259.53882"
   overflow="visible"
   enable-background="new 0 0 536.764 308.853"
   xml:space="preserve"
   sodipodi:docname="skull_bones_temporale.svg"
   inkscape:version="1.4.2 (f4327f4, 2025-05-13)"
   xmlns:inkscape="http://www.inkscape.org/namespaces/inkscape"
   xmlns:sodipodi="http://sodipodi.sourceforge.net/DTD/sodipodi-0.dtd"
   xmlns="http://www.w3.org/2000/svg"
   xmlns:svg="http://www.w3.org/2000/svg"><defs
   id="defs285" /><sodipodi:namedview
   id="namedview285"
   pagecolor="#ffffff"
   bordercolor="#000000"
   borderopacity="0.25"
   inkscape:showpageshadow="2"
   inkscape:pageopacity="0.0"
   inkscape:pagecheckerboard="0"
   inkscape:deskcolor="#d1d1d1"
   inkscape:zoom="2.6718006"
   inkscape:cx="229.05901"
   inkscape:cy="146.5304"
   inkscape:window-width="1920"
   inkscape:window-height="1009"
   inkscape:window-x="-8"
   inkscape:window-y="148"
   inkscape:window-maximized="1"
   inkscape:current-layer="g285" />

<g
   id="g285"
   transform="translate(-41.875033,-17.411481)">
	
	
	<g
   id="g33">
		<path
   fill="#ffffff"
   stroke="#000000"
   stroke-width="0.7797"
   d="m 49.579,108.1 c -0.65,-0.593 -6.332,-3.876 -6.33,-3.943 -0.1,5.438 0.728,11.264 2.186,16.508 1.381,4.967 2.557,9.574 2.817,14.706 0.265,5.271 0.456,10.446 0.362,15.656 -0.098,5.479 -0.615,7.683 4.469,10.926 6.787,4.329 2.683,-2.782 2.702,-7.019 0.035,-7.059 -0.712,-14.659 0.314,-21.847 0.365,-2.542 1.928,-5.5 2.01,-7.926 0.101,-3.067 -2.004,-5.978 -3.396,-8.564 -1.544,-2.866 -2.545,-6.13 -5.134,-8.497 z"
   id="path31" />
		
		
	</g>
	<g
   id="g36">
		<path
   fill="#ffffff"
   stroke="#000000"
   stroke-width="0.7797"
   d="m 210.905,148.938 c -0.071,-3.19 0.34,-6.378 0.279,-9.571 -0.125,-6.291 1.759,-12.81 3.186,-18.881 0.625,-2.657 2.738,-11.14 -1.33,-12.167 -3.342,-0.844 -6.907,5.358 -8.53,7.387 -3.007,3.766 -3.319,7.871 -2.106,12.685 1.897,7.527 3.534,17.123 0.436,24.646 -2.377,5.778 4.209,9.074 7.712,4.07 1.622,-2.315 0.45,-5.178 0.363,-7.855 -0.005,-0.105 -0.007,-0.209 -0.01,-0.314 z"
   id="path34" />
		
		
	</g>
	
	<linearGradient
   id="XMLID_12_"
   gradientUnits="userSpaceOnUse"
   x1="129.3521"
   y1="200.709"
   x2="129.02721"
   y2="171.1463">
		<stop
   offset="0"
   style="stop-color:#FFFFFF"
   id="stop37" />
		<stop
   offset="0.3483"
   style="stop-color:#BCBEC0"
   id="stop38" />
		<stop
   offset="0.4466"
   style="stop-color:#B8BABC"
   id="stop39" />
		<stop
   offset="0.541"
   style="stop-color:#ADAFB1"
   id="stop40" />
		<stop
   offset="0.6338"
   style="stop-color:#9A9C9D"
   id="stop41" />
		<stop
   offset="0.7257"
   style="stop-color:#7F8182"
   id="stop42" />
		<stop
   offset="0.817"
   style="stop-color:#5D5E5F"
   id="stop43" />
		<stop
   offset="0.9078"
   style="stop-color:#333334"
   id="stop44" />
		<stop
   offset="0.9965"
   style="stop-color:#020202"
   id="stop45" />
		<stop
   offset="1"
   style="stop-color:#000000"
   id="stop46" />
	</linearGradient>
	
	
	
	
	<linearGradient
   id="XMLID_15_"
   gradientUnits="userSpaceOnUse"
   x1="166.7222"
   y1="106.3491"
   x2="167.5948"
   y2="109.1841">
		<stop
   offset="0"
   style="stop-color:#F4D58D"
   id="stop77" />
		<stop
   offset="0.1072"
   style="stop-color:#EFD18A"
   id="stop78" />
		<stop
   offset="0.2341"
   style="stop-color:#E1C482"
   id="stop79" />
		<stop
   offset="0.3708"
   style="stop-color:#C9AF74"
   id="stop80" />
		<stop
   offset="0.5146"
   style="stop-color:#A79261"
   id="stop81" />
		<stop
   offset="0.6639"
   style="stop-color:#7D6D48"
   id="stop82" />
		<stop
   offset="0.8179"
   style="stop-color:#483F2A"
   id="stop83" />
		<stop
   offset="0.9728"
   style="stop-color:#0B0A07"
   id="stop84" />
		<stop
   offset="1"
   style="stop-color:#000000"
   id="stop85" />
	</linearGradient>
	
	
	
	
	
	
	
	
	
	
	
	
	
	
	
	
	
	
	
	
	
	
	
	
	
	
	<g
   id="g268">
		<path
   fill="#ffffff"
   stroke="#000000"
   stroke-width="0.426"
   d="m 390.328,169.818 c 0.992,1.313 1.715,3.83 3.125,2.589 -0.456,1.669 -1.948,3.342 -2.651,5.238 -0.852,2.292 -1.388,4.457 -1.57,6.828 3.595,-3.188 3.465,4.579 2.935,6.235 0.653,-0.097 1.604,0.269 2.257,0.179 -1.733,5.594 -6.309,9.627 -4.341,16.326 2.488,-5.475 8.081,-12.313 12.436,-16.48 1.098,0.696 2.451,0.771 3.716,0.234 0.198,0.274 0.115,0.849 0.176,1.189 2.027,0.791 2.903,9.325 3.751,11.817 3.292,-0.231 6.601,0.761 9.88,-0.38 1.52,-0.527 2.404,-1.638 3.789,-2.271 1.426,-0.652 2.961,-0.479 4.271,-1.041 6.506,-2.791 8.047,-10.511 15.996,-9.563 -0.369,-1.628 0.173,-3.195 1.773,-3.715 -0.353,-0.346 -0.542,-0.565 -0.814,-0.957 1.298,-1.296 3.896,-1.3 4.92,-2.331 1.582,-1.598 0.59,-4.115 3.009,-4.743 -0.203,-1.201 2.925,-3.403 4.067,-4.641 0.858,-0.928 2.024,-1.872 2.604,-3.062 0.767,-1.573 0.29,-1.855 0.581,-3.163 0.73,-3.268 2.43,-5.603 2.401,-8.541 -0.018,-1.842 -0.951,-4.912 -1.988,-6.579 -2.9,1.438 -6.222,0.718 -9.383,0.887 -3.769,0.201 -3.68,1.501 -6.081,2.766 0.424,-0.724 0.547,-1.898 1.278,-2.638 -0.974,-1.057 -0.848,-2.22 0.023,-3.368 -3.301,-0.288 -2.186,3.336 -1.433,5.05 -0.51,-0.152 -1.289,0.006 -1.844,-0.19 -0.439,0.989 -1.459,1.649 -1.993,2.554 1.274,-2.159 -3.643,-3.119 -3.839,-3.325 -1.149,-1.209 -1.317,-3.181 -2.862,-4.227 1.205,-0.863 1.149,-1.731 0.374,-2.869 1.102,-1.792 1.545,-6.952 -1.455,-6.233 1.831,-1.357 1.133,-3.063 -0.105,-4.466 2.148,-0.898 1.273,-3.735 1.785,-5.69 -1.668,-0.377 -4.072,-1.206 -4.565,-3.029 -0.671,-2.479 2.977,-3.289 1.017,-5.501 0.328,0.148 1.279,0.188 1.633,0.342 1.404,-6.048 -4.693,-4.671 -7.523,-1.999 0.879,-2.764 -0.337,-9.761 -4.603,-6.981 2.512,-1.637 -5.357,-7.126 -6.543,-7.248 0.197,-2.35 -1.585,-3.228 -3.414,-1.757 -0.744,-1.689 -2.643,-1.359 -4.28,-1.941 0.198,-0.423 0.222,-0.873 0.355,-1.255 -0.821,0.435 -1.861,0.319 -2.734,0.688 1.186,-4.235 -3.55,-0.68 -4.673,-0.605 -1.745,0.116 -3.444,-1.098 -5.24,-2.154 0.178,-0.415 0.209,-0.864 0.33,-1.228 -1.725,0.589 -4.471,0.539 -4.769,-1.928 -0.32,0.414 -1.37,0.932 -1.681,1.326 -0.065,-0.273 -0.128,-0.546 -0.188,-0.821 -0.302,0.122 -1.428,0.342 -1.847,0.36 -0.139,-0.452 -0.768,-1.159 -0.875,-1.468 -0.378,0.517 -1.563,1.121 -1.859,1.49 -0.008,-0.823 -0.496,-1.153 -0.639,-1.693 -0.69,0.679 -1.604,0.707 -2.281,1.303 -0.225,-0.329 -0.323,-0.507 -0.555,-0.961 -1.862,0.824 -2.688,4.854 -4.25,2 -1.879,2.071 -4.271,2.481 -5.03,5.016 -0.056,-1.346 -0.437,-2.052 -0.179,-3.228 -2.278,1.707 -5.472,3.505 -6.555,5.962 -0.138,-0.43 -0.793,-1.181 -1.027,-1.703 -1.61,0.806 -3.86,1.734 -4.731,-0.344 -3.08,1.744 -4.634,2.97 -7.904,4.074 2.484,2.059 0.377,2.918 -0.416,5.226 -0.73,2.127 -0.582,4.277 -0.949,6.143 -0.905,4.603 1.273,9.637 -0.375,14.151 0.543,-0.21 1.147,-0.198 1.645,-0.355 -1.762,3.399 -1.858,6.661 -2.734,10.339 2.225,1.082 2.084,3.266 1.421,5.127 0.426,0.044 0.815,0.069 1.224,0.2 -0.081,2.176 0.389,3.963 -0.047,6.047 -0.311,1.491 -0.847,1.218 0.471,2.107 0.552,0.373 1.503,0.338 2.138,0.537 2.909,0.908 5.694,1.728 8.64,2.319 3.004,0.604 6.108,0.704 9.229,0.704 1.83,0 3.659,-0.003 5.489,0 1.112,0.001 3.439,-0.54 4.253,-0.053 -2.054,-0.028 -3.996,0.573 -6.076,0.473 -2.429,-0.116 -4.928,-0.548 -7.347,-0.836 -3.656,-0.436 -7.273,-0.277 -10.695,-1.886 -3.044,-1.431 -6.188,-1.728 -9.703,-1.491 -2.295,0.155 -4.576,0.98 -6.858,0.885 -1.123,-0.046 -3.979,-1.141 -4.345,0.686 -0.193,0.976 2.41,3.44 2.146,4.113 -0.187,0.474 -0.464,0.942 -0.822,1.316 1.985,0.882 4.302,2.883 4.766,4.795 0.341,-0.075 0.384,-0.378 0.736,-0.362 0.831,1.092 1.466,1.292 1.632,2.726 -0.05,-0.429 2.189,0.653 2.221,2.071 6.277,-4.347 13.176,-4 19.939,-0.96 2.542,1.143 5.062,3.198 7.958,3.275 2.799,0.075 4.541,-2.011 6.295,-3.868 0.444,-0.47 0.716,-1.164 1.174,-1.644 1.028,-1.081 2.038,-1.521 3.491,-1.674 1.473,-0.155 3.404,0.057 4.584,1.056 1.218,1.029 1.356,2.605 2.335,3.889 1.69,-1.053 2.008,-3.817 3.704,-5.086 -3.036,2.414 -3.287,7.359 -1.633,10.713 0.108,-0.039 0.598,-0.302 0.677,-0.356 0.016,0.123 0.042,0.243 0.081,0.36 0.272,-0.199 0.365,-0.3 0.686,-0.377 0.332,0.878 0.438,1.883 0.746,2.794 1.41,-0.652 1.696,1.31 1.64,2.371 0.288,-0.195 0.804,-0.205 1.087,-0.413 0.044,0.346 0.377,0.626 0.333,1.111 0.262,-0.022 0.618,0.1 0.88,0.071 -0.077,0.185 -0.07,0.626 -0.17,0.862 1.729,1.126 2.22,-0.144 3.211,1.669 0.139,-0.213 0.397,-0.395 0.558,-0.597 -0.104,1.166 0.813,2.152 2.028,2.04 -1.641,0.218 -1.503,-1.587 -2.562,-2.3 -1.444,-0.973 -3.516,0.774 -3.313,-2.379 -0.587,-0.265 -1.015,-0.152 -1.142,-0.042"
   id="path232" />
		<path
   fill="#d8d9da"
   d="m 341.187,163.619 c -1.328,-0.018 -2.666,0.734 -3.645,-0.554 2.249,-1.18 -1.494,-2.81 -1.26,-3.03 0.344,-0.325 5.996,-1.426 6.1,-1.373 -0.119,-0.061 -0.242,-0.081 -0.371,-0.06 1.043,-0.2 2.12,-0.25 3.154,-0.478 -0.097,0.141 -0.275,0.317 -0.359,0.431 0.979,0.592 2.185,0.119 3.179,-0.201 1.187,0.623 2.937,-0.008 4.292,0.492 -2.565,0.456 0.212,1.684 1.309,1.839 1.748,0.247 3.54,-0.146 5.303,-0.195 -0.092,0.03 -0.134,0.094 -0.127,0.191 0.828,0.317 1.688,0.278 2.509,0.543 -2.486,-0.142 -5.05,1.383 -7.467,0.899 -0.026,-0.217 -0.04,-0.421 -0.058,-0.641 -0.902,-0.143 -1.793,-0.38 -2.734,-0.259 0.08,-0.122 0.26,-0.194 0.355,-0.308 -1.613,-2.012 -7.855,3.157 -10.1,3.095 -0.027,-0.131 -0.055,-0.261 -0.08,-0.391 z"
   id="path233" />
		<path
   fill="#d8d9da"
   d="m 349.271,169.257 c 1.268,0.937 4.756,-0.309 6.426,-0.473 2.541,-0.25 4.84,0.354 7.283,0.419 -1.916,-2.091 -6.334,-1.602 -9.205,-1.602 -2.243,0 -6.268,-0.274 -7.97,1.408 0.577,0.672 0.411,1.851 1.101,2.165 0.706,0.32 2.781,-0.994 3.55,-1.208"
   id="path234" />
		<path
   fill="#d8d9da"
   d="m 371.517,162.632 c 1.73,0.755 3.595,0.283 5.216,0.928 -0.308,0.643 -0.984,1.016 -1.589,1.437 0.452,0.542 1.083,0.797 1.797,0.745 -0.447,0.86 -0.033,1.77 0.931,1.829 0.032,-0.205 0.007,-0.395 0.053,-0.593 1.622,0.472 2.965,-0.815 4.389,-0.094 -0.817,0.81 -2.024,1.016 -2.738,1.91 0.097,0.103 0.251,0.259 0.387,0.403 -1.932,1.23 -4.016,3.237 -6.473,3.183 0.294,0.451 0.604,0.866 0.916,1.349 3.361,-1.248 15.115,-11.649 17.268,-3.089 0.854,0.094 2.5,-3.045 2.851,-3.461 0.245,-0.273 1.284,-0.635 2.043,-0.49 0.306,1.23 -1.688,3.042 -2.07,4.372 0.395,-0.15 0.779,-0.02 1.129,-0.112 -0.379,1.822 -1.205,3.098 -1.164,5.324 0.179,-0.25 0.511,-0.425 0.674,-0.603 -0.054,0.826 0.286,0.894 0.705,1.366 0.13,-0.118 0.199,-0.298 0.335,-0.408 1.424,0.257 1.122,1.924 1.189,3.028 0.005,-0.008 0.191,-0.354 0.243,-0.43 0.093,-0.014 0.152,0.023 0.179,0.113 0.445,-0.619 0.294,-0.606 1.1,-0.587 -0.622,0.985 -0.509,2.617 0.756,2.782 -0.065,-0.402 0.125,-0.951 0.076,-1.354 0.611,-0.337 0.787,-1.019 0.717,-1.838 0.412,1.008 1.414,3.196 0.924,4.118 0.212,0.013 0.437,0.072 0.652,0.077 -0.054,0.552 0.32,1.123 0.319,1.625 0.539,-0.373 1.146,-0.865 1.803,-0.928 0.148,0.896 0.413,1.808 0.813,2.549 1.157,-0.416 2.425,-1.788 2.726,-2.985 0.233,1.594 -0.388,2.532 -0.863,3.938 2.721,-0.474 3.214,-5.401 3.063,-7.714 -0.464,0.872 -0.999,1.82 -1.862,2.288 0.029,-0.491 -0.137,-1.096 -0.096,-1.578 -0.163,0.651 -0.559,1.199 -1.094,1.322 0.016,-1.234 -0.324,-2.44 -0.295,-3.683 0.18,0.481 0.711,0.806 0.911,1.092 0.2,-0.542 0.537,-1.017 0.566,-1.623 0.329,0.334 1.063,0.794 1.333,1.149 1.513,-2.875 -2.708,-4.971 -4.366,-6.393 1.324,0.625 2.544,0.922 3.656,1.916 0.768,0.687 1.157,1.725 1.898,2.343 -0.336,-1.372 -0.898,-2.791 -2.069,-3.673 0.317,0.311 1,0.556 1.347,0.833 0.427,-1.633 -1.472,-3.163 -2.292,-4.436 2.085,0.31 3.809,2.061 5.878,2.62 -0.966,0.879 -2.595,3 -0.207,3.27 0.908,0.104 3.336,-1.701 3.972,-2.18 0.205,-3.59 6.51,-2.891 8.795,-2.32 1.304,0.325 2.478,0.833 3.781,1.407 2.237,0.985 3.347,0.581 5.603,0.342 -0.095,0.101 -0.238,0.322 -0.188,0.236 -0.288,0.275 -0.523,0.588 -0.817,0.871 2.204,-1.898 5.84,-1.496 7.46,-4.483 -1.248,0.117 -2,-0.967 -3.04,-0.533 0.92,-1.808 3.761,-2.266 4.221,-4.4 -2.063,1.514 -4.974,3.621 -7.505,4.123 1.504,0.314 2.263,1.169 1.099,2.135 -1.213,1.009 -4.548,0.823 -5.817,0.007 0.654,-0.487 1.493,-0.697 2.245,-1.083 -0.326,-0.061 -0.754,-0.097 -1.085,-0.088 -0.023,-0.129 -0.039,-0.26 -0.046,-0.391 -3.175,-0.492 -6.136,0.918 -9.445,0.391 0.157,-0.117 0.359,-0.444 0.638,-0.609 -1.93,-0.782 -6.652,0.42 -7.731,-1.204 2.471,-0.248 4.947,0.342 7.504,-0.093 1.842,-0.313 2.727,-1.354 4.339,-1.764 0.046,0.443 0.541,1.012 0.681,1.371 0.937,-0.406 1.623,-1.889 2.567,-1.595 -0.059,0.564 0.126,1.233 0.077,1.79 1.361,-1.208 2.13,-2.42 3.993,-3.24 0.604,-0.265 1.25,-0.546 1.869,-0.788 0.375,-0.146 0.762,0.365 1.214,0.177 0.133,-0.055 0.768,-1.331 0.929,-1.526 0.138,0.297 0.561,0.58 0.716,0.89 0.926,-0.387 0.357,-3.04 0.213,-4.042 -0.086,-0.6 0.684,-0.323 0.207,-1.112 -0.195,-0.323 -1.301,-0.191 -1.657,-0.959 -1.352,0.716 -1.01,-0.25 -1.373,-0.982 -0.582,-1.177 -0.193,-1.082 -1.13,-1.894 -0.562,-0.487 -1.116,-0.47 -1.657,-1.222 -0.507,-0.707 -0.623,-1.826 -1.166,-2.57 -1.731,3.116 -1.312,5.533 -4.624,7.295 -1.956,1.042 -4.114,2.11 -6.271,2.704 0.438,0.079 0.875,0.394 1.34,0.473 -1.416,1.323 -4.743,0.37 -6.617,0.705 -1.737,0.311 -3.322,1.04 -5.137,1.135 -6.151,0.325 -12.479,0.492 -18.669,0.475 -4.856,-0.015 -9.645,0.471 -14.52,0.473 -2.176,0 -8.016,-0.622 -9.703,0.473"
   id="path235" />
		<path
   fill="#d8d9da"
   d="m 380.494,158.308 c -0.558,-0.317 -1.893,0.108 -2.083,-0.877 -0.268,-1.383 3.963,-2.15 4.924,-2.342 -0.216,0.235 -0.485,1.082 -0.664,1.347 1.847,0.588 3.729,-1.23 4.927,-2.312 1.086,-0.98 2.212,-1.692 3.55,-2.307 0.546,-0.252 0.886,-0.683 1.443,-0.815 0.129,-0.031 0.625,0.677 1.172,0.532 1.233,-0.326 2.579,-1.993 3.786,-2.627 2.384,-1.25 4.675,-1.587 7.328,-1.893 4.389,-0.505 8.368,0.079 11.588,-3.283 -4.075,1.872 -8.372,2.104 -12.764,2.558 -3.241,0.336 -6.156,1.606 -9.21,2.586 0.247,-0.531 0.861,-1.061 1.398,-1.346 -1.374,0.079 -2.813,0.748 -4.226,0.63 -0.341,-2.922 7.4,-4.286 9.432,-4.932 3.255,-1.035 6.314,-3.92 10.114,-4.981 -5.065,-0.038 -9.942,3.16 -14.6,4.997 -2.774,1.095 -8.204,2.512 -9.218,5.632 0.46,-0.158 0.921,-0.102 1.382,-0.423 -0.328,0.877 -0.753,1.84 -1.807,2.052 0.125,0.02 0.236,0.073 0.33,0.16 -0.674,0.857 -4.792,3.573 -5.403,1.561 -0.35,-1.156 2.153,-2.156 1.941,-3.503 1.231,-0.396 4.167,-1.372 3.741,-3.097 -2.895,0.219 -5.328,2.934 -8.198,3.066 3.893,-2.13 8.146,-4.904 11.96,-6.604 -3.981,-0.277 -9.696,4.023 -12.725,6.359 -1.469,1.132 -4.045,4.283 -6.125,3.987 0.073,-1.165 0.438,-3.32 1.211,-4.245 1.422,-1.7 4.538,-1.668 6.31,-3.268 1.313,-1.186 1.666,-2.259 3.341,-3.118 2.655,-1.362 5.477,-2.567 8.232,-3.727 -0.647,-0.272 -1.063,-0.794 -1.182,-1.485 -1.216,0.417 -2.153,1.41 -3.447,1.636 0.599,-0.366 0.594,-0.932 0.861,-1.352 -2.559,0.586 -1.475,-2.782 0.029,-3.266 -1.336,0.874 -2.936,2.212 -4.398,2.737 0.363,-2.414 3.151,-3.682 2.706,-6.345 -0.417,0.201 -0.944,0.271 -1.324,0.607 0.488,-0.345 0.885,-0.883 1.307,-1.3 -1.909,-0.809 -5.293,1.861 -6.572,3 -2.645,2.354 -6.915,6.124 -8.034,9.5 1.724,-1.508 5.056,-4.063 7.511,-4.241 -0.847,0.944 -2.31,1.829 -2.042,3.257 1.987,0.122 4.161,-1.253 6.129,-1.608 -0.775,1.545 -3.778,2.67 -5.142,3.964 1.592,0.96 -3.934,4.041 -5.194,3.902 -2.133,-0.233 -0.716,-2.047 -0.109,-3.598 -0.317,0.168 -1.09,0.23 -1.442,0.436 0.019,-0.168 -0.01,-0.436 0.013,-0.664 -0.797,0.076 -1.643,0.218 -2.329,0.677 0.519,1.07 -0.452,1.779 -0.759,2.807 -1.567,0.232 -0.918,-2.579 -0.889,-3.662 -0.881,0.192 -0.98,-0.831 -1.195,-1.673 -1.07,1.907 -2.683,0.89 -3.085,2.568 -0.805,3.35 1.444,7.152 -0.238,10.624 -0.674,-0.979 -0.412,-2.168 -0.463,-3.451 -0.047,-1.231 -0.254,-2.434 -0.305,-3.665 -0.029,-0.738 0.521,-2.471 0.334,-3.046 -0.242,-0.756 -3.214,-3.597 -0.307,-3.845 0.018,-0.276 0.082,-0.603 0.071,-0.877 3.204,-0.107 -0.052,-6.938 0.94,-8.458 -1.707,0.754 -3.322,1.686 -5.236,1.968 -1.847,0.274 -1.768,-0.046 -3.057,-1.307 1.649,0.025 1.607,-1.296 0.536,-2.125 0.723,-0.788 -0.261,-1.427 -0.799,-2.175 -1.222,-1.702 -0.822,-1.74 -0.646,-3.766 0.576,1.491 -0.104,5.488 -0.512,7.134 -0.502,2.022 -2.506,3.135 -3.264,5.274 -1.25,3.534 -1.27,9.22 0.365,12.412 1.088,2.126 -0.133,4.024 0.047,6.166 0.2,2.373 1.918,1.702 4.016,2.105 2.08,0.399 4.035,1.542 6.152,1.905 2.27,0.388 4.613,0.2 6.881,0.256 2.369,0.061 4.707,0.456 7.062,0.697 2.971,0.302 3.485,-0.051 5.923,-1.49 z"
   id="path236" />
		<path
   fill="#d8d9da"
   d="m 432.334,120.271 c -1.531,0.24 -2.524,1.73 -4.171,1.687 0.688,2.036 -4.282,4.716 -5.946,5.424 1.294,2.64 -5.301,6.368 -6.886,7.962 1.549,-0.778 4.111,-1.815 5.818,-1.777 -0.297,0.183 -0.542,0.461 -0.782,0.641 1.806,-0.263 3.835,-2.058 5.595,-1.429 -0.78,1.378 -5.919,2.687 -5.496,4.494 0.257,1.096 2.645,0.307 3.095,2.131 -0.218,0.055 -0.437,0.153 -0.627,0.207 4.967,1.19 -0.938,8.216 -1.943,10.172 3.06,-2.335 4.588,-5.804 6.907,-8.663 0.673,0.33 4.117,-0.572 4.613,-1.503 0.673,-1.264 -1.432,-1.69 -2.051,-2.74 1.443,-0.37 4.467,-1.077 2.855,-3.057 0.654,-0.56 1.339,-1.085 1.344,-1.912 -1.591,-0.846 -4.807,-1.822 -4.945,-4.075 -0.063,-1.032 1.133,-1.737 1.502,-2.532 0.623,-1.338 -0.101,-1.694 0.208,-3.099 0.307,0.122 1.034,0.021 1.348,0.17 0.188,-0.905 -0.152,-1.903 -0.911,-2.335"
   id="path237" />
		<path
   fill="#d8d9da"
   d="m 407.25,104.18 c -0.883,-0.5 -1.622,-0.209 -2.095,0.533 0.615,1.059 -0.722,1.744 -1.436,2.264 0.265,-0.103 0.846,-0.088 1.133,-0.164 -0.512,3.688 -2.605,5.282 -5.178,7.523 3.028,-1.007 5.555,-4.08 8.036,-5.844 -0.553,0.065 -1.111,-0.266 -1.631,-0.337 0.205,-0.695 0.546,-1.352 0.837,-2.054 -0.148,0.049 -0.471,0.122 -0.589,0.165 0.581,-0.776 1.754,-1.312 2.582,-1.562 -0.576,0.01 -1.535,-0.2 -1.66,-0.288"
   id="path238" />
		<path
   fill="#d8d9da"
   d="m 413.875,107.967 c -0.892,0.761 -2.07,1.31 -2.854,2.099 0.937,-0.099 2.051,-0.146 2.113,0.936 -1.328,0.459 -2.067,1.46 -2.134,2.845 -1.978,-0.398 -2.958,2.71 -4.461,3.78 -4.441,3.16 -9.845,6.155 -13.938,9.935 4.476,-3.322 9.242,-6.256 13.858,-9.377 1.061,-0.717 3.81,-3.855 5.036,-2.415 0.287,-0.627 0.767,-1.068 1.409,-1.218 -0.771,-1.505 0.688,-1.633 1.854,-1.872 -0.118,0.054 -0.235,0.105 -0.354,0.157 0.776,-0.24 1.464,-0.51 2.243,-0.409 -0.122,3.269 5.175,-1.769 -0.13,-2.143 0.189,-0.135 0.52,-0.793 0.656,-0.911 -0.957,-0.511 -2.283,-0.867 -3.063,-1.408"
   id="path239" />
		<path
   fill="#d8d9da"
   d="m 381.928,99.447 c -0.315,-0.179 -0.649,-0.252 -1.002,-0.22 -0.274,1.286 1.949,0.497 2.893,0.913 -0.261,0.945 -1.254,1.3 -1.888,1.879 1.542,-0.338 2.44,-1.649 3.79,-2.234 1.067,-0.462 2.154,-0.283 3.292,-0.392 -0.907,-0.352 -2.378,-0.721 -3.509,-0.939 -0.641,-1.643 -3.76,0.082 -4.759,0.756"
   id="path240" />
		<path
   fill="#d8d9da"
   d="m 358.975,107.729 c -2.921,0.517 -6.75,5.3 -7.429,7.783 1.016,-1.066 2.185,-2.388 3.592,-2.798 -0.334,0.308 -0.607,0.801 -0.879,1.085 0.205,-0.119 0.442,-0.217 0.657,-0.321 -0.089,0.365 0.14,0.941 0.071,1.313 0.236,0.077 0.881,0.178 1.118,0.156 -0.046,-0.01 -0.085,0.01 -0.114,0.063 2.008,-0.805 3.756,-3.783 6.217,-4.462 -0.57,0.726 -1.455,1.245 -1.533,2.127 0.244,-0.051 0.623,-0.113 0.863,-0.172 0.029,0.13 0.055,0.261 0.074,0.392 0.563,-0.037 1.1,0.089 1.637,-0.177 0.663,1.081 -0.467,1.629 -0.975,2.549 -0.744,1.346 -1.203,2.933 -1.186,4.48 0.983,-1.998 2.599,-4.143 4.444,-5.388 -0.343,0.422 -0.39,0.935 -0.588,1.351 0.759,-0.326 1.516,-0.703 2.315,-0.867 -1.188,1.511 0.214,1.649 1.34,2.105 -0.373,0.905 0.223,1.323 1.146,1.065 -0.36,1.376 -1.205,2.727 -1.305,4.136 1.177,-0.568 2.243,-2.37 3.306,-3.303 1.094,-0.96 2.27,-1.93 3.541,-2.609 2.044,-1.093 3.207,-1.968 -0.423,-1.545 1.882,-1.719 -0.324,-1.589 -1.603,-1.296 1.394,-1.669 3.072,-3.182 4.581,-4.746 -2.318,0.829 -5.857,3.415 -8.16,2.84 0.723,-0.831 1.899,-1.506 2.035,-2.556 -0.948,0.58 -1.906,1.407 -2.999,1.841 -1.086,-1.154 0.677,-2.544 1.301,-3.555 -2.012,1.314 -3.614,3.205 -5.847,3.593 -0.769,0.133 -1.699,-0.069 -2.568,0.201 0.072,-0.208 0.109,-0.448 0.184,-0.658 -1.197,0.237 -1.802,1.369 -3.017,1.609 -0.202,-0.988 0.473,-1.78 0.839,-2.513 -0.307,0.251 -0.803,0.439 -1.097,0.642 0.294,-1.018 1.869,-2.177 0.74,-3.072 -0.833,0.593 -1.589,1.282 -2.411,1.891"
   id="path241" />
		<path
   fill="#d8d9da"
   d="m 410.8,196.944 c -0.113,-1.704 -0.84,-0.577 -0.899,0.521 -0.072,1.354 0.708,2.939 0.668,4.383 -0.908,-4.514 -5.644,-11.082 0.199,-14.352 -0.509,1.443 -1.138,3.091 -1.159,4.636 -0.012,0.908 0.727,3.564 1.772,1.73 -3.699,1.671 2.252,4.146 2.708,5.63 -0.357,-1.162 -0.964,-2.424 -1.833,-3.322 0.756,-0.33 1.377,-0.996 1.183,-2.049 1.063,0.404 1.847,1.446 2.589,2.277 -0.34,-1.037 -0.767,-2.195 -0.932,-3.223 0.119,0.139 0.492,0.396 0.685,0.607 -0.084,-0.341 0.071,-0.743 0.025,-1.063 1.965,-0.396 2.389,2.805 3.478,3.725 -0.445,-1.386 -1.278,-2.83 -1.585,-4.192 1.771,-0.973 3.216,1.494 4.193,2.548 -0.309,-1.207 -3.981,-3.134 -1.822,-4.677 1.545,-1.104 2.563,1.551 3.472,2.234 -0.43,-0.545 -2.391,-3.487 -1.819,-4.187 1.228,-1.504 2.978,2.471 3.53,3.017 0.007,-0.205 -0.003,-0.367 0.036,-0.564 0.165,0.377 0.423,0.671 0.609,1.037 0.192,-1.734 -1.111,-3.419 -0.392,-5.099 1.143,0.263 2.007,2.459 2.096,3.684 0.004,-0.895 -0.077,-5.514 1.669,-3.796 0.228,-0.691 0.551,-1.549 0.68,-2.265 1.468,0.513 0.975,3.577 1.45,4.883 0.039,-0.842 -1.08,-6.7 0.934,-4.985 0.134,-0.418 0.604,-0.678 0.757,-1.063 1.734,0.491 1.117,2.307 0.931,3.635 0.387,-0.552 0.76,-1.128 1.098,-1.7 0.035,0.148 0.112,0.324 0.202,0.449 -2.124,1.701 -0.611,4.118 -2.226,5.595 -0.136,-0.32 -0.345,-0.447 -0.478,-0.655 0.01,2.68 -3.242,2.385 -3.603,4.637 -0.089,-1.694 1.438,-2.93 1.141,-4.643 -0.643,0.609 -1.338,1.438 -2.008,2.088 0.051,-0.064 0.302,-0.313 0.382,-0.422 -0.664,0.136 -1.3,0.578 -1.84,0.9 -0.025,-0.223 -0.064,-0.45 -0.071,-0.674 -1.979,1.067 -1.394,2.033 -1.425,3.932 -0.488,-0.55 -0.771,-1.241 -0.895,-1.974 -0.897,0.344 -1.196,0.057 -1.909,0.864 -0.577,0.655 0.292,1.346 -0.706,2.113 -0.204,-0.111 -0.254,-0.223 -0.472,-0.382 -0.127,0.301 -0.566,0.661 -0.717,0.905 -0.105,-0.155 -0.364,-0.384 -0.462,-0.542 -0.428,0.511 -0.65,1.209 -1.004,1.845 -0.187,-0.439 -0.411,-0.328 -0.416,-1.028 -0.173,0.88 -0.593,1.634 -0.278,2.452 -0.716,-1.235 -1.443,-2.698 -1.195,-4.119 -1.396,2.324 0.214,4.042 -2.774,4.902 0.04,0.224 0.139,0.221 0.197,0.413 -0.526,0.559 -5.044,-0.195 -3.018,1.793 1.124,1.105 4.618,-0.007 5.868,-0.36 2.002,-0.567 3.366,-1.926 5.225,-2.733 1.46,-0.634 2.981,-0.75 4.489,-1.289 3.628,-1.297 6.273,-4.038 8.979,-6.625 1.768,-1.692 2.874,-2.133 5.053,-3.03 1.443,-0.595 0.717,-0.155 1.825,-1.438 0.633,-0.735 1.279,-1.061 1.632,-2.069 -1.304,-0.261 -2.896,0.862 -4.379,0.627 0.065,-0.104 0.104,-0.215 0.115,-0.335 -1.911,0.653 -1.05,-3.521 -1.197,-4.516 -1.751,1.606 0.422,5.831 -2.048,7.002 -0.274,-0.852 -0.969,-0.722 -1.674,-0.236 0.759,-2.136 0.521,-5.104 2.508,-6.79 -0.938,-0.499 -2.169,-0.604 -3.201,-0.798 -0.025,-0.131 -0.053,-0.263 -0.08,-0.394 -1.317,-0.258 -1.939,0.676 -3.036,0.91 -0.977,0.209 -1.919,-0.263 -2.839,0.286 -2.171,1.296 -0.516,3.493 -3.497,1.386 -0.754,0.991 -0.909,1.84 -1.711,2.583 -1.019,0.947 -2.336,0.624 -3.323,1.173 -1.341,0.745 -0.682,1.56 -1.634,2.146 -0.264,0.162 -1.533,0.147 -1.863,0.221 0.261,-0.059 -0.8,1.002 -0.739,0.935 -0.242,-0.301 -0.806,-0.484 -0.975,-0.667 -0.238,0.479 -0.191,1.406 -0.458,1.826 -0.417,0.656 -0.698,0.535 -1.365,1.054 -0.733,0.568 -1.581,0.691 -2.196,1.139"
   id="path242" />
		<linearGradient
   id="XMLID_19_"
   gradientUnits="userSpaceOnUse"
   x1="447.85791"
   y1="175.64751"
   x2="450.5708"
   y2="175.64751">
			<stop
   offset="0"
   style="stop-color:#FFFFFF"
   id="stop242" />
			<stop
   offset="0.1046"
   style="stop-color:#FAFAFA"
   id="stop243" />
			<stop
   offset="0.2282"
   style="stop-color:#ECECEC"
   id="stop244" />
			<stop
   offset="0.3616"
   style="stop-color:#D4D4D4"
   id="stop245" />
			<stop
   offset="0.5018"
   style="stop-color:#B2B2B2"
   id="stop246" />
			<stop
   offset="0.6474"
   style="stop-color:#888888"
   id="stop247" />
			<stop
   offset="0.7976"
   style="stop-color:#535353"
   id="stop248" />
			<stop
   offset="0.9487"
   style="stop-color:#161616"
   id="stop249" />
			<stop
   offset="1"
   style="stop-color:#000000"
   id="stop250" />
		</linearGradient>
		<path
   fill="url(#XMLID_19_)"
   d="m 448.428,177.271 c 2.388,0.348 3.061,-4.667 0.562,-2.877 -0.548,0.392 -1.893,2.683 -0.562,2.877 z"
   id="path250"
   style="fill:url(#XMLID_19_)" />
		<path
   fill="#bcbec0"
   d="m 377.904,159.372 c -0.346,0.737 -8.461,-1.191 -9.2,-1.516 0.593,-1.155 2.108,-1.579 3,-2.483 -2.075,0.622 -4.225,1.835 -6.562,1.543 0.487,-1.96 0.189,-3.74 1.333,-5.965 -0.485,0.688 -0.847,1.457 -1.325,2.134 0.002,0.003 -0.707,2.221 -1.377,2.695 -1.498,1.063 -0.918,0.375 -1.954,-0.498 -1.075,-0.905 -2.06,-1.22 -3.382,-1.662 -0.578,-0.194 -0.822,0.671 -1.324,0.003 -0.396,-0.526 0.311,-2.024 0.438,-2.571 -0.252,0.324 -0.91,0.803 -1.148,1.18 -0.188,-1.535 0.17,-3.203 0.466,-4.708 -0.512,1.519 -1.062,4.001 -2.405,4.914 -0.77,-0.946 -0.325,-2.367 -0.688,-3.475 -0.14,-0.058 -0.244,-0.02 -0.312,0.114 -0.812,-2.699 0.564,-6.151 0.5,-8.953 -1.255,1.88 -1.576,4.629 -1.65,6.854 -1.133,-1.556 -1.21,-3.422 -1.362,-5.262 -0.044,-0.544 -0.616,-4.19 -0.491,-4.337 -0.4,0.47 -0.615,1.165 -0.705,1.766 0.066,-0.446 0.205,-0.859 -0.297,-0.718 -2.645,3.338 4.307,12.569 2.458,17.84 1.301,1.072 2.944,0.865 4.469,1.396 2.239,0.779 3.878,1.595 6.142,1.879 4.937,0.62 9.778,0.351 14.631,0.93 0.137,-0.152 0.664,-0.929 0.745,-1.1 z"
   id="path251" />
		<path
   fill="#bcbec0"
   d="m 403.227,165.944 c 1.722,-0.455 3.25,2.038 3.313,3.49 0.05,-0.773 0.05,-1.546 -0.16,-2.275 0.719,0.082 1.351,0.437 1.971,0.884 -0.397,-0.515 -0.638,-1.13 -0.542,-1.773 1.385,0.32 3.762,1.06 5.077,0.372 -2.586,0.164 -5.485,-0.484 -8.017,-0.992 -0.989,-0.198 -2.246,-0.905 -3.062,-0.415"
   id="path252" />
		<path
   fill="#bcbec0"
   d="m 422.16,162.632 c 2.121,-1.033 4.739,-0.688 7.012,-1.838 2.26,-1.145 4.279,-2.887 5.334,-5.232 0.897,0.319 1.813,0.633 2.708,0.905 -0.812,1.112 -2.152,2.353 -3.19,3.053 0.389,-0.304 1.48,-0.765 1.652,0.029 0.153,0.71 -3.052,1.647 -3.584,1.886 -3.452,1.547 -6.007,1.151 -9.696,0.959"
   id="path253" />
		<path
   fill="#bcbec0"
   d="m 413.64,203.098 c 1.736,-0.706 3.983,0.561 5.862,-0.048 1.136,-0.368 1.799,-1.432 2.715,-2.023 2.064,-1.331 4.72,-0.64 7.027,-1.998 2.337,-1.374 4.092,-3.83 5.943,-5.563 1.457,-1.364 5.876,-5.16 7.777,-4.373 -1.467,-2.411 -3.891,0.864 -5.481,1.611 -0.304,-0.268 -0.549,-0.166 -0.717,-0.24 -0.111,-0.181 -0.241,-0.359 -0.346,-0.547 -0.489,0.563 -0.847,1.223 -1.027,1.946 -0.029,-0.133 -0.026,-0.388 -0.03,-0.528 -0.974,1.48 -1.75,4.453 -3.934,4.408 -0.172,-0.622 -0.369,-0.919 -0.143,-1.532 -0.082,0.624 -0.293,1.186 -0.616,1.723 -0.103,-0.186 -0.198,-0.406 -0.295,-0.593 -0.43,3.206 -3.335,4.103 -3.483,0.253 -0.006,1.1 0.194,2.23 -0.298,3.221 -0.138,0.059 -0.208,-0.161 -0.354,-0.179 -0.056,0.258 -0.264,0.55 -0.332,0.876 -0.944,-0.328 -2.458,0.124 -3,-0.846 0.194,1.588 -2.112,1.821 -3.275,2.538 -1.421,0.874 -2.88,1.395 -4.54,0.976 -0.064,1.012 -1.084,1.126 -1.929,0.918"
   id="path254" />
		<path
   fill="#bcbec0"
   d="m 392.578,175.41 c -1.92,1.519 -2.506,6.03 -2.554,8.259 3.082,-1.267 2.785,4.001 2.891,5.709 0.168,0.188 0.389,0.332 0.564,0.455 0.145,-1.403 0.651,-2.725 0.519,-4.175 0.063,1.066 0.04,2.895 0.251,3.568 -0.054,0.217 -0.07,0.558 -0.03,0.776 0.033,0.022 0.913,0.286 1.152,0.289 0.549,-1.163 0.677,-2.493 1.007,-3.732 -0.024,1.149 -0.081,2.347 0.041,3.474 0.054,-0.189 0.171,-0.437 0.241,-0.644 0.154,0.681 0.875,1.126 1.598,1.193 0.396,-0.518 0.701,-1.261 1.147,-1.849 -0.232,0.701 -0.456,1.415 -0.21,2.044 0.754,-0.608 1.547,0.033 1.943,-0.904 0.805,0.266 1.69,0.269 2.549,0.161 -1.548,-1.103 -2.716,-1.266 -2.643,-3.679 -0.438,1.098 -0.383,2.31 -0.697,3.456 -0.217,0.001 -0.414,0.014 -0.634,-0.005 -0.093,-1.207 0.011,-2.474 -0.071,-3.678 -0.294,0.433 -0.837,0.824 -1.106,1.276 0.155,-0.771 0.105,-1.674 -0.711,-1.856 -0.341,-1.263 -0.208,-3.318 -1.467,-4.022 -0.138,0.149 -0.301,0.309 -0.459,0.486 -1.405,-0.64 -0.466,-2.42 -1.369,-3.255 -0.133,0.119 -0.221,0.283 -0.354,0.401 -1.693,-0.59 -1.815,-2.724 -1.833,-3.75"
   id="path255" />
		<path
   fill="#bcbec0"
   d="m 395.892,191.502 c -0.322,0.188 -0.643,0.374 -0.964,0.56 2.009,-0.007 3.065,0.509 1.889,2.918 0.823,-1.191 2.358,-1.921 3.085,-3.193 -1.388,-0.548 -3.665,-0.248 -4.484,-0.284"
   id="path256" />
		<path
   fill="#d8d9da"
   d="m 395.18,197.598 c 0.819,-0.963 2.725,-2.316 2.707,-3.708 -0.032,-2.423 -2.061,-1.107 -2.862,-1.677 2.229,1.581 -1.949,6.42 -2.854,7.86 -1.069,1.703 -1.366,3.198 -1.923,5.105 1.204,-2.741 2.991,-5.298 4.932,-7.58 z"
   id="path257" />
		<path
   fill="#bcbec0"
   d="m 402.333,189.203 c 0.825,1.266 2.212,1.125 3.445,0.581 -0.097,-1.262 -1.245,-0.523 -1.372,-0.75 -0.353,-0.626 -0.425,-2.419 -1.227,-2.69 -1.684,-0.573 -1.395,2.018 -0.846,2.859 z"
   id="path258" />
		<path
   fill="#bcbec0"
   d="m 395.92,170.399 c 1.508,0.451 -0.394,3.412 -0.761,4.453 0.546,-0.581 1.031,-1.243 1.578,-1.802 -0.368,1.552 0.199,2.346 0.142,3.766 0.13,-0.171 0.688,-0.476 0.853,-0.673 0.079,0.419 0.434,0.696 0.526,0.956 0.329,-0.431 0.729,-0.789 0.75,-1.45 1.882,1.989 3.218,4.257 3.549,7.042 0.434,-0.672 0.564,-1.495 0.842,-2.241 0.109,0.338 0.423,0.676 0.538,1.04 0.087,-0.286 0.321,-0.542 0.41,-0.807 0.68,0.945 1.192,2.253 1.234,3.415 0.985,-2.577 0.277,-6.562 -0.373,-9.159 0.341,0.497 0.843,1.044 1.289,1.392 -0.485,-1.794 -1.39,-3.792 -1.827,-5.682 1.238,-0.11 2.642,1.499 3.673,2.139 -0.621,-0.385 -1.394,-2.604 -2.018,-3.278 -0.732,-0.793 -1.622,-1.632 -2.663,-2.014 -1.523,-0.556 -3.208,-0.258 -4.678,0.314 -0.136,0.053 -3.82,2.363 -3.064,2.589 z"
   id="path259" />
		<linearGradient
   id="XMLID_20_"
   gradientUnits="userSpaceOnUse"
   x1="403.38229"
   y1="178.52341"
   x2="399.37109"
   y2="167.3044">
			<stop
   offset="0"
   style="stop-color:#808284"
   id="stop259" />
			<stop
   offset="0.1524"
   style="stop-color:#7B7D7F"
   id="stop260" />
			<stop
   offset="0.3326"
   style="stop-color:#6D6F71"
   id="stop261" />
			<stop
   offset="0.5268"
   style="stop-color:#565859"
   id="stop262" />
			<stop
   offset="0.7309"
   style="stop-color:#363738"
   id="stop263" />
			<stop
   offset="0.9407"
   style="stop-color:#0D0D0D"
   id="stop264" />
			<stop
   offset="1"
   style="stop-color:#000000"
   id="stop265" />
		</linearGradient>
		<path
   fill="url(#XMLID_20_)"
   d="m 400.625,166.417 c -1.053,-0.047 -2.255,0.154 -2.809,0.965 0.204,0.025 0.365,0.004 0.637,0.011 0,0.013 0.044,0.685 0.006,0.642 -1.319,0.371 -1.657,1.846 -2.069,3.051 0.26,-0.245 0.676,-0.445 0.885,-0.626 -0.053,0.372 -0.044,0.546 -0.176,0.893 0.195,-0.049 0.452,-0.216 0.655,-0.179 -0.777,1.853 0.167,3.141 -0.342,5.165 0.14,-0.282 0.636,-0.684 0.786,-0.909 0.106,0.569 0.496,1.205 0.711,1.619 0.425,-0.655 0.727,-1.572 1,-2.15 1.287,1.358 2.474,3.762 2.846,5.657 0.023,-0.675 0.192,-1.361 0.461,-1.971 0.613,0.474 0.908,1.253 1.265,1.98 0.355,-1.165 0.515,-3.593 -0.211,-4.71 0.078,0.028 0.564,0.22 0.591,0.235 -0.417,-0.793 -2.293,-1.601 -0.951,-2.389 -0.488,-1.13 0.39,-2.186 -0.12,-3.328 0.599,-0.232 1.315,0.063 1.776,0.503 -0.315,-0.561 -0.801,-1.269 -1.136,-1.837 0.248,0.139 0.66,0.284 0.903,0.424 -0.935,-1.96 -3.886,-2.786 -5.892,-2.809"
   id="path265"
   style="fill:url(#XMLID_20_)" />
		<path
   fill="none"
   stroke="#000000"
   stroke-width="0.426"
   d="m 409.143,166.654 c -1.404,0.055 -3.399,0.071 -4.667,-0.497 1.278,0.896 2.79,1.95 3.57,3.342 0.241,0.431 1.022,4.171 1.31,4.218 -0.325,-0.053 -0.801,0.127 -1.122,0.071 -0.033,1.167 0.635,2.261 0.402,3.483 -0.198,-0.032 -0.422,-0.077 -0.641,-0.124 0.136,0.028 -0.316,6.455 -0.406,6.988 -0.207,1.226 -0.53,2.28 -1.212,3.322 -1.043,1.594 -1.551,1.398 -0.393,3.534 -0.824,0.059 -2.266,0.373 -2.999,0.237 -1.045,-0.193 -1.659,-1.819 -2.427,0.017 -1.393,-1.401 -4.286,0.918 -5.201,-1.076 -0.449,0.596 -0.717,0.218 -1.36,0.384"
   id="path266" />
		<path
   fill="none"
   stroke="#000000"
   stroke-width="0.426"
   d="m 426.182,161.447 c 2.775,-0.087 8.369,-3.142 8.991,-6.152"
   id="path267" />
		<path
   fill="none"
   stroke="#000000"
   stroke-width="0.426"
   d="m 449.847,174.464 c 0.331,-0.08 0.606,-0.008 0.827,0.219 0.007,1.472 -1.572,2.856 -2.917,2.822 0.031,-0.343 -0.167,-0.279 -0.277,-0.438"
   id="path268" />
	</g>
	<linearGradient
   id="XMLID_21_"
   gradientUnits="userSpaceOnUse"
   x1="96.611801"
   y1="256.2207"
   x2="96.003899"
   y2="258.95709">
		<stop
   offset="0"
   style="stop-color:#FFFFFF"
   id="stop268" />
		<stop
   offset="0.1046"
   style="stop-color:#FAFAFA"
   id="stop269" />
		<stop
   offset="0.2282"
   style="stop-color:#ECECEC"
   id="stop270" />
		<stop
   offset="0.3616"
   style="stop-color:#D4D4D4"
   id="stop271" />
		<stop
   offset="0.5018"
   style="stop-color:#B2B2B2"
   id="stop272" />
		<stop
   offset="0.6474"
   style="stop-color:#888888"
   id="stop273" />
		<stop
   offset="0.7976"
   style="stop-color:#535353"
   id="stop274" />
		<stop
   offset="0.9487"
   style="stop-color:#161616"
   id="stop275" />
		<stop
   offset="1"
   style="stop-color:#000000"
   id="stop276" />
	</linearGradient>
	
	
		<linearGradient
   id="XMLID_22_"
   gradientUnits="userSpaceOnUse"
   x1="135.95461"
   y1="232.63229"
   x2="135.19611"
   y2="236.0464"
   gradientTransform="matrix(0.9824,-0.1867,0.1867,0.9824,-11.894,52.1387)">
		<stop
   offset="0"
   style="stop-color:#FFFFFF"
   id="stop277" />
		<stop
   offset="0.1046"
   style="stop-color:#FAFAFA"
   id="stop278" />
		<stop
   offset="0.2282"
   style="stop-color:#ECECEC"
   id="stop279" />
		<stop
   offset="0.3616"
   style="stop-color:#D4D4D4"
   id="stop280" />
		<stop
   offset="0.5018"
   style="stop-color:#B2B2B2"
   id="stop281" />
		<stop
   offset="0.6474"
   style="stop-color:#888888"
   id="stop282" />
		<stop
   offset="0.7976"
   style="stop-color:#535353"
   id="stop283" />
		<stop
   offset="0.9487"
   style="stop-color:#161616"
   id="stop284" />
		<stop
   offset="1"
   style="stop-color:#000000"
   id="stop285" />
	</linearGradient>
	
</g>
</svg>
