<?xml version="1.0" encoding="UTF-8" standalone="no"?>
<!-- Generator: Adobe Illustrator 12.0.0, SVG Export Plug-In . SVG Version: 6.00 Build 51448)  -->

<svg
   version="1.1"
   id="Layer_1"
   width="468.82397"
   height="259.53882"
   viewBox="0 0 468.82399 259.53882"
   overflow="visible"
   enable-background="new 0 0 536.764 308.853"
   xml:space="preserve"
   sodipodi:docname="skull_bones_zygomaticum.svg"
   inkscape:version="1.4.2 (f4327f4, 2025-05-13)"
   xmlns:inkscape="http://www.inkscape.org/namespaces/inkscape"
   xmlns:sodipodi="http://sodipodi.sourceforge.net/DTD/sodipodi-0.dtd"
   xmlns="http://www.w3.org/2000/svg"
   xmlns:svg="http://www.w3.org/2000/svg"><defs
   id="defs285" /><sodipodi:namedview
   id="namedview285"
   pagecolor="#ffffff"
   bordercolor="#000000"
   borderopacity="0.25"
   inkscape:showpageshadow="2"
   inkscape:pageopacity="0.0"
   inkscape:pagecheckerboard="0"
   inkscape:deskcolor="#d1d1d1"
   inkscape:zoom="1.8892483"
   inkscape:cx="10.586221"
   inkscape:cy="157.99935"
   inkscape:window-width="1920"
   inkscape:window-height="1009"
   inkscape:window-x="-8"
   inkscape:window-y="148"
   inkscape:window-maximized="1"
   inkscape:current-layer="g285" />

<g
   id="g285"
   transform="translate(-41.875033,-17.411481)">
	
	
	
	
	
	<linearGradient
   id="XMLID_12_"
   gradientUnits="userSpaceOnUse"
   x1="129.3521"
   y1="200.709"
   x2="129.02721"
   y2="171.1463">
		<stop
   offset="0"
   style="stop-color:#FFFFFF"
   id="stop37" />
		<stop
   offset="0.3483"
   style="stop-color:#BCBEC0"
   id="stop38" />
		<stop
   offset="0.4466"
   style="stop-color:#B8BABC"
   id="stop39" />
		<stop
   offset="0.541"
   style="stop-color:#ADAFB1"
   id="stop40" />
		<stop
   offset="0.6338"
   style="stop-color:#9A9C9D"
   id="stop41" />
		<stop
   offset="0.7257"
   style="stop-color:#7F8182"
   id="stop42" />
		<stop
   offset="0.817"
   style="stop-color:#5D5E5F"
   id="stop43" />
		<stop
   offset="0.9078"
   style="stop-color:#333334"
   id="stop44" />
		<stop
   offset="0.9965"
   style="stop-color:#020202"
   id="stop45" />
		<stop
   offset="1"
   style="stop-color:#000000"
   id="stop46" />
	</linearGradient>
	
	
	
	
	<linearGradient
   id="XMLID_15_"
   gradientUnits="userSpaceOnUse"
   x1="166.7222"
   y1="106.3491"
   x2="167.5948"
   y2="109.1841">
		<stop
   offset="0"
   style="stop-color:#F4D58D"
   id="stop77" />
		<stop
   offset="0.1072"
   style="stop-color:#EFD18A"
   id="stop78" />
		<stop
   offset="0.2341"
   style="stop-color:#E1C482"
   id="stop79" />
		<stop
   offset="0.3708"
   style="stop-color:#C9AF74"
   id="stop80" />
		<stop
   offset="0.5146"
   style="stop-color:#A79261"
   id="stop81" />
		<stop
   offset="0.6639"
   style="stop-color:#7D6D48"
   id="stop82" />
		<stop
   offset="0.8179"
   style="stop-color:#483F2A"
   id="stop83" />
		<stop
   offset="0.9728"
   style="stop-color:#0B0A07"
   id="stop84" />
		<stop
   offset="1"
   style="stop-color:#000000"
   id="stop85" />
	</linearGradient>
	
	
	
	
	
	
	
	<g
   id="g97">
		<path
   fill="#ffffff"
   stroke="#000000"
   stroke-width="0.7797"
   d="m 79.38,146.281 c -0.467,-0.276 -0.963,-0.537 -1.583,-0.812 -0.539,-0.239 -2.235,-0.952 -2.549,-1.436 -0.529,-0.819 0.874,-1.348 0.57,-1.894 -0.716,-1.285 -2.698,-1.76 -3.813,-2.64 -0.716,-0.565 -0.754,-2.048 -1.226,-2.364 -0.742,-0.492 -1.769,-0.032 -2.578,-0.476 -0.911,-0.499 -1.309,-1.408 -1.914,-2.142 -1.523,-1.853 -2.835,-4.002 -4.5,-5.789 -1.218,-1.305 -2.562,-2.048 -3.021,-3.904 -0.085,-0.342 -4.467,6.363 -4.806,7.27 -1.375,3.678 -2.494,7.782 -1.986,11.735 0.25,1.938 0.621,2.984 0.646,4.846 0.04,3.232 1.925,7.008 1.249,10.106 -0.975,-1.955 -2.539,0.304 -3.882,0.263 -0.628,-0.02 -4.788,-2.564 -4.67,-2.905 -0.842,2.457 -1.16,5.249 -1.788,7.691 3.519,1.366 6.965,11.629 8.687,14.829 1.546,2.876 4.332,10.164 6.95,11.658 2.313,-1.026 4.129,-0.209 6.46,-0.308 0.871,-4.301 4.464,-7.018 6.233,-10.86 -0.32,-0.369 -0.393,-0.211 -0.789,-0.476 0.228,-0.501 0.649,-1.31 0.778,-1.551 2.333,-1.291 6.803,-3.603 6.865,-6.583 -0.247,-0.049 -0.493,-0.098 -0.742,-0.148 0.628,-1.572 2.007,-2.828 1.655,-5.001 0.196,0.394 0.386,0.619 0.535,1.077 2.726,0.394 7.503,0.332 9.622,-1.113 1.511,-1.032 3.243,-2.683 3.722,-4.453 -1.866,-0.142 -3.085,1.815 -4.919,2.171 -1.629,0.316 -3.863,0.046 -5.501,-0.073 -0.461,-0.969 -0.836,-13.493 0.807,-12.91 -0.167,-0.059 -1.052,-0.315 -1.174,-0.155 0.214,-0.28 0.357,-0.913 0.603,-1.195 -2.071,0.304 -1.632,-0.931 -2.654,-1.627 -0.454,-0.307 -0.859,-0.577 -1.287,-0.831 z"
   id="path93" />
		<path
   fill="#d8d9da"
   d="m 55.871,139.644 c -2.058,2.766 -1.45,12.476 0.598,15.106 0.095,-0.104 0.212,-0.152 0.35,-0.144 -0.883,3.015 1.24,5.275 0.639,8.518 -1.331,7.208 2.891,12.669 4.177,19.499 -0.064,-0.03 -0.127,-0.059 -0.191,-0.086 0.013,1.113 0.01,2.226 0.025,3.339 -1.113,-3.728 -1.948,-7.385 -3.301,-11.082 -0.783,-2.141 -2.288,-4.35 -2.876,-6.499 -0.699,-2.556 -0.569,-6.292 -2.557,-8.48 0.736,0.641 1.263,0.512 2.147,0.579 -1.025,-1.789 -0.544,-4.252 -0.928,-6.146 -0.537,-2.641 -1.2,-4.855 -1.399,-7.535 -0.359,-4.867 -0.138,-9.148 2.106,-13.367 -0.674,1.268 1.893,5.16 2.133,6.452 -0.31,-0.036 -0.621,-0.081 -0.923,-0.154 z"
   id="path94" />
		<path
   fill="#d8d9da"
   d="m 61.781,158.154 c 1.209,0.195 2.05,0.914 2.467,2.009 -0.958,-2.748 -1.754,-5.35 -2.37,-8.202 -0.503,-2.335 -0.173,-5.727 -1.095,-7.746 0.098,4.757 0.37,9.041 1.325,13.611"
   id="path95" />
		<path
   fill="#d8d9da"
   d="m 68.645,166.98 c 3.835,2.503 8.569,2.685 12.975,2.599 -1.056,0.642 -2.224,1.338 -3.418,1.608 0.165,-0.038 -2.281,-1.002 -2.551,-1.054 -1.132,-0.215 -2.26,0.105 -3.411,-0.205 -2.391,-0.646 -4.855,-2.855 -5.555,-5.236"
   id="path96" />
		<path
   fill="#d8d9da"
   d="m 73.663,158.584 c -3.838,-3.977 -5.81,-9.191 -5.679,-14.711 0.444,2.519 4.703,4.902 6.753,6.476 -2.083,-1.6 -3.245,-4.092 -4.872,-6.084 -1.66,-2.035 -3.882,-4.118 -4.145,-6.931 -1.612,4.021 -2.393,9.266 -1.268,13.526 1.044,3.955 3.64,8.089 6.86,10.619 3.063,2.407 11.482,6.623 15.201,3.849 -2.722,2.031 -11.229,-5.066 -12.85,-6.744 z"
   id="path97" />
	</g>
	<g
   id="g103">
		<g
   id="g102">
			<path
   fill="#ffffff"
   stroke="#000000"
   stroke-width="0.7797"
   d="m 196.97,131.996 c -0.15,0.056 -0.294,0.117 -0.438,0.178 0.023,-0.01 -5.025,2.09 -3.418,2.746 -1.359,-0.556 -2.732,-1.371 -4.132,-2.234 -0.035,2.531 -1.468,3.694 -2.62,5.812 -0.239,0.439 -0.462,0.887 -0.676,1.344 -0.841,1.805 -1.875,4.098 -4.224,3.652 0.107,0.661 -0.237,1.567 -0.1,2.222 -0.472,-0.344 -1.452,-0.369 -1.861,-0.595 0.122,0.533 -0.199,1.333 -0.097,1.871 -2.694,0.595 -2.487,2.087 -2.867,4.349 -0.138,0.823 -0.033,2.462 -0.702,3.108 -0.193,0.186 -2.146,0.959 -1.875,0.47 -0.555,1.007 -1.313,1.73 -1.419,2.859 -0.925,0.061 -11.512,-1.65 -11.336,-2.523 -1.524,7.564 8.006,6.392 12.403,6.395 1.8,0.001 3.943,-0.652 5.674,0.018 1.9,0.734 4.109,2.794 5.938,3.923 -0.736,0.512 -1.417,1.253 -1.819,1.993 0.938,0 1.938,0.094 2.833,0.434 -1.367,1.211 -3.361,1.908 -3.136,3.888 0.079,0.72 1.847,0.893 1.635,2.542 0.301,0.021 0.6,0.06 0.899,0.114 -0.34,0.593 -1.542,2.859 -1.315,3.528 0.567,1.661 2.686,1.336 3.833,2.036 -0.133,0.17 -0.271,0.337 -0.414,0.5 1.788,1.445 2.414,4.255 1.556,6.331 1.788,-0.406 1.788,1.428 1.972,2.859 0.191,1.494 9.202,-4.631 9.78,-5.179 2.357,-2.236 3.583,-4.596 6.192,-6.53 3.406,-2.522 3.8,-3.931 4.579,-7.864 1.091,-5.498 4.766,-10.644 3.812,-16.34 -0.808,-4.839 -3.325,-3.659 -5.768,-1.96 -0.654,0.455 -0.948,1.271 -1.729,1.665 -0.958,0.482 -2.621,-0.021 -3.221,0.297 -1.179,0.63 -2.259,2.155 -3.202,3.5 2.493,-3.559 4.505,-9.038 4.622,-13.432 0.113,-4.189 0.383,-8.791 -0.689,-12.869 -0.235,-0.899 -1.568,-3.403 -0.431,-4.293 -1.088,0.853 -1.522,2.5 -2.71,3.212 -1.512,0.907 -3.78,1.296 -5.529,1.973 z"
   id="path98" />
			<path
   fill="#d8d9da"
   d="m 202.791,155.237 c 1.891,-5.989 4.437,-12.234 3.179,-18.701 -0.312,-1.595 -0.958,-3.209 -1.256,-4.771 -0.56,1.695 -0.662,2.76 -0.738,4.554 -0.225,5.25 -0.064,9.966 -2.042,14.795 -1.355,3.314 -2.326,6.703 -1.833,10.593 1.343,-0.427 2.498,-2.66 3.785,-3.563 2.019,-1.418 4.343,-1.614 6.869,-2.278 -2.534,-0.937 -5.302,0.305 -7.738,0.612 0.026,-0.289 0.166,-1.008 0.24,-1.217 -0.155,-0.081 -0.312,-0.089 -0.466,-0.024 z"
   id="path99" />
			<path
   fill="#d8d9da"
   d="m 197.43,185.938 c 1.764,-1.664 3.284,-3.857 4.183,-6.114 0.363,-0.905 0.797,-4.624 1.742,-4.928 3.22,-1.035 5.098,-4.591 5.848,-7.598 0.146,-0.58 -0.705,-0.842 -0.545,-1.292 0.248,-0.703 1.104,-1.047 1.521,-1.642 0.938,-1.348 2.221,-2.315 2.954,-3.83 -0.771,5.978 -0.848,14.612 -7.475,16.961 -0.373,3.9 -5.357,6.124 -7.9,8.442"
   id="path100" />
			<path
   fill="#d8d9da"
   d="m 198.737,151.291 c -3.466,8.584 -10.112,10.879 -17.975,13.916 4.63,-1.083 10.222,-3.015 14.116,-5.655 3.538,-2.397 2.291,-5.382 3.859,-8.261"
   id="path101" />
			<path
   fill="#d8d9da"
   d="m 200.246,138.284 c -0.554,2.534 -0.396,5.13 -0.48,7.18 0.677,-1.232 1.489,-2.807 1.602,-4.229 0.053,-0.685 -1.042,-3.315 -1.122,-2.951 z"
   id="path102" />
		</g>
		<path
   fill="#d8d9da"
   d="m 191.263,142.329 c -0.448,0.091 -0.884,0.055 -1.277,-0.158 -1.632,2.612 -5.194,5.701 -5.6,8.824 2.012,0.795 2.982,-2.822 4.843,-3.282 -2.959,9.257 -15.291,10.919 -23.087,12.74 3.011,-0.703 6.975,0.355 10.179,-0.078 4.678,-0.632 9.004,-3.433 12.725,-6.146 4.711,-3.435 6.129,-9.938 5.703,-15.475 -0.262,1.369 -1.926,3.255 -3.486,3.575 z"
   id="path103" />
	</g>
	
	
	
	
	
	
	
	
	
	
	
	
	
	
	
	
	<g
   id="g231">
		<path
   fill="#ffffff"
   stroke="#000000"
   stroke-width="0.426"
   d="m 333.087,145.158 c 0.647,-4.719 3.424,-9.239 -1.724,-12.909 -0.119,-2.35 -0.029,-11.41 -2.305,-13.075 -0.749,1.358 -0.83,3.148 -0.913,4.507 -1.691,-0.529 -3.334,-0.489 -4.005,-2.118 -1.329,0.025 -2.214,0.83 -2.773,2.143 -0.22,-0.409 -0.77,-1.014 -0.932,-1.335 -0.023,0.241 -0.544,1.264 -0.571,1.914 -0.699,-0.625 -1.711,-0.845 -2.397,-1.679 1.144,1.389 0.488,11.185 0.366,13.261 -0.274,4.681 -1.645,10.007 -3.907,14.141 -1.345,2.458 -3.16,4.495 -5.692,5.667 -1.942,0.898 -1.717,0.729 -3.902,0.841 -1.703,0.088 -2.238,-1.937 -3.705,0.604 0.044,0.335 0.258,0.461 0.357,0.827 -2,0.363 -4.778,2.907 -2.389,4.838 0.078,0.39 -0.467,0.335 -0.335,0.711 0.488,0.374 0.759,0.409 1.294,0.672 -0.119,0.381 -0.398,0.821 -0.361,1.234 2.521,1.934 6.695,5.09 5.679,8.543 0.276,0.207 0.958,0.485 1.292,0.675 0.061,0.438 -0.489,0.362 -0.463,0.839 0.079,0.077 0.938,0.541 0.939,0.541 -0.673,2.982 1.926,10.707 2.918,13.646 0.931,2.755 0.467,3.711 4.25,3.31 5.218,-0.553 9.145,-5.483 12.438,-8.964 1.986,-2.101 4.129,-2.122 7.073,-3.683 3.005,-1.595 3.759,-3.555 5.907,-5.466 2.027,-1.805 5.069,-1.491 6.718,-3.065 -0.622,-0.071 -1.466,-0.56 -2.151,-0.673 0.407,-0.499 0.496,-1.396 0.719,-1.73 -3.209,0.454 -2.189,-2.998 -5.073,-2.521 -0.054,-0.535 -0.183,-1.217 -0.152,-1.74 -1.013,-0.971 -0.798,-0.632 -0.937,-1.855 -0.582,-0.117 -0.971,-0.604 -1.751,-0.663 0.229,-1.664 0.554,-3.53 0.813,-5.065 -0.124,0.734 -5.25,0.387 -5.875,0.21 0.119,-4.168 0.98,-8.437 1.55,-12.583 z"
   id="path225" />
		<path
   fill="#d8d9da"
   d="m 326.403,130.195 c 0.477,4.476 4.412,9.621 1.651,14.185 -0.379,-3.867 -0.768,-5.271 -3.852,-7.785 -0.55,0.296 -1.128,0.079 -1.592,-0.407 -0.051,0.442 -0.322,0.898 -0.344,1.323 -1.127,-2.752 -0.748,-5.736 -0.923,-8.647 -1.46,0.209 -1.685,-1.608 -1.171,-2.58 -0.688,-0.237 -1.389,-0.797 -1.838,-1.229 0.839,4.229 1.047,10.179 0.191,14.421 -0.693,3.439 -1.502,6.783 -2.827,9.915 -1.569,3.708 -3.729,6.684 -7.004,9.145 -2.442,1.836 -7.589,2.312 -9.016,4.488 -0.005,0.049 0.626,0.598 0.7,0.708 -0.313,0.359 -0.717,0.304 -0.842,0.828 1.419,1.406 3.613,2.071 5.09,3.432 -0.196,0.154 -0.392,0.312 -0.584,0.471 2.524,1.292 3.613,5.761 4.213,8.309 0.559,2.377 1.888,6.655 1.858,9.439 1.06,-1.813 1.522,-4.621 -0.415,-5.938 0.286,-0.174 0.873,-0.168 1.199,-0.164 0.005,-0.508 -0.041,-1.264 0.139,-1.75 2.072,0.089 2.896,2.509 5.137,3.121 3.639,0.996 2.197,-0.441 4.734,-2.282 0.89,-0.645 2.121,0.053 2.849,-0.511 0.967,-0.747 0.961,-2.037 1.826,-2.769 2.226,-1.883 6.804,-2.799 7.543,-5.62 -2.034,1.512 -5.162,4.028 -7.877,3.644 -0.059,-0.264 -0.112,-0.528 -0.163,-0.793 -3.602,0.438 -9.104,3.894 -12.154,0.297 -0.885,-1.042 -0.461,-3.65 -1.599,-5.017 -0.998,-1.201 -2.603,-1.584 -3.476,-2.925 0.995,-1.116 2.102,-1.829 3.488,-2.305 2.157,1.808 3.438,-0.757 0.627,-1.076 -0.084,-0.564 0.098,-1.249 0.35,-1.752 -0.239,-0.109 -0.479,-0.124 -0.721,-0.046 2.074,-1.98 4.014,-5.358 5.152,-8.023 0.193,0.188 0.58,0.54 0.841,0.843 1.306,-0.539 1.759,-1.696 1.489,-3.176 1.651,-0.474 2.85,-1.671 3.322,-3.322 1.59,0.512 3.174,0.34 4.074,-0.98 0.963,1.606 1.359,3.327 1.594,5.148 1.797,-2.161 2.723,-6.405 2.771,-9.18 0.041,-2.44 -0.755,-3.582 -1.723,-5.703 -1.113,-2.439 -0.978,-5.383 -1.13,-8.015 -0.168,-2.896 -0.631,-3.202 -3.27,-4.686 0.248,1.167 1.314,2.17 1.625,3.467 0.311,1.282 -0.067,2.324 0.058,3.497 z"
   id="path226" />
		<path
   fill="#d8d9da"
   d="m 316.956,186.767 c 2.507,-0.297 5.479,-3.547 7.606,-4.818 2.648,-1.582 5.781,-2.07 8.357,-3.759 1.04,-0.682 2.184,-1.387 3.163,-2.149 1.004,-0.781 1.162,-1.818 1.8,-2.55 0.654,-0.753 3.125,-1.395 4.138,-1.02 -1.377,0.67 -3.72,1.15 -4.771,2.265 -0.542,0.574 -0.624,1.586 -1.014,2.303 -1.351,2.486 -3.131,2.908 -5.621,3.602 -2.38,0.662 -5.001,2.156 -6.624,4.076 -3.275,3.877 -5.671,7.058 -11.299,7.07 1.275,-0.805 2.521,-1.016 3.535,-2.141 0.554,-0.614 2.281,-3.062 0.73,-2.879 z"
   id="path227" />
		<path
   fill="#bcbec0"
   d="m 328.81,121.609 c -0.699,1.428 -0.24,3.343 -0.042,4.852 0.222,1.686 -0.185,3.317 -0.288,4.97 -0.224,3.509 2.483,5.4 3.326,8.519 1.127,4.169 -6.807,18.835 -0.05,20.789 -0.604,-1.141 0.298,-1.915 1.376,-2.297 -3.063,1.086 -1.739,-3.807 -1.538,-5.414 0.476,-3.815 1.091,-7.604 1.63,-11.409 0.248,-1.75 0.841,-3.708 0.375,-5.47 -0.275,-1.041 -2.952,-3.102 -2.953,-3.1 0.43,-0.422 -0.027,-5.065 -0.032,-5.868 -0.015,-2.085 -0.12,-4.475 -1.357,-6.235 -0.185,0.204 -0.332,0.428 -0.447,0.663 z"
   id="path228" />
		<path
   fill="none"
   stroke="#000000"
   stroke-width="0.7099"
   d="m 328.48,124.331 c 1.195,3.677 -0.789,6.149 0.579,9.36 1.392,3.265 3.282,3.575 3.208,7.687 -0.11,6.024 -4.029,10.388 -2.76,16.475 0.66,-0.059 0.568,0.277 0.867,0.555"
   id="path229" />
		<path
   fill="#d8d9da"
   d="m 331.792,163.377 c 0.635,0.61 1.457,0.844 2.312,0.721 -0.296,-0.101 -0.585,-0.348 -0.872,-0.473 0.595,-1.317 2.263,-2.354 2.553,-3.78 -2.104,0.956 -4.59,2.806 -7.002,1.86 1.224,0.763 1.912,1.481 3.484,1.435"
   id="path230" />
		<path
   fill="#bcbec0"
   d="m 301.502,164.325 c -0.308,0.361 -0.034,0.708 -0.502,0.939 0.813,1.167 2.741,2.011 3.843,3.225 -0.464,-0.384 -0.504,-0.896 -0.707,-1.289 0.669,-0.062 1.338,-0.169 2,-0.259 -0.112,-0.032 -0.132,-0.098 -0.061,-0.197 3.232,-0.618 7.07,1.059 9.541,2.941 -1.385,-2.167 -4.67,-2.885 -7.021,-3.468 -2.008,-0.498 -5.113,-0.042 -6.855,-1.183"
   id="path231" />
	</g>
	
	<linearGradient
   id="XMLID_21_"
   gradientUnits="userSpaceOnUse"
   x1="96.611801"
   y1="256.2207"
   x2="96.003899"
   y2="258.95709">
		<stop
   offset="0"
   style="stop-color:#FFFFFF"
   id="stop268" />
		<stop
   offset="0.1046"
   style="stop-color:#FAFAFA"
   id="stop269" />
		<stop
   offset="0.2282"
   style="stop-color:#ECECEC"
   id="stop270" />
		<stop
   offset="0.3616"
   style="stop-color:#D4D4D4"
   id="stop271" />
		<stop
   offset="0.5018"
   style="stop-color:#B2B2B2"
   id="stop272" />
		<stop
   offset="0.6474"
   style="stop-color:#888888"
   id="stop273" />
		<stop
   offset="0.7976"
   style="stop-color:#535353"
   id="stop274" />
		<stop
   offset="0.9487"
   style="stop-color:#161616"
   id="stop275" />
		<stop
   offset="1"
   style="stop-color:#000000"
   id="stop276" />
	</linearGradient>
	
	
		<linearGradient
   id="XMLID_22_"
   gradientUnits="userSpaceOnUse"
   x1="135.95461"
   y1="232.63229"
   x2="135.19611"
   y2="236.0464"
   gradientTransform="matrix(0.9824,-0.1867,0.1867,0.9824,-11.894,52.1387)">
		<stop
   offset="0"
   style="stop-color:#FFFFFF"
   id="stop277" />
		<stop
   offset="0.1046"
   style="stop-color:#FAFAFA"
   id="stop278" />
		<stop
   offset="0.2282"
   style="stop-color:#ECECEC"
   id="stop279" />
		<stop
   offset="0.3616"
   style="stop-color:#D4D4D4"
   id="stop280" />
		<stop
   offset="0.5018"
   style="stop-color:#B2B2B2"
   id="stop281" />
		<stop
   offset="0.6474"
   style="stop-color:#888888"
   id="stop282" />
		<stop
   offset="0.7976"
   style="stop-color:#535353"
   id="stop283" />
		<stop
   offset="0.9487"
   style="stop-color:#161616"
   id="stop284" />
		<stop
   offset="1"
   style="stop-color:#000000"
   id="stop285" />
	</linearGradient>
	
</g>
</svg>
