<?xml version="1.0" encoding="UTF-8" standalone="no"?>
<!-- Generator: Adobe Illustrator 12.0.0, SVG Export Plug-In . SVG Version: 6.00 Build 51448)  -->

<svg
   version="1.1"
   id="Layer_1"
   width="468.82397"
   height="259.53882"
   viewBox="0 0 468.82399 259.53882"
   overflow="visible"
   enable-background="new 0 0 536.764 308.853"
   xml:space="preserve"
   sodipodi:docname="skull_bones_ethmoidale.svg"
   inkscape:version="1.4.2 (f4327f4, 2025-05-13)"
   xmlns:inkscape="http://www.inkscape.org/namespaces/inkscape"
   xmlns:sodipodi="http://sodipodi.sourceforge.net/DTD/sodipodi-0.dtd"
   xmlns="http://www.w3.org/2000/svg"
   xmlns:svg="http://www.w3.org/2000/svg"><defs
   id="defs285" /><sodipodi:namedview
   id="namedview285"
   pagecolor="#ffffff"
   bordercolor="#000000"
   borderopacity="0.25"
   inkscape:showpageshadow="2"
   inkscape:pageopacity="0.0"
   inkscape:pagecheckerboard="0"
   inkscape:deskcolor="#d1d1d1"
   inkscape:zoom="1.8892483"
   inkscape:cx="271.53657"
   inkscape:cy="140.53208"
   inkscape:window-width="1920"
   inkscape:window-height="1009"
   inkscape:window-x="-8"
   inkscape:window-y="148"
   inkscape:window-maximized="1"
   inkscape:current-layer="g285" />

<g
   id="g285"
   transform="translate(-41.875033,-17.411481)">
	
	
	
	
	
	<linearGradient
   id="XMLID_12_"
   gradientUnits="userSpaceOnUse"
   x1="129.3521"
   y1="200.709"
   x2="129.02721"
   y2="171.1463">
		<stop
   offset="0"
   style="stop-color:#FFFFFF"
   id="stop37" />
		<stop
   offset="0.3483"
   style="stop-color:#BCBEC0"
   id="stop38" />
		<stop
   offset="0.4466"
   style="stop-color:#B8BABC"
   id="stop39" />
		<stop
   offset="0.541"
   style="stop-color:#ADAFB1"
   id="stop40" />
		<stop
   offset="0.6338"
   style="stop-color:#9A9C9D"
   id="stop41" />
		<stop
   offset="0.7257"
   style="stop-color:#7F8182"
   id="stop42" />
		<stop
   offset="0.817"
   style="stop-color:#5D5E5F"
   id="stop43" />
		<stop
   offset="0.9078"
   style="stop-color:#333334"
   id="stop44" />
		<stop
   offset="0.9965"
   style="stop-color:#020202"
   id="stop45" />
		<stop
   offset="1"
   style="stop-color:#000000"
   id="stop46" />
	</linearGradient>
	<path
   fill="url(#XMLID_12_)"
   d="m 129.31,168.215 c -0.197,2.881 -0.472,5.332 -0.652,8.122 -0.134,2.09 -0.765,4.552 -1.259,6.497 1.59,1.699 0.141,5.888 2.171,7.122 1.113,-4.243 1.292,-7.65 1.032,-11.996 -0.212,-3.518 0.748,-7.763 -0.381,-11.011 -0.753,0.404 -0.788,1.053 -0.911,1.916"
   id="path46"
   style="fill:url(#XMLID_12_)" />
	
	
	
	<linearGradient
   id="XMLID_15_"
   gradientUnits="userSpaceOnUse"
   x1="166.7222"
   y1="106.3491"
   x2="167.5948"
   y2="109.1841">
		<stop
   offset="0"
   style="stop-color:#F4D58D"
   id="stop77" />
		<stop
   offset="0.1072"
   style="stop-color:#EFD18A"
   id="stop78" />
		<stop
   offset="0.2341"
   style="stop-color:#E1C482"
   id="stop79" />
		<stop
   offset="0.3708"
   style="stop-color:#C9AF74"
   id="stop80" />
		<stop
   offset="0.5146"
   style="stop-color:#A79261"
   id="stop81" />
		<stop
   offset="0.6639"
   style="stop-color:#7D6D48"
   id="stop82" />
		<stop
   offset="0.8179"
   style="stop-color:#483F2A"
   id="stop83" />
		<stop
   offset="0.9728"
   style="stop-color:#0B0A07"
   id="stop84" />
		<stop
   offset="1"
   style="stop-color:#000000"
   id="stop85" />
	</linearGradient>
	
	
	
	
	<path
   fill="#ffffff"
   stroke="#000000"
   stroke-width="0.7797"
   d="m 112.771,139.197 c 0.57,2.209 1.923,5.391 1.563,7.603 -0.373,2.293 -2.888,5.372 -4.373,7.08 1.78,-2.627 0.295,-5.061 0.339,-7.859 0.042,-2.544 1.555,-5.118 2.47,-7.478"
   id="path90" />
	<path
   fill="#ffffff"
   stroke="#000000"
   stroke-width="0.7797"
   d="m 145.369,139.406 c 2.776,-0.104 4.288,4.35 4.841,6.426 0.966,3.637 0.803,6.31 3.632,9.345 -4.272,-2.522 -7.914,-6.559 -9.516,-11.382 -0.489,-1.467 -1.329,-4.299 1.043,-4.389 z"
   id="path91" />
	
	
	
	
	
	
	
	
	
	
	
	<g
   id="g170"
   transform="matrix(0.43033345,0,0,1.0054114,180.19875,-0.7636576)">
		<path
   fill="#ffffff"
   stroke="#000000"
   stroke-width="0.426"
   d="m 315.449,140.76 c -0.426,2.823 -0.156,6.438 -1.634,8.977 -0.788,1.357 -8.521,6.139 -9.308,4.787 -0.964,-1.651 -0.904,-5.082 -1.356,-7.067 -0.684,-3.01 -0.946,-6.195 -0.136,-9.207 0.559,-2.082 0.668,-4.927 1.574,-6.768 0.289,-0.591 3.607,-4.151 4.149,-3.996 2.058,0.588 6.062,1.916 7.062,4.022 0.934,1.959 -0.062,7.33 -0.351,9.252 z"
   id="path167" />
		
		
		
	</g>
	
	
	
	
	
	
	
	
	
	<linearGradient
   id="XMLID_21_"
   gradientUnits="userSpaceOnUse"
   x1="96.611801"
   y1="256.2207"
   x2="96.003899"
   y2="258.95709">
		<stop
   offset="0"
   style="stop-color:#FFFFFF"
   id="stop268" />
		<stop
   offset="0.1046"
   style="stop-color:#FAFAFA"
   id="stop269" />
		<stop
   offset="0.2282"
   style="stop-color:#ECECEC"
   id="stop270" />
		<stop
   offset="0.3616"
   style="stop-color:#D4D4D4"
   id="stop271" />
		<stop
   offset="0.5018"
   style="stop-color:#B2B2B2"
   id="stop272" />
		<stop
   offset="0.6474"
   style="stop-color:#888888"
   id="stop273" />
		<stop
   offset="0.7976"
   style="stop-color:#535353"
   id="stop274" />
		<stop
   offset="0.9487"
   style="stop-color:#161616"
   id="stop275" />
		<stop
   offset="1"
   style="stop-color:#000000"
   id="stop276" />
	</linearGradient>
	
	
		<linearGradient
   id="XMLID_22_"
   gradientUnits="userSpaceOnUse"
   x1="135.95461"
   y1="232.63229"
   x2="135.19611"
   y2="236.0464"
   gradientTransform="matrix(0.9824,-0.1867,0.1867,0.9824,-11.894,52.1387)">
		<stop
   offset="0"
   style="stop-color:#FFFFFF"
   id="stop277" />
		<stop
   offset="0.1046"
   style="stop-color:#FAFAFA"
   id="stop278" />
		<stop
   offset="0.2282"
   style="stop-color:#ECECEC"
   id="stop279" />
		<stop
   offset="0.3616"
   style="stop-color:#D4D4D4"
   id="stop280" />
		<stop
   offset="0.5018"
   style="stop-color:#B2B2B2"
   id="stop281" />
		<stop
   offset="0.6474"
   style="stop-color:#888888"
   id="stop282" />
		<stop
   offset="0.7976"
   style="stop-color:#535353"
   id="stop283" />
		<stop
   offset="0.9487"
   style="stop-color:#161616"
   id="stop284" />
		<stop
   offset="1"
   style="stop-color:#000000"
   id="stop285" />
	</linearGradient>
	
</g>
</svg>
