<?xml version="1.0" encoding="UTF-8" standalone="no"?>
<!-- Generator: Adobe Illustrator 12.0.0, SVG Export Plug-In . SVG Version: 6.00 Build 51448)  -->

<svg
   version="1.1"
   id="Layer_1"
   width="468.82397"
   height="259.53882"
   viewBox="0 0 468.82399 259.53882"
   overflow="visible"
   enable-background="new 0 0 536.764 308.853"
   xml:space="preserve"
   sodipodi:docname="skull_bones_occipitale.svg"
   inkscape:version="1.4.2 (f4327f4, 2025-05-13)"
   xmlns:inkscape="http://www.inkscape.org/namespaces/inkscape"
   xmlns:sodipodi="http://sodipodi.sourceforge.net/DTD/sodipodi-0.dtd"
   xmlns="http://www.w3.org/2000/svg"
   xmlns:svg="http://www.w3.org/2000/svg"><defs
   id="defs285" /><sodipodi:namedview
   id="namedview285"
   pagecolor="#ffffff"
   bordercolor="#000000"
   borderopacity="0.25"
   inkscape:showpageshadow="2"
   inkscape:pageopacity="0.0"
   inkscape:pagecheckerboard="0"
   inkscape:deskcolor="#d1d1d1"
   inkscape:zoom="2.6718006"
   inkscape:cx="229.05901"
   inkscape:cy="146.5304"
   inkscape:window-width="1920"
   inkscape:window-height="1009"
   inkscape:window-x="-8"
   inkscape:window-y="148"
   inkscape:window-maximized="1"
   inkscape:current-layer="g285" />

<g
   id="g285"
   transform="translate(-41.875033,-17.411481)">
	
	
	
	
	
	<linearGradient
   id="XMLID_12_"
   gradientUnits="userSpaceOnUse"
   x1="129.3521"
   y1="200.709"
   x2="129.02721"
   y2="171.1463">
		<stop
   offset="0"
   style="stop-color:#FFFFFF"
   id="stop37" />
		<stop
   offset="0.3483"
   style="stop-color:#BCBEC0"
   id="stop38" />
		<stop
   offset="0.4466"
   style="stop-color:#B8BABC"
   id="stop39" />
		<stop
   offset="0.541"
   style="stop-color:#ADAFB1"
   id="stop40" />
		<stop
   offset="0.6338"
   style="stop-color:#9A9C9D"
   id="stop41" />
		<stop
   offset="0.7257"
   style="stop-color:#7F8182"
   id="stop42" />
		<stop
   offset="0.817"
   style="stop-color:#5D5E5F"
   id="stop43" />
		<stop
   offset="0.9078"
   style="stop-color:#333334"
   id="stop44" />
		<stop
   offset="0.9965"
   style="stop-color:#020202"
   id="stop45" />
		<stop
   offset="1"
   style="stop-color:#000000"
   id="stop46" />
	</linearGradient>
	
	
	
	
	<linearGradient
   id="XMLID_15_"
   gradientUnits="userSpaceOnUse"
   x1="166.7222"
   y1="106.3491"
   x2="167.5948"
   y2="109.1841">
		<stop
   offset="0"
   style="stop-color:#F4D58D"
   id="stop77" />
		<stop
   offset="0.1072"
   style="stop-color:#EFD18A"
   id="stop78" />
		<stop
   offset="0.2341"
   style="stop-color:#E1C482"
   id="stop79" />
		<stop
   offset="0.3708"
   style="stop-color:#C9AF74"
   id="stop80" />
		<stop
   offset="0.5146"
   style="stop-color:#A79261"
   id="stop81" />
		<stop
   offset="0.6639"
   style="stop-color:#7D6D48"
   id="stop82" />
		<stop
   offset="0.8179"
   style="stop-color:#483F2A"
   id="stop83" />
		<stop
   offset="0.9728"
   style="stop-color:#0B0A07"
   id="stop84" />
		<stop
   offset="1"
   style="stop-color:#000000"
   id="stop85" />
	</linearGradient>
	
	
	
	
	
	
	
	
	
	
	
	
	
	<g
   id="g151">
		<path
   fill="#d8d9da"
   stroke="#967348"
   stroke-width="0.426"
   d="m 459.342,202.78 c -3.785,0.69 -9.07,2.363 -12.397,4.289 -5.148,2.979 -9.29,0.2 -14.827,-0.732 -5.694,-0.96 -13.247,-1.373 -18.884,-0.371 -2.991,0.53 -3.566,2.798 -6.044,4.018 -3.04,1.496 -6.19,0.147 -9.067,-0.843 -3.045,-1.048 -6.364,-1.572 -9.39,-2.883 -1.709,-0.739 -2.913,-1.884 -3.213,-3.815 -0.336,-2.16 1.11,-2.556 1.427,-3.908 0.819,-3.501 -1.185,-5.215 -2.58,-8.065 -0.973,-1.987 -0.541,-2.841 0.46,-4.712 1.984,-3.707 3.041,-8.272 6.318,-10.62 0.307,4.263 -1.401,11.755 1.846,14.793 3.242,3.03 9.061,1.313 13.063,1.563 1.453,3.523 2.557,7.319 3.655,10.889 6.345,1.655 15.297,-1.727 20.925,-4.544 4.657,-2.331 9.244,-6.296 12.762,-9.932 2.694,-2.786 3.553,-6.788 6.745,-9.253 2.115,-1.634 4.359,-3.173 5.882,-5.417 1.543,-2.276 1.834,-4.939 3.012,-7.342 2.458,-5.013 8.621,-3.184 12.748,-6.404 1.239,-0.967 1.941,-2.747 3.534,-2.96 1.178,-0.157 2.48,1.082 3.923,0.83 1.898,-0.332 2.207,-1.345 3.283,-2.838 2.327,-3.228 4.679,-6.403 7.09,-9.584 1.107,-1.463 2.21,-2.593 3.034,-4.276 0.547,-1.118 0.643,-2.99 1.2,-3.888 1.097,-1.762 3.329,-2.881 4.5,-4.692 1.144,-1.77 2.044,-4.048 2.811,-6.043 1.04,-2.71 0.148,-5.306 0.792,-8.086 0.471,-2.039 2.885,-3.33 2.475,-5.546 0.473,2.553 2.415,5.13 2.896,7.945 0.803,4.713 1.388,9.277 2.339,13.98 1.612,7.972 0.762,16.208 -1.661,23.924 -1.096,3.487 -2.212,6.787 -3.067,10.246 -0.89,3.594 -3.752,6.209 -5.899,9.094 -1.563,2.098 -2.822,4.33 -4.527,6.31 -1.691,1.964 -3.437,3.695 -5.324,5.326 -4.629,3.998 -9.193,10.081 -15.064,12.261 -4.829,1.788 -9.815,0.38 -14.776,1.286 z"
   id="path146" />
		<path
   fill="#ffffff"
   d="m 434.869,198.893 c 1.241,-4.627 5.508,-3.353 8.465,-5.06 -0.784,-2.063 1.298,-4.91 3.162,-6.052 1.141,-0.698 2.127,-0.992 2.927,-1.659 0.823,-0.688 1.985,-2.026 3.166,-2.928 -0.279,-0.203 -0.485,-0.814 -1.011,-1.073 1.002,-1.646 3.423,-1.98 4.929,-3.313 5.482,2.51 8.975,-8.307 11.685,-10.698 -0.712,1.723 0.275,3.157 0.343,4.808 -1.609,0.52 -3.428,1.492 -3.28,3.264 -1.779,0.654 -7.328,3.903 -4.755,5.696 1.923,1.341 6.84,-1.816 8.792,-2.227 -0.271,-1.135 -1.291,-1.74 -2.356,-2.048 3.602,-2.158 5.665,-3.887 9.436,-6.265 -1.687,1.402 -3.977,3.114 -4.93,5.144 0.627,-0.117 1.377,-0.042 2.041,-0.335 -1.05,0.147 -1.708,0.731 -1.649,1.748 3.821,0.317 7.978,-1.162 11.212,-2.819 -2.985,1.382 -5.791,3.669 -8.497,5.01 -1.452,0.72 -5.535,1.492 -3.862,4.083 -1.834,-0.02 -2.127,1.365 -1.066,2.583 -1.454,0.29 -4.526,-0.376 -5.648,0.144 -2.126,0.983 -1.323,3.001 0.714,3.043 -1.71,-0.074 -4.281,0.396 -5.269,1.847 -0.949,1.395 -0.327,2.843 -1.862,4.478 4.112,-4.558 11.913,0.218 16.776,-3.263 -3.906,2.799 -8.874,1.966 -13.192,3.052 -2.85,0.716 -5.277,2.507 -8.412,2.501 0.844,-0.358 1.227,-0.886 1.915,-1.392 -3.209,0.72 -6.865,2.178 -10.178,1.719 -1.957,-0.271 -3.097,-0.776 -4.979,-0.679 -1.646,0.084 -3.243,0.327 -4.969,0.335"
   id="path147" />
		<path
   fill="#bcbec0"
   d="m 412.861,205.282 c -3.019,-0.267 -4.518,2.571 -6.657,3.479 -1.616,0.685 -4.415,0.802 -6.397,0.347 -2.375,-0.545 -4.251,-1.803 -6.469,-3.124 -1.918,-1.143 -4.57,-1.678 -6.086,-3.188 2.47,-3.104 7.28,-2.182 9.992,-0.788 1.281,0.659 10.047,5.814 9.881,1.552 -4.361,0.243 -8.233,-2.592 -10.922,-5.218 0.298,0.103 0.611,0.148 0.909,0.231 -0.152,-1.045 0.466,-1.068 1.196,-1.853 1.881,2.776 5.591,3.363 8.827,3.183 0.134,-3.271 -5.611,-2.435 -7.453,-4.563 0.092,-0.372 0.583,-1.408 0.815,-1.711 0.476,-0.023 1.217,-0.215 1.677,-0.133 -0.872,-1.031 -8.052,-0.448 -8.483,1.368 -0.582,-0.836 -3.215,0.184 -4.693,-0.482 -1.892,-0.851 -3.914,-3.638 -4.854,-5.332 3.755,-2.625 3.163,-8.337 5.218,-11.437 -0.664,5.379 0.709,12.285 6.453,14.268 2.443,0.843 6.85,-0.146 8.899,1.038 1.289,0.745 2.493,4.868 3.178,6.327 1.62,3.45 1.109,3.898 5.316,3.905 3.551,0.005 6.596,-0.727 9.956,-1.333 2.688,-0.485 4.873,-2.478 7.429,-2.847 2.055,-0.297 5.006,0.772 7.107,0.994 3.04,0.32 6.244,0.543 9.326,0.363 2.728,-0.158 5.365,-1.172 7.914,-1.816 -5.436,1.622 -11.451,3.604 -17.222,3.217 -2.721,-0.182 -6.086,-1.984 -8.431,-0.067 2.854,0.082 5.471,1.979 8.403,2.207 3.042,0.236 5.89,0.214 8.908,-0.008 2.882,-0.213 7.014,-0.697 9.626,-1.979 -4.409,1.693 -9.634,3.183 -14.257,4.03 -3.864,0.708 -6.816,-1.371 -10.647,-2.13 -6.832,-1.354 -13.581,0.543 -20.234,1.854"
   id="path148" />
		<path
   fill="#bcbec0"
   d="m 465.75,166.945 c -1.496,1.034 -3.326,1.837 -3.398,3.876 1.156,-1.592 2.363,-2.687 4.427,-2.88 -0.191,-0.462 -0.587,-0.753 -1.029,-0.996"
   id="path149" />
		<path
   fill="#bcbec0"
   d="m 460.782,200.313 c 0.392,-0.537 0.89,-0.924 1.49,-1.164 4.04,2.911 10.233,0.959 14.38,-0.555 -5.908,4.521 -12.239,1.591 -18.604,2.437 1.132,-0.187 2.186,-0.782 3.088,-1.428"
   id="path150" />
		<path
   fill="#bcbec0"
   d="m 504.442,140.678 c -1.805,0.338 -2.984,2.219 -3.148,3.86 0.324,0.016 0.651,0.077 0.975,0.097 -0.163,1.289 -1.507,2.349 -1.054,3.522 0.105,0.276 2.104,1.412 2.507,2.096 2.153,3.649 0.945,10.506 -0.645,14.132 1.602,-4.279 3.738,-9.839 3.422,-14.459 -0.371,0.404 -0.995,0.437 -1.295,0.643 0.047,-0.975 -0.415,-1.417 -0.085,-2.385 -3.825,-0.032 -0.989,-6.216 -1.031,-8.217"
   id="path151" />
	</g>
	
	
	
	
	
	
	
	
	
	
	
	
	
	<linearGradient
   id="XMLID_21_"
   gradientUnits="userSpaceOnUse"
   x1="96.611801"
   y1="256.2207"
   x2="96.003899"
   y2="258.95709">
		<stop
   offset="0"
   style="stop-color:#FFFFFF"
   id="stop268" />
		<stop
   offset="0.1046"
   style="stop-color:#FAFAFA"
   id="stop269" />
		<stop
   offset="0.2282"
   style="stop-color:#ECECEC"
   id="stop270" />
		<stop
   offset="0.3616"
   style="stop-color:#D4D4D4"
   id="stop271" />
		<stop
   offset="0.5018"
   style="stop-color:#B2B2B2"
   id="stop272" />
		<stop
   offset="0.6474"
   style="stop-color:#888888"
   id="stop273" />
		<stop
   offset="0.7976"
   style="stop-color:#535353"
   id="stop274" />
		<stop
   offset="0.9487"
   style="stop-color:#161616"
   id="stop275" />
		<stop
   offset="1"
   style="stop-color:#000000"
   id="stop276" />
	</linearGradient>
	
	
		<linearGradient
   id="XMLID_22_"
   gradientUnits="userSpaceOnUse"
   x1="135.95461"
   y1="232.63229"
   x2="135.19611"
   y2="236.0464"
   gradientTransform="matrix(0.9824,-0.1867,0.1867,0.9824,-11.894,52.1387)">
		<stop
   offset="0"
   style="stop-color:#FFFFFF"
   id="stop277" />
		<stop
   offset="0.1046"
   style="stop-color:#FAFAFA"
   id="stop278" />
		<stop
   offset="0.2282"
   style="stop-color:#ECECEC"
   id="stop279" />
		<stop
   offset="0.3616"
   style="stop-color:#D4D4D4"
   id="stop280" />
		<stop
   offset="0.5018"
   style="stop-color:#B2B2B2"
   id="stop281" />
		<stop
   offset="0.6474"
   style="stop-color:#888888"
   id="stop282" />
		<stop
   offset="0.7976"
   style="stop-color:#535353"
   id="stop283" />
		<stop
   offset="0.9487"
   style="stop-color:#161616"
   id="stop284" />
		<stop
   offset="1"
   style="stop-color:#000000"
   id="stop285" />
	</linearGradient>
	
</g>
</svg>
