<?xml version="1.0" encoding="UTF-8" standalone="no"?>
<!-- Generator: Adobe Illustrator 12.0.0, SVG Export Plug-In . SVG Version: 6.00 Build 51448)  -->

<svg
   version="1.1"
   id="Layer_1"
   width="536.764"
   height="308.853"
   viewBox="0 0 536.764 308.853"
   overflow="visible"
   enable-background="new 0 0 536.764 308.853"
   xml:space="preserve"
   sodipodi:docname="skull_bones_parietale.svg"
   inkscape:version="1.4.2 (f4327f4, 2025-05-13)"
   xmlns:inkscape="http://www.inkscape.org/namespaces/inkscape"
   xmlns:sodipodi="http://sodipodi.sourceforge.net/DTD/sodipodi-0.dtd"
   xmlns="http://www.w3.org/2000/svg"
   xmlns:svg="http://www.w3.org/2000/svg"><defs
   id="defs285" /><sodipodi:namedview
   id="namedview285"
   pagecolor="#ffffff"
   bordercolor="#000000"
   borderopacity="0.25"
   inkscape:showpageshadow="2"
   inkscape:pageopacity="0.0"
   inkscape:pagecheckerboard="0"
   inkscape:deskcolor="#d1d1d1"
   inkscape:zoom="3.7784966"
   inkscape:cx="268.3607"
   inkscape:cy="133.25406"
   inkscape:window-width="2560"
   inkscape:window-height="1369"
   inkscape:window-x="1912"
   inkscape:window-y="-8"
   inkscape:window-maximized="1"
   inkscape:current-layer="g285" />

<g
   id="g285">
	
	
	<g
   id="g33">
		
		
		<path
   fill="#FFFFFF"
   stroke="#000000"
   stroke-width="0.7797"
   d="M44.616,83.59c-0.935,5.085-1.496,10.484-2.132,15.595    c-0.387,3.116-0.185,6.577,0.032,9.704c0.128,1.83,2.128,7.328,1.583,8.735c0.516-1.333,1.015-2.621,1.019-4.045    c0.878,0.704,1.945,1.035,2.995,1.474c0.028-0.074,0.458-0.864,0.483-0.835c0.664,0.75,1.648,1.534,2.097,2.544    c0.099-1.72,1.051-3.43,2.66-4.323c-0.677-1.309-0.99-2.816-0.914-4.316c-0.263-0.096-0.5,0.09-0.682,0.006    c-3.117-1.426-4.251-10.636-2.74-13.429c0.294,0.229,0.937,0.542,1.251,0.804c-0.246-1.033-0.353-2.25-0.284-3.376    c0.24-0.051,0.482-0.102,0.722-0.15c0.237-1.396-0.5-2.182-0.699-3.477c-0.722-4.682,0.365-9.819,0.617-14.531    c0.266-4.987,0.483-10.767,3.493-15.006c-3.612,2.613-5.677,9.811-6.927,13.941C46.173,76.274,45.261,80.085,44.616,83.59z"
   id="path33" />
	</g>
	<g
   id="g36">
		
		<path
   fill="#FFFFFF"
   stroke="#000000"
   stroke-width="0.7797"
   d="M215.528,83.303c1.483,9.765,1.079,22.749-1.755,32.223    c-0.646-1.721-1.989-1.542-2.493,0.342c-0.179-0.678-0.81-1.375-0.983-1.891c-0.756,0.75-1.616,1.559-2.467,2.317    c-1.75-3.061-3.105,0.683-3.164,2.688c-1.052-0.592-2.396-1.602-3.815-0.857c1.773-4.672-0.187-10.828,1.352-15.656    c1.001-3.138,2.745-4.371,2.525-8.301c-0.136-2.391-1.058-4.593-1.208-6.943c-0.169-2.624,0.6-4.914,0.773-7.531    c0.211-3.16-0.773-6.922-0.339-9.924c0.234-1.619,1.503-2.419,1.92-3.876c0.578-2.027-0.146-4.271,0.806-6.079    c2.743,2.792,3.392,7.383,4.711,10.919C212.951,74.91,214.851,78.843,215.528,83.303z"
   id="path35" />
		
	</g>
	
	<linearGradient
   id="XMLID_12_"
   gradientUnits="userSpaceOnUse"
   x1="129.3521"
   y1="200.709"
   x2="129.0272"
   y2="171.1463">
		<stop
   offset="0"
   style="stop-color:#FFFFFF"
   id="stop37" />
		<stop
   offset="0.3483"
   style="stop-color:#BCBEC0"
   id="stop38" />
		<stop
   offset="0.4466"
   style="stop-color:#B8BABC"
   id="stop39" />
		<stop
   offset="0.541"
   style="stop-color:#ADAFB1"
   id="stop40" />
		<stop
   offset="0.6338"
   style="stop-color:#9A9C9D"
   id="stop41" />
		<stop
   offset="0.7257"
   style="stop-color:#7F8182"
   id="stop42" />
		<stop
   offset="0.817"
   style="stop-color:#5D5E5F"
   id="stop43" />
		<stop
   offset="0.9078"
   style="stop-color:#333334"
   id="stop44" />
		<stop
   offset="0.9965"
   style="stop-color:#020202"
   id="stop45" />
		<stop
   offset="1"
   style="stop-color:#000000"
   id="stop46" />
	</linearGradient>
	
	
	
	
	<linearGradient
   id="XMLID_15_"
   gradientUnits="userSpaceOnUse"
   x1="166.7222"
   y1="106.3491"
   x2="167.5948"
   y2="109.1841">
		<stop
   offset="0"
   style="stop-color:#F4D58D"
   id="stop77" />
		<stop
   offset="0.1072"
   style="stop-color:#EFD18A"
   id="stop78" />
		<stop
   offset="0.2341"
   style="stop-color:#E1C482"
   id="stop79" />
		<stop
   offset="0.3708"
   style="stop-color:#C9AF74"
   id="stop80" />
		<stop
   offset="0.5146"
   style="stop-color:#A79261"
   id="stop81" />
		<stop
   offset="0.6639"
   style="stop-color:#7D6D48"
   id="stop82" />
		<stop
   offset="0.8179"
   style="stop-color:#483F2A"
   id="stop83" />
		<stop
   offset="0.9728"
   style="stop-color:#0B0A07"
   id="stop84" />
		<stop
   offset="1"
   style="stop-color:#000000"
   id="stop85" />
	</linearGradient>
	
	
	
	
	
	
	
	
	
	
	
	
	
	
	
	<g
   id="g160">
		<path
   fill="#D8D9DA"
   stroke="#000000"
   stroke-width="0.426"
   d="M345.927,103.564c-1.205-3.483,3.101-10.212,4.023-12.489    c1.391-3.431,1.146-7.119,2.646-10.363c1.464-3.168,4.254-6.083,4.365-9.559c0.08-2.509-1.857-4.652-1.811-7.047    c0.042-2.13,1.943-5.452,3.248-7.104c2.455-3.106,5.604-5.117,5.661-10.039c0.023-1.899-0.995-4.212-0.29-6.042    c0.506-1.309,1.541-1.367,2.16-2.444c0.818-1.418,0.326-2.873,0.937-4.221c2.84-6.273,13.35-7.484,19.185-8.564    c3.196-0.592,6.41-0.975,9.643-1.309c2.701-0.278,5.482,0.897,8.285,0.908c3.293,0.012,6.573-0.445,9.868-0.39    c15.066,0.253,29.947,4.596,43.85,10.145c13.077,5.219,23.372,17.865,31.383,29.05c5.486,7.663,8.256,15.379,10.414,24.403    c2.14,8.95,2.653,18.431,6.492,26.906c-0.127,0.129-0.252,0.261-0.374,0.395c-0.301-0.109-0.631-0.189-0.948-0.277    c0.048,1.118,0.447,2.349,0.628,3.418c-0.677-0.624-1.436-0.887-2.027-1.554c-0.099,1.971,3.86,4.585,0.628,5.794    c-0.328-1.271-0.744-1.052-1.351-1.604c0.121,1.776-1.358,4.141,0.161,5.355c-0.37,1.388-1.621,1.682-1.569,2.843    c0.064,1.471,1.554,1.983,1.933,3.416c-1.231,0.269-2.025-0.881-2.626-1.674c-1.274,1.92,1.836,4.315,0.647,6.316    c-1.066-0.435-1.5-1.7-1.865-2.758c-0.356-0.022-1.648,0.207-2.004,0.354c-0.173,1.262,0.303,2.463,1.323,3.218    c-0.09,0.283-0.221,0.57-0.314,0.864c-0.802-1.082-1.037-0.548-2.073-0.887c0.039,1.553-1.137,1.712-1.482,3.132    c-0.333,1.364-0.021,2.65,0.29,3.887c-0.695-0.662-3.032-4.659-3.403-2.82c-0.506,2.515,3.04,4.072,2.359,6.697    c-3.106,0.764-1.789-5.642-4.871-4.861c0.602,1.648,1.077,3.883,0.327,5.517c-1.029-1.297-2.434-3.794-2.794-0.878    c-0.234,1.893,1.837,3.595,0.654,5.867c-0.689-1.428-1.185-3.289-2.05-4.487c-1.181,2.27,0.074,5.358-0.8,7.771    c-1.552,4.293-1.599-0.016-4.204,0.055c-0.017,2.245-0.433,3.847-1.899,5.234c-1.021-0.367-1.825-1.069-2.377-1.997    c1.206-0.525,1.086-0.884,1.33-1.84c-0.317,0.097-0.604,0.244-0.94,0.27c-0.102-1.428-1.271-2.139-2.857-1.668    c0.01,0.396-0.151,0.92-0.107,1.312c-1.275,0.134-2.241-0.972-3.079-1.683c-0.766,2.214,3.242,1.981,1.651,4.878    c-1.589,0.809-2.981-0.321-4.507,0.365c0.185-0.369,0.303-0.929,0.639-1.321c-0.769,0.268-2.112,1.187-3.169,1.025    c-1.624-0.248-0.708-2.506-2.787-1.471c-0.338-4.714,0.914-7.335-4.588-7.396c-3.226-0.035-7.569,1.746-10.677,0.724    c0.023,1.156-0.62,1.879-1.782,2.058c0.194-1.471,1.269-3.489-0.046-4.628c-0.989,1.096-0.192,3.39-1.019,4.237    c-1.324,1.357-3.563-0.711-4.029,1.819c-0.6-0.575-1.147-1.154-1.399-2.042c-0.069-0.24-2.397,0.129-2.654,0.176    c0.741-1.714-1.343-2.507-2.009-4.017c-1.406-3.184-0.611-7.681-1.378-11.142c-0.845-3.812-3.097-6.983-4.106-10.635    c-0.485-1.76,0.709-4.612-0.001-5.767c-0.839-1.363-1.12-0.143-1.941-0.693c-1.043-0.698-0.958-0.45-1.774-1.351    c-1.111-1.227-1.462-3.292-2.753-4.559c-0.284-0.28-1.431-0.411-1.88-0.757c-0.558-0.428-1.034-1.367-1.679-1.879    c-0.842-0.669-2.178-0.722-2.783-1.669c-0.366-0.573,0.277-1.604-0.047-2.146c-0.923-1.543-1.9-1.725-3.707-2.378    c-8.597-3.111-18.121-6.227-27.202-7.178c-4.627-0.484-7.366,0.534-11.678,2.023c-4.929,1.703-8.836,3.58-14.059,4.791    c-1.985,0.46-5.156,2.76-6.848,0.896c-0.852-0.938-0.091-3.052-1.475-4.196c-1.152-0.954-2.832-0.261-3.826-1.119    C346.353,104.446,346.089,104.034,345.927,103.564z"
   id="path158" />
		<path
   fill="#FFFFFF"
   d="M447.115,151.705c3.497-1.187,15.221-5.736,15.318-10.231c7.881-2.809,10.515,4.028,9.948,10.584    c0.844-0.617,2.048-2.208,2.323-3.27c0.49-1.893,0.328-1.576-0.842-3.49c0.292-0.167,0.585-0.502,0.915-0.672    c-0.607-0.89-1.434-1.519-2.017-2.584c-0.485-0.89-0.321-3.286-0.773-3.832c-0.736-0.891-1.981-0.116-2.517-0.677    c-0.924-0.971-0.528-1.795-0.769-3.172c-1.625,0.236-3.165,1.844-4.604,2.774c-3.137,2.027-6.469,3.715-9.871,5.251    c-3.636,1.642-7.679,4.509-11.653,4.927c1.845-0.878,4.586-2.936,5.57-4.775c0.614-1.148,0.414-2.635,0.816-3.93    c2.048,1.194,1.317-0.92,1.645-2.094c-0.06,0.216-0.223-1.47-0.223-1.481c-0.002-0.747,1.027-0.688,0.938-1.778    c-0.148-1.794-1.648-1.889-1.294-3.973c0.334-1.96,1.754-3.816,2.12-5.925c0.462,0.333,1.859,0.678,2.367,0.971    c0.073-1.853-2.843-2.717-4.483-2.804c2.216-0.035,4.478-0.395,6.667-0.762c-0.338-1.437,0.105-0.778,0.366-1.96    c0.456,1.86,1.446,3.407,2.768,4.761c0.815-2.209,0.046-4.618,1.038-7.106c1.499-3.753,2.294-7.63,2.202-10.955    c0.15,0.403,0.555,0.88,0.656,1.095c-0.002-0.401,0.093-0.889,0.125-1.284c0.414,0.569,1.302,1.142,1.655,1.647    c-0.181-3.241-2.827-8.594-4.228-11.611c0.827,2.299,1.212,4.786-0.048,7.012c-3.938-4.41-3.727,6.318-3.876,8.164    c-2.869-2.046-1.323-7.449-1.775-10.271c-0.465-2.898-2.214-3.75-4.19-4.893c0.613-0.557,2.922-0.991,3.203-1.482    c0.763-1.328-0.211-2.667-0.05-3.864c-1.41,0.085-2.69,0.991-4.188,0.574c0.103-0.279,0.146-0.674,0.28-1.002    c-1.228-0.66-5.021-1.68-2.49-3.541c-1.35-2.082-2.794-2.654-5.344-2.236c-3.565,0.584-5.67,1.969-5.307-2.318    c-0.584-0.082-1.232-0.693-1.711-0.78c0.175-0.246,0.305-0.496,0.556-0.764c-0.649-1.185-1.611-2.124-2.625-3.007    c2.734,0.903,5.448-1.054,7.968-1.508c-3.633,1.749,0.796,3.533,2.609,3.937c2.5,0.556,3.287-0.436,5.608-0.395    c-0.12,2.288,1.717,2.601,2.823,0.773c0.396,1.062,0.918,2.151,1.861,2.822c1.55-1.116,0.079-3.251,2.521-4.013    c2.257-0.703,4.159,1.286,4.962,3.042c-0.301-1.431-0.748-2.858-1.331-4.186c3.099-0.603,0.648-2.214-0.411-3.446    c-1.382-1.607-2.937-3.541-3.228-5.626c4.135,0.036-0.141-7.219-1.424-8.818c1.023,1.068,2.58,1.938,3.462,3.398    c0.948,1.572,0.805,3.609,1.485,5.259c-0.157-1.704,1.588-1.603,2.863-1.072c2.486-4.448-5.786-13.851-9.501-15.512    c0.316-0.121,0.582-0.289,0.893-0.426c-1.362-1.801-4.399-2.61-5.337-4.933c1.771-0.712,0.753-2.008-0.274-3.089    c1.337-0.417,2.814-0.514,4.191-0.471c-0.094-1.313-0.189-2.883,1.341-3.193c-0.783-2.907-5.255-4.597-7.676-5.646    c-4.458-1.932-9.17-2.962-13.827-4.142c-7.893-1.999-15.009-1.917-23.035-1.874c-7.845,0.041-15.548,1.17-23.266,2.552    c-2.216,0.396-6.172,1.269-8.252,0.294c0.436-0.559,0.551-1.19,0.224-1.815c-1.04,1.501-3.499,1.599-4.976,2.757    c-1.777,1.396-4.059,3.226-4.201,5.253c-0.171,2.42,1.185,3.45-1.238,4.979c-0.856,0.54-2.731,1.724-2.602,2.957    c0.146,1.379,1.85,1.283,2.05,2.785c0.44,3.32-3.877,8.072-5.356,10.784c-0.691,1.267-2.98,3.702-2.777,5.307    c0.203,1.611,2.114,1.769,2.474,3.496c0.427-0.344,0.96-0.164,1.437-0.975c3.187,1.85,8.969-0.795,12.329-1.439    c7.14-1.368,13.819-3.255,21.261-2.797c0.036,0.205,0.072,0.411,0.107,0.616c1.506-0.748,3.344-1.244,4.806-2.146    c-0.889,0.474-1.526,1.235-1.644,2.127c1.165,0.094,2.347-0.256,3.248,0.047c-2.136,1.402-5.576,1.364-8.205,1.425    c-5.223,0.122-10.033-0.535-15.298,0.269c-5.38,0.821-13.167,3.089-16.562,7.551c0.309,0.063,0.558,0.165,0.83,0.258    c-0.91,0.607-1.777,1.231-2.691,1.863c0.852,1.884-4.471,6.151-5.385,8.18c-0.826,1.835-0.921,2.792,0.324,4.32    c1.736,2.131,8.258,2.877,10.941,2.744c-2.293,2.381,8.593,5.023,11.095,3.114c-0.264-0.545-0.092-1.116-0.273-1.621    c5.269,0.552,9.248-3.284,14.438-4.623c0.604,2.646,4.37,0.961,5.634-0.386c-0.867-0.914-1.119-1.881-0.333-2.722    c2.134,1.134,5.989,0.914,7.902-0.363c1.15,2.177,3.051,2.245,4.767,2.35c4.246,0.259,6.025,0.982,9.694,3.453    c-3.124-0.674-7.335-1.789-10.938-2.646c-3.729-0.888-7.471-1.791-10.872,0.632c0.031,0.34,0.187,0.296,0.216,0.609    c-4.999,1.961-10.716,1.891-15.592,4.341c-4.213,2.116-6.37,3.098-10.927,1.834c-0.065,0.237-0.205,0.414-0.423,0.529    c-4.996-3.197-13.857-4.977-17.748,1.141c5.166,0.381,10.854-1.255,15.935-0.576c-1.957,0.723-4.282,1.609-6.353,2.68    c-2.436,1.26-3.098,2.775-4.935,4.633c0.226,0.076,0.885-0.083,0.604-0.054c-0.059,0.018-0.497,0.434-0.505,0.506    c0.047-0.02,0.557-0.419,0.57-0.436c1.636,2.336,3.232-0.621,5.295-0.237c-0.156,0.342-0.184,0.63-0.283,0.938    c2.131-0.755,5.765-0.447,8.192-0.666c4.652-0.419,9.475-0.178,14.108,0.346c3.646,0.413,7.172,0.614,10.763,1.527    c2.302,0.585,5.387,2.411,7.651,2.342c0.445-4.171,7.249-9.065,10.971-10.652c-3.168,3.214-7.274,5.68-9.098,9.935    c2.313-0.285,7.65,3.567,9.636,5.101c1.863,1.44,1.635,3.812,3.019,4.917c1.783,1.422,5.577-2.697,7.57-3.829    c-1.716,1.555-4.787,3.073-5.394,5.473c0.053-0.144,0.157-0.209,0.311-0.198c0.143,1.315,0.971,2.229,2.11,2.407    c1.169-1.645,6.025-3.355,7.797-2.467c-2.005,1.486-4.444,2.272-6.526,3.644c3.046,2.844,3.444,4.215,3.777,8.086    c0.129,1.498,0.801,3.451,2.148,4.268c1.75,1.061,7.546,0.479,9.498-0.026c-2.9,0.194-6.909,0.084-9.106,2.069    c3.501,0.663,4.647,3.034,8.708,2.548c-1.419,0.224-6.344,0.087-7.323,1.054c-1.913,1.89,0.745,1.819,1.45,3.292    c0.349,0.725,0.791,3.426,0.781,4.189c-0.016,1.108-0.753,2.148-0.396,3.504c0.277-0.117,0.938-0.101,1.293-0.256    c0.676,1.314,1.271,2.944,1.191,4.526c0.737-0.273,1.998-0.604,2.804-0.327c0.633,0.219,1.438,1.772,1.661,1.808    c1.918,0.303,3.321-1.824,0.922-2.943c1.402-1.465,2.599-0.232,4.144-0.987"
   id="path159" />
		<path
   fill="#BCBEC0"
   d="M479.062,59.414c-1.377,0.946-2.134,2.535-2.074,4.169c0.186-0.111,0.746-0.308,1.027-0.492    c0.739,1.121-0.604,2.686-0.061,3.662c0.819,1.472,1.239,0.098,2.441,0.863c2.753,1.749,4.885,6.7,4.637,9.9    c-0.43-0.186-0.876-0.161-1.241-0.28c0.511,0.523,2.094,1.558,2.324,2.137c0.264,0.667-0.777,1.133-0.61,1.617    c0.294,0.854,0.939,1.671,1.295,2.581c0.627,1.6,1.446,6.699-1.73,6.061c-0.391,0.946-0.605,2.07-1.021,3.072    c-0.418-0.142-0.665-0.193-1.106-0.521c-0.427,1.278,2.221,2.754,2.534,4.807c0.271,1.793-0.87,3.591-0.032,5.279    c0.205-0.519,0.916-1.083,1.169-1.56c0.612,1.726,2.447,2.512,4.042,1.399c-0.155-0.114-0.225-0.27-0.21-0.466    c1.592-0.665,3.618,1.351,3.117,3.164c-0.323,0.042-0.644,0.077-0.965,0.098c0.25,1.499,2.391,1.975,3.234,3.497    c0.943,1.7,0.976,4.412,0.996,6.318c0.066,5.787-3.422,11.155-0.809,17.104c0.125-1.438,0.759-2.444,1.52-3.739    c0.264,0.459,1.109,0.928,1.34,1.257c1-3.436,1.034-6.769,2.546-10.296c1.44-3.358,1.728-4.567,1.322-8.212    c-0.667-6.006-1.491-11.263-3.904-16.897c-2.266-5.291-2.761-10.885-5.574-16.063c-2.024-3.724-4.476-7.227-7.394-10.309    c-2.535-2.681-4.344-7.066-7.105-9.183c-0.131,0.944-0.505,0.701-0.784,1.265c-0.313-0.283-0.457-0.575-0.698-0.94"
   id="path160" />
	</g>
	
	
	
	
	
	
	
	
	
	
	
	<linearGradient
   id="XMLID_21_"
   gradientUnits="userSpaceOnUse"
   x1="96.6118"
   y1="256.2207"
   x2="96.0039"
   y2="258.9571">
		<stop
   offset="0"
   style="stop-color:#FFFFFF"
   id="stop268" />
		<stop
   offset="0.1046"
   style="stop-color:#FAFAFA"
   id="stop269" />
		<stop
   offset="0.2282"
   style="stop-color:#ECECEC"
   id="stop270" />
		<stop
   offset="0.3616"
   style="stop-color:#D4D4D4"
   id="stop271" />
		<stop
   offset="0.5018"
   style="stop-color:#B2B2B2"
   id="stop272" />
		<stop
   offset="0.6474"
   style="stop-color:#888888"
   id="stop273" />
		<stop
   offset="0.7976"
   style="stop-color:#535353"
   id="stop274" />
		<stop
   offset="0.9487"
   style="stop-color:#161616"
   id="stop275" />
		<stop
   offset="1"
   style="stop-color:#000000"
   id="stop276" />
	</linearGradient>
	
	
		<linearGradient
   id="XMLID_22_"
   gradientUnits="userSpaceOnUse"
   x1="135.9546"
   y1="232.6323"
   x2="135.1961"
   y2="236.0464"
   gradientTransform="matrix(0.9824 -0.1867 0.1867 0.9824 -11.894 52.1387)">
		<stop
   offset="0"
   style="stop-color:#FFFFFF"
   id="stop277" />
		<stop
   offset="0.1046"
   style="stop-color:#FAFAFA"
   id="stop278" />
		<stop
   offset="0.2282"
   style="stop-color:#ECECEC"
   id="stop279" />
		<stop
   offset="0.3616"
   style="stop-color:#D4D4D4"
   id="stop280" />
		<stop
   offset="0.5018"
   style="stop-color:#B2B2B2"
   id="stop281" />
		<stop
   offset="0.6474"
   style="stop-color:#888888"
   id="stop282" />
		<stop
   offset="0.7976"
   style="stop-color:#535353"
   id="stop283" />
		<stop
   offset="0.9487"
   style="stop-color:#161616"
   id="stop284" />
		<stop
   offset="1"
   style="stop-color:#000000"
   id="stop285" />
	</linearGradient>
	
</g>
</svg>
