<?xml version="1.0" encoding="UTF-8" standalone="no"?>
<!-- Generator: Adobe Illustrator 12.0.0, SVG Export Plug-In . SVG Version: 6.00 Build 51448)  -->

<svg
   version="1.1"
   id="Layer_1"
   width="536.764"
   height="308.853"
   viewBox="0 0 536.764 308.853"
   overflow="visible"
   enable-background="new 0 0 536.764 308.853"
   xml:space="preserve"
   sodipodi:docname="skull_bones_nasale.svg"
   inkscape:version="1.4.2 (f4327f4, 2025-05-13)"
   xmlns:inkscape="http://www.inkscape.org/namespaces/inkscape"
   xmlns:sodipodi="http://sodipodi.sourceforge.net/DTD/sodipodi-0.dtd"
   xmlns="http://www.w3.org/2000/svg"
   xmlns:svg="http://www.w3.org/2000/svg"><defs
   id="defs285" /><sodipodi:namedview
   id="namedview285"
   pagecolor="#ffffff"
   bordercolor="#000000"
   borderopacity="0.25"
   inkscape:showpageshadow="2"
   inkscape:pageopacity="0.0"
   inkscape:pagecheckerboard="0"
   inkscape:deskcolor="#d1d1d1"
   inkscape:zoom="2.6128935"
   inkscape:cx="268.4763"
   inkscape:cy="154.4265"
   inkscape:window-width="2560"
   inkscape:window-height="1369"
   inkscape:window-x="1912"
   inkscape:window-y="-8"
   inkscape:window-maximized="1"
   inkscape:current-layer="g285" />

<g
   id="g285">
	
	
	
	
	
	<linearGradient
   id="XMLID_12_"
   gradientUnits="userSpaceOnUse"
   x1="129.3521"
   y1="200.709"
   x2="129.0272"
   y2="171.1463">
		<stop
   offset="0"
   style="stop-color:#FFFFFF"
   id="stop37" />
		<stop
   offset="0.3483"
   style="stop-color:#BCBEC0"
   id="stop38" />
		<stop
   offset="0.4466"
   style="stop-color:#B8BABC"
   id="stop39" />
		<stop
   offset="0.541"
   style="stop-color:#ADAFB1"
   id="stop40" />
		<stop
   offset="0.6338"
   style="stop-color:#9A9C9D"
   id="stop41" />
		<stop
   offset="0.7257"
   style="stop-color:#7F8182"
   id="stop42" />
		<stop
   offset="0.817"
   style="stop-color:#5D5E5F"
   id="stop43" />
		<stop
   offset="0.9078"
   style="stop-color:#333334"
   id="stop44" />
		<stop
   offset="0.9965"
   style="stop-color:#020202"
   id="stop45" />
		<stop
   offset="1"
   style="stop-color:#000000"
   id="stop46" />
	</linearGradient>
	
	
	
	
	<linearGradient
   id="XMLID_15_"
   gradientUnits="userSpaceOnUse"
   x1="166.7222"
   y1="106.3491"
   x2="167.5948"
   y2="109.1841">
		<stop
   offset="0"
   style="stop-color:#F4D58D"
   id="stop77" />
		<stop
   offset="0.1072"
   style="stop-color:#EFD18A"
   id="stop78" />
		<stop
   offset="0.2341"
   style="stop-color:#E1C482"
   id="stop79" />
		<stop
   offset="0.3708"
   style="stop-color:#C9AF74"
   id="stop80" />
		<stop
   offset="0.5146"
   style="stop-color:#A79261"
   id="stop81" />
		<stop
   offset="0.6639"
   style="stop-color:#7D6D48"
   id="stop82" />
		<stop
   offset="0.8179"
   style="stop-color:#483F2A"
   id="stop83" />
		<stop
   offset="0.9728"
   style="stop-color:#0B0A07"
   id="stop84" />
		<stop
   offset="1"
   style="stop-color:#000000"
   id="stop85" />
	</linearGradient>
	
	
	
	
	
	
	
	
	
	
	
	
	
	
	
	
	
	
	<g
   id="g286"><path
     fill="#FFFFFF"
     stroke="#000000"
     stroke-width="0.7797"
     d="M131.957,150.691c0.239-1.258,0.148-2.667,0.347-3.846   c0.592-3.499,0.81-7.896-0.694-11.2c-0.748-1.647-1.56-2.199-1.768-4.082c-0.059-0.529,0.095-1.696-0.267-2.132   c-0.023-0.026-0.844-1.048-0.944-0.437c0.03-0.175-0.056-0.588,0-0.811c-1.617-0.23-4.618,2.729-5.229,1.503   c-1.514,1.527-4.028,1.841-1.955,4.364c0.977,1.19,1.577,1.398,1.797,3.026c0.51,3.763-1.453,5.849-2.646,9.092   c-0.805,2.19-1.259,4.534-1.255,6.872c0.001,1.43-0.048,4.96,1.25,5.829c0.817-0.999,1.458-2.214,2.108-3.329   c0.197-0.34,2.956-4.13,3.359-3.251c0.29,0.635,0.634,1.098,0.772,1.802c2.098-1.031,3.23,0.508,4.631-1.975   C131.709,151.682,131.86,151.2,131.957,150.691z"
     id="path86" /><g
     id="g88">
		<path
   fill="#FFFFFF"
   stroke="#000000"
   stroke-width="0.7797"
   d="M140.695,161.627c-0.575-2.726-3.43-5.395-2.671-8.307    c-0.395,0.266-2.816,0.045-2.802-0.084c0.163-1.448-0.892-2.875-2.284-2.181c-0.516,1.534-0.715,3.707-2.93,2.818    c0.485-3.851,0.256-8.367,0.039-11.971c-0.079-1.31-0.79-2.354-0.925-3.645c-0.16-1.488,0.346-2.988,0.404-4.472    c0.096-2.393-1.44-4.095,0.692-5.549c2.167,1.629,4.045-0.421,6.2,0.119c-0.161-0.04,2.024,0.976,1.954,0.928    c0.689,0.484,1.195,0.763,0.707,1.694c1.672,1.413-1.169,4.315-1.599,5.835c-1.119,3.964,2.045,7.325,2.98,10.869    C141.664,152.24,139.738,157.088,140.695,161.627z"
   id="path87" />
		<path
   fill="#D8D9DA"
   d="M132.819,137.78c0.126,0.612,0.315,1.202,0.564,1.772c-0.104-0.235,0.285-0.816,0.428-0.982    c2.525,2.809,2.383,8.691,2.582,12.264c0.304,0.022,0.419-0.285,0.7-0.375c0.449,1.159,0.121,0.961,0.848,1.322    c0.787,1.872,0.55,3.889,0.521,5.893c2.12-3.408,1.582-7.022,0.413-10.642c-0.806-2.499-4.087-7.407-2.932-10.05    c1.452-0.874,1.966-3.42,1.583-5.266c-1.306,1.811-2.717,4.151-4.594,5.565c-0.187-0.201-0.36-0.489-0.578-0.654    C132.299,137.106,132.486,137.438,132.819,137.78"
   id="path88" />
	</g><g
     id="g173">
		<path
   fill="#FFFFFF"
   stroke="#000000"
   stroke-width="0.426"
   d="M273.679,140.585c1.148,0.491,2.59,0.238,3.735-0.051    c-0.138,0.564-1.052,1.979-1.063,2.431c-0.036,1.382,1.885,0.755,0.541,2.502c1.209,1.039,0.951,2.65,0.976,4.135    c0.853-0.671,1.788-0.722,2.725-0.292c0.706-2.126,3.628-2.474,5.263-3.41c-1.957-6.878,7.425-10.752,9.449-16.395    c1.123-3.131,1.383-10.51-2.898-12.05c2.072,0.745-2.491,8.89-3.25,9.982c-3.279,4.711-9.375,5.534-13.221,9.517    C275.65,137.247,274.568,140.964,273.679,140.585z"
   id="path171" />
		<path
   fill="#D8D9DA"
   d="M279.235,146.523c1.493-0.292,2.022-1.238,1.463-2.387c1.356-1.273,2.061-3.759,3.073-5.048    c1.095-1.396,1.961-2.958,2.92-3.923c1.254-1.267,2.874-2.076,3.911-3.629c0.901-1.35,2.433-4.925-0.69-3.516    c1.155-1.605,2.094-3.984,3.078-5.614c1.674,6.392,0.008,8.174-3.912,12.404c-2.58,2.784-5.358,7.234-5.999,10.943    c-1.192,0.48-2.003,1.464-2.858,2.402c-0.504-0.205-0.765-0.466-1.039-0.905c0.256-0.338,0.482-0.778,0.764-1.082"
   id="path172" />
		<path
   fill="none"
   d="M278.88,139.068c0.16,0.439,0.278,0.888,0.355,1.347c0.588-0.459,1.233-1.169,1.648-1.816    c-0.756-0.012-1.617,0.153-2.359,0.469"
   id="path173" />
	</g></g>
	
	
	
	
	
	
	
	
	<linearGradient
   id="XMLID_21_"
   gradientUnits="userSpaceOnUse"
   x1="96.6118"
   y1="256.2207"
   x2="96.0039"
   y2="258.9571">
		<stop
   offset="0"
   style="stop-color:#FFFFFF"
   id="stop268" />
		<stop
   offset="0.1046"
   style="stop-color:#FAFAFA"
   id="stop269" />
		<stop
   offset="0.2282"
   style="stop-color:#ECECEC"
   id="stop270" />
		<stop
   offset="0.3616"
   style="stop-color:#D4D4D4"
   id="stop271" />
		<stop
   offset="0.5018"
   style="stop-color:#B2B2B2"
   id="stop272" />
		<stop
   offset="0.6474"
   style="stop-color:#888888"
   id="stop273" />
		<stop
   offset="0.7976"
   style="stop-color:#535353"
   id="stop274" />
		<stop
   offset="0.9487"
   style="stop-color:#161616"
   id="stop275" />
		<stop
   offset="1"
   style="stop-color:#000000"
   id="stop276" />
	</linearGradient>
	
	
		<linearGradient
   id="XMLID_22_"
   gradientUnits="userSpaceOnUse"
   x1="135.9546"
   y1="232.6323"
   x2="135.1961"
   y2="236.0464"
   gradientTransform="matrix(0.9824 -0.1867 0.1867 0.9824 -11.894 52.1387)">
		<stop
   offset="0"
   style="stop-color:#FFFFFF"
   id="stop277" />
		<stop
   offset="0.1046"
   style="stop-color:#FAFAFA"
   id="stop278" />
		<stop
   offset="0.2282"
   style="stop-color:#ECECEC"
   id="stop279" />
		<stop
   offset="0.3616"
   style="stop-color:#D4D4D4"
   id="stop280" />
		<stop
   offset="0.5018"
   style="stop-color:#B2B2B2"
   id="stop281" />
		<stop
   offset="0.6474"
   style="stop-color:#888888"
   id="stop282" />
		<stop
   offset="0.7976"
   style="stop-color:#535353"
   id="stop283" />
		<stop
   offset="0.9487"
   style="stop-color:#161616"
   id="stop284" />
		<stop
   offset="1"
   style="stop-color:#000000"
   id="stop285" />
	</linearGradient>
	
</g>
</svg>
