<?xml version="1.0" encoding="UTF-8" standalone="no"?>
<!-- Generator: Adobe Illustrator 12.0.0, SVG Export Plug-In . SVG Version: 6.00 Build 51448)  -->

<svg
   version="1.1"
   id="Layer_1"
   width="243.85306"
   height="516.15979"
   viewBox="0 0 243.85307 516.1598"
   overflow="visible"
   enable-background="new 0 0 536.764 308.853"
   xml:space="preserve"
   sodipodi:docname="skull_bones_mandibula.svg"
   inkscape:version="1.4.2 (f4327f4, 2025-05-13)"
   xmlns:inkscape="http://www.inkscape.org/namespaces/inkscape"
   xmlns:sodipodi="http://sodipodi.sourceforge.net/DTD/sodipodi-0.dtd"
   xmlns="http://www.w3.org/2000/svg"
   xmlns:svg="http://www.w3.org/2000/svg"><defs
   id="defs285" /><sodipodi:namedview
   id="namedview285"
   pagecolor="#ffffff"
   bordercolor="#000000"
   borderopacity="0.25"
   inkscape:showpageshadow="2"
   inkscape:pageopacity="0.0"
   inkscape:pagecheckerboard="0"
   inkscape:deskcolor="#d1d1d1"
   inkscape:zoom="1.3359003"
   inkscape:cx="104.79824"
   inkscape:cy="189.75967"
   inkscape:window-width="2560"
   inkscape:window-height="1369"
   inkscape:window-x="1912"
   inkscape:window-y="-8"
   inkscape:window-maximized="1"
   inkscape:current-layer="g285" />

<g
   id="g285"
   transform="translate(-49.76388,-17.411481)">
	<g
   id="g16"
   transform="translate(42.667855)">
		<g
   id="g8">
			<path
   fill="#ffffff"
   stroke="#000000"
   stroke-width="0.7797"
   d="m 185.284,176.839 c -3.404,2.307 -3.182,3.507 -2.966,7.682 0.488,9.402 1.669,19.146 0.766,28.467 -3.946,40.628 -58.658,32.301 -86.187,24.525 -16.185,-4.569 -19.205,-25.597 -21.017,-39.931 -0.742,-5.874 -0.014,-11.665 -3.216,-16.99 -2.667,-4.43 -8.315,-10.499 -13.462,-11.858 -14.327,-3.78 -5.938,26.154 -4.581,30.974 2.412,8.568 5.313,16.91 7.3,25.604 2.054,8.982 0.358,20.47 7.858,27.043 4.009,3.515 9.249,5.463 13.827,8.258 5.446,3.325 10.864,6.838 16.339,9.916 3.651,2.052 8,4.689 12.086,5.434 8.378,1.525 17.667,-0.344 26.17,-0.531 4.178,-0.093 8.05,-0.464 12.224,0.012 3.513,0.4 6.577,0.686 9.983,-0.329 6.959,-2.074 12.825,-7.723 17.325,-13.1 6.779,-8.099 15.789,-14.547 19.905,-24.582 1.668,-4.064 3.634,-7.942 4.042,-12.382 0.358,-3.869 0.198,-7.33 1.085,-11.129 2.153,-9.2 2.14,-19.312 3.111,-28.741 0.37,-3.615 1.903,-9.993 1.116,-13.431 -0.771,-3.363 -3.572,-2.89 -6.665,-2.158 -5.277,1.248 -10.574,4.219 -15.043,7.247 z"
   id="path1" />
			<path
   fill="#d8d9da"
   d="m 75.784,205.344 c -1.056,-4.162 -0.261,-10.374 -2.934,-13.814 -2.945,4.058 -1.202,11.814 -0.468,16.439 0.74,4.665 1.622,9.422 2.954,13.946 2.028,6.884 3.393,15.175 9.292,19.871 -0.298,-3.122 0.215,-7.692 -0.457,-10.284 -1.034,-3.997 -3.695,-7.618 -4.791,-11.787 -1.238,-4.712 -2.385,-9.597 -3.596,-14.371 z"
   id="path2" />
			<path
   fill="#d8d9da"
   d="m 188.323,197.902 c 0,-3.46 2.094,-9.168 -0.968,-11.776 -3.301,5.118 -1.302,11.746 -1.648,17.461 -0.29,4.757 -0.333,9.773 -1.319,14.384 -1.875,8.751 -8.493,15.627 -9.604,24.274 2.411,-3.583 6.564,-5.304 8.866,-8.563 2.101,-2.982 4.809,-10.835 5.133,-14.405 0.612,-6.753 -0.46,-14.469 -0.46,-21.375 z"
   id="path3" />
			<path
   fill="#d8d9da"
   d="m 66.62,218.938 c 0.732,4.624 1.276,9.425 1.087,14.114 -0.125,3.098 -1.886,8.9 -0.522,11.805 -1.926,-4.106 -2.33,-6.78 -1.776,-11.197 2.386,-19.081 -13.279,-34.978 -10.794,-54.018 5.849,2.867 8.417,13.521 9.45,19.319 1.178,6.626 1.505,13.348 2.555,19.977 z"
   id="path4" />
			<path
   fill="#d8d9da"
   d="m 203.576,177.004 c -3.713,2.488 -4.154,12.861 -5.093,16.887 -1.811,7.769 -3.609,15.624 -3.622,23.645 -0.01,5.202 2.771,9.291 3.825,14.259 0.882,-9.503 1.841,-18.452 1.841,-28.183 0,-7.013 0.437,-13.315 2.286,-20.077 0.335,-1.224 1.79,-9.674 -0.544,-6.095"
   id="path5" />
			<path
   fill="#d8d9da"
   d="m 142.211,268.05 c 3.452,-0.739 6.161,1.718 8.944,3.525 -0.7,-0.959 -1.346,-1.98 -1.902,-3.016 1.865,1.125 3.953,2.433 5.889,3.409 -1.913,-3.469 -6.851,-4.609 -9.528,-7.801 -1.965,-2.343 -2.936,-4.335 -2.99,-7.344 0.378,-0.072 0.724,-0.07 1.093,-0.13 -0.396,0.063 -3.682,-5.253 -4.072,-5.863 -0.183,1.241 0.555,17.651 2.566,17.22 z"
   id="path6" />
			<path
   fill="#d8d9da"
   d="m 170.068,259.607 c -1.25,4.251 -3.006,7.853 -5.657,7.987 2.01,-7.422 6.285,-14.014 8.593,-21.162 -0.69,2.14 -1.453,8.117 -2.936,13.175 z"
   id="path7" />
			<path
   fill="#d8d9da"
   d="m 176.993,256.759 c 1.504,-3.58 6.058,-5.584 8.739,-8.175 2.865,-2.77 5.847,-6.13 7.85,-9.536 -1.379,4.016 -4.07,8.015 -6.981,11.164 -3.31,3.581 -8.096,4.945 -11.351,8.726"
   id="path8" />
		</g>
		<path
   fill="#d8d9da"
   d="m 99.702,251.869 c -0.211,-2.429 -0.2,-5.222 -0.837,-7.532 -1.5,0.557 -1.285,1.704 -0.962,3.003 0.384,1.545 1.659,2.916 1.799,4.529 z"
   id="path9" />
		<path
   fill="#d8d9da"
   d="m 165.397,244.773 c -2.235,0.297 -2.133,4.592 -1.969,6.438 0.427,-1.74 3.008,-5.104 1.642,-6.438"
   id="path10" />
		<path
   fill="#d8d9da"
   d="m 92.506,242.159 c 0.243,0.39 0.536,0.734 0.882,1.03 -0.76,1.287 0.655,3.012 1.258,4.181 -0.352,-1.567 -0.449,-4.151 -1.813,-4.885"
   id="path11" />
		<path
   fill="#d8d9da"
   d="m 110.483,246.735 c 0.438,1.22 1.116,2.148 2.254,2.694 -1.713,1.618 1.027,7.319 2.189,9.109 -2.176,-2.029 -4.759,-8.89 -4.466,-12.032 0.4,0.463 0.754,1.002 1.003,1.536"
   id="path12" />
		<path
   fill="#d8d9da"
   d="m 151.342,248.696 c 0.817,-0.706 1.629,-1.361 2.571,-1.846 -0.194,0.661 -0.332,1.681 -0.635,2.377 0.056,-0.125 0.155,-0.175 0.295,-0.148 -0.604,1.485 -0.161,3.494 0.365,4.749 1.247,-2.294 2.595,-4.844 4.216,-6.985 -1.46,2.83 -3.568,5.867 -4.28,9.018 -0.061,-0.092 -0.208,-0.414 -0.319,-0.596 -0.672,0.714 -1.16,1.755 -1.249,2.835 0.504,-1.55 1.613,-5.335 0.595,-6.661 -0.176,0.141 -0.348,0.284 -0.516,0.433 -0.079,-0.46 -0.077,-0.77 -0.366,-1.143 -0.339,0.537 -1.095,1.094 -1.348,1.773 0.368,-1.383 0.625,-2.705 0.343,-4.133"
   id="path13" />
		<path
   fill="#d8d9da"
   d="m 119.962,249.35 c 0.807,-1.224 1.611,-1.705 2.143,-2.989 -0.02,-0.111 -0.174,0.73 -0.141,0.646 0.375,-0.105 1.16,-0.168 1.544,-0.238 -0.807,3.217 -0.663,6.73 -1.18,9.627 -0.211,-2.625 -1.258,-5.072 -1.386,-7.698"
   id="path14" />
		<path
   fill="#d8d9da"
   d="m 132.056,247.716 c -2.162,0.799 -0.678,4.027 -0.582,5.881 0.684,-1.538 0.256,-4.09 0.256,-5.881"
   id="path15" />
		<path
   fill="#d8d9da"
   d="m 141.209,248.043 c 0.817,0.242 1.417,0.455 1.599,1.252 -0.19,0.032 -0.381,0.063 -0.572,0.095 0.069,0.906 0.205,1.907 0.467,2.802 -1.228,-1.869 -2.373,-3.722 -1.503,-6.019 0.242,0.927 0.676,1.809 1.317,2.523"
   id="path16" />
	</g>
	
	
	
	
	<linearGradient
   id="XMLID_12_"
   gradientUnits="userSpaceOnUse"
   x1="129.3521"
   y1="200.709"
   x2="129.02721"
   y2="171.1463"
   gradientTransform="translate(42.667855)">
		<stop
   offset="0"
   style="stop-color:#FFFFFF"
   id="stop37" />
		<stop
   offset="0.3483"
   style="stop-color:#BCBEC0"
   id="stop38" />
		<stop
   offset="0.4466"
   style="stop-color:#B8BABC"
   id="stop39" />
		<stop
   offset="0.541"
   style="stop-color:#ADAFB1"
   id="stop40" />
		<stop
   offset="0.6338"
   style="stop-color:#9A9C9D"
   id="stop41" />
		<stop
   offset="0.7257"
   style="stop-color:#7F8182"
   id="stop42" />
		<stop
   offset="0.817"
   style="stop-color:#5D5E5F"
   id="stop43" />
		<stop
   offset="0.9078"
   style="stop-color:#333334"
   id="stop44" />
		<stop
   offset="0.9965"
   style="stop-color:#020202"
   id="stop45" />
		<stop
   offset="1"
   style="stop-color:#000000"
   id="stop46" />
	</linearGradient>
	
	
	
	
	<linearGradient
   id="XMLID_15_"
   gradientUnits="userSpaceOnUse"
   x1="166.7222"
   y1="106.3491"
   x2="167.5948"
   y2="109.1841"
   gradientTransform="translate(42.667855)">
		<stop
   offset="0"
   style="stop-color:#F4D58D"
   id="stop77" />
		<stop
   offset="0.1072"
   style="stop-color:#EFD18A"
   id="stop78" />
		<stop
   offset="0.2341"
   style="stop-color:#E1C482"
   id="stop79" />
		<stop
   offset="0.3708"
   style="stop-color:#C9AF74"
   id="stop80" />
		<stop
   offset="0.5146"
   style="stop-color:#A79261"
   id="stop81" />
		<stop
   offset="0.6639"
   style="stop-color:#7D6D48"
   id="stop82" />
		<stop
   offset="0.8179"
   style="stop-color:#483F2A"
   id="stop83" />
		<stop
   offset="0.9728"
   style="stop-color:#0B0A07"
   id="stop84" />
		<stop
   offset="1"
   style="stop-color:#000000"
   id="stop85" />
	</linearGradient>
	
	
	
	
	
	
	
	
	
	
	
	
	
	
	
	
	
	
	
	
	
	
	
	<g
   id="g208"
   transform="translate(-217.08207,264.24128)">
		<path
   fill="#ffffff"
   stroke="#000000"
   stroke-width="0.426"
   d="m 273.607,235.041 c 0.47,2.524 2.695,4.365 3.125,6.823 1.053,6.021 -3.51,10.9 -3.825,16.604 -0.466,8.391 6.841,10.649 13.844,10.649 3.451,0 6.321,-0.656 9.661,-1.046 3.342,-0.39 6.646,-0.049 9.861,-0.374 3.135,-0.319 5.898,-1.957 8.957,-2.226 2.902,-0.254 5.875,-0.808 8.792,-0.978 3.929,-0.229 7.735,-0.225 11.661,-0.712 6.627,-0.823 13.18,-2.243 19.435,-4.606 7.032,-2.656 15.116,-10.352 14.971,-18.458 -0.087,-4.891 1.453,-9.696 2.651,-14.578 2.79,-11.372 5.627,-22.83 11.964,-32.719 4.032,-6.292 6.81,-11.876 7.115,-19.443 0.292,-7.195 -10.205,-9.649 -13.218,-3.187 -1.202,2.578 0.447,4.095 0.804,6.381 0.502,3.234 -1.235,4.953 -3.479,6.832 -3.635,3.042 -10.356,7.141 -15.351,5.885 -1.971,-0.495 -3.689,-2.734 -4.875,-4.189 -3.103,-3.805 -3.465,-8.242 -5.498,-12.413 -1.09,-2.235 -3.229,-4.801 -6.039,-4.06 -2.881,0.76 -3.636,4.687 -4.09,7.233 -1.123,6.29 -2.128,12.45 -1.527,18.776 0.531,5.601 0.775,11.196 1.033,16.813 0.152,3.313 0.49,6.137 -2.139,8.591 -4.354,4.062 -11.748,3.915 -17.253,4.896 -8.569,1.524 -17.007,3.217 -25.745,3.834 -3.238,0.229 -6.183,0.684 -9.418,0.42 -2.947,-0.238 -7.154,-0.963 -9.766,0.849 -1.684,1.172 -2.044,2.3 -1.651,4.403 z"
   id="path190" />
		<path
   fill="#d8d9da"
   d="m 286.429,233.746 c -2.504,2.997 -3.829,0.202 -6.4,0.341 -1.593,0.086 -4.317,3.485 -6.028,1.079 3.233,4.548 3.423,8.487 1.843,13.779 -2.082,6.975 -4.502,11.702 2.254,16.674 -1.285,-1.582 -2.832,-3.908 -2.715,-6.086 0.104,-1.896 2.182,-4.888 3.938,-2.246 -0.054,-2.027 -0.783,-8.101 2.051,-7.747 -0.153,-2.798 1.456,-3.649 -0.034,-5.911 -1.271,-1.93 -5.147,-4.954 -3.486,-7.844 2.188,0.25 7.516,3.385 5.031,6.258 1.186,0.851 2.143,1.976 3.262,2.908 0.389,-1.098 0.215,-2.552 0.304,-3.814 0.483,-0.077 0.899,-0.422 1.33,-0.505 -1.971,-2.484 -3.336,-3.509 -1.35,-6.886 z"
   id="path191" />
		<path
   fill="#d8d9da"
   d="m 288.525,231.846 c -0.5,0.609 -0.979,1.233 -1.438,1.874 0.27,0.69 0.871,1.56 1.535,1.986 2.896,-1.417 4.293,5.086 4.891,6.661 0.517,-3.973 -2.548,-8.211 -5.344,-10.521"
   id="path192" />
		<path
   fill="#d8d9da"
   d="m 296.689,231.846 c -3.013,2.559 -2.561,2.155 0.018,4.5 0.209,-2.425 3.056,-2.83 4.834,-3.824 -1.674,1.298 -4.32,0.35 -5.561,-1.03"
   id="path193" />
		<path
   fill="#d8d9da"
   d="m 316.922,230.072 c 2.249,-0.3 3.519,-1.726 5.316,-2.495 1.516,-0.647 3.481,-0.627 5.057,-1.126 3.45,-1.093 6.843,-1.563 9.718,-3.798 -3.738,5.792 -8.887,9.086 -15.164,11.88 0.607,-0.457 1.916,-1.797 1.684,-2.686 -0.538,-2.063 -2.189,-0.626 -2.963,-0.616 -2.393,0.029 -5,1.34 -6.735,-1.099 1.114,-0.076 2.31,-0.201 3.442,-0.416"
   id="path194" />
		<path
   fill="#d8d9da"
   d="m 293.882,260.659 c 1.564,-1.724 1.174,-2.696 4.107,-3.287 -4.334,5.136 0.479,7.606 5.752,5.01 1.309,-0.645 1.965,-2.301 2.951,-2.796 1.468,-0.738 5.435,-0.92 7.032,-0.708 -1.486,3.594 7.509,2.404 9.159,2.003 2.033,-0.492 5.21,-3.458 7.111,-2.716 0.318,1.473 3.473,0.983 4.682,0.238 2.227,-1.37 1.609,-5.215 3.131,-6.748 0.795,-0.802 5.015,-2.876 6.062,-2.82 2.294,0.123 1.104,0 2.249,2.11 0.69,1.275 1.344,4.136 3.01,3.66 2.619,3.896 10.072,-2.658 12.156,-4.656 3.45,-3.307 6.438,-7.081 5.971,-12.04 -1.729,2.057 -2.902,4.81 -4.499,6.989 0.808,-2.639 -0.101,-5.485 -0.417,-8.081 -0.307,-2.502 -0.042,-2.872 0.807,-5.032 0.369,-0.938 0.509,-2.727 0.978,-3.513 0.506,-0.847 1.403,-0.651 2.052,-1.443 2.182,-2.662 4.249,-6.2 5.438,-9.4 -0.319,0.42 -0.474,0.806 -0.7,1.232 0.397,0.155 0.694,-0.004 1.037,0.255 0.744,-1.618 3.591,-6.142 0.473,-6.595 4.766,-3.309 4.423,-12.706 7.24,-17.408 2.532,-4.224 7.971,-9.811 5.422,-15.21 -2.205,1.14 -1.995,4.211 -2.85,6.334 -1.592,3.953 -3.65,5.559 -6.611,8.156 0.069,-0.339 0.132,-0.674 0.179,-0.978 -5.081,-2.435 -12.656,3.441 -18.242,1.812 6.999,-2.268 14.203,-4.292 19.271,-10.055 1.766,-2.008 6.417,-6.091 4.118,-8.884 0.329,-0.099 1.259,-0.299 1.599,-0.293 0.006,0.37 -0.015,0.681 -0.003,0.995 1.304,-0.474 6.297,-3.018 4.765,-5.039 -1.566,-2.066 -5.736,1.632 -6.796,2.208 -2.276,-6.448 10.248,-6.622 10.881,1.446 0.472,6.026 -5.695,12.397 -8.46,17.375 -4.805,8.65 -7.378,18.056 -9.564,27.618 -1.317,5.76 -2.55,11.588 -3.656,17.4 -0.805,4.217 -1.433,7.962 -3.816,11.439 -7.852,11.459 -22.391,10.639 -34.846,12.502 -8.959,1.339 -18.186,2.131 -27.014,3.827 -7.57,1.453 -15.428,2.416 -23.054,0.82 5.552,1.815 9.519,-2.006 12.895,-5.727 z"
   id="path195" />
		<path
   fill="#d8d9da"
   d="m 341.059,218.712 c -1.167,5.521 -4.322,10.252 -8.499,13.975 1.533,-0.473 6.969,-1.38 7.133,-2.94 2.26,0.781 3.335,3.697 3.877,5.867 -0.068,-2.295 0.057,-4.389 0.399,-6.588 1.972,1.374 2.903,6.29 3.487,8.578 0.819,3.214 1.492,6.411 2.752,9.448 0.604,-6.402 -1.137,-13.504 -2.147,-19.828 -0.944,-5.903 -0.079,-12.082 -0.602,-18.078 -0.498,-5.701 -1.449,-11.424 -1.43,-17.134 0.005,-1.884 -0.846,-9.46 1.356,-9.027 -2.853,-2.985 0.724,-5.165 3.48,-4.073 -1.168,-2.256 -3.04,-8.761 -6.256,-8.49 -3.563,0.302 -4,10.007 -4.341,12.449 -1.656,11.868 3.267,24.135 0.791,35.841 z"
   id="path196" />
		<path
   fill="#bcbec0"
   d="m 388.271,169.017 c -2.233,-0.651 -3.625,-1.826 -6.072,-0.712 -0.89,0.405 -1.963,1.077 -2.364,2.023 -0.133,0.312 -0.172,2.697 -0.014,2.558 0.846,-0.746 3.496,-3.095 4.702,-2.753 1.516,0.429 1.854,5.588 1.974,7.128 0.275,3.557 -0.182,6.921 -1.332,10.234 -2.393,6.896 -5.734,13.767 -8.555,20.46 4.246,-7.639 9.182,-15.817 12.114,-24.019 1.128,-3.153 5.082,-17.409 -2.938,-15.628"
   id="path197" />
		<path
   fill="#bcbec0"
   d="m 347.027,170.855 c -1.437,-0.338 -2.604,0.609 -3.59,1.516 -2.397,2.203 -4.286,6.747 -3.705,9.96 2.034,-2.769 6.092,-8.797 10.135,-7.805 -0.842,-1.072 -1.337,-3.317 -2.84,-3.671 z"
   id="path198" />
		<linearGradient
   id="XMLID_18_"
   gradientUnits="userSpaceOnUse"
   x1="291.146"
   y1="250.81931"
   x2="295.979"
   y2="250.81931">
			<stop
   offset="0"
   style="stop-color:#FFFFFF"
   id="stop198" />
			<stop
   offset="0.1046"
   style="stop-color:#FAFAFA"
   id="stop199" />
			<stop
   offset="0.2282"
   style="stop-color:#ECECEC"
   id="stop200" />
			<stop
   offset="0.3616"
   style="stop-color:#D4D4D4"
   id="stop201" />
			<stop
   offset="0.5018"
   style="stop-color:#B2B2B2"
   id="stop202" />
			<stop
   offset="0.6474"
   style="stop-color:#888888"
   id="stop203" />
			<stop
   offset="0.7976"
   style="stop-color:#535353"
   id="stop204" />
			<stop
   offset="0.9487"
   style="stop-color:#161616"
   id="stop205" />
			<stop
   offset="1"
   style="stop-color:#000000"
   id="stop206" />
		</linearGradient>
		<path
   fill="url(#XMLID_18_)"
   d="m 295.98,249.949 c -0.21,2.997 -6.227,2.717 -4.533,0.416 0.959,-1.304 5.928,-1.365 3.822,1.359"
   id="path206"
   style="fill:url(#XMLID_18_)" />
		<path
   fill="#bcbec0"
   d="m 273.736,232.793 c -0.386,1.354 0.463,1.803 1.188,0.806 1.177,3.019 4.434,-0.602 6.107,-1.249 0.689,3.644 5.211,1.203 6.666,-0.296 2.057,1.316 3.602,2.027 5.917,1.033 0.785,-0.337 1.555,-1.311 2.366,-1.507 0.697,-0.171 2.695,0.066 3.549,0.017 2.162,-0.124 3.992,-0.429 5.922,-0.75 0.741,-0.124 1.762,-0.002 2.592,-0.172 0.996,-0.206 1.768,-1.306 2.609,-1.456 0.749,-0.133 1.48,0.511 2.366,0.497 1.181,-0.019 1.972,-0.541 3.077,-0.774 0.959,-0.202 1.898,0.015 2.84,-0.166 1.287,-0.247 2.627,-1.194 3.838,-1.597 2.832,-0.94 5.84,-1.449 8.703,-2.497 1.416,-0.518 4.453,-0.945 5.266,-2.236 0.243,-0.387 0.334,-0.535 0.383,-0.975 -1.785,-0.191 -3.828,-0.045 -5.611,-0.002 -4.179,0.103 -7.877,2.438 -11.91,3.29 -5.52,1.167 -11.132,2.202 -16.709,3.06 -5.557,0.854 -11.082,2.477 -16.697,2.856 -3.21,0.218 -6.407,0.263 -9.621,0.461 -2.887,0.178 -2.681,1.105 -2.84,3.077"
   id="path207" />
		<path
   fill="#bcbec0"
   d="m 281.543,266.87 c 1.522,2.038 6.922,0.351 8.997,0.237 3.036,-0.167 6.006,-0.679 9.049,-0.712 5.358,-0.06 10.464,-2.012 15.801,-2.104 5.033,-0.089 10.551,-0.311 15.57,-0.907 6.059,-0.718 11.904,-1.758 17.885,-3.026 5.797,-1.23 11.956,-3.037 14.972,-8.626 -1.522,2.823 -8.059,5.146 -10.905,6.117 -4.303,1.469 -9.076,1.601 -13.568,1.975 -8.76,0.729 -17.793,1.323 -26.388,3.253 -10.099,2.27 -20.089,4.504 -30.465,4.504"
   id="path208" />
	</g>
	
	
	
	<linearGradient
   id="XMLID_21_"
   gradientUnits="userSpaceOnUse"
   x1="96.611801"
   y1="256.2207"
   x2="96.003899"
   y2="258.95709"
   gradientTransform="translate(42.667855)">
		<stop
   offset="0"
   style="stop-color:#FFFFFF"
   id="stop268" />
		<stop
   offset="0.1046"
   style="stop-color:#FAFAFA"
   id="stop269" />
		<stop
   offset="0.2282"
   style="stop-color:#ECECEC"
   id="stop270" />
		<stop
   offset="0.3616"
   style="stop-color:#D4D4D4"
   id="stop271" />
		<stop
   offset="0.5018"
   style="stop-color:#B2B2B2"
   id="stop272" />
		<stop
   offset="0.6474"
   style="stop-color:#888888"
   id="stop273" />
		<stop
   offset="0.7976"
   style="stop-color:#535353"
   id="stop274" />
		<stop
   offset="0.9487"
   style="stop-color:#161616"
   id="stop275" />
		<stop
   offset="1"
   style="stop-color:#000000"
   id="stop276" />
	</linearGradient>
	<path
   fill="url(#XMLID_21_)"
   d="m 137.05385,256.874 c 1.608,-0.553 3.448,-0.086 4.295,1.528 -1.047,1.207 -3.991,0.246 -4.903,-0.92"
   id="path276"
   style="fill:url(#XMLID_21_)" />
	
		<linearGradient
   id="XMLID_22_"
   gradientUnits="userSpaceOnUse"
   x1="135.95461"
   y1="232.63229"
   x2="135.19611"
   y2="236.0464"
   gradientTransform="matrix(0.9824,-0.1867,0.1867,0.9824,30.773855,52.1387)">
		<stop
   offset="0"
   style="stop-color:#FFFFFF"
   id="stop277" />
		<stop
   offset="0.1046"
   style="stop-color:#FAFAFA"
   id="stop278" />
		<stop
   offset="0.2282"
   style="stop-color:#ECECEC"
   id="stop279" />
		<stop
   offset="0.3616"
   style="stop-color:#D4D4D4"
   id="stop280" />
		<stop
   offset="0.5018"
   style="stop-color:#B2B2B2"
   id="stop281" />
		<stop
   offset="0.6474"
   style="stop-color:#888888"
   id="stop282" />
		<stop
   offset="0.7976"
   style="stop-color:#535353"
   id="stop283" />
		<stop
   offset="0.9487"
   style="stop-color:#161616"
   id="stop284" />
		<stop
   offset="1"
   style="stop-color:#000000"
   id="stop285" />
	</linearGradient>
	<path
   fill="url(#XMLID_22_)"
   d="m 205.63985,257.944 c 0.874,1.011 4.244,0.918 4.117,-0.935 -0.193,-2.704 -4.217,0.82 -4.117,0.935"
   id="path285"
   style="fill:url(#XMLID_22_)" />
</g>
</svg>
