<?xml version="1.0" encoding="UTF-8" standalone="no"?>
<!-- Generator: Adobe Illustrator 12.0.0, SVG Export Plug-In . SVG Version: 6.00 Build 51448)  -->

<svg
   version="1.1"
   id="Layer_1"
   width="468.82397"
   height="259.53882"
   viewBox="0 0 468.82399 259.53882"
   overflow="visible"
   enable-background="new 0 0 536.764 308.853"
   xml:space="preserve"
   sodipodi:docname="skull_bones_maxilla.svg"
   inkscape:version="1.4.2 (f4327f4, 2025-05-13)"
   xmlns:inkscape="http://www.inkscape.org/namespaces/inkscape"
   xmlns:sodipodi="http://sodipodi.sourceforge.net/DTD/sodipodi-0.dtd"
   xmlns="http://www.w3.org/2000/svg"
   xmlns:svg="http://www.w3.org/2000/svg"><defs
   id="defs285">
			
			
			
			
			
			
			
			
			
			
			
			
		
	
	
	
	
	
	<linearGradient
   id="XMLID_12_"
   gradientUnits="userSpaceOnUse"
   x1="129.3521"
   y1="200.709"
   x2="129.02721"
   y2="171.1463">
		<stop
   offset="0"
   style="stop-color:#FFFFFF"
   id="stop37" />
		<stop
   offset="0.3483"
   style="stop-color:#BCBEC0"
   id="stop38" />
		<stop
   offset="0.4466"
   style="stop-color:#B8BABC"
   id="stop39" />
		<stop
   offset="0.541"
   style="stop-color:#ADAFB1"
   id="stop40" />
		<stop
   offset="0.6338"
   style="stop-color:#9A9C9D"
   id="stop41" />
		<stop
   offset="0.7257"
   style="stop-color:#7F8182"
   id="stop42" />
		<stop
   offset="0.817"
   style="stop-color:#5D5E5F"
   id="stop43" />
		<stop
   offset="0.9078"
   style="stop-color:#333334"
   id="stop44" />
		<stop
   offset="0.9965"
   style="stop-color:#020202"
   id="stop45" />
		<stop
   offset="1"
   style="stop-color:#000000"
   id="stop46" />
	</linearGradient>
	
	
	
	
	<linearGradient
   id="XMLID_15_"
   gradientUnits="userSpaceOnUse"
   x1="166.7222"
   y1="106.3491"
   x2="167.5948"
   y2="109.1841">
		<stop
   offset="0"
   style="stop-color:#F4D58D"
   id="stop77" />
		<stop
   offset="0.1072"
   style="stop-color:#EFD18A"
   id="stop78" />
		<stop
   offset="0.2341"
   style="stop-color:#E1C482"
   id="stop79" />
		<stop
   offset="0.3708"
   style="stop-color:#C9AF74"
   id="stop80" />
		<stop
   offset="0.5146"
   style="stop-color:#A79261"
   id="stop81" />
		<stop
   offset="0.6639"
   style="stop-color:#7D6D48"
   id="stop82" />
		<stop
   offset="0.8179"
   style="stop-color:#483F2A"
   id="stop83" />
		<stop
   offset="0.9728"
   style="stop-color:#0B0A07"
   id="stop84" />
		<stop
   offset="1"
   style="stop-color:#000000"
   id="stop85" />
	</linearGradient>
	
	
	
	
	
	
	
	
	
	
	
	
	
	
	
	
	
	
	
	
	
	
	
	
	
	
	
	<linearGradient
   id="XMLID_21_"
   gradientUnits="userSpaceOnUse"
   x1="96.611801"
   y1="256.2207"
   x2="96.003899"
   y2="258.95709">
		<stop
   offset="0"
   style="stop-color:#FFFFFF"
   id="stop268" />
		<stop
   offset="0.1046"
   style="stop-color:#FAFAFA"
   id="stop269" />
		<stop
   offset="0.2282"
   style="stop-color:#ECECEC"
   id="stop270" />
		<stop
   offset="0.3616"
   style="stop-color:#D4D4D4"
   id="stop271" />
		<stop
   offset="0.5018"
   style="stop-color:#B2B2B2"
   id="stop272" />
		<stop
   offset="0.6474"
   style="stop-color:#888888"
   id="stop273" />
		<stop
   offset="0.7976"
   style="stop-color:#535353"
   id="stop274" />
		<stop
   offset="0.9487"
   style="stop-color:#161616"
   id="stop275" />
		<stop
   offset="1"
   style="stop-color:#000000"
   id="stop276" />
	</linearGradient>
	
	
		<linearGradient
   id="XMLID_22_"
   gradientUnits="userSpaceOnUse"
   x1="135.95461"
   y1="232.63229"
   x2="135.19611"
   y2="236.0464"
   gradientTransform="matrix(0.9824,-0.1867,0.1867,0.9824,-11.894,52.1387)">
		<stop
   offset="0"
   style="stop-color:#FFFFFF"
   id="stop277" />
		<stop
   offset="0.1046"
   style="stop-color:#FAFAFA"
   id="stop278" />
		<stop
   offset="0.2282"
   style="stop-color:#ECECEC"
   id="stop279" />
		<stop
   offset="0.3616"
   style="stop-color:#D4D4D4"
   id="stop280" />
		<stop
   offset="0.5018"
   style="stop-color:#B2B2B2"
   id="stop281" />
		<stop
   offset="0.6474"
   style="stop-color:#888888"
   id="stop282" />
		<stop
   offset="0.7976"
   style="stop-color:#535353"
   id="stop283" />
		<stop
   offset="0.9487"
   style="stop-color:#161616"
   id="stop284" />
		<stop
   offset="1"
   style="stop-color:#000000"
   id="stop285" />
	</linearGradient>
	

		
		
		<linearGradient
   id="XMLID_13_"
   gradientUnits="userSpaceOnUse"
   x1="163.3672"
   y1="172.28999"
   x2="168.5966"
   y2="169.67529"
   gradientTransform="translate(-41.875033,-17.411481)">
			<stop
   offset="0"
   style="stop-color:#FFFFFF"
   id="stop48" />
			<stop
   offset="0.1046"
   style="stop-color:#FAFAFA"
   id="stop49" />
			<stop
   offset="0.2282"
   style="stop-color:#ECECEC"
   id="stop50" />
			<stop
   offset="0.3616"
   style="stop-color:#D4D4D4"
   id="stop51" />
			<stop
   offset="0.5018"
   style="stop-color:#B2B2B2"
   id="stop52" />
			<stop
   offset="0.6474"
   style="stop-color:#888888"
   id="stop53" />
			<stop
   offset="0.7976"
   style="stop-color:#535353"
   id="stop54" />
			<stop
   offset="0.9487"
   style="stop-color:#161616"
   id="stop55" />
			<stop
   offset="1"
   style="stop-color:#000000"
   id="stop56" />
		</linearGradient>
		
		
		
		
		
		
		
		
		
		
		<linearGradient
   id="XMLID_14_"
   gradientUnits="userSpaceOnUse"
   x1="98.418503"
   y1="172.1499"
   x2="94.0606"
   y2="169.9713"
   gradientTransform="translate(-41.875033,-17.411481)">
			<stop
   offset="0"
   style="stop-color:#FFFFFF"
   id="stop65" />
			<stop
   offset="0.1046"
   style="stop-color:#FAFAFA"
   id="stop66" />
			<stop
   offset="0.2282"
   style="stop-color:#ECECEC"
   id="stop67" />
			<stop
   offset="0.3616"
   style="stop-color:#D4D4D4"
   id="stop68" />
			<stop
   offset="0.5018"
   style="stop-color:#B2B2B2"
   id="stop69" />
			<stop
   offset="0.6474"
   style="stop-color:#888888"
   id="stop70" />
			<stop
   offset="0.7976"
   style="stop-color:#535353"
   id="stop71" />
			<stop
   offset="0.9487"
   style="stop-color:#161616"
   id="stop72" />
			<stop
   offset="1"
   style="stop-color:#000000"
   id="stop73" />
		</linearGradient>
		
		
		
	
		
		
	</defs><sodipodi:namedview
   id="namedview285"
   pagecolor="#ffffff"
   bordercolor="#000000"
   borderopacity="0.25"
   inkscape:showpageshadow="2"
   inkscape:pageopacity="0.0"
   inkscape:pagecheckerboard="0"
   inkscape:deskcolor="#d1d1d1"
   inkscape:zoom="2.6718006"
   inkscape:cx="229.05901"
   inkscape:cy="146.5304"
   inkscape:window-width="1920"
   inkscape:window-height="1009"
   inkscape:window-x="-8"
   inkscape:window-y="148"
   inkscape:window-maximized="1"
   inkscape:current-layer="Layer_1" />

<path
   fill="#ffffff"
   stroke="#000000"
   stroke-width="0.7797"
   d="m 74.768967,119.73452 c 0.551,-0.57 1.35,-0.899 1.779,-1.866 0.494,-1.11 0.247,-2.061 0.806,-3.027 0.394,-0.68 1.189,-1.302 1.803,-1.758 3.414,2.75 2.789,5.86 3.056,9.976 0.227,3.497 -0.636,6.598 -1.511,9.903 -0.894,3.372 -0.968,6.6 -1.981,9.921 -1.025,3.351 0.543,6.932 -0.386,10.4 -1.447,5.404 -11.549,19.598 -1.369,22.288 2.492,0.66 6.156,0.802 8.042,-1.253 1.711,-1.868 1.637,-5.041 2.679,-7.267 0.398,4.594 -0.362,9.201 0.185,13.795 0.646,5.436 2.839,11.553 2.209,17.042 -0.567,4.945 -5.089,5.103 -9.193,5.526 -5.871,0.604 -11.793,0.849 -17.61,1.894 -3.046,0.548 -6.029,1.381 -9.034,2.116 -0.19,0.047 -7.84,1.963 -6.212,2.999 -0.282,-0.179 -1.026,-0.599 -1.238,-0.788 -0.523,-3.129 -2.29,-5.547 -1.708,-9.021 1.03,-6.135 4.749,-15.085 -3.226,-17.772 -4.541,-1.528 -9.286,-1.604 -13.892,-3.371 -2.284,-0.875 -12.669,-4.227 -9.988,-8.167 2.722,1.277 6.478,-2.889 7.764,-4.817 0.063,-0.091 1.244,-2.512 1.296,-2.688 0.268,-0.88 -0.527,-1.1 -0.13,-1.965 0.58,-1.273 2.633,-1.098 1.077,-2.917 1.649,-1.112 4.485,-1.42 5.251,-3.517 0.593,-0.066 0.72,-0.241 1.201,-0.445 -1.554,0.657 0.051,-3.108 0.417,-3.505 0.857,-0.919 3.096,-2.023 4.252,-2.468 0.575,-0.221 1.315,0.536 1.977,-0.335 -0.132,-0.125 -0.151,-0.123 -0.055,0.008 2.793,1.249 6.435,-2.279 8.539,-1.421 0.208,-0.078 0.284,-0.464 0.488,-0.558 0.262,-0.008 0.23,0.226 0.492,0.231 0.702,-1.294 2.104,-3.329 3.276,-4.162 0.049,0.192 0.097,0.384 0.146,0.576 0.986,-1.07 2.13,-2.434 2.934,-3.75 0.349,-0.57 3.131,2.193 3.335,2.722 1.675,-2.727 1.582,-6.218 2.819,-9.147 1.28,-3.028 2.318,-4.881 4.893,-7.118 1.954,-1.696 4.758,-1.479 6.21,-3.898 0.355,-0.59 0.028,-1.538 0.299,-1.994 0.088,-0.152 0.192,-0.283 0.308,-0.402 z"
   id="path47" /><path
   fill="#ffffff"
   stroke="#000000"
   stroke-width="0.7797"
   d="m 100.88197,168.97752 c 0.004,-2.482 -1.172003,-4.856 -1.998003,-7.366 -0.925,-2.805 -1.595,-5.693 -1.632,-8.613 -0.058,-4.719 1.404,-8.957 -0.984,-13.4 -1.625,-3.024 -1.672,-6.409 -1.712,-9.975 -0.049,-4.344 2.007,-10.348 -0.592,-14.154 1.509,-0.154 1.876,-1.522 1.308,-2.608 2.106,-0.526 3.665,-4.541 3.921,-6.528 7.248003,4.648 -0.734,14.365 5.990003,20.165 3.026,2.609 6.738,3.831 9.062,7.386 1.989,3.046 1.259,6.773 4.816,8.728 4.428,2.434 10.059,1.826 14.913,1.814 5.502,-0.013 8.77,-0.889 10.848,5.144 1.131,3.277 0.182,5.925 0.199,9.397 0.02,3.564 1.157,5.44 3.933,7.682 0.498,0.402 3.138,1.878 3.296,2.279 0.976,2.446 -5.758,5.296 -7.334,5.854 -4.088,1.449 -8.741,3.464 -10.781,7.533 -2.099,4.183 -0.654,9.248 -0.733,13.692 -0.041,2.427 0.543,9.191 -1.864,10.605 -1.478,0.869 -6.767,-0.458 -8.721,-0.351 -4.057,0.222 -8.074,-0.676 -12.073,-1.198 -4.039,-0.528 -8.573,-0.316 -12.347003,-1.962 -0.595,-0.259 -9.587,-4.235 -9.109,-2.148 -0.961,-4.2 0.924,-9.08 -0.158,-13.439 -1.492,-5.995 -1.227,-13.239 -1.387,-19.382 1.341,3.068 3.4,8.349 7.487,8.011 2.957,-0.245 5.008003,-3.017 5.531003,-5.846 0.083,-0.446 0.12,-0.883 0.121,-1.32 z"
   id="path48" /><path
   fill="url(#XMLID_13_)"
   d="m 123.33497,151.54852 c -1.225,1.251 -1.221,3.321 1.864,3.47 1.678,0.081 3.392,-0.688 3.146,-2.766 -1.756,-2.3 -3.893,-1.843 -5.01,-0.704 z"
   id="path56"
   style="fill:url(#XMLID_13_)" /><path
   fill="#d8d9da"
   d="m 98.788967,197.07252 c 1.273003,0.891 2.231003,1.926 2.603003,3.322 1.015,-2.118 0.622,-6.058 -0.75,-7.955 -0.258,0.103 -0.34,0.458 -0.545,0.538 -0.612003,-0.741 -1.611003,-1.23 -2.148003,-1.853 1.293,1.574 1.134,4.504 0.404,6.383"
   id="path57" /><path
   fill="#d8d9da"
   d="m 83.970967,196.63752 c 1.256,-0.215 2.297,0.187 3.104,1.152 -0.481,-1.17 -0.372,-1.937 -0.512,-3.184 0.061,0.229 0.181,0.419 0.361,0.574 0.478,-1.946 -0.675,-4.186 -2.212,-5.373 -0.635,2.122 0.066,5.098 -1.178,6.83"
   id="path58" /><path
   fill="#d8d9da"
   d="m 104.89097,197.07252 c 1.206,0.388 2.193,1.075 2.984,2.058 0.837,-4.424 -1.805,-9.091 -2.024,-13.386 -0.248,-4.775 3.229,-10.389 0.857,-15.23 0.968,2.392 -0.217,6.693 -1.044,9.124 -0.99,2.917 -0.751,2.894 -0.766,5.678 -0.017,3.31 1.923,8.5 0.427,11.757"
   id="path59" /><path
   fill="#d8d9da"
   d="m 73.511967,200.55952 c 0.55,-1.065 1.458,-2.054 2.469,-2.632 -2.181,-0.69 -0.886,-12.608 -0.347,-14.734 -3.981,0.531 -4.396,-7.282 -5.194,-9.965 0.069,5.892 3.08,11.396 3.072,17.438 -0.006,3.158 0.265,6.539 -0.437,9.458"
   id="path60" /><path
   fill="#d8d9da"
   d="m 116.34097,195.66852 c -0.051,-0.717 -0.868,-1.732 -1.014,-2.519 -0.819,-4.424 0.43,-9.336 0.458,-13.813 -0.031,4.884 -1.192,10.285 -1.872,15.129 -0.2,1.421 -0.191,3.287 -1.121,4.499 -1.223,1.597 -3.581,1.02 -4.361,3.719 2.811,-0.616 4.951,-1.147 7.724,0.478 -0.491,-2.75 0.37,-4.912 0.186,-7.493 z"
   id="path61" /><path
   fill="#d8d9da"
   d="m 119.27197,203.60952 c -0.144,-1.415 0.189,-2.936 0.498,-4.292 5.299,-0.433 3.169,-11.476 3.521,-15.293 1.306,4.061 -0.607,11.95 1.742,15.601 0.296,-0.087 0.393,-0.262 0.712,-0.309 -0.365,0.673 -0.699,3.231 0.958,2.495 0.786,-0.349 1.085,-3.005 1.284,-3.494 0.049,0.175 0.394,0.931 0.523,1.338 3.537,-2.229 -0.37,-5.366 0.697,-7.3 0.188,0.122 0.185,0.178 -0.009,0.162 0.352,-0.848 1.113,-2.968 1.395,-4.6 0.408,-2.369 -0.319,-5.29 0.838,-7.316 -0.672,0.128 -1.387,-0.049 -2.1,0.279 2.138,-1.494 3.639,-4.364 5.63,-6.319 1.259,2.737 8.281,-0.898 10.751,-1.396 -4.77,5.056 -12.86,4.516 -13.802,12.575 -0.717,6.154 2.324,15.761 -2.518,20.451 -0.181,-1.158 -0.707,-2.316 -1.394,-3.073 -1.075,0.58 -1.971,1.366 -2.625,2.297 -0.953,-0.939 -2.107,-2.308 -3.509,-2.72 -1.259,-0.37 -1.602,2.889 -3.029,0.042"
   id="path62" /><path
   fill="#d8d9da"
   d="m 122.32197,155.23452 c -0.365,2.814 -4.201,2.713 -6.469,2.681 1.177,3.264 -1.409,2.417 -3.488,3.051 0.477,3.228 1.009,6.602 1.338,9.969 0.246,2.54 -0.431,6.842 0.787,8.987 1.009,-3.47 0.886,-7.113 2.168,-10.609 2.385,8.089 2.978,18.321 3.049,26.109 0.026,-5.204 -1.526,-16.887 1.634,-20.977 0.23,1.186 1.287,2.493 1.451,3.396 0.365,2.031 -0.25,4.027 0.413,6.023 -0.069,-4.82 -1.58,-9.499 -1.404,-14.203 -0.455,0.659 -1.581,1.484 -2.084,2.184 -1.716,-0.965 -1.213,-3.01 -1.752,-4.672 -0.048,0.16 -0.158,0.231 -0.329,0.212 -0.255,-1.499 -1.192,-2.393 -2.556,-1.638 0.845,-1.578 0.669,-4.275 2.015,-5.435 0.424,-0.364 1.869,0.389 2.656,-0.155 1.458,-1.005 2.505,-3.715 1.7,-5.359"
   id="path63" /><path
   fill="#d8d9da"
   d="m 106.48497,151.11952 c -0.53,-3.468 -1.842,-12.093 -5.027,-14.16 0.279,3.908 2.339,8.198 3.019,12.185 0.455,2.671 1.32,9.253 -1.264,10.991 2.267,2.084 2.957,5.301 3.879,8.245 -1.609,-5.141 0.217,-11.875 -0.607,-17.261 z"
   id="path64" /><path
   fill="#d8d9da"
   d="m 65.249967,195.02852 c -0.079,0.164 -2.313,4.983 -2.6,4.576 -2.709,-3.834 -4.16,-10.019 -2.627,-14.623 -1.716,5.158 -0.893,11.492 -0.893,16.949 0.444,0.23 -0.435,-0.071 0.031,-0.329 -1.038,0.735 -1.663,1.38 -2.308,2.387 -0.147,-0.382 -0.717,-0.745 -0.837,-1.629 -0.791,0.439 -2.087,1.166 -2.913,1.63 -0.271,-3.659 0.845,-7.789 0.273,-11.261 -1.87,2.913 -1.581,7.407 -1.744,10.837 -1.358,0.149 -0.641,-0.188 -1.995,0.787 -0.112,-0.132 -0.886,-1.173 -0.874,-1.147 -0.224,0.385 -0.309,0.845 -0.647,1.146 -1.149,-4.956 0.523,-8.48 1,-13.209 -0.048,0.122 -0.132,0.193 -0.255,0.214 -0.005,-2.721 -1.036,-6.347 -1.934,-8.293 0.928,6.479 -4.043,19.719 0.784,24.894 -0.12,-1.082 0.474,-1.95 0.599,-2.973 0.76,-0.168 2.228,-0.424 2.864,-0.438 0.445,0.741 1.482,1.313 1.875,1.986 1.008,-3.56 3.378,-2.047 5.531,-0.345 -1.446,-1.144 3.772,-3.021 5.293,-1.411 -0.171,-1.729 0.918,-2.451 2.606,-2.105 -0.899,-2.119 -1.302,-5.183 -1.229,-7.643 z"
   id="path65" /><path
   fill="url(#XMLID_14_)"
   d="m 55.206967,156.02652 c 5.222,-2.039 -3.192,-7.281 -3.956,-6.14 -1.46,2.186 0.941,7.277 3.889,6.167 0.024,-0.01 0.045,-0.019 0.067,-0.027 z"
   id="path73"
   style="fill:url(#XMLID_14_)" /><path
   fill="#d8d9da"
   d="m 51.284967,156.54152 c 0.732,1.278 1.382,2.566 2.202,3.771 0.004,-0.696 0.269,-0.881 0.403,-1.427 1.305,1.289 0.833,0.619 2.199,0.652 0.661,0.488 1.521,1.214 2.225,1.788 -1.534,2.639 1.09,6.524 1.146,9.132 0.083,3.932 -1.007,9.585 -0.765,12.74 0,-3.807 0.278,-8.727 -2.081,-11.688 -0.141,-0.113 -0.466,0.525 -0.557,0.57 -0.027,-0.394 0.147,-0.748 -0.076,-1.125 -3.321,4.595 -0.667,11.372 -2.419,16.397 -0.449,-4.82 1.105,-10.148 -0.171,-14.612 -1.369,-1.037 -1.942,-3.333 -4.1,-3.135 -0.079,0.127 -0.461,0.513 -0.641,0.729 0.08,-1.7 -0.449,-1.089 -1.202,-2.3 -2.967,2.267 -4,5.139 -7.579,7.072 3.152,-1.353 6.078,-3.896 7.131,-7.169 0.277,-0.18 1.408,-0.655 1.758,-0.784 1.219,1.604 6.033,3.622 4.893,-0.022 0.49,1.221 1.512,1.781 2.799,1.544 0.61,-2.754 -1.241,-5.618 -2.646,-7.797 -1.072,-1.659 -1.712,-2.944 -2.518,-4.772"
   id="path74" /><path
   fill="#d8d9da"
   d="m 75.253967,139.98052 c -0.04,8.771 -6.061,16.985 -5.195,25.548 -1.683,-5.516 0.266,-11.242 1.829,-16.724 1.354,-4.753 2.099,-9.718 3.991,-14.303 -0.92,2.885 -1.755,5.355 0.249,8.095"
   id="path75" /><path
   id="path174"
   d="M 257.5625 105.41406 C 257.03755 106.54319 257.22222 108.23429 256.45508 109.2168 C 255.89008 109.9398 253.50527 110.38273 254.07227 108.92773 C 252.80127 112.18873 249.51956 114.79008 247.35156 117.45508 C 246.34556 118.69208 244.5912 120.01448 243.9082 121.14648 C 242.8682 122.87148 243.44136 124.5037 242.69336 126.3457 C 242.30036 126.3047 241.75809 126.5047 241.37109 126.4707 C 242.42209 128.8767 237.66041 131.87098 237.06641 134.20898 C 236.32841 137.12298 237.70186 140.48319 236.75586 143.36719 C 240.90186 145.28019 242.77138 147.61803 243.10938 151.95703 C 243.32315 154.69469 244.70807 158.11606 243.73633 160.86328 C 244.00598 159.84187 243.80724 158.6861 243.38477 157.67383 C 242.35277 159.20583 240.98142 159.96975 238.98242 160.09375 C 239.33642 163.06175 230.92242 160.9737 229.48242 162.8457 C 228.19342 164.5227 231.13445 166.81009 231.56445 169.12109 C 232.00645 171.49609 231.63848 174.11964 231.02148 176.43164 C 230.03748 180.11964 226.11894 184.04333 226.83594 188.11133 C 228.64894 188.12833 230.15977 189.26703 231.75977 189.95703 C 234.12477 190.97803 236.24825 191.27827 238.78125 191.69727 C 243.01925 192.39727 247.42803 193.9088 251.70703 194.2168 C 260.70703 194.8628 271.24597 194.70755 279.66797 191.81055 C 285.60444 189.76831 290.85809 187.02587 296.80273 185.14062 L 296.80273 157.45117 C 296.30625 158.11269 295.80818 158.74685 295.27344 159.22461 C 293.65244 160.67061 292.07092 161.49892 290.04492 162.41992 C 285.47292 164.49992 280.83186 166.45828 277.25586 170.11328 C 275.75286 171.64928 274.57016 173.67611 272.28516 173.66211 C 267.57916 173.63511 267.91666 166.06466 266.97266 162.97266 C 266.27066 160.66866 264.6978 154.14036 262.3418 153.31836 C 262.8908 149.59436 257.841 148.9302 256.875 145.6582 C 255.563 141.2102 262.37777 136.21541 263.75977 141.94141 C 264.27877 144.09541 261.96486 145.4217 261.75586 147.2207 C 263.43386 147.7627 264.24134 147.63703 265.52734 146.58203 C 266.28334 145.96203 266.47355 144.74386 267.06055 144.00586 C 268.29955 142.44986 269.97428 141.7133 271.48828 140.5293 C 274.06428 138.5143 279.38286 136.14389 277.00586 132.46289 C 277.20886 132.25389 277.51248 131.85084 277.64648 131.71484 C 277.70348 131.65784 273.64556 131.88658 273.22656 132.01758 C 271.80256 132.46158 270.40578 134.00537 268.80078 133.10938 C 268.18278 134.68738 266.72855 134.51269 265.68555 134.17969 C 265.52455 134.69469 265.19702 135.21297 264.91602 135.66797 C 264.66802 133.81697 262.26448 132.45516 263.89648 130.78516 C 261.62248 131.19416 261.67419 128.52003 262.24219 128.58203 C 261.91319 128.54603 261.59662 128.51233 261.26562 128.48633 C 261.39162 126.02633 261.00489 124.33123 261.58789 121.86523 C 262.31289 118.80123 263.7697 116.73519 261.8457 114.11719 C 260.8537 112.76819 259.82592 111.78047 259.16992 110.23047 C 258.89922 109.58767 257.37173 106.02413 257.5625 105.41406 z "
   style="fill:#ffffff;stroke-width:1;stroke-dasharray:none;stroke:#000000;stroke-opacity:1;fill-opacity:1" /><path
   fill="#d8d9da"
   d="m 232.10897,163.67452 c -3.305,-0.415 1.553,6.21 0.633,8.495 0.038,0.073 -0.329,-0.61 -0.286,-0.572 0.374,5.551 -4.838,9.246 -4.977,14.687 1.765,-3.32 2.696,-6.279 5.364,-8.995 -0.302,3.098 -2.735,5.29 -2.438,8.65 1.735,-3.372 4.564,-15.725 9.468,-14.757 -0.779,4.412 -3.229,9.579 -4.523,14.061 2.137,-3.227 3.999,-14.957 8.682,-15.523 -0.127,-0.045 -0.184,-0.139 -0.165,-0.278 0.394,-0.207 0.927,-0.231 1.317,-0.407 0.618,1.967 1.895,0.016 3.281,1.369 1.576,1.538 1.207,6.235 0.736,8.13 1.078,-2.503 1.156,-5.414 1.73,-8.027 0.029,0.279 -0.028,0.574 -0.025,0.856 0.694,-0.225 0.289,-0.531 1.091,-0.364 1.315,-3.194 3.204,-5.678 5.147,-8.422 0.148,0.184 0.447,0.458 0.611,0.69 1.291,-1.113 3.732,-2.749 5.254,-1.136 0.122,-1.721 -1.509,-2.011 -1.74,-3.71 0.688,-0.223 0.944,-0.7 1.302,-0.656 -3.613,-2.156 -6.392,-5.463 -7.468,-10.068 -1.446,1.156 1,6.763 0.814,9.103 -1.67,0.109 -4.771,11.896 -6.061,14.224 -1.184,-3.442 -3.399,-2.387 -5.617,-1.72 -0.045,-0.205 -0.091,-0.41 -0.141,-0.614 -0.544,0.394 -1.238,0.656 -1.643,1.251 1.633,-2.292 4.46,-5.132 4.924,-7.311 0.959,-4.491 -2.83,-9.068 -3.495,-13.07 3.567,6.546 -0.735,14.81 -3.959,20.116 -1.123,-0.641 -2.491,-0.158 -3.497,0.363 -0.191,-1.085 -0.302,-2.218 -0.638,-3.193 0.396,0.032 0.875,-0.071 1.234,-0.028 -0.003,-2.006 2.636,-1.8 3.956,-2.807 1.427,-1.087 2.544,-2.932 2.059,-4.842 -2.214,4.356 -8.505,2.965 -11.996,4.507"
   id="path175" /><path
   fill="#d8d9da"
   d="m 262.99197,166.15852 c 0.375,1.714 0.866,3.591 1.019,5.279 -4.986,-0.046 -8.418,16.984 -7.171,20.542 -1.646,-1.533 -0.988,-7.421 -4.162,-6.747 -1.281,0.271 -2.623,3.036 -3.023,3.979 1.252,-3.645 3.264,-7.147 4.133,-10.894 -0.676,1.88 -1.331,3.89 -1.035,5.893 4.176,2.136 7.572,-13.034 8.438,-15.53 0.327,0.106 0.7,0.143 1.019,0.267 0.512,-1.212 1.207,-2.905 0.783,-4.208"
   id="path176" /><path
   fill="#d8d9da"
   d="m 295.44497,181.07452 c 1.497,0.229 1.023,-19.316 0.852,-21.257 -5.13,1.99 -9.367,7.279 -14.119,10.323 -3.315,2.124 -9.48,6.74 -13.531,4.316 0.477,2.328 -1.323,4.817 -3.833,4.543 0.76,3.528 9.644,0.332 11.951,-0.735 0.644,0.879 0.903,1.997 0.835,3.044 0.984,-0.676 1.957,-1.176 3.113,-1.26 0.009,3.047 -2.322,2.61 -4.24,3.485 -2.566,1.169 -5.252,3.132 -6.619,5.757 3.48,-2.021 7.477,-5.007 11.172,-2.596 0.085,-0.167 0.102,-0.337 0.053,-0.512 2.176,-0.049 5.261,-2.354 7.556,-2.985 1.935,-0.531 3.306,-0.74 5.188,-0.408 -0.011,-0.242 0,-0.64 0.024,-0.891 1.031,0.61 2.457,-0.21 2.922,-0.478 -0.629,0.039 -0.87,-0.276 -1.324,-0.346 z"
   id="path177" /><path
   fill="#d8d9da"
   d="m 243.76997,139.59152 c -0.238,1.827 1.952,4.006 3.169,1.835 0.453,2.596 5.149,4.235 6.744,2.052 0.287,0.453 0.373,1.202 0.389,1.676 -3.231,0.421 -1.301,5.89 -1.366,8.119 -0.573,-2.13 -1.255,-4.539 -2.864,-6.157 0.066,0.688 -0.094,1.424 0.034,2.102 -0.207,-0.471 -0.489,-0.958 -0.665,-1.427 0.33,1.861 0.275,3.887 0.299,5.86 -0.414,-5.521 -4.807,-8.074 -9.244,-10.149 -1.465,-0.686 -2.465,-0.265 -2.867,-2.509 -0.242,-1.342 -0.451,-5.621 0.365,-6.744 0.131,-0.038 1.525,-0.308 1.403,-0.297 -2.587,0.217 4.309,7.89 4.603,5.639 z"
   id="path178" /><path
   fill="#d8d9da"
   d="m 258.37597,113.26852 c 2.07,3.052 0.05,7.917 -1.721,10.561 0.191,-0.286 0.342,6.311 0.355,6.778 0.111,4.593 2.203,3.052 5.268,4.962 -0.461,0.078 -0.77,0.295 -1.242,0.424 0.512,1.015 -0.745,2.122 -1.201,2.707 2.305,0.62 4.967,0.476 7.084,-0.728 2.174,-1.235 4.912,-3.2 6.097,-5.485 -1.851,1.059 -4.095,0.932 -5.937,2.078 -0.795,0.494 -0.287,2.062 -2.102,1.997 -0.914,-0.033 -1.891,-1.755 -2.92,-2.068"
   id="path179" /><path
   fill="none"
   d="m 253.05197,111.49452 c -0.307,1.09 -0.845,2.103 -1.385,3.063 0.348,-0.085 0.656,-0.131 0.97,-0.18 0.173,0.831 0.548,1.477 0.413,2.369 0.002,-1.946 0.171,-3.736 0.305,-5.507 -0.512,0.347 -0.713,0.782 -1.013,1.318"
   id="path180" /><path
   fill="#bcbec0"
   d="m 259.08597,112.91352 c 1.179,1.316 2.194,2.898 2.806,4.563 -2.609,0.204 -3.063,4.059 -3.506,6.067 -0.828,3.758 -0.602,7.135 -0.72,10.915 0.268,-4.079 -1.45,-7.852 -0.442,-11.952 0.786,-3.193 3.177,-6.54 1.801,-9.839 -0.252,0.16 -0.469,0.36 -0.648,0.602"
   id="path182" /><path
   fill="#bcbec0"
   d="m 239.20797,142.02152 c -1.566,2.741 2.812,4.21 3.852,6.473 -0.542,-0.808 -0.514,-1.607 -0.604,-2.514 4.09,-0.244 8.027,2.484 12.271,2.084 -5.331,-1.602 -10.738,-2.209 -15.52,-5.333"
   id="path183" /><path
   fill="#bcbec0"
   d="m 232.94697,166.89552 c 3.032,-1.664 10.288,-2.063 10.07,-6.815 -1.404,0.283 -3.824,1.353 -4.867,2.475 -0.699,0.753 -0.66,1.708 -1.418,2.441 -0.94,0.908 -2.643,1.272 -3.785,1.899 z"
   id="path184" /><path
   fill="#d8d9da"
   d="m 240.27297,185.32752 c 0.229,0.49 0.51,0.946 0.844,1.367 0.47,-1.365 1.447,-2.491 2.227,-3.737 -1.671,0.856 -3.641,1.54 -2.715,3.789"
   id="path185" /><path
   fill="#d8d9da"
   d="m 266.89597,183.55252 c 0.295,0.996 0.416,2.038 0.337,3.067 0.291,0.212 1.253,0.98 1.817,1.43 -0.102,-1.842 -1.115,-3.127 -2.154,-4.497"
   id="path186" />
</svg>
