<?xml version="1.0" encoding="UTF-8" standalone="no"?>
<!-- Generator: Adobe Illustrator 12.0.0, SVG Export Plug-In . SVG Version: 6.00 Build 51448)  -->

<svg
   version="1.1"
   id="Layer_1"
   width="536.764"
   height="308.853"
   viewBox="0 0 536.764 308.853"
   overflow="visible"
   enable-background="new 0 0 536.764 308.853"
   xml:space="preserve"
   sodipodi:docname="skull_bones_frontale.svg"
   inkscape:version="1.4.2 (f4327f4, 2025-05-13)"
   xmlns:inkscape="http://www.inkscape.org/namespaces/inkscape"
   xmlns:sodipodi="http://sodipodi.sourceforge.net/DTD/sodipodi-0.dtd"
   xmlns="http://www.w3.org/2000/svg"
   xmlns:svg="http://www.w3.org/2000/svg"><defs
   id="defs285" /><sodipodi:namedview
   id="namedview285"
   pagecolor="#ffffff"
   bordercolor="#000000"
   borderopacity="0.25"
   inkscape:showpageshadow="2"
   inkscape:pageopacity="0.0"
   inkscape:pagecheckerboard="0"
   inkscape:deskcolor="#d1d1d1"
   inkscape:zoom="2.6128935"
   inkscape:cx="268.4763"
   inkscape:cy="154.4265"
   inkscape:window-width="2560"
   inkscape:window-height="1369"
   inkscape:window-x="1912"
   inkscape:window-y="-8"
   inkscape:window-maximized="1"
   inkscape:current-layer="g285" />

<g
   id="g285">
	
	
	
	
	
	<linearGradient
   id="XMLID_12_"
   gradientUnits="userSpaceOnUse"
   x1="129.3521"
   y1="200.709"
   x2="129.0272"
   y2="171.1463">
		<stop
   offset="0"
   style="stop-color:#FFFFFF"
   id="stop37" />
		<stop
   offset="0.3483"
   style="stop-color:#BCBEC0"
   id="stop38" />
		<stop
   offset="0.4466"
   style="stop-color:#B8BABC"
   id="stop39" />
		<stop
   offset="0.541"
   style="stop-color:#ADAFB1"
   id="stop40" />
		<stop
   offset="0.6338"
   style="stop-color:#9A9C9D"
   id="stop41" />
		<stop
   offset="0.7257"
   style="stop-color:#7F8182"
   id="stop42" />
		<stop
   offset="0.817"
   style="stop-color:#5D5E5F"
   id="stop43" />
		<stop
   offset="0.9078"
   style="stop-color:#333334"
   id="stop44" />
		<stop
   offset="0.9965"
   style="stop-color:#020202"
   id="stop45" />
		<stop
   offset="1"
   style="stop-color:#000000"
   id="stop46" />
	</linearGradient>
	
	
	
	
	<linearGradient
   id="XMLID_15_"
   gradientUnits="userSpaceOnUse"
   x1="166.7222"
   y1="106.3491"
   x2="167.5948"
   y2="109.1841">
		<stop
   offset="0"
   style="stop-color:#F4D58D"
   id="stop77" />
		<stop
   offset="0.1072"
   style="stop-color:#EFD18A"
   id="stop78" />
		<stop
   offset="0.2341"
   style="stop-color:#E1C482"
   id="stop79" />
		<stop
   offset="0.3708"
   style="stop-color:#C9AF74"
   id="stop80" />
		<stop
   offset="0.5146"
   style="stop-color:#A79261"
   id="stop81" />
		<stop
   offset="0.6639"
   style="stop-color:#7D6D48"
   id="stop82" />
		<stop
   offset="0.8179"
   style="stop-color:#483F2A"
   id="stop83" />
		<stop
   offset="0.9728"
   style="stop-color:#0B0A07"
   id="stop84" />
		<stop
   offset="1"
   style="stop-color:#000000"
   id="stop85" />
	</linearGradient>
	
	
	
	
	
	
	
	
	
	
	
	
	
	
	
	
	<g
   id="g286"><g
     id="g131">
		<g
   id="g122">
			<path
   fill="#FFFFFF"
   stroke="#000000"
   stroke-width="0.7797"
   d="M49.6,89.794c-0.038,2.851-1.119,5.985-0.904,9.175     c0.308,4.584,1.203,8.172,3.826,11.769c1.841,2.524,3.733,4.377,5.14,7.138c0.703,1.374-1.779,6.576-2.113,8.142     c-0.477,2.242-1.442,4.589-1.636,6.851c0.46-0.547,1.294-0.883,1.625-1.154c-0.12,0.409-0.167,0.876-0.253,1.244     c0.261-0.249,0.945-0.638,1.208-0.928c-0.307,0.862-0.355,1.993,0.132,2.888c1.244-1.214,2.019-3.308,3.146-4.777     c-0.002,0.269-0.16,0.584-0.247,0.836c0.322-0.013,0.922-0.034,1.228,0.097c0.034,0.387,0.098,0.819,0.105,1.202     c0.913,0.78,2,1.118,2.884,1.757c3.085,2.228,5.582,4.098,9.024,5.904c4.116,2.159,3.474,1.31,6.864-2.463     c3.212-3.575,7.32-6.989,9.924-10.982c-0.376-0.08-0.764-0.092-1.144-0.129c2.27-1.46,4.399-3.246,6.506-5.417     c0.138,0.274,0.245,0.551,0.394,0.797c0.696-0.846,1.66-1.696,2.548-2.232c-0.007,0.004,9.404,7.489,10.649,8.409     c3.59,2.651,7.873,4.933,10.359,8.814c4.132-2.151,5.684-6.39,10.807-6.252c1.841,0.049,5.549-0.165,7.407,0.424     c1.732,0.549,2.747,2.573,4.171,3.868c0.383,0.179-0.151,0.126-0.16-0.34c0.009,1.708,0.301,3.24,1.642,4.176     c-0.153-2.3,3.118-6.361,4.995-8.334c4.706-4.951,12.065-6.818,16.494-11.626c0.925,0.037,1.833,0.076,2.952,0.034     c1.635,6.924,9.791,10.234,14.011,15.449c0.383-0.219,0.924-0.447,1.251-0.684c0.077,1.14-0.25,2.336-0.894,3.337     c1.445-0.567,4.376-1.303,5.794-2.465c0.488,1.511-0.615,2.951-0.959,4.653c0.699-1.066,1.618-2,2.619-2.805     c-0.089,0.373-0.242,0.705-0.35,1.069c0.876-0.916,1.55-2.133,2.051-3.266c-0.107,1.134,0.297,2.257,0.523,3.219     c2.807-4.696,5.894-4.969,11.732-5.141c-0.276-1.658,1.323-3.123,1.267-3.954c-0.102-1.493-1.826-2.901-2.538-4.263     c-2.166-4.137-1.292-8.438-0.35-13.03c0.329,0.007,0.365,0.259,0.674,0.329c2.27,0.505,5.176-10.764,5.521-12.624     c0.975-5.246,1.335-10.629-1.004-15.605c0.562,0.443,1.458,0.695,2.084,1.169c0.112-2.511-1.793-4.746-1.64-7.195     c0.578,0.409,1.203,0.481,1.619,0.702c0.028-1.854-0.531-3.834-1.172-5.562c0.844,0.498,2.002,0.516,2.917,0.78     c0.556-2.917-0.799-6.148-1.985-8.736c-3.746-8.198-8.149-15.057-13.595-22.14c-2.909-3.783-6.589-5.743-10.399-8.363     c-9.27-6.375-19.02-10.524-30.1-12.686c-10.919-2.129-23.845-4.155-34.933-2.408c-7.569,1.191-14.31,1.838-21.587,4.216     c-6.563,2.144-12.78,5.343-18.506,9.184c-11.456,7.684-21.877,18.453-26.94,31.478c-1.576,4.051-3.307,8.232-3.455,12.633     C48.676,80.543,49.66,85.199,49.6,89.794z"
   id="path104" />
			<path
   fill="#D8D9DA"
   d="M56.986,124.27c1.402-5.069,3.465-7.811,6.22-12.214c1.703-2.721,4.363-6.07,5.219-9.142     c2.614-9.405-6.031-17.559-7.178-26.116c-1.42,2.481-1.007,5.681-1.309,8.66c-0.153-0.385-0.599-1.026-0.76-1.586     c-1.002,3.628-0.686,3.812-3.512,5.859c-1.551,1.125-2.896,1.978-4.267,3.301c-0.167,0.152-0.165,0.134,0.006-0.057     c0.273-0.109,0.409,0.003,0.405,0.339c-0.42,0.008-1.043,0.39-1.926,0.175c-0.914,3.375,0.077,11.965,2.328,14.946     c-0.264-2.196,0.161-5.451,1.637-6.511c-0.272-0.103,0.502-0.164,0.968,0.077c0.043-1.025,0.604-1.354,0.033-2.483     c0.614,0.169,1.374-0.028,2.068,0.304c-0.187-0.497-0.043-1.161-0.324-1.709c4.158-2.729,8.343,2.412,7.812,6.556     c-0.748,5.818-5.771,11.035-6.112,17.422"
   id="path105" />
			<path
   fill="#D8D9DA"
   d="M202.113,124.705c-3.698-7.511-10.443-14.54-11.328-23.193c-0.676-6.6,3.991-10.066,5.301-16.401     c4.47-0.37,5.107-9.67,5.245-13.016c4.765,6.853,3.634,20.792,1.643,28.547c0.015-1.296-0.302-2.601-1.177-3.369     c-0.935,1.617-0.782,3.808-1.862,5.243c-0.854,1.134-1.823,0.288-2.625,1.237c-1.727,2.049-1.451,4.856-1.294,7.449     c0.26,4.348,2.044,7.576,3.919,11.323"
   id="path106" />
			<path
   fill="#D8D9DA"
   d="M134.126,110.758c2.297,0.274,5.51-0.003,5.295-2.996c3.729,0.119,6.037-4.475,9.118-6.091     c2.493-1.305,6.159-1.991,8.999-1.83c-3.291,0.936-14.74,5.116-14.323,9.452c-1.844,0.53-1.285,2.657-2.965,3.239     c-1.478,0.513-4.476-1.925-6.125-2.209"
   id="path107" />
			<path
   fill="#D8D9DA"
   d="M87.123,75.519c-0.099,0.222-0.114,0.446-0.044,0.672c-1.048-1.951-2.946-2.813-5.079-2.542     c0.687-4.44-5.825-3.625-8.318-3.06c3.283-1.187,5.928,0.241,8.673,0.953c4.342,1.125,8.626,2.616,9.867,7.472     C90.913,77.306,89.06,76.354,87.123,75.519z"
   id="path108" />
			<path
   fill="#D8D9DA"
   d="M58.577,73.234c-1.005-0.521-2.217-0.99-3.342-1.242c-0.291,0.9-1.014,1.451-0.961,2.558     c-0.254-0.662-1.242-1.135-1.645-1.661c-2.524,2.733-1.218,7.521-0.406,10.715c-3.483-6.815-3.023-20.169,3.399-25.407     c-0.542,0.442-0.235,6.727-0.127,7.693C55.778,68.461,56.676,71.387,58.577,73.234z"
   id="path109" />
			<path
   fill="#D8D9DA"
   d="M198.19,50.616c2.934,4.062,1.31,11.019,0.493,15.533c2.24-1.455,5.779,0.391,6.839,2.669     c0.048-1.948-0.973-3.806-0.715-5.779c0.791,0.794,1.502,2.051,2.021,3.151c-0.04-4.977-4.776-9.833-7.33-13.831"
   id="path110" />
			<path
   fill="#D8D9DA"
   d="M117.565,129.063c1.052-4.465,3.281-11.736-1.05-15.142c-3.45-2.713-10.572-2.431-14.736-2.737     c-5.981-0.44-12.012-0.013-17.761,1.221c-11.047,2.369-18.484,10.099-20.757,21.058c0.472-0.088,0.742-0.284,1.146-0.533     c0.401,0.312,0.348,0.815,0.849,0.983c0.307-0.086,0.471-0.483,0.765-0.426c0.842,0.874,1.905,1.428,3.082,1.612     c0.278-0.444,0.764-0.735,1.045-1.177c4.271,2.286,3.791-0.701,6.508-3.85c3.37-3.907,8.547-9.215,13.756-10.057     c-1.028-0.494-1.798-1.131-2.883-1.509c3.516-2.766,9.752-3.877,14.314-3.303c-0.055,0.332-0.32,0.341-0.348,0.674     c2.505,1.073,5.901,1.051,8.531,1.767c-0.14-0.039-0.893-0.25-1.059-0.275c8.106,2.196,8.003,8.679,8.916,15.048     c-0.135-0.943,1.271-3.358,1.414-4.521c0.208-1.694-0.311-3.095-0.352-4.683c-0.082-3.029,0.93-6.335-1.696-8.651     c-0.035-0.032-0.074-0.063-0.112-0.095"
   id="path111" />
			<path
   fill="#D8D9DA"
   d="M143.021,117.881c3.878-4.572,13.205-5.135,18.392-5.327c8.879-0.33,18.078-0.2,25.603,5.186     c2.082,1.489,3.936,3.296,5.328,5.455c0.81,1.257,1.976,6.983,2.74,7.471c-2.12-1.354-4.788-3.687-6.818-1.21     c-0.189-1.08-0.97-1.493-1.304-2.099c-0.698,2.31-2.998,4.542-5.606,3.821c-0.1-0.028-2.622-6.073-3.185-6.786     c-1.8-2.276-4.096-3.897-6.567-5.36c-5.084-3.006-10.958-1.867-16.149,0.827c-2.263,1.173-4.283,4.466-6.507,5.29     c-2.272,0.842-4.19-0.33-5.946,1.826c-0.908,1.115-0.912,3.107-1.345,4.431c-1.831-3.457-1.338-8.905,0.502-12.272     C142.403,118.685,142.693,118.269,143.021,117.881z"
   id="path112" />
			<path
   fill="#BCBEC0"
   d="M55.57,131.025c-2.375-4.63,2.588-11.152,4.97-14.795c2.843-4.352,6.435-8.241,7.458-13.429     c0.629-3.194,2.053-9.93-1.585-11.953c-0.171,3.786,1.53,9.631-1.943,12.353c-0.137-0.156-0.264-0.37-0.417-0.505     c0.042,3.641-1.033,7.766-2.583,11.071c-2.318,4.944-7.998,11.729-5.898,17.585"
   id="path113" />
			<path
   fill="#BCBEC0"
   d="M192.527,92.127c-0.534,2.777-1.946,5.262-1.979,8.165c-0.032,3.056,1.274,6.115,2.625,8.823     c2.862,5.744,6.233,11.181,8.12,17.29c-1.899-2.593-2.619-7.183-3.863-10.377c-1.032-2.651-2.086-5.299-2.342-8.162     c-5.335-0.306-2.992-13.57-1.907-16.393"
   id="path114" />
			<linearGradient
   id="XMLID_16_"
   gradientUnits="userSpaceOnUse"
   x1="95.5576"
   y1="104.2241"
   x2="94.9494"
   y2="106.9618">
				<stop
   offset="0"
   style="stop-color:#FFFFFF"
   id="stop114" />
				<stop
   offset="0.1046"
   style="stop-color:#FAFAFA"
   id="stop115" />
				<stop
   offset="0.2282"
   style="stop-color:#ECECEC"
   id="stop116" />
				<stop
   offset="0.3616"
   style="stop-color:#D4D4D4"
   id="stop117" />
				<stop
   offset="0.5018"
   style="stop-color:#B2B2B2"
   id="stop118" />
				<stop
   offset="0.6474"
   style="stop-color:#888888"
   id="stop119" />
				<stop
   offset="0.7976"
   style="stop-color:#535353"
   id="stop120" />
				<stop
   offset="0.9487"
   style="stop-color:#161616"
   id="stop121" />
				<stop
   offset="1"
   style="stop-color:#000000"
   id="stop122" />
			</linearGradient>
			<path
   fill="url(#XMLID_16_)"
   d="M93.331,104.879c1.608-0.554,3.448-0.086,4.295,1.528c-1.047,1.207-3.991,0.246-4.903-0.92"
   id="path122" />
		</g>
		
			<linearGradient
   id="XMLID_17_"
   gradientUnits="userSpaceOnUse"
   x1="163.2959"
   y1="83.1099"
   x2="162.5374"
   y2="86.5239"
   gradientTransform="matrix(0.9824 -0.1867 0.1867 0.9824 -11.894 52.1387)">
			<stop
   offset="0"
   style="stop-color:#FFFFFF"
   id="stop123" />
			<stop
   offset="0.1046"
   style="stop-color:#FAFAFA"
   id="stop124" />
			<stop
   offset="0.2282"
   style="stop-color:#ECECEC"
   id="stop125" />
			<stop
   offset="0.3616"
   style="stop-color:#D4D4D4"
   id="stop126" />
			<stop
   offset="0.5018"
   style="stop-color:#B2B2B2"
   id="stop127" />
			<stop
   offset="0.6474"
   style="stop-color:#888888"
   id="stop128" />
			<stop
   offset="0.7976"
   style="stop-color:#535353"
   id="stop129" />
			<stop
   offset="0.9487"
   style="stop-color:#161616"
   id="stop130" />
			<stop
   offset="1"
   style="stop-color:#000000"
   id="stop131" />
		</linearGradient>
		<path
   fill="url(#XMLID_17_)"
   d="M161.917,105.949c0.874,1.01,4.244,0.918,4.117-0.935    C165.841,102.31,161.816,105.834,161.917,105.949z"
   id="path131" />
	</g><g
     id="g166">
		<path
   fill="#FFFFFF"
   stroke="#000000"
   stroke-width="0.426"
   d="M383.516,28.471c-0.162,0.79,5.248-3.885,4.977-3.808    c-5.247,1.492-11.477,1.496-16.906,2.181c-3.664,0.462-7.534,1.34-11.075,2.458c-21.096,6.654-37.612,19.992-52.641,36.066    c-2.435,2.604-4.719,4.999-6.006,8.243c-1.367,3.444-2.447,7-4.094,10.373c-4.186,8.583-11.377,17.5-8.348,27.688    c0.836,2.813,4.795,5.946,2.617,9.089c2.349,0.613,1.592,2.93,2.076,4.645c0.906,3.21,2.255,2.398,4.52,3.56    c2.482,1.271,3.402,3.23,5.732,4.731c-1.396-0.899,3.428-3.48,3.875-3.593c1.628-0.408,4.534-0.391,5.957,0.653    c3.267,2.399,1.592,7.97,1.398,11.322c-0.139,2.445-3.012,8.819-1.436,10.613c4.221-2.103,4.557-9.043,4.969-13.116    c0.326-3.208-0.424-6.479,0.178-9.682c0.275-1.465,0.587-3.072,1.849-4.027c0.745-0.566,5.296-0.705,5-0.208    c0.81-1.361,2.036-1.574,2.759,0.026c1.064-2.686-0.783-6.417,2.8-7.775c-1.008-2.603,0.019-2.348,0.753-3.823    c-0.033,0.066,1.049-1.952,0.772-1.792c0.017-0.01,2.483-0.825,2.064-0.304c0.519-0.646,1.406-9.338,4.527-5.059    c0.288-1.078-0.673-2.187,0.72-2.765c0.261,1.219,1.06,3.762,1.906,1.443c1.002-0.215,1.878,0.136,2.521,0.958    c3.836-1.429,1.641-3.785,3.07-6.983c0.133-0.294,1.515-0.217,1.738-0.834c0.27-0.746-0.381-1.892-0.309-2.779    c0.182-2.238,1.95-4.151,2.209-6.352c3.283,0.484,1.922-2.672,1.792-4.012c-0.249-2.557,0.153-3.417,1.41-5.929    c0.319,0.06,0.628,0.164,0.925,0.268c0.026,0.009,0.205-1.104,0.213-1.197c2.189-0.109,1.258-1.633,2.168-2.849    c0.876-1.171,2.324-1.736,3.111-2.982c1.111-1.754,0.811-4.651-1.818-4.332c0.023-0.4-0.131-0.913-0.106-1.313    c-1.037-0.043-1.888-0.503-2.395-1.381c1.182-0.421,2.156,0.068,3.484-0.144c-0.712-0.576-0.563-0.887-1.7-1.064    c0.275-2.099,1.846-0.233,3.148-0.731c1.648-0.629,1.248-2.358,3.148-2.474c0.036-1.338-1.279-1.85-2.295-2.147    c0.459-0.226,0.558-0.503,1.25-0.71c-0.597-0.164-1.42-0.977-1.996-1.356c1.393-0.679,1.811,0.845,3.105,0.733    c2.401-0.207,0.47-0.123,0.326-1.444c0.041,0.366-2.313-1.825,0.01-1.437c1.336,0.223,1.146,2.562,2.787,1.364    c0.005-0.276-0.226-0.277-0.268-0.551c1.234-0.167,2.271,0.243,3.487,0.214c-0.655-0.794-5.024-1.155-3.821-3.149    c0.894-1.48,3.754,1.994,4.86,2.122c-0.29-0.881-0.351-1.476-1.337-2.032c1.563,0.24,2.54,2.464,4.107,1.028    c-0.571-0.657-0.875-1.282-1.701-1.448c0.796-0.419,1.738-0.09,2.837-0.053c0.817-3.405-3.814-1.333-5.617-2.147    c0.718-1.639,3.319-0.944,4.905-1.046c0.062-2.588-2.652-0.608-4.157-0.712c0.148-2.519,3.424-0.492,4.609-2.076    c-1.073-1.359-3.189-0.194-4.611-0.053c0.311-1.339,1.757-1.146,3.095-1.063c0.173-3.37-5.968,1.19-7.272-1.279    c2.877-2.612,9.823,2.07,12.18-1.614c-1.443-0.442-3.2-0.193-4.745-0.311c0.611-0.358,1.226-1.042,1.896-1.375    c-1.542,0.044-4.061,0.629-5.082-0.338c1.582-1.428,5.233,0.408,5.909-1.8c-1.603-0.384-4.252,0.586-5.668-0.329    c1.72-0.969,4.196,1.011,5.628-0.622c-1.404-0.944-3.848-0.392-5.575-0.497c-0.145-3.144,4.311-1.675,5.587-3.053    c-1.696-1.114-3.731,0.168-5.614-0.143c0.937-2.637,4.683-1.504,5.004-3.789c1.915-0.13,1.146-1.764,2.405-2.208    C380.516,27.729,382.141,28.758,383.516,28.471z"
   id="path161" />
		<path
   fill="#BCBEC0"
   d="M299.875,115.783c2.766,1.688,6.6,0.571,8.396,4.242c-0.353,0.291-0.587,0.829-0.889,1.075    c0.37,0.189,0.733,0.65,0.993,0.798c-0.739,0.332-1.213,1.075-1.787,1.686c5.133,1.141,5.893,4.564,9.127,7.87    c-0.232-1.321-0.395-2.784-0.239-4.185c0.452,0.173,1.067,0.036,1.581,0.333c-1.762-5.389-5.186-8.677-9.01-12.529    c-1.808-1.82-3.006-4.334-5.385-5.696c-2.51-1.438-5.48-1.641-8.082-2.92C297.017,109.023,296.904,113.972,299.875,115.783z"
   id="path162" />
		<path
   fill="#BCBEC0"
   d="M301.224,124.018c0,1.993-1.028,7.25,1.464,7.694c-0.753-2.01-0.919-4.209-1.464-6.274"
   id="path163" />
		<path
   fill="#BCBEC0"
   d="M290.22,102.365c-3.905,5.713,1.584,9.97,3.112,14.799c0.04-3.045-1.984-5.929-2.333-8.723    c0.156,0.004,0.289,0.063,0.401,0.174c-0.014-2.273-2.309-3.908-0.472-6.25"
   id="path164" />
		<path
   fill="#D8D9DA"
   d="M374.999,27.209c3.675-0.578,7.506-1.395,11.221-1.491c-0.369,1.05-1.541,1.753-2.556,2.15    c0.083-0.045,0.272-0.187,0.348-0.259c-1.853,1.063-4.009-0.444-5.961,0.254c0.095,1.172-1.057,1.846-2.141,1.899    c0.069,0.157,0.17,0.249,0.242,0.427c-1.688,1.656-4.056,1.555-5.538,3.011c-1.314,1.291-0.568,1.356-2.705,1.525    c-8.59,0.677-16.233,1.698-23.906,5.854c-7.304,3.958-13.909,9.376-18.542,16.33c3.036-2.116,10.068,0.514,12.328,2.799    c-2.72,0.669-14.52,2.809-15.223,6.024c0.299,0.103,0.647,0.282,0.938,0.417c-6.546,2.21-13.032,6.068-15.277,12.866    c-0.354,1.07-1.343,4.892-0.009,5.704c0.928,0.564,2.247-0.884,3.317-1.124c1.534,1.894,9.068-5.042,10.687-6.001    c6.437-3.812,16.111-9.192,23.755-9.055c-5.44,0.72-12.198,3.599-16.592,6.854c-2.874,2.131-4.696,5.189-7.084,7.776    c0.022-0.059,0.195-0.394,0.253-0.552c-1.393,0.645-2.376,1.79-2.215,3.365c-0.993,0.236-2.033-0.402-2.743-0.336    c-2.692,0.248-5.608,2.026-7.86,3.386c-1.647,0.997-12.27,9.514-7.127,10.553c-2.471,4.922,7.967,4.389,10.202,2.729    c-1.481,2.866-5.427,4.678-8.408,3.023c-0.205,0.46-0.611,0.686-0.773,1.25c-0.87-1.345-2.548-1.876-4.135-2.04    c0.466,2.062,3.253,4.438,4.914,5.643c2.285,1.657,4.994,1.812,7.692,1.725c-0.311,0.502-0.514,1.682-0.635,1.896    c0.311-0.327,0.801-0.579,1.141-0.887c0.343,0.804-0.048,2.128,0.359,2.919c0.674,1.307,2.604,2.427,3.805,3.202    c1.381,0.889,3.318,2.606,4.055,0.04c0.086,0.173,0.57,0.625,0.701,1.001c3.174-1.255,0.956-6.973-1.134-5.087    c-5.846-11.462,7.157-22.81,16.653-28.118c-1.191,1.353-3.119,2.511-3.469,4.426c0.187,0.018,0.368,0.055,0.545,0.115    c-1.662,1.886-5.465,5.943-2.398,8.207c1.57,1.158,7.771,0.522,7.889-1.766c1.113,0.51,0.979,0.325,1.98,0.294    c1.559,1.531,4.608-0.33,3.949-2.483c-0.277,0-0.639-0.008-0.924-0.035c3.061-0.223,5.599-6.417,1.795-5.405    c3.203-1.924,3.288-3.75,4.459-6.976c-2.806-0.525-7.002,0.501-9.556,1.227c-0.075-0.251-0.271-0.679-0.33-0.899    c-0.516,0.423-1.509,0.785-1.993,1.35c0.631-1.773,3.58-4.199,4.843-5.668c1.679-1.958,2.372-1.767,4.951-2.797    c2.149-0.858,3.95-2.268,5.966-3.292c0.748-0.379,0.912-0.627,1.837-0.978c0.846-0.319,1.942-0.366,2.812-0.682    c-0.633,1.24-2.97,5.261-2.58,6.362c-3.494,1.647-4.253,3.182-4.482,7.091c-0.043,0.745,0.22,1.778-0.002,2.483    c-0.391,1.253-1.096,1.25-1.79,2.407c-0.763,1.271-1.333,3.32-1.678,4.774c-0.459,1.935-0.756,2.92-1.509,4.518    c-0.72,1.527-0.59,3.745-1.412,4.985c-1.359,2.051-2.904,0.993-4.363,0.434c-0.74-0.283,0.062-1.604-1.307-1.532    c-1.089,0.058-1.57,1.149-1.481,2.032c-1.718-0.711-3.563,2.119-4.508,3.425c0.858,1.873-3.806,3.653-3.692,6.3    c-0.773-1.577-1.245-3.781-1.756-5.598c-1.713,2.566-2.53,5.824-1.713,8.802c0.48,1.756,1.705,3.047,0.374,4.963    c-1.225,1.76-2.548,1.343-4.608,1.764c-2.043,0.42-3.701,1.728-5.627,2.085c-2.35-4.386-5.793-7.905-8.926-11.651    c-3.113-3.72-7.562-7.146-12.396-8.135c-0.145,1.489,0.785,2.52,1.044,3.867c0.247,1.277-1.146,1.722,0.687,3.468    c2.282,2.177,6.103,1.304,8.517,3.181c2.734,2.125,0.381,4.802,2.122,6.466c2.232,2.132,5.163,2.229,6.61,5.661    c-1.653-2.478-10.44-1.743-10.87,1.706c-1.055-2.652-0.938-6.317-3.105-8.414c-0.08,0.435-0.348,0.871-0.436,1.324    c-0.152-0.752-0.8-1.353-1.055-2.013c-1.736,0.939-0.706,3.769-2.521,4.565c-0.804-1.749-1.881-4.369-2.377-6.316    c-0.454-1.78-0.091-2.715-0.081-4.677c0.013-2.636,0.029-8.75-3.347-9.341c1.908-2.69,0.004-4.817,0.508-7.669    c0.34-1.916,2.049-4.068,3.037-5.718c2.252-3.754,3.736-7.663,5.215-11.782c1.078-3.003,1.377-6.038,3.088-8.787    c2.102-3.375,5.487-6.232,8.189-9.158c9.346-10.115,19.336-18.736,31.334-25.716c5.957-3.465,12.331-6.208,18.99-7.998    c3.326-0.893,6.713-1.551,10.13-1.978C372.717,27.562,373.847,27.391,374.999,27.209z"
   id="path165" />
		<path
   fill="#BCBEC0"
   d="M293.414,94.556c3.619-6.996,6.605-14.27,9.23-21.553c1.113,3.052-0.203,6.312-1.412,9.13    c-2.381,5.551-4.9,13.4-9.593,17.392"
   id="path166" />
	</g></g>
	
	
	
	
	
	
	
	
	
	
	<linearGradient
   id="XMLID_21_"
   gradientUnits="userSpaceOnUse"
   x1="96.6118"
   y1="256.2207"
   x2="96.0039"
   y2="258.9571">
		<stop
   offset="0"
   style="stop-color:#FFFFFF"
   id="stop268" />
		<stop
   offset="0.1046"
   style="stop-color:#FAFAFA"
   id="stop269" />
		<stop
   offset="0.2282"
   style="stop-color:#ECECEC"
   id="stop270" />
		<stop
   offset="0.3616"
   style="stop-color:#D4D4D4"
   id="stop271" />
		<stop
   offset="0.5018"
   style="stop-color:#B2B2B2"
   id="stop272" />
		<stop
   offset="0.6474"
   style="stop-color:#888888"
   id="stop273" />
		<stop
   offset="0.7976"
   style="stop-color:#535353"
   id="stop274" />
		<stop
   offset="0.9487"
   style="stop-color:#161616"
   id="stop275" />
		<stop
   offset="1"
   style="stop-color:#000000"
   id="stop276" />
	</linearGradient>
	
	
		<linearGradient
   id="XMLID_22_"
   gradientUnits="userSpaceOnUse"
   x1="135.9546"
   y1="232.6323"
   x2="135.1961"
   y2="236.0464"
   gradientTransform="matrix(0.9824 -0.1867 0.1867 0.9824 -11.894 52.1387)">
		<stop
   offset="0"
   style="stop-color:#FFFFFF"
   id="stop277" />
		<stop
   offset="0.1046"
   style="stop-color:#FAFAFA"
   id="stop278" />
		<stop
   offset="0.2282"
   style="stop-color:#ECECEC"
   id="stop279" />
		<stop
   offset="0.3616"
   style="stop-color:#D4D4D4"
   id="stop280" />
		<stop
   offset="0.5018"
   style="stop-color:#B2B2B2"
   id="stop281" />
		<stop
   offset="0.6474"
   style="stop-color:#888888"
   id="stop282" />
		<stop
   offset="0.7976"
   style="stop-color:#535353"
   id="stop283" />
		<stop
   offset="0.9487"
   style="stop-color:#161616"
   id="stop284" />
		<stop
   offset="1"
   style="stop-color:#000000"
   id="stop285" />
	</linearGradient>
	
</g>
</svg>
