<?xml version="1.0" encoding="UTF-8" standalone="no"?>
<!-- Generator: Adobe Illustrator 12.0.0, SVG Export Plug-In . SVG Version: 6.00 Build 51448)  -->

<svg
   version="1.0"
   id="Layer_1"
   width="297.60214"
   height="326.88553"
   viewBox="0 0 297.60213 326.88552"
   overflow="visible"
   enable-background="new 0 0 435.687 841.89"
   xml:space="preserve"
   sodipodi:version="0.32"
   inkscape:version="1.4.2 (f4327f4, 2025-05-13)"
   sodipodi:docname="upper_bones_costae.svg"
   inkscape:output_extension="org.inkscape.output.svg.inkscape"
   style="display:inline;overflow:visible"
   xmlns:inkscape="http://www.inkscape.org/namespaces/inkscape"
   xmlns:sodipodi="http://sodipodi.sourceforge.net/DTD/sodipodi-0.dtd"
   xmlns="http://www.w3.org/2000/svg"
   xmlns:svg="http://www.w3.org/2000/svg"
   xmlns:rdf="http://www.w3.org/1999/02/22-rdf-syntax-ns#"
   xmlns:cc="http://creativecommons.org/ns#"
   xmlns:dc="http://purl.org/dc/elements/1.1/"><metadata
   id="metadata3098"><rdf:RDF><cc:Work
       rdf:about=""><dc:format>image/svg+xml</dc:format><dc:type
         rdf:resource="http://purl.org/dc/dcmitype/StillImage" /></cc:Work><cc:Work
       rdf:about=""><dc:format>image/svg+xml</dc:format><dc:type
         rdf:resource="http://purl.org/dc/dcmitype/StillImage" /></cc:Work></rdf:RDF></metadata><defs
   id="defs3096"><inkscape:perspective
   sodipodi:type="inkscape:persp3d"
   inkscape:vp_x="0 : -94.059466 : 1"
   inkscape:vp_y="0 : 999.99999 : 0"
   inkscape:vp_z="435.687 : -94.059466 : 1"
   inkscape:persp3d-origin="217.84351 : -234.37448 : 1"
   id="perspective3100" />
		
		
		
		
	
		
		
	
		
		
		
		
		
	
	
	

		
		
		
	
			
			
		
				
				
				
				
				
			
	
	
</defs>
<sodipodi:namedview
   inkscape:window-height="1369"
   inkscape:window-width="2560"
   inkscape:pageshadow="2"
   inkscape:pageopacity="0.0"
   guidetolerance="10.0"
   gridtolerance="10.0"
   objecttolerance="10.0"
   borderopacity="1.0"
   bordercolor="#666666"
   pagecolor="#ffffff"
   id="base"
   showgrid="false"
   inkscape:zoom="1.9049022"
   inkscape:cx="120.74111"
   inkscape:cy="219.17136"
   inkscape:window-x="-8"
   inkscape:window-y="-8"
   inkscape:current-layer="layer3"
   showguides="true"
   inkscape:guide-bbox="true"
   inkscape:showpageshadow="2"
   inkscape:pagecheckerboard="0"
   inkscape:deskcolor="#d1d1d1"
   inkscape:window-maximized="1" />
<g
   inkscape:groupmode="layer"
   id="layer3"
   inkscape:label="Skeleton"
   style="display:inline"
   transform="translate(-63.538848,-89.863482)"><g
     style="display:inline;overflow:visible"
     id="g845">
	<g
   id="g847">
		<path
   d="m 264.042,300.578 c 1.171,-0.396 0.789,-1.785 0.439,-2.79 -0.98,-2.826 -3.354,-5.408 -5.707,-7.362 -3.044,-2.522 -6.597,-4.517 -9.961,-6.641 -4.553,-2.873 -10.225,-3.771 -14.935,-6.385 -4.774,-2.651 -8.089,-7.21 -13.161,-9.552 -1.573,-0.727 -8.516,-4.165 -9.512,-1.608 -0.356,0.919 -0.15,2.088 0.232,3.038 1.105,2.749 4.304,1.246 6.446,2.62 3.124,2.004 5.869,4.155 8.265,6.924 1.184,1.367 1.655,2.938 3.282,3.936 1.719,1.055 3.828,1.391 5.782,1.892 4.538,1.165 9.504,2.754 13.543,4.998 4.371,2.427 7.947,5.591 11.594,8.818 0.857,0.761 1.743,2.302 3.125,2.215 0.221,-0.014 0.409,-0.049 0.568,-0.103 z"
   id="path849"
   style="fill:#f9e3b7;stroke:#967348;stroke-width:0.3349" />
		<path
   d="m 214.881,266.945 c -1.454,0.179 -0.469,2.126 0.343,2.48 0.195,-0.229 0.587,-0.304 0.766,-0.486 1.425,1.106 3.345,1.536 4.903,2.611 2.125,1.466 4.285,3.343 5.811,5.349 -0.23,-1.513 -2.596,-3.966 -3.827,-4.969 2.846,1.232 5.106,3.899 7.349,5.882 1.011,0.895 2.171,1.981 3.436,2.557 1.113,0.505 2.331,0.519 3.436,0.902 -2.425,-0.966 -4.434,-3.196 -6.338,-4.815 -2.12,-1.8 -4.36,-3.531 -6.635,-5.18 -1.926,-1.394 -3.984,-2.319 -6.1,-3.437 -1.126,-0.594 -2.27,-1.546 -3.336,-1.609"
   id="path851"
   style="fill:#dcc06d" />
		<path
   d="m 213.177,269.958 c 0.833,-0.35 1.964,-0.002 2.8,0.157 -0.063,0.048 -0.1,0.108 -0.104,0.182 3.601,1.716 5.955,3.419 8.888,6.127 2.005,1.851 5.154,6.654 8.455,6.262 -3.707,-1.696 -5.509,-4.484 -8.214,-7.156 -1.479,-1.458 -2.856,-2.979 -4.506,-4.266 -1.152,-0.897 -2.95,-1.684 -3.856,-2.681 0.188,-0.025 0.363,-0.037 0.55,-0.066 -1.318,-0.745 -3.657,-1.341 -4.604,-2.433 0.096,-0.039 0.192,-0.052 0.292,-0.043 -1.654,-0.145 0.109,3.996 0.299,3.917 z"
   id="path853"
   style="fill:#ccb25c" />
	</g>
	<g
   id="g855">
		<path
   d="m 180.092,279.628 c -1.067,0.865 -2.216,1.614 -3.483,2.149 -1.728,0.729 -2.756,1.49 -4.376,2.437 -2.402,1.403 -5.432,1.822 -8.116,2.58 -3.863,1.09 -7.91,2.438 -11.438,4.285 -2.422,1.269 -4.503,2.927 -6.5,4.695 -0.855,0.758 -3.46,3.733 -4.921,3.05 -3.764,-1.761 3.173,-7.266 4.586,-8.441 3.715,-3.092 8.012,-5.52 12.351,-7.748 2.404,-1.236 5.136,-1.754 7.765,-2.411 8.085,-2.022 13.996,-8.535 20.594,-12.919 1.271,-0.845 4.104,-3.112 5.203,-1.117 1.706,3.1 -3.378,4.846 -4.982,6.352 -2.355,2.208 -4.095,4.991 -6.683,7.088 z"
   id="path857"
   style="fill:#f9e3b7;stroke:#967348;stroke-width:0.3349" />
		<path
   d="m 181.638,275.834 c 1.449,-1.825 3.766,-3.75 5.701,-5.14 1.918,-1.378 4.071,-1.749 3.699,-4.437 -2.627,-0.425 -5.133,2.838 -6.762,4.224 -1.866,1.589 -4.237,2.999 -6.192,4.643 -2.468,2.077 -5.247,3.389 -8.576,4.694 -3.356,1.316 -7.667,1.932 -10.759,3.537 0.381,-0.06 0.916,0.093 1.308,0.07 0.559,0.98 6.162,-1.003 7.354,-1.298 -0.151,0.07 -0.331,0.13 -0.489,0.208 3.063,-0.404 5.944,-1.833 8.635,-3.159 -1.731,1.823 -4.338,2.1 -6.372,3.464 -0.79,0.53 -1.006,1.161 -2.073,1.613 -1.258,0.534 -2.825,0.698 -4.158,0.965 -3.192,0.638 -6.948,1.278 -9.788,2.826 -1.462,0.796 -3.601,2.168 -4.488,3.378 3.129,-1.153 6.032,-2.766 9.292,-3.741 2.706,-0.81 5.301,-1.614 7.927,-2.632 2.489,-0.965 4.784,-1.898 7.116,-3.125 1.239,-0.651 4.264,-1.929 4.67,-3.149 -0.182,-0.023 -0.354,-0.038 -0.536,-0.057 0.6,-1.95 4.214,-4.555 6.208,-5.099 -0.172,0.888 -1.152,1.504 -1.717,2.215 z"
   id="path859"
   style="fill:#dcc06d" />
		<path
   d="m 181.773,275.17 c -0.563,0.621 -1.025,1.41 -1.345,2.138 2.484,-0.994 4.754,-4.16 6.77,-5.905 0.89,-0.77 2.689,-1.88 3.233,-2.89 1.151,-2.136 -1.142,-0.533 -2.065,0.207 -2.674,2.141 -5.274,4.532 -7.368,7.166"
   id="path861"
   style="fill:#ccb25c" />
	</g>
	<g
   id="g863">
		<path
   d="m 191.72,280.363 c 0.233,-1.419 0.5,-4.008 -0.908,-3.77 -1.344,0.229 -2.482,2.124 -3.406,2.942 -2.835,2.512 -5.793,4.872 -9.226,6.675 -3.612,1.896 -7.118,3.922 -10.916,5.497 -1.751,0.726 -2.999,1.577 -4.583,2.496 -1.521,0.884 -3.561,1.729 -3.802,3.605 -0.103,0.792 -0.174,1.9 -0.007,2.748 0.581,2.975 4.093,-0.115 5.144,-0.904 2.381,-1.788 5.059,-3.2 7.739,-4.564 3.535,-1.8 6.755,-3.719 9.915,-6.06 1.295,-0.961 2.46,-2.055 3.739,-3.034 1.625,-1.243 3.361,-2.47 5.128,-3.365 1.102,-0.557 1.01,-1.205 1.183,-2.266 z"
   id="path865"
   style="fill:#f9e3b7;stroke:#967348;stroke-width:0.3349" />
		<path
   d="m 189.905,279.103 c 1.869,-0.506 0.277,1.982 -0.165,2.507 -1.267,1.501 -3.321,2.235 -4.879,3.442 -2.323,1.8 -4.798,3.415 -7.206,5.137 -3.605,2.577 -8.386,4.572 -12.679,5.921 3.01,-1.411 5.579,-3.479 8.311,-5.245 3.979,-2.571 8.673,-4.311 12.583,-7.129 1.295,-0.933 1.924,-1.896 2.501,-3.203 0.556,-1.257 1.206,-1.55 2.27,-2.619 0.64,0.715 0.432,1.724 0.238,2.561 -0.024,-0.566 -0.161,-0.1 -0.2,-0.122"
   id="path867"
   style="fill:#dcc06d" />
	</g>
	<g
   id="g869">
		<path
   d="m 237.615,293.124 c -0.857,-0.391 -1.749,-0.678 -2.587,-1.165 -2.766,-1.608 -5.377,-3.44 -7.97,-5.275 -1.588,-1.123 -3.238,-2.183 -4.83,-3.3 -2.731,-1.917 -5.273,-3.93 -7.733,-6.13 -0.685,-0.611 -1.567,-0.987 -2.314,-1.547 -1.149,0.734 -1.224,3.515 -1.143,4.696 0.062,0.917 0.38,1.301 1.267,1.595 1.26,0.417 1.815,0.499 2.964,1.333 2.438,1.77 4.628,3.813 7.237,5.38 2.678,1.607 5.344,3.434 7.838,5.31 2.791,2.099 5.352,4.356 8.013,6.583 0.892,0.744 5.121,3.297 5.678,1.398 0.209,-0.714 -0.299,-2.212 -0.4,-2.98 -0.163,-1.209 -0.199,-1.884 -1.21,-2.68 -1.243,-0.979 -2.562,-1.915 -3.922,-2.751 -0.289,-0.178 -0.587,-0.329 -0.888,-0.467 z"
   id="path871"
   style="fill:#f9e3b7;stroke:#967348;stroke-width:0.3349" />
		<path
   d="m 212.75,277.316 c -1.361,0.218 -1.38,2.736 -0.58,3.417 0.19,-0.172 0.563,-0.227 0.736,-0.351 1.792,1.752 4.472,4.281 6.94,5.004 -1.741,-1.909 -5.194,-3.883 -6.103,-6.248 0.103,-0.09 0.237,-0.154 0.333,-0.25 -0.166,-0.72 -1.161,-1.334 -1.713,-1.753"
   id="path873"
   style="fill:#ccb25c" />
		<path
   d="m 223.786,288.093 c -1.958,-1.183 -3.707,-2.47 -5.533,-3.813 -1.416,-1.042 -3.803,-2.223 -4.287,-3.954 -0.322,-1.156 0.052,-1.73 1.278,-1.048 1.037,0.579 1.5,2.05 2.319,2.854 3.116,3.055 7.042,5.855 10.528,8.563 1.045,0.81 2.3,1.46 3.45,2.136 0.958,0.564 1.744,1.478 2.677,1.993 0.418,0.232 0.734,0.418 1.2,0.528 0.313,0.074 0.538,-0.634 0.954,-0.5 0.852,0.275 2.003,2.193 2.517,2.847 0.723,0.916 1.369,1.879 2.293,2.615 -2.799,-2.339 -6.444,-3.682 -9.218,-6.195 -2.403,-2.175 -5.35,-4.319 -8.178,-6.026 z"
   id="path875"
   style="fill:#dcc06d" />
	</g>
	<g
   id="g877">
		<g
   id="g879">
			<path
   d="m 147.833,288.628 c -0.046,-0.259 -0.117,-0.52 -0.066,-0.824 0.144,-0.862 0.971,-1.744 0.734,-2.655 -0.359,-1.376 -2.777,-1.067 -3.755,-2.284 -1.479,-1.841 1.474,-4.512 2.808,-5.555 3.041,-2.378 7.339,-4.263 10.986,-5.72 4.057,-1.622 8.405,-2.788 12.741,-3.613 1.456,-0.276 3.461,-0.468 4.806,-1.078 1.128,-0.509 1.914,-1.552 2.815,-2.279 2.488,-2.003 4.805,-4.43 7.762,-5.909 1.548,-0.775 3.627,-0.843 4.984,-1.818 1.435,-1.033 2.458,-3.847 1.312,-5.328 -1.566,-2.023 -4.17,-0.415 -5.959,0.361 -3.76,1.632 -7.302,4.169 -10.615,6.481 -1.197,0.836 -2.125,1.896 -3.552,2.418 -2.046,0.75 -4.383,1.098 -6.548,1.426 -4.971,0.755 -9.521,2.028 -14.19,3.81 -4.208,1.604 -7.558,4.107 -10.989,6.815 -3.124,2.465 -5.205,5.318 -5.227,9.236 -0.008,1.639 0.387,3.58 1.553,4.856 1.711,1.874 3.589,3.922 6.437,3.766 1.116,-0.062 3.062,-0.183 3.766,-1.136 0.265,-0.362 0.249,-0.664 0.197,-0.97 z"
   id="path881"
   style="fill:#f9e3b7;stroke:#967348;stroke-width:0.3349" />
			<path
   d="m 143.633,282.679 c -1.83,-3.189 -3.343,-4.57 -1.162,-8.18 2.2,-3.64 6.403,-5.31 9.991,-7.393 -0.078,0.029 -0.108,0.083 -0.09,0.161 2.543,-0.189 5.479,-1.904 8.098,-2.517 4,-0.935 8.484,-1.334 12.211,-3.01 2.805,-1.262 5.376,-3.824 8.124,-5.524 1.635,-1.011 3.379,-1.857 5.192,-2.563 1.117,-0.435 4.213,-0.879 4.769,-1.982 -0.305,-0.018 -0.62,-0.012 -0.93,-0.012 0.414,-0.061 1.09,-0.525 1.524,-0.364 0.31,0.115 1.112,1.087 1.26,1.363 1.01,1.872 -1.399,3.098 -2.604,4.166 -1.688,1.495 -4.272,2.12 -6.309,3.147 -1.799,0.908 -3.408,1.985 -5.005,3.017 0.373,-0.652 1.008,-1.557 0.57,-2.287 -1.43,0.447 -2.206,1.778 -3.484,2.502 -2.246,1.271 -5.114,2.244 -7.612,2.986 -1.987,0.59 -4.283,1.49 -6.423,1.296 -1.332,-0.121 -2.086,-0.524 -3.584,-0.329 -5.068,0.656 -13.456,4.526 -14.723,9.721 -1.414,1.022 -2.457,3.51 -0.59,4.729"
   id="path883"
   style="fill:#dcc06d" />
			<path
   d="m 192.034,254.697 c 0.4,-0.342 0.629,-1.353 0.008,-1.628 0.118,-0.147 0.26,-0.385 0.443,-0.507 -1.601,0.828 -3.367,1.357 -4.977,2.145 1.153,-0.278 2.486,-0.934 3.723,-0.888 -0.182,0.127 -0.314,0.325 -0.516,0.437 0.213,-0.046 0.375,0.07 0.536,0.079 -0.212,1.275 -3.328,1.391 -4.303,1.839 -2.42,1.116 -4.845,2.694 -7.042,4.177 0.375,-0.4 0.332,-0.598 0.482,-1.036 -1.711,0.868 -2.94,2.546 -4.457,3.696 -2.295,1.738 -5.245,2.713 -8.068,3.213 -3.017,0.534 -5.718,1.286 -8.867,1.249 0.088,0.111 0.229,0.274 0.302,0.357 -2.145,2.166 -7.099,2.687 -10.008,3.764 -0.603,0.223 -2.241,1.186 -2.806,0.768 -0.747,-0.553 -0.043,-1.39 0.41,-1.814 -1.047,0.982 -2.879,1.468 -4,2.562 -1.556,1.517 -3.453,3.938 -2.652,6.079 0.693,1.851 2.87,4.114 5.075,4.397 -1.53,-0.196 -1.547,-2.62 -1.232,-3.5 0.557,-1.559 2.167,-2.843 3.5,-3.833 2.149,-1.598 4.601,-2.757 6.925,-4.114 3.764,-2.199 8.193,-3.372 12.502,-4.117 1.906,-0.329 3.973,-0.558 5.846,-0.938 1.309,-0.267 1.735,-0.93 2.871,-1.508 1.123,0.896 4.323,-2.908 5.116,-3.688 1.843,-1.815 4.054,-3.232 6.36,-4.409 1.826,-0.932 5.471,-1.035 5.233,-3.532 -0.309,0.611 -1.216,1.001 -2.235,1.304"
   id="path885"
   style="fill:#ccb25c" />
			<path
   d="m 137.437,282.5 c -1.683,4.021 4.147,6.008 6.756,6.941 -0.272,-0.25 -0.606,-0.677 -0.933,-0.835 1.033,0.328 3,0.014 3.062,-1.252 -2.087,0.045 -3.814,-1.479 -5.743,-1.975 1.223,0.95 2.929,1.284 4.147,2.306 -0.485,0.207 -1.086,0.252 -1.607,0.206 0.054,0.166 0.072,0.346 0.11,0.488 -2.59,-0.073 -5.578,-2.225 -5.988,-4.627"
   id="path887"
   style="fill:#dcc06d" />
		</g>
		<g
   id="g889">
			<path
   d="m 141.69,267.188 c -0.585,-1.18 -0.513,-2.49 0.649,-3.863 3.099,-3.66 9.201,-5.542 13.728,-7.109 2.196,-0.76 4.528,-1.181 6.663,-2.031 2.258,-0.9 4.529,-1.881 6.872,-2.61 3.963,-1.23 8.015,-2.193 12.021,-3.3 3.259,-0.902 6.573,-2.083 9.716,-3.285 2.11,-0.807 3.313,-3.907 1.327,-5.646 -1.467,-1.285 -3.862,0.944 -5.472,1.361 -1.402,0.362 -2.872,0.667 -4.312,0.989 -2.468,0.555 -4.81,1.836 -7.352,2.089 -2.58,0.258 -4.877,0.762 -7.403,1.529 -5.686,1.724 -11.219,3.843 -16.763,5.919 -8.077,3.025 -23.834,11.585 -15.702,21.615 1.001,1.236 2.111,1.374 3.49,2.065 3.774,1.892 6.849,4.64 11.372,4.958 3.308,0.232 10.1,-3.526 6.96,-7.272 -0.858,-1.027 -4.362,-0.091 -5.58,-0.133 -2.137,-0.073 -3.44,-0.904 -5.174,-1.833 -1.858,-0.993 -4.053,-1.458 -5.04,-3.443 z"
   id="path891"
   style="fill:#f9e3b7;stroke:#967348;stroke-width:0.3349" />
			<path
   d="m 141.89,268.196 c -1.354,-1.63 -3.518,-3.272 -3.877,-5.364 -0.396,-2.298 1.375,-4.118 3.261,-5.345 -0.328,0.662 -0.083,1.159 0.775,1.085 0.022,0.099 0.044,0.198 0.066,0.296 1.242,0.265 2.782,-0.741 3.863,-1.212 1.621,-0.705 3.458,-1.217 4.949,-2.087 -0.002,0.1 -0.106,0.13 -0.123,0.265 1.228,-0.237 2.207,-0.833 3.421,-1.126 1.243,-0.301 2.537,-0.345 3.73,-0.824 2.328,-0.931 15.784,-5.11 15.162,-7.107 3.186,-1.05 6.896,-1.855 10.222,-2.543 1.403,-0.289 6.23,-0.813 6.151,-2.472 -2.048,-0.119 -4.743,1.229 -6.524,0.741 2.235,-0.865 5.13,-1.635 7.545,-2.019 1.739,-0.276 1.223,-0.321 1.521,0.888 0.415,1.682 -0.671,2.735 -2.502,3.582 -3.982,1.838 -8.793,3.11 -13.01,4.33 -5.577,1.614 -11.095,3.271 -16.634,4.965 -3.76,1.149 -7.468,1.849 -10.985,3.609 -2.447,1.225 -10.873,5.265 -7.594,9.087"
   id="path893"
   style="fill:#ccb25c" />
			<path
   d="m 156.033,250.084 c 2.993,-0.806 5.972,-1.21 8.897,-2.091 1.831,-0.553 3.273,-1.345 5.218,-1.968 2.907,-0.932 5.943,-1.684 8.929,-2.373 1.29,-0.298 11.409,-3.343 11.4,-1.526 -0.006,1.031 -4.426,2.017 -5.294,2.246 -2.955,0.777 -6.58,0.54 -9.395,1.618 -2.926,1.121 -5.307,3.061 -8.187,4.313 -4.947,2.15 -9.736,3.903 -15.029,5.159 -1.978,0.469 -3.971,1.241 -5.801,2.081 -0.994,0.456 -5.204,2.517 -5.85,0.936 -0.879,-2.166 13.142,-7.864 15.112,-8.395 z"
   id="path895"
   style="fill:#dcc06d" />
			<path
   d="m 134.92,266.945 c -0.639,1.843 0.343,4.501 2.144,5.475 -0.013,-0.22 0.025,-0.427 0.03,-0.633 1.422,2.216 4.285,3.411 6.776,4.634 2.727,1.34 5.115,2.578 8.214,2.696 -0.077,-0.114 -0.18,-0.205 -0.253,-0.333 0.401,-0.135 0.834,-0.455 1.224,-0.583 -5.84,0.578 -12.785,-3.633 -15.82,-7.976 -0.021,0.146 -0.009,0.306 -0.025,0.454 -1.472,-0.186 -2.763,-2.863 -2.097,-4.092"
   id="path897"
   style="fill:#dcc06d" />
		</g>
		<g
   id="g899">
			<path
   d="m 254.673,292.865 c -0.41,0.064 -0.655,0.238 -1.124,-0.126 -0.93,-0.72 -1.542,-3.15 -1.649,-4.25 -0.307,-3.093 2.359,-1.816 4.422,-1.546 1.717,0.223 3.819,-0.097 4.592,-1.718 1.205,-2.538 -3.165,-5.736 -4.901,-7.139 -3,-2.423 -7.264,-4.37 -10.886,-5.88 -4.028,-1.68 -8.358,-2.909 -12.678,-3.798 -1.45,-0.298 -3.453,-0.52 -4.788,-1.148 -1.117,-0.526 -1.886,-1.581 -2.774,-2.319 -2.455,-2.039 -4.729,-4.5 -7.659,-6.022 -1.536,-0.798 -3.612,-0.896 -4.952,-1.892 -1.418,-1.052 -2.393,-3.882 -1.22,-5.346 1.6,-1.999 4.176,-0.354 5.953,0.449 3.73,1.688 7.229,4.276 10.502,6.636 1.184,0.853 2.093,1.927 3.511,2.47 2.03,0.779 4.363,1.161 6.52,1.522 4.959,0.828 9.487,2.167 14.126,4.016 4.181,1.666 7.484,4.217 10.871,6.976 5.512,4.489 9.182,12.443 2.811,17.674 -3.436,2.818 -5.968,2.051 -10.196,1.439 -0.191,-0.029 -0.344,-0.019 -0.481,0.002 z"
   id="path901"
   style="fill:#f9e3b7;stroke:#967348;stroke-width:0.3349" />
			<path
   d="m 221.173,255.055 c 0.894,0.297 0.063,0.624 -0.552,0.449 -0.631,-0.179 -1.798,-0.577 -2.054,-1.169 0.303,-0.168 0.632,-0.002 0.934,0.153 -0.603,-0.49 -1.561,-0.844 -2.297,-1.11 -0.813,-0.294 -1.725,-0.814 -2.595,-0.902 0.529,0.611 1.469,1.093 2.181,1.583 -1.243,-0.304 -2.493,-1.014 -3.732,-1.221 -0.802,-0.135 -0.623,0.204 -1.241,0.354 0.262,0.553 1.051,0.928 1.583,1.246 -0.789,0.006 -1.389,-0.635 -2.188,-0.621 0.116,0.669 0.612,0.641 0.988,1.057 0.356,0.393 0.514,1.048 0.787,1.502 -0.082,-0.011 -0.16,-0.021 -0.239,-0.031 2.139,1.691 4.966,2.597 7.412,3.878 1.785,0.933 3.375,2.034 4.955,3.088 -0.362,-0.658 -0.984,-1.571 -0.531,-2.295 1.422,0.467 2.173,1.81 3.439,2.552 2.225,1.304 5.076,2.319 7.562,3.098 1.975,0.619 4.257,1.552 6.398,1.389 1.333,-0.101 2.094,-0.493 3.589,-0.276 4.761,0.689 8.024,2.206 11.916,4.713 3.775,2.429 8.09,5.384 7.163,10.368 -0.37,1.979 -2.352,4.336 -4.794,3.898 1.905,-0.684 1.419,-3.469 0.764,-4.792 -1.013,-2.05 -2.799,-3.658 -4.805,-4.887 -2,-1.228 -3.444,-3.083 -5.514,-4.275 -2.081,-1.2 -4.625,-1.247 -6.765,-2.231 -1.553,-0.714 -3.43,-3.018 -4.647,-3.267"
   id="path903"
   style="fill:#dcc06d" />
			<path
   d="m 260.609,274.106 c 1.146,0.864 2.099,1.89 2.442,3.553 0.586,2.853 1.936,7.231 -1.873,8.747 2.425,-2.422 -1.103,-6.659 -3.092,-8.292 -2.671,-2.192 -5.978,-3.511 -8.939,-5.301 -3.726,-2.252 -8.135,-3.492 -12.431,-4.299 -1.9,-0.357 -3.963,-0.615 -5.829,-1.024 -1.305,-0.286 -1.719,-0.956 -2.845,-1.549 -1.139,0.881 -4.272,-2.971 -5.053,-3.762 -1.813,-1.841 -3.996,-3.291 -6.283,-4.501 -1.811,-0.958 -5.452,-1.114 -5.17,-3.607 0.642,1.333 4.121,1.669 5.449,2.307 2.399,1.15 4.796,2.763 6.97,4.28 -0.369,-0.407 -0.322,-0.603 -0.464,-1.043 1.695,0.893 2.894,2.589 4.392,3.761 2.263,1.771 5.196,2.789 8.013,3.331 3.007,0.578 5.694,1.369 8.845,1.377 -0.092,0.11 -0.234,0.272 -0.31,0.353 2.109,2.197 7.053,2.79 9.943,3.91 0.599,0.232 2.22,1.218 2.791,0.808 0.758,-0.542 0.069,-1.388 -0.376,-1.819 1.158,1.118 2.598,1.852 3.82,2.77 z"
   id="path905"
   style="fill:#ccb25c" />
			<path
   d="m 263.074,290.74 c -1.313,0.922 -2.448,2.153 -4.257,1.979 -1.717,-0.166 -2.777,-0.907 -3.628,-2.208 -0.128,-0.194 -1.602,-2.902 -1.166,-2.973 0.748,-0.122 1.426,0.313 2.038,0.468 -0.375,-0.24 -0.847,-0.265 -1.277,-0.298 -0.02,0.994 0.971,1.543 1.858,1.958 -0.295,-0.057 -0.608,0.036 -0.886,0.017 0.355,2.744 5.764,2.149 7.318,1.057 z"
   id="path907"
   style="fill:#dcc06d" />
		</g>
		<g
   id="g909">
			<path
   d="m 262.522,268.113 c 0.211,-1.348 -0.075,-2.736 -1.058,-3.934 -3.035,-3.705 -9.104,-5.675 -13.604,-7.309 -2.184,-0.791 -4.507,-1.247 -6.627,-2.128 -2.242,-0.933 -4.496,-1.947 -6.827,-2.709 -3.941,-1.289 -7.977,-2.31 -11.96,-3.476 -3.246,-0.95 -6.539,-2.18 -9.66,-3.427 -2.096,-0.837 -3.246,-3.954 -1.23,-5.665 1.489,-1.263 3.845,1 5.447,1.441 1.397,0.383 2.863,0.708 4.296,1.052 2.457,0.59 4.778,1.905 7.314,2.197 2.574,0.295 4.863,0.834 7.376,1.636 5.656,1.807 11.152,4.007 16.659,6.165 5.848,2.291 12.129,5.404 15.659,10.478 0.962,1.383 1.998,2.517 2.08,4.203 0.211,4.511 -0.939,8.071 -4.78,11.037 -1.369,1.055 -2.849,2.161 -4.494,2.821 -1.4,0.563 -3.058,1.104 -4.577,1.264 -0.637,0.067 -1.168,0.173 -1.736,-0.114 -0.285,-0.146 0.195,-0.645 -0.008,-0.82 -0.424,-0.363 -1.106,-0.467 -1.576,-0.814 -0.845,-0.625 -1.812,-2.591 -1.549,-3.597 0.267,-1.023 0.284,-0.699 1.354,-1.024 4,-1.221 8.818,-2.904 9.501,-7.277 z"
   id="path911"
   style="fill:#f9e3b7;stroke:#967348;stroke-width:0.3349" />
			<path
   d="m 262.63,258.356 c 0.318,0.666 0.063,1.159 -0.794,1.073 -0.022,0.099 -0.048,0.198 -0.072,0.296 -1.245,0.246 -2.769,-0.782 -3.841,-1.269 -1.609,-0.728 -3.438,-1.267 -4.911,-2.159 -0.003,0.099 0.104,0.13 0.117,0.267 -1.226,-0.255 -2.194,-0.865 -3.402,-1.177 -1.237,-0.319 -2.529,-0.383 -3.716,-0.877 -2.312,-0.965 -15.692,-5.341 -15.038,-7.327 -3.167,-1.099 -6.863,-1.958 -10.176,-2.694 -1.399,-0.309 -6.217,-0.904 -6.108,-2.561 2.05,-0.09 4.721,1.299 6.512,0.836 -2.221,-0.897 -5.102,-1.709 -7.512,-2.127 -1.734,-0.302 -1.218,-0.339 -1.536,0.866 -0.443,1.675 0.625,2.744 2.44,3.617 3.95,1.897 8.74,3.238 12.936,4.52 5.549,1.697 11.037,3.434 16.546,5.207 3.739,1.206 7.438,1.959 10.923,3.771 4.589,2.385 11.42,6.227 7.191,11.75 2.995,-3.912 5.688,-8.483 0.441,-12.012 z"
   id="path913"
   style="fill:#ccb25c" />
			<path
   d="m 248.001,250.739 c -2.977,-0.85 -5.948,-1.297 -8.859,-2.222 -1.821,-0.579 -3.25,-1.392 -5.186,-2.043 -2.89,-0.975 -5.912,-1.771 -8.886,-2.503 -1.285,-0.317 -11.353,-3.51 -11.374,-1.692 -0.011,1.03 4.391,2.082 5.258,2.322 2.939,0.821 6.569,0.636 9.363,1.755 2.907,1.164 5.253,3.137 8.113,4.432 4.91,2.222 9.668,4.045 14.936,5.377 1.974,0.498 3.953,1.3 5.768,2.166 0.985,0.469 5.161,2.593 5.831,1.023 0.918,-2.154 -13.003,-8.056 -14.964,-8.615 z"
   id="path915"
   style="fill:#dcc06d" />
			<path
   d="m 268.823,267.906 c 0.606,1.853 -0.421,4.496 -2.24,5.443 0.02,-0.22 -0.015,-0.428 -0.015,-0.634 0.007,2.326 -5.829,2.769 -5.577,5.467 0.585,0.129 1.13,-0.033 1.546,-0.437 -1.252,1.102 -3.282,1.953 -5.001,2.041 0.597,-0.967 2.459,-1.167 2.623,-2.444 -1.104,-0.233 -1.967,0.512 -3.021,0.664 1.382,-0.201 3.939,-2.271 5.078,-3.07 1.558,-1.091 3.143,-2.271 4.238,-3.783 0.015,0.146 0.003,0.305 0.015,0.452 1.474,-0.163 2.812,-2.822 2.165,-4.06"
   id="path917"
   style="fill:#dcc06d" />
		</g>
		<g
   id="g919">
			<path
   d="m 161.042,242.968 c -4.08,1.015 -8.209,1.826 -12.145,3.37 -2.385,0.935 -5.825,2.745 -6.927,5.011 -1.291,2.657 2.034,4.612 3.991,5.889 3.15,2.058 8.155,3.06 12.001,3.277 2.107,0.119 8.372,-1.555 9.252,1.038 1.298,3.821 -5.537,4.894 -8.079,5.105 -3.23,0.267 -6.555,-0.436 -9.718,-0.938 -4.291,-0.683 -8.447,-2.373 -11.463,-5.335 -4.805,-4.718 -3.835,-13.391 2.101,-16.806 7.029,-4.045 15.51,-4.685 23.167,-7.25 8.596,-2.878 17.756,-5.563 25.721,-9.743 1.359,-0.714 2.696,-2.087 4.323,-2.082 0.195,0 0.502,2.523 0.515,2.741 0.071,1.245 -0.132,1.824 -0.863,2.768 -1.574,2.029 -3.885,3.212 -6.305,4.39 -2.145,1.045 -4.438,1.746 -6.742,2.494 -1.133,0.367 -2.409,0.947 -3.48,1.43 -2.058,0.929 -4.27,1.892 -6.423,2.651 -1.606,0.568 -3.349,0.401 -4.959,0.9 -1.311,0.406 -2.636,0.759 -3.967,1.09 z"
   id="path921"
   style="fill:#f9e3b7;stroke:#967348;stroke-width:0.3349" />
			<path
   d="m 141.528,254.05 c 0.004,0.006 0.009,0.015 0.013,0.022 0.586,1.06 1.829,1.666 2.619,2.574 -3.214,-1.499 -5.653,-4.33 -5.562,-7.765 0.101,-3.809 4.173,-4.688 7.095,-6.274 -0.291,0.186 -0.329,0.397 -0.496,0.566 1.232,0.983 3.919,-0.041 5.236,-0.407 2.712,-0.755 5.544,-1.64 7.863,-3.194 -0.22,0.011 -0.45,0.001 -0.669,0.03 1.427,-0.784 2.944,-1.011 4.575,-0.88 -0.775,-0.063 0.543,1.336 0.717,1.418 0.908,0.442 2.771,0.063 3.706,-0.125 2.568,-0.516 4.691,-1.722 7.032,-2.757 1.674,-0.739 3.205,-1.728 4.864,-2.458 2.563,-1.129 5.256,-2.528 7.538,-4.116 1.072,-0.748 4.53,-5.19 5.779,-4.876 1.75,0.439 -0.613,4.103 -1.2,4.843 -1.687,2.122 -5.021,2.916 -7.465,4.061 -4.759,2.231 -9.453,4.788 -14.674,6.004 -4.276,0.995 -8.642,1.546 -12.951,2.538 -4.496,1.035 -17.889,4.112 -14.02,10.796 z"
   id="path923"
   style="fill:#ccb25c" />
			<path
   d="m 184.662,233.653 c 1.192,-0.464 3.696,-1.85 1.384,-2.594 0.537,-0.744 1.539,-1.001 2.283,-1.557 0.746,-0.559 1.503,-1.273 2.007,-2.033 0.104,-0.157 0.693,-1.627 0.708,-1.633 -0.746,0.229 -1.606,0.896 -2.302,1.233 -0.824,0.398 -1.752,0.695 -2.565,1.118 -1.609,0.835 -3.061,1.89 -4.609,2.807 -1.724,1.02 -3.607,1.866 -5.417,2.747 -1.75,0.852 -3.523,1.708 -5.344,2.414 -3.158,1.227 -6.527,1.952 -9.954,2.183 -2.698,0.181 -5.388,1.135 -7.922,1.992 -1.84,0.624 -3.542,1.379 -5.421,1.899 -1.143,0.318 -2.956,0.686 -3.492,1.802 4.651,0.547 9.136,-1.58 12.929,-3.73 1.297,-0.735 4.063,-1.791 5.604,-1.579 -2.79,1.769 4.18,1.328 4.682,1.228 4.221,-0.836 7.653,-2.33 11.456,-4.088 1.894,-0.876 4.015,-1.445 5.973,-2.209 z"
   id="path925"
   style="fill:#dcc06d" />
			<path
   d="m 144.001,261.564 c -0.007,0.074 -3.708,-1.774 -3.984,-1.976 2.486,2.611 6.214,3.776 9.768,4.529 2.061,0.436 4.135,0.87 6.251,0.997 1.99,0.119 3.825,-0.481 5.741,-0.498 -2.12,0.018 -5.861,0.602 -7.674,-0.576 0.606,-0.504 1.652,-0.176 2.292,-0.63 -3.823,-0.006 -9.107,0.344 -12.035,-2.517 -0.088,0.217 -0.322,0.28 -0.359,0.671 z"
   id="path927"
   style="fill:#dcc06d" />
		</g>
		<g
   id="g929">
			<g
   id="g931">
				<path
   d="m 143.821,247.633 c -5.25,-3.391 -10.139,-8.737 -5.6,-13.802 1.607,-1.792 4.108,-2.819 6.405,-3.637 2.792,-0.995 5.279,-2.363 7.978,-3.584 6.032,-2.731 12.334,-4.897 18.492,-7.369 2.375,-0.954 4.747,-1.892 7.179,-2.713 3.032,-1.023 6.118,-1.945 9.042,-3.221 2.433,-1.062 4.339,-2.642 7.168,-2.262 0.376,2.058 0.646,4.51 0.078,6.559 -0.819,2.953 -5.116,2.533 -7.563,3.439 -1.045,0.388 -2.087,0.663 -3.157,1.001 -6.375,2.021 -12.515,4.934 -18.709,7.396 -3.568,1.419 -7.26,2.609 -10.677,4.335 -2.355,1.19 -6.407,1.63 -7.766,4.044 -1.509,2.683 2.142,4.979 4.315,6.005 2.466,1.164 5.246,2.631 7.95,3.229 2.54,0.561 5.228,-0.024 7.67,-0.602 1.651,-0.392 3.718,-0.657 4.148,1.301 0.219,1 -0.86,2.892 -1.488,3.724 -0.621,0.823 -1.398,1.025 -2.466,1.212 -1.55,0.272 -3.175,0.339 -4.758,0.272 -2.617,-0.112 -4.965,-0.285 -7.483,-1.019 -3.884,-1.13 -7.338,-2.098 -10.758,-4.308 z"
   id="path933"
   style="fill:#f9e3b7;stroke:#967348;stroke-width:0.3349" />
				<path
   d="m 156.186,232.397 c -2.063,1.009 -13.852,4.125 -9.854,7.798 -0.993,-1.706 -3.833,-2.718 -4.309,-4.487 -0.714,-2.658 3.098,-4.377 5.016,-5.435 -2.157,1.395 0.54,1.95 1.874,1.663 1.602,-0.347 8.19,-2.069 7.566,-3.974 0.948,-0.256 1.852,-0.915 2.83,-0.857 -0.063,0.153 -0.136,0.158 -0.169,0.33 1.075,0.651 3.563,-0.538 4.657,-0.846 3.783,-1.063 7.332,-2.488 10.827,-4.179 2.521,-1.22 5.131,-2.236 7.695,-3.351 0.732,-0.319 1.512,-0.329 1.797,-1.074 1.07,0.03 6.169,-2.01 3.858,-3.25 1.632,-0.883 3.311,-2.091 4.984,-2.968 1.436,1.171 1.459,4.583 0.388,6.015 -1.048,1.401 -4.17,1.734 -5.814,2.308 -7.558,2.639 -14.988,5.439 -22.565,8.06 -3.13,1.084 -5.866,2.824 -8.781,4.247 z"
   id="path935"
   style="fill:#ccb25c" />
				<path
   d="m 158.477,227.265 c -1.347,1.336 1.416,0.693 1.99,0.483 2.071,-0.76 4.148,-1.597 6.161,-2.473 2.899,-1.262 6.061,-2.835 9.118,-3.717 -0.104,0.222 -0.066,0.462 -0.137,0.664 1.575,-0.163 14.192,-3.939 12.766,-6.405 0.616,-0.719 1.536,-1.415 1.892,-2.127 -0.542,0.079 -1.101,0.335 -1.667,0.481 0.359,-0.144 0.713,-0.401 1.058,-0.571 -3.012,0.101 -6.473,2.365 -9.235,3.42 -4.11,1.569 -8.562,2.59 -12.579,4.326 -3.398,1.468 -6.667,2.897 -10.078,4.255 -2.667,1.061 -5.706,1.918 -8.066,3.455 0.796,-0.24 1.862,-0.624 2.625,-0.2 -0.581,0.916 -3.482,2.297 -0.577,2.523 1.634,0.125 2.785,-1.037 3.752,-2.052 0.859,-0.903 2.161,-1.251 2.977,-2.062 z"
   id="path937"
   style="fill:#dcc06d" />
			</g>
			<path
   d="m 147.144,246.871 c -0.45,-0.29 -0.896,-0.594 -1.343,-0.912 0.831,0.592 1.593,1.614 2.535,2.271 1.984,1.387 4.15,1.981 6.406,2.794 2.795,1.006 5.718,0.779 8.641,0.837 2.15,0.043 4.715,-0.121 4.615,-2.94 -0.021,-0.588 -0.561,-0.936 -0.456,-1.559 -0.067,0.29 -0.162,0.311 -0.273,0.532 0.032,0.054 0.148,0.16 0.149,0.233 -0.766,0.576 -2.153,1.257 -3.184,1.343 0.966,0.06 2.228,-0.476 3.006,0.096 -0.97,0.77 -2.794,1.448 -4.027,1.726 -3.145,0.707 -6.657,-0.262 -9.602,-1.274 -2.382,-0.82 -4.452,-1.845 -6.467,-3.147 z"
   id="path939"
   style="fill:#dcc06d" />
			<path
   d="m 169.769,250.853 c 0.748,0.03 0.996,-0.557 0.977,-1.193 -0.517,0.652 -2.292,0.81 -3.24,1.152 1.047,0.061 2.013,0.183 3.039,0.041"
   id="path941"
   style="fill:#dcc06d" />
		</g>
		<g
   id="g943">
			<path
   d="m 217.458,235.794 c 4.289,2.431 8.928,5.583 13.613,7.261 2.82,1.011 5.957,1.75 8.924,2.373 6.542,1.371 13.319,2.012 19.548,4.452 2.855,1.121 7.324,3.037 5.221,6.577 -2.79,4.694 -11.922,4.61 -16.881,5.084 -2.63,0.251 -5.915,-0.407 -8.389,0.071 0.15,-0.029 3.342,2.529 3.572,2.918 0.513,0.861 0.358,2.856 1.448,3.345 0.453,0.204 1.374,-0.011 1.896,0.028 0.698,0.049 1.385,0.17 2.083,0.207 1.339,0.069 2.805,-0.137 4.138,-0.269 4.094,-0.404 8.853,-0.725 12.427,-2.696 3.228,-1.777 6.441,-3.065 7.99,-6.518 1.482,-3.303 -0.081,-7.393 -2.519,-9.955 -2.146,-2.252 -5.191,-2.938 -8.113,-3.916 -5.242,-1.753 -10.242,-2.73 -15.621,-3.857 -4.285,-0.897 -9.844,-1.811 -13.715,-3.747 -3.855,-1.928 -8.354,-3.428 -11.868,-5.796 -3.666,-2.472 -6.87,-5.49 -10.643,-7.832 -2.128,1.437 -0.69,5.271 0.386,6.944 1.237,1.923 3.47,3.659 5.526,4.781 0.326,0.181 0.65,0.362 0.977,0.545 z"
   id="path945"
   style="fill:#f9e3b7;stroke:#967348;stroke-width:0.3349" />
			<path
   d="m 266.209,257 c 0.86,-0.878 1.527,-1.891 1.845,-2.908 0.521,-1.677 0.318,-3.458 -0.865,-4.858 -1.278,-1.511 -2.692,-2.133 -4.445,-3.083 0.29,0.186 0.328,0.396 0.497,0.566 -1.233,0.983 -3.921,-0.04 -5.236,-0.408 -2.715,-0.755 -5.543,-1.639 -7.863,-3.194 0.219,0.01 0.45,0.002 0.667,0.029 -1.427,-0.783 -2.942,-1.011 -4.572,-0.879 1.48,3.197 -8.399,0.455 -9.351,0.173 -4.278,-1.263 -8.226,-3.021 -12.11,-5.093 -0.98,-0.521 -3.464,-1.335 -3.643,-2.441 0.457,-0.308 0.836,-0.495 1.291,-0.42 -0.255,-0.321 -0.399,-0.701 -0.775,-1.015 0.06,-0.146 0.128,-0.183 0.158,-0.339 0.094,-0.513 -2.498,-2.09 -2.935,-2.442 -1.521,-1.221 -3.018,-2.467 -4.566,-3.658 -1.203,-0.925 -2.941,-2.7 -4.554,-2.873 -0.245,1.403 0.879,3.867 1.453,5.232 1.032,2.456 2.562,3.562 5.017,4.782 1.407,0.698 2.689,1.556 4.048,2.378 2.966,1.797 6.616,3.163 9.821,4.577 3.118,1.377 6.343,2.576 9.74,3.218 3.163,0.598 6.348,1.068 9.495,1.736 4.289,0.909 8.997,1.894 12.856,3.92 1.824,0.957 3.671,2.678 3.72,4.766 0.05,2.125 -2.456,3.42 -3.847,4.749 1.467,-0.377 2.987,-1.323 4.154,-2.515 z"
   id="path947"
   style="fill:#ccb25c" />
			<path
   d="m 251.491,243.844 c -1.299,-0.736 -4.064,-1.792 -5.604,-1.579 2.789,1.767 -4.181,1.327 -4.683,1.228 -4.223,-0.838 -7.654,-2.332 -11.454,-4.088 -1.895,-0.877 -4.015,-1.445 -5.974,-2.209 -1.404,-0.546 -4.191,-2.445 -0.983,-2.142 -0.756,-0.491 -1.421,-1.341 -1.869,-2.086 1.677,-0.009 3.61,1.688 5.138,2.297 3.828,1.528 7.721,2.939 11.568,4.432 3.156,1.227 6.526,1.952 9.954,2.183 2.697,0.182 5.387,1.135 7.921,1.993 1.841,0.623 3.543,1.377 5.423,1.899 1.14,0.317 2.956,0.685 3.493,1.802 -4.655,0.547 -9.137,-1.582 -12.93,-3.73 z"
   id="path949"
   style="fill:#dcc06d" />
			<path
   d="m 253.022,266.659 c -1.078,0.128 -2.109,0.295 -3.19,0.285 -0.96,-0.009 -2.227,0.307 -3.104,-0.153 -0.267,-0.14 -0.499,-0.457 -0.771,-0.647 -0.293,-0.204 -0.689,-0.318 -0.864,-0.613 0.167,0.002 0.275,-0.053 0.448,-0.027 -0.696,-0.535 -0.969,-1.143 -1.515,-1.718 0.834,0.385 1.801,0.489 2.781,0.472 -0.597,0.2 -1.284,0.066 -1.903,0.109 0.046,0.45 0.756,0.579 1.11,0.879 -0.772,0.445 0.729,1.264 1.193,1.413 0.909,0.292 2.007,0.053 2.936,-0.002 1.083,-0.064 2.194,-0.207 3.267,-0.405 0.822,-0.151 2.234,-0.168 2.795,-0.804 -0.316,-0.191 -0.744,-0.11 -1.122,-0.112 1.709,0.127 3.568,-0.63 5.074,-1.238 -0.845,0.402 -2.105,0.844 -2.771,1.396 0.901,0.44 2.284,0.137 3.163,-0.212 0.863,-0.343 2.166,-0.848 2.894,-1.385 -0.121,0.088 -0.175,0.204 -0.252,0.28 0.689,0.302 2.063,-0.374 2.705,-0.643 1.226,-0.518 2.268,-1.37 3.361,-2.034 -1.971,1.196 -3.749,3.316 -6.209,3.744 -3.291,0.573 -6.688,1.019 -10.026,1.415 z"
   id="path951"
   style="fill:#dcc06d" />
		</g>
		<g
   id="g953">
			<g
   id="g955">
				<path
   d="m 264.116,249.124 c 4.613,-3.414 7.573,-8.68 4.474,-13.926 -1.149,-1.944 -3.178,-2.831 -5.359,-3.607 -2.792,-0.995 -5.278,-2.362 -7.979,-3.584 -6.031,-2.73 -12.335,-4.896 -18.49,-7.368 -2.375,-0.954 -4.747,-1.893 -7.179,-2.714 -3.937,-1.33 -7.832,-3.279 -11.782,-4.438 -1.173,-0.346 -4.905,-2.241 -5.936,-1.183 -0.729,0.748 0.244,2.935 0.122,3.865 -0.137,1.033 -0.693,2.042 0.034,2.944 0.871,1.084 3.206,1.288 4.449,1.709 2.516,0.852 4.973,1.805 7.543,2.619 6.375,2.02 12.515,4.934 18.709,7.397 3.567,1.418 7.26,2.608 10.677,4.334 1.201,0.606 2.538,0.933 3.805,1.397 2.394,0.876 5.238,2.177 4.689,4.987 -0.349,1.794 -2.192,2.856 -3.871,3.518 -3.736,1.475 -8.473,1.958 -12.509,1.572 -3.071,-0.293 -6.11,-0.625 -9.189,-0.822 -1.103,-0.072 -1.649,-0.195 -2.24,0.875 -0.501,0.909 -0.466,2.158 0.101,3.035 1.928,2.977 6.676,3.065 9.952,3.213 3.688,0.167 7.402,0.216 11.066,-0.287 3.221,-0.439 6.363,-1.649 8.913,-3.536 z"
   id="path957"
   style="fill:#f9e3b7;stroke:#967348;stroke-width:0.3349" />
				<path
   d="m 264.856,236.554 c -0.521,-2.005 -2.266,-3.796 -3.98,-4.846 2.111,1.154 -0.802,1.868 -1.932,1.624 -1.603,-0.346 -8.191,-2.069 -7.565,-3.972 -0.95,-0.256 -1.854,-0.915 -2.833,-0.857 0.064,0.151 0.136,0.156 0.17,0.329 -1.074,0.651 -3.563,-0.539 -4.655,-0.845 -3.783,-1.064 -7.332,-2.489 -10.826,-4.18 -2.521,-1.22 -5.132,-2.236 -7.695,-3.351 -0.733,-0.32 -1.512,-0.33 -1.797,-1.075 -1.071,0.03 -6.171,-2.009 -3.859,-3.248 -0.787,0.421 -4.596,-3.238 -5.6,-3.499 -2.353,-0.608 -2.509,1.914 -2.509,3.484 0.002,3.696 5.741,4.388 8.551,5.369 7.559,2.64 14.986,5.439 22.563,8.059 3.133,1.084 5.867,2.825 8.782,4.249 3.044,1.486 12.226,3.107 10.443,7.895 -0.276,0.739 -1.003,1.509 -1.734,1.888 1.828,-0.944 3.813,-2.593 4.43,-4.521 0.817,-2.555 -0.885,-4.897 -3.023,-6.351"
   id="path959"
   style="fill:#ccb25c" />
				<path
   d="m 249.379,228.662 c 1.346,1.335 -1.416,0.692 -1.989,0.482 -2.072,-0.758 -4.147,-1.595 -6.162,-2.472 -2.898,-1.262 -6.06,-2.834 -9.117,-3.718 0.104,0.223 0.067,0.464 0.138,0.666 -1.574,-0.164 -14.191,-3.939 -12.768,-6.405 -0.616,-0.719 -1.535,-1.416 -1.892,-2.128 0.542,0.079 1.103,0.335 1.668,0.481 -0.36,-0.144 -0.715,-0.401 -1.058,-0.571 3.009,0.102 6.474,2.365 9.234,3.42 4.108,1.57 8.563,2.592 12.58,4.327 3.397,1.468 6.668,2.897 10.075,4.255 2.668,1.061 5.708,1.918 8.068,3.457 -0.797,-0.24 -1.861,-0.624 -2.625,-0.201 0.58,0.915 3.482,2.296 0.576,2.522 -1.635,0.127 -2.786,-1.036 -3.752,-2.051 -0.857,-0.905 -2.158,-1.255 -2.976,-2.064 z"
   id="path961"
   style="fill:#dcc06d" />
			</g>
			<path
   d="m 260.287,249.331 c -3.75,1.452 -7.723,2.488 -11.85,2.151 -1.832,-0.149 -3.56,-0.652 -5.422,-0.674 -1.304,-0.015 -2.792,0.5 -3.997,0.372 0.29,-0.028 0.666,-0.163 0.94,-0.205 -1.132,-0.499 -4.516,-1.532 -4.446,-2.936 1.294,0.326 2.65,0.74 3.997,0.76 -1.185,0.048 -2.372,-0.397 -3.535,-0.25 0.351,0.35 0.734,0.678 1.08,1.032 -0.124,0.023 -0.255,0.035 -0.382,0.043 0.352,0.71 1.751,1.008 2.557,0.896 -0.108,-0.121 -0.168,-0.244 -0.241,-0.363 1.32,-0.076 2.603,0.114 3.912,0.246 2.845,0.284 6.149,1.163 8.969,0.439 2.734,-0.702 5.563,-1.275 8.418,-1.511 z"
   id="path963"
   style="fill:#dcc06d" />
		</g>
		<g
   id="g965">
			<path
   d="m 164.165,238.984 c -0.5,-0.066 -0.993,-0.145 -1.479,-0.235 -3.48,-0.644 -7.147,-1.37 -10.407,-2.63 -3.333,-1.289 -6.46,-3.294 -9.455,-5.136 -3.018,-1.857 -5.498,-4.936 -4.683,-8.438 0.579,-2.491 4.002,-3.833 6.209,-4.814 2.454,-1.092 5.063,-1.746 7.541,-2.685 4.512,-1.709 9.375,-2.979 13.766,-4.917 4.028,-1.779 7.989,-3.657 12.2,-5.186 1.967,-0.714 3.895,-1.472 5.841,-2.234 2.591,-1.013 5.046,-1.668 7.449,-3.062 1.268,-0.736 4.691,-2.852 5.183,-0.296 1.06,5.511 -5.37,6.977 -9.714,8.586 -2.756,1.021 -4.968,2.441 -7.474,3.749 -2.763,1.442 -6.201,1.674 -9.139,2.733 -5.118,1.846 -10.17,3.742 -15.35,5.513 -2.062,0.706 -5.751,1.56 -6.871,3.517 -1.372,2.399 3.104,4.429 4.844,5.544 3.385,2.169 7.097,2.651 11.002,3.458 2.415,0.498 5.098,1.15 7.688,1.115 1.333,-0.018 5.84,-1.254 6.834,0.111 1.391,1.911 -3.257,5.167 -4.959,5.509 -2.91,0.582 -6.112,0.183 -9.026,-0.202 z"
   id="path967"
   style="fill:#f9e3b7;stroke:#967348;stroke-width:0.3349" />
			<path
   d="m 147.699,226.537 c -1.468,-1.688 -3.413,-2.929 -3.675,-5.185 -0.24,-2.063 1.857,-3.785 4.043,-3.898 -0.228,0.15 -0.454,0.536 -0.732,0.719 0.475,0.873 2.29,0.559 3.073,0.144 1.622,-0.862 2.499,-2.168 4.689,-2.91 2.744,-0.929 5.431,-1.864 8.133,-2.901 2.128,-0.816 4.279,-1.984 6.543,-2.383 3.489,-0.614 7.861,-1.856 11.074,-3.79 3.775,-2.272 8.31,-3.31 11.933,-5.843 0.336,2.889 -3.511,5.539 -5.987,6.571 -2.449,1.02 -4.424,1.918 -6.758,3.348 -2.212,1.356 -5.353,3.852 -8.081,4.165 0.451,-0.37 0.308,-0.698 0.5,-1.061 -5.314,0.041 -10.049,1.419 -15.032,3.503 -2.679,1.121 -5.289,2.382 -7.981,3.442 -1.226,0.481 -3.1,0.868 -3.995,1.778 0.26,0.986 0.597,3.195 1.671,3.585"
   id="path969"
   style="fill:#dcc06d" />
			<path
   d="m 148.324,221.936 c -2.439,1.878 -1.008,4.35 1.252,5.69 -2.839,-1.684 -9.411,-5.662 -4.544,-8.739 2.207,-1.395 6.036,-3 8.615,-3.181 -0.814,0.326 -3.787,1.244 -4.068,2.02 -0.558,1.54 4.367,0.227 5.061,0.124 2.755,-0.412 5.315,-1.475 7.977,-2.225 2.857,-0.805 5.765,-1.913 8.5,-3.035 4.085,-1.677 8.102,-3.384 12.005,-5.319 2.819,-1.399 7.272,-1.827 7.728,-5.202 -0.268,0.071 -0.674,0.025 -0.925,0.128 1.249,-1.895 3.791,-2.453 5.804,-3.485 -0.115,1.375 0.253,2.7 -0.349,4.053 -0.688,1.549 -2.176,1.863 -3.726,2.483 -3.833,1.537 -7.499,3.41 -11.229,5.026 -3.646,1.581 -7.221,3.35 -11.042,4.6 -6.941,2.273 -15.207,2.556 -21.059,7.062 z"
   id="path971"
   style="fill:#ccb25c" />
			<path
   d="m 158.347,235.477 c 3.373,1.229 5.839,1.82 8.778,2.325 1.416,0.243 3.088,0.71 4.562,0.508 -0.14,-0.276 -0.125,-0.631 -0.292,-0.876 0.231,-0.223 0.573,-0.61 0.872,-0.992 -1.15,0.531 -2.013,0.562 -3.255,0.681 0.321,0.222 0.988,0.538 1.324,0.639 -2.224,0.629 -4.658,-0.281 -6.761,-0.983 -2.003,-0.669 -3.81,-1.103 -5.735,-2.038 0.063,0.177 0.05,0.369 0.092,0.541 -0.817,-0.14 -1.474,-0.63 -2.238,-0.898 0.714,0.381 1.483,0.7 2.268,0.915"
   id="path973"
   style="fill:#dcc06d" />
		</g>
		<g
   id="g975">
			<path
   d="m 242.036,240.066 c 2.884,-0.188 5.748,-0.774 8.563,-1.366 3.199,-0.673 6.23,-1.688 9.104,-3.107 2.754,-1.358 5.883,-3.338 6.967,-6.215 0.817,-2.167 0.843,-5.344 -0.149,-7.455 -0.813,-1.735 -2.363,-3.039 -4.174,-3.876 -3.647,-1.685 -7.762,-2.979 -11.603,-4.231 -3.199,-1.043 -6.476,-1.928 -9.681,-2.984 -8.259,-2.721 -15.706,-6.383 -23.372,-10.383 -1.677,-0.875 -6.375,-4.612 -7.026,-1.493 -0.36,1.729 0.171,4.7 1.854,5.77 0.888,0.563 2.397,0.795 3.402,1.309 1.098,0.562 2.147,1.204 3.237,1.779 3.709,1.957 7.682,4.088 11.661,5.607 2.981,1.14 6.093,1.848 9.003,3.196 3.734,1.731 8.226,2.074 12.187,3.489 2.184,0.781 4.565,1.666 6.37,3.071 1.772,1.379 1.171,4.073 -0.026,5.566 -1.426,1.774 -3.597,3.121 -5.761,4.014 -3.802,1.569 -8.063,1.741 -12.141,2.147 -1.068,0.106 -2.116,0.218 -3.19,0.217 -0.802,0 -1.397,-0.222 -2.148,-0.337 -3.997,-0.61 -3.688,5.561 0.002,5.548 2.057,-0.006 4.128,-0.137 6.194,-0.225 0.243,-0.012 0.485,-0.025 0.727,-0.041 z"
   id="path977"
   style="fill:#f9e3b7;stroke:#967348;stroke-width:0.3349" />
			<path
   d="m 258.858,226.805 c 1.333,-1.489 5.24,-2.91 4.979,-5.13 -0.307,-2.623 -4.146,-3.841 -6.417,-4.521 -4.053,-1.214 -7.711,-3.37 -11.818,-4.48 -2.849,-0.771 -5.651,-2.032 -8.555,-2.583 -3.479,-0.663 -7.829,-1.964 -11.012,-3.943 -3.739,-2.322 -8.256,-3.422 -11.837,-6.003 -0.382,2.883 3.421,5.584 5.88,6.651 2.431,1.054 4.393,1.979 6.703,3.441 2.19,1.385 5.292,3.924 8.015,4.274 -0.445,-0.377 -0.298,-0.703 -0.483,-1.069 1.809,0.039 3.095,-0.072 4.56,0.831 1.152,0.709 2.484,1.042 3.756,1.509 2.456,0.902 5.043,1.321 7.529,2.118 -0.076,-0.104 -0.164,-0.261 -0.243,-0.357 2.061,-0.831 5.208,2.052 6.861,2.919 1.259,0.66 4.098,1.007 4.309,2.428 0.121,0.831 -0.729,2.894 -1.636,3.208"
   id="path979"
   style="fill:#dcc06d" />
			<path
   d="m 244.118,215.69 c -2.845,-0.845 -5.735,-1.991 -8.45,-3.151 -4.061,-1.732 -8.047,-3.495 -11.92,-5.483 -2.796,-1.438 -7.241,-1.925 -7.644,-5.307 0.267,0.075 0.674,0.036 0.923,0.141 -1.217,-1.912 -3.751,-2.505 -5.748,-3.565 0.094,1.378 -0.296,2.697 0.284,4.059 0.666,1.558 2.148,1.892 3.688,2.535 3.807,1.587 7.444,3.51 11.146,5.178 3.62,1.63 7.169,3.447 10.967,4.75 4.025,1.38 8.279,2.042 12.364,3.246 1.866,0.553 3.396,1.07 4.799,2.256 0.879,0.74 2.231,1.257 3.351,1.936 0.89,0.537 1.632,1.177 1.883,2.11 0.482,1.801 -0.768,4.556 -2.58,5.369 2.745,-1.002 4.671,-2.783 6.159,-5.081 2.763,-4.264 -6.505,-7.719 -9.969,-7.982 0.573,0.19 1.839,0.707 1.291,1.495 -0.439,0.633 -1.931,-0.014 -2.506,-0.143 -2.76,-0.62 -5.342,-1.562 -8.038,-2.363 z"
   id="path981"
   style="fill:#ccb25c" />
			<path
   d="m 248.05,236.671 c -2.915,1.016 -5.769,1.724 -8.816,2.203 -1.418,0.224 -3.099,0.668 -4.568,0.447 0.145,-0.274 0.135,-0.63 0.307,-0.872 -0.228,-0.226 -0.563,-0.618 -0.857,-1.003 1.144,0.546 2.005,0.588 3.244,0.724 -0.324,0.218 -0.993,0.526 -1.331,0.622 2.212,0.659 4.66,-0.218 6.773,-0.891 2.017,-0.642 3.827,-1.05 5.771,-1.96 -0.067,0.176 -0.058,0.369 -0.104,0.539 0.819,-0.128 1.486,-0.61 2.255,-0.868 -0.721,0.372 -1.495,0.681 -2.284,0.885"
   id="path983"
   style="fill:#dcc06d" />
		</g>
		<g
   id="g985">
			<g
   id="g987">
				<path
   d="m 180.938,220.466 c -1.055,-0.354 -2.413,-0.323 -3.398,-0.362 -2.226,-0.086 -4.649,-0.261 -6.846,-0.531 -1.873,-0.23 -3.688,-1.124 -5.576,-1.484 -3.92,-0.748 -7.997,-1.766 -11.622,-3.357 -1.71,-0.751 -3.592,-1.729 -3.679,-3.751 -0.08,-1.875 2.52,-2.637 4.081,-3.267 10.021,-4.046 19.913,-8.424 30.397,-11.354 3.151,-0.879 7.853,-1.255 10.329,-3.492 0.963,-0.869 2.619,-6.518 0.512,-6.306 -2.098,0.212 -4.331,0.865 -6.446,1.404 -4.281,1.092 -8.299,3.059 -12.538,4.38 -4.492,1.399 -8.971,2.842 -13.352,4.516 -2.086,0.798 -4.14,1.552 -6.173,2.46 -3.205,1.432 -6.345,2.387 -9.357,4.115 -2.727,1.565 -5.401,1.936 -7.306,4.636 -2.563,3.633 0.667,7.008 3.858,9.159 2.732,1.84 5.791,3.223 8.954,4.308 5.598,1.92 10.55,4.262 16.569,4.69 3.406,0.242 7.257,0.996 10.492,-0.363 1.706,-0.716 3.57,-2.739 2.377,-4.513 -0.291,-0.433 -0.745,-0.709 -1.276,-0.888 z"
   id="path989"
   style="fill:#f9e3b7;stroke:#967348;stroke-width:0.3349" />
				<path
   d="m 150.795,213.306 c -2.359,-0.743 -7.126,-3.86 -5.571,-6.571 0.779,-1.36 2.947,-2.159 4.356,-2.771 0.966,-0.42 1.989,-0.963 2.957,-1.256 0.741,-0.225 2.004,-0.169 2.309,-0.819 -0.436,0.019 -0.685,-0.053 -1.078,0.122 3.093,-1.111 6.254,-2.716 9.418,-3.903 4.525,-1.697 9.37,-2.837 13.76,-4.759 0.006,1.92 5.582,0.756 5.837,-0.407 1.042,0.377 2.338,-0.072 3.386,0.558 -0.563,0.295 -1.387,0.62 -1.668,1.127 0.137,0.079 0.278,0.151 0.358,0.209 -1.673,1.018 -3.916,1.297 -5.792,1.839 -2.949,0.849 -5.958,1.563 -8.771,2.69 -4.358,1.747 -8.979,3.109 -13.349,4.863 -2.731,1.095 -13.03,5.916 -6.541,9.258"
   id="path991"
   style="fill:#dcc06d" />
				<path
   d="m 148.279,212.054 c -1.771,-1.26 -5.474,-4.087 -3.281,-6.373 -0.058,0.936 0.404,1.697 1.005,2.426 0.072,-0.123 0.289,-0.244 0.382,-0.509 0.054,0.132 0.456,0.479 0.54,0.683 0.752,-0.273 7.429,-3.556 6.267,-4.269 2.297,-1.354 5.665,-2.327 8.252,-3.228 2.62,-0.913 5.467,-2.292 8.123,-2.855 3.618,-0.768 12.301,-0.109 13.154,-4.979 -0.335,0.034 -0.738,-0.099 -1.087,-0.015 0.827,-0.575 1.954,-0.744 2.645,-1.407 -1.148,-0.104 -2.54,0.267 -3.607,0.652 2.021,-1.138 4.649,-2.038 6.912,-2.704 2.07,-0.609 4.71,-1.566 6.9,-1.534 -0.273,0.225 -0.323,0.519 -0.691,0.731 0.119,0.053 0.25,0.277 0.542,0.349 -0.184,0.789 -1.083,1.327 -1.301,1.932 -0.279,0.775 0.38,1.165 -0.22,1.975 -0.523,0.705 -2.032,0.708 -2.762,0.918 -0.874,0.249 -1.565,0.732 -2.471,0.996 -3.872,1.129 -7.913,1.89 -11.625,3.308 -3.9,1.491 -7.818,2.76 -11.569,4.56 -2.024,0.972 -4.218,1.641 -6.29,2.542 -2.876,1.253 -12.736,3.461 -8.132,7.993 -0.819,-0.805 -1.932,-1.565 -2.847,-2.266"
   id="path993"
   style="fill:#ccb25c" />
			</g>
			<path
   d="m 175.965,224.212 c 1.204,0.316 3.592,0.797 4.631,0.041 -0.259,-0.008 -0.483,-0.128 -0.696,-0.175 0.528,-0.189 0.885,-0.636 1.026,-1.133 -0.75,0.239 -1.56,0.315 -2.222,0.598 0.03,0.136 0.105,0.167 0.146,0.317 -2.494,1.248 -8.199,-1.979 -10.406,-2.838 0.139,0.161 0.221,0.49 0.336,0.662 -2.987,0.179 -2.87,0.07 -4.003,-0.192 -1.146,-0.266 -2.849,-0.422 -3.861,-0.824 3.31,0.874 6.193,2.106 9.636,2.294 2.364,0.128 4.651,0.913 6.96,1.25"
   id="path995"
   style="fill:#dcc06d" />
		</g>
		<g
   id="g997">
			<g
   id="g999">
				<path
   d="m 225.421,221.766 c -0.354,-2.635 3.329,-2.347 5.613,-2.441 3.406,-0.14 6.853,-0.146 10.193,-0.865 3.651,-0.787 7.439,-2.111 10.857,-3.555 1.724,-0.726 3.622,-1.678 3.741,-3.699 0.111,-1.874 -2.477,-2.671 -4.028,-3.323 -9.954,-4.182 -19.775,-8.696 -30.211,-11.769 -3.138,-0.924 -7.832,-1.363 -10.274,-3.634 -0.947,-0.882 -2.512,-6.552 -0.41,-6.311 2.095,0.239 4.317,0.923 6.424,1.491 4.263,1.149 8.25,3.172 12.466,4.551 4.468,1.459 8.924,2.963 13.276,4.699 2.076,0.825 4.117,1.607 6.135,2.543 3.183,1.476 6.304,2.473 9.288,4.243 2.705,1.604 5.373,2.01 7.232,4.735 2.504,3.669 -0.78,7 -4.006,9.105 -7.941,5.186 -17.072,6.642 -26.551,7.257 -2.83,0.184 -8.053,1.372 -9.429,-1.933 -0.171,-0.412 -0.273,-0.774 -0.316,-1.094 z"
   id="path1001"
   style="fill:#f9e3b7;stroke:#967348;stroke-width:0.3349" />
				<path
   d="m 254.81,213.517 c 2.371,-0.711 7.188,-3.763 5.678,-6.494 -0.758,-1.369 -2.912,-2.199 -4.312,-2.83 -0.962,-0.433 -1.975,-0.989 -2.936,-1.295 -0.738,-0.236 -2.001,-0.198 -2.296,-0.852 0.436,0.026 0.685,-0.042 1.075,0.138 -3.076,-1.155 -6.211,-2.803 -9.354,-4.032 -4.498,-1.758 -9.325,-2.967 -13.682,-4.948 -0.039,1.919 -5.595,0.679 -5.832,-0.487 -1.047,0.363 -2.336,-0.104 -3.394,0.512 0.557,0.303 1.375,0.639 1.648,1.15 -0.136,0.076 -0.279,0.147 -0.363,0.204 1.657,1.04 3.897,1.35 5.766,1.916 2.932,0.891 5.932,1.646 8.725,2.811 4.33,1.807 8.926,3.231 13.271,5.045 2.712,1.132 12.933,6.093 6.39,9.347"
   id="path1003"
   style="fill:#dcc06d" />
				<path
   d="m 257.348,212.3 c 1.791,-1.237 5.538,-4.013 3.382,-6.328 0.042,0.936 -0.431,1.691 -1.042,2.411 -0.071,-0.123 -0.286,-0.247 -0.376,-0.513 -0.056,0.131 -0.463,0.473 -0.551,0.676 -0.746,-0.284 -7.368,-3.658 -6.197,-4.354 -2.273,-1.385 -5.629,-2.404 -8.199,-3.34 -2.605,-0.949 -5.43,-2.367 -8.074,-2.967 -3.606,-0.818 -12.3,-0.278 -13.075,-5.159 0.335,0.038 0.74,-0.088 1.088,0 -0.819,-0.586 -1.941,-0.771 -2.621,-1.443 1.147,-0.089 2.534,0.301 3.595,0.701 -2.002,-1.166 -4.615,-2.102 -6.867,-2.798 -2.06,-0.638 -4.686,-1.63 -6.876,-1.627 0.271,0.229 0.315,0.522 0.681,0.74 -0.122,0.051 -0.254,0.275 -0.548,0.341 0.17,0.793 1.063,1.342 1.271,1.951 0.267,0.779 -0.401,1.16 0.187,1.978 0.512,0.712 2.02,0.736 2.745,0.953 0.873,0.263 1.555,0.756 2.455,1.032 3.856,1.182 7.883,1.998 11.573,3.466 3.875,1.545 7.771,2.867 11.493,4.719 2.01,1 4.193,1.698 6.249,2.629 2.856,1.292 12.678,3.633 8.003,8.102 0.831,-0.794 1.955,-1.54 2.883,-2.226"
   id="path1005"
   style="fill:#ccb25c" />
			</g>
			<path
   d="m 246.045,222.285 c -2.286,0.403 -4.81,0.675 -7.155,0.715 0.086,0.062 0.292,0.218 0.376,0.277 -2.749,0.221 -5.644,-0.004 -8.45,0.05 1.83,-1.014 5.041,-0.52 7.119,-0.681 3.288,-0.256 6.456,-1.229 9.807,-0.899 -0.6,0.179 -1.074,0.429 -1.697,0.538 z"
   id="path1007"
   style="fill:#dcc06d" />
		</g>
		<g
   id="g1009">
			<g
   id="g1011">
				<path
   d="m 227.733,176.94 c -3.65,-0.841 -7.701,-3.25 -11.591,-2.555 -1.711,0.306 -4.057,2.445 -3.673,4.22 0.28,1.286 1.967,1.761 3.191,1.972 6.038,1.04 11.794,1.711 17.376,4.167 4.525,1.991 9.32,3.552 13.737,5.738 1.58,0.781 2.975,1.881 4.55,2.686 1.949,0.998 4.005,2.34 2.356,4.558 -2.941,3.958 -8.484,3.937 -13.027,4.812 -3.03,0.583 -6.07,1.132 -9.122,1.613 -1.499,0.237 -6.799,-0.551 -7.71,0.744 -0.399,0.572 0.149,2.039 0.16,2.691 0.015,0.754 -0.721,1.917 -0.633,2.458 0.215,1.295 4.512,0.592 5.604,0.57 3.702,-0.068 7.462,-0.994 11.12,-1.469 4.266,-0.555 8.56,-2.189 12.618,-3.566 4.523,-1.535 12.019,-5.503 9.296,-10.924 -1.247,-2.482 -3.736,-3.825 -5.726,-5.722 -3.15,-3.01 -8.22,-4.526 -12.315,-6.271 -2.912,-1.237 -5.811,-2.516 -8.86,-3.438 -2.421,-0.733 -4.875,-1.713 -7.351,-2.284 z"
   id="path1013"
   style="fill:#f9e3b7;stroke:#967348;stroke-width:0.3349" />
				<path
   d="m 252.984,193.96 c -2.87,-2.042 -5.894,-3.81 -9.148,-5.283 -1.377,-0.624 -2.829,-1.079 -4.229,-1.659 -2.111,-0.875 -4.093,-1.838 -6.296,-2.542 -3.27,-1.045 -6.633,-1.933 -9.95,-2.862 -1.907,-0.534 -3.786,-1.054 -5.735,-1.435 -0.842,-0.164 -2.455,-0.082 -3.137,-0.484 -1.062,-0.625 -0.823,-1.743 -0.382,-2.695 1.201,-2.587 4.965,-1.286 7.115,-0.84 3.171,0.658 6.136,1.905 9.214,2.953 2.367,0.808 4.677,1.776 7.048,2.594 1.86,0.642 6.187,1.73 7.201,3.325 -2.039,-0.31 -3.941,-0.906 -5.932,0.212 1.794,0.135 3.686,1.135 5.386,1.65 0.629,0.191 1.724,0.663 2.403,0.503 -0.018,0.003 1.312,-0.334 0.902,-0.536 1.963,0.974 3.924,2.074 6.009,2.888 1.476,0.576 3.234,1.113 4.026,2.499 1.482,2.601 -2.127,5.228 -4.195,6.409 1.009,-0.242 1.47,-1.454 1.479,-2.336 0.015,-1.319 -0.743,-1.624 -1.779,-2.361 z"
   id="path1015"
   style="fill:#dcc06d" />
				<path
   d="m 255.117,189.875 c -0.015,-0.011 -0.028,-0.021 -0.044,-0.031 -2.761,-1.982 -5.433,-3.758 -8.784,-4.828 -2.198,-0.702 -4.45,-1.284 -6.561,-2.195 0.412,0.234 0.689,0.447 0.689,0.888 -2.771,1.209 -6.544,-0.707 -9.075,-1.733 -1.227,-0.497 -2.556,-0.969 -3.73,-1.559 -0.991,-0.497 -1.771,-1.516 -2.982,-1.38 -0.65,1.837 -5.415,0.69 -4.738,-1.137 0.271,-0.735 1.655,-0.573 2.331,-0.742 -1.09,0.263 -2.92,-1.533 -4.197,-1.545 -2.195,-0.017 -3.852,2.023 -1.772,3.576 2.298,1.716 5.942,1.851 8.711,2.506 3.804,0.902 7.416,2.285 10.828,4.081 4.063,2.139 8.186,2.91 12.739,2.384 1.871,-0.217 3.403,0.483 4.41,2.06 0.843,1.328 0.31,4.048 -1.593,2.194 0.569,0.555 1.831,0.475 2.434,1.059 1.894,1.836 1.354,4.473 -0.69,5.859 1.464,-0.954 3.531,-2.448 4.427,-3.897 1.615,-2.618 -0.305,-4.052 -2.403,-5.56 z"
   id="path1017"
   style="fill:#ccb25c" />
			</g>
			<path
   d="m 224.246,210.19 c 0.045,0.008 0.974,-1.864 0.996,-1.998 0.174,-0.975 -0.37,-2.045 -1.053,-2.763 0.725,-0.321 1.795,-0.17 2.636,-0.169 -0.773,-0.023 -1.585,0.125 -2.041,0.671 0.458,0.448 0.398,0.472 0.389,1.09 0,0.07 4.159,-0.497 4.558,-0.468 -1.026,0.4 -3.438,0.358 -3.455,1.716 -0.943,0.077 -1.304,0.968 -0.562,1.471 0.519,0.352 2.751,-0.056 3.284,-0.151 -0.906,1.257 -3.429,0.811 -4.752,0.601 z"
   id="path1019"
   style="fill:#dcc06d" />
			<path
   d="m 251.86,204.724 c 1.488,-0.355 3.12,-1.064 4.091,-2.146 -0.07,-0.137 -0.134,-0.236 -0.198,-0.357 1.443,-1.081 3.277,-1.508 4.56,-2.804 -2.378,2.997 -4.835,3.563 -8.452,5.127"
   id="path1021"
   style="fill:#dcc06d" />
		</g>
		<g
   id="g1023">
			<g
   id="g1025">
				<path
   d="m 172.767,209.716 c -1.192,-0.375 -2.335,-0.742 -3.385,-1.026 -4.46,-1.206 -8.839,-2.791 -13,-4.707 -2.874,-1.323 -7.189,-3 -9.465,-5.063 -2.383,-2.16 -2.323,-6.621 0.302,-8.404 5.9,-4.008 13.017,-7.062 19.81,-9.531 5.672,-2.063 11.466,-3.955 17.359,-5.405 3.121,-0.768 11.568,-2.125 9.645,3.216 -1.39,3.857 -5.04,2.559 -8.381,3.106 -2.945,0.483 -5.718,1.831 -8.56,2.731 -3.419,1.082 -6.543,2.362 -9.816,3.838 -2.854,1.288 -7.498,3.076 -9.412,5.535 -2.315,2.974 1.75,3.622 4.174,4.613 4.386,1.798 7.869,3.287 12.593,4.229 5.263,1.051 10.903,-0.225 10.056,6.786 -0.522,4.289 -9.603,0.814 -11.92,0.082 z"
   id="path1027"
   style="fill:#f9e3b7;stroke:#967348;stroke-width:0.3349" />
				<path
   d="m 164.061,188.784 c -1.318,0.578 -2.573,1.227 -3.697,2.005 -2.261,1.562 -6.577,5.477 -1.804,6.844 -2.947,-0.844 -7.969,-2.749 -7.103,-6.359 0.639,-2.662 6.084,-7.62 9.289,-5.944 -0.27,0.371 -0.266,0.838 -0.419,1.132 4.828,0.078 10.456,-2.834 14.753,-4.713 0.702,-0.307 8.715,-3.513 5.324,-3.742 3.029,-1.002 6.169,-1.825 9.197,-2.427 3.914,-0.777 2.686,3.487 0.636,4.798 -2.227,1.424 -5.392,1.25 -7.955,1.639 -3.662,0.553 -5.909,1.904 -9.192,3.316 -2.838,1.221 -6.091,2.16 -9.029,3.451 z"
   id="path1029"
   style="fill:#dcc06d" />
				<path
   d="m 156.507,196.23 c -4.458,-1.483 -6.157,-5.337 -2.077,-8.278 -0.497,1.199 -0.698,3.632 0.916,4.058 1.207,0.318 3.704,-1.609 4.97,-2.102 -1.122,1.033 -5.781,5.326 -3.809,6.59"
   id="path1031"
   style="fill:#ccb25c" />
				<path
   d="m 175.384,183.626 c 0.982,-0.337 1.638,-0.969 1.704,-1.838 -2.25,-0.123 -4.103,0.385 -6.271,0.724 0.494,-0.269 0.702,-0.687 1.053,-0.978 -1.889,-0.245 -6.208,1.24 -7.715,2.316 5.267,-3.071 11.065,-4.319 16.818,-6.058 3.739,-1.131 6.941,-2.142 10.921,-1.904 0.092,1.51 0.021,2.841 -0.587,4.204 -5.008,-0.017 -9.759,2.253 -14.47,3.264"
   id="path1033"
   style="fill:#ccb25c" />
			</g>
			<path
   d="m 175.965,209.641 c 2.374,0.386 4.519,0.909 6.942,0.764 -0.059,-0.944 0.714,-2.107 0.317,-3.177 -0.468,-1.266 -1.406,-0.854 -2.041,-2.047 0.125,-0.053 -0.798,0.461 -0.839,0.489 0.983,0.583 1.256,1.886 0.297,2.508 0.296,-0.054 0.897,0.167 1.372,0.167 1.363,2.205 -3.962,0.818 -5.176,0.759 -2.326,-0.113 -4.565,-0.081 -6.592,-1.301 1.706,0.733 4.681,1.923 6.592,1.837"
   id="path1035"
   style="fill:#dcc06d" />
		</g>
		<g
   id="g1037">
			<path
   d="m 182.353,196.141 c 1.241,-0.469 0.418,-0.985 0.195,-2.115 -0.362,-1.842 2.762,-3.477 1.704,-4.814 -0.996,-1.258 -5.113,-1.311 -6.589,-1.475 -3.777,-0.419 -6.927,-0.992 -10.405,-2.325 -1.919,-0.736 -3.829,-1.408 -5.813,-1.961 -0.999,-0.279 -2.795,-0.345 -2.908,-1.433 -0.292,-2.813 5.13,-4.851 7.208,-5.723 6.528,-2.743 12.668,-4.674 19.892,-5.36 2.366,-0.225 8.897,-0.311 9.303,-3.22 0.101,-0.723 0.12,-2.288 -0.426,-2.873 -0.704,-0.759 -1.543,-0.514 -2.479,-0.389 -3.378,0.454 -6.732,1.146 -10.005,1.953 -3.839,0.947 -7.834,1.192 -11.646,2.281 -4.661,1.331 -9.682,2.783 -13.891,5.102 -3.36,1.851 -7.105,5.165 -6.875,9.085 0.174,2.943 3.1,4.832 5.581,6.253 1.65,0.946 3.486,1.418 5.286,2.042 2.432,0.841 4.67,2.093 7.211,2.641 2.056,0.442 4.367,1.138 6.486,1.305 2.178,0.175 6.097,1.809 8.171,1.026 z"
   id="path1039"
   style="fill:#f9e3b7;stroke:#967348;stroke-width:0.3349" />
			<path
   d="m 162.602,176.473 c -1.44,0.979 -3.079,2.143 -3.94,3.627 -0.653,1.124 -0.638,3.557 1.18,3.896 -3.492,-1.028 -5.418,-5.109 -3.053,-7.875 2.071,-2.424 5.719,-2.97 7.947,-4.69 0.832,1.137 6.011,-1.252 7.124,-1.755 2.455,-1.113 5.033,-1.407 7.798,-1.828 4.486,-0.683 8.902,-1.454 13.278,-2.11 -0.821,0.699 0.15,2.165 -0.826,3.097 0.066,0.07 0.147,0.118 0.245,0.14 -1.277,0.004 -3.131,0.792 -4.381,1.068 -1.2,0.266 -2.417,0.359 -3.635,0.5 0.702,-0.275 1.508,-0.599 1.664,-1.362 -1.716,-1.275 -6.396,0.461 -7.466,1.947 1.321,-0.175 2.627,-0.647 3.951,-0.74 -1.379,0.706 -3.274,0.957 -4.771,1.36 -2.083,0.561 -4.283,0.947 -6.388,1.469 -3.058,0.758 -6.152,1.505 -8.727,3.256 z"
   id="path1041"
   style="fill:#ccb25c" />
			<path
   d="m 150.832,179.857 c 1.036,-1.079 1.29,-2.507 2.678,-3.541 1.161,-0.863 2.569,-1.631 3.863,-2.33 2.934,-1.587 6.149,-2.896 9.482,-3.561 -0.101,0.082 -0.19,0.086 -0.328,0.155 1.943,-0.333 3.834,-0.995 5.792,-1.24 0.347,1.133 -2.969,1.857 -3.96,2.101 -1.459,0.358 -2.435,0.497 -3.86,1.139 -2.324,1.047 -4.938,1.299 -6.912,2.945 -1.335,1.113 -3.341,3.398 -2.371,5.186 -1.197,-2.204 -2.165,-3.165 -4.384,-0.854 z"
   id="path1043"
   style="fill:#dcc06d" />
			<path
   d="m 179.45,192.745 c 0.649,0.215 1.366,0.569 1.728,1.032 -0.163,0.065 -0.334,0.144 -0.499,0.214 1.231,1.228 0.031,1.942 -1.377,1.421 4.286,1.487 1.531,-1.605 2.791,-2.999 -0.191,0.003 -0.458,-0.067 -0.646,-0.063 0.807,-0.454 1.757,-1.235 1.701,-2.096 -1.659,0.825 -1.751,3.461 -4.471,2.311"
   id="path1045"
   style="fill:#dcc06d" />
			<path
   d="m 153.313,186.128 c 0.988,1.35 2.155,1.906 3.804,2.302 -0.284,-0.311 -0.461,-0.618 -0.829,-0.886 0.082,0.023 0.321,0.073 0.311,0.071 -1.519,-0.58 -3.657,-1.032 -4.564,-2.363 0.458,0.976 1.73,1.464 2.632,1.949"
   id="path1047"
   style="fill:#dcc06d" />
		</g>
		<g
   id="g1049">
			<path
   d="m 217.651,164.095 c -0.213,-0.043 -0.424,-0.088 -0.637,-0.133 -2.743,-0.568 -5.257,1.697 -4.311,4.462 0.883,2.571 5.387,1.481 7.571,1.992 3.728,0.874 7.352,2.118 11.142,2.763 3.165,0.538 6.131,1.38 9.091,2.58 2.085,0.845 4.138,1.926 5.929,3.216 1.508,1.086 4.035,2.817 2.686,4.753 -1.049,1.507 -3.897,2.584 -5.62,3.2 -3.483,1.243 -7.191,1.742 -10.796,2.531 -2.15,0.47 -4.197,0.902 -6.386,1.248 -0.973,0.153 -2.797,0.307 -3.396,1.168 -0.639,0.915 0.117,1.326 0.356,2.249 0.411,1.597 -0.88,3.984 1.857,3.984 3.432,-0.001 7.435,-1.178 10.723,-2.034 3.096,-0.806 6.097,-1.979 9.164,-2.789 2.388,-0.631 4.454,-1.127 6.656,-2.329 1.138,-0.622 2.337,-1.302 3.278,-2.151 3.612,-3.27 3.173,-7.628 0.305,-11.201 -2.503,-3.116 -6.508,-4.84 -10.144,-6.57 -2.713,-1.29 -5.799,-2.739 -8.875,-2.965 -2.855,-0.209 -5.652,-0.822 -8.434,-1.568 -3.303,-0.888 -6.766,-1.692 -10.159,-2.406 z"
   id="path1051"
   style="fill:#f9e3b7;stroke:#967348;stroke-width:0.3349" />
			<path
   d="m 238.579,169.725 c 4.012,0.742 8.265,2.493 11.223,4.476 1.436,0.962 3.406,2.823 3.95,4.387 0.888,2.554 -2.13,5.043 -4.529,5.685 0.716,-1.835 1.618,-2.564 0.102,-4.1 -1.474,-1.491 -3.169,-2.969 -5.076,-3.973 -4.786,-2.518 -9.951,-3.169 -15.194,-4.394 -2.152,-0.502 -4.44,-1.118 -6.66,-1.758 -2.651,-0.767 -5.036,-1.26 -7.687,-1.476 -0.019,-0.144 0.139,-0.136 0.147,-0.278 -0.665,-0.368 -0.878,-0.966 -0.757,-1.653 0.239,-1.344 1.506,-1.233 2.662,-1.61 -0.29,-0.107 -0.559,-0.279 -0.853,-0.375 1.61,0.474 3.434,0.874 5.134,1.095 -1.103,-0.011 -3.873,-0.379 -2.467,1.252 1.326,1.537 3.528,1.458 5.36,1.987 2.047,0.589 3.962,1.403 6.091,1.903 1.279,0.3 4.406,1.591 5.616,1.351 2.354,-0.464 -0.691,-1.991 -0.997,-2.894 1.243,-0.012 2.576,0.123 3.935,0.375 z"
   id="path1053"
   style="fill:#ccb25c" />
			<path
   d="m 221.077,166.282 c -0.595,0 -3.175,-0.295 -3.073,0.711 0.096,0.94 3.146,1.491 3.852,1.667 2.107,0.527 3.969,1.303 5.998,2.053 2.466,0.912 5.255,2.204 7.951,2.503 0.94,0.104 2.081,0.434 2.322,-0.672 0.282,-1.291 -1.519,-1.583 -2.286,-2.163 2.286,-0.165 5.181,0.837 7.1,1.373 -0.912,-1.585 -5.08,-2.098 -6.993,-2.567 -3.063,-0.75 -6.291,-1.447 -9.382,-1.809 0.398,1.382 -4.33,0.042 -4.893,-0.885 0.235,-0.018 0.512,-0.073 0.744,-0.072 -0.84,-0.321 -2.188,-0.668 -3.218,-0.635 0.079,0.013 0.365,0.1 0.448,0.13 -0.177,0.123 -0.079,0.222 0.077,0.366"
   id="path1055"
   style="fill:#dcc06d" />
			<path
   d="m 224.368,193.281 c -0.243,0.268 -0.514,3.288 -0.156,3.719 0.845,1.003 4.101,0.225 4.786,-0.464 -1.644,-0.027 -3.484,1.057 -3.689,-0.747 -0.215,-1.878 1.821,-0.496 3.11,-1.395 -1.136,-0.208 -2.163,0.368 -3.262,0.28 0.062,-0.113 0.153,-0.187 0.203,-0.319 -0.32,-0.139 -0.476,-0.399 -0.958,-0.388 -0.091,-0.116 -0.12,-0.345 -0.198,-0.461 0.102,-0.137 0.246,-0.135 0.358,-0.224"
   id="path1057"
   style="fill:#dcc06d" />
			<path
   d="m 253.41,182.017 c -1.646,1.349 -3.365,3.172 -5.558,3.771 1.659,-0.988 2.954,-2.442 2.055,-4.263 0.512,0.576 0.846,1.4 0.424,2.064 2.101,0.215 4.311,-3.579 3.27,-4.816 0.288,1.186 0.911,2.951 -0.578,3.601"
   id="path1059"
   style="fill:#dcc06d" />
		</g>
		<g
   id="g1061">
			<g
   id="g1063">
				<g
   id="g1065">
					<path
   d="m 194.724,160.448 c 1.19,-0.378 2.04,-0.979 2.279,-1.929 1.189,-4.733 -12.893,-3.431 -15.258,-3.069 -5.947,0.911 -11.753,2.6 -17.296,4.772 -3.986,1.563 -10.928,4.672 -9.313,9.726 1.576,4.927 11.25,6.079 15.691,7.191 2.419,0.605 4.97,1.705 7.483,1.854 1.375,0.082 3.842,0.616 4.668,-0.514 0.546,-0.747 0.911,-1.592 1.522,-2.299 0.412,-0.474 1.42,-0.976 1.48,-1.634 0.141,-1.577 -2.255,-1.564 -3.367,-1.716 -3.717,-0.507 -7.423,-1.673 -10.972,-2.48 -1.354,-0.308 -5.175,-0.492 -5.694,-1.889 -0.745,-1.997 2.508,-2.936 3.982,-3.549 3.908,-1.628 8.085,-2.484 12.173,-3.613 2.229,-0.616 9,0.3 12.622,-0.851 z"
   id="path1067"
   style="fill:#f9e3b7;stroke:#967348;stroke-width:0.3349" />
					<path
   d="m 172.581,162.965 c -1.265,0.351 -2.524,0.801 -3.792,1.415 -3.042,1.475 -5.382,4.021 -1.026,5.669 -2.215,-0.838 -5.115,-0.956 -6.711,-2.805 -4.276,-4.948 8.466,-8.024 11.617,-8.874 1.491,-0.403 9.123,-1.207 9.273,-2.259 -3.775,1.159 -7.937,2.429 -10.604,5.298 1.333,0.468 2.539,0.556 3.864,0.223 2.725,-0.682 5.716,-1.126 8.468,-1.917 1.063,-0.305 6.946,-2.082 6.25,-3.231 1.052,-0.006 2.262,-0.18 3.251,-0.375 -0.184,1.696 -1.347,3.294 -1.761,4.968 -1.736,-1.371 -6.977,-0.212 -9.047,0.154 -3.461,0.614 -6.639,0.864 -9.782,1.734 z"
   id="path1069"
   style="fill:#ccb25c" />
				</g>
				<path
   d="m 171.899,161.992 c 2.415,0.808 6.844,-0.844 9.302,-1.302 1.153,-0.214 5.549,-0.576 5.92,-1.604 1.454,-0.61 3.407,-0.87 3.996,-2.447 -2.072,-1.292 -4.392,-0.601 -6.781,-0.731 0.402,0.023 0.645,0.234 0.96,0.353 -0.695,1.343 -3.81,2.066 -5.283,1.805 -2.27,-0.401 -0.291,-0.798 0.735,-1.411 -2.2,0.718 -4.551,0.906 -6.679,1.802 -1.87,0.791 -2.793,2.559 -4.671,3.394 0.532,0.591 2.722,0.635 3.663,0.498"
   id="path1071"
   style="fill:#dcc06d" />
				<path
   d="m 176.739,177.546 c 1.004,0.548 3.594,1.102 4.241,-0.143 -0.112,-0.065 -0.296,-0.139 -0.354,-0.175 0.68,-0.134 1.299,-0.412 2.039,-0.407 -0.075,0.026 -0.106,0.076 -0.094,0.152 0.394,-0.033 1.075,-0.283 1.335,-0.674 0.579,-0.872 0.28,-0.467 -0.39,-0.903 -0.625,-0.405 -2.098,-0.261 -2.856,-0.545 1.298,0.415 2.81,0.146 4.162,0.219 -1.361,1.729 -2.326,4.085 -5.029,3.917 -1.313,-0.083 -2.124,-0.822 -3.248,-1.311 -0.906,-0.395 -1.832,-0.456 -2.642,-0.858 1.254,0.198 2.653,0.664 3.803,1.086"
   id="path1073"
   style="fill:#dcc06d" />
				<path
   d="m 156.217,167.355 c -0.352,0.837 -0.39,3.092 1.142,2.579 -0.659,0.841 0.095,2.026 0.77,2.721 -1.044,-1.363 -3.09,-3.801 -1.912,-5.479"
   id="path1075"
   style="fill:#dcc06d" />
				<path
   d="m 160.089,167.534 c -1.527,-1.092 -1.618,-3.396 0.126,-4.408 -0.29,0.391 -0.46,0.816 -0.528,1.298 0.03,-0.067 0.085,-0.096 0.164,-0.087 -0.722,2.429 2.617,4.418 4.718,5.083 -1.652,-0.826 -4.474,-0.883 -5.254,-2.779"
   id="path1077"
   style="fill:#dcc06d" />
			</g>
			<path
   d="m 164.542,168.785 c -2.102,-0.482 -4.548,-1.906 -3.915,-4.112 0.684,-2.382 3.88,-2.881 5.85,-4.113"
   id="path1079"
   style="fill:none;stroke:#967348;stroke-width:0.1915" />
		</g>
		<g
   id="g1081">
			<g
   id="g1083">
				<path
   d="m 235.147,173.348 c -2.284,0.427 -4.577,0.759 -6.846,1.209 -1.707,0.338 -4.42,-0.207 -5.826,0.878 -3.551,2.744 3.65,3.848 2.488,6.186 1.07,0.138 1.494,-0.354 2.352,-0.458 1.455,-0.177 2.741,0.02 4.157,-0.327 5.417,-1.33 12.065,-0.976 16.517,-4.687 2.933,-2.445 4.571,-7.067 2.407,-10.283 -3.149,-4.688 -10.213,-6.81 -15.767,-7.858 -5.488,-1.037 -11.373,-2.042 -17,-2.096 -1.597,-0.016 -2.572,-0.323 -2.384,1.188 0.158,1.271 1.188,2.994 1.817,4.153 0.793,1.455 2.265,1.885 3.897,2.186 3.199,0.585 6.454,-0.012 9.67,0.041 3.427,0.056 10.746,0.596 12.175,4.158 1.255,3.125 -2.994,4.463 -5.498,5.2 -0.709,0.208 -1.428,0.373 -2.159,0.51 z"
   id="path1085"
   style="fill:#f9e3b7;stroke:#967348;stroke-width:0.3349" />
				<path
   d="m 246.91,167.564 c 0.457,-2.455 -1.636,-5.067 -3.774,-6.314 -2.586,-1.508 -5.935,-1.474 -8.856,-1.936 -1.604,-0.255 -3.037,-0.446 -4.684,-0.537 -1.117,-0.063 -3.107,0.059 -4.055,-0.461 1.655,0.306 3.875,2.133 1.195,2.606 -1.907,0.336 -4.176,-0.155 -5.049,-1.792 -0.367,-0.685 0.16,-0.958 -0.621,-1.573 -0.644,-0.506 -0.906,-0.151 -1.61,-0.252 -1.683,-0.24 -3.385,-0.407 -4.933,-1.018 -0.205,1.342 -2.086,3.789 -1.005,4.951 1.003,1.081 3.477,0.494 4.867,0.564 1.481,0.076 2.995,0.268 4.483,0.411 4.311,0.417 8.766,-0.03 12.912,0.98 2.441,0.594 5.411,1.013 7.062,2.99 1.843,2.206 0.252,3.733 -1.376,5.468 0.812,1.14 4.949,-2.737 5.17,-3.224 0.131,-0.282 0.221,-0.572 0.274,-0.863 z"
   id="path1087"
   style="fill:#ccb25c" />
				<path
   d="m 229.013,162.219 c 1.154,-0.475 1.301,-1.285 0.017,-1.797 0.501,-0.125 1.005,-0.26 1.462,-0.393 -0.434,-0.309 -0.9,-0.521 -1.432,-0.684 2.606,-0.362 5.55,0.721 8.03,1.006 -2.978,-1.608 -7.759,-2.099 -11.164,-2.65 -2.672,-0.434 -5.206,-0.389 -7.677,-1.23 0.063,0.094 0.096,0.195 0.094,0.306 -0.619,0.046 -1.272,0.015 -1.893,0.057 0.359,1.375 2.159,1.609 3.103,2.384 1.224,1.001 2.396,1.833 3.98,2.301 1.355,0.399 4.164,1.241 5.48,0.7 z"
   id="path1089"
   style="fill:#dcc06d" />
				<path
   d="m 240.438,164.494 c 2.143,1.448 4.658,3.244 2.671,5.722 -1.971,2.458 -4.732,3.086 -7.497,3.893 2.463,0.128 5.482,-1.561 7.729,-2.464 4.029,-1.615 4.462,-3.947 2.547,-7.266 0.746,1.293 1.118,3.04 0.465,4.431 -0.717,1.521 -2.438,1.868 -3.763,2.807 2.158,-2.446 1.99,-4.84 -1.115,-6.386 0.117,0.259 0.312,0.214 0.512,0.336"
   id="path1091"
   style="fill:#dcc06d" />
				<path
   d="m 225.528,177.904 c 0.567,0.049 1.12,0.127 1.675,0.168 -3.357,1.576 2.81,1.906 4.26,1.065 -0.159,0.078 -0.33,0.178 -0.493,0.242 0.851,1.38 3.855,0.313 5.195,0.177 2.037,-0.206 6.759,-0.331 8.254,-1.679 -5.21,1.421 -10.428,2.661 -15.749,2.351 -2.277,-0.131 -5.481,-1.236 -6.213,-3.545 0.67,-0.047 1.363,-0.027 2.046,-0.035 -0.666,-0.006 -1.128,0.278 -1.073,0.867 1.041,0.481 2.113,0.389 3.261,0.389"
   id="path1093"
   style="fill:#dcc06d" />
			</g>
			<path
   d="m 241.019,160.739 c 2.578,0.819 5.302,3.243 5.876,5.745 0.481,2.104 -1.402,3.229 -3.167,4.268"
   id="path1095"
   style="fill:none;stroke:#967348;stroke-width:0.1915" />
		</g>
	</g>
	
</g><g
     style="display:inline;overflow:visible"
     id="g1609">
	
	
	<path
   d="m 212.162,150.151 c 0.442,-0.953 -1.198,-0.876 -1.433,-1.368 -0.228,-0.477 0.747,-2.088 0.922,-2.59 0.992,-0.069 1.755,-0.447 2.248,0.49 0.379,0.725 1.107,1.663 1.192,2.475 0.176,1.738 -2.487,0.042 -2.929,0.993 z"
   id="path1615"
   style="fill:#e1e2e3;stroke:#967348;stroke-width:0.2358" />
	<g
   id="g1617">
		<path
   d="m 219.859,143.315 c -0.77,0.953 -2.785,1.69 -4.007,1.524 -0.663,-0.089 -1.367,-0.565 -2.056,-0.27 -0.247,0.106 -0.802,0.669 -0.825,0.981 -0.041,0.52 0.397,0.321 0.595,0.792 0.337,0.793 -0.631,1.711 0.151,2.485 0.772,0.762 2.195,0.129 2.952,-0.348 0.892,-0.563 1.583,-1.199 2.67,-1.283 0.89,-0.067 1.683,0.23 2.568,0.292 2.252,0.156 4.666,1.851 6.144,3.407 0.64,0.673 0.597,1.334 0.917,2.138 0.447,1.121 0.8,1.951 0.946,3.181 0.227,1.887 -0.815,5.035 -3.267,5.09 -0.062,0.842 0.092,1.671 0.104,2.501 0.676,0.019 0.896,-0.262 0.883,0.418 -0.009,0.444 -0.635,0.82 -0.583,1.145 0.077,0.47 2.097,1.613 2.568,1.661 0.683,0.067 1.044,-0.335 1.637,-0.787 1.395,-1.065 2.885,-2.047 4.216,-3.128 0.898,-0.73 0.652,-1.588 0.715,-2.629 0.108,-1.834 1.355,-3.758 1.005,-5.617 -0.288,-1.51 -2.091,-2.895 -3.242,-3.88 -1.679,-1.436 -3.338,-2.87 -4.98,-4.352 -0.569,-0.515 -1.007,-1.045 -1.418,-1.702 -0.308,-0.491 -0.49,-1.487 -1.02,-1.799 -0.569,-0.337 -1.602,-0.105 -2.266,-0.214 -0.979,-0.161 -0.697,-0.233 -1.205,-0.948 -0.526,-0.741 -2.182,-1.018 -2.809,-0.025 -0.265,0.424 -0.033,0.917 -0.393,1.367 z"
   id="path1619"
   style="fill:#f9e3b7;stroke:#967348;stroke-width:0.3218" />
		<path
   d="m 187.367,143.324 c 0.768,0.955 2.785,1.692 4.006,1.525 0.664,-0.09 1.367,-0.566 2.055,-0.27 0.25,0.106 0.804,0.67 0.827,0.981 0.04,0.519 -0.396,0.32 -0.595,0.791 -0.338,0.793 0.63,1.711 -0.152,2.484 -0.771,0.763 -2.195,0.129 -2.951,-0.347 -0.893,-0.562 -1.583,-1.199 -2.672,-1.282 -0.889,-0.068 -1.681,0.231 -2.567,0.292 -2.251,0.155 -4.666,1.851 -6.145,3.407 -0.64,0.672 -0.597,1.334 -0.917,2.137 -0.448,1.122 -0.8,1.951 -0.947,3.181 -0.226,1.888 0.818,5.035 3.267,5.09 0.063,0.841 -0.091,1.67 -0.104,2.5 -0.676,0.019 -0.896,-0.262 -0.882,0.418 0.009,0.444 0.635,0.821 0.582,1.146 -0.078,0.47 -2.099,1.614 -2.567,1.66 -0.684,0.068 -1.044,-0.333 -1.637,-0.786 -1.396,-1.066 -2.887,-2.048 -4.217,-3.129 -0.897,-0.729 -0.652,-1.587 -0.714,-2.629 -0.108,-1.833 -1.357,-3.758 -1.004,-5.617 0.288,-1.509 2.089,-2.895 3.242,-3.879 1.679,-1.436 3.338,-2.87 4.979,-4.353 0.571,-0.514 1.007,-1.045 1.419,-1.701 0.307,-0.492 0.491,-1.487 1.019,-1.799 0.572,-0.336 1.602,-0.105 2.265,-0.214 0.98,-0.161 0.7,-0.234 1.206,-0.947 0.527,-0.742 2.182,-1.019 2.809,-0.025 0.264,0.422 0.033,0.917 0.395,1.366 z"
   id="path1621"
   style="fill:#f9e3b7;stroke:#967348;stroke-width:0.3218" />
		<path
   d="m 181.596,149.296 c -3.069,2.302 -5.27,4.995 -4.633,9.104 -3.174,-2.829 -0.38,-7.542 2.223,-9.6 0.697,-0.553 1.621,-0.604 2.324,-1.068 1.175,-0.774 0.3,-1.012 1.011,-1.971 -0.461,-0.194 -0.901,-0.397 -1.35,-0.621 1.688,-0.663 3.644,-0.863 5.475,-0.487 1.323,0.271 2.638,0.996 3.833,1.603 1.216,0.617 1.268,0.526 1.25,1.956 -1.606,-0.365 -2.782,-1.722 -4.537,-1.602 -1.869,0.129 -4.116,1.575 -5.596,2.686 z"
   id="path1623"
   style="fill:#dcc06d" />
		<path
   d="m 219.915,146.78 c -0.667,0.042 -4.485,2.622 -4.454,1.075 0.018,-0.791 2.51,-1.833 3.168,-1.916 0.994,-0.122 2.335,0.311 2.745,-1.099 0.563,0.483 1.51,0.455 1.646,-0.211 0.742,0.326 1.508,0.254 2.252,0.506 1.533,0.521 2.988,1.608 4.168,2.695 1.092,1.003 2.429,2.179 3.037,3.571 1.22,2.796 -1.427,8.264 -3.741,10.034 3.363,-3.683 1.476,-9.772 -2.209,-12.498 -1.733,-1.278 -4.508,-2.289 -6.612,-2.157 z"
   id="path1625"
   style="fill:#dcc06d" />
		<path
   d="m 171.278,158.773 c 0.372,0.726 0.856,1.374 1.19,2.119 -0.756,0.068 -0.768,0.736 -0.689,1.407 -0.588,-0.86 -0.491,-2.687 -0.501,-3.704"
   id="path1627"
   style="fill:#dcc06d" />
		<path
   d="m 233.142,161.276 c 0.837,-0.477 1.895,-0.463 1.819,0.701 0.175,-0.267 0.438,-0.416 0.549,-0.867 0.019,0.036 0.102,0.192 0.14,0.288 0.175,-0.987 0.39,-2.092 0.365,-3.107 -0.919,1.172 -1.578,2.09 -2.873,2.807"
   id="path1629"
   style="fill:#dcc06d" />
	</g>
	<path
   d="m 195.064,150.161 c -0.443,-0.954 1.199,-0.876 1.433,-1.368 0.227,-0.477 -0.748,-2.089 -0.922,-2.589 -0.991,-0.069 -1.755,-0.448 -2.247,0.488 -0.38,0.725 -1.108,1.664 -1.192,2.477 -0.178,1.736 2.486,0.04 2.928,0.992 z"
   id="path1631"
   style="fill:#e1e2e3;stroke:#967348;stroke-width:0.2358" />
</g></g></svg>
