<?xml version="1.0" encoding="UTF-8" standalone="no"?>
<!-- Generator: Adobe Illustrator 12.0.0, SVG Export Plug-In . SVG Version: 6.00 Build 51448)  -->

<svg
   version="1.0"
   id="Layer_1"
   width="297.60214"
   height="326.88553"
   viewBox="0 0 297.60213 326.88552"
   overflow="visible"
   enable-background="new 0 0 435.687 841.89"
   xml:space="preserve"
   sodipodi:version="0.32"
   inkscape:version="1.4.2 (f4327f4, 2025-05-13)"
   sodipodi:docname="upper_bones_gladiolus.svg"
   inkscape:output_extension="org.inkscape.output.svg.inkscape"
   style="display:inline;overflow:visible"
   xmlns:inkscape="http://www.inkscape.org/namespaces/inkscape"
   xmlns:sodipodi="http://sodipodi.sourceforge.net/DTD/sodipodi-0.dtd"
   xmlns="http://www.w3.org/2000/svg"
   xmlns:svg="http://www.w3.org/2000/svg"
   xmlns:rdf="http://www.w3.org/1999/02/22-rdf-syntax-ns#"
   xmlns:cc="http://creativecommons.org/ns#"
   xmlns:dc="http://purl.org/dc/elements/1.1/"><metadata
   id="metadata3098"><rdf:RDF><cc:Work
       rdf:about=""><dc:format>image/svg+xml</dc:format><dc:type
         rdf:resource="http://purl.org/dc/dcmitype/StillImage" /></cc:Work><cc:Work
       rdf:about=""><dc:format>image/svg+xml</dc:format><dc:type
         rdf:resource="http://purl.org/dc/dcmitype/StillImage" /></cc:Work></rdf:RDF></metadata><defs
   id="defs3096"><inkscape:perspective
   sodipodi:type="inkscape:persp3d"
   inkscape:vp_x="0 : -94.059466 : 1"
   inkscape:vp_y="0 : 999.99999 : 0"
   inkscape:vp_z="435.687 : -94.059466 : 1"
   inkscape:persp3d-origin="217.84351 : -234.37448 : 1"
   id="perspective3100" />
		
		
		
		
	
		
		
	
		
		
		
		
		
	
	
	

		
		
		
	
			
			
		
				
				
				
				
				
			
	
	
</defs>
<sodipodi:namedview
   inkscape:window-height="1369"
   inkscape:window-width="2560"
   inkscape:pageshadow="2"
   inkscape:pageopacity="0.0"
   guidetolerance="10.0"
   gridtolerance="10.0"
   objecttolerance="10.0"
   borderopacity="1.0"
   bordercolor="#666666"
   pagecolor="#ffffff"
   id="base"
   showgrid="false"
   inkscape:zoom="7.6196088"
   inkscape:cx="155.38856"
   inkscape:cy="146.92355"
   inkscape:window-x="-8"
   inkscape:window-y="-8"
   inkscape:current-layer="layer3"
   showguides="true"
   inkscape:guide-bbox="true"
   inkscape:showpageshadow="2"
   inkscape:pagecheckerboard="0"
   inkscape:deskcolor="#d1d1d1"
   inkscape:window-maximized="1" />
<g
   inkscape:groupmode="layer"
   id="layer3"
   inkscape:label="Skeleton"
   style="display:inline"
   transform="translate(-63.538848,-89.863482)"><path
     id="Sternum"
     style="display:inline;overflow:visible;fill:#f9e3b7;stroke:#967348;stroke-width:0.3218"
     inkscape:label="Sternum"
     d="M 203.58768 173.76778 C 200.45568 173.81378 197.67861 174.5075 195.29861 176.2795 C 195.00661 176.4985 195.11689 179.08148 195.03689 179.61348 C 194.86289 180.77848 194.79739 181.97654 193.47439 182.40254 C 193.22639 183.24354 193.84407 183.33872 194.11307 183.97872 C 194.68207 185.33372 195.00064 186.73156 195.13064 188.19356 C 195.21364 189.13356 194.70569 190.52358 195.00369 191.35958 C 195.33369 192.28458 196.10544 192.49065 196.09744 193.68965 C 196.09044 194.78965 195.46968 196.21386 194.83768 197.09786 C 194.53768 197.51586 194.28908 197.29528 194.40408 197.95528 C 194.46308 198.28728 194.73727 198.61936 194.89627 198.91036 C 195.36127 199.76536 195.51074 200.45475 195.50174 201.43575 C 195.49574 202.03875 195.4496 202.56001 195.2576 203.13301 C 195.1636 203.41401 194.73588 204.07834 194.87088 204.36934 C 195.15588 204.99234 196.19039 204.89119 196.59939 205.45919 C 197.17439 206.25719 196.92988 207.66812 196.74588 208.54512 C 196.55888 209.43112 195.6353 210.4052 195.6033 211.2502 C 195.5923 211.5312 195.90641 211.81147 196.01541 212.07247 C 196.35541 212.89447 196.50986 213.88492 196.32986 214.76192 C 196.13686 215.70692 196.18338 215.62911 196.93338 216.25411 C 197.29238 216.55311 197.58046 217.04567 197.76346 217.48067 C 198.13846 218.37767 198.34596 219.50728 198.07596 220.45528 C 197.95096 220.89128 197.50258 221.29023 197.46658 221.70723 C 197.42658 222.17623 197.7763 222.87644 197.8533 223.36544 C 197.9843 224.19144 198.20816 225.00812 198.48416 225.79512 C 199.44816 225.44112 199.78074 225.04015 200.37674 226.00215 C 200.5438 226.27237 200.62295 226.63225 200.64041 227.00997 L 205.3201 227.00997 C 205.41455 226.64345 205.57606 226.29631 205.80447 226.01387 C 206.43147 225.23987 207.0506 225.62633 207.8826 225.57833 C 208.9916 225.51433 208.882 225.20898 208.824 224.30098 C 208.782 223.60598 208.71949 222.7427 208.84549 222.0627 C 208.97049 221.3737 209.49504 220.87811 209.78104 220.25411 C 210.15604 219.43611 209.47519 219.08079 209.19119 218.43379 C 208.89519 217.75979 208.92152 216.79758 209.42752 216.23458 C 209.90552 215.70058 210.83124 215.97433 211.06424 215.45333 C 211.17724 215.19833 210.99547 214.35425 211.05447 213.99825 C 211.14647 213.47725 211.28366 213.00234 211.42166 212.49434 C 211.49866 212.21434 211.79899 211.61909 211.78299 211.33809 C 211.74999 210.80309 211.30279 210.65003 210.99979 210.29903 C 210.67579 209.92103 210.47316 209.47281 210.35916 208.97481 C 210.08516 207.76181 210.24902 206.34354 211.24002 205.52754 C 211.40402 205.39154 211.83533 205.22884 211.93533 205.05684 C 212.21633 204.56684 211.66554 203.78286 211.59354 203.22286 C 211.41854 201.82986 212.49933 199.48861 211.43533 198.44161 C 210.49533 197.51761 210.02118 195.36506 210.52518 194.13106 C 210.88918 193.24006 211.06513 192.92967 211.77713 192.23067 C 212.41113 191.60867 211.98486 189.77651 211.95486 188.94551 C 211.91886 187.95051 211.57935 187.01678 211.85135 186.01778 C 211.93078 185.72206 213.38085 183.53036 213.6033 183.56075 L 213.60525 183.56075 C 213.60608 183.56102 213.61033 183.56235 213.61111 183.5627 L 213.61307 183.56465 L 213.61502 183.56661 C 212.88409 181.96488 211.80428 181.71199 211.86111 179.68575 C 211.89311 178.55775 212.78938 177.47023 212.18338 176.33223 C 210.98638 174.08823 205.66168 173.73778 203.58768 173.76778 z " /></g></svg>
