<?xml version="1.0" encoding="UTF-8" standalone="no"?>
<!-- Generator: Adobe Illustrator 12.0.0, SVG Export Plug-In . SVG Version: 6.00 Build 51448)  -->

<svg
   version="1.0"
   id="Layer_1"
   width="297.60214"
   height="326.88553"
   viewBox="0 0 297.60213 326.88552"
   overflow="visible"
   enable-background="new 0 0 435.687 841.89"
   xml:space="preserve"
   sodipodi:version="0.32"
   inkscape:version="1.4.2 (f4327f4, 2025-05-13)"
   sodipodi:docname="upper_bones_vertebrae_thoracicae.svg"
   inkscape:output_extension="org.inkscape.output.svg.inkscape"
   style="display:inline;overflow:visible"
   xmlns:inkscape="http://www.inkscape.org/namespaces/inkscape"
   xmlns:sodipodi="http://sodipodi.sourceforge.net/DTD/sodipodi-0.dtd"
   xmlns="http://www.w3.org/2000/svg"
   xmlns:svg="http://www.w3.org/2000/svg"
   xmlns:rdf="http://www.w3.org/1999/02/22-rdf-syntax-ns#"
   xmlns:cc="http://creativecommons.org/ns#"
   xmlns:dc="http://purl.org/dc/elements/1.1/"><metadata
   id="metadata3098"><rdf:RDF><cc:Work
       rdf:about=""><dc:format>image/svg+xml</dc:format><dc:type
         rdf:resource="http://purl.org/dc/dcmitype/StillImage" /></cc:Work><cc:Work
       rdf:about=""><dc:format>image/svg+xml</dc:format><dc:type
         rdf:resource="http://purl.org/dc/dcmitype/StillImage" /></cc:Work></rdf:RDF></metadata><defs
   id="defs3096"><inkscape:perspective
   sodipodi:type="inkscape:persp3d"
   inkscape:vp_x="0 : -94.059466 : 1"
   inkscape:vp_y="0 : 999.99999 : 0"
   inkscape:vp_z="435.687 : -94.059466 : 1"
   inkscape:persp3d-origin="217.84351 : -234.37448 : 1"
   id="perspective3100" />
		
		
		
		
	
		
		
	
		
		
		
		
		
	
	
	

		
		
		
	
			
			
		
				
				
				
				
				
			
	
	
</defs>
<sodipodi:namedview
   inkscape:window-height="1211"
   inkscape:window-width="933"
   inkscape:pageshadow="2"
   inkscape:pageopacity="0.0"
   guidetolerance="10.0"
   gridtolerance="10.0"
   objecttolerance="10.0"
   borderopacity="1.0"
   bordercolor="#666666"
   pagecolor="#ffffff"
   id="base"
   showgrid="false"
   inkscape:zoom="5.387877"
   inkscape:cx="133.91174"
   inkscape:cy="135.76776"
   inkscape:window-x="590"
   inkscape:window-y="244"
   inkscape:current-layer="layer3"
   showguides="true"
   inkscape:guide-bbox="true"
   inkscape:showpageshadow="2"
   inkscape:pagecheckerboard="0"
   inkscape:deskcolor="#d1d1d1"
   inkscape:window-maximized="0" />
<g
   inkscape:groupmode="layer"
   id="layer3"
   inkscape:label="Skeleton"
   style="display:inline"
   transform="translate(-63.538848,-89.863482)"><path
     d="m 194.835,283.125 c 0.259,0.231 0.476,0.409 0.79,0.378 -0.225,-0.499 -0.116,-1.132 0.02,-1.679 0.012,0.065 -0.001,0.127 -0.036,0.184 -0.126,-0.58 -0.338,-1.333 -0.095,-1.929 -0.409,0.955 0.15,2.391 -0.679,3.181"
     id="path413"
     style="display:inline;overflow:visible;fill:#ccb25c" /><path
     d="m 201.673,274.946 c 0.33,0.458 0.223,1.07 0.375,1.467 0.063,-0.62 0.369,-1.215 0.277,-1.849 -0.256,-0.086 -0.444,-0.018 -0.651,0.113"
     id="path791"
     style="fill:#dcc06d" /><path
     d="m 204.086,274.812 c 0.098,0.673 0.303,1.322 0.403,1.978 -0.03,-0.727 0.804,-2.41 -0.67,-1.978"
     id="path793"
     style="fill:#dcc06d" /><path
     d="m 208.378,283.26 c -0.248,-0.875 -0.253,-1.617 -0.271,-2.512 0.062,0.429 0.149,0.857 0.277,1.268 -0.011,-0.152 -0.013,-0.309 -0.013,-0.462 0.068,0.324 0.286,0.562 0.416,0.835 0.362,-0.666 0,-2.002 -0.006,-2.842 -0.019,0.692 0.267,1.779 0.674,2.261 0.024,-0.243 0.12,-0.479 -0.017,-0.845 0.093,-0.048 0.113,0.016 0.228,-0.028 -0.28,-1.363 0.074,-2.657 -0.075,-3.96 -0.115,0.641 -0.282,1.24 -0.437,1.827 -0.48,-1.034 0.339,-2.541 -0.104,-3.682 -0.488,0.768 -0.387,1.75 -0.645,2.62 0.056,-0.914 0.047,-2.185 0.399,-3.052 0.26,0.292 0.661,0.485 1.016,0.277 0.085,0.034 0.11,0.2 0.194,0.228 0.153,-0.097 0.418,-0.155 0.593,-0.263 -0.714,1.22 -0.345,3.487 -0.35,4.883 -0.004,0.813 0.493,2.067 0.269,2.628 -0.793,-0.486 -1.687,1.299 -2.415,0.818"
     id="path797"
     style="fill:#ccb25c" /><path
     d="m 205.563,274.812 c -0.498,0.664 0.062,2.437 0.277,3.193 -0.127,-0.646 0.049,-3.375 -0.412,-3.327"
     id="path799"
     style="fill:#ccb25c" /><g
     id="g801">
			
			<path
   d="m 194.253,257.29 c -1.26,0.849 -0.415,-0.577 -0.632,-1.123 0.623,-0.365 0.744,-1.668 0.806,-2.328 0.012,0.033 0.036,0.05 0.072,0.05 0.205,-0.836 0.568,-2.567 0.196,-3.356 0.03,1.399 0.276,2.946 -0.015,4.323 -0.084,0.397 -0.465,0.742 -0.341,1.213 0.093,0.35 0.212,0.654 0.518,0.195 0.025,0.104 0.108,0.207 0.129,0.308 0.489,-0.286 0.512,-1.401 0.614,-1.953 -0.081,0.889 -0.136,1.772 -0.197,2.659 -0.412,-0.025 -0.781,0.118 -1.15,0.281"
   id="path805"
   style="fill:#dcc06d" />
			<path
   d="m 195.505,249.065 c -0.469,0.61 0.092,2.038 0.176,2.745 0.173,-0.678 0.182,-1.497 0.25,-2.197 0.042,-0.418 0.067,-1.141 -0.426,-0.458"
   id="path807"
   style="fill:#dcc06d" />
			<path
   d="m 198.008,248.798 c -0.15,0.189 -0.301,0.228 -0.256,0.444 0.055,-0.062 0.168,-0.128 0.238,-0.175 0.129,0.76 0.354,1.522 0.371,2.28 0.25,-0.673 0.056,-1.401 0.543,-1.988 0.015,0.165 0.106,0.329 0.104,0.506 0.099,-0.266 0.333,-0.581 0.542,-0.786 1.157,0.396 0.602,4.734 0.602,5.635 0.005,-2.107 0.234,-4.252 0.071,-6.358 -0.211,0.142 -0.437,0.412 -0.587,0.611 -0.012,-0.052 -0.023,-0.104 -0.036,-0.156 -0.231,0.002 -0.411,-0.007 -0.588,-0.007 -0.125,0.326 -0.197,0.672 -0.54,0.788 -0.169,-0.33 -0.146,-0.766 -0.444,-0.967 -0.05,0.108 -0.139,0.168 -0.201,0.261"
   id="path809"
   style="fill:#dcc06d" />
			<path
   d="m 199.707,255.949 c -0.216,0.163 -0.324,0.368 -0.254,0.615 0.378,0.07 0.953,0.242 0.874,-0.32 0.229,0.276 0.715,0.13 1.155,0.215 0.668,0.129 1.327,0.359 1.995,0.48 0.608,0.11 1.227,0.029 1.827,0.181 0.108,-0.229 0.171,-0.515 0.215,-0.792 0.008,0.151 0.098,0.329 0.107,0.488 0.041,-0.026 0.119,-0.123 0.138,-0.146 0.167,0.406 0.766,0.287 1.165,0.333 0.239,0.026 0.514,0.111 0.736,0.098 0.203,-0.013 0.25,-0.262 0.529,-0.237 -0.041,0.034 -0.128,0.092 -0.165,0.138 0.55,0.012 0.827,-0.099 1.301,0.192 0.002,-0.216 0.104,-0.467 0.122,-0.682 0.181,0.431 0.499,0.904 0.975,1.014 -0.508,-1.622 -1.071,-3.182 -1.064,-4.896 0.002,-0.413 0.07,-2.099 0.339,-2.239 0.047,-0.195 0.202,-0.375 0.271,-0.521 0.16,0.997 -0.173,2.1 -0.056,3.129 0.111,0.968 0.416,1.931 0.678,2.833 0.23,-1.627 -0.307,-3.49 -0.25,-5.138 0.011,-0.266 0.16,-0.952 0.077,-1.163 -0.122,-0.307 -1.035,-0.994 -1.316,-1.086 -0.013,0.5 -0.106,1.02 -0.211,1.512 -0.008,-0.06 -0.063,-0.269 -0.065,-0.406 -0.033,0.319 -0.09,0.638 -0.207,0.937 -0.037,0.003 -0.06,-0.014 -0.068,-0.05 0.025,1.144 0.29,2.258 0.343,3.36 -0.41,-0.733 -0.751,-1.869 -0.862,-2.753 -0.081,-0.638 0.088,-1.389 -0.081,-1.956 -0.025,0.088 -0.058,0.146 -0.115,0.216 -0.041,-0.692 -1.372,-1.319 -2.022,-1.213 0.631,1.259 0.531,2.91 0.599,4.288 0.032,0.622 -0.158,1.442 0.085,2.023 0.292,-0.639 0.132,-1.337 0.194,-2.014 0.083,-0.901 0.179,-1.809 0.271,-2.705 0.672,1.24 0.646,3.171 0.789,4.567 0.066,0.639 0.147,1.533 -0.248,2.048 -0.188,-0.431 -0.188,-0.946 -0.313,-1.405 -0.115,0.477 -0.017,1.006 -0.22,1.477 -0.072,-0.108 -0.311,-0.223 -0.382,-0.334 -0.177,0.282 -0.454,0.477 -0.791,0.436 -0.192,-0.688 -0.393,-1.336 -0.527,-2.042 -0.133,-0.696 -0.131,-1.609 -0.389,-2.255 0.043,1.323 0.344,3.264 -0.064,4.718 0.03,-0.171 -0.038,-0.407 -0.032,-0.586 -0.319,0.132 -0.509,0.27 -0.791,0.274 0.113,-0.002 -0.708,-0.222 -0.627,-0.15 -0.695,-0.618 -0.46,-2.038 -0.556,-2.873 -0.275,0.793 -0.175,1.719 -0.452,2.534 -0.062,-0.06 -0.079,-0.107 -0.149,-0.158 -0.505,0.585 -0.816,-0.083 -1.251,-0.082 -0.457,0.001 -0.838,0.601 -1.345,0.096"
   id="path811"
   style="fill:#dcc06d" />
			<path
   d="m 209.185,255.055 c 0.454,-0.935 -0.42,-2.594 -0.359,-3.644 0.007,1.827 0.094,3.938 0.557,5.693 0.015,-0.066 0.149,-0.307 0.179,-0.437 0.318,0.464 0.984,0.622 1.391,1.043 0.134,-0.676 -0.213,-1.426 -0.251,-2.116 -0.051,-0.906 -0.096,-1.799 -0.087,-2.714 0.009,-1.006 -0.085,-2.302 0.168,-3.26 -0.318,-0.142 -0.614,-0.287 -0.706,-0.619 -0.126,1.677 -0.337,3.444 -0.153,5.133 0.004,-0.88 -0.226,-1.832 -0.292,-2.722 0,1.082 0.07,2.199 -0.015,3.273 -0.149,0.075 -0.096,-0.043 -0.164,-0.079"
   id="path813"
   style="fill:#ccb25c" />
			<path
   d="m 208.111,248.798 c 0.205,0.635 -0.063,1.327 0.184,1.947 -0.066,-0.635 0.159,-1.454 0.522,-1.947 -0.316,-0.21 -0.637,-0.464 -1.034,-0.333 0.06,-0.144 -0.29,-0.178 -0.484,0.075 -0.1,0.129 0.09,1.08 0.096,1.238 0.025,0.581 0.055,1.128 0.183,1.699 -0.015,-0.771 -0.177,-2.257 0.533,-2.767"
   id="path815"
   style="fill:#ccb25c" />
			<path
   d="m 205.339,254.34 c 0.414,0.901 0.083,1.758 0.192,2.668 0.111,0.054 0.396,0.104 0.51,0.092 0.132,-1.133 -0.281,-2.471 -0.633,-3.537 -0.09,0.273 -0.066,0.56 -0.068,0.867"
   id="path817"
   style="fill:#ccb25c" />
		</g><path
     d="m 194.325,158.323 c 0.83,3.676 6.25,4.976 10.03,4.919 2.734,-0.04 8.026,-0.856 8.246,-4.016 0.071,-1.01 -0.015,-3.847 -0.201,-4.833 -0.561,-2.969 -3.572,-3.127 -5.933,-3.091 -3.309,0.051 -7.045,-1.503 -10.288,-0.458 -2.512,0.81 -1.851,4.13 -1.956,6.23 -0.022,0.444 0.015,0.86 0.102,1.249 z"
     id="path1115"
     style="display:inline;overflow:visible;fill:#f4e9d7;stroke:#967348;stroke-width:0.3199" /><g
     id="ThoracicVertebrae"
     inkscape:label="Thoracic Vertebrae (T I - T XII)"><path
       style="display:inline;overflow:visible;fill:#e1e2e3;stroke:#967348;stroke-width:0.2358"
       id="path377"
       d="m 205.985,276.415 c -2.338,-0.137 -4.773,0.406 -7.101,0.581 -1.515,0.114 -3.132,0.242 -4.617,-0.15 -0.553,-0.146 -1.566,-0.505 -1.966,-0.912 -0.56,-0.57 -0.205,-1.496 -0.194,-2.193 0.007,-0.442 0.035,-0.907 -0.02,-1.341 -0.152,-1.187 0.604,-1.383 1.49,-1.965 1.14,-0.75 2.381,-1.158 3.719,-1.402 3.23,-0.585 6.779,-0.377 9.966,0.403 1.271,0.313 3.41,0.665 3.193,2.332 -0.109,0.841 -0.384,1.671 -0.303,2.528 0.073,0.755 0.275,1.541 -0.386,2.145 -0.859,0.782 -2.772,0.034 -3.781,-0.026 z" /><path
       style="display:inline;overflow:visible;fill:#e1e2e3;stroke:#967348;stroke-width:0.2504"
       id="path379"
       d="m 209.582,236.422 c 0.119,0.893 0.377,1.865 -0.082,2.583 -0.666,1.045 -2.363,0.726 -3.303,0.597 -1.989,-0.276 -3.808,-0.099 -5.842,-0.015 -2.435,0.103 -4.326,-0.762 -6.256,1.292 -0.17,0.182 -0.801,-1.731 -0.83,-2.012 -0.077,-0.743 0.233,-1.403 0.395,-2.099 0.176,-0.758 0.003,-1.361 0.048,-2.1 0.074,-1.182 0.938,-1.215 1.819,-1.256 2.708,-0.127 5.355,-0.09 8.065,-0.048 1.495,0.023 2.997,0.156 4.479,0.139 1.288,-0.015 1.618,0.625 1.467,2.008 -0.029,0.282 -0.003,0.592 0.04,0.911 z" /><path
       style="fill:#e1e2e3;stroke:#967348;stroke-width:0.2504"
       id="path635"
       d="m 207.527,263.216 c -3.056,-0.631 -5.895,-0.658 -8.951,-0.232 -1.44,0.2 -2.953,0.763 -4.414,0.509 -1.649,-0.286 -1.373,-1.667 -1.066,-3.11 0.1,-0.475 0.114,-1.004 0.085,-1.51 -0.177,-3.102 4.484,-2.889 6.28,-3.194 3.133,-0.532 6.848,-1.59 9.935,-0.319 1.57,0.647 1.766,1.75 1.568,3.49 -0.12,1.046 -0.086,1.859 0.004,2.891 0.068,0.773 0.068,1.654 -0.618,2.081 -0.746,0.461 -2.036,-0.443 -2.823,-0.606 z" /><path
       style="fill:#e1e2e3;stroke:#967348;stroke-width:0.2504"
       id="path637"
       d="m 206.474,248.176 c -1.668,-0.137 -3.336,0.079 -4.983,0.363 -1.42,0.244 -2.884,0.108 -4.292,0.443 -1.065,0.255 -2.513,1.08 -3.189,-0.389 -0.456,-0.984 0.002,-2.327 0.249,-3.307 0.792,-3.149 3.692,-2.639 6.054,-2.933 2.18,-0.27 4.409,-0.714 6.602,-0.357 1.075,0.174 2.052,0.556 2.845,1.417 1.049,1.135 0.75,1.558 0.855,3.054 0.062,0.891 0.8,2.093 -0.334,2.309 -1.079,0.206 -2.686,-0.508 -3.807,-0.6 z" /><g
       id="g4248"><path
         d="m 202.353,273.56 c 2.154,0 4.324,-0.161 6.457,0.25 0.597,0.116 2.261,0.046 2.504,0.735 0.207,0.583 -0.273,1.719 -0.326,2.352 -0.087,1.036 -0.361,2.015 -0.171,3.064 0.19,1.039 0.904,1.969 0.339,3.047 -0.333,0.634 -1.018,0.875 -1.67,1.052 -1.31,0.356 -2.687,0.65 -4.037,0.803 -2.549,0.287 -5.488,0.134 -8.1,-0.03 -1.404,-0.088 -2.712,-0.233 -4.041,-0.687 -1.146,-0.39 -1.021,-1.133 -0.875,-2.149 0.223,-1.554 0.133,-3.038 -0.06,-4.591 -0.111,-0.897 -0.6,-2.025 0.258,-2.729 0.673,-0.554 2.07,-0.766 2.906,-0.91 2.252,-0.387 4.545,-0.207 6.816,-0.207 z"
         id="path787"
         style="fill:#f4e9d7;stroke:#967348;stroke-width:0.3218" /><path
         d="m 200.065,283.796 c 0.227,0.133 0.53,0.167 0.779,0.113 0.062,-0.185 0.186,-0.438 0.189,-0.633 0.056,0.002 0.103,0.024 0.141,0.065 0.056,-0.175 0.152,-0.395 0.238,-0.577 -0.079,0.488 -0.078,0.951 0.292,1.284 0.08,-0.073 0.276,-0.172 0.372,-0.269 0.484,0.256 1.164,0.167 1.723,0.131 -0.038,-0.532 0.03,-1.105 0.258,-1.551 0.03,0.472 -0.028,0.974 0.198,1.397 0.3,-0.246 2.042,-0.313 2.634,-0.388 -0.077,-0.109 -0.066,-0.236 -0.096,-0.331 0.064,0.058 0.111,0.126 0.145,0.204 0.608,-0.218 1.871,-0.15 2.241,-0.735 0.146,0.111 0.261,0.133 0.382,0.198 0.043,-0.028 0.51,-0.421 0.404,-0.336 -1.156,-1.438 -0.943,-5.311 -0.229,-6.885 -0.263,-0.224 -0.655,-0.949 -1.06,-0.786 -0.51,0.204 -0.427,2.119 -0.424,2.571 -0.427,-1.084 0.401,-2.466 -1.054,-2.712 -0.058,0.115 -0.019,0.229 -0.023,0.348 -0.032,-0.058 -0.092,-0.193 -0.109,-0.223 -0.081,0.836 0.087,1.719 -0.132,2.538 -0.019,-0.722 -0.111,-2.043 -0.526,-2.625 -0.075,0.065 -0.156,0.122 -0.246,0.167 -0.015,-0.006 -0.226,-0.167 -0.203,-0.169 0.041,1.188 0.435,2.383 0.542,3.604 0.093,1.057 0.126,2.118 0.269,3.15 0.111,-1.046 0.141,-2.079 0.13,-3.14 0.156,0.541 0.103,1.121 0.269,1.662 0.426,-0.925 -0.064,-2.388 0.375,-3.171 0.104,1.939 0.117,3.896 0.172,5.854 -0.258,-0.327 -0.405,-0.86 -0.516,-1.156 -0.017,0.389 -0.075,0.816 -0.271,1.167 -0.055,-0.097 -0.03,-0.224 -0.051,-0.331 -0.117,0.142 -0.184,0.276 -0.346,0.339 -0.16,-0.141 -0.158,-0.182 -0.373,-0.231 -0.109,0.411 -0.294,0.494 -0.576,0.639 -0.198,-0.871 -0.664,-1.625 -0.83,-2.534 -0.149,-0.821 -0.156,-1.752 -0.375,-2.516 0.222,0.899 0.687,3.915 0.007,4.654 -0.107,-0.514 -0.192,-1.214 -0.403,-1.59 -0.017,0.314 -0.182,0.487 -0.271,0.755 -0.021,-0.062 -0.04,-0.123 -0.055,-0.187 -0.32,0.604 -0.301,1.343 -0.668,1.955 -1.533,-0.43 -0.947,-4.22 -1.18,-5.446 -0.006,1.455 -0.146,2.887 -0.131,4.345 -0.034,-0.292 -0.167,-0.594 -0.238,-0.859 -0.12,0.519 -0.49,1.511 -0.806,1.818 -0.425,-0.659 -0.267,-1.601 -0.435,-2.357 0.034,0.892 -0.192,1.761 -0.134,2.646"
         id="path789"
         style="fill:#dcc06d" /><path
         d="m 194.03,275.617 c -0.598,-0.15 -0.965,0.051 -0.929,0.621 -0.092,-0.003 -0.098,-0.136 -0.251,-0.065 -0.313,0.58 0.113,1.092 0.249,1.724 0.24,1.11 0.19,2.457 0.128,3.599 -0.031,0.552 0.04,2.6 1.076,1.545 0.243,0.361 0.628,0.461 1.048,0.332 -0.048,-1.836 -0.127,-3.689 -0.109,-5.573 -0.302,1.33 0.184,3.654 -0.645,4.75 -0.087,-0.347 -0.279,-0.409 -0.436,-0.647 -0.058,0.098 -0.206,0.237 -0.271,0.375 0.04,-1.762 0.155,-4.007 -0.234,-5.682 0.126,0.063 0.095,0.239 0.136,0.35 0.006,-0.004 0.261,-0.217 0.242,-0.218 0.122,0.866 0.316,1.798 0.265,2.678 0.003,-1.19 0.096,-3.026 0.161,-4.449 0.518,0.521 0.606,1.568 0.643,2.309 0.007,-0.808 0.198,-1.646 0.115,-2.434 -0.586,-0.157 -0.994,0.256 -1.454,0.517"
         id="path795"
         style="fill:#dcc06d" /></g><path
       style="display:inline;overflow:visible;fill:#f4e9d7;stroke:#967348;stroke-width:0.3418"
       id="path803"
       d="m 211.373,250.003 c 0.047,-3.234 -7.329,-3.008 -8.979,-2.986 -2.039,0.027 -4.158,0.175 -6.137,0.767 -0.824,0.247 -1.684,0.333 -2.363,0.967 -0.924,0.862 -0.469,1.573 -0.353,2.732 0.15,1.495 -0.149,2.954 -0.481,4.386 -0.169,0.731 -1.027,2.716 -0.394,3.381 0.431,0.453 0.299,0 0.623,-0.159 1.277,-0.626 2.4,-0.713 3.729,-0.932 2.302,-0.38 4.645,-0.357 6.961,-0.186 1.182,0.086 2.362,0.217 3.539,0.367 0.753,0.097 2.128,-0.045 2.811,0.347 0.25,0.143 0.371,0.517 0.482,0.588 0.75,0.482 0.942,-0.506 0.866,-1.147 -0.117,-0.999 -0.663,-1.832 -0.714,-2.816 -0.051,-0.997 -0.089,-1.952 -0.015,-2.948 0.058,-0.807 0.412,-1.566 0.425,-2.361 z" /><g
       id="g819">
			<path
   style="fill:#f4e9d7;stroke:#967348;stroke-width:0.3418"
   id="path821"
   d="m 210.991,266.431 c 0.149,-2.021 1.235,-3.79 -0.823,-4.656 -1.149,-0.483 -2.472,-0.716 -3.689,-0.807 -1.656,-0.124 -3.321,-0.447 -4.979,-0.486 -2.157,-0.051 -4.355,0.23 -6.429,0.91 -0.774,0.252 -1.992,0.644 -2.59,1.282 -0.66,0.709 -0.039,1.601 0.007,2.498 0.071,1.408 0.085,2.784 -0.222,4.163 -0.237,1.061 -0.638,2.362 0.206,3.214 -0.005,-0.646 1.672,-0.865 2.117,-1.027 0.994,-0.364 2.065,-0.562 3.095,-0.749 2.826,-0.512 5.635,-0.533 8.478,-0.234 1.325,0.14 2.747,0.315 4.009,0.82 0.267,0.106 0.811,0.513 1.016,0.423 0.514,-0.227 0.175,-1.121 0.063,-1.502 -0.328,-1.112 -0.355,-2.512 -0.259,-3.849 z" />
			<path
   style="fill:#dcc06d"
   id="path823"
   d="m 208.359,268.469 c 0.049,0.531 0.075,1.122 0.384,1.58 -0.017,-0.131 0.019,-0.273 0.011,-0.394 0.258,0.587 1.488,0.861 2.02,1.126 -0.026,-0.159 -0.008,-0.336 -0.075,-0.497 0.062,0.154 0.215,0.393 0.26,0.504 -0.469,-2.009 -0.458,-4.051 -0.35,-6.102 0.024,-0.437 0.233,-1.021 0.03,-1.427 -0.163,-0.329 -0.676,-0.682 -0.898,-0.957 -0.292,1.054 -0.443,2.188 -0.469,3.275 0,-0.867 0.124,-1.876 0.015,-2.727 -0.082,-0.63 -0.397,-0.707 -1.088,-0.911 -0.209,-0.062 -0.873,-0.047 -1.035,-0.002 0.021,0.006 0.134,0.156 0.141,0.17 0.062,-0.011 0.109,-0.082 0.162,-0.07 0.152,1.628 -0.433,3.446 0.177,4.993 0.085,-0.968 -0.125,-4.624 0.363,-4.721 0.296,0.731 0.13,1.689 0.213,2.464 0.188,-0.408 0.229,-0.87 0.316,-1.289 0.337,0.969 0.55,2.538 0.286,3.531 0.068,-0.259 0.119,-0.504 0.205,-0.759 0.246,0.782 0.134,1.989 0.049,2.826 -0.7,-0.755 -0.606,-2.189 -0.717,-3.181 -0.262,0.873 0.124,2.687 -0.588,3.366 0.023,-0.124 -0.034,-0.31 -0.032,-0.437 -0.201,0.086 -0.426,0.078 -0.61,0.163 -0.346,-0.516 -0.254,-1.27 -0.544,-1.858 0.047,0.549 -0.037,1.187 -0.326,1.661 -0.205,-0.2 -0.525,0.073 -0.74,0.115 -0.262,0.053 -0.758,-0.049 -1.078,-0.069 -0.77,-0.049 -1.563,-0.172 -2.312,-0.007 0.068,0.127 0.026,0.313 0.068,0.418 -0.81,0.314 -2.066,0.152 -2.926,0.092 0.013,-0.379 -0.047,-0.762 -0.096,-1.135 -0.141,0.337 -0.259,0.686 -0.367,1.033 -0.004,-0.082 -0.006,-0.158 -0.014,-0.238 -0.513,0.883 -1.642,0.772 -2.562,0.968 -0.011,-0.357 -0.008,-0.715 -0.123,-1.063 -0.218,0.502 -0.478,0.944 -0.872,1.309 1.922,-0.803 4.354,-0.537 6.413,-0.528 0.737,0.003 1.392,-0.139 2.098,-0.154 0.676,-0.015 1.348,0.055 2.024,0.083 0.546,0.021 1.203,0.288 1.721,0.268 0.896,-0.035 0.48,-0.733 0.866,-1.419 z" />
			<path
   style="fill:#dcc06d"
   id="path825"
   d="m 193.292,267.84 c -0.29,1.093 -0.844,2.125 -0.724,3.289 0.242,-0.146 0.502,-0.293 0.783,-0.359 -0.161,-0.346 -0.089,-0.829 0.012,-1.208 -0.017,0.365 -0.091,0.812 0.176,1.063 0.036,-0.129 0.177,-0.25 0.192,-0.451 0.166,0.099 0.448,0.089 0.599,0.158 0.04,-1.103 0.32,-2.133 0.646,-3.18 -0.457,0.844 -0.622,1.632 -0.92,2.537 -0.037,-0.042 -0.065,-0.089 -0.087,-0.141 -0.02,0.015 -0.21,0.141 -0.237,0.141 0.016,-0.211 -0.048,-0.467 -0.031,-0.679 -0.324,0.349 -0.577,1.079 -0.608,1.575 -0.064,-0.983 0.285,-1.855 0.561,-2.738 0.325,-1.042 0.251,-2.189 0.242,-3.271 0.073,0.623 0.075,1.311 0.25,1.903 0.085,-1.11 0.024,-2.332 0.306,-3.406 0.265,0.675 0.353,1.592 0.334,2.318 0.242,-0.537 0.059,-2.616 -0.418,-2.996 -0.166,0.179 -0.302,0.375 -0.407,0.592 -0.035,-0.037 -0.11,-0.116 -0.151,-0.178 -0.342,0.299 -0.078,0.768 -0.186,1.163 0.031,-0.32 -0.146,-0.687 -0.304,-0.934 -0.328,0.397 0.069,1.578 0.112,2.084 0.077,0.913 0.097,1.823 -0.14,2.718 z" />
			<path
   style="fill:#dcc06d"
   id="path827"
   d="m 198.098,262.117 c -0.161,-0.084 -0.35,-0.113 -0.522,-0.076 -0.002,0.525 0.625,1.092 0.771,1.683 0.251,1.015 0.23,2.116 0.445,3.113 -0.15,-0.697 -0.032,-1.623 -0.133,-2.365 -0.094,-0.682 -0.356,-1.628 -0.007,-2.261 0.391,0.304 0.677,-0.233 1.129,-0.171 0.271,0.872 0.194,2.209 0.194,2.956 0.005,-1.191 0.181,-2.396 0.072,-3.584 -0.122,0.135 -0.298,0.218 -0.403,0.402 -0.432,0.751 -1.274,-1.009 -1.814,0.125" />
			<path
   style="fill:#dcc06d"
   id="path829"
   d="m 205.697,262.207 c -0.085,0.019 0.491,0.031 0.282,-0.006 -0.406,0.263 0.181,0.496 0.367,0.819 0.433,0.759 0.305,2.09 0.354,2.939 0.348,-0.945 0.111,-2.693 -0.032,-3.738 -0.117,-0.025 -0.228,-0.087 -0.345,-0.104" />
			<path
   style="fill:#ccb25c"
   id="path831"
   d="m 210.972,263.548 c 0.258,2.212 -0.631,4.603 0.32,6.707 -0.113,0.073 -0.167,0.094 -0.307,0.101 0.006,0.032 -0.002,0.24 -0.013,0.269 -0.034,-0.091 -0.275,-0.25 -0.522,-0.293 0.004,-0.593 -0.107,-1.629 -0.397,-2.104 -0.177,0.416 0.529,2.184 -0.23,2.102 -0.139,-1.021 0.068,-2.156 0.006,-3.186 -0.051,-0.877 -0.032,-1.729 -0.11,-2.591 0.164,0.876 0.179,1.791 0.382,2.663 0.486,-1.234 -0.175,-2.976 0.435,-4.309 -0.183,0.415 -0.158,1.014 0.013,1.439 0.136,-0.253 0.196,-0.644 0.337,-0.949 -0.04,0.122 0.036,0.096 0.086,0.151" />
			<path
   style="fill:#ccb25c"
   id="path833"
   d="m 192.555,271.236 c 1.256,-0.554 2.476,-1.119 3.819,-1.34 -0.785,-0.072 -1.754,0.213 -2.46,0.527 -0.019,-0.112 -0.11,-0.216 -0.123,-0.342 -0.089,0.082 -0.323,0.136 -0.419,0.23 -0.008,-0.075 -0.019,-0.148 -0.026,-0.225 -0.71,-0.236 -0.557,0.453 -0.662,0.881 0.127,0.128 0,0.109 -0.04,0.179" />
		</g><g
       id="g835">
			<path
   style="fill:#f4e9d7;stroke:#967348;stroke-width:0.3418"
   id="path837"
   d="m 193.683,244.095 c -0.164,0.783 -0.424,1.981 0.142,2.254 0.264,0.128 0.888,-0.369 1.149,-0.481 2.829,-1.222 6.024,-1.382 9.041,-1.51 1.162,-0.05 2.329,0.132 3.462,0.425 0.644,0.166 1.215,0.615 1.858,0.786 0.486,0.13 1.48,-0.084 1.251,0.864 0.666,-0.451 0.586,-1.169 0.386,-1.878 -0.307,-1.082 -0.488,-1.883 -0.536,-3.029 -0.034,-0.9 0.092,-1.455 0.267,-2.314 0.565,-2.782 -4.291,-3.414 -6.006,-3.498 -2.817,-0.135 -5.61,0.431 -8.387,0.868 -1.245,0.197 -3.016,0.465 -2.962,2.231 0.021,0.688 0.339,1.391 0.446,2.071 0.138,0.89 0.072,1.81 -0.017,2.7 -0.014,0.126 -0.051,0.303 -0.094,0.511 z" />
			<path
   style="fill:#dcc06d"
   id="path839"
   d="m 206.636,243.567 c 0.574,-0.035 1.163,0.221 1.693,0.398 -0.028,0.882 0.617,0.033 1.021,0.125 0.375,0.083 1.077,0.685 1.284,0.94 -0.378,-1.291 -0.813,-2.674 -0.734,-4.026 0.041,-0.702 0.751,-2.188 0.227,-2.784 -0.222,-0.255 -0.732,0.031 -1.022,-0.156 -0.377,-0.243 -0.301,-0.74 -0.714,-1.013 -0.235,0.489 -0.585,0.714 -0.951,0.184 -0.075,0.17 -0.139,0.361 -0.164,0.548 0.021,0.002 -0.31,-0.036 -0.241,-0.061 -0.034,0.034 -0.071,0.067 -0.107,0.099 0.363,1.132 0.431,2.507 0.371,3.705 0.322,-0.939 0.399,-2.437 0.429,-3.44 0.239,0.04 0.312,0.042 0.525,0.238 0.034,-0.026 0.183,-0.193 0.234,-0.212 0.068,0.716 -0.008,1.49 0.056,2.204 0.143,-0.595 0.149,-1.269 0.48,-1.805 0.066,1.217 0.674,3.545 -0.002,4.635 -0.085,-0.128 -0.406,-0.336 -0.474,-0.509 -0.032,0.187 -0.16,0.346 -0.198,0.516 -0.06,-0.079 -0.288,-0.216 -0.375,-0.352 -0.047,0.21 -0.258,0.476 -0.288,0.745 -0.422,0.025 -0.58,0.047 -0.913,0.231 -0.979,-0.49 -1.841,-0.385 -2.916,-0.613 -0.842,-0.179 -0.992,-0.07 -1.248,-1.074 -0.184,-0.716 -0.132,-1.551 -0.369,-2.222 -0.085,1.038 0.179,2.286 -0.158,3.243 -0.503,-0.065 -1.209,0.144 -1.726,0.303 -0.036,-0.78 -0.183,-1.494 -0.298,-2.27 0.012,0.292 -0.106,1.386 -0.268,1.911 0.017,0.01 0.077,-0.003 0.013,-0.114 -0.233,0.993 -2.726,0.646 -3.637,1.113 -0.001,-0.744 0.131,-1.488 0.174,-2.235 0.03,-0.53 -0.123,-1.488 0.074,-1.863 -0.016,0.975 0.169,2.089 0.291,3.029 0.466,-1.49 0.258,-3.679 0.363,-5.024 0.042,0.069 0.103,0.109 0.181,0.121 0.125,-0.208 0.462,-0.402 0.566,-0.673 0.466,0.419 0.269,1.686 0.376,2.34 0.146,-0.966 0.136,-1.93 0.968,-2.6 0.427,0.434 0.517,1.614 0.502,2.288 -0.035,-0.606 0.224,-1.965 0.108,-2.836 -0.131,0.337 -0.385,0.421 -0.646,0.606 -0.053,-0.028 -0.223,-0.168 -0.258,-0.199 0.084,0.069 -1.897,0.466 -2.052,0.513 0.132,-0.041 -1.074,0.568 -0.948,0.438 -0.455,0.472 -0.364,1.063 -0.49,1.811 -0.114,-0.57 -0.209,-1.154 -0.432,-1.683 -1.576,0.267 -0.857,1.155 -0.675,2.26 0.254,1.539 -0.328,3.092 0.136,4.556 1.231,-0.486 0.699,-2.823 0.699,-3.844 -0.001,1.105 0.172,2.206 0.154,3.291 0.43,0.047 0.849,-0.104 1.187,-0.382" />
			<path
   style="fill:#ccb25c"
   id="path841"
   d="m 210.257,244.104 c -0.441,-0.317 -0.853,-0.466 -1.307,-0.282 -0.156,-0.475 -0.495,-0.743 -0.959,-0.573 0.267,-0.73 0.119,-1.67 0.121,-2.459 0.024,0.577 0.156,1.135 0.299,1.696 0.062,0.015 0.158,-0.093 0.237,-0.108 0.137,0.216 0.356,0.353 0.51,0.506 0.092,-1.137 0.049,-2.355 -0.237,-3.432 -0.166,0.455 -0.181,0.983 -0.414,1.386 0.021,-0.955 0.162,-2.267 -0.241,-3.019 0.158,0.234 0.489,0.367 0.759,0.499 0.077,-0.069 0.203,-0.177 0.26,-0.231 0.344,0.302 0.235,0.348 0.683,0.272 -0.476,1.492 -0.542,4.306 0.403,5.617 -0.313,0.287 -0.094,0.003 -0.113,-0.005" />
			<path
   style="fill:#ccb25c"
   id="path843"
   d="m 195.237,243.567 c -0.352,0.358 -0.576,0.843 -0.657,1.33 1.452,-0.202 0.875,-3.491 0.515,-4.375 0.025,1.193 0.035,2.617 -0.394,3.717" />
		</g><g
       id="g1117"
       style="display:inline;overflow:visible">
	<path
   style="fill:#e1e2e3;stroke:#967348;stroke-width:0.2358"
   id="path1119"
   d="m 204.667,151.082 c -1.653,-0.067 -11.576,-1.645 -8.276,2.493 0.697,0.875 1.953,1.218 2.991,1.447 2.369,0.524 4.875,0.361 7.277,0.234 1.536,-0.083 4.332,-0.833 3.914,-2.874 -0.428,-2.08 -4.247,-1.233 -5.906,-1.3 z" />
	<path
   style="fill:#f4e9d7;stroke:#967348;stroke-width:0.3199"
   id="path1121"
   d="m 212.405,146.129 c 0.058,-0.328 0.104,-0.663 0.134,-1.008 0.177,-1.931 -0.563,-2.281 -2.316,-3.003 -2.289,-0.942 -4.73,-0.973 -7.161,-0.691 -1.467,0.169 -2.848,0.872 -4.327,0.937 -1.134,0.049 -2.104,-0.426 -3.132,0.216 -2.983,1.862 0.002,5.797 -1.422,8.146 0.101,-0.142 2.716,1.929 2.955,2.079 1.561,0.982 3.259,1.101 5.07,1.284 2.387,0.242 4.626,-0.268 6.964,-0.642 2.107,-0.336 2.576,-1.229 2.64,-3.519 0.04,-1.369 0.379,-2.54 0.595,-3.799 z" />
	<path
   style="fill:#dcc06d"
   id="path1123"
   d="m 196.31,150.905 c 0.592,0.591 1.349,1.44 2.132,1.586 -0.358,-0.449 -0.63,-1.097 -0.514,-1.711 -0.583,1.646 -1.283,-0.518 -1.26,-1.251 -0.121,0.604 -0.044,1.72 -0.537,1.555" />
	<path
   style="fill:#dcc06d"
   id="path1125"
   d="m 205.608,153.051 c 0.755,0.081 4.563,-0.254 3.916,-1.537 0.143,0.247 0.454,0.385 0.604,0.615 0.155,-0.082 0.765,-0.522 0.816,-0.589 0.045,-0.664 0.047,-1.379 -0.008,-2.047 -0.228,0.138 -0.44,0.059 -0.648,0.133 -0.047,-0.423 -0.28,-0.709 -0.2,-1.16 -0.461,0.852 -0.026,2.025 -0.224,2.961 -0.704,-0.399 -0.427,-1.367 -0.689,-2.077 -0.16,0.971 0.085,2.148 -0.695,2.82 -0.382,0.326 -1.952,0.596 -2.487,0.496 -0.023,-0.253 -0.177,-0.432 -0.209,-0.625 -0.038,0.339 -0.243,0.501 -0.343,0.765 -0.668,-0.116 -2.805,0.123 -3.394,0.393 1.294,-0.388 2.914,-0.148 4.277,-0.148" />
	<path
   style="fill:#e1e2e3;stroke:#967348;stroke-width:0.2358"
   id="path1127"
   d="m 205.648,141.385 c -2.988,-0.482 -7.505,-1.865 -10.062,0.504 -1.802,1.67 -2.008,5.045 0.545,6.112 3.096,1.291 6.219,-0.069 9.259,0.44 2.933,0.492 6.557,0.168 6.123,-3.834 -0.309,-2.824 -3.476,-2.837 -5.865,-3.222 z" />
</g></g><path
     d="m 211.144,154.11 c -0.149,0.024 -0.183,0.093 -0.305,0.155 1.007,-0.007 0.429,3.204 0.217,3.813 -0.125,-0.525 -0.159,-1.071 -0.121,-1.627 -0.143,0.128 -0.412,0.239 -0.522,0.342 -0.013,-0.08 -0.026,-0.16 -0.039,-0.24 -0.729,0.12 -1.279,0.664 -1.99,0.788 -0.938,0.165 -2.764,0.057 -3.625,-0.301 0.013,-0.106 0.1,-0.102 0.119,-0.208 -2.036,-0.168 -4.373,0.231 -6.116,-1.109 0.747,0.574 2.791,0.38 3.674,0.344 3.05,-0.127 6.578,1.059 8.708,-1.957 z"
     id="path1607"
     style="display:inline;overflow:visible;fill:#dcc06d" /></g></svg>
