<?xml version="1.0" encoding="UTF-8" standalone="no"?>
<!-- Generator: Adobe Illustrator 12.0.0, SVG Export Plug-In . SVG Version: 6.00 Build 51448)  -->

<svg
   version="1.0"
   id="Layer_1"
   width="297.60214"
   height="326.88553"
   viewBox="0 0 297.60213 326.88552"
   overflow="visible"
   enable-background="new 0 0 435.687 841.89"
   xml:space="preserve"
   sodipodi:version="0.32"
   inkscape:version="1.4.2 (f4327f4, 2025-05-13)"
   sodipodi:docname="upper_bones_vertebrae_cervicales.svg"
   inkscape:output_extension="org.inkscape.output.svg.inkscape"
   style="display:inline;overflow:visible"
   xmlns:inkscape="http://www.inkscape.org/namespaces/inkscape"
   xmlns:sodipodi="http://sodipodi.sourceforge.net/DTD/sodipodi-0.dtd"
   xmlns="http://www.w3.org/2000/svg"
   xmlns:svg="http://www.w3.org/2000/svg"
   xmlns:rdf="http://www.w3.org/1999/02/22-rdf-syntax-ns#"
   xmlns:cc="http://creativecommons.org/ns#"
   xmlns:dc="http://purl.org/dc/elements/1.1/"><metadata
   id="metadata3098"><rdf:RDF><cc:Work
       rdf:about=""><dc:format>image/svg+xml</dc:format><dc:type
         rdf:resource="http://purl.org/dc/dcmitype/StillImage" /></cc:Work><cc:Work
       rdf:about=""><dc:format>image/svg+xml</dc:format><dc:type
         rdf:resource="http://purl.org/dc/dcmitype/StillImage" /></cc:Work></rdf:RDF></metadata><defs
   id="defs3096"><inkscape:perspective
   sodipodi:type="inkscape:persp3d"
   inkscape:vp_x="0 : -94.059466 : 1"
   inkscape:vp_y="0 : 999.99999 : 0"
   inkscape:vp_z="435.687 : -94.059466 : 1"
   inkscape:persp3d-origin="217.84351 : -234.37448 : 1"
   id="perspective3100" />
		
		
		
		
	
		
		
	
		
		
		
		
		
	
	
	

		
		
		
	
			
			
		
				
				
				
				
				
			
	
	
</defs>
<sodipodi:namedview
   inkscape:window-height="1369"
   inkscape:window-width="2560"
   inkscape:pageshadow="2"
   inkscape:pageopacity="0.0"
   guidetolerance="10.0"
   gridtolerance="10.0"
   objecttolerance="10.0"
   borderopacity="1.0"
   bordercolor="#666666"
   pagecolor="#ffffff"
   id="base"
   showgrid="false"
   inkscape:zoom="1.9049022"
   inkscape:cx="120.74111"
   inkscape:cy="219.17136"
   inkscape:window-x="-8"
   inkscape:window-y="-8"
   inkscape:current-layer="layer3"
   showguides="true"
   inkscape:guide-bbox="true"
   inkscape:showpageshadow="2"
   inkscape:pagecheckerboard="0"
   inkscape:deskcolor="#d1d1d1"
   inkscape:window-maximized="1" />
<g
   inkscape:groupmode="layer"
   id="layer3"
   inkscape:label="Skeleton"
   style="display:inline"
   transform="translate(-63.538848,-89.863482)"><g
     style="display:inline;overflow:visible"
     id="CervicalVertebrae"
     inkscape:label="Cervical Vertebrae (I-VII)">
	<g
   id="g1131">
		<g
   id="g1133">
			<path
   d="m 191.041,143.352 c -0.746,0.027 -1.481,0.363 -2.245,0.393 -0.799,0.03 -1.48,0.011 -2.274,-0.181 -0.542,-0.129 -0.705,-0.062 -1.203,-0.374 -0.433,-0.271 -0.787,-0.704 -1.167,-1.022 -1.098,-0.921 -1.18,-2.606 -1.016,-3.952 0.226,-1.847 1.71,-2.027 2.694,-3.177 0.747,-0.872 0.3,-1.811 1.549,-2.365 1.117,-0.494 2.316,-0.284 3.483,-0.169 1.121,0.11 2.275,-0.092 3.382,0.075 2.871,0.434 0.474,2.786 -0.201,4.271 -0.48,1.059 -1.26,2.071 -2.436,2.307 -0.486,0.099 -1.042,-0.105 -1.51,0.07 -0.11,0.041 -1.084,0.613 -0.617,0.861 0.989,0.52 2.589,-0.714 3.394,-1.299 1.071,-0.777 1.575,-2.061 1.906,-3.293 0.775,-2.888 5.127,-2.635 7.501,-3.008 1.819,-0.285 3.673,-0.521 5.52,-0.437 0.802,0.037 2.171,-0.094 2.85,0.405 0.222,0.164 0.232,0.521 0.406,0.676 0.33,0.295 0.849,0.311 1.194,0.652 -0.738,-0.401 -0.181,1.18 -0.087,1.492 0.267,0.876 0.548,1.652 1.279,2.256 0.527,0.434 3.762,2.78 4.052,1.172 0.084,-0.458 -1.676,-0.528 -1.915,-0.526 -0.751,0.006 -1.06,0.153 -1.617,-0.474 -0.412,-0.463 -0.874,-0.897 -1.251,-1.395 -0.567,-0.74 -1.457,-2.49 -0.698,-3.378 0.612,-0.716 2.468,-0.627 3.31,-0.668 0.576,-0.026 1.103,0.066 1.664,0.134 0.569,0.071 0.932,0.03 1.535,0.089 0.581,0.058 0.681,0.123 1.169,0.424 0.473,0.292 0.689,0.28 1.065,0.403 1.737,0.565 2.921,3.279 2.591,5.076 -0.2,1.082 -1.089,2.423 -1.774,3.221 -0.723,0.84 -1.633,0.746 -2.607,0.989 -1.072,0.268 -1.773,0.614 -2.914,0.409 -1.489,-0.266 -3.643,-0.84 -4.52,0.961 -0.563,1.157 0.175,2.12 -1.088,3.035 -1.075,0.778 -2.459,0.8 -3.764,0.725 -1.039,-0.061 -1.967,-0.655 -3.025,-0.649 -1.152,0.005 -2.127,0.68 -3.248,0.837 -1.007,0.142 -1.887,-0.282 -2.815,-0.623 -0.561,-0.207 -1.943,-0.429 -2.324,-0.931 -0.672,-0.886 0.337,-2.41 -0.71,-3.195 -0.739,-0.554 -1.663,0.441 -2.49,0.455 -0.379,0.006 -0.608,-0.272 -0.939,-0.272 -0.027,-0.001 -0.059,-0.001 -0.089,0 z"
   id="path1135"
   style="fill:#f3d48c;stroke:#967348;stroke-width:0.3218" />
			<path
   d="m 189.456,133.722 c -0.502,-0.143 -1.172,-0.717 -1.704,-0.419 -0.418,0.237 -0.658,1.193 -0.474,1.627 0.09,0.218 1.13,1.003 1.239,0.598 -0.201,0.753 -1.104,0.041 -1.228,0.959 0.484,0.085 0.944,-0.238 1.321,-0.527 0.043,0.339 0.155,0.37 0.338,0.623 0.159,-0.313 0.123,-0.702 0.005,-1.055 1.226,-0.588 1.263,1.217 1.264,2.059 0.048,-0.337 0.13,-0.71 0.397,-0.958 0.668,0.512 1.937,1.23 1.471,2.293 0.071,0.092 0.208,0.208 0.298,0.268 0.938,-0.597 2.044,-2.058 1.984,-3.317 -0.047,0.41 -0.34,0.675 -0.712,0.728 -0.615,-0.611 -0.592,-1.624 0.086,-2.168 0.06,0.373 0.271,0.713 0.63,0.812 0.116,-0.211 0.155,-0.559 0.081,-0.833 -0.705,-0.012 -1.368,-0.279 -2.057,-0.435 -1.007,-0.228 -1.926,0.032 -2.939,-0.255 z"
   id="path1137"
   style="fill:#dcc06d" />
			<path
   d="m 212.61,133.392 c -0.586,0.443 -0.862,0.468 -0.858,1.223 0.005,0.608 0.422,1.507 0.728,2.008 0.322,0.53 0.921,1.208 1.378,1.576 0.755,0.609 0.8,-0.005 1.653,0.178 0.068,-0.138 0.103,-0.268 0.109,-0.406 -0.401,-0.023 -0.61,-0.5 -0.403,-0.813 0.085,0.128 0.058,0.166 0.122,0.336 0.009,-0.004 0.265,-0.087 0.271,-0.086 0.025,0.374 0.124,0.804 0.471,0.691 0.209,-0.067 -0.032,-0.523 0.066,-0.595 0.226,-0.167 0.22,-0.141 0.529,-0.217 0.636,-0.158 2.035,0.232 2.48,0.744 0.02,-0.113 0.109,-0.235 0.121,-0.372 0.309,0.222 0.68,0.184 1.038,0.051 0.008,-0.062 0.017,-0.122 0.027,-0.182 0.275,-0.017 0.416,-0.022 0.598,0.179 -0.064,0.016 -0.124,0.032 -0.188,0.049 0.521,0.373 1.429,1.073 0.833,1.761 1.072,-0.049 0.375,1 -0.41,0.901 0.144,0.804 -0.662,1.335 -1.354,1.19 0.025,-0.299 -0.019,-0.594 -0.14,-0.861 -0.144,0.114 -0.466,0.121 -0.589,0.196 -0.132,-0.491 -0.375,-0.979 -0.655,-1.396 0.644,0.916 -0.139,1.695 -0.902,1.995 -0.738,0.29 -1.438,0.097 -2.204,-0.092 0.557,0.502 1.434,0.732 2.165,0.749 -0.102,0.183 -0.115,0.537 -0.177,0.745 0.81,0.133 1.387,-0.602 2.032,-0.837 -0.074,0.146 -0.1,0.36 -0.166,0.504 1.412,-0.105 3.078,-1.426 3.566,-2.877 0.42,-1.249 0.556,-3.659 -0.932,-3.972 0.913,-0.937 -2.338,-2.849 -3.052,-3.036 -1.265,-0.33 -2.165,0.875 -3.426,1.084 -1.092,0.18 -2.196,-0.266 -3.252,0.139"
   id="path1139"
   style="fill:#dcc06d" />
			<path
   d="m 184.879,139.287 c -0.203,0.361 -0.333,0.707 -0.237,1.073 0.059,-0.149 0.284,-0.33 0.361,-0.474 0.719,0.703 0.655,-0.414 0.84,-0.81 0.248,0.114 0.54,0.23 0.792,0.313 -0.085,-0.35 -0.515,-0.995 -0.172,-1.303 0.304,-0.273 0.957,0.169 1.113,0.299 -0.046,-0.437 0.309,-0.807 -0.093,-1.198 -0.477,0.292 -1.205,0.559 -1.643,0.904 -0.431,0.339 -0.61,0.87 -0.962,1.307"
   id="path1141"
   style="fill:#dcc06d" />
			<path
   d="m 187.584,143.85 c -0.082,0.004 -1.421,-0.187 -1.318,-0.338 0.808,-1.182 2.042,-0.098 3.096,-0.551 0.325,-0.14 1.111,-0.757 0.238,-0.779 0.475,-0.13 0.749,-0.686 1.079,-1.081 -0.188,0.315 -0.216,0.699 -0.156,1.061 0.392,0.056 0.754,-0.125 1.095,-0.33 -0.239,0.387 -0.539,0.716 -0.761,1.109 0.535,-0.037 0.956,0.15 1.414,-0.078 -0.548,0.804 -2.13,0.753 -2.987,0.875 -0.578,0.084 -1.108,0.081 -1.7,0.112 z"
   id="path1143"
   style="fill:#dcc06d" />
			<path
   d="m 194.887,137.173 c -0.041,1.322 -1.255,2.444 -2.262,3.009 0.721,0.015 1.207,-0.629 1.827,-0.881 0.013,0.065 0.023,0.13 0.035,0.195 0.071,-0.055 0.289,-0.158 0.378,-0.197 0.134,0.607 -0.359,0.769 -0.776,0.995 0.516,0 1.044,-0.033 1.324,-0.522 0.033,0.118 0.079,0.168 0.125,0.278 0.22,-0.14 0.472,-0.119 0.695,-0.189 -0.126,0.177 -0.208,0.468 -0.381,0.641 0.127,-0.109 0.441,-0.211 0.582,-0.315 0.011,0.536 0.4,0.475 0.724,0.225 0.125,0.9 -0.244,1.781 -0.277,2.66 0.696,-0.453 0.878,-2.242 0.906,-3.097 -0.652,-0.293 -1.369,-0.634 -1.678,-1.354 -0.281,-0.654 -0.336,-1.523 -0.516,-2.19 -0.121,0.359 -0.067,0.78 -0.102,1.177 -0.219,-0.233 -0.371,-0.669 -0.397,-0.654"
   id="path1145"
   style="fill:#dcc06d" />
			<path
   d="m 199.364,141.931 c 0.151,-0.47 -0.007,-1.01 0.236,-1.403 0.498,0.364 0.938,-0.146 1.359,0.067 0.504,0.255 0.356,0.698 0.493,1.217 0.041,-0.152 0.162,-0.271 0.208,-0.403 1.07,0.549 1.147,3.191 1.041,4.297 0.605,-1.176 -0.507,-2.869 0.446,-4.074 0.283,0.319 0.691,0.429 0.938,0.002 0.913,0.522 0.522,2.471 1.337,2.983 0.31,-0.649 -0.125,-4.914 1.225,-3.673 0.218,-0.774 1.22,-0.715 1.586,-0.249 0.354,0.45 0.341,2.196 0.516,2.614 0.143,-0.626 -0.302,-2.01 0.216,-2.314 0.331,0.674 1.147,1.293 1.851,1.282 0.032,-0.248 0.184,-0.49 0.147,-0.76 0.3,0.217 0.656,0.309 1.006,0.196 -0.058,-0.308 -0.183,-0.641 -0.179,-0.967 0.147,0.062 0.455,0.023 0.598,0.08 -0.087,-0.181 -0.156,-0.586 -0.291,-0.772 0.31,-0.117 0.254,-0.261 0.393,-0.417 -0.365,-0.002 -0.499,-0.281 -0.491,-0.662 0.229,-0.25 0.508,-0.338 0.804,-0.258 -0.025,-0.43 -0.87,-1.387 -1.13,-1.782 -0.655,0.546 -0.725,1.418 -1.563,1.879 -0.661,0.364 -1.322,0.205 -1.949,0.471 0.668,0.125 0.521,0.738 -0.034,0.869 -0.315,0.075 -0.365,-0.309 -0.591,-0.343 -0.333,-0.052 -0.806,0.021 -1.188,0.029 -1.235,0.027 -2.382,-0.119 -3.522,0.021 0.115,0.486 -0.008,0.909 -0.516,1.087 -0.448,-1.279 -2.391,-1.139 -3.373,-0.852 0.022,0.561 0.618,1.242 0.427,1.835 z"
   id="path1147"
   style="fill:#dcc06d" />
			<path
   d="m 201.873,147.406 c 0.554,-0.144 0.906,-0.773 0.239,-1.006 0.615,-0.017 1.206,-0.129 1.83,-0.089 0.051,0.189 0.051,0.556 -0.002,0.745 -0.751,-0.004 -1.7,-0.213 -2.277,0.461"
   id="path1149"
   style="fill:#dcc06d" />
			<path
   d="m 209.065,147.406 c 0.992,-0.272 1.118,-1.864 0.825,-2.742 0.501,0.625 0.743,-0.143 0.629,-0.681 0.642,2.525 -0.23,4 -2.683,3.42 0.843,0.091 1.09,-0.284 1.646,-0.776"
   id="path1151"
   style="fill:#dcc06d" />
			<path
   d="m 206.149,131.077 c -2.829,-0.325 -6.239,-0.026 -8.919,1.031 -1.842,0.729 -1.733,1.675 -1.199,3.513 0.5,1.724 0.13,3.44 2.295,3.666 2.059,0.213 4.165,-0.225 6.257,-0.222 1.624,0.001 3.699,0.179 5.175,-0.755 1.633,-1.035 1.725,-4.674 0.452,-6.039 -0.94,-1.008 -2.856,-1.055 -4.061,-1.194 z"
   id="path1153"
   style="fill:#e1e2e3;stroke:#967348;stroke-width:0.2358" />
			<path
   d="m 190.42,133.616 c -0.651,-0.202 -1.515,-0.975 -2.195,-0.609 -0.603,0.323 -0.383,1.072 -0.723,1.573 0.073,-0.107 0.211,-0.195 0.301,-0.289 0.482,0.628 2.705,0.482 3.539,0.799 -0.058,0.031 -0.183,0.145 -0.271,0.192 0.173,0.229 0.189,0.355 0.284,0.536 1.842,-0.223 1.645,2.507 1.018,3.541 1.001,-0.628 1.064,-1.952 1.769,-2.811 -0.181,0.295 -0.268,0.165 -0.488,0.271 -0.3,-0.532 -0.796,-1.319 -0.353,-1.863 -0.014,0.161 0.038,0.372 0.044,0.536 0.088,-0.13 0.313,-0.254 0.417,-0.417 0.086,0.032 0.179,0.058 0.271,0.079 0.367,-0.718 0.218,-0.999 -0.577,-1.103 -1.042,-0.133 -2.017,-0.116 -3.036,-0.435 z"
   id="path1155"
   style="fill:#ccb25c" />
			<path
   d="m 216.468,131.857 c -1.391,0.124 -4.123,0.284 -4.566,2.037 -0.354,1.389 0.746,3.458 2.126,3.624 -0.172,-0.256 -0.269,-0.576 -0.256,-0.886 0.106,0.047 0.386,0.033 0.493,0.083 -0.018,-0.08 -0.039,-0.21 -0.054,-0.304 0.211,-0.012 0.41,0.012 0.582,-0.129 0.037,-0.032 0.615,-0.568 0.542,-0.53 1.167,-0.575 2.553,0.016 3.737,0.013 -0.29,-0.13 -0.478,-0.383 -0.508,-0.684 1.321,-0.199 2.937,0.98 3.595,2.084 -0.633,-1.403 -2.613,-2.102 -3.076,-3.525 0.25,-0.047 0.348,-0.263 0.523,-0.358 -1.08,-1.335 -1.541,-1.568 -3.138,-1.425 z"
   id="path1157"
   style="fill:#ccb25c" />
		</g>
		<g
   id="g1159">
			<path
   d="m 217.197,130.166 c -0.25,-1.166 -2.44,-2.156 -3.212,-1.084 -0.516,-0.155 -1.218,-0.142 -1.691,-0.386 -0.755,-0.388 -1.208,-2.074 -1.331,-2.87 -0.222,-1.431 1.493,-1.622 2.493,-1.633 1.836,-0.024 3.508,1.339 5.071,2.194 1.061,0.579 1.061,0.603 0.414,1.666 -0.704,1.16 0.182,1.425 0.966,2.002 2.25,1.657 -1.367,2.314 -2.323,3.081 -0.902,0.723 -1.056,1.092 -2.372,1.01 -0.97,-0.061 -1.862,-0.283 -2.813,-0.396 -0.571,-0.068 -1.264,-0.452 -1.75,0.09 -0.519,0.576 0.06,1.221 -0.124,1.89 -0.61,2.252 -3.018,2.062 -4.775,2.06 -1.011,-0.001 -2.003,0.125 -3.008,0.091 -0.194,-0.006 -0.386,-0.002 -0.578,0.01 -1.155,0.067 -2.299,0.396 -3.451,0.312 -1.181,-0.088 -1.748,-1.304 -2.222,-2.291 -0.745,-1.551 -1.848,-1.764 -3.377,-1.63 -1.052,0.092 -2.273,0.707 -3.206,-0.029 -1.03,-0.812 -0.894,-1.941 -0.748,-3.166 -0.593,1.023 -0.043,1.824 0.294,2.735 -0.876,-0.258 -4.603,-0.225 -3.768,-2.124 0.346,-0.79 1.309,-0.853 1.669,-1.755 0.217,-0.543 0.23,-0.753 0.542,-1.221 0.496,-0.742 1.217,-1.356 1.89,-1.901 1.217,-0.985 2.084,-1.293 3.523,-1.752 0.47,-0.15 0.967,-0.322 1.473,-0.242 0.478,0.079 1.054,0.253 1.365,0.671 -1.215,0.873 -0.734,3.118 -2.311,3.785 -1.325,0.56 -3.722,-1.159 -4.361,0.733 0.364,-0.229 0.633,-0.618 1.027,-0.742 0.398,-0.125 0.942,0.044 1.356,0.003 0.777,-0.08 1.843,-0.122 2.477,-0.693 0.657,-0.592 0.84,-1.48 1.249,-2.198 0.533,-0.936 1.687,-1.191 2.638,-1.312 1.225,-0.155 2.41,0.064 3.634,-0.241 2.182,-0.546 4.787,-0.74 6.994,-0.207 1.741,0.421 1.867,1.012 2.527,2.629 0.365,0.89 1.049,1.32 1.772,1.75 1.114,0.663 2.447,-0.973 3.521,0.272"
   id="path1161"
   style="fill:#f3d48c;stroke:#967348;stroke-width:0.3218" />
			<path
   d="m 200.725,122.824 c -2.263,0.363 -4.65,1.277 -4.297,4.228 0.106,0.888 0.063,2.057 0.359,2.891 0.457,1.291 3.223,1.917 4.436,2.139 1.034,0.188 2.079,-0.027 3.16,-0.025 1.171,0.002 2.477,0.161 3.541,-0.334 0.508,-0.237 1.707,-0.832 1.977,-1.332 0.356,-0.656 0.363,-2.291 0.497,-3.092 0.117,-0.707 0.435,-1.837 0.207,-2.559 -0.448,-1.423 -2.918,-1.567 -4.125,-1.777 -2.04,-0.351 -3.731,-0.463 -5.755,-0.139 z"
   id="path1163"
   style="fill:#e1e2e3;stroke:#967348;stroke-width:0.2358" />
			<path
   d="m 188.466,128.421 c -0.199,0.144 -0.638,0.485 -0.773,0.688 -0.061,0.09 -0.268,0.828 -0.233,0.807 0.26,-0.159 1.029,-0.513 1.169,0.003 0.098,0.367 -0.719,0.908 -0.957,1.055 0.353,-0.199 1.129,-0.713 1.419,-0.249 0.17,-0.725 1.139,-1.181 1.72,-1.392 0.99,-0.361 2.117,-0.008 3.128,-0.262 0.705,-0.177 1.238,-0.671 1.408,-1.399 0.179,-0.769 0.096,-1.548 0.925,-1.934 0.056,-0.137 0.09,-0.414 0.08,-0.557 -0.338,-0.013 -0.644,0.398 -0.987,0.506 -0.339,0.106 -0.736,0.039 -1.111,0.064 -0.899,0.062 -1.5,0.474 -2.268,1.004 -0.702,0.483 -1.501,0.885 -2.346,1 -0.633,0.086 -1.606,0.33 -1.563,1.083"
   id="path1165"
   style="fill:#ccb25c" />
			<path
   d="m 214.581,128.918 c 1.642,-0.228 3.026,1.018 3.061,2.731 0.071,-0.068 0.162,-0.098 0.228,-0.153 0.331,0.547 0.67,0.785 1.246,0.659 0.571,-0.124 1.344,-0.739 1.399,-1.385 -0.5,0.078 -0.939,0.9 -1.474,0.414 -0.041,0.114 -0.145,0.16 -0.173,0.313 -0.942,0.051 -1.437,-2.028 -1.165,-2.709 0.209,0.071 0.365,0.262 0.441,0.463 -0.056,-0.124 -0.06,-0.272 -0.094,-0.402 0.083,0.041 0.205,0.037 0.271,0.064 -0.017,-0.529 0.476,-1.083 0.708,-1.489 -0.533,-0.559 -1.229,-0.636 -1.948,-0.67 -1,-0.046 -1.264,-0.437 -2.03,-0.976 -0.814,-0.575 -1.794,-0.85 -2.747,-1.019 -2.611,-0.459 -0.809,3.75 0.634,4.316 0.561,0.22 1.088,-0.079 1.643,-0.157 z"
   id="path1167"
   style="fill:#ccb25c" />
			<path
   d="m 196.05,126.92 c 0.069,0.454 -0.031,0.918 -0.54,0.854 0.152,0.058 0.254,0.243 0.372,0.377 -0.041,0.045 -0.091,0.08 -0.133,0.125 0.292,0.25 0.523,0.898 0.013,1.041 0.044,0.014 0.084,0.034 0.123,0.058 -0.195,0.666 -1.076,0.927 -1.65,1.071 -0.482,0.119 -1.463,-0.124 -1.702,0.321 -0.177,-0.136 -0.243,-0.109 -0.443,-0.182 0.146,0.141 0.179,0.344 0.277,0.494 -0.091,-0.001 -0.207,0.036 -0.296,0.03 0.04,0.04 0.101,0.169 0.14,0.214 -0.261,0.133 -0.56,0.263 -0.828,0.357 0.546,-0.026 0.398,0.18 0.616,0.564 0.279,0.022 0.542,-0.104 0.74,-0.319 -0.493,-0.354 0.194,-0.672 0.487,-0.851 -0.038,-0.062 -0.072,-0.167 -0.122,-0.239 0.536,-0.241 1.31,-0.176 1.905,-0.319 -0.248,0.34 -0.66,0.431 -1.005,0.624 0.203,-0.058 0.427,-0.006 0.607,0.12 -0.498,0.514 -1.245,0.619 -1.748,1.113 -0.22,0.216 -0.276,0.543 -0.471,0.74 -0.244,0.247 -0.636,0.308 -0.93,0.465 0.568,0.114 1.328,-0.165 1.839,-0.386 0.006,0.035 -0.005,0.06 -0.034,0.076 0.06,-0.031 0.19,-0.073 0.257,-0.083 -0.129,0.18 -0.122,0.371 -0.202,0.565 0.755,0.236 1.593,-0.255 2.079,-0.896 -0.326,0.123 -0.711,0.084 -1.058,0.062 -0.067,-0.493 0.495,-0.641 0.788,-0.901 0.393,-0.35 0.58,-0.782 0.845,-1.228 0.019,0.034 0.074,0.166 0.091,0.21 0.06,-0.063 0.213,-0.117 0.294,-0.204 0.145,0.214 0.306,0.38 0.544,0.458 -0.404,-0.82 -0.699,-1.073 -0.698,-2.083 0.001,-0.403 0.068,-1.74 -0.156,-1.746"
   id="path1169"
   style="fill:#dcc06d" />
			<path
   d="m 198.552,132.343 c 0.841,0.158 1.593,0.128 2.421,0.184 -0.295,0.188 -1.077,0.228 -1.328,0.561 -0.267,0.354 -0.014,0.713 -0.09,1.148 -0.168,-0.273 -0.401,-0.345 -0.632,-0.527 -0.018,-0.001 -0.095,0.115 -0.12,0.128 -0.009,-0.05 -0.02,-0.098 -0.031,-0.147 -0.793,0.112 -0.238,1.86 -0.628,2.312 -0.512,0.01 -0.404,-0.51 -0.745,-0.811 0.034,-0.114 0.163,-0.361 0.229,-0.506 0.436,0.238 0.873,-0.498 0.926,-0.925 0.059,-0.468 -0.242,-0.938 -0.387,-1.34 0.142,-0.084 0.363,-0.17 0.539,-0.161"
   id="path1171"
   style="fill:#dcc06d" />
			<path
   d="m 202.148,132.676 c -0.137,-0.045 -0.25,-0.018 -0.337,0.079 0.004,0.056 0.015,0.108 0.036,0.16 0.655,0.109 0.975,0.242 0.943,1.098 0.299,-0.368 0.237,-0.755 0.608,-1.005 0.151,-0.101 0.817,-0.274 1.007,-0.236 -0.056,0.466 0.262,0.327 0.48,0.488 0.408,0.299 0.506,0.258 0.608,0.93 0.089,0.595 0.499,2.678 -0.211,2.842 0.286,0.329 0.857,0.073 1.109,-0.236 0.038,0.022 0.098,0.106 0.122,0.128 0,-1.311 -0.928,-2.256 -0.124,-3.487 0.07,-0.009 0.102,0.041 0.139,0.043 0.7,-1.448 0.904,2.151 0.923,2.173 0.344,-0.923 -0.079,-2.063 0.265,-2.966 0.497,0.022 0.917,0.369 0.764,0.822 0.286,0.353 -0.011,1.828 0,2.467 0.369,-0.667 0.177,-1.646 0.617,-2.29 0.224,-0.328 0.518,-0.312 0.635,-0.839 0.136,0.095 0.354,0.096 0.497,0.216 0.026,-0.174 0.002,-0.573 0.109,-0.725 0.207,-0.3 0.567,-0.003 0.642,-0.387 0.279,0.269 1.728,0.03 1.796,-0.429 -0.363,0.023 -0.635,-0.309 -0.333,-0.605 -0.058,-0.01 -0.093,0.02 -0.13,0.059 -0.162,-0.403 -0.444,-0.413 -0.544,-0.883 -0.124,-0.592 0.207,-0.657 0.077,-1.089 -0.13,-0.429 -0.838,-1.516 -1.114,-1.878 -0.364,1.087 0.322,2.605 -0.271,3.551 -0.542,0.866 -2.043,1.083 -2.914,1.264 -1.165,0.241 -2.265,0.343 -3.443,0.419 -0.501,0.032 -2.133,-0.107 -2.333,0.34 0.013,0.119 0.075,0.01 0.143,0.059"
   id="path1173"
   style="fill:#dcc06d" />
			<path
   d="m 214.267,131.425 c 0.343,0.019 0.685,0.018 1.009,-0.098 -0.047,-0.068 -0.056,-0.218 -0.147,-0.302 0.146,-0.041 0.32,-0.032 0.463,-0.004 -0.427,0.475 0.237,0.817 0.565,0.905 -0.199,0.193 -0.785,0.242 -1.034,0.088 -0.318,-0.193 -0.305,-0.738 -0.777,-0.673"
   id="path1175"
   style="fill:#dcc06d" />
			<path
   d="m 188.154,130.674 c -0.624,0.298 -1.54,0.468 -1.871,1.152 0.227,-0.015 0.451,-0.082 0.689,-0.051 -0.304,0.6 1.033,0.768 1.405,0.808 -0.03,-0.87 0.617,-1.453 0.681,-2.245 -0.394,-0.285 -1.585,0.688 -1.92,0.919"
   id="path1177"
   style="fill:#dcc06d" />
		</g>
		<g
   id="g1179">
			<g
   id="g1181">
				<path
   d="m 197.214,127.794 c 0.196,0.842 0.448,1.661 1.189,2.108 0.369,0.223 0.83,0.462 1.251,0.56 0.493,0.114 0.622,-0.082 1.04,-0.089 0.949,-0.015 1.662,0.66 2.528,0.583 0.35,-0.031 0.661,-0.222 1.013,-0.243 0.412,-0.025 0.819,0.177 1.28,0.107 0.458,-0.069 0.696,-0.302 1.12,-0.476 0.478,-0.195 1.062,-0.027 1.521,-0.217 1.879,-0.78 0.617,-3.156 1.807,-4.34 0.764,-0.758 2.085,-0.019 2.929,0.032 0.554,0.034 1.085,-0.024 1.567,0.242 0.437,0.24 0.474,0.562 0.81,0.865 0.574,0.517 1.38,0.085 2.188,0.361 0.813,0.278 2.184,1.695 2.975,0.702 0.487,-0.609 0.246,-2.116 -0.162,-2.705 -0.376,-0.542 -0.774,-0.835 -1.231,-1.133 -0.401,-0.262 -0.964,-0.454 -1.132,-0.975 0.171,0.241 0.418,0.29 0.595,0.397 0.141,-0.351 0.271,-0.7 0.213,-1.079 -0.637,-0.318 -0.655,-1.706 -0.608,-2.354 0.047,-0.647 0.254,-0.945 -0.129,-1.419 -0.237,-0.292 -0.879,-0.593 -1.212,-0.802 -1.182,-0.745 -2.817,-2.543 -4.185,-2.205 -0.486,0.121 -0.887,0.5 -1.354,0.674 -0.448,0.165 -0.917,0.129 -1.346,0.327 0.047,0.057 0.124,0.153 0.181,0.225 -0.115,0.124 -0.173,0.386 -0.286,0.506 2.126,-0.003 1.531,4.076 3.639,4.36 1.165,0.158 1.97,-0.578 2.736,0.665 0.637,1.035 0.753,2.349 0.597,3.529 0.708,-1.539 -0.254,-3.861 -1.852,-4.107 -1.687,-0.259 -2.817,-0.436 -3.463,-2.309 -0.363,-1.055 -0.301,-1.618 -1.359,-1.888 -0.953,-0.242 -1.403,0.114 -2.18,0.768 -1.849,1.556 -4.253,1.452 -6.533,0.979 -1.658,-0.345 -2.891,-1.707 -4.602,-2.089 0.054,-0.03 0.142,-0.058 0.175,-0.081 -0.32,-0.07 -0.618,-0.188 -0.892,-0.375 0.171,0.636 0.085,1.459 -0.056,2.086 -0.983,0.281 -1.014,1.755 -1.86,2.267 -0.911,0.549 -1.651,0.885 -2.421,1.64 -0.745,0.73 -1.881,1.004 -1.955,2.03 -0.071,0.974 0.513,2.067 -0.274,2.88 0.375,-0.639 0.229,-0.859 0.262,-1.546 0.015,-0.281 -0.073,-1.38 -0.002,-1.562 0.188,-0.481 1.141,-1.074 1.473,-1.448 0.843,-0.951 2.115,-2.205 3.422,-2.124 0.059,-1.439 2.065,-2.468 1.56,-3.877 -0.881,-2.449 -4.344,-1.571 -5.2,0.407 0.119,-0.038 0.054,0.004 0.208,0.018 -0.863,0.235 -3.365,-10e-4 -3.45,1.314 -0.853,0.201 -0.242,0.962 -0.183,1.487 0.061,0.532 -0.261,1.052 -0.022,1.53 -0.72,0.693 -0.073,1.404 -0.288,2.147 -0.09,0.31 -0.621,0.54 -0.717,0.91 -0.112,0.445 0.178,0.523 0.142,0.835 -0.074,0.625 -0.808,1.369 -0.584,2.033 0.198,0.581 1.023,0.921 1.566,0.999 0.667,0.095 1.806,0.14 2.398,-0.084 0.819,-0.31 1.349,-1.428 2.212,-1.895 0.803,-0.433 1.552,-0.25 2.377,-0.467 1.124,-0.294 1.619,-1.795 2.221,-0.04 0.146,0.426 0.235,0.894 0.343,1.356 z"
   id="path1183"
   style="fill:#f3d48c;stroke:#967348;stroke-width:0.3218" />
				<path
   d="m 191.106,118.029 c 1.515,-1.068 2.862,0.738 3.945,1.654 0.369,-0.23 0.716,-0.56 0.948,-0.935 0.057,0.836 -0.214,1.607 -0.433,2.394 -0.104,0.368 -0.298,0.243 -0.266,0.659 0.029,0.368 0.397,0.924 0.471,1.31 0.073,-0.42 0.319,-0.526 0.638,-0.306 -0.196,-0.55 -0.439,-1.247 -0.408,-1.863 0.023,-0.476 0.304,-0.895 0.32,-1.357 0.05,-1.524 -0.212,-2.689 -1.67,-2.997 -0.563,-0.118 -3.491,-0.194 -2.814,1.218"
   id="path1185"
   style="fill:#ccb25c" />
				<path
   d="m 189.792,123.192 c 0.075,-0.023 0.183,-0.065 0.253,-0.086 -0.056,1.198 -1.208,2.225 -1.848,3.094 0.619,0.51 -0.517,1.178 -0.81,1.659 0.135,0.015 0.27,0.107 0.373,0.125 -0.12,0.132 -0.232,0.436 -0.369,0.569 0.485,-0.046 0.882,-0.382 1.302,-0.588 -0.344,-0.797 0.585,-1.337 0.829,-2.003 0.308,-0.845 0.229,-1.241 0.852,-1.98 1.058,-1.253 2.441,-2.932 4.155,-2.797 0.237,-0.641 0.618,-1.337 0.005,-1.894 0.007,0.089 0.048,0.16 0.119,0.21 0.058,-0.238 -0.707,-0.951 -1.144,-1.219 -0.53,-0.325 -1.18,-0.409 -1.767,-0.396 0.438,0.753 -0.549,0.918 -1.053,0.981 -0.767,0.097 -1.404,-0.116 -1.577,0.887 -0.031,0.183 1.11,0.793 1.216,1.097 0.204,0.584 -0.266,1.808 -0.536,2.341 z"
   id="path1187"
   style="fill:#dcc06d" />
				<path
   d="m 192.239,118.983 c 0.364,-0.298 -1.113,-0.355 -1.166,-0.347 -0.375,0.064 -1.674,0.193 -1.784,0.703 -0.127,0.593 0.783,0.501 1.054,0.749 0.38,0.349 0.507,1.192 0.444,1.693 0.392,-0.811 0.759,-2.226 1.452,-2.798 z"
   id="path1189"
   style="fill:#ccb25c" />
				<path
   d="m 191.48,124.041 c -0.141,0.384 -0.163,0.775 0.12,1.071 -0.362,-0.378 2.046,-2.691 2.571,-2.628 0.773,0.089 1.147,1.345 2.065,1.576 -0.505,0.295 -1.1,0.464 -1.571,0.846 0.437,-0.139 0.919,-0.391 1.406,-0.295 -0.009,0.106 -0.028,0.118 -0.008,0.207 -0.346,0.285 -0.843,0.388 -1.202,0.614 0.601,-0.066 1.516,-0.529 1.987,-0.068 0.014,0.012 0.188,0.89 0.23,1.005 0.134,0.362 0.278,0.686 0.446,1.02 -0.14,-0.411 -0.493,-2.833 0.466,-2.226 -0.003,0.004 0.136,-0.202 0.121,-0.193 0.576,0.282 1.297,0.647 1.946,0.64 0.014,0.104 0.02,0.203 0.029,0.306 0.835,-0.484 0.569,0.907 0.797,1.347 0.092,-0.373 0.096,-1.406 0.352,-1.646 0.36,-0.34 1.89,-0.324 2.394,-0.427 -0.253,0.514 0.115,0.681 0.51,0.445 0.422,0.51 0.921,0.11 1.156,0.963 0.292,1.049 -0.472,2.528 -0.01,3.58 0.22,-0.576 0.138,-1.528 0.441,-2.122 0.181,-0.355 0.441,-0.293 0.522,-0.722 0.761,0.314 0.699,-1.212 0.832,-1.706 0.047,0.229 0.173,0.463 0.207,0.711 0.073,-0.314 0.234,-0.553 0.48,-0.62 0.083,0.351 0.085,0.881 0.217,1.186 0.26,0.604 0.928,0.651 0.512,1.459 -0.153,0.016 -0.282,0.112 -0.418,0.128 0.296,-0.019 0.254,0.106 0.422,0.187 -0.247,0.388 -0.516,0.769 -0.885,1.039 1.873,-0.745 0.857,-2.519 1.835,-3.906 0.94,-1.334 4.681,-0.757 5.715,-0.123 -1.196,-0.214 -2.31,-0.884 -3.508,-1.115 -0.004,-0.104 0,-0.195 0.002,-0.299 0.58,-0.12 1.056,0.232 1.621,0.213 -0.657,-0.312 -1.331,-0.563 -1.828,-1.09 0.501,-0.517 1.025,0.362 1.565,-0.029 -0.198,-0.079 -0.617,-0.229 -0.809,-0.448 -0.204,-0.236 -0.124,-0.615 -0.251,-0.778 -0.239,-0.306 -0.896,-0.483 -0.433,-0.969 -0.597,-0.745 -1.312,-1.955 -1.42,-2.888 -0.113,0.563 0.104,1.129 0.263,1.667 0.051,0.175 0.565,1.171 0.561,1.194 -0.047,0.271 -0.612,0.63 -0.753,0.862 -0.263,0.431 -0.427,0.887 -0.697,1.307 -0.107,0.163 -1.11,1.009 -1.054,0.838 0.087,-0.263 0.246,-0.516 0.395,-0.737 -0.64,0.123 -1.31,0.646 -1.841,1.046 0.434,0.014 1.432,-0.089 1.188,0.666 -1.453,0.457 -3.513,0.049 -5.036,0.045 -1.599,-0.005 -3.234,-0.143 -4.74,-0.755 0.142,0.035 0.27,0.03 0.417,0.042 -0.349,-0.032 -1.11,-1.074 -1.083,-1.484 -0.923,0.393 -1.556,0.736 -2.643,0.361 -0.038,-0.043 -0.035,-0.046 0.011,-0.005 0.054,0.022 0.077,0.063 0.072,0.119 -0.872,0.554 -1.386,-0.202 -2.058,0.777 -0.484,0.703 -0.761,1.677 -1.268,2.323 -0.066,-0.077 -0.132,-0.119 -0.192,-0.172 -0.032,0.491 -0.513,1.133 -0.66,1.231 0.517,-0.471 1.248,-1.126 1.967,-1.132 -0.814,0.334 -1.479,0.947 -2.226,1.41 -0.622,0.387 -1.247,0.405 -1.854,0.708 0.366,-0.006 0.746,-0.118 1.048,-0.342 -0.287,0.084 -0.588,0.197 -0.875,0.218 0.419,-0.03 1.595,-1.638 1.761,-2.105 0.336,-0.956 -0.036,-1.499 0.673,-2.327 z"
   id="path1191"
   style="fill:#dcc06d" />
				<path
   d="m 198.301,128.93 c 0.097,0.804 0.995,1.154 1.658,1.087 -0.254,-0.286 -0.755,-0.613 -0.934,-1.055 0.045,0.131 0.048,0.267 0.098,0.393 -0.365,-0.084 -1.168,-0.253 -1.136,-0.536"
   id="path1193"
   style="fill:#dcc06d" />
				<path
   d="m 212.271,121.26 c 0.644,0.438 1.706,0.32 2.476,0.439 0.691,0.107 1.299,0.543 1.689,1.196 0.19,0.317 0.169,0.673 0.339,1.004 0.262,0.506 0.48,0.411 0.987,0.722 -0.644,0.28 -0.908,0.854 -0.771,1.532 0.089,0.468 -0.151,0.256 0.326,0.631 0.436,0.34 1.22,0.64 1.725,0.951 0.358,0.22 0.772,0.518 1.143,0.305 0.209,-0.119 0.558,-0.822 0.436,-1.113 -0.175,-0.416 -0.546,-0.297 -0.952,-0.555 -0.272,-0.174 -0.669,-0.718 -0.795,-1.036 0.409,-0.16 0.864,0.528 1.305,0.69 0.079,-1.193 -1.64,-1.374 -1.953,-2.327 0.313,-0.29 0.488,-0.746 0.386,-1.204 -0.954,-0.387 -0.821,-1.72 -0.715,-2.577 0.186,-1.528 -0.644,-1.85 -1.881,-2.42 -0.923,-0.428 -1.945,-0.996 -2.913,-1.118 -2.649,-0.33 -2.438,3.791 -0.832,4.88 z"
   id="path1195"
   style="fill:#dcc06d" />
				<path
   d="m 214.023,121.463 c 0.103,-0.649 0.997,-0.542 1.382,-0.246 -0.194,-1.167 -1.938,-2.525 -3.024,-2.538 0.267,-0.737 0.802,-0.425 1.312,-0.334 -0.083,-0.118 -0.106,-0.296 -0.167,-0.412 0.373,-0.076 0.78,-0.003 1.126,0.166 0.025,-1.094 -1.179,-1.484 -2,-1.573 -0.522,-0.058 -1.085,-0.023 -1.587,0.146 -0.115,0.038 -1.36,0.793 -1.075,0.891 1.32,0.452 1.224,1.332 1.826,2.469 0.128,0.241 2.118,1.989 2.207,1.431 z"
   id="path1197"
   style="fill:#ccb25c" />
			</g>
			<path
   d="m 216.314,120.518 c 0.51,0.107 1.047,-0.164 1.337,-0.542 -0.204,-0.171 0.231,0.301 0.188,0.228 -0.569,1.274 0.598,2.489 0.672,3.721 -0.296,0.091 -0.25,-0.002 -0.503,0.255 -0.164,-0.492 -0.64,-1.076 -1.141,-1.222 0.772,0.061 0.164,-0.57 0.147,-0.884 -0.028,-0.477 0.158,-0.993 -0.205,-1.435 -0.154,0.011 -0.116,0.13 -0.08,0.101"
   id="path1199"
   style="fill:#ccb25c" />
			<path
   d="m 216.834,124.188 c 0.301,1.051 0,2.03 -0.407,2.98 1.032,0.047 2.187,0.12 2.896,1.047 -0.073,-0.475 -0.265,-0.915 -0.491,-1.33 0.096,-0.042 0.175,-0.116 0.284,-0.159 -0.307,-0.495 -0.61,-0.823 -1.021,-1.185 0.3,0.049 0.62,0.164 0.891,0.328 -0.739,-0.497 -1.573,-0.917 -2.235,-1.451 -0.055,0.25 0.071,0.345 0.188,0.547"
   id="path1201"
   style="fill:#ccb25c" />
		</g>
		<path
   d="m 197.845,123.128 c 0.279,0.387 0.619,0.709 1.015,0.922 1.102,0.591 2.452,0.813 3.676,0.811 1.866,-0.002 4.138,0.163 5.709,-1.026 1.436,-1.083 1.482,-1.979 1.587,-3.757 0.027,-0.462 0.204,-0.96 0.104,-1.446 -0.344,-1.68 -2.282,-1.093 -3.378,-1.095 -1.867,-0.002 -3.727,-0.355 -5.594,-0.128 -1.107,0.135 -2.204,0.121 -3.267,0.525 -1.07,0.407 -0.789,0.958 -0.793,2.144 -0.001,1.008 0.321,2.19 0.941,3.05 z"
   id="path1203"
   style="fill:#e1e2e3;stroke:#967348;stroke-width:0.2358" />
		<g
   id="g1205">
			<path
   d="m 197.636,120.521 c -0.133,-0.495 -0.2,-1.307 -0.441,-1.752 -0.711,-1.311 -2.445,-1.233 -3.628,-0.913 -0.579,0.158 -1.157,0.352 -1.562,0.882 -0.477,0.627 -0.278,1.547 -1.274,1.539 -0.712,-0.006 -0.705,-0.548 -1.121,-1.084 -0.223,-0.288 -0.499,-0.562 -0.598,-0.929 -0.206,-0.759 0.24,-0.74 0.461,-1.221 0.565,-1.224 0.327,-2.274 -0.335,-3.307 -0.697,-1.089 -1.194,-2.229 -0.055,-3.224 1.239,-1.079 2.874,-2.459 4.484,-2.78 0.89,-0.177 1.74,0.047 2.37,0.803 0.478,0.575 0.504,1.32 0.994,1.839 0.974,1.035 3.248,0.611 4.431,0.336 2.866,-0.668 5.782,-1.556 8.745,-1.416 -0.815,-0.522 0.467,-1.646 0.947,-1.892 0.907,-0.466 1.169,-0.025 1.8,0.639 0.493,0.516 0.951,0.676 1.485,0.998 0.452,0.275 0.84,0.905 1.309,1.118 0.666,0.299 0.328,0.099 0.966,-0.178 0.772,-0.337 1.013,-0.227 1.058,0.843 0.033,0.743 -0.587,1.226 -0.728,2.025 -0.153,0.868 0.258,1.481 0.522,2.196 0.277,0.745 0.25,1.309 0.305,2.125 1.309,0.568 1.051,2.536 -0.328,2.829 -0.898,0.188 -1.803,-1.564 -2.504,-2.169 -1.092,-0.941 -1.909,-1.393 -3.336,-1.083 -0.776,0.168 -1.93,1.042 -2.114,1.877 -0.286,1.295 0.256,2.488 -0.825,3.599 -0.796,0.817 -2.378,1.159 -3.423,1.311 -1.189,0.172 -2.328,0.449 -3.545,0.109 -1.9,-0.534 -3.446,-0.823 -4.06,-3.12 z"
   id="path1207"
   style="fill:#f3d48c;stroke:#967348;stroke-width:0.3218" />
			<path
   d="m 190.651,117.297 c 0.027,-0.734 0.071,-1.365 0.185,-2.027 0.101,-0.582 0.144,-1.392 0.572,-1.835 0.413,-0.428 1.3,-0.503 1.136,0.398 0.526,-0.069 0.742,0.041 1.258,-0.314 0.489,-0.338 0.725,-1.012 1.42,-0.91 0.042,-0.872 1.038,-1.487 1.667,-0.995 -0.119,-0.43 -0.454,-0.812 -0.606,-1.21 -0.181,-0.473 -0.125,-0.955 -0.392,-1.362 -0.6,-0.923 -1.5,-1.009 -2.426,-0.89 -0.817,0.104 -1.738,0.382 -2.314,1.131 -0.42,0.548 -0.432,0.729 -0.92,1.121 -0.279,0.225 -0.592,0.268 -0.817,0.64 0.603,0.253 -0.176,0.787 -0.141,1.334 0.032,0.486 0.659,0.993 0.882,1.583 0.191,0.499 0.384,1.47 0.288,2.003 -0.13,0.71 -0.792,1.011 -1.136,1.646 0.389,-0.053 0.597,0.255 0.55,0.647 0.572,0.034 0.586,0.771 0.772,1.258 0.07,-0.74 -0.004,-1.48 0.022,-2.218 z"
   id="path1209"
   style="fill:#dcc06d" />
			<path
   d="m 214.111,109.205 c -0.47,-0.364 -0.953,-0.697 -1.547,-0.864 -1.512,-0.429 -2.288,0.56 -2.796,2.012 0.587,0.233 0.736,2.169 1.246,2.9 1.05,1.5 1.93,0.521 3.397,0.733 -0.333,-0.047 -0.96,0.222 -1.234,0.399 1.006,0.476 1.855,0.142 2.517,1.384 0.298,0.558 0.567,1.162 0.738,1.779 0.058,0.206 0.106,1.583 0.156,1.629 -0.968,-0.915 -1.111,-4.395 -3.208,-3.453 0.143,-0.046 0.422,-0.307 0.586,-0.404 -0.605,-0.734 -1.815,-0.333 -2.546,-0.679 -0.201,0.338 -0.145,0.717 0.143,0.99 -0.167,0.083 -0.286,0.296 -0.471,0.36 0.179,0.214 0.486,0.313 0.795,0.417 -1.715,0.631 -2.459,0.851 -2.784,2.892 -0.243,1.521 -0.507,2.993 -2.075,3.434 0.162,-0.562 0.265,-1.165 0.407,-1.734 0.791,2.327 1.442,-0.497 1.461,-1.586 0.004,-0.315 0.104,-0.862 -0.098,-1.101 0.072,0.085 -0.877,-0.123 -0.842,-0.131 -1.026,0.253 -0.109,0.96 -0.706,1.445 -0.128,-0.741 -0.467,-1.058 -1.146,-1.095 -0.493,0.641 -0.103,1.724 -0.712,2.19 -0.077,-0.46 -0.181,-2.481 -0.536,-2.676 -0.774,-0.426 -0.952,1.658 -1.363,1.998 -0.18,-0.433 -0.339,-0.922 -0.354,-1.403 -0.051,0.064 -0.218,0.153 -0.271,0.206 -0.308,-1.43 -1.163,0.956 -1.278,1 -0.322,-0.493 -0.109,-1.358 -0.435,-1.754 -0.292,-0.356 -0.665,-0.334 -0.724,0.194 -0.66,-0.557 -1.697,-0.291 -1.672,0.779 -0.125,-0.106 -0.347,-0.105 -0.478,-0.195 -0.305,0.409 -0.18,1.034 -0.312,1.424 -0.04,-0.658 -0.211,-1.591 -0.41,-2.218 -0.124,-0.393 -0.252,-0.585 -0.343,-1.001 -0.069,-0.316 -0.019,-0.69 -0.086,-0.99 0.385,0.304 0.948,0.723 1.146,1.192 0.744,0.035 2.132,0.355 2.696,0.757 0.041,-0.106 0.174,-0.235 0.203,-0.306 1.116,0.791 2.816,0.186 4.064,0.12 0.838,-0.045 1.625,0.111 2.476,-0.242 1.399,-0.58 0.244,-0.543 -0.569,-0.752 0.734,-0.367 1.606,-0.377 2.237,-0.967 0.875,-0.814 0.619,-2.299 1.463,-3.135 0.943,-0.933 1.423,0.424 2.425,0.655 0.683,0.156 1.427,-0.576 2.063,-0.202 0.621,0.368 0.804,1.787 0.913,2.432 0.104,0.631 0.162,1.308 0.431,1.891 0.22,0.476 1.049,0.882 1.167,1.201 -0.142,-0.385 -0.05,-0.557 0.309,-0.441 -0.516,-1.357 -0.693,-2.751 -1.233,-4.106 -0.336,-0.85 -0.274,-1.01 0.13,-1.749 0.331,-0.603 0.576,-1.213 0.267,-1.902 -0.623,-0.111 -0.975,0.115 -1.54,-0.155 -0.62,-0.298 -1.133,-0.754 -1.667,-1.172 z"
   id="path1211"
   style="fill:#dcc06d" />
			<path
   d="m 192.111,114.739 c -0.951,0.77 -0.017,1.198 -0.069,1.922 -0.004,0.058 -0.402,0.488 -0.457,0.635 -0.11,0.302 -0.121,0.753 -0.024,1.059 0.319,-0.548 0.542,-1.227 1.264,-1.073 -0.093,-1.083 0.594,-1.683 1.123,-2.53 -0.855,0.7 -1.968,1.487 -2.15,-0.123"
   id="path1213"
   style="fill:#dcc06d" />
			<path
   d="m 195.54,112.381 c -0.857,0.039 -1.396,0.9 -2.176,1.003 -0.622,0.083 -0.754,-0.447 -1.255,-0.548 -0.26,-0.051 -0.759,0.392 -0.915,0.557 0.03,-0.822 -0.396,-1.012 -1.045,-0.898 -0.469,-1.148 -0.16,-1.527 1.018,-1.757 0.465,-0.092 1.123,-0.265 1.574,-0.002 0.444,0.256 0.558,0.885 1.027,1.102 -0.526,-1.351 -1.229,-1.045 -2.386,-1.214 -1.249,-0.182 -0.386,-1.087 0.336,-1.638 0.793,-0.606 1.874,-0.926 2.794,-0.479 0.485,0.237 1.87,1.445 1.395,2.003 0.232,0.289 0.478,0.546 0.755,0.787 -0.527,-0.056 -1.503,0.403 -1.122,1.084 z"
   id="path1215"
   style="fill:#ccb25c" />
			<path
   d="m 195.341,114.071 c 0.301,0.187 0.692,0.267 1.029,0.323 -0.094,-0.313 -0.072,-0.583 0.124,-0.841 0.017,0.609 0.183,1.211 0.373,1.755 -0.262,-0.096 -0.479,-0.1 -0.761,-0.03 0.149,-0.143 0.167,-0.377 0.268,-0.517 -0.289,-0.226 -0.708,-0.27 -0.999,-0.348 0.081,-0.102 0.113,-0.242 0.175,-0.342"
   id="path1217"
   style="fill:#ccb25c" />
			<path
   d="m 209.312,116.296 c -0.283,0.173 -0.623,0.239 -0.902,0.335 0.292,0.042 0.377,0.142 0.685,0.017 -0.073,0.068 -0.194,0.237 -0.294,0.319 -0.005,0.453 0.166,1.078 0.222,1.635 0.39,-1.151 0.569,-1.749 1.717,-2.196 -0.181,0.054 -0.405,-0.027 -0.583,-0.015 -0.104,-0.515 0.273,-0.874 0.205,-1.396 -0.424,0.582 -0.718,1.18 -1.362,1.524"
   id="path1219"
   style="fill:#ccb25c" />
			<path
   d="m 215.254,110.401 c 0.471,0.449 1.111,0.593 1.553,1.084 0.098,-0.182 0.222,-0.523 0.284,-0.731 -0.505,-0.33 -0.68,0.235 -1.103,0.211 -1.017,-0.059 -1.322,-1.001 -1.862,-1.665 -0.552,-0.678 -1.448,-1.071 -2.335,-1.034 -0.913,0.038 -2.341,1.48 -1.776,2.5 0.271,0.49 0.849,0.769 1.087,1.287 0.788,-0.195 1.067,0.769 1.647,1.049 0.832,0.401 1.772,-0.407 2.57,-0.065 0,0.046 -0.042,0.182 -0.049,0.234 1.19,0.328 1.054,3.136 1.662,4.217 -0.049,-0.434 -0.213,-0.857 -0.199,-1.289 0.094,0.026 0.177,0.048 0.278,0.085 -0.379,-0.864 -0.804,-1.89 -0.8,-2.861 0.531,-0.215 0.156,-0.992 0.725,-1.354 -0.501,-0.931 -2.958,-1.789 -3.86,-1.306 0.056,0.102 0.049,0.2 0.081,0.292 -0.55,-0.248 -0.854,0.523 -0.629,0.975 -0.482,-1.104 0.508,-1.962 1.474,-1.681 0.312,-0.028 0.697,0.134 1.032,0.145 -0.096,-0.503 -0.418,-0.955 -0.844,-1.316"
   id="path1221"
   style="fill:#ccb25c" />
		</g>
	</g>
	<g
   id="g1223">
		<path
   d="m 209.502,111.546 c -0.445,-2.048 -3.969,-1.743 -5.542,-1.649 -1.959,0.117 -4.151,-0.032 -6.012,0.739 -1.898,0.786 -1.07,1.89 -0.62,3.545 0.485,1.782 0.957,2.253 2.668,2.994 1.911,0.828 4.377,0.918 6.337,0.21 1.051,-0.381 2.03,-0.937 2.527,-2.043 0.324,-0.725 0.749,-2.921 0.674,-3.592 -0.006,-0.07 -0.017,-0.138 -0.032,-0.204 z"
   id="path1225"
   style="fill:#e1e2e3;stroke:#967348;stroke-width:0.2358" />
		<path
   d="m 202.815,116.169 c -1.29,0.203 -4.14,0.014 -4.812,-1.539 -0.364,-0.843 -0.093,-1.764 -0.539,-2.595 -0.515,-0.96 -1.847,-2.794 -2.929,-3.207 -2.07,-0.791 -3.208,1.044 -4.894,1.798 -1.904,0.852 -3.078,-2.492 -0.767,-2.49 0.11,-0.596 0.312,-1.168 0.37,-1.802 0.088,-0.944 -0.451,-1.339 -0.471,-2.049 -0.048,-1.65 2.712,-3.563 3.875,-4.296 0.888,-0.561 2.383,-1.565 3.437,-1.677 0.931,-0.097 1.367,0.339 2.23,0.885 0.768,0.485 1.5,1.102 2.452,1.134 1.362,0.043 3.028,-0.932 4.244,-1.509 2.21,-1.047 4.03,-1.179 6.246,-0.176 0.721,0.326 1.651,0.595 2.342,1.047 0.698,0.458 0.964,1.012 1.606,1.584 0.535,0.479 1.415,0.589 1.649,1.381 0.186,0.626 -0.46,1.292 -0.627,1.961 -0.422,1.687 0.416,1.95 1.246,3.082 0.83,1.132 0.702,3.739 -1.173,3.424 -1.843,-0.311 -2.489,-2.755 -4.727,-2.464 -4.146,0.54 -1.25,7.233 -5.613,7.041 0.028,0.131 0.09,0.165 0.126,0.305 -0.667,0.525 -1.148,0.092 -1.865,0.036 -0.632,-0.05 -0.736,0.02 -1.406,0.126 z"
   id="path1227"
   style="fill:#f3d48c;stroke:#967348;stroke-width:0.3218" />
		<path
   d="m 195.415,103.6 c 1.688,-0.302 1.94,-2.841 0.631,-3.699 -1.787,-1.169 -3.031,0.439 -4.408,1.449 -1.093,0.802 -2.523,1.108 -2.456,2.83 0.034,0.86 0.363,1.609 0.291,2.534 -0.081,1.021 -0.653,0.917 -0.931,1.769 0.096,-0.034 0.198,-0.053 0.295,-0.084 -0.152,0.283 -0.958,1.355 -0.281,1.635 0.359,0.149 0.845,-1.336 1.102,-1.606 0.287,0.384 0.063,1.01 -0.175,1.384 1.753,-0.187 0.939,-3.121 2.786,-3.561 0.047,-0.226 0.162,-0.292 0.227,-0.45 0.137,0.208 0.298,0.461 0.313,0.762 0.432,-0.93 0.029,-1.29 1.04,-1.765 0.765,-0.36 1.335,-0.948 2.087,-1.311"
   id="path1229"
   style="fill:#dcc06d" />
		<path
   d="m 200.731,111.197 c -0.012,0.358 0.127,0.675 0.396,0.852 0.172,-0.616 -0.02,-1.322 0.292,-1.877 -0.049,0.033 -0.104,0.111 -0.142,0.173 -0.233,-0.061 -0.127,-0.157 -0.421,-0.112 -0.188,-0.352 -0.219,-0.803 0.058,-1.06 0.058,0.068 0.196,0.269 0.221,0.308 -0.404,-0.651 -1.533,-0.54 -2.123,-0.862 -0.587,-0.323 -1.42,-1.094 -1.645,-1.764 -0.535,1.016 -1.498,0.813 -2.456,0.73 -0.143,-0.195 -0.273,-0.528 -0.318,-0.743 0.292,-0.021 0.555,-0.093 0.804,-0.223 -0.227,0.302 -0.124,0.32 -0.061,0.635 1.386,-0.286 1.159,-1.253 1.24,-2.531 0.094,0.034 0.194,0.056 0.29,0.086 -0.179,-0.25 -0.228,-0.44 -0.326,-0.754 -0.597,0.268 -1.098,0.55 -1.616,0.996 0.08,0.021 0.178,0.054 0.251,0.074 -0.475,0.338 -1.136,0.489 -1.536,0.855 -0.508,0.465 -0.588,1.162 -1.124,1.587 -0.042,-0.095 -0.105,-0.192 -0.151,-0.291 -0.375,0.36 -0.793,0.808 -0.978,1.344 0.218,-0.201 0.493,-0.323 0.761,-0.336 -0.1,0.128 -0.152,0.295 -0.242,0.419 0.875,-0.345 1.992,-0.849 2.89,-0.467 0.188,0.081 0.026,0.34 0.22,0.453 0.238,0.141 0.577,0.154 0.835,0.27 0.655,0.291 1.17,0.684 1.535,1.297 -0.15,0.001 -0.278,0.101 -0.377,0.119 0.603,0.906 0.914,1.845 1.406,2.78 -0.028,-0.492 0.292,-0.812 0.744,-0.792 -0.542,-0.519 -0.903,-0.775 -1.144,-1.51 -0.267,-0.819 -0.657,-1.251 -1.343,-1.877 0.276,0.258 0.627,0.414 0.996,0.414 -0.066,-0.091 -0.114,-0.201 -0.179,-0.297 0.537,0.536 1.751,0.91 2.483,0.862 -0.096,0.093 -0.162,0.231 -0.25,0.322 1.463,0.695 -0.458,2.213 -0.221,3.099 -0.076,-0.286 1.317,-1.384 1.231,-2.179 z"
   id="path1231"
   style="fill:#dcc06d" />
		<path
   d="m 201.67,109.162 c 0.185,0.067 0.514,0.342 0.69,0.438 -0.062,0.085 -0.111,0.251 -0.16,0.334 0.33,0.29 0.642,0.651 0.742,1.11 0.173,-0.25 0.175,-0.633 0.365,-0.908 0.201,-0.292 0.51,-0.295 0.678,-0.628 0.384,0.124 0.509,-0.397 0.695,-0.769 -0.559,0.018 -1.098,0.286 -1.662,0.313 -0.448,0.023 -0.832,-0.266 -1.246,-0.002"
   id="path1233"
   style="fill:#dcc06d" />
		<path
   d="m 206.996,108.566 c -0.864,0.382 -1.714,0.599 -1.858,0.201 0.314,0.864 0.256,1.706 0.203,2.61 0.066,-0.112 0.286,-0.271 0.373,-0.405 0.051,0.181 0.051,0.69 0.147,0.836 0.141,0.216 0.446,0.205 0.583,0.465 0.26,0.492 0.333,1.043 0.102,1.546 -0.072,0.018 -0.091,-0.073 -0.164,-0.087 -0.021,0.631 -1.724,1.134 -2.287,1.118 0.248,0.558 1.628,0.512 2.086,0.462 2.545,-0.28 2.031,-3.417 2.967,-5.151 0.32,-0.592 0.877,-1.377 1.465,-1.699 0.352,-0.192 0.698,-0.074 1.043,-0.213 0.265,-0.105 0.54,-0.488 0.828,-0.624 -0.329,0.029 -0.482,-0.073 -0.689,-0.219 1.563,-0.837 1.854,0.87 2.662,1.857 -0.58,-0.722 -0.545,-1.846 -0.605,-2.753 -1.086,-0.403 -2.159,-0.508 -2.907,-1.648 -0.011,0.079 -0.013,0.203 -0.011,0.281 -0.629,-0.161 -1.25,-1.067 -1.548,-1.727 -0.785,1.388 -0.026,2.915 -1.324,3.975 0.254,-0.077 0.533,-0.116 0.785,-0.216 0.013,0.032 0.092,0.158 0.107,0.175 -0.156,0.251 -1.064,0.822 -1.958,1.216 z"
   id="path1235"
   style="fill:#dcc06d" />
		<path
   d="m 212.512,105.182 c 0.448,0.214 0.88,0.439 1.277,0.703 0.199,0.131 0.303,0.365 0.491,0.505 0.149,0.109 0.497,-0.025 0.661,0.18 0.527,0.66 0.119,2.387 0.403,3.242 1.053,-0.417 0.578,1.259 1.646,0.661 0.697,-0.391 0.889,-2.267 -0.079,-1.773 -0.036,-0.041 -0.072,-0.079 -0.111,-0.118 0.028,-0.104 0.047,-0.214 0.081,-0.317 -0.633,-0.188 -1.182,0.207 -1.339,-0.869 0.298,0.018 0.602,0.13 0.898,0.214 -1.395,-0.538 -0.508,-2.517 -0.254,-3.43 0.182,-0.652 0.182,-0.995 -0.256,-1.552 -0.571,-0.727 -1.476,-1.688 -2.162,-2.263 -0.395,-0.329 -1.096,-0.726 -1.568,-0.913 -0.538,-0.211 -1.522,-0.648 -2.083,-0.642 -0.768,0.01 -1.418,0.826 -1.591,1.562 -0.205,0.868 0.251,1.605 -0.083,2.475 0.406,-0.063 0.813,-0.259 1.186,-0.029 0.489,0.299 0.543,1.026 1.013,1.354 0.245,0.168 0.544,0.095 0.802,0.225 0.383,0.195 0.673,0.595 1.068,0.785 z"
   id="path1237"
   style="fill:#dcc06d" />
		<path
   d="m 190.098,103.933 c -0.001,0.194 0.114,0.449 0.126,0.656 0.346,-0.163 0.618,0.13 0.685,0.448 0.253,-1.34 0.752,-0.765 1.573,-0.75 -0.02,0.365 -0.105,0.745 -0.383,0.971 -0.065,-0.086 0.007,-0.199 -0.015,-0.29 -0.065,0.126 -0.138,0.266 -0.177,0.403 0.134,-0.149 0.412,-0.257 0.572,-0.397 0.01,0.12 0.039,0.277 0.035,0.397 0.305,-0.246 0.348,-0.719 0.63,-1.062 0.697,-0.031 1.806,-0.417 2.455,-0.959 0.386,-0.322 1.539,-1.891 0.271,-1.768 0.377,-0.576 -0.219,-1.504 -0.768,-1.742 -0.762,-0.328 -1.563,0.435 -2.086,0.861 -0.604,0.494 -1.112,1.064 -1.777,1.451 -0.521,0.304 -1.081,0.641 -1.438,1.431 0.131,-0.057 0.266,-0.04 0.387,-0.078 0.019,0.217 0.003,0.468 -0.09,0.651"
   id="path1239"
   style="fill:#ccb25c" />
		<path
   d="m 214.041,101.73 c -0.983,-0.838 -1.937,-2.213 -3.28,-2.394 -0.605,-0.081 -0.857,0.024 -1.224,0.582 -0.058,0.091 -0.506,1.252 -0.448,1.264 0.049,0.011 0.098,0.018 0.147,0.02 -0.008,0.067 -0.023,0.585 0.064,0.599 0.674,0.109 0.924,1.102 1.252,1.679 0.068,-0.102 0.412,-0.318 0.478,-0.428 0.216,1.203 1.933,1.057 2.342,2.207 0.085,-0.045 0.066,-0.086 0.1,-0.198 0.062,-0.003 0.12,0.014 0.168,0.052 -0.032,-0.707 0.615,-0.867 1.135,-0.629 -0.145,0.062 -0.284,0.261 -0.377,0.314 0.252,0.068 0.45,0.225 0.71,0.269 -0.179,0.443 0.021,1.015 0.032,1.526 0.262,-0.292 0.614,-2.449 0.608,-2.994 -0.016,-1.075 -0.967,-1.238 -1.707,-1.869 z"
   id="path1241"
   style="fill:#ccb25c" />
		<path
   d="m 209.161,106.953 c 0.19,-0.016 -0.198,0.899 -0.243,0.961 -0.203,0.295 -0.563,0.458 -0.862,0.609 -0.557,0.279 -1.512,0.382 -1.785,1.089 -0.115,0.304 0.168,0.7 0.087,0.967 0.126,-0.415 0.352,-0.75 0.439,-1.184 0.35,0.06 0.371,0.074 0.7,-0.114 -0.18,0.439 -0.375,0.932 -0.282,1.429 0.227,-0.258 0.463,-0.726 0.689,-0.982 0.145,1.181 -0.265,2.382 -0.277,3.524 0.747,-0.942 0.834,-2.469 1.425,-3.537 0.479,-0.865 0.975,-1.269 1.887,-1.58 -0.312,-0.442 -0.872,-0.713 -0.383,-1.296 0.403,0.437 0.934,0.005 1.426,-0.15 -0.915,-0.651 -1.561,-1.521 -2.583,-2.08 0.023,0.795 -0.433,1.565 -0.632,2.311 0.121,-0.01 0.275,0.044 0.394,0.033 z"
   id="path1243"
   style="fill:#ccb25c" />
		<path
   d="m 198.106,108.705 c -0.081,-0.662 -0.658,-1.136 -1.248,-0.956 0.105,0.363 1.264,1.077 1.248,0.956 z"
   id="path1245"
   style="fill:#ccb25c" />
		<path
   d="m 215.431,107.716 c 0.092,0.53 0.495,0.677 0.928,0.574 0.007,0.063 0.015,0.124 0.028,0.185 0.13,0.013 0.263,0.011 0.39,0.043 -0.236,0.143 -0.52,0.199 -0.731,0.42 0.066,0.044 0.198,0.184 0.291,0.25 -0.361,0.354 -0.073,0.994 0.07,1.295 -0.288,-0.569 -0.791,-0.825 -0.975,-1.322 -0.13,-0.358 -0.162,-1.178 -0.189,-1.549 0.124,0.222 0.35,0.433 0.606,0.547"
   id="path1247"
   style="fill:#ccb25c" />
		<path
   d="m 194.268,105.936 c -0.876,0.641 -1.176,1.636 -0.041,1.552 -0.04,0.066 -0.066,0.126 -0.082,0.21 -0.691,0.113 -1.285,0.701 -1.953,0.669 0.57,-0.929 0.974,-2.271 1.972,-2.653"
   id="path1249"
   style="fill:#ccb25c" />
	</g>
	<path
   d="m 199.763,100.48 c -2.704,0.167 -2.497,2.164 -2.369,4.454 0.062,1.095 0.371,1.617 1.357,2.312 1.88,1.327 4.621,0.975 6.805,0.804 2.445,-0.191 2.841,-3.106 3.104,-5.258 0.066,-0.538 0.241,-1.082 -0.109,-1.529 -0.731,-0.945 -2.995,-0.719 -3.987,-0.773 -1.61,-0.091 -3.19,-0.109 -4.801,-0.01 z"
   id="path1251"
   style="fill:#e1e2e3;stroke:#967348;stroke-width:0.2358" />
	<path
   d="m 189.78,103.272 c 1.15,-0.28 1.588,-1.163 2.533,-1.87 0.783,-0.585 1.684,-1.036 2.69,-0.917 1.264,0.148 1.267,1.165 1.576,2.319 1.692,-0.156 1.083,2.461 2.263,3.27 0.893,0.612 2.216,0.705 3.216,0.887 1.162,0.212 2.359,0.633 3.492,0.229 1.633,-0.581 1.949,-2.076 2.576,-3.566 0.828,-1.974 1.719,-3.607 3.763,-3.87 0.763,0.977 1.145,1.843 2.186,2.622 0.315,0.238 0.693,0.642 1.066,0.756 0.45,0.139 0.979,-0.083 1.437,0.047 0.732,0.21 1.647,1.477 2.421,1.227 1.088,-0.349 0.493,-2.428 -0.019,-3.04 -0.948,-1.131 -4.095,-1.12 -3.526,-3.417 0.088,-0.362 0.531,-0.552 0.375,-1.029 -0.104,-0.315 -0.866,-0.716 -1.124,-0.91 -1.551,-1.163 -3.348,-2.078 -5.14,-2.672 -1.045,-0.347 -2.066,-0.286 -2.757,-1.195 -0.956,-1.252 -2.083,-1.532 -3.667,-1.811 -1.946,-0.342 -3.359,-0.798 -4.368,1.117 -0.815,1.545 -1.102,2.55 -2.624,3.45 -1.414,0.837 -3.051,1.46 -4.592,1.913 -0.448,0.131 -0.928,0.169 -1.276,0.536 -0.346,0.36 -0.293,0.835 -0.52,1.358 -0.332,0.769 -0.834,1.529 -1.436,2.114 -0.61,0.593 -1.746,1.066 -2.194,1.779 -0.345,0.55 -0.349,1.921 0.347,2.205 0.597,0.244 0.944,-0.336 1.356,-0.664 0.63,-0.5 1.166,-0.677 1.946,-0.868 z"
   id="path1253"
   style="fill:#f3d48c;stroke:#967348;stroke-width:0.3218" />
	<path
   d="m 196.457,100.375 c 0.021,0.446 0.121,0.884 0.121,1.326 0.971,-0.585 2.058,1.833 2.359,2.517 0.096,-0.549 0.038,-1.645 -0.067,-2.138 0.074,0.088 0.226,0.217 0.276,0.286 -0.069,-0.205 -0.047,-0.458 -0.179,-0.672 0.301,0.045 0.686,0.321 1.016,0.453 -0.178,-0.981 -0.628,-1.903 -0.687,-2.995 -0.063,-1.156 -0.104,-2.522 0.142,-3.652 -0.307,1.187 -0.374,2.635 -1.106,3.635 -0.546,0.746 -0.731,0.552 -1.447,0.254 0.051,0.11 0.055,0.294 0.08,0.387 -0.432,0.02 -0.9,0.055 -1.333,-0.045 0.343,0.179 1.136,0.728 1.034,1.09"
   id="path1255"
   style="fill:#dcc06d" />
	<path
   d="m 187.074,103.822 c 0.709,-0.329 2.217,-1.724 2.995,-1.235 0.856,-1.3 2.515,-2.263 3.875,-2.788 -0.467,-1.044 2.039,-1.844 2.503,-2.522 -1.02,0.283 -2.102,1.461 -3.087,1.981 -1.048,0.554 -2.512,0.83 -3.448,1.588 -0.475,0.385 -0.704,1.045 -1.162,1.53 -0.723,0.764 -1.631,1.283 -2.299,2.114"
   id="path1257"
   style="fill:#dcc06d" />
</g></g></svg>
