<?xml version="1.0" encoding="UTF-8" standalone="no"?>
<!-- Generator: Adobe Illustrator 12.0.0, SVG Export Plug-In . SVG Version: 6.00 Build 51448)  -->

<svg
   version="1.0"
   id="Layer_1"
   width="297.60214"
   height="326.88553"
   viewBox="0 0 297.60213 326.88552"
   overflow="visible"
   enable-background="new 0 0 435.687 841.89"
   xml:space="preserve"
   sodipodi:version="0.32"
   inkscape:version="1.4.2 (f4327f4, 2025-05-13)"
   sodipodi:docname="upper_bones_vertebrae_lumbales.svg"
   inkscape:output_extension="org.inkscape.output.svg.inkscape"
   style="display:inline;overflow:visible"
   xmlns:inkscape="http://www.inkscape.org/namespaces/inkscape"
   xmlns:sodipodi="http://sodipodi.sourceforge.net/DTD/sodipodi-0.dtd"
   xmlns="http://www.w3.org/2000/svg"
   xmlns:svg="http://www.w3.org/2000/svg"
   xmlns:rdf="http://www.w3.org/1999/02/22-rdf-syntax-ns#"
   xmlns:cc="http://creativecommons.org/ns#"
   xmlns:dc="http://purl.org/dc/elements/1.1/"><metadata
   id="metadata3098"><rdf:RDF><cc:Work
       rdf:about=""><dc:format>image/svg+xml</dc:format><dc:type
         rdf:resource="http://purl.org/dc/dcmitype/StillImage" /></cc:Work><cc:Work
       rdf:about=""><dc:format>image/svg+xml</dc:format><dc:type
         rdf:resource="http://purl.org/dc/dcmitype/StillImage" /></cc:Work></rdf:RDF></metadata><defs
   id="defs3096"><inkscape:perspective
   sodipodi:type="inkscape:persp3d"
   inkscape:vp_x="0 : -94.059466 : 1"
   inkscape:vp_y="0 : 999.99999 : 0"
   inkscape:vp_z="435.687 : -94.059466 : 1"
   inkscape:persp3d-origin="217.84351 : -234.37448 : 1"
   id="perspective3100" />
		
		
		
		
	
		
		
	
		
		
		
		
		
	
	
	

		
		
		
	
			
			
		
				
				
				
				
				
			
	
	
</defs>
<sodipodi:namedview
   inkscape:window-height="1369"
   inkscape:window-width="2560"
   inkscape:pageshadow="2"
   inkscape:pageopacity="0.0"
   guidetolerance="10.0"
   gridtolerance="10.0"
   objecttolerance="10.0"
   borderopacity="1.0"
   bordercolor="#666666"
   pagecolor="#ffffff"
   id="base"
   showgrid="false"
   inkscape:zoom="1.9049022"
   inkscape:cx="120.74111"
   inkscape:cy="219.17136"
   inkscape:window-x="-8"
   inkscape:window-y="-8"
   inkscape:current-layer="layer3"
   showguides="true"
   inkscape:guide-bbox="true"
   inkscape:showpageshadow="2"
   inkscape:pagecheckerboard="0"
   inkscape:deskcolor="#d1d1d1"
   inkscape:window-maximized="1" />
<g
   inkscape:groupmode="layer"
   id="layer3"
   inkscape:label="Skeleton"
   style="display:inline"
   transform="translate(-63.538848,-89.863482)"><g
     id="LumbarVertebrae"
     inkscape:label="Lumbar Vertebrae (L I - L V)"><path
       d="m 200.247,347.717 c -1.559,0.416 -3.021,1.141 -4.604,1.473 -0.821,0.172 -2.16,-0.041 -2.897,0.339 -2.302,1.184 -0.482,4.262 0.757,5.493 1.783,1.771 4.615,1.893 7.032,1.974 2.767,0.093 5.792,0.19 8.383,-0.942 3.268,-1.428 4.771,-5.348 1.538,-7.393 -3.142,-1.986 -6.703,-1.878 -10.209,-0.944 z"
       id="path631"
       style="fill:#e1e2e3;stroke:#967348;stroke-width:0.2358" /><g
       id="g641">
			<g
   id="g643">
				<path
   style="fill:#e1e2e3;stroke:#967348;stroke-width:0.2358"
   id="path645"
   d="m 209.397,317.114 c -2.617,0.967 -5.458,0.83 -8.196,1.097 -1.845,0.179 -3.816,0.376 -5.608,-0.234 -0.947,-0.324 -2.861,-1.229 -3.151,-2.27 -0.252,-0.905 0.009,-1.824 0.156,-2.722 0.11,-0.677 -0.193,-1.91 0.302,-2.363 0.98,-0.897 2.896,0.616 3.874,0.866 1.741,0.447 3.306,0.734 5.127,0.617 1.595,-0.102 3.142,-0.513 4.665,-0.973 1.438,-0.436 4.791,-1.934 5.341,0.155 0.179,0.681 0.045,1.468 0.25,2.165 0.113,0.379 0.431,0.725 0.358,1.073 -0.111,0.521 -0.977,1.025 -1.344,1.418 -0.503,0.539 -0.996,0.87 -1.687,1.139 -0.031,0.011 -0.059,0.022 -0.087,0.032 z" />
				<g
   id="g647">
					<path
   style="fill:#e1e2e3;stroke:#967348;stroke-width:0.2358"
   id="path649"
   d="m 212.966,340.013 c 0.01,0.652 -0.018,1.215 -0.465,1.855 -0.621,0.884 -1.643,1.397 -2.638,1.737 -2.125,0.726 -4.468,0.806 -6.695,0.787 -2.213,-0.019 -4.423,0.192 -6.628,-0.121 -1.134,-0.161 -2.162,-0.46 -3.144,-1.051 -1.369,-0.825 -1.513,-1.716 -1.203,-3.237 0.112,-0.552 0.127,-0.864 0.075,-1.41 -0.179,-1.857 1.661,-0.398 1.573,-0.194 0.227,-0.007 0.453,-0.009 0.68,-0.006 -0.268,0 -0.535,0 -0.803,0 -0.204,0 0.605,0.001 0.749,0.001 0.568,-0.048 1.862,0.203 2.688,0.267 2.899,0.225 5.654,0.449 8.483,-0.208 1.533,-0.356 3.043,-1.024 4.63,-1.116 0.475,-0.028 1.039,0.109 1.495,0.042 0.519,-0.073 0.962,-0.531 1.517,-0.399 0.348,0.621 -0.311,1.646 -0.322,2.332 -0.003,0.256 0.003,0.494 0.008,0.721 z" />
					<path
   style="fill:#e1e2e3;stroke:#967348;stroke-width:0.2358"
   id="path651"
   d="m 212.804,324.189 c 0.021,-0.23 0.004,-0.436 -0.092,-0.562 -0.235,-0.308 -0.192,-0.05 -0.46,-0.146 -0.222,-0.08 -0.563,-0.121 -0.879,-0.27 -1.341,-0.63 -3,-0.514 -4.434,-0.395 -2.997,0.251 -6.424,1.544 -9.424,1.044 -0.934,-0.155 -2.574,-1.054 -3.418,-0.989 -1.87,0.145 -1.585,1.792 -1.631,3.165 -0.025,0.78 -0.441,1.29 -0.12,2.04 0.293,0.687 0.912,1.252 1.522,1.655 3.785,2.501 10.682,1.674 14.719,0.848 1.165,-0.238 3.494,-0.81 4.029,-2.189 0.396,-1.028 -0.047,-2.047 0.004,-3.087 0.013,-0.25 0.151,-0.718 0.184,-1.114 z" />
					<path
   style="fill:#f3d48c;stroke:#967348;stroke-width:0.3218"
   id="path653"
   d="m 195.918,354.146 c -2.126,-0.606 -4.712,-1.699 -4.775,-3.257 -0.012,-0.278 0.245,-0.756 0.318,-1.002 0.28,-0.924 0.49,-2.009 0.473,-2.992 -0.568,1.937 -2.624,1.172 -4.036,0.605 -1.604,-0.646 -2.986,-1.834 -4.056,-3.124 -0.48,-0.58 -0.649,-0.787 -1.375,-1.009 -0.47,-0.145 -1.037,-0.016 -1.351,-0.534 -0.629,-1.034 0.905,-1.183 1.519,-1.639 0.699,-0.521 1.318,-1.558 2.277,-1.719 1.077,-0.183 1.937,0.965 2.678,1.578 0.958,0.792 1.987,1.291 3.087,1.852 1.179,0.601 0.83,1.355 1.354,2.536 -0.344,-0.692 -1.683,-4.229 0.063,-4.101 -0.223,-0.017 0.642,0.823 0.753,0.875 0.764,0.357 1.891,0.616 2.72,0.831 1.493,0.385 3.252,0.417 4.79,0.443 3.507,0.058 7.018,0.048 10.345,-1.249 0.542,-0.21 1.241,-0.45 1.63,-0.891 0.471,-0.534 1.218,-1.7 1.555,-0.243 0.173,0.738 -0.369,1.934 -0.687,2.593 0.422,-0.879 0.41,-0.916 1.214,-1.305 0.71,-0.343 1.132,-0.4 1.712,-1.068 1.188,-1.37 2.18,-3.166 4.195,-2.95 1.245,0.133 2.3,0.222 2.266,1.615 -0.07,2.831 -2.191,4.372 -4.419,5.863 -0.953,0.64 -1.646,1.233 -2.815,1.375 -0.93,0.113 -2.429,-0.257 -3.152,0.52 -0.075,-0.042 -0.162,-0.109 -0.232,-0.183 0.153,-0.503 0.087,-1.049 0.258,-1.565 -0.244,1.015 -0.143,2.357 0.104,3.353 0.426,1.716 0.505,2.007 -0.933,3.178 -0.813,0.661 -1.501,1.141 -2.504,1.463 -3.094,0.992 -7.507,1.159 -10.705,0.667 -0.504,-0.079 -1.343,-0.25 -2.271,-0.516 z" />
					<path
   style="fill:#dcc06d"
   id="path655"
   d="m 201.584,344.454 c -0.397,0.021 -0.781,-0.025 -1.146,-0.073 -0.011,0.049 -0.022,0.098 -0.031,0.148 -0.371,0.027 -0.789,0.059 -1.14,-0.066 0.088,0.172 0.22,0.397 0.373,0.53 0.175,0.154 0.423,0.03 0.519,0.148 0.269,0.33 0.192,1.091 0.263,1.52 0.002,-0.505 -0.029,-1.037 0.172,-1.485 0.64,0.472 1.67,-0.367 2.411,-0.08 -0.169,0.635 -0.101,0.958 0.096,1.565 0.168,-0.427 -0.122,-1.22 0.438,-1.306 -0.037,0.288 0.053,0.441 0.188,0.616 0.236,-0.309 0.365,-0.739 0.795,-0.7 0.028,0.879 0.147,1.778 0.277,2.645 0.087,0.564 0.158,1.858 0.523,2.249 0.1,-1.167 -0.312,-2.34 -0.165,-3.501 0.073,-0.596 0.683,-1.47 1.41,-1.303 -0.053,0.073 -0.111,0.244 -0.17,0.317 0.747,-1.001 0.552,0.703 0.552,1.01 0,0.619 0.175,1.284 0.337,1.859 0.064,-0.539 -0.03,-1.055 0.203,-1.563 -0.075,0.906 0.429,2.062 0.859,2.82 -0.096,-0.052 -0.211,-0.041 -0.335,-0.129 0.269,0.456 -0.092,1.464 0.438,1.743 0.062,-0.695 0.083,-1.431 0.122,-2.109 0.064,0.072 0.122,0.131 0.175,0.215 -0.633,-1.074 -0.789,-2.153 -0.621,-3.368 0.192,0.159 0.294,0.464 0.414,0.713 0.064,-0.696 0.113,-1.021 0.352,-1.659 0.056,0.195 0.207,0.437 0.269,0.578 0.075,-0.244 0.182,-0.236 0.273,-0.348 0.17,1.207 0.416,2.443 0.482,3.655 0.512,-0.654 -0.36,-2.003 0.41,-2.582 0.068,0.334 0.072,0.647 0.271,0.889 0.037,-0.148 0.134,-0.279 0.175,-0.399 0.222,0.574 0.188,1.204 0.397,1.767 0.162,0.434 0.497,0.779 0.617,1.191 -0.356,-0.756 -0.457,-1.783 -0.551,-2.633 -0.066,-0.62 -0.345,-2.083 0.03,-2.576 0.028,0.118 0.122,0.27 0.154,0.39 0.173,-0.627 0.198,-1.26 0.469,-1.843 0.023,0.03 0.049,0.111 0.083,0.161 0.401,-0.095 0.433,-0.618 0.416,-0.966 -1.026,0.919 -2.914,0.319 -3.818,1.173 0.058,0.067 0.109,0.284 0.162,0.347 -0.819,0.408 -2.331,0.587 -3.185,0.442 0.195,-0.105 0.289,-0.292 0.344,-0.348 -0.707,0.218 -1.664,0.172 -2.402,0.257 -0.764,0.088 -1.495,0.114 -2.261,0" />
					<path
   style="fill:#dcc06d"
   id="path657"
   d="m 186.833,345.883 c 0.716,0.362 3.528,1.861 3.858,0.193 0.368,0.011 0.67,-0.195 1.031,-0.179 -0.504,0.612 -0.552,0.831 -0.612,1.582 -1.198,0.18 -2.496,-0.067 -3.493,-0.768 -0.752,-0.527 -1.337,-1.329 -2.138,-1.777 0.352,0.387 1.257,0.479 1.772,0.413 -0.172,0.03 -0.183,0.111 -0.321,0.183 0.083,0.225 0.275,0.384 0.528,0.444" />
					<path
   style="fill:#dcc06d"
   id="path659"
   d="m 213.921,343.292 c -0.815,0.43 -1.544,2.389 -1.417,3.295 0.395,-0.046 0.553,-0.532 0.973,-0.62 0.31,-0.064 0.762,0.233 1.15,0.172 -0.073,-0.128 -0.026,-0.309 -0.066,-0.417 0.317,-0.097 1.011,-0.138 1.226,-0.398 0.145,-0.175 0.034,-0.515 0.075,-0.773 0.143,-0.919 1.235,-2.918 2.339,-2.88 -0.058,-0.869 0.804,-1.593 1.076,-2.384 -1.124,-0.355 -2.59,1.817 -3.215,2.556 -0.403,0.477 -0.669,0.723 -1.248,0.979 -0.395,0.174 -1.062,0.278 -1.073,0.74" />
					<path
   style="fill:#dcc06d"
   id="path661"
   d="m 221.789,341.503 c -1.464,0.304 -1.337,2.797 -3.095,2.765 0.011,0.458 -0.819,1.123 -1.103,1.496 1.325,-0.503 2.581,-1.397 3.489,-2.475 0.269,-0.32 1.248,-1.682 0.708,-1.875" />
					<path
   style="fill:#dcc06d"
   id="path663"
   d="m 184.956,340.967 c -0.458,0.017 -0.936,0.156 -1.251,0.499 -0.392,-0.107 -0.568,0.458 -0.795,0.728 0.81,0.824 1.748,2.24 2.844,2.678 -0.445,-0.972 -1.306,-1.839 -1.143,-2.996 0.329,-0.019 0.669,-0.051 0.959,0.066 -0.194,-0.339 -0.485,-0.655 -0.614,-1.063" />
					<path
   style="fill:#dcc06d"
   id="path665"
   d="m 192.287,347.046 c 0.54,0.69 0.093,2.258 -0.096,3.008 0.501,-0.664 0.952,-1.817 0.914,-2.643 0.13,0.067 0.31,0.027 0.42,0.068 0.086,-0.522 -0.067,-1.21 -0.438,-1.572 -0.146,0.458 -0.336,1.428 -0.979,1.496" />
					<path
   style="fill:#ccb25c"
   id="path667"
   d="m 208.022,344.454 c 0,0.147 0.06,0.239 0.181,0.274 0.049,-0.139 0.197,-0.285 0.244,-0.427 0.025,0.156 0.123,0.302 0.13,0.483 0.331,-0.748 0.838,-1.018 1.578,-1.039 0.072,0.934 -0.122,1.931 0.196,2.834 -0.015,-0.909 0.058,-1.922 0.512,-2.728 0.013,0.138 0.109,0.275 0.13,0.4 0.356,-0.538 1.021,-0.817 1.22,-1.468 -0.294,0.181 -0.629,0.305 -0.962,0.407 -0.559,-0.56 -2.099,0.274 -2.615,0.637 0.03,0.066 0.064,0.098 0.088,0.157 -0.47,0.469 -1.399,0.596 -2.044,0.578 0.275,0.142 0.662,0.029 0.983,-0.019" />
					<path
   style="fill:#ccb25c"
   id="path669"
   d="m 210.434,352.053 c 0.497,-0.067 1.177,-0.289 1.365,-0.785 0.194,-0.507 -0.115,-0.57 -0.273,-1.071 0.039,1.062 -0.369,1.363 -1.269,1.855" />
					<path
   style="fill:#ccb25c"
   id="path671"
   d="m 213.653,343.112 c -0.836,0.616 -1.237,1.677 -1.167,2.739 0.203,-0.436 0.538,-1.6 1.248,-1.232 -0.035,-0.075 -0.045,-0.18 -0.068,-0.239 0.977,-0.009 0.987,-0.612 1.325,-1.155 0.671,-1.075 2.175,-1.667 2.584,-2.946 -0.851,0.768 -1.657,1.471 -2.666,2.028 -0.674,0.372 -1.377,0.533 -1.792,1.252" />
					<path
   style="fill:#ccb25c"
   id="path673"
   d="m 192.198,347.136 c 0.131,0.003 0.22,0.056 0.268,0.159 -0.48,0.57 -0.399,2.294 -0.451,3.032 0.162,-0.359 1.138,-3.103 0.541,-3.013" />
					<path
   style="fill:#f3d48c;stroke:#967348;stroke-width:0.3218"
   id="path675"
   d="m 199.795,332.389 c -1.951,0.061 -4.496,0.082 -6.289,-0.819 -0.746,-0.375 -1.104,-0.938 -1.896,-1.271 -1.744,-0.736 -3.519,-1.882 -5.493,-1.381 -0.837,0.213 -2.821,0.258 -3.111,1.249 -0.233,0.792 0.353,2.265 1.05,2.688 0.893,0.542 2.389,0.745 3.406,0.982 0.468,0.109 1.037,0.317 1.515,0.23 0.558,-0.1 1.084,-0.516 1.699,-0.615 1.962,-0.317 3.981,0.177 5.923,0.429 2.655,0.345 5.694,0.639 8.318,0.001 0.657,-0.16 0.924,-0.574 1.564,-0.697 0.891,-0.172 1.968,-0.111 2.876,-0.155 2.095,-0.101 4.452,-0.452 6.519,-0.045 1.267,0.25 1.87,0.662 3.116,0.097 1.172,-0.534 2.177,-1.298 3.152,-2.133 0.776,-0.663 1.596,-1.249 0.559,-2.146 -0.816,-0.706 -2.201,-1.199 -3.24,-1.427 -0.955,-0.21 -1.791,0.25 -2.704,0.627 -1.26,0.521 -2.451,1.242 -3.662,1.875 -1.721,0.901 -3.607,1.373 -5.503,1.795 -2.588,0.579 -5.156,0.635 -7.799,0.716 z" />
					<path
   style="fill:#f3d48c;stroke:#967348;stroke-width:0.3218"
   id="path677"
   d="m 192.919,327.671 c 0.271,0.211 0.555,0.437 0.61,0.476 0.611,0.42 1.1,0.621 1.79,0.923 1.07,0.469 2.043,0.709 3.207,0.925 1.8,0.335 3.682,0.424 5.512,0.383 1.754,-0.04 3.957,-0.516 5.595,-1.124 0.751,-0.278 2.794,-0.693 2.875,-1.682 0.03,-0.37 0.757,0.101 0.832,0.204 0.241,0.336 0.091,0.985 0.051,1.355 -0.124,1.142 -0.446,2.295 -0.522,3.429 -0.047,0.729 -0.122,1.606 0.002,2.327 0.181,1.063 0.762,2.045 0.13,3.085 -0.516,0.85 -1.621,1.246 -2.501,1.567 -2.874,1.049 -6.268,0.743 -9.273,0.899 -2.028,0.104 -4.135,-0.018 -6.069,-0.685 -1.159,-0.399 -3.732,-1.248 -3.319,-2.905 0.294,-1.184 0.445,-2.125 0.45,-3.373 0.002,-0.742 -1.607,-6.095 0.09,-6.195 0.031,0 0.28,0.19 0.54,0.391 z" />
					<path
   style="fill:#dcc06d"
   id="path679"
   d="m 202.479,331.938 c -0.071,0.634 0.207,1.09 0.29,1.696 0.12,-0.216 0.154,-0.592 0.171,-0.883 0.277,-0.054 0.354,-0.104 0.341,-0.43 0.019,0.116 0.089,0.216 0.111,0.323 0.636,-0.702 1.242,0.009 2.112,-0.409 0.429,1.694 0.177,3.788 1.091,5.313 0.143,-1.441 -0.915,-3.689 -0.068,-5.049 0.134,0.345 0.13,0.774 0.397,1.042 0.125,-0.241 0.262,-0.478 0.471,-0.635 0.657,0.996 0.519,2.708 0.693,3.88 0.124,0.826 0.46,1.743 0.456,2.563 -0.313,-0.163 -0.448,-0.545 -0.616,-0.855 0.03,0.192 -0.03,0.4 -0.018,0.583 -0.034,0.005 -0.057,-0.01 -0.066,-0.042 -0.36,0.305 -1.008,0.216 -1.433,0.206 -0.736,-0.015 -1.468,0.118 -2.208,0.134 0.755,0.262 1.907,0.043 2.739,0.069 0.693,0.023 1.173,-0.036 1.793,-0.271 0.536,-0.201 1.738,-0.195 1.869,-0.879 -0.073,0.043 -0.263,0.069 -0.373,0.136 -0.448,-0.727 -0.557,-1.529 -0.497,-2.36 0.347,0.534 0.414,1.241 0.808,1.752 0.068,-0.055 0.269,-0.098 0.339,-0.155 0.049,0.129 0.16,0.183 0.194,0.331 0.552,0.137 0.343,-0.331 0.629,-0.506 0.173,-0.108 0.448,-0.156 0.664,-0.191 -0.587,-0.573 -0.902,-2.066 -1.039,-2.876 -0.151,-0.882 -0.378,-2.098 0.113,-2.916 0.091,0.391 0.145,0.817 0.267,1.213 0.369,-0.828 0.008,-2.186 0.334,-3.126 0.009,0.06 0.03,0.114 0.064,0.162 0.125,-0.239 0.305,-0.511 0.366,-0.765 -0.77,0.691 -1.743,1.285 -2.762,1.366 -0.006,0.552 -0.07,1.177 -0.192,1.717 -0.264,-0.575 -0.119,-1.073 -0.785,-1.219 -0.522,-0.115 -0.988,0.201 -1.499,0.275 -0.619,0.088 -1.295,0.177 -1.898,0.249 -0.382,0.046 -0.997,-0.145 -1.178,0.252 -0.122,-0.122 -0.41,-0.156 -0.503,-0.224 -0.267,0.618 -2,-0.025 -2.583,-0.015 0.388,0.237 1.127,0.662 1.404,0.629" />
					<path
   style="fill:#dcc06d"
   id="path681"
   d="m 193.449,330.061 c -0.379,-0.245 -0.673,-0.53 -1.055,-0.689 -0.13,0.223 -0.139,0.458 -0.033,0.682 -0.073,-0.048 -0.061,-0.044 -0.072,-0.144 -0.307,0.554 0.472,2.101 0.558,2.743 0.137,1.01 0.163,1.998 0.152,3.016 0.219,-1.016 0.206,-2.348 0.166,-3.382 -0.019,-0.467 -0.391,-1.286 0.001,-1.594 -0.004,0.149 0.069,0.203 0.106,0.318 0.195,-0.32 0.501,0.042 0.608,0.294 -0.084,-0.425 -0.093,-1.005 -0.342,-1.334" />
					<path
   style="fill:#dcc06d"
   id="path683"
   d="m 195.416,338.285 c 0.166,0.235 0.355,0.416 0.612,0.436 0.072,-1.106 -0.086,-2.18 -0.165,-3.273 0.046,1.001 -0.313,1.962 -0.357,2.926" />
					<path
   style="fill:#dcc06d"
   id="path685"
   d="m 197.115,331.402 c 0.234,0.722 0.191,1.483 0.359,2.211 -0.076,-0.799 0.544,-2.085 -0.449,-2.39" />
					<path
   style="fill:#dcc06d"
   id="path687"
   d="m 183.883,330.954 c 0.583,-0.561 1.4,-0.522 2.147,-0.644 -0.564,-1.03 -3.092,0.668 -1.747,0.731 -0.059,0.041 -0.137,0.144 -0.209,0.198 0.563,1.012 2.063,2.053 3.194,2.242 0.672,0.113 1.322,0.011 2.052,0.141 0.193,-0.863 1.968,-1.162 2.684,-0.889 0.072,-0.478 -0.054,-1.032 -0.136,-1.484 -0.547,0.65 -1.733,0.681 -2.507,0.777 -0.36,0.045 -0.728,0.158 -1.097,0.159 -0.831,0.004 -0.341,-0.06 -0.728,-0.407 -0.437,-0.392 -0.311,-0.285 -0.816,-0.35 -0.352,-0.045 -0.791,0.042 -1.171,-0.044 -0.27,-0.062 -0.485,-0.307 -0.773,-0.346 -0.204,-0.028 -0.458,0.119 -0.713,0.096" />
					<path
   style="fill:#dcc06d"
   id="path689"
   d="m 217.766,328.451 c -1.164,0.385 -2.492,2.473 -0.55,1.792 0.047,0.613 -0.145,1.21 0.55,1.159 0.378,-0.029 1.304,-0.691 1.532,-0.958 -0.245,0.697 -1.139,0.688 -1.323,1.393 0.368,-0.093 0.725,-0.414 1.118,-0.513 0.328,-0.083 0.676,-0.016 1.015,-0.102 0.968,-0.243 1.589,-1.039 2.455,-1.441 -0.871,0.68 -1.64,1.516 -2.561,2.14 -0.387,0.263 -1.316,0.939 -1.805,0.922 -0.115,-0.003 -0.271,-0.231 -0.424,-0.256 -1.389,-0.213 -2.895,-0.589 -4.287,-0.413 -0.126,-2.483 2.188,-3.802 4.458,-3.903" />
					<path
   style="fill:#ccb25c"
   id="path691"
   d="m 192.465,329.167 c -0.119,-0.018 -0.237,-0.015 -0.353,0.011 -0.474,0.777 0.336,2.215 0.602,2.984 0.084,-0.705 -0.073,-2.428 -0.427,-2.995" />
					<path
   style="fill:#ccb25c"
   id="path693"
   d="m 210.613,332.206 c 0,1.332 0.089,2.676 0.631,3.908 0.051,-0.872 -0.258,-1.736 -0.164,-2.63 0.23,0.512 0.194,1.132 0.41,1.653 0.002,-0.383 0.077,-0.754 0.2,-1.119 0.064,0.919 0.239,1.846 0.518,2.713 -0.232,-0.168 -0.371,-0.49 -0.437,-0.74 0.021,0.503 0.128,1.093 0.296,1.557 0.096,-0.354 0.103,-0.802 0.403,-1.042 0.039,0.048 0.063,0.102 0.07,0.162 -0.851,-1.989 -0.358,-4.792 -0.313,-6.925 -0.132,0.636 -0.318,1.268 -0.45,1.899 -0.015,-0.208 -0.053,-0.241 -0.017,-0.464 -0.224,0.643 -0.367,1.41 -0.36,2.084 -0.29,-0.691 0.03,-1.833 -0.363,-2.364 -0.322,0.426 -0.337,0.965 -0.335,1.488" />
					<path
   style="fill:#ccb25c"
   id="path695"
   d="m 214.815,329.524 c -0.54,-0.057 -1.006,0.483 -1.508,0.645 0.275,-0.088 -0.149,0.87 -0.152,0.872 -0.077,0.393 -0.194,0.815 0.082,1.169 0.619,-0.007 1.559,0.266 2.083,-0.006 -0.842,-0.133 -1.522,-0.24 -1.233,-1.125 -0.047,0.03 -0.096,0.044 -0.151,0.043 -0.168,-0.787 0.636,-1.825 1.417,-1.866" />
				</g>
				<g
   id="g697">
					<path
   style="fill:#f3d48c;stroke:#967348;stroke-width:0.3218"
   id="path699"
   d="m 211.842,322.29 c -1.997,1.242 -5.121,0.886 -7.325,0.471 -2.773,-0.521 -5.593,0.381 -8.386,-0.018 -0.759,-0.109 -1.417,-0.466 -2.159,-0.608 -2.814,-0.543 -5.161,-1.659 -8.03,-0.298 -0.841,0.397 -1.595,1.135 -2.506,0.697 -0.736,-0.354 -1.419,-1.201 -1.699,-1.95 -0.357,-0.959 -0.077,-1.855 0.618,-2.588 0.637,-0.668 2.201,-1.917 3.142,-1.887 0.46,0.015 1.094,0.435 1.514,0.63 0.778,0.362 1.587,0.649 2.434,0.807 1.438,0.267 2.963,-0.723 4.291,-0.383 0.933,0.238 1.876,1.043 2.835,1.351 2.092,0.673 4.222,0.522 6.363,0.463 1.595,-0.044 3.541,-0.56 5.059,-1.071 1.098,-0.369 1.877,-0.486 2.726,-1.077 0.339,-0.238 0.821,-0.608 1.235,-0.647 0.576,-0.054 1.437,0.43 2.058,0.58 1.585,0.382 2.626,-0.201 3.934,-1.03 0.857,-0.542 1.491,-0.551 2.525,-0.355 1.175,0.222 2.645,0.952 3.287,1.989 0.814,1.32 -0.936,2.213 -1.974,2.778 -0.731,0.4 -1.516,0.771 -2.306,0.965 -0.29,-1.497 -3.851,-1.016 -4.753,-0.708 -1.183,0.404 -1.857,1.249 -2.883,1.889 z" />
					<path
   style="fill:#f3d48c;stroke:#967348;stroke-width:0.3218"
   id="path701"
   d="m 196.189,315.943 c 2.957,0.491 5.993,0.666 8.962,0.165 2.592,-0.438 4.765,-0.454 6.921,-2.269 1.094,-0.92 0.879,1.394 0.823,1.906 -0.104,1.013 -0.497,2.082 -0.493,3.095 0.003,0.999 -0.04,1.979 0.135,2.95 0.262,1.469 1.109,2.665 -0.681,3.304 -1.672,0.6 -3.218,0.955 -4.972,1.278 -3.055,0.563 -6.184,0.432 -9.203,-0.273 -1.625,-0.379 -3.854,-0.487 -5.153,-1.648 -0.547,-0.488 -0.053,-1.573 -0.043,-2.182 0.021,-1.395 -0.021,-2.765 -0.177,-4.185 -0.155,-1.403 -1.067,-2.846 -0.275,-4.192 0.102,-0.022 0.203,-0.021 0.303,10e-4 0.174,0.04 0.535,0.743 0.717,0.894 0.521,0.432 1.335,0.637 1.964,0.86 0.385,0.135 0.776,0.23 1.172,0.296 z" />
					<path
   style="fill:#dcc06d"
   id="path703"
   d="m 193.449,316.919 c -0.122,0.478 0.29,1.287 0.377,1.797 0.161,0.931 0.159,1.836 0.159,2.777 -0.107,-1.07 0.2,-2.721 0.175,-4.007 0.011,0.045 0.034,0.082 0.07,0.112 0.042,-0.155 0.109,-0.208 0.125,-0.418 0.292,-0.165 0.658,-0.112 0.877,0.154 0.628,-0.417 0.724,2.091 0.997,2.585 -0.221,-0.767 -0.121,-1.49 -0.084,-2.251 0.091,-0.017 0.199,-0.073 0.274,-0.09 0.3,0.085 0.605,0.103 0.86,-0.057 -0.313,-0.278 -0.882,-0.154 -1.05,-0.658 -0.66,0.013 -2.459,-0.076 -2.711,-0.831 -0.019,0.041 -0.144,0.159 -0.175,0.25 -0.158,-0.103 -0.368,-0.108 -0.501,-0.25 -0.039,0.828 0.393,1.684 0.334,2.565 0.141,-0.519 0.205,-1.042 0.185,-1.59" />
					<path
   style="fill:#dcc06d"
   id="path705"
   d="m 202.299,317.634 c 0.597,-0.001 1.171,-0.056 1.764,-0.095 -0.237,0.237 0.007,0.466 0.313,0.599 0.201,-0.171 0.303,-0.063 0.508,-0.131 0,0.082 0.019,0.166 0.023,0.247 0.186,-0.178 0.291,-0.088 0.509,-0.158 0.04,0.55 0.228,1.104 0.279,1.695 0.066,0.813 -0.037,1.778 0.183,2.565 -0.009,-0.919 0.051,-1.82 0.09,-2.734 0.019,-0.48 -0.168,-1.233 0.264,-1.538 0.135,0.246 0.194,0.521 0.286,0.784 0.132,-0.188 0.301,-0.435 0.412,-0.601 0.103,1.869 0.489,3.834 0.463,5.694 0.186,-1.013 0.051,-2.025 -0.002,-3.042 -0.036,-0.702 -0.172,-2.27 0.356,-2.809 0.668,0.305 0.555,1.029 0.65,1.643 0.165,1.078 0.25,2.064 0.25,3.157 0,0.511 0.232,1.938 -0.343,2.135 -0.019,-0.23 -0.126,-0.38 -0.215,-0.59 -0.045,0.138 -0.192,0.257 -0.248,0.386 -0.039,-0.111 -0.113,-0.187 -0.158,-0.296 -0.047,0.548 -0.44,0.965 -1.005,0.625 -0.537,-0.324 -0.501,-1.265 -0.693,-1.79 -0.068,0.61 0.062,1.239 -0.203,1.828 0.007,-0.086 -0.004,-0.154 -0.012,-0.237 -0.417,0.302 -1.165,0.371 -1.658,0.51 1.607,0.104 3.096,0.105 4.627,-0.406 1.145,-0.382 0.757,-1.666 1.077,-2.683 -0.134,0.639 -0.125,1.297 0.083,1.92 0.042,-0.197 0.211,-0.408 0.253,-0.506 -0.058,0.423 0.308,0.738 0.55,0.273 0.378,0.125 0.958,-0.238 1.241,-0.528 -1.303,-0.637 -0.921,-4.021 -0.975,-5.178 0.092,0.427 0.271,0.943 0.525,1.301 0.045,-0.747 0.132,-1.445 0.216,-2.146 0.072,-0.601 0.286,-1.41 0.01,-1.97 -0.269,0.186 -0.584,0.274 -0.919,0.301 -0.1,0.43 -0.286,0.902 -0.279,1.347 -0.064,-0.192 -0.13,-0.863 -0.26,-1.156 -0.071,0.115 -0.292,0.303 -0.346,0.413 -0.004,-0.105 -0.017,-0.212 -0.015,-0.323 -0.458,1.365 0.092,2.975 -0.002,4.367 -0.416,-0.891 0.124,-3.199 -0.608,-4.031 -0.013,1.248 -0.021,2.507 -0.019,3.77 0.128,-0.809 -0.042,-1.995 -0.363,-2.741 -0.164,-0.38 -0.267,-0.629 -0.683,-0.69 -0.224,-0.033 -2.003,0.653 -1.968,0.81 -0.154,-0.713 -1.316,-0.142 -1.92,-0.171 -0.708,-0.034 -1.581,-0.194 -2.218,0" />
					<path
   style="fill:#dcc06d"
   id="path707"
   d="m 197.919,324.875 c 0.374,0.036 0.711,0.228 1.041,0.351 0.034,-0.151 0,-0.36 -0.071,-0.515 -0.736,-0.144 -0.495,-3.215 -0.704,-3.792 0.102,1.17 0.446,2.45 0.111,3.572 0.002,-0.136 -0.062,-0.274 -0.085,-0.394 -0.048,0.084 -0.151,0.185 -0.185,0.234 -0.053,-0.312 -0.115,-0.652 -0.272,-0.888 0.105,0.431 0.127,0.892 -0.024,1.316 0.116,-0.084 0.142,0.029 0.279,0.027" />
					<path
   style="fill:#ccb25c"
   id="path709"
   d="m 210.262,322.7 c 0.127,-0.967 -0.083,-2.063 0.267,-2.984 -0.026,0.471 0.04,0.923 0.083,1.388 0.079,-0.309 0.085,-0.626 0.203,-0.921 0.209,0.642 0.106,1.426 0.267,2.102 0.094,0.396 0.288,0.775 0.324,1.147 -0.38,0.034 -0.465,-0.439 -0.525,-0.765 0.004,0.501 -0.015,0.992 0.087,1.466 0.134,-0.343 0.397,-0.475 0.559,-0.075 0.263,-0.057 0.429,-0.274 0.578,-0.446 -0.699,-1.216 -0.262,-2.856 -0.488,-4.072 0.051,0.07 0.113,0.136 0.164,0.207 -0.232,-0.314 0.041,-1.547 0.058,-1.936 0.035,-0.736 0.002,-1.489 0.115,-2.222 0.049,-0.313 0.209,-0.539 0.094,-0.807 -0.091,-0.209 -0.648,1.138 -0.667,1.206 -0.209,0.72 -0.294,1.42 -0.405,2.168 -0.147,-0.49 -0.186,-0.977 -0.365,-1.464 0.007,0.458 0.056,0.922 -0.085,1.364 -0.042,-0.068 -0.155,-0.214 -0.16,-0.225 -0.013,0.565 -0.137,1.322 -0.034,1.853 -0.045,-0.14 -0.262,-0.388 -0.343,-0.504 -0.228,0.498 -0.028,1.25 -0.009,1.79 0.013,0.479 0.335,1.327 0.282,1.73 z" />
					<path
   style="fill:#ccb25c"
   id="path711"
   d="m 219.452,316.016 c -1.926,0.105 -3.525,1.994 -5.535,1.465 -0.49,-0.129 -0.616,-0.455 -1.058,-0.023 -0.251,0.245 -0.286,0.733 -0.319,1.058 -0.08,0.744 0.013,1.581 0.22,2.3 0.01,-0.024 0.025,-0.038 0.051,-0.042 -0.021,0.087 -0.039,0.149 -0.039,0.231 0.375,-0.354 0.854,-0.776 1.297,-0.939 -0.03,0.041 -0.068,0.068 -0.117,0.083 0.156,-0.086 0.322,-0.113 0.478,-0.196 -0.047,0.031 -0.107,0.047 -0.145,0.078 0.471,0.003 1.452,-0.227 1.836,-0.528 -0.019,0.039 -0.075,0.083 -0.113,0.104 0.299,-0.057 0.608,-0.12 0.92,-0.099 0.179,0.389 2.363,0.367 2.871,0.539 0.352,0.825 2.505,-1.352 2.877,-1.864 -0.734,0.353 -1.736,0.703 -2.583,0.634 -0.426,-0.035 -0.81,-0.172 -1.272,-0.263 -0.529,-0.104 -1.57,-0.026 -1.573,-0.738 -0.002,-0.784 1.602,-1.639 2.204,-1.8 z" />
					<path
   style="fill:#dcc06d"
   id="path713"
   d="m 217.587,317.276 c -0.561,0.174 -1.68,0.405 -1.776,1.061 0.215,-0.03 0.42,0.048 0.621,-0.044 0,0.075 0,0.145 0.002,0.218 0.881,0.416 2.47,0.132 3.272,-0.351 -0.904,0.824 0.211,1.247 1.03,1.134 0.741,-0.103 1.941,-0.696 2.037,-1.523 -0.272,0.618 -1.083,1.149 -1.783,0.997 -0.516,-0.112 -1.117,-1.38 -0.367,-1.477 -0.603,0.079 -1.081,0.299 -1.687,0.103 -0.267,0.465 -1.147,0.818 -1.521,0.263 0.192,-0.17 0.426,-0.325 0.618,-0.469" />
					<path
   style="fill:#dcc06d"
   id="path715"
   d="m 183.294,318.723 c -0.381,0.343 -0.403,0.87 -0.911,1.104 -0.203,-0.196 -0.292,-0.688 -0.084,-0.937 -0.602,0.718 -0.228,1.788 0.375,2.376 0.834,0.817 1.554,0.522 2.448,0.04 0.672,-0.36 1.364,-0.724 2.132,-0.818 -0.353,0.223 -0.752,0.34 -1.111,0.526 1.605,-0.19 3.556,-1.207 5.216,-0.636 -0.012,0.061 -0.035,0.13 -0.045,0.186 0.336,0.17 0.687,0.405 0.949,0.639 0.471,-0.824 -0.141,-2.487 -0.332,-3.36 -0.122,0.263 -0.142,0.58 -0.274,0.831 0.009,-0.046 0.005,-0.091 -0.013,-0.134 -0.572,0.517 -1.6,0.428 -2.271,0.868 0.373,0.01 0.754,0.006 1.121,0.119 -0.375,0.622 -2.375,0.575 -3.045,0.595 -0.57,0.017 -1.608,0.069 -2.127,-0.156 0.132,-0.166 0.151,-0.355 0.406,-0.458 -0.705,0.086 -1.365,0.455 -2.1,0.348 -0.303,-1.318 0.985,-1.315 1.663,-2.125 -0.386,0.461 -1.492,0.538 -1.997,0.992 z" />
					<path
   style="fill:#dcc06d"
   id="path717"
   d="m 189.783,318.438 c -0.532,-0.002 -1.014,-0.064 -1.51,-0.073 0.223,0.663 1.798,0.319 2.22,0.002 -0.222,-0.023 -0.485,-0.05 -0.71,-0.018" />
				</g>
			</g>
			<g
   id="g719">
				<path
   style="fill:#e1e2e3;stroke:#967348;stroke-width:0.2358"
   id="path721"
   d="m 212.079,298.723 c 0,-0.016 0,-0.034 0,-0.052 0.006,-0.526 0.168,-1.076 0.053,-1.6 -0.213,-0.973 -1.979,-0.43 -2.63,-0.526 -1.61,-0.24 -3.184,-0.172 -4.803,0.012 -0.811,0.091 -1.617,0.224 -2.429,0.297 -2.238,0.204 -4.49,-0.251 -6.73,0.021 -0.501,0.061 -0.977,0.208 -1.47,0.292 -0.342,0.057 -0.69,-0.067 -1.009,-0.015 -0.649,0.105 -0.499,0.509 -0.439,0.981 0.1,0.798 0.105,1.618 -0.046,2.409 -0.108,0.565 -0.27,1.157 0.226,1.609 0.403,0.37 1.362,0.501 1.877,0.658 0.712,0.219 1.433,0.409 2.165,0.552 2.948,0.571 5.974,0.887 8.974,0.575 1.379,-0.144 2.937,-0.322 4.146,-1.002 0.898,-0.504 2.391,-1.417 2.223,-2.643 -0.07,-0.513 -0.111,-1.048 -0.108,-1.568 z" />
				<path
   style="fill:#e1e2e3;stroke:#967348;stroke-width:0.2358"
   id="path723"
   d="m 210.65,288.122 c -0.331,0.144 -0.732,0.217 -1.129,0.303 -2.039,0.444 -4.099,0.946 -6.17,1.241 -3.271,0.467 -7.341,0.582 -10.308,-1.163 -0.966,-0.568 -0.322,-1.753 -0.168,-2.563 0.139,-0.74 -0.363,-2.035 0,-2.674 0.324,-0.575 1.88,-0.702 2.47,-0.688 1.457,0.033 2.818,0.628 4.257,0.77 1.958,0.192 4.146,0.186 6.115,0.06 1.092,-0.07 2.133,-0.382 3.212,-0.524 0.706,-0.093 1.994,-0.886 2.24,0.119 0.16,0.657 -0.199,1.429 -0.241,2.086 -0.067,1.017 1.178,2.397 -0.278,3.033 z" />
				<g
   id="g725">
					<path
   style="fill:#f3d48c;stroke:#967348;stroke-width:0.3218"
   id="path727"
   d="m 195.371,306.397 c -1.098,-0.216 -2.272,-0.54 -3.306,-0.941 -1.146,-0.445 -3.146,-0.965 -4.383,-0.913 -1.026,0.043 -1.646,0.329 -2.481,0.899 -0.691,0.471 -1.203,0.662 -0.848,1.449 0.992,2.195 4.204,2.61 6.225,2.159 1.173,-0.263 2.213,-0.783 3.406,-0.915 2.427,-0.268 5.057,-0.563 7.495,-0.464 4.217,0.171 8.186,0.083 12.202,1.521 0.505,0.181 0.779,-0.07 1.218,-0.046 0.61,0.034 1.256,0.308 1.864,0.24 0.71,-0.08 1.476,-0.63 2.071,-0.988 0.322,-0.193 1.361,-0.642 1.455,-1.042 0.309,-1.301 -3.159,-2.735 -4.057,-3.055 -1.09,-0.387 -1.873,0.409 -3.121,0.745 -3.271,0.876 -6.837,1.365 -10.234,1.539 -2.414,0.121 -5.125,0.28 -7.506,-0.188 z" />
					<path
   style="fill:#f3d48c;stroke:#967348;stroke-width:0.3218"
   id="path729"
   d="m 192.253,310.62 c 0.251,0.935 2.048,1.8 2.845,2.083 1.16,0.41 2.403,0.586 3.624,0.69 2.814,0.238 5.691,0.124 8.442,-0.545 1.203,-0.292 2.318,-0.594 3.459,-1.075 0.932,-0.393 1.612,-0.661 1.377,-1.826 -0.478,-2.36 0.005,-5.016 0.512,-7.328 0.104,-0.472 0.205,-1.001 0.171,-1.496 -0.026,-0.347 -0.175,-0.782 -0.534,-0.878 -0.371,0.663 -0.683,1.162 -1.441,1.41 -1.007,0.327 -2.071,0.397 -3.105,0.594 -1.689,0.323 -3.417,0.456 -5.136,0.456 -3.021,-10e-4 -5.811,-0.661 -8.692,-1.381 -0.446,-0.111 -0.63,-0.346 -0.996,-0.525 -0.647,-0.315 -0.849,0.324 -0.831,0.97 0.014,0.457 0.148,1.042 0.269,1.487 0.449,1.66 0.625,3.167 0.448,4.904 -0.074,0.735 -0.551,1.649 -0.431,2.375 0.005,0.028 0.012,0.056 0.019,0.085 z" />
					<path
   style="fill:#dcc06d"
   id="path731"
   d="m 193.024,303.106 c -0.1,0.075 -0.175,0.168 -0.222,0.28 0.233,0.183 0.26,0.483 0.292,0.767 -0.01,-0.025 -0.028,-0.036 -0.056,-0.033 -0.061,0.333 0.062,0.591 0.12,0.915 0.111,0.605 0.124,1.191 0.133,1.815 0.013,0.865 0.057,1.646 -0.208,2.473 0.311,-0.458 0.588,-1.274 0.54,-1.832 0.007,0.026 0.024,0.039 0.051,0.039 0.327,-0.653 -0.399,-1.894 0.071,-2.406 0.042,0.1 0.097,0.134 0.135,0.192 0.004,-0.139 0.093,-0.274 0.092,-0.415 0.764,0.718 0.182,2.024 0.528,2.886 -0.008,-0.885 0.043,-1.916 0.143,-2.799 0.069,0.042 0.096,0.029 0.176,0.109 0.028,-0.411 -0.617,-0.924 -0.119,-1.261 0.024,0.041 0.103,0.112 0.125,0.142 0.076,-0.155 0.231,-0.248 0.349,-0.348 0.209,0.151 0.299,0.417 0.397,0.647 0.045,-0.009 0.067,-0.034 0.065,-0.078 0.327,0.634 0.048,1.452 0.32,2.105 0.098,-0.748 0.035,-1.5 0.094,-2.241 0.128,0.231 0.335,0.214 0.53,0.039 0.481,0.599 1.345,0.157 1.802,0.667 0.43,0.478 0.297,1.501 0.268,2.085 0.176,-0.518 -0.084,-1.944 0.339,-2.28 0.4,-0.317 1.458,0.409 1.758,-0.252 0.688,0.185 1.703,-0.076 2.464,-0.075 0.885,0 2.259,0.192 3.063,-0.208 -0.405,0.163 -0.296,0.958 -0.162,1.278 0.051,-0.062 0.19,-0.135 0.239,-0.193 0.109,1.459 0.64,2.858 0.892,4.272 -0.316,-0.75 -0.219,-2.117 -0.26,-2.93 -0.028,-0.531 -0.075,-1.499 0.39,-1.879 0.043,0.076 0.171,0.158 0.197,0.28 0.124,-0.269 0.29,-0.666 0.593,-0.752 0.258,1.295 0.01,2.705 0.013,4.018 0.002,0.782 -0.215,1.58 -0.198,2.329 -0.098,-0.24 -0.203,-0.501 -0.203,-0.764 0.009,0.492 -0.149,0.903 -0.49,1.248 -0.106,-0.29 0.017,-0.669 -0.117,-0.983 0.044,0.407 -0.036,0.979 -0.262,1.32 -0.391,-0.343 -0.683,0.25 -1.079,0.396 -0.403,0.15 -0.958,0.195 -1.39,0.213 -0.593,0.024 -1.518,0.444 -1.64,-0.384 -0.644,0.777 -1.342,0.541 -2.246,0.788 1.613,-0.038 3.447,0.175 5.015,-0.287 0.989,-0.291 1.862,-0.66 2.934,-0.527 0.118,-0.512 0.352,-0.496 0.811,-0.35 0.071,-0.415 -0.162,-0.775 -0.185,-1.184 -0.021,-0.383 0.132,-0.742 0.122,-1.122 0.094,0.457 0.288,1.982 0.928,1.983 0.004,-0.098 0.098,-0.208 0.087,-0.325 0.458,0.227 0.616,-0.321 1.041,-0.148 -0.716,-1.232 -0.673,-2.879 -0.578,-4.259 -0.017,0.027 -0.041,0.091 -0.054,0.108 -0.036,-0.121 -0.032,-0.311 -0.019,-0.439 0.103,-0.058 0.173,-0.148 0.224,-0.36 0.235,0.629 0.103,1.457 0.165,2.14 0.053,0.575 0.184,1.139 0.149,1.72 0.207,-0.595 -0.008,-1.351 0.003,-1.968 0.013,-0.833 0.021,-1.664 0.066,-2.489 0.025,-0.453 -0.139,-1.961 0.277,-2.268 -0.286,0.211 -0.333,0.589 -0.685,0.717 -0.024,-0.073 -0.101,-0.202 -0.111,-0.266 -0.011,0.506 -0.1,1.227 -0.269,1.675 -0.015,-0.458 -0.307,-1.209 -0.104,-1.534 -0.181,0.216 -0.405,0.413 -0.706,0.4 -0.081,1.097 0.106,2.346 -0.196,3.4 -0.124,-1.228 0.135,-2.608 -0.081,-3.781 -0.226,0.394 -0.175,1.057 -0.205,1.51 -0.062,0.91 0.099,1.851 -0.01,2.751 -0.441,-1.183 0.01,-2.875 -0.384,-4.102 -0.391,0.428 -0.814,0.276 -1.292,0.161 -0.583,-0.139 -1.135,-0.026 -1.713,0.039 -0.452,0.049 -0.771,0.198 -1.169,0.304 -0.962,0.255 -2.212,0.065 -3.21,0.118 -1.674,0.087 -3.379,-0.197 -4.999,-0.465 0.074,0.238 -0.049,0.304 -0.285,0.25 0.009,-0.139 -0.09,-0.252 -0.089,-0.386 -0.555,0.201 -1.787,-0.06 -2.138,-0.522 -0.1,0.323 -0.105,0.787 -0.249,1.051 -0.029,-0.378 -0.149,-0.74 -0.148,-1.118 0.006,0.036 0.001,0.071 -0.014,0.105 -0.137,-0.126 -0.319,-0.254 -0.513,-0.322 0.014,0.287 0.1,0.561 0.057,0.799" />
					<path
   style="fill:#dcc06d"
   id="path733"
   d="m 195.97,310.636 c 0.036,0.231 0.045,0.468 -0.129,0.628 -0.043,-0.022 -0.072,-0.055 -0.087,-0.101 -0.105,0.101 -0.183,0.073 -0.304,0.115 -0.236,-0.885 -0.356,-1.741 -0.347,-2.653 -0.127,0.47 0.052,2.235 -0.458,2.389 -0.002,-0.102 -0.053,-0.174 -0.075,-0.261 -0.071,0.034 -0.207,0.03 -0.263,0.056 -0.01,-0.376 -0.021,-1.097 -0.282,-1.375 0.012,0.44 0.241,1.358 -0.04,1.64 0.201,-0.201 0.845,0.453 1.029,0.533 0.441,0.192 1.07,0.283 1.53,0.179 -0.273,-0.329 -0.506,-0.712 -0.574,-1.15 z" />
					<path
   style="fill:#dcc06d"
   id="path735"
   d="m 185.902,307.735 c -0.612,-0.445 -1.542,-1.154 -0.618,-1.727 0.481,-0.297 1.609,-0.319 1.959,-0.698 -0.2,0.217 -1.332,0.711 -0.797,0.896 -0.44,0.253 -0.393,0.669 -0.055,1.076 0.557,0.676 3.504,1.332 3.842,0.258 -0.23,-0.067 -0.458,-0.131 -0.692,-0.157 0.031,-0.01 0.117,-0.053 0.193,-0.065 -0.173,-0.149 -0.465,-0.152 -0.713,-0.202 0.077,-0.085 0.278,-0.2 0.447,-0.259 0.008,-0.036 -0.003,-0.058 -0.034,-0.065 0.342,-0.22 0.289,0.162 0.564,0.278 0.41,0.172 1.317,0.01 1.162,-0.588 -0.098,0.005 -0.173,-0.034 -0.282,-0.008 0.383,0.168 0.94,-0.214 1.384,-0.139 -0.088,0.186 0.01,0.301 0.024,0.456 0.042,-0.035 0.073,-0.064 0.124,-0.111 -0.076,0.365 0.025,0.926 -0.206,1.255 -0.279,0.396 -0.931,0.493 -1.378,0.605 -1.095,0.275 -1.826,0.169 -2.893,0.061 -0.452,-0.046 -0.577,0 -1.009,-0.264 -0.329,-0.199 -0.718,-0.382 -1.022,-0.602 z" />
					<path
   style="fill:#dcc06d"
   id="path737"
   d="m 212.402,306.258 c -0.375,0.521 -0.204,1.47 -0.192,2.058 0.139,-0.189 0.32,-0.237 0.501,-0.11 -0.03,-0.002 -0.057,-0.005 -0.085,-0.01 0.392,0.299 0.791,0.313 1.179,0.333 0.25,0.013 0.205,0.154 0.459,0.06 0.094,-0.035 0.243,-0.301 0.405,-0.363 0.282,1.181 2.916,0.067 3.543,-0.231 -0.028,0.028 -0.064,0.051 -0.09,0.083 0.439,-0.268 1.363,-0.353 1.565,-0.885 -0.424,-0.119 -0.708,-0.305 -1.098,-0.603 0.07,0 0.166,-0.012 0.229,-0.007 -0.351,-0.17 -0.466,-0.666 -0.843,-0.786 0.195,1.396 -3.491,0.768 -4.291,0.652 0.047,-0.237 0.284,-0.344 0.508,-0.464 -0.169,-0.009 -0.147,-0.081 -0.246,-0.124 0.177,-0.143 0.388,-0.305 0.529,-0.461 -0.491,0 -1.318,0.414 -1.811,0.575 -0.364,0.118 -0.574,0.136 -0.465,0.619" />
					<path
   style="fill:#ccb25c"
   id="path739"
   d="m 212,305.856 c 0.085,-0.102 0.282,-0.192 0.401,-0.241 0.164,0.213 0.438,0.195 0.65,0.032 -0.3,0.179 -0.661,0.643 -0.571,1.006 0.058,-0.021 0.12,-0.038 0.182,-0.054 0.134,1.493 4.311,1.689 4.393,1.063 0.834,-0.192 1.657,-0.485 2.375,-0.929 0.115,0.123 0.29,0.224 0.426,0.26 -0.508,0.564 -0.919,1.074 -1.629,1.384 -0.529,0.23 -1.163,0.689 -1.748,0.766 -0.437,0.058 -0.853,-0.254 -1.26,-0.356 -0.412,-0.102 -0.552,0.059 -0.943,0.105 -0.484,0.058 -2.062,-0.335 -2.209,-0.892 -0.177,-0.677 0.179,-1.579 0.202,-2.259 -0.002,0.06 0.005,0.122 0,0.181" />
					<path
   style="fill:#ccb25c"
   id="path741"
   d="m 217.029,305.587 c 0.401,0.102 1.168,1.093 1.537,0.689 -0.543,-0.305 -1.32,-0.672 -1.941,-0.756" />
					<path
   style="fill:#ccb25c"
   id="path743"
   d="m 209.988,303.778 c -0.218,0.947 -0.218,2.533 0.068,3.461 0.09,-0.676 -0.156,-2.371 0.301,-2.84 0.054,0.133 0.16,0.342 0.22,0.437 0.042,-0.376 0.201,-0.701 0.354,-1.041 -0.023,1.02 -0.128,2.027 -0.141,3.047 0.028,-0.212 0.115,-0.403 0.258,-0.562 -0.226,0.897 0.403,1.973 -0.245,2.726 0.079,-0.214 0.049,-0.461 -0.081,-0.654 0.028,0.169 -0.004,0.352 -0.011,0.52 -0.032,-0.06 -0.132,-0.167 -0.173,-0.25 -0.03,0.535 -0.106,1.13 -0.418,1.573 -0.284,-0.569 -0.186,-1.321 -0.405,-1.909 0.019,0.951 -0.09,2.079 0.207,2.98 0.096,-0.483 0.313,-0.875 0.791,-1.044 0.009,0.039 0.015,0.077 0.024,0.115 0.382,0.092 0.49,-0.115 0.591,-0.388 0.113,-0.302 0,-0.843 0.002,-1.157 0.004,-0.636 0.103,-1.248 0.136,-1.88 0.052,-0.933 -0.042,-1.866 0.062,-2.794 0.051,-0.459 0.186,-1.004 0.124,-1.46 -0.141,0.213 -0.386,0.523 -0.604,0.256 -0.417,0.23 -0.633,0.604 -1.147,0.473 -0.106,0.024 0.011,0.026 0.02,0.056" />
					<path
   style="fill:#ccb25c"
   id="path745"
   d="m 208.707,311.073 c -0.427,-0.029 -0.569,-3.991 -0.61,-4.519 -0.228,0.717 -0.083,1.491 -0.083,2.22 -0.002,0.928 -0.164,1.841 -0.089,2.774 0.244,-0.195 0.419,-0.5 0.782,-0.475 z" />
					<path
   style="fill:#ccb25c"
   id="path747"
   d="m 207.977,303.71 c 0.198,0.503 0.203,1.003 0.269,1.528 -0.023,-0.526 0.032,-1.09 0.192,-1.587 -0.175,-0.045 -0.329,0.004 -0.461,0.126" />
					<path
   style="fill:#ccb25c"
   id="path749"
   d="m 188.474,307.678 c 0.113,-0.012 0.159,-0.067 0.25,-0.092 -0.083,-0.16 -0.064,-0.272 -0.239,-0.381 1.098,0.453 2.763,0.084 3.56,-0.794 -0.05,-0.018 -0.096,-0.011 -0.138,0.02 0.058,-0.424 0.613,-0.297 0.552,-0.038 -0.168,0.699 0.138,1.417 -0.571,1.847 -0.611,0.37 -1.603,0.432 -2.3,0.44 -0.604,0.007 -1.444,0.133 -2.017,-0.07 -0.532,-0.19 -0.797,-0.739 -1.32,-0.963 -0.625,-0.27 -1.272,-0.454 -1.47,-1.251 0.958,-0.887 0.543,-0.041 0.703,0.521 0.174,0.612 1.052,1.055 1.615,1.243 0.282,0.095 0.625,0.154 0.92,0.061 0.119,-0.039 0.663,-0.565 0.455,-0.543 z" />
					<path
   style="fill:#ccb25c"
   id="path751"
   d="m 189.269,305.789 c 0.402,0.096 0.786,0.252 1.191,0.328 -0.286,-0.364 -0.629,-0.325 -1.057,-0.328" />
				</g>
				<g
   id="g753">
					<path
   style="fill:#f3d48c;stroke:#967348;stroke-width:0.3218"
   id="path755"
   d="m 214.819,291.172 c -2.335,0.136 -4.575,0.69 -6.848,1.003 -1.09,0.149 -2.187,0.244 -3.307,0.21 -2.515,-0.075 -4.945,0.011 -7.459,-0.209 -2.295,-0.201 -4.562,-0.018 -6.793,-0.575 -1.335,-0.334 -4.319,0.149 -4.718,1.795 -0.298,1.227 1.46,2.362 2.571,2.331 0.714,-0.021 1.579,-0.351 2.289,-0.532 3.105,-0.792 6.44,-0.698 9.616,-1.021 2.836,-0.288 5.684,-0.024 8.505,0.283 1.533,0.166 3.144,0.168 4.656,0.391 1.484,0.218 2.438,0.724 3.865,-0.189 1.047,-0.67 1.612,-1.179 0.659,-2.214 -0.745,-0.808 -1.944,-1.338 -3.036,-1.273 z" />
					<path
   style="fill:#f3d48c;stroke:#967348;stroke-width:0.3218"
   id="path757"
   d="m 200.796,287.707 c 1.164,0.037 2.324,0.034 3.476,-0.033 1.385,-0.082 2.773,-0.278 4.149,-0.434 1,-0.112 1.817,-0.671 2.873,-0.615 0.975,0.051 0.751,1.041 0.711,1.784 -0.101,1.747 -0.479,3.693 0.06,5.372 0.315,0.984 0.644,2.121 0.407,3.156 -0.282,1.229 -1.566,1.343 -2.553,1.646 -1.359,0.415 -2.745,0.57 -4.155,0.701 -2.105,0.195 -4.045,0.346 -6.158,0.141 -1.165,-0.112 -2.335,-0.243 -3.495,-0.406 -0.973,-0.139 -1.903,-0.31 -2.827,-0.628 -1.167,-0.401 -1.104,-1.051 -0.854,-2.13 0.479,-2.066 0.078,-4.131 -0.169,-6.198 -0.083,-0.689 -0.48,-2.003 -0.208,-2.667 0.342,-0.833 1.614,-0.202 2.241,-0.149 2.143,0.184 4.327,0.392 6.502,0.46 z" />
					<path
   style="fill:#dcc06d"
   id="path759"
   d="m 193.762,297.542 c -0.512,-0.198 -0.561,-0.301 -0.539,-0.8 0.029,-0.636 0.165,-1.367 0.275,-2.005 -0.219,0.629 -0.11,1.528 -0.061,2.197 0.017,-0.019 0.098,-0.083 0.126,-0.108 0.063,0.232 0.175,0.45 0.4,0.511 0.299,-0.541 0.291,-1.416 0.402,-2.024 0.121,-0.667 0.232,-1.334 0.338,-1.996 0.091,-0.559 0.114,-1.096 0.146,-1.661 0.3,1.218 0.179,2.611 0.103,3.864 -0.039,0.646 -0.013,1.445 -0.185,2.064 -0.303,0.293 -0.516,0.179 -0.865,-0.104 0.09,0.224 -0.025,0.028 -0.074,0.061" />
					<path
   style="fill:#dcc06d"
   id="path761"
   d="m 199.998,298.078 c 0.271,0.253 0.625,0.271 0.857,0.005 0.031,0.365 0.423,0.272 0.682,0.249 0.368,-0.033 0.518,0.102 0.806,0.121 1.698,0.104 3.58,-0.051 5.222,-0.52 0.026,-0.093 -0.006,-0.128 -0.03,-0.182 0.017,0.048 0.049,0.085 0.094,0.108 0.041,-0.698 0.006,-1.519 0.201,-2.183 -0.007,0.639 0.22,1.313 0.422,1.919 -0.008,-0.099 0.007,-0.193 0.009,-0.289 0.194,0.459 0.438,0.51 0.774,0.174 0.06,0.06 0.154,0.085 0.199,0.123 -0.316,-0.438 -0.348,-1.778 -0.179,-2.327 -0.015,0.638 0.166,1.491 0.452,2.047 0.113,-1.605 -0.806,-3.484 -0.183,-5.038 -0.062,0.9 0.175,1.889 0.263,2.787 0.081,0.798 0.25,1.571 0.488,2.334 0.006,-0.066 0.058,-0.206 0.062,-0.306 0.023,0.077 0.158,0.243 0.186,0.309 0.173,-0.377 0.687,-0.422 1.052,-0.416 -0.147,-0.528 -0.342,-1.031 -0.452,-1.574 0.234,0.531 0.49,1.05 0.732,1.567 0.055,-0.381 -0.152,-0.828 -0.252,-1.192 -0.317,-1.16 -0.571,-2.25 -0.688,-3.447 -0.092,-0.936 -0.188,-1.85 -0.186,-2.792 0.002,-0.356 0.024,-0.854 -0.051,-1.128 -0.007,0.106 -0.017,0.221 -0.03,0.326 -0.007,-0.033 -0.098,-0.291 -0.104,-0.327 -0.117,0.768 -0.126,1.559 -0.218,2.333 0.039,-0.738 -0.041,-2.063 -0.348,-2.713 -0.239,0.115 -0.499,0.175 -0.744,0.132 -0.103,0.368 0.03,0.781 0.011,1.176 -0.021,0.448 -0.141,0.864 -0.124,1.319 -0.064,-0.799 -0.134,-1.579 -0.271,-2.371 -0.006,0.081 -0.011,0.173 -0.013,0.253 0,-0.03 -0.047,-0.22 -0.047,-0.316 -0.07,0.066 -0.211,0.203 -0.262,0.261 -0.22,1.076 -0.041,2.328 -0.132,3.443 -0.085,1.015 0.162,2.026 0.124,3.039 -0.369,-1.461 -0.252,-2.938 -0.42,-4.417 -0.051,-0.451 -0.021,-1.579 -0.36,-1.85 0.013,0.03 0.028,0.059 0.044,0.085 -0.062,-0.501 -0.646,-0.281 -0.985,-0.251 0.322,1.085 0.269,2.496 0.314,3.641 0.049,1.205 0.066,2.674 0.064,3.752 -0.173,-1.388 -0.32,-2.826 -0.469,-4.235 -0.047,-0.434 -0.047,-3.225 -0.689,-2.91 -0.049,-0.027 -0.049,-0.078 -0.098,-0.1 -0.002,0.003 -0.081,0.109 -0.079,0.107 0.538,0.347 0.35,2.328 0.382,2.896 0.087,1.592 0.177,3.229 0.145,4.821 0.196,-0.558 0.246,-1.455 0.203,-2.047 0.273,0.621 0.403,2.662 0.008,3.212 -0.042,-0.078 -0.189,-0.172 -0.237,-0.268 -0.657,0.694 -0.742,0.586 -0.99,-0.327 -0.213,-0.789 -0.168,-1.834 -0.441,-2.551 -0.132,1.057 0.305,2.376 -0.337,3.323 0.026,-0.157 -0.068,-0.328 -0.075,-0.464 -0.284,0.397 -0.431,0.302 -0.881,0.325 -0.329,0.017 -0.565,0.173 -0.868,-0.115 -0.412,-0.395 -0.491,-1.73 -0.591,-2.292 -0.073,-0.398 -0.049,-0.8 -0.094,-1.193 -0.197,0.387 0.006,1.46 0.03,1.938 0.026,0.511 0.192,1.179 0.068,1.66 -0.015,-0.035 -0.023,-0.073 -0.028,-0.109 -0.045,0.035 -0.179,0.11 -0.244,0.118 -0.042,-0.127 -0.186,-0.249 -0.211,-0.392 -0.05,0.055 -0.269,0.132 -0.323,0.193 -0.061,-0.108 -0.176,-0.135 -0.222,-0.19 -0.05,0.16 -0.164,0.244 -0.262,0.376 -0.268,-0.331 -0.193,-1.104 -0.269,-1.521 -0.105,-0.58 -0.08,-1.26 -0.34,-1.798 -0.012,0.513 -0.066,1.02 -0.062,1.539 0.005,0.8 -0.265,1.628 -0.201,2.404" />
					<path
   style="fill:#dcc06d"
   id="path763"
   d="m 201.813,292.021 c -0.032,-1.019 0.132,-2.044 0.051,-3.057 -1.069,0.203 -0.183,2.449 -0.051,3.057 z" />
					<path
   style="fill:#dcc06d"
   id="path765"
   d="m 204.49,289.965 c -0.188,0.636 0.013,1.326 0.053,1.97 0.019,0.325 -0.03,0.786 0.066,1.041 0.064,-0.547 0.158,-1.13 0.156,-1.688 -0.002,-0.506 0.055,-1.47 -0.137,-1.909 -0.166,0.098 -0.226,0.259 -0.205,0.452" />
					<path
   style="fill:#dcc06d"
   id="path767"
   d="m 194.633,288.893 c 0.236,0.451 0.18,0.986 0.217,1.471 0.063,-0.193 0.369,-2.244 -0.284,-1.604" />
					<path
   style="fill:#dcc06d"
   id="path769"
   d="m 192.622,288.356 c -0.392,0.521 0.433,1.604 0.398,2.25 0.165,-0.4 0.036,-2.144 -0.398,-2.25" />
					<path
   style="fill:#ccb25c"
   id="path771"
   d="m 209.788,291.104 c 0.06,0.735 0.15,1.47 0.218,2.204 0.045,0.505 0.005,1.142 0.251,1.598 0.239,-0.843 -0.384,-2.19 0.137,-2.914 -0.154,1.532 0.495,3.111 0.317,4.605 -0.181,-0.199 -0.235,-0.537 -0.393,-0.775 -0.006,0.304 -0.098,1.334 -0.601,1.258 -0.589,-0.088 -0.664,-2.35 -0.807,-2.834 -0.025,0.37 0.158,1.168 0.192,1.676 0.026,0.382 0.263,1.265 0.007,1.54 0.008,-0.105 -0.015,-0.221 -0.007,-0.318 -0.096,0.204 -0.3,0.376 -0.55,0.379 -0.007,0.065 -0.002,0.104 -0.017,0.162 0.755,-0.349 2.146,-0.18 2.472,-1.146 0.075,0.096 0.252,0.207 0.313,0.317 -0.177,-0.654 -0.265,-1.733 -0.127,-2.397 0.125,0.702 0.189,1.702 0.665,2.266 -0.734,-2.804 -0.998,-5.781 -0.998,-8.685 0.028,0.664 -0.032,1.51 -0.271,2.113 0.004,-0.678 0.004,-1.347 -0.075,-1.988 -0.085,-0.023 -0.335,-0.056 -0.398,-0.054 0.032,0.923 -0.002,1.85 0.006,2.774 -0.066,-0.43 -0.213,-0.866 -0.198,-1.304 -0.246,0.51 -0.154,1.794 -0.004,2.329" />
					<path
   style="fill:#ccb25c"
   id="path773"
   d="m 208.916,288.759 c 0.215,0.905 -0.234,2.034 0.207,2.869 0.072,-1.051 0.267,-2.197 0.188,-3.282 -0.181,-0.074 -0.179,0.04 -0.26,0.144" />
					<path
   style="fill:#ccb25c"
   id="path775"
   d="m 206.971,295.463 c 0.032,0.836 0.036,1.653 0.083,2.481 0.236,-0.589 0.271,-2.173 -0.035,-2.785 -0.056,0.141 -0.064,0.286 -0.049,0.438" />
					<path
   style="fill:#ccb25c"
   id="path777"
   d="m 212.469,291.977 c -0.113,-0.016 -0.226,-0.013 -0.337,0.01 -0.277,0.614 0.117,1.889 0.455,2.399 0.025,-0.067 0.056,-0.12 0.079,-0.172 0.301,0.395 1.227,0.329 1.728,0.312 -0.3,-0.081 -0.83,-0.455 -0.772,-0.808 0.038,-0.242 0.591,-0.17 0.284,-0.467 0.29,-0.168 0.617,0.129 0.889,0.272 -1.309,-0.18 0.026,1.24 0.706,1.342 0.631,0.095 2.349,-0.751 2.393,-1.523 -0.474,0.235 -1.135,0.337 -1.653,0.304 0.154,-0.035 0.279,-0.19 0.382,-0.246 -0.999,-0.507 -2.308,-0.592 -3.14,-1.372 0.07,-0.05 0.184,-0.208 0.307,-0.255 -0.507,0.018 -0.953,0.082 -1.455,0.138" />
					<path
   style="fill:#ccb25c"
   id="path779"
   d="m 188.8,295.263 c 0.429,-0.083 0.785,-0.354 1.192,-0.491 0.325,-0.107 0.648,-0.139 0.974,-0.304 0.239,-0.121 0.673,-0.31 0.769,-0.593 0.032,-0.095 0,-0.75 -0.229,-0.641 0.3,-0.144 0.488,-0.42 0.649,-0.703 0.137,0.585 0.145,1.387 -0.149,1.914 0.004,-0.007 -1.171,0.332 -1.332,0.392 -0.595,0.223 -1.258,0.268 -1.874,0.426" />
					<path
   style="fill:#ccb25c"
   id="path781"
   d="m 192.824,292.244 c 0.425,0.948 0.135,1.951 0.45,2.867 0.309,-0.714 0.092,-1.582 0.019,-2.33 -0.049,-0.506 -0.063,-1.225 -0.284,-1.666 -0.05,0.003 -0.058,0.038 -0.104,0.05 -0.014,-0.665 -0.115,-1.424 -0.267,-2.054 -0.159,1.278 0.37,2.713 0.454,4.005" />
					<path
   style="fill:#dcc06d"
   id="path783"
   d="m 216.208,292.982 c -0.096,0.024 -0.192,0.098 -0.247,0.12 0.162,-0.016 0.296,0.075 0.454,0.092 -0.066,0.173 -0.042,0.284 -0.258,0.374 0.614,0.275 1.395,0.129 1.67,-0.505 -0.361,0.025 -0.378,-0.185 -0.581,-0.366 -0.337,-0.298 -0.407,-0.364 -0.951,-0.503 -0.657,-0.17 -1.218,-0.332 -1.896,-0.276 -0.335,0.028 -0.666,0.049 -0.99,0.144 -0.205,0.061 -0.536,0.317 -0.728,0.324 0.154,-0.005 0.377,-0.048 0.525,-0.007 0.234,0.066 0.198,0.141 0.399,0.221 0.903,0.361 1.671,0.139 2.603,0.382 z" />
					<path
   style="fill:#dcc06d"
   id="path785"
   d="m 186.252,293.854 c 0.215,-0.115 0.417,-0.225 0.651,-0.272 -0.487,0.168 -0.058,0.554 0.224,0.665 0.967,0.379 2.811,-0.34 3.621,-0.817 -0.024,-0.049 -0.059,-0.055 -0.078,-0.111 -0.01,-0.13 0.066,-0.103 0.009,-0.254 0.555,0.02 0.914,-0.337 1.383,-0.559 -0.21,0.215 -0.651,0.798 -0.259,0.976 0.208,0.889 -0.973,0.982 -1.533,1.192 -0.509,0.191 -1.032,0.67 -1.605,0.656 -0.531,-0.014 -1.042,-0.384 -1.477,-0.656 -0.484,-0.302 -0.921,-0.16 -1.07,-0.819" />
				</g>
			</g>
		</g></g></g></svg>
