<?xml version="1.0" encoding="UTF-8" standalone="no"?>
<!-- Generator: Adobe Illustrator 12.0.0, SVG Export Plug-In . SVG Version: 6.00 Build 51448)  -->

<svg
   version="1.0"
   id="Layer_1"
   width="297.60214"
   height="326.88553"
   viewBox="0 0 297.60213 326.88552"
   overflow="visible"
   enable-background="new 0 0 435.687 841.89"
   xml:space="preserve"
   sodipodi:version="0.32"
   inkscape:version="1.4.2 (f4327f4, 2025-05-13)"
   sodipodi:docname="upper_bones_humerus.svg"
   inkscape:output_extension="org.inkscape.output.svg.inkscape"
   style="display:inline;overflow:visible"
   xmlns:inkscape="http://www.inkscape.org/namespaces/inkscape"
   xmlns:sodipodi="http://sodipodi.sourceforge.net/DTD/sodipodi-0.dtd"
   xmlns="http://www.w3.org/2000/svg"
   xmlns:svg="http://www.w3.org/2000/svg"
   xmlns:rdf="http://www.w3.org/1999/02/22-rdf-syntax-ns#"
   xmlns:cc="http://creativecommons.org/ns#"
   xmlns:dc="http://purl.org/dc/elements/1.1/"><metadata
   id="metadata3098"><rdf:RDF><cc:Work
       rdf:about=""><dc:format>image/svg+xml</dc:format><dc:type
         rdf:resource="http://purl.org/dc/dcmitype/StillImage" /></cc:Work><cc:Work
       rdf:about=""><dc:format>image/svg+xml</dc:format><dc:type
         rdf:resource="http://purl.org/dc/dcmitype/StillImage" /></cc:Work></rdf:RDF></metadata><defs
   id="defs3096"><inkscape:perspective
   sodipodi:type="inkscape:persp3d"
   inkscape:vp_x="0 : -94.059466 : 1"
   inkscape:vp_y="0 : 999.99999 : 0"
   inkscape:vp_z="435.687 : -94.059466 : 1"
   inkscape:persp3d-origin="217.84351 : -234.37448 : 1"
   id="perspective3100" />
		
		
		
		
	
		
		
	
		
		
		
		
		
	
	
	

		
		
		
	
			
			
		
				
				
				
				
				
			
	
	
</defs>
<sodipodi:namedview
   inkscape:window-height="1369"
   inkscape:window-width="2560"
   inkscape:pageshadow="2"
   inkscape:pageopacity="0.0"
   guidetolerance="10.0"
   gridtolerance="10.0"
   objecttolerance="10.0"
   borderopacity="1.0"
   bordercolor="#666666"
   pagecolor="#ffffff"
   id="base"
   showgrid="false"
   inkscape:zoom="1.9049022"
   inkscape:cx="120.74111"
   inkscape:cy="219.17136"
   inkscape:window-x="-8"
   inkscape:window-y="-8"
   inkscape:current-layer="layer3"
   showguides="true"
   inkscape:guide-bbox="true"
   inkscape:showpageshadow="2"
   inkscape:pagecheckerboard="0"
   inkscape:deskcolor="#d1d1d1"
   inkscape:window-maximized="1" />
<g
   inkscape:groupmode="layer"
   id="layer3"
   inkscape:label="Skeleton"
   style="display:inline"
   transform="translate(-63.538848,-89.863482)"><g
     id="HumerusLeft"
     inkscape:label="Humerus">
			<path
   d="m 298.512,262.902 c 0.449,5.549 0.893,11.124 0.09,16.665 -0.667,4.608 -0.892,9.146 -1.427,13.792 -0.171,1.481 -0.404,2.972 -0.603,4.448 -0.169,1.243 -0.754,2.29 -1.264,3.459 -0.269,0.621 -0.618,1.2 -0.547,1.908 0.062,0.614 0.581,1.474 0.932,2.007 0.564,0.869 1.386,1.567 2.382,1.883 1.173,0.371 1.915,-0.101 3.021,-0.149 0.094,1.358 -0.271,3.074 0.573,4.272 1.165,1.651 3.25,0.712 4.575,-0.19 0.71,-0.484 1.424,-1.051 1.969,-1.719 0.64,-0.788 1.151,-1.754 2.156,-2.158 1.832,-0.734 3.333,0.548 5.093,0.01 1.726,-0.527 2.043,-1.723 3.57,-2.452 2.468,-1.177 6.786,0.12 7.84,-3.029 0.715,-2.144 -1.13,-3.043 -1.774,-4.353 -1.621,-3.297 -1.808,-7.146 -3.444,-10.446 -1.461,-2.952 -3.702,-5.475 -5.145,-8.437 -1.532,-3.15 -3.038,-6.241 -4.052,-9.611 -2.147,-7.148 -3.212,-13.818 -3.709,-21.226 -0.348,-5.183 -0.849,-10.305 -0.909,-15.548 -0.102,-8.981 -0.392,-17.978 -1.521,-26.897 -0.961,-7.572 -4.36,-16.054 -3.501,-23.658 0.405,-3.585 0.736,-6.836 -0.94,-9.724 -1.801,-3.1 -8.207,-3.128 -6.485,1.394 -0.997,-2.616 -0.178,-4.932 -3.298,-5.861 -4.5,-1.34 -10.09,1.195 -13.038,4.605 -1.866,2.159 -3.217,6.092 -2.651,8.937 1.016,5.109 5.755,2.266 8.214,5.425 0.949,1.221 1.139,3.47 1.813,4.887 1.106,2.332 2.413,4.425 3.239,6.904 1.719,5.162 2.218,10.641 2.938,16.005 2.172,16.217 4.595,32.598 5.903,48.857 z"
   id="path1663"
   style="fill:#f3d48c;stroke:#967348;stroke-width:0.3218" />
			<path
   d="m 288.564,177.18 c 1.997,-1.209 3.275,-2.328 4.585,-5.012 4.341,-8.914 -9.837,-5.594 -13.547,-2.608 -3.518,2.827 -6.491,10.381 -2.242,13.866 0.548,0.449 5.847,2.106 5.858,0.958 0.036,-3.076 0.987,-4.725 3.635,-6.219 0.627,-0.354 1.194,-0.673 1.711,-0.985 z"
   id="path1665"
   style="fill:#e1e2e3;stroke:#967348;stroke-width:0.3218" />
			<path
   d="m 293.839,170.015 c -0.777,1.212 -1.535,2.447 -1.323,3.887 0.642,0.04 0.987,0.476 1.687,0.453 -0.874,2.181 1.811,5.63 2.535,7.867 1.302,4.015 1.437,8.23 2.01,12.335 0.937,6.719 1.378,13.625 2.116,20.409 0.979,-1.853 -0.48,-8.27 -0.639,-10.77 -0.243,-3.818 -0.727,-7.608 -0.765,-11.445 -0.041,-4.012 -0.003,-8.13 -0.616,-12.105 -0.188,-1.218 -2.268,-7.944 1.07,-4.01 0.963,1.137 0.872,3.625 1.13,5.069 0.32,-2.745 1.949,-5.86 0.706,-8.553 -1.196,-2.598 -6.185,-3.482 -6.443,0.198 -0.589,-2.378 -1.996,-1.928 -2.862,-0.103"
   id="path1667"
   style="fill:#dcc06d" />
			<path
   d="m 311.451,304.422 c -1.522,1.395 -3.725,1.56 -5.008,3.723 1.908,-2.512 5.226,-1.999 7.508,-2.454 2.352,-0.469 2.713,-1.674 4.538,-2.568 1.232,-0.604 3.089,0.479 4.355,-0.677 -2.114,0.052 -4.357,-0.23 -4.566,-2.534 -0.173,-1.895 1.637,-2.592 2.015,-3.952 0.52,-1.841 -1.072,-4.022 -1.004,-5.912 0.2,1.211 0.857,3.147 1.666,4.11 0.102,-0.198 0.362,-0.462 0.378,-0.785 0.73,0.955 1.341,2.057 2.092,3.027 0.454,-0.232 0.753,0.23 1.056,0.622 -1.295,-1.993 -1.527,-4.509 -2.603,-6.592 -1.46,-2.832 -3.164,-5.406 -4.464,-8.293 -1.495,-3.327 -3.521,-6.354 -4.806,-9.793 -2.827,-7.59 -3.467,-14.779 -4.717,-22.705 -0.551,-3.486 -1.416,-7.129 -1.551,-10.642 -2.297,7.455 -0.084,16.895 0.358,24.551 0.258,4.479 1.151,8.65 1.986,13.045 0.37,1.945 0.494,4.802 1.524,6.503 -0.205,-1.184 -1.18,-6.936 0.198,-6.941 1.135,-0.005 2.858,3.592 3.284,4.377 1.001,1.841 1.979,4.012 2.485,6.047 0.544,2.19 1.316,4.431 1.35,6.708 0.011,0.731 0.061,1.865 -0.879,1.946 -0.8,0.068 -0.973,-0.769 -1.29,-1.26 -0.725,-1.125 -1.598,-2.146 -2.368,-3.239 -0.692,-0.983 -1.283,-2.214 -1.88,-3.159 0.411,0.654 0.505,1.842 0.792,2.592 0.355,0.916 0.773,1.804 1.189,2.692 0.842,1.799 1.886,3.69 2.238,5.665 0.207,1.144 0.787,3.634 0.306,4.754 -0.58,1.351 -2.96,1.616 -4.182,1.144 z"
   id="path1669"
   style="fill:#dcc06d" />
			<path
   d="m 311.549,292.796 c -0.131,-0.212 -0.267,-0.423 -0.412,-0.63 -0.866,-1.25 -1.211,-2.559 -1.909,-3.851 0.646,1.693 1.502,3.28 1.956,5.05 0.188,0.726 0.548,1.73 0.505,2.482 -0.017,0.289 -0.4,0.757 -0.382,0.971 0.084,0.859 0.855,1.595 0.583,2.674 -0.605,2.417 -2.592,1.187 -3.127,-0.447 -0.46,-1.402 0.018,-3.457 -0.562,-4.707 0.513,1.109 -0.08,3.199 -0.199,4.401 -0.088,0.858 -0.378,1.748 -0.357,2.612 0.026,1.111 0.187,1.061 1.241,1.227 1.084,0.168 2.423,0.214 3.449,-0.241 3.111,-1.381 1.696,-4.927 0.583,-7.042 -0.446,-0.847 -0.868,-1.689 -1.369,-2.499 z"
   id="path1671"
   style="fill:#ccb25c" />
			<path
   d="m 301.58,303.891 c -0.804,-0.762 -0.591,-3.809 -0.559,-4.913 0.016,1.349 0.32,3.785 -0.364,5.001 -0.259,0.464 -0.617,0.911 -1.295,0.521 -0.144,-0.082 -0.911,-0.99 -0.454,-1.095 -3.148,0.727 -2.104,-1.826 -1.92,-3.71 -0.115,1.094 -1.344,2.183 -1.585,3.273 -0.217,0.979 0.391,1.723 1.144,2.272 1.003,0.734 2.24,1.156 3.47,0.866 0.563,-0.132 2.54,-1.517 2.97,-0.664 -0.493,-0.98 -0.861,-2.026 -0.886,-3.117 -0.187,0.496 -0.293,1.067 -0.521,1.566 z"
   id="path1673"
   style="fill:#ccb25c" />
			<path
   d="m 321.095,303.456 c 2.423,-0.62 5.552,-3.51 3.109,-5.969 3.575,1.964 1.116,6.271 -2.396,5.604"
   id="path1675"
   style="fill:#ccb25c" />
			<path
   d="m 296.372,172.847 c -2.59,1.753 -1.744,4.324 -1.092,6.891 0.831,3.276 1.132,7.061 2.379,10.152 -0.131,-3.674 -0.831,-7.431 -1.138,-11.072 -0.165,-1.903 -0.917,-4.193 -0.149,-5.971"
   id="path1677"
   style="fill:#ccb25c" />
		</g><g
     id="HumerusRight"
     inkscape:label="Humerus">
			<path
   d="m 103.302,252.136 c 0.528,-1.607 1.159,-3.144 1.735,-4.758 5.387,-15.065 7.826,-31.198 14.124,-46.038 1.429,-3.366 2.402,-6.956 4.455,-10.031 1.574,-2.358 3.904,-4.184 5.739,-6.159 4.349,-4.679 2.861,-11.644 -2.782,-14.67 -6.795,-3.645 -10.923,-1.486 -16.448,2.798 -6.44,-1.523 -6.146,7.97 -6.174,11.872 -0.03,4.136 -10e-4,8.859 -0.597,12.929 -1.759,11.999 -3.774,24.344 -7.438,35.896 -2.137,6.741 -5.718,12.973 -7.92,19.597 -3.716,11.178 -7.78,22.088 -12.568,32.845 -1.657,3.72 -5.607,6.393 -7.161,10.032 -1.217,2.851 -0.338,5.11 1.768,7.373 2.075,2.228 3.943,1.158 6.424,0.759 2.146,-0.345 2.381,2.076 4.353,2.622 1.385,0.383 2.877,-0.245 4.234,0.114 1.449,0.383 2.959,1.714 4.338,2.355 1.06,0.493 2.519,0.609 3.572,10e-4 1.437,-0.83 1.213,-3.024 2.31,-4.128 1.547,-1.557 3.645,0.577 5.28,-1.322 1.518,-1.763 1.177,-4.571 2.032,-6.629 -0.24,0.577 -6.527,-7.297 -6.826,-8.675 -0.356,-1.645 0.261,-2.739 0.475,-4.336 0.365,-2.716 -0.087,-5.512 -0.049,-8.247 0.113,-8.091 4.566,-15.461 6.804,-23.163 0.1,-0.351 0.208,-0.695 0.32,-1.037 z"
   id="path1723"
   style="fill:#f3d48c;stroke:#967348;stroke-width:0.3218" />
			<path
   d="m 120.136,177.361 c -3.004,4.813 -1.293,11.668 -2.531,17.044 1.873,-3.228 -0.837,-9.583 2.084,-12.341 1.023,1.212 2.869,0.578 2.743,-0.769 1.578,-2.488 4.299,0.344 5.865,1.026 0.493,-3.004 -3.422,-12.815 -7.179,-7.954 -1.826,-2.731 -5.49,-3.134 -7.769,-0.711 -0.837,0.889 -1.466,2.088 -1.342,3.345 0.041,0.406 1.678,3.439 1.995,2.954 -0.182,0.278 -0.305,0.697 -0.52,0.983 2.893,2.35 -1.04,9.763 0.217,11.085"
   id="path1725"
   style="fill:none;stroke:#967348;stroke-width:0.3218" />
			<path
   d="m 70.43,296.439 c 3.268,-1.71 5.417,0.362 7.39,2.739 2.478,-0.576 3.479,-0.545 5.651,0.771 0.911,0.551 0.604,0.854 1.597,0.943 0.81,0.073 1.715,-0.602 2.623,-0.601 2.95,0.003 6.302,5.072 3.869,7.507 0.125,0.025 0.213,0.408 0.213,0.504 0.229,-0.217 0.731,-0.52 0.959,-0.743 0.067,0.914 -0.539,1.645 -1.239,2.096 0.795,-2.249 -1.98,-3.044 -3.788,-3.618 1.565,1.66 3.377,-0.526 2.626,-2.261 -0.566,-1.311 -2.686,-1.785 -3.888,-1.864 0.092,-0.14 0.328,-0.383 0.415,-0.483 -1.173,-0.769 -2.211,0.169 -3.413,0.16 -0.434,-0.004 -1.885,-1.749 -3.012,-1.728 -1.517,0.03 -2.793,1.037 -3.1,2.523 -0.288,-0.036 -0.439,-0.164 -0.753,-0.172 -0.294,0.915 -0.538,1.738 -0.796,2.691 -0.629,-1.536 -0.141,-8.272 -3.157,-7.07 -0.093,-1.755 -1.696,-2.092 -3.271,-1.396"
   id="path1727"
   style="fill:#dcc06d" />
			<path
   d="m 81.212,273.961 c -2.921,6.839 -6.089,13.585 -9.744,20.206 1.829,-3.313 5.737,1.146 5.12,1.869 2.135,-2.504 3.086,-1.001 5.524,0.374 -4.682,-8.115 -2.27,-12.024 0.853,-19.889 0.083,0.593 0.271,0.797 0.419,1.295 1.708,-1.719 2.467,-5.924 3.139,-8.295 0.89,-3.143 1.976,-6.434 2.43,-9.652 0.784,-5.541 2.547,-11.665 4.398,-16.879 -4.016,10.463 -7.803,20.821 -12.139,30.971 z"
   id="path1729"
   style="fill:#dcc06d" />
			<path
   d="m 93.976,297.816 c 0.011,-3.838 -1.453,-7.511 -1.028,-11.65 0.459,-4.45 0.94,-9.843 2.452,-13.922 -1.367,4.63 -2.638,9.308 -3.421,14.076 -0.359,2.172 -3.526,12.78 1.997,11.496 z"
   id="path1731"
   style="fill:#dcc06d" />
			<path
   d="m 85.091,297.513 c 0.4,-2.029 0.705,-4.545 1.717,-6.334 0.086,2.859 0.933,5.61 1.717,8.373 -1.031,-1.229 -2.143,-2.483 -2.074,-4.155 -0.553,0.738 -0.984,1.829 -1.36,2.832"
   id="path1733"
   style="fill:#dcc06d" />
			<path
   d="m 97.574,297.783 c 0.376,-1.329 0.369,-2.654 -0.272,-3.094 2.66,1.826 5.264,5.415 2.479,8.583 -3.187,3.622 -4.033,-1.015 -5.876,-2.65 1.526,1.354 3.075,-0.745 3.669,-2.839 z"
   id="path1735"
   style="fill:#dcc06d" />
			<path
   d="m 117.991,183.439 c -3.243,1.424 -2.052,8.318 -2.502,11.819 -0.584,4.541 -0.807,8.844 -2.227,13.223 -4.21,12.989 -8.361,26.202 -10.656,39.582 3.468,-13.428 8.211,-26.259 12.263,-39.537 1.398,-4.583 2.407,-7.659 2.407,-12.553 0,-4.134 0.267,-8.403 -0.074,-12.505 -0.358,0.119 -0.358,0.373 -0.642,0.687"
   id="path1737"
   style="fill:#dcc06d" />
			<path
   d="m 125.499,180.935 c -0.84,-0.168 -1.522,-0.126 -2.09,0.449 1.772,2.901 -1.164,5.439 -2.101,8.223 -1.145,3.397 -2.039,6.762 -3.165,10.17 2.379,-4.484 3.542,-8.485 7.339,-12.118 1.129,-1.081 4.249,-2.931 4.67,-4.418 0.583,-2.053 -2.052,-3.804 -3.562,-4.516 -3.325,-1.57 -5.1,-0.843 -6.474,2.406 1.475,-2.86 9.294,-1.433 7.756,1.917 -1.918,0.195 -1.214,-2.776 -3.804,-2.113"
   id="path1739"
   style="fill:#dcc06d" />
			<path
   d="m 110.481,174.141 c -0.921,-0.506 -1.92,-0.537 -2.718,0.002 0.076,0.176 0.379,0.203 0.448,0.428 -3.189,2.941 -2.227,7.876 -2.412,11.756 -0.282,5.887 -1.398,11.7 -1.755,17.583 -0.25,4.117 -0.861,8.344 -1.812,12.318 2.217,-4.174 3.557,-10.261 4.235,-14.91 0.697,-4.773 2.072,-9.865 1.871,-14.712 -0.18,-4.33 -0.792,-7.593 1.429,-11.75"
   id="path1741"
   style="fill:#dcc06d" />
			<path
   d="m 126.921,175.762 c 0.886,1.536 1.342,3.378 1.206,4.95 -0.106,1.23 -1.806,4.518 -0.688,5.594 0.097,0.094 0.194,0.19 0.289,0.288 5.33,-1.652 6.798,-9.293 4.476,-13.813 -2.378,-4.628 -9.995,-6.424 -14.482,-4.711 -6.893,2.631 1.741,4.14 3.01,6.938 -0.015,-0.031 1.876,-2.071 2.27,-2.16 0.98,-0.222 1.678,0.377 2.36,0.974 0.606,0.532 1.132,1.199 1.559,1.94 z"
   id="path1743"
   style="fill:#e1e2e3;stroke:#967348;stroke-width:0.3218" />
			<path
   d="m 120.41,177.725 c -0.579,0.91 -0.692,2.134 -0.496,3.177 1.298,0.241 2.656,-0.228 3.887,-0.514 -0.934,0.798 -1.68,1.626 -2.816,1.967 -0.817,0.245 -1.042,-0.676 -1.93,0.185 -0.292,0.283 -0.725,3.269 -0.805,3.694 -0.314,1.671 -0.255,3.388 -0.254,5.1 0,-3.698 -0.277,-9.954 1.877,-13.072"
   id="path1745"
   style="fill:#ccb25c" />
			<path
   d="m 126.847,184.698 c -0.394,2.252 0.423,1.693 -1.073,3.48 -1.65,1.971 -3.256,3.985 -5.069,5.817 1.049,-2.38 3.143,-5.02 4.708,-7.165 -0.154,-0.059 -0.438,-0.177 -0.62,-0.247 0.324,-0.276 0.716,-0.851 0.956,-1.031 -1.227,-1.287 -3.396,3.888 -3.616,4.515 0.501,-2.645 2.667,-4.846 3.908,-6.442"
   id="path1747"
   style="fill:#ccb25c" />
			<path
   d="m 109.951,176.384 c -4.139,-0.266 -2.477,7.998 -2.414,10.383 -0.052,-3.393 0.82,-7.826 2.951,-10.383"
   id="path1749"
   style="fill:#ccb25c" />
			<path
   d="m 99.454,298.606 c -0.125,1.083 -0.995,2.185 -2.109,2.238 -1.7,0.083 -4.187,-1.692 -5.879,-2.094 -1.237,-0.293 -5.235,-1.265 -4.836,-3.207 -0.496,2.417 -6.338,0.497 -8.112,-0.001 -1.43,-0.402 -2.204,-0.991 -3.7,-0.876 -1.204,0.093 -2.372,0.651 -3.511,0.959 1.525,-1.813 6.377,-1.048 6.983,1.298 1.771,-0.678 3.409,0.007 5.052,0.753 1.433,0.65 1.176,0.656 2.74,0.73 2.19,0.103 11.695,1.828 8.898,6.138 1.442,-2.223 3.649,0.735 5.1,-2.085 0.915,-1.779 0.182,-3.95 -1.038,-5.311 0.356,0.398 0.473,0.927 0.412,1.458 z"
   id="path1751"
   style="fill:#ccb25c" />
		</g></g></svg>
