<?xml version="1.0" encoding="UTF-8" standalone="no"?>
<!-- Generator: Adobe Illustrator 12.0.0, SVG Export Plug-In . SVG Version: 6.00 Build 51448)  -->

<svg
   version="1.0"
   id="Layer_1"
   width="297.60214"
   height="326.88553"
   viewBox="0 0 297.60213 326.88552"
   overflow="visible"
   enable-background="new 0 0 435.687 841.89"
   xml:space="preserve"
   sodipodi:version="0.32"
   inkscape:version="1.4.2 (f4327f4, 2025-05-13)"
   sodipodi:docname="upper_bones_radius.svg"
   inkscape:output_extension="org.inkscape.output.svg.inkscape"
   style="display:inline;overflow:visible"
   xmlns:inkscape="http://www.inkscape.org/namespaces/inkscape"
   xmlns:sodipodi="http://sodipodi.sourceforge.net/DTD/sodipodi-0.dtd"
   xmlns="http://www.w3.org/2000/svg"
   xmlns:svg="http://www.w3.org/2000/svg"
   xmlns:rdf="http://www.w3.org/1999/02/22-rdf-syntax-ns#"
   xmlns:cc="http://creativecommons.org/ns#"
   xmlns:dc="http://purl.org/dc/elements/1.1/"><metadata
   id="metadata3098"><rdf:RDF><cc:Work
       rdf:about=""><dc:format>image/svg+xml</dc:format><dc:type
         rdf:resource="http://purl.org/dc/dcmitype/StillImage" /></cc:Work><cc:Work
       rdf:about=""><dc:format>image/svg+xml</dc:format><dc:type
         rdf:resource="http://purl.org/dc/dcmitype/StillImage" /></cc:Work></rdf:RDF></metadata><defs
   id="defs3096"><inkscape:perspective
   sodipodi:type="inkscape:persp3d"
   inkscape:vp_x="0 : -94.059466 : 1"
   inkscape:vp_y="0 : 999.99999 : 0"
   inkscape:vp_z="435.687 : -94.059466 : 1"
   inkscape:persp3d-origin="217.84351 : -234.37448 : 1"
   id="perspective3100" />
		
		
		
		
	
		
		
	
		
		
		
		
		
	
	
	

		
		
		
	
			
			
		
				
				
				
				
				
			
	
	
</defs>
<sodipodi:namedview
   inkscape:window-height="1369"
   inkscape:window-width="2560"
   inkscape:pageshadow="2"
   inkscape:pageopacity="0.0"
   guidetolerance="10.0"
   gridtolerance="10.0"
   objecttolerance="10.0"
   borderopacity="1.0"
   bordercolor="#666666"
   pagecolor="#ffffff"
   id="base"
   showgrid="false"
   inkscape:zoom="2.6939385"
   inkscape:cx="106.53547"
   inkscape:cy="155.71996"
   inkscape:window-x="-8"
   inkscape:window-y="-8"
   inkscape:current-layer="layer3"
   showguides="true"
   inkscape:guide-bbox="true"
   inkscape:showpageshadow="2"
   inkscape:pagecheckerboard="0"
   inkscape:deskcolor="#d1d1d1"
   inkscape:window-maximized="1" />
<g
   inkscape:groupmode="layer"
   id="layer3"
   inkscape:label="Skeleton"
   style="display:inline"
   transform="translate(-63.538848,-89.863482)"><g
     id="RadiusLeft"
     inkscape:label="Radius">
			<path
   d="m 342.383,407.233 c 0.311,0.63 0.812,1.191 1.597,1.648 2.606,1.512 5.394,-0.22 7.979,-0.831 2.945,-0.696 6.781,0.573 8.377,-2.508 1.48,-2.858 0.146,-6.236 -1.407,-8.759 -2.099,-3.416 -3.528,-7.085 -4.615,-10.948 -1.205,-4.283 -2.169,-8.623 -3.487,-12.926 -0.614,-2.008 -1.344,-3.993 -2.005,-5.962 -1.137,-3.393 -1.696,-6.788 -3.12,-10.061 -1.664,-3.815 -2.994,-7.762 -4.737,-11.549 -3.313,-7.202 -7.346,-14.216 -10.286,-21.56 -1.765,-4.404 -1.978,-9.238 -1.786,-13.93 0.071,-1.684 1.225,-4.472 -0.136,-5.854 -1.54,-1.562 -3.66,-0.896 -5.253,0.021 -1.562,0.899 -3.41,0.435 -5.002,1.437 -1.612,1.019 -2.099,2.796 -0.914,4.345 0.497,0.65 1.303,0.993 1.748,1.717 0.593,0.958 0.571,2.096 0.71,3.177 0.305,2.378 0.23,4.804 0.267,7.255 0.044,2.9 1.154,3.788 2.354,6.169 3.115,6.188 4.178,13.195 7.368,19.388 3.736,7.255 7.279,14.63 9.109,22.629 0.834,3.646 2.412,6.879 2.822,10.629 0.505,4.605 0.072,9.248 0.072,13.864 -0.003,2.322 0,4.645 0,6.968 0,1.922 -0.458,4.012 0.345,5.641 z"
   id="path1689"
   style="fill:#f3d48c;stroke:#967348;stroke-width:0.3218" />
			<path
   d="m 328.424,306.613 c -1.088,3.373 -0.945,6.396 -0.396,10.012 0.583,3.798 2.956,7.616 3.234,11.335 -2.481,-3.023 -4.287,-5.104 -4.22,-8.823 0.056,-2.891 0.834,-7.825 -0.357,-10.343 -1.368,0.322 -2.075,1.324 -3.251,1.432 -1.269,0.119 -2.057,-1.194 -3.604,-0.536 0.809,-1.24 1.497,-0.825 2.559,-1.371 0.041,-0.02 6.517,-3.203 6.035,-1.706 z"
   id="path1691"
   style="fill:#dcc06d" />
			<path
   d="m 331.327,337.365 c 4.007,3.569 6.065,13.107 7.431,18.219 1.249,4.688 1.871,9.387 1.865,14.214 -0.031,-3.953 -2.055,-7.753 -2.484,-11.675 -0.281,-2.569 -1.101,-5.121 -1.896,-7.599 -1.297,-4.039 -1.58,-9.817 -4.202,-13.159"
   id="path1693"
   style="fill:#dcc06d" />
			<path
   d="m 353.141,393.865 c 1.725,2.22 4.046,6.802 1.552,9.047 0.304,0.155 0.566,0.196 0.898,0.313 -0.081,0.488 0.144,1.173 0.106,1.67 8.284,1.351 -1.352,-14.843 -2.211,-17.002 -0.09,0.246 -0.254,0.705 -0.329,0.939 -5.127,-3.812 -2.988,-15.732 -6.49,-21.33 1.229,5.444 2.941,11.071 4.247,16.626 0.793,3.37 1.42,7.505 3.299,10.451"
   id="path1695"
   style="fill:#dcc06d" />
		</g><g
     id="RadiusRight"
     inkscape:label="Radius">
			<path
   d="m 67.924,311 c 0.842,0.966 2.541,0.996 3.244,2.047 0.864,1.288 0.334,3.732 0.499,5.302 0.162,1.564 0.417,3.311 1.142,4.728 1.013,1.975 2.588,2.037 3.848,3.499 2.703,3.14 3.985,10.283 4.666,14.294 1.137,6.715 1.161,13.222 1.597,20.069 0.207,3.263 -0.134,6.491 -0.074,9.768 0.098,5.384 -1.009,10.54 -0.98,15.893 0.026,4.669 0.113,9.46 -2.044,13.741 -1.101,2.185 -6.014,6.593 -2.289,8.82 -3.062,3.197 2.857,9.243 5.236,4.429 -0.136,0.275 3.615,3.494 4.921,-0.388 0.576,-1.716 -0.057,-3.165 -0.019,-4.907 1.077,2.023 0.378,3.58 0.523,5.616 0.083,1.169 -0.692,1.018 0.687,1.867 0.597,0.369 1.372,0.535 2.02,0.209 2.626,-1.319 0.598,-6.47 0.715,-8.618 0.254,-4.692 -1.081,-9.382 -0.896,-14.179 0.223,-5.815 0.729,-11.628 0.778,-17.448 0.054,-6.305 0.917,-12.672 0.074,-18.922 -0.408,-3.035 -1.196,-5.619 -1.376,-8.693 -0.186,-3.142 -0.673,-6.263 -1.443,-9.314 -1.144,-4.529 -2.356,-8.818 -4.407,-12.936 -1.188,-2.386 -1.376,-5.132 -2.524,-7.529 -1.435,-2.997 -3.104,-4.857 -3.342,-8.446 -0.14,-2.101 0.658,-3.825 -1.7,-4.912 -2.952,-1.358 -12.479,1.863 -8.856,6.01 z"
   id="path1779"
   style="fill:#f3d48c;stroke:#967348;stroke-width:0.3218" />
			<path
   d="m 78.202,308.404 c -0.516,1.375 -2.323,1.899 -3.661,2.083 -0.709,0.099 -4.437,0.348 -4.909,-0.027 0.188,0.15 1.252,0.955 1.487,0.802 -0.116,0.076 -0.364,0.187 -0.482,0.267 2.023,1.491 3.682,3.451 4.064,6.153 0.186,1.317 0.237,2.81 0.477,4.096 0.253,1.366 0.62,2.279 1.34,3.883 0.475,-3.795 -1.039,-7.767 -0.745,-11.719 0.034,-0.447 -0.217,-1.459 0.055,-1.824 0.433,-0.579 1.197,0.021 1.561,-0.377 0.854,-0.937 0.843,-1.925 0.813,-3.337 z"
   id="path1781"
   style="fill:#dcc06d" />
			<path
   d="m 84.028,407.563 c -0.937,1.296 -3.804,3.621 -3.629,5.384 0.204,2.046 1.807,0.198 2.353,-0.579 0.925,-1.319 0.605,-3.877 1.276,-4.805 z"
   id="path1783"
   style="fill:#dcc06d" />
			<path
   d="m 88.111,413.978 c 1.152,-3.106 -0.055,-6.859 -1.013,-9.929 -0.793,-2.542 -1.106,-4.769 -1.387,-7.504 -0.368,-3.574 -1.496,-6.926 -1.355,-10.681 0.122,-3.224 1.369,-6.677 1.073,-9.888 0,5.132 -0.931,11.168 0.863,15.982 0.241,-0.227 0.805,-0.347 0.968,-0.474 0.175,2.316 1.362,3.945 1.91,5.906 0.678,2.428 0.767,5.021 1.08,7.469 0.316,2.466 2.42,9.275 -1.563,9.346 -0.162,-0.719 -0.085,-1.489 0.229,-2.104"
   id="path1785"
   style="fill:#dcc06d" />
			<path
   d="m 78.456,327.887 c 0.538,2.109 2.265,4.052 2.957,6.161 0.622,1.896 1.068,3.997 1.669,5.961 1.049,3.429 2.527,7.603 2.406,11.19 0.694,-1.717 -2.317,-4.258 -2.472,-1.816 -1.039,-6.609 -1.339,-13.892 -4.023,-20.154"
   id="path1787"
   style="fill:#dcc06d" />
			<path
   d="m 69.605,309.918 c 0.99,2.092 3.137,0.771 4.782,1.119 0.03,0.148 0.061,0.296 0.091,0.445 0.271,-0.022 0.713,0.019 0.987,0.086 0,0.708 0.177,1.411 0.51,2.031 0.095,-2.623 1.407,-1.573 2.233,0 -0.043,-1.443 -0.199,-3.094 -0.61,-4.458 -1.509,1.415 -6.045,1.547 -7.993,0.777"
   id="path1789"
   style="fill:#ccb25c" />
			<path
   d="m 90.046,408.675 c 0.485,2.814 -1.039,7.791 -1.485,2.513 -0.175,-2.066 -0.664,-3.928 -1.456,-5.852 -1.148,-2.789 -0.872,-5.946 -0.872,-8.977 -0.284,4.68 3.077,8.028 3.813,12.316 z"
   id="path1791"
   style="fill:#ccb25c" />
			<path
   d="m 80.065,413.441 c -0.351,0.673 -0.323,1.254 0.047,1.837 1.016,-0.185 2.555,-1.539 2.883,-2.621 -1.331,0.548 -2.109,1.92 -3.734,1.052"
   id="path1793"
   style="fill:#ccb25c" />
			<path
   d="m 79.528,330.569 c 0.927,1.817 1.115,3.869 1.395,5.815 0.161,-0.16 0.274,-0.318 0.416,-0.431 1.766,3.412 2.457,6.721 3.271,10.372 0.646,2.903 0.018,6.945 1.028,9.433 0.11,-5.063 -0.203,-9.345 -1.608,-14.193 -0.79,-2.721 -1.688,-8.529 -3.965,-10.191"
   id="path1795"
   style="fill:#ccb25c" />
			<path
   d="m 77.115,405.665 c -1.852,2.453 0.697,3.746 2.058,0.624 -0.697,0.381 -1.565,0.636 -2.327,0.18"
   id="path1797"
   style="fill:#ccb25c" />
		</g></g></svg>
