<?xml version="1.0" encoding="UTF-8" standalone="no"?>
<!-- Generator: Adobe Illustrator 12.0.0, SVG Export Plug-In . SVG Version: 6.00 Build 51448)  -->

<svg
   version="1.0"
   id="Layer_1"
   width="297.60214"
   height="326.88553"
   viewBox="0 0 297.60213 326.88552"
   overflow="visible"
   enable-background="new 0 0 435.687 841.89"
   xml:space="preserve"
   sodipodi:version="0.32"
   inkscape:version="1.4.2 (f4327f4, 2025-05-13)"
   sodipodi:docname="upper_bones_scapula.svg"
   inkscape:output_extension="org.inkscape.output.svg.inkscape"
   style="display:inline;overflow:visible"
   xmlns:inkscape="http://www.inkscape.org/namespaces/inkscape"
   xmlns:sodipodi="http://sodipodi.sourceforge.net/DTD/sodipodi-0.dtd"
   xmlns="http://www.w3.org/2000/svg"
   xmlns:svg="http://www.w3.org/2000/svg"
   xmlns:rdf="http://www.w3.org/1999/02/22-rdf-syntax-ns#"
   xmlns:cc="http://creativecommons.org/ns#"
   xmlns:dc="http://purl.org/dc/elements/1.1/"><metadata
   id="metadata3098"><rdf:RDF><cc:Work
       rdf:about=""><dc:format>image/svg+xml</dc:format><dc:type
         rdf:resource="http://purl.org/dc/dcmitype/StillImage" /></cc:Work><cc:Work
       rdf:about=""><dc:format>image/svg+xml</dc:format><dc:type
         rdf:resource="http://purl.org/dc/dcmitype/StillImage" /></cc:Work></rdf:RDF></metadata><defs
   id="defs3096"><inkscape:perspective
   sodipodi:type="inkscape:persp3d"
   inkscape:vp_x="0 : -94.059466 : 1"
   inkscape:vp_y="0 : 999.99999 : 0"
   inkscape:vp_z="435.687 : -94.059466 : 1"
   inkscape:persp3d-origin="217.84351 : -234.37448 : 1"
   id="perspective3100" />
		
		
		
		
	
		
		
	
		
		
		
		
		
	
	
	

		
		
		
	
			
			
		
				
				
				
				
				
			
	
	
</defs>
<sodipodi:namedview
   inkscape:window-height="1369"
   inkscape:window-width="2560"
   inkscape:pageshadow="2"
   inkscape:pageopacity="0.0"
   guidetolerance="10.0"
   gridtolerance="10.0"
   objecttolerance="10.0"
   borderopacity="1.0"
   bordercolor="#666666"
   pagecolor="#ffffff"
   id="base"
   showgrid="false"
   inkscape:zoom="1.9049022"
   inkscape:cx="120.74111"
   inkscape:cy="219.17136"
   inkscape:window-x="-8"
   inkscape:window-y="-8"
   inkscape:current-layer="layer3"
   showguides="true"
   inkscape:guide-bbox="true"
   inkscape:showpageshadow="2"
   inkscape:pagecheckerboard="0"
   inkscape:deskcolor="#d1d1d1"
   inkscape:window-maximized="1" />
<g
   inkscape:groupmode="layer"
   id="layer3"
   inkscape:label="Skeleton"
   style="display:inline"
   transform="translate(-63.538848,-89.863482)"><g
     style="display:inline;overflow:visible"
     id="Scapula"
     inkscape:label="Scapula">
	<g
   id="g543">
		<g
   id="g545">
			<path
   d="m 258.002,162.278 c -1.657,2.816 -2.167,4.011 -5.769,3.44 -2.727,-0.434 -6.087,-1.1 -8.372,-2.761 -0.782,-0.571 -1.325,-1.957 -2.199,-2.375 -1.875,-0.896 -3.826,1.262 -4.767,2.761 -1.147,1.833 -1.933,4.799 -1.942,6.914 -0.01,1.507 0.499,3.003 0.742,4.475 0.422,2.537 -0.071,4.549 -0.153,6.979 -0.361,10.352 -2.628,21.469 1.084,31.517 0.99,2.677 2.15,6.322 4.285,8.254 2.52,2.279 6.396,2.752 9.624,2.938 3.318,0.188 5.477,-1.139 8.567,-2.945 4.282,-2.503 4.012,-4.587 5.88,-8.915 1.562,-3.617 3.38,-6.976 5.312,-10.388 1.966,-3.477 4.402,-6.194 6.777,-9.371 0.848,-1.134 1.673,-2.335 2.608,-3.442 0.58,-0.685 2.22,-1.935 2.554,-2.676 0.891,-1.979 -2.222,-2.518 -3.029,-4.82 -0.555,-1.584 -0.762,-3.847 -0.551,-5.509 0.185,-1.441 1.301,-2.922 1.374,-4.292 0.105,-1.988 -2.588,-4.495 -4.552,-5.083 1.172,-1.982 4.371,-4.048 6.663,-4.565 3.298,-0.744 6.757,0.101 9.938,-0.458 3.257,-0.57 4.293,-4.115 2.689,-6.657 -1.828,-2.898 -5.89,-5.62 -9.118,-6.838 -1.576,-0.594 -5.814,-1.561 -7.193,0.141 -0.808,0.994 0.119,2.283 0.213,3.425 0.13,1.637 -0.245,2.407 -1.402,3.487 -1.797,1.682 -4.707,3.666 -7.305,3.386 2.123,0.775 2.513,5.301 0.511,6.412 0.829,-1.449 1.774,-1.672 1.393,-3.597 -0.476,-2.396 -3.202,-3.893 -5.467,-4.048 -1.454,-0.1 -2.677,-0.105 -4.091,0.575 -1.742,0.84 -3.331,2.384 -4.304,4.036 z"
   id="path547"
   style="fill:#f9ce82;stroke:#967348;stroke-width:0.3218" />
			<path
   d="m 262.69,199.166 c -0.027,-0.285 -0.038,-0.574 -0.027,-0.871 0.091,-2.233 1.789,-3.387 2.551,-5.348 0.17,-0.432 0.87,-1.497 0.492,-1.989 -0.159,-0.209 -1.36,-0.827 -1.492,-0.367 0.61,-2.115 1.784,-4.392 2.444,-6.65 0.351,-1.205 1.908,-4.283 1.206,-5.537 -0.569,-1.016 -2.478,-0.933 -3.393,-1.43 0.467,-0.91 1.384,-1.8 1.837,-2.713 -1.026,-0.602 -3.581,-0.22 -3.417,1.313 0.198,0.097 0.364,0.181 0.475,0.255 -0.975,0.119 -2.007,0.261 -2.697,0.864 0.162,0.212 0.374,0.586 0.539,0.75 -2.938,0.093 -6.849,-1.952 -8.621,-4.237 -0.727,-0.938 -1.015,-1.61 -2.06,-2.36 -0.944,-0.677 -2.092,-0.797 -2.698,-1.829 3.063,0.625 5.238,1.399 8.002,2.854 1.408,0.743 2.252,1.202 3.963,1.028 -0.483,-1.711 -2.589,-2.37 -3.064,-4.043 -0.371,-1.306 0.552,-3.528 1.079,-4.768 1.585,-3.734 4.564,-5.341 8.226,-5.853 -1.483,1.148 -0.901,2.268 0.298,3.373 0.995,0.918 3.434,1.656 1.985,-0.444 0.65,0.451 1.393,0.473 1.981,0.001 0.065,1.632 1.851,2.745 0.424,4.152 -0.712,0.701 -2.241,0.485 -3.129,0.567 -0.957,0.086 -2.352,-0.12 -3.161,0.545 -1.211,0.996 -0.161,2.052 -0.729,3.002 0.512,-0.856 1.845,-1.496 2.813,-1.653 0.543,-0.09 3.621,0.802 3.563,0.841 0.778,-0.532 1.027,-1.351 0.567,-2.104 2.66,-3.563 15.167,-5.379 14.972,-10.647 0.593,0.396 1.264,0.84 1.837,1.219 0.735,-1.847 0.403,-5.339 -1.192,-6.642 2.198,0.759 3.938,3.817 5.35,5.597 0.723,0.911 2.44,2.806 1.883,4.029 -0.584,1.285 -3.509,1.22 -4.712,1.081 -3.604,-0.417 -4.938,-0.863 -8.241,0.986 -2.63,1.471 -4.858,3.538 -7.415,4.947 0.866,1.275 -0.697,2.871 -1.619,3.902 2.477,-2.233 5.501,-3.357 6.814,0.715 1.167,3.615 -2.823,5.953 -2.646,9.329 0.054,1.015 3.441,4.623 4.406,3.783 0.307,-0.268 0.429,-0.165 0.697,-0.293 -0.367,0.844 0.119,1.142 1.071,1.071 -0.185,0.014 -3.439,4.993 -3.946,5.524 -1.715,1.8 -3.713,3.339 -5.366,5.195 -2.729,3.066 -4.197,6.633 -6.155,10.164 -1.066,1.926 -1.94,3.911 -2.81,5.902 -2.588,5.941 -5.229,11.207 -12.459,11.251 -2.751,0.017 -7.014,0.408 -7.608,-3.116 1.725,0.697 3.471,1.944 5.354,1.567 1.547,-0.309 3.278,-1.855 4.443,-2.845 2.789,-2.371 5.075,-5.426 6.727,-8.685 1.175,-2.324 2.542,-4.871 2.965,-7.47 0.226,-1.405 -0.188,-2.615 -0.307,-3.913 z"
   id="path549"
   style="fill:#dcc06d" />
			<path
   d="m 264.522,166.529 c 1.931,-0.418 4.641,0.202 6.3,-0.892 2.141,-1.409 1.456,-3.938 0.309,-5.731 4.376,6.848 -9.392,3.62 -8.295,1.047 -0.433,1.021 -0.391,2.411 0.445,3.141 -1.876,0.939 -3.235,4.487 -1.027,5.868 -0.072,-2.32 0.901,-3.137 2.268,-3.433 z"
   id="path551"
   style="fill:#ccb25c" />
			<path
   d="m 286.446,157.116 c 1.704,-0.61 3.875,-0.537 4.786,1.051 -1.071,-3.833 -4.526,-8.611 -8.978,-8.311 0.396,0.894 -2.127,2.566 -1.937,4.499 1.666,-1.764 5.153,-0.521 6.096,1.382 -0.141,0.057 -0.286,0.067 -0.434,0.031 1.057,0.414 2.574,0.236 2.574,1.576 -0.59,0.192 -0.963,-0.013 -1.305,-0.227"
   id="path553"
   style="fill:#ccb25c" />
			<path
   d="m 239.792,214.15 c -1.8,-5.183 -0.793,-11.938 -0.081,-17.321 0.339,-2.561 0.171,-4.617 -1.201,-6.749 0.685,1.065 -0.842,7.042 -0.742,8.624 0.333,5.178 1.606,10.25 2.024,15.446 z"
   id="path555"
   style="fill:#dcc06d" />
		</g>
		<g
   id="g557">
			<path
   d="m 151.19,160.02 c 0.465,2.88 -1.493,5.753 -1.134,8.575 0.288,2.253 1.973,-0.034 2.617,-1.288 0.45,-0.873 0.673,-1.947 1.337,-2.667 1.136,-1.232 2.046,-0.733 3.499,-1.276 2.773,-1.04 4.704,-3.456 7.114,-4.757 2.436,-1.315 4.552,-2.218 6.234,0.587 1.461,2.438 0.701,5.886 -0.065,8.363 -2.142,6.917 -3.364,13.727 -2.145,20.716 0.671,3.849 1.893,8.167 1.668,12.092 -0.228,3.99 -2.426,5.863 -4.163,9.023 -1.99,3.619 -0.822,8.662 -3.501,11.897 -2.725,3.291 -8.445,6.587 -12.739,6.625 -4.41,0.038 -8.119,-3.105 -9.439,-7.227 -1.709,-5.339 -2.118,-11.06 -3.951,-16.379 -1.198,-3.476 -2.572,-6.954 -4.404,-10.151 -1.359,-2.372 -4.509,-3.197 -5.597,-5.371 -0.732,-1.463 1.399,-4.704 1.687,-6.261 0.434,-2.338 0.624,-4.61 0.262,-6.959 -0.281,-1.814 -1.169,-3.292 -1.56,-4.962 1.739,-0.923 2.059,-3.07 3.657,-4.162 1.067,-0.729 2.529,0.06 3.64,0.162 -0.104,-4.256 -9.667,-4.366 -12.476,-4.671 -3.82,-0.415 -11.924,-1.894 -9.109,-7.776 0.644,-1.348 2.165,-1.706 3.308,-2.409 1.727,-1.061 2.478,-2.476 4.024,-3.753 1.415,-1.168 4.474,-3.05 6.292,-2.375 0.729,0.271 3.836,4.235 3.53,4.87 -0.57,1.181 -2.082,1.77 -1.32,3.208 0.407,0.77 2.914,1.528 3.699,1.813 2.065,0.748 6.725,2.61 8.769,1.239 -0.885,0.507 -1.903,1.119 -2.928,1.398 -1.016,0.276 -2.108,0.058 -2.73,0.935 -1.408,1.988 1.048,5.299 3.208,5.149 -1.536,-0.422 -4.987,-3.326 -2.994,-5.284 0.592,-0.581 2.366,-0.807 3.187,-1.151 2.398,-1.008 3.586,-2.977 6.296,-2.692 2.105,0.222 4.483,1.23 5.587,3.135 0.345,0.595 0.544,1.189 0.64,1.784 z"
   id="path559"
   style="fill:#f9ce82;stroke:#967348;stroke-width:0.3218" />
			<path
   d="m 146.18,197.269 c -0.054,-1.478 -0.001,-2.782 0.037,-3.404 0.231,0.104 0.496,0.174 0.739,0.255 -0.418,-1.727 -0.434,-3.318 -0.55,-5.073 -1.463,0.782 -2.137,2.43 -3.941,2.832 -0.212,-1.825 1.597,-6.974 0.73,-8.223 -1.063,-1.532 -3.961,0.264 -5.27,-1.051 -4.589,-4.611 7.667,-17.599 11.947,-7.334 0.016,-0.292 0.112,-0.665 0.121,-0.969 0.006,0.027 0.202,0.556 0.262,0.761 0.931,-1.066 3.155,-4.411 4.76,-4.61 2.081,-0.259 1.903,2.181 2.441,3.745 -0.042,-4.071 1.339,-8.256 4.317,-11.073 -2.519,1.842 -4.902,3.862 -7.449,5.666 -0.202,0.143 -6.612,3.081 -6.379,2.255 0.482,-1.71 2.589,-2.369 3.064,-4.042 0.372,-1.307 -0.553,-3.528 -1.079,-4.768 -1.586,-3.734 -4.565,-5.342 -8.227,-5.853 1.483,1.148 0.901,2.267 -0.297,3.372 -0.996,0.919 -3.434,1.656 -1.984,-0.442 -0.65,0.451 -1.393,0.471 -1.983,0.001 -0.065,1.632 -1.851,2.744 -0.422,4.15 0.712,0.703 2.24,0.485 3.129,0.568 0.956,0.086 2.353,-0.121 3.16,0.545 1.211,0.996 0.161,2.051 0.729,3.002 -0.512,-0.856 -1.845,-1.497 -2.813,-1.653 -0.545,-0.088 -3.621,0.803 -3.564,0.842 -0.777,-0.532 -1.028,-1.351 -0.567,-2.104 -2.658,-3.563 -15.166,-5.377 -14.974,-10.646 -0.592,0.396 -1.26,0.84 -1.836,1.218 -0.735,-1.847 -0.401,-5.339 1.193,-6.641 -2.199,0.758 -3.938,3.816 -5.35,5.597 -0.723,0.91 -2.438,2.805 -1.881,4.028 0.584,1.285 3.507,1.22 4.71,1.081 3.604,-0.417 4.938,-0.863 8.242,0.986 2.628,1.471 4.858,3.539 7.416,4.947 -0.867,1.274 0.698,2.871 1.62,3.902 -2.479,-2.232 -5.502,-3.356 -6.815,0.715 -1.166,3.614 2.823,5.952 2.646,9.328 -0.053,1.014 -3.443,4.623 -4.405,3.783 -0.308,-0.268 -0.432,-0.166 -0.697,-0.293 0.365,0.843 -0.12,1.142 -1.071,1.07 0.862,0.064 2.655,3.811 3.059,4.554 1.187,2.188 2.396,2.974 4.149,4.696 1.685,1.656 2.724,3.135 3.495,5.371 1.548,4.496 1.646,9.466 3.361,13.953 0.665,1.738 1.555,4.339 2.942,5.705 1.021,1.005 1.563,0.867 2.279,2.388 1.068,2.269 1.546,3.554 4.506,3.49 1.851,-0.04 3.424,-0.788 4.852,-1.754 -1.558,0.525 -3.633,-0.556 -4.353,-2.071 -0.657,-1.38 -0.016,-1.813 -0.297,-3.151 -0.375,-1.784 -1.259,-2.898 -1.286,-5.024 -0.035,-2.691 0.281,-5.196 0.776,-7.822 -2.441,0.584 -3.075,-3.533 -3.192,-6.805 z"
   id="path561"
   style="fill:#dcc06d" />
			<path
   d="m 143.215,164.675 c -1.929,-0.417 -4.64,0.204 -6.301,-0.891 -2.139,-1.409 -1.452,-3.938 -0.306,-5.731 -4.376,6.847 9.391,3.619 8.293,1.047 0.435,1.021 0.392,2.41 -0.444,3.141 1.876,0.938 3.235,4.487 1.026,5.867 0.073,-2.319 -0.901,-3.136 -2.268,-3.433 z"
   id="path563"
   style="fill:#ccb25c" />
			<path
   d="m 121.292,155.262 c -1.704,-0.61 -3.876,-0.536 -4.786,1.05 1.071,-3.832 4.525,-8.611 8.978,-8.31 -0.395,0.893 2.125,2.566 1.937,4.498 -1.666,-1.763 -5.152,-0.52 -6.096,1.383 0.142,0.056 0.287,0.066 0.432,0.032 -1.053,0.414 -2.572,0.234 -2.574,1.576 0.593,0.191 0.964,-0.013 1.306,-0.229"
   id="path565"
   style="fill:#ccb25c" />
			<path
   d="m 164.968,212.298 c 1.8,-5.184 0.793,-11.94 0.08,-17.321 -0.338,-2.562 -0.169,-4.617 1.201,-6.75 -0.684,1.066 0.843,7.044 0.742,8.625 -0.332,5.178 -1.606,10.248 -2.023,15.446 z"
   id="path567"
   style="fill:#dcc06d" />
		</g>
		<path
   d="m 128.94,148.07 c -0.163,-2.202 0.483,-4.085 -2.284,-4.156 -1.361,-0.035 -2.743,0.598 -3.624,1.637 -1.971,2.329 -0.631,4.728 2.227,5.121 1.067,0.147 2.297,0.229 3.217,-0.524 1.472,-1.201 0.556,-0.829 0.464,-2.078 z"
   id="path569"
   style="fill:#e1e2e3;stroke:#ccb25c;stroke-width:0.3218" />
		<path
   d="m 278.868,146.844 c -1.967,1.731 0.919,2.36 -0.352,3.84 -0.144,0.166 4.978,1.033 5.799,0.786 1.472,-0.441 4.167,-1.751 3.156,-3.684 -1.252,-2.383 -6.804,-2.522 -8.603,-0.942 z"
   id="path571"
   style="fill:#e1e2e3;stroke:#ccb25c;stroke-width:0.3218" />
	</g>
	<path
   d="m 131.406,173.97 c 1.649,2.329 0.819,6.103 0.14,8.583 -0.339,1.238 -1.075,2.598 -1.924,3.576 -0.549,0.632 -2.985,1.847 -1.661,2.656 4.049,-2.857 6.182,-11.225 3.686,-15.543 0.114,-0.027 0.319,-0.043 0.418,-0.058 -0.47,-0.9 -1.167,-1.552 -1.837,-2.237 0.528,1.406 1.007,2.954 1.716,4.276"
   id="path573"
   style="fill:#ccb25c" />
</g></g></svg>
