<?xml version="1.0" encoding="UTF-8" standalone="no"?>
<!-- Generator: Adobe Illustrator 12.0.0, SVG Export Plug-In . SVG Version: 6.00 Build 51448)  -->

<svg
   version="1.0"
   id="Layer_1"
   width="297.60214"
   height="326.88553"
   viewBox="0 0 297.60213 326.88552"
   overflow="visible"
   enable-background="new 0 0 435.687 841.89"
   xml:space="preserve"
   sodipodi:version="0.32"
   inkscape:version="1.4.2 (f4327f4, 2025-05-13)"
   sodipodi:docname="upper_bones_clavicula.svg"
   inkscape:output_extension="org.inkscape.output.svg.inkscape"
   style="display:inline;overflow:visible"
   xmlns:inkscape="http://www.inkscape.org/namespaces/inkscape"
   xmlns:sodipodi="http://sodipodi.sourceforge.net/DTD/sodipodi-0.dtd"
   xmlns="http://www.w3.org/2000/svg"
   xmlns:svg="http://www.w3.org/2000/svg"
   xmlns:rdf="http://www.w3.org/1999/02/22-rdf-syntax-ns#"
   xmlns:cc="http://creativecommons.org/ns#"
   xmlns:dc="http://purl.org/dc/elements/1.1/"><metadata
   id="metadata3098"><rdf:RDF><cc:Work
       rdf:about=""><dc:format>image/svg+xml</dc:format><dc:type
         rdf:resource="http://purl.org/dc/dcmitype/StillImage" /></cc:Work><cc:Work
       rdf:about=""><dc:format>image/svg+xml</dc:format><dc:type
         rdf:resource="http://purl.org/dc/dcmitype/StillImage" /></cc:Work></rdf:RDF></metadata><defs
   id="defs3096"><inkscape:perspective
   sodipodi:type="inkscape:persp3d"
   inkscape:vp_x="0 : -94.059466 : 1"
   inkscape:vp_y="0 : 999.99999 : 0"
   inkscape:vp_z="435.687 : -94.059466 : 1"
   inkscape:persp3d-origin="217.84351 : -234.37448 : 1"
   id="perspective3100" />
		
		
		
		
	
		
		
	
		
		
		
		
		
	
	
	

		
		
		
	
			
			
		
				
				
				
				
				
			
	
	
</defs>
<sodipodi:namedview
   inkscape:window-height="1369"
   inkscape:window-width="2560"
   inkscape:pageshadow="2"
   inkscape:pageopacity="0.0"
   guidetolerance="10.0"
   gridtolerance="10.0"
   objecttolerance="10.0"
   borderopacity="1.0"
   bordercolor="#666666"
   pagecolor="#ffffff"
   id="base"
   showgrid="false"
   inkscape:zoom="1.9049022"
   inkscape:cx="120.74111"
   inkscape:cy="219.17136"
   inkscape:window-x="-8"
   inkscape:window-y="-8"
   inkscape:current-layer="layer3"
   showguides="true"
   inkscape:guide-bbox="true"
   inkscape:showpageshadow="2"
   inkscape:pagecheckerboard="0"
   inkscape:deskcolor="#d1d1d1"
   inkscape:window-maximized="1" />
<g
   inkscape:groupmode="layer"
   id="layer3"
   inkscape:label="Skeleton"
   style="display:inline"
   transform="translate(-63.538848,-89.863482)"><g
     style="display:inline;overflow:visible"
     id="ClavicleRight"
     inkscape:label="Clavicle">
	<path
   d="m 191.558,151.234 c -4.785,-3.439 -11.39,-4.418 -17.149,-5.164 -4.262,-0.551 -8.437,-0.904 -12.705,-1.377 -1.953,-0.218 -3.856,-0.764 -5.818,-0.916 -2.649,-0.205 -5.323,-0.01 -7.976,-0.111 -1.48,-0.056 -2.98,-0.399 -4.447,-0.401 -1.489,-0.002 -2.939,0.39 -4.451,0.292 -2.269,-0.146 -4.004,0.11 -6.191,-0.684 -1.886,-0.686 -3.535,-1.234 -5.349,0.018 -1.352,0.932 -2.799,2.692 -2.506,4.443 0.233,1.393 1.5,2.274 2.002,3.544 0.949,0.189 2.182,-0.098 3.175,-0.146 1.635,-0.083 3.286,0.104 4.915,-0.113 1.487,-0.196 2.528,-0.721 4.056,-0.598 1.147,0.093 2.271,0.175 3.429,0.17 2.174,-0.01 4.296,0.329 6.432,0.759 6.814,1.375 13.819,1.487 20.722,1.193 5.673,-0.241 11.112,0.249 15.706,3.923 2.934,2.348 4.196,6.235 8.384,3.453 4.186,-2.782 0.78,-6.123 -2.229,-8.285 z"
   id="path1645"
   style="fill:#f3d48c;stroke:#967348;stroke-width:0.3218" />
	<path
   d="m 127.651,147.866 c 1.498,0.01 2.94,0.16 4.439,0.179 1.087,0.013 1.113,0.321 1.805,0.586 2.198,0.836 6.154,1.091 8.364,0.085 -0.254,-0.047 -0.536,-0.162 -0.83,-0.174 1.101,-0.326 3.164,-0.62 4.414,-0.133 -1.048,0.613 1.239,1.246 1.825,1.379 2.375,0.541 5.095,0.804 7.536,0.948 1.578,0.093 3.214,0.008 4.792,-0.01 1.382,-0.015 2.762,-0.253 4.141,-0.186 0.869,0.042 1.607,0.386 2.442,-0.005 -0.203,0.101 -0.358,0.265 -0.471,0.34 6.671,0.625 15.735,-2.406 20.528,3.754 -0.399,-0.125 -0.818,-0.196 -1.161,-0.522 1.27,1.505 2.249,2.571 3.967,3.611 -2.401,-1.5 -4.671,-3.64 -7.253,-4.81 -2.214,-1.003 -4.568,-1.126 -6.978,-1.292 -5.793,-0.396 -11.686,0.523 -17.393,-0.183 -4.393,-0.544 -9.018,-1.86 -13.41,-2.142 -3.629,-0.231 -7.595,-0.089 -11.177,0.323 -1.917,0.22 -5.133,1.207 -6.617,-0.506 -0.876,-1.014 -0.954,-2.569 -0.216,-3.592 0.146,1.065 1.542,1.716 1.609,2.349"
   id="path1647"
   style="fill:#dcc06d" />
</g><g
     style="display:inline;overflow:visible"
     id="ClavicleLeft"
     inkscape:label="Clavicle">
	<path
   d="m 220.691,159.82 c 0.774,-0.387 1.533,-0.836 2.268,-1.219 3.097,-1.617 7.017,-2.421 10.436,-3.09 1.993,-0.39 3.898,-1.153 5.914,-1.287 2.396,-0.161 4.79,0.292 7.188,0.167 2.621,-0.139 5.26,-0.264 7.825,-0.795 4.019,-0.832 7.911,-2.226 11.972,-2.858 4.225,-0.657 6.996,0.321 11.104,0.755 2.446,0.258 4.437,-2.01 5.626,-3.913 2.183,-3.481 -2.817,-2.971 -5.417,-3.4 -9.396,-1.555 -18.419,-0.059 -27.62,2.104 -1.294,0.305 -2.731,0.809 -4.007,1.014 -3.021,0.485 -6.173,0.567 -9.233,0.921 -2.718,0.313 -5.251,0.687 -7.904,1.264 -1.341,0.291 -4.938,1.79 -5.887,0.696 -3.197,2.068 -11.442,0.96 -11.142,6.724 0.051,0.973 2.455,2.417 3.447,3.093 1.834,1.254 3.675,0.699 5.43,-0.176 z"
   id="path1651"
   style="fill:#f3d48c;stroke:#967348;stroke-width:0.3218" />
	<path
   d="m 215.621,157.878 c 0.674,1.586 3.084,0.985 4.278,0.676 -0.072,-0.053 -0.2,-0.105 -0.324,-0.179 0.463,-0.602 1.873,-0.778 2.603,-0.828 -0.064,0.089 -0.098,0.19 -0.1,0.299 2.115,0.144 4.921,-1.585 7.004,-2.119 1.751,-0.448 7.002,-0.288 7.996,-1.525 -5.851,-1.186 -11.788,2.372 -17.52,2.78 -1.932,0.138 -3.404,1.562 -5.117,0.157 0.316,0.508 0.786,0.898 1.359,1.094"
   id="path1653"
   style="fill:#dcc06d" />
	<path
   d="m 245.301,153.051 c 2.254,-0.439 4.684,-0.506 6.855,-1.282 1.07,-0.383 3.888,-1.165 4.453,-1.909 0.842,0.46 3.243,-0.345 4.345,-0.524 2.634,-0.43 5.314,-0.726 7.972,-0.894 2.354,-0.148 4.748,0.656 7.058,0.483 -0.083,0.028 -0.117,0.091 -0.104,0.188 0.88,0.417 2.26,0.797 3.181,0.183 0.515,-0.342 1.271,-0.676 0.18,-1.084 0.111,0.016 1.155,0.313 1.617,0.4 -0.969,1.893 -3.076,1.769 -4.995,1.453 -3.652,-0.598 -7.38,-1.352 -11.076,-0.769 -3.146,0.498 -6.159,1.823 -9.151,2.85 -1.752,0.602 -3.658,0.994 -5.508,1.093 -1.838,0.099 -4.38,-0.549 -6.077,0.17"
   id="path1655"
   style="fill:#dcc06d" />
</g></g></svg>
