<?xml version="1.0" encoding="UTF-8" standalone="no"?>
<!-- Generator: Adobe Illustrator 12.0.0, SVG Export Plug-In . SVG Version: 6.00 Build 51448)  -->

<svg
   version="1.0"
   id="Layer_1"
   width="297.60214"
   height="326.88553"
   viewBox="0 0 297.60213 326.88552"
   overflow="visible"
   enable-background="new 0 0 435.687 841.89"
   xml:space="preserve"
   sodipodi:version="0.32"
   inkscape:version="1.4.2 (f4327f4, 2025-05-13)"
   sodipodi:docname="upper_bones_sternum.svg"
   inkscape:output_extension="org.inkscape.output.svg.inkscape"
   style="display:inline;overflow:visible"
   xmlns:inkscape="http://www.inkscape.org/namespaces/inkscape"
   xmlns:sodipodi="http://sodipodi.sourceforge.net/DTD/sodipodi-0.dtd"
   xmlns="http://www.w3.org/2000/svg"
   xmlns:svg="http://www.w3.org/2000/svg"
   xmlns:rdf="http://www.w3.org/1999/02/22-rdf-syntax-ns#"
   xmlns:cc="http://creativecommons.org/ns#"
   xmlns:dc="http://purl.org/dc/elements/1.1/"><metadata
   id="metadata3098"><rdf:RDF><cc:Work
       rdf:about=""><dc:format>image/svg+xml</dc:format><dc:type
         rdf:resource="http://purl.org/dc/dcmitype/StillImage" /></cc:Work><cc:Work
       rdf:about=""><dc:format>image/svg+xml</dc:format><dc:type
         rdf:resource="http://purl.org/dc/dcmitype/StillImage" /></cc:Work></rdf:RDF></metadata><defs
   id="defs3096"><inkscape:perspective
   sodipodi:type="inkscape:persp3d"
   inkscape:vp_x="0 : -94.059466 : 1"
   inkscape:vp_y="0 : 999.99999 : 0"
   inkscape:vp_z="435.687 : -94.059466 : 1"
   inkscape:persp3d-origin="217.84351 : -234.37448 : 1"
   id="perspective3100" />
		
		
		
		
	
		
		
	
		
		
		
		
		
	
	
	

		
		
		
	
			
			
		
				
				
				
				
				
			
	
	
</defs>
<sodipodi:namedview
   inkscape:window-height="1369"
   inkscape:window-width="2560"
   inkscape:pageshadow="2"
   inkscape:pageopacity="0.0"
   guidetolerance="10.0"
   gridtolerance="10.0"
   objecttolerance="10.0"
   borderopacity="1.0"
   bordercolor="#666666"
   pagecolor="#ffffff"
   id="base"
   showgrid="false"
   inkscape:zoom="1.9049022"
   inkscape:cx="120.74111"
   inkscape:cy="219.17136"
   inkscape:window-x="-8"
   inkscape:window-y="-8"
   inkscape:current-layer="layer3"
   showguides="true"
   inkscape:guide-bbox="true"
   inkscape:showpageshadow="2"
   inkscape:pagecheckerboard="0"
   inkscape:deskcolor="#d1d1d1"
   inkscape:window-maximized="1" />
<g
   inkscape:groupmode="layer"
   id="layer3"
   inkscape:label="Skeleton"
   style="display:inline"
   transform="translate(-63.538848,-89.863482)"><g
     style="display:inline;overflow:visible"
     id="Manubrium"
     inkscape:label="Manubrium">
	<path
   d="m 198.285,156.462 c -0.878,-0.534 -1.495,-0.886 -2.503,-0.336 -1.831,0.997 -2.875,3.3 -4.267,4.8 -2.2,2.373 0.162,4.869 -1.685,7.455 -1.48,2.072 1.408,4.104 2.761,5.792 0.932,1.165 1.412,3.727 3.318,3.517 1.073,-0.117 1.875,-0.897 3.022,-1.032 1.326,-0.156 2.667,-0.065 3.996,-0.144 3.121,-0.186 9.11,2.885 10.73,-1.109 0.572,-1.408 1.395,-2.658 2.283,-3.937 1.09,-1.568 0.65,-2.295 0.752,-4.123 0.064,-1.135 0.151,-3.473 1.402,-3.958 -0.499,-2.655 -3.055,-6.365 -5.366,-7.792 -1.494,-0.919 -2.434,0.104 -3.763,0.679 -1.452,0.627 -3.206,1.26 -4.795,1.436 -2.032,0.224 -3.815,-0.012 -5.546,-1.041 -0.118,-0.072 -0.23,-0.141 -0.339,-0.207 z"
   id="path1635"
   style="fill:#f7daa1;stroke:#967348;stroke-width:0.3218" />
	<path
   d="m 192.651,159.848 c 0.53,2.259 3.574,-0.936 3.371,-2.629 -0.504,0.484 -3.495,3.081 -4.003,2.805"
   id="path1637"
   style="fill:#f9e3b7" />
	<path
   d="m 217.084,160.277 c -0.437,-0.158 -1.077,-0.762 -1.521,-1.007 -0.474,-0.261 -0.876,-0.41 -1.303,-0.789 -0.842,-0.747 -1.512,-1.754 -2.101,-2.707 -0.676,1.397 0.749,3.07 1.668,3.979 0.484,0.479 1.218,1.138 1.928,1.229 0.079,0.01 1.521,-0.166 1.222,-0.422 -0.11,-0.095 -0.241,-0.293 -0.38,-0.382 0.146,0.023 0.33,0.041 0.487,0.099 z"
   id="path1639"
   style="fill:#f9e3b7" />
	<path
   d="m 205.249,175.759 c 0.779,0.245 1.988,0.414 2.649,-0.123 0.962,2.395 6.75,-2.63 4.929,-4.566 0.721,-1.321 1.787,-2.596 2.225,-4.044 -0.058,1.704 -0.348,3.799 -0.708,5.482 -1.606,0.521 -1.544,2.966 -3.059,3.57 -0.979,0.392 -3.364,-0.31 -4.605,-0.32"
   id="path1641"
   style="fill:#f9e3b7" />
</g><path
     d="m 200.779,240.434 c 0.093,0.889 0.316,1.691 1.074,2.154 2.649,1.624 3.622,-1.784 3.976,-3.765 0.379,-2.131 1.868,-6.595 0.904,-8.641 -0.363,-0.773 -1.286,-0.795 -1.474,-1.939 -0.124,-0.751 0.064,-1.633 0.546,-2.229 0.627,-0.774 1.245,-0.388 2.077,-0.436 1.109,-0.064 1,-0.369 0.942,-1.277 -0.042,-0.695 -0.104,-1.559 0.022,-2.239 0.125,-0.689 0.65,-1.183 0.936,-1.807 0.375,-0.818 -0.307,-1.175 -0.591,-1.822 -0.296,-0.674 -0.269,-1.636 0.237,-2.199 0.478,-0.534 1.403,-0.26 1.636,-0.781 0.113,-0.255 -0.068,-1.099 -0.009,-1.455 0.092,-0.521 0.229,-0.995 0.367,-1.503 0.077,-0.28 0.377,-0.876 0.361,-1.157 -0.033,-0.535 -0.48,-0.687 -0.783,-1.038 -0.324,-0.378 -0.527,-0.827 -0.641,-1.325 -0.274,-1.213 -0.11,-2.632 0.881,-3.448 0.164,-0.136 0.595,-0.298 0.695,-0.47 0.281,-0.49 -0.269,-1.274 -0.341,-1.834 -0.175,-1.393 0.906,-3.735 -0.158,-4.782 -0.94,-0.924 -1.414,-3.075 -0.91,-4.309 0.364,-0.891 0.539,-1.203 1.251,-1.902 0.634,-0.622 0.207,-2.454 0.177,-3.285 -0.036,-0.995 -0.375,-1.928 -0.103,-2.927 0.083,-0.309 1.66,-2.689 1.772,-2.44 -0.731,-1.614 -1.819,-1.861 -1.762,-3.893 0.032,-1.128 0.928,-2.215 0.322,-3.353 -1.197,-2.244 -6.522,-2.594 -8.596,-2.564 -3.132,0.046 -5.908,0.74 -8.288,2.512 -0.292,0.219 -0.182,2.801 -0.262,3.333 -0.174,1.165 -0.239,2.364 -1.562,2.79 -0.248,0.841 0.37,0.936 0.639,1.576 0.569,1.355 0.887,2.753 1.017,4.215 0.083,0.94 -0.425,2.329 -0.127,3.165 0.33,0.925 1.102,1.132 1.094,2.331 -0.007,1.1 -0.629,2.524 -1.261,3.408 -0.3,0.418 -0.548,0.198 -0.433,0.858 0.059,0.332 0.333,0.663 0.492,0.954 0.465,0.855 0.614,1.545 0.605,2.526 -0.006,0.603 -0.052,1.124 -0.244,1.697 -0.094,0.281 -0.521,0.945 -0.386,1.236 0.285,0.623 1.32,0.522 1.729,1.09 0.575,0.798 0.33,2.21 0.146,3.087 -0.187,0.886 -1.11,1.86 -1.142,2.705 -0.011,0.281 0.303,0.56 0.412,0.821 0.34,0.822 0.493,1.813 0.313,2.69 -0.193,0.945 -0.146,0.867 0.604,1.492 0.359,0.299 0.647,0.792 0.83,1.227 0.375,0.897 0.583,2.026 0.313,2.974 -0.125,0.436 -0.574,0.835 -0.61,1.252 -0.04,0.469 0.31,1.17 0.387,1.659 0.131,0.826 0.355,1.642 0.631,2.429 0.964,-0.354 1.296,-0.755 1.892,0.207 0.4,0.647 0.296,1.807 0.048,2.499 -0.277,0.777 -1.178,1.303 -1.399,2.002 -0.146,0.461 0.064,1.104 0.174,1.557 0.676,2.783 1.276,5.539 1.58,8.374 z"
     id="Sternum"
     style="display:inline;overflow:visible;fill:#f9e3b7;stroke:#967348;stroke-width:0.3218"
     inkscape:label="Sternum" /></g></svg>
