<?xml version="1.0" encoding="UTF-8" standalone="no"?>
<!-- Generator: Adobe Illustrator 12.0.0, SVG Export Plug-In . SVG Version: 6.00 Build 51448)  -->

<svg
   version="1.0"
   id="Layer_1"
   width="297.60214"
   height="326.88553"
   viewBox="0 0 297.60213 326.88552"
   overflow="visible"
   enable-background="new 0 0 435.687 841.89"
   xml:space="preserve"
   sodipodi:version="0.32"
   inkscape:version="1.4.2 (f4327f4, 2025-05-13)"
   sodipodi:docname="upper_bones_vertebrae_ulna.svg"
   inkscape:output_extension="org.inkscape.output.svg.inkscape"
   style="display:inline;overflow:visible"
   xmlns:inkscape="http://www.inkscape.org/namespaces/inkscape"
   xmlns:sodipodi="http://sodipodi.sourceforge.net/DTD/sodipodi-0.dtd"
   xmlns="http://www.w3.org/2000/svg"
   xmlns:svg="http://www.w3.org/2000/svg"
   xmlns:rdf="http://www.w3.org/1999/02/22-rdf-syntax-ns#"
   xmlns:cc="http://creativecommons.org/ns#"
   xmlns:dc="http://purl.org/dc/elements/1.1/"><metadata
   id="metadata3098"><rdf:RDF><cc:Work
       rdf:about=""><dc:format>image/svg+xml</dc:format><dc:type
         rdf:resource="http://purl.org/dc/dcmitype/StillImage" /></cc:Work><cc:Work
       rdf:about=""><dc:format>image/svg+xml</dc:format><dc:type
         rdf:resource="http://purl.org/dc/dcmitype/StillImage" /></cc:Work></rdf:RDF></metadata><defs
   id="defs3096"><inkscape:perspective
   sodipodi:type="inkscape:persp3d"
   inkscape:vp_x="0 : -94.059466 : 1"
   inkscape:vp_y="0 : 999.99999 : 0"
   inkscape:vp_z="435.687 : -94.059466 : 1"
   inkscape:persp3d-origin="217.84351 : -234.37448 : 1"
   id="perspective3100" />
		
		
		
		
	
		
		
	
		
		
		
		
		
	
	
	

		
		
		
	
			
			
		
				
				
				
				
				
			
	
	
</defs>
<sodipodi:namedview
   inkscape:window-height="1369"
   inkscape:window-width="2560"
   inkscape:pageshadow="2"
   inkscape:pageopacity="0.0"
   guidetolerance="10.0"
   gridtolerance="10.0"
   objecttolerance="10.0"
   borderopacity="1.0"
   bordercolor="#666666"
   pagecolor="#ffffff"
   id="base"
   showgrid="false"
   inkscape:zoom="2.6939385"
   inkscape:cx="106.53547"
   inkscape:cy="155.71996"
   inkscape:window-x="-8"
   inkscape:window-y="-8"
   inkscape:current-layer="layer3"
   showguides="true"
   inkscape:guide-bbox="true"
   inkscape:showpageshadow="2"
   inkscape:pagecheckerboard="0"
   inkscape:deskcolor="#d1d1d1"
   inkscape:window-maximized="1" />
<g
   inkscape:groupmode="layer"
   id="layer3"
   inkscape:label="Skeleton"
   style="display:inline"
   transform="translate(-63.538848,-89.863482)"><g
     id="UlnaLeft"
     inkscape:label="Ulna">
			<path
   d="m 305.731,311.869 c -0.008,0.956 -0.026,1.778 0.481,2.545 -0.356,-0.789 0.205,-1.479 0.84,-1.827 -0.468,-0.146 -0.919,-0.311 -1.323,-0.583"
   id="path1699"
   style="fill:#bbbdbf" />
			<path
   d="m 325.653,338.044 c -0.108,-1.411 -0.267,-2.821 -0.636,-4.138 -0.754,-2.691 -0.985,-5.482 -1.738,-8.143 -0.663,-2.359 -1.898,-4.687 -3.12,-6.79 -1.201,-2.063 -1.271,-3.105 -0.808,-5.43 0.274,-1.367 0.074,-0.957 -0.998,-1.648 -1.884,-1.216 -2.479,-4.272 0.148,-5.076 -1.738,-0.104 -3.877,0.046 -5.507,0.694 -1.551,0.617 -2.423,2.273 -3.976,2.909 -1.828,0.747 -3.394,-0.884 -4.679,1.079 -1.37,2.092 1.085,4.775 2.162,6.429 2.065,3.175 2.201,4.786 2.656,8.365 0.853,6.714 4.263,13.444 5.814,20.022 1.95,8.268 3.336,16.547 6.225,24.666 1.356,3.816 2.097,7.831 3.419,11.656 1.369,3.958 3.42,7.664 4.786,11.695 1.427,4.213 2.798,8.545 4.053,12.655 0.294,0.957 0.394,3.489 1.82,3.635 1.604,0.164 1.675,-2.27 2.88,-2.799 1.772,-0.775 8.479,2.346 6.761,-1.702 -0.303,-0.713 -3.239,-2.254 -3.924,-3.339 -0.826,-1.306 -1.621,-2.96 -2.262,-4.392 -2.156,-4.8 -3.854,-10.133 -4.813,-15.278 -0.669,-3.584 -2.131,-6.305 -3.094,-9.758 -2.914,-10.43 -3.894,-21.25 -4.928,-31.989 -0.1,-1.076 -0.155,-2.2 -0.241,-3.323 z"
   id="path1701"
   style="fill:#f3d48c;stroke:#967348;stroke-width:0.3218" />
			<path
   d="m 314.65,323.24 c -0.951,-3.846 -2.489,-3.842 -4.873,-6.179 -2.433,-2.383 -1.336,-4.612 1.011,-6.552 1.226,-1.014 2.926,-1.66 4.341,-2.319 0.815,2.247 0.159,5.453 0.961,8.113 1.026,3.403 0.597,5.352 0.602,8.938 0.009,7.263 1.731,14.613 3.325,21.782 -1.188,-4.804 -2.978,-9.335 -3.875,-14.225 -0.592,-3.211 -0.718,-6.426 -1.492,-9.558 z"
   id="path1703"
   style="fill:#dcc06d" />
			<path
   d="m 319.871,356.395 c 1.421,4.887 2.262,9.268 4.393,14.001 1.377,3.061 3.137,5.876 4.527,8.874 0.196,-0.507 0.827,-2.047 0.829,-2.062 0.048,4.701 1.353,9.387 2.363,13.921 -1.201,-2.214 -2.765,-1.805 -4.187,-3.237 -1.89,-1.899 -3.171,-7.215 -3.83,-9.701 -1.947,-7.336 -2.446,-15.481 -4.802,-22.52"
   id="path1705"
   style="fill:#dcc06d" />
			<path
   d="m 333.928,404.136 c 0.427,1.066 1.013,1.646 2.082,1.402 -0.164,-0.78 -0.289,-1.907 -0.661,-2.689 1.408,1.983 6.437,3.723 8.598,2.979 0.3,3.335 -5.17,0.89 -6.77,0.184 -0.23,1.332 -0.677,2.473 -1.617,3.456 -1.265,-1.223 -1.589,-3.539 -1.989,-5.336"
   id="path1707"
   style="fill:#dcc06d" />
			<path
   d="m 334.244,395.448 c -0.934,-3.531 -1.607,-7.146 -2.205,-10.737 -1,-6.022 -1.348,-12.629 -3.369,-18.447 -0.111,5.24 1.126,10.14 1.759,15.267 0.619,5.038 2.557,9.16 3.815,13.917 z"
   id="path1709"
   style="fill:#ccb25c" />
			<path
   d="m 337.586,397.746 c 0.58,1.542 1.294,6.069 2.734,6.407 -0.5,-1.708 -1.511,-3.498 -2.035,-5.326"
   id="path1711"
   style="fill:#ccb25c" />
			<path
   d="m 305.38,314.727 c 1.277,2.649 3.558,4.343 5.02,6.769 1.202,2 1.962,5.758 2.315,8.256 -0.746,-2.414 -2.174,-5.002 -4.086,-6.374 0.579,-2.703 -1.395,-5.669 -3.264,-7.579"
   id="path1713"
   style="fill:#ccb25c" />
			<path
   d="m 314.758,308.408 c 1.134,2.101 0.796,3.442 0.643,5.73 -0.119,1.754 0.493,2.862 0.354,4.591 3.057,0.455 3.289,3.765 4.188,6.059 -1.255,-2.321 -2.372,-5.511 -3.062,-8.128 -0.672,-2.542 -0.087,-5.939 -1.407,-8.243"
   id="path1715"
   style="fill:#ccb25c" />
		</g><g
     id="UlnaRight"
     inkscape:label="Ulna">
			<path
   d="m 77.35,384.708 c 3.151,-13.243 3.252,-26.641 5.88,-39.963 1.124,-5.695 2.029,-11.453 3.628,-17.044 0.681,-2.387 1.292,-5.123 2.214,-7.398 0.934,-2.304 2.869,-3.83 4,-6.023 1.705,-3.305 -1.301,-3.857 -3.551,-4.708 -2.469,-0.933 -4.51,-2.914 -7.095,-3.545 -7.559,-1.847 -7.411,7.438 -6.785,12.516 0.377,3.051 0.782,5.333 0,8.494 -1.119,4.536 -0.965,8.763 -1.432,13.339 -0.506,4.981 -2.046,10.022 -2.79,15.001 -0.733,4.9 -0.875,9.791 -1.509,14.669 -1.106,8.528 -2.277,16.751 -2.861,25.389 -0.251,3.722 -0.88,7.44 -1.43,11.086 -0.305,2.02 -2.995,7.586 -1.437,9.305 2.802,3.095 4.488,-4.247 7.051,-3.947 -0.723,0.291 -0.823,0.665 -1.294,1.026 1.572,-0.177 5.75,0.813 6.695,-0.735 1.767,-2.907 -2.117,-8.5 -2.177,-11.611 -0.102,-5.375 1.663,-10.681 2.893,-15.851 z"
   id="path1763"
   style="fill:#f3d48c;stroke:#967348;stroke-width:0.3218" />
			<path
   d="m 81.854,307.468 c -0.445,-0.381 -0.946,-0.644 -1.503,-0.788 -1.43,0.431 -3.104,1.792 -2.806,3.648 0.366,2.264 2.36,2.329 4.281,2.584 -0.389,0.158 -0.871,0.793 -1.349,1.08 4.817,4.016 1.552,14.189 0.392,19.796 -1.498,7.248 -1.861,14.586 -3.01,21.855 -0.545,3.456 -1.22,10.172 -3.076,12.952 0.046,-3.906 0.141,-8.299 1.287,-12.089 -2.182,4.34 -2.102,11.324 -2.701,16.354 -0.337,2.827 -1.119,6.037 -0.831,8.88 0.493,-0.905 0.947,-1.769 1.467,-2.628 -0.102,4.593 -0.833,8.895 -1.475,13.344 4.544,-5.46 3.852,-14.402 5.301,-20.973 3.34,-15.158 4.755,-30.522 6.962,-45.785 0.224,-1.554 0.389,-3.259 1.084,-4.545 1.334,-2.469 4.284,-3.651 5.259,-6.388 0.179,-0.503 0.625,-5.567 -1.507,-4.385 -2.708,1.506 -5.952,-5.02 -9.564,-2.913"
   id="path1765"
   style="fill:#dcc06d" />
			<path
   d="m 65.405,415.818 c 2.272,-1.509 2.133,-5.375 4.203,-6.365 1.608,-0.769 4.271,1.167 6.137,1.064 -1.891,3.433 -7.48,-2.173 -8.553,4.229"
   id="path1767"
   style="fill:#dcc06d" />
			<path
   d="m 80.781,311.759 c 2.266,1.54 4.428,-1.073 3.978,-3.164 0.382,0.019 1.37,0.192 1.716,0.364 -3.307,2.649 1.176,3.902 3.449,4.013 -1.328,0.721 -3.523,2.12 -4.486,0.732 -0.098,4.813 -1.311,9.451 -2.895,13.982 0.608,-4.159 2.66,-11.986 -1.762,-14.855"
   id="path1769"
   style="fill:#ccb25c" />
			<path
   d="m 73.629,399.727 c 0.511,4.129 -1.494,6.492 2.36,9.527 -0.896,-2.83 -2.556,-6.196 -2.36,-9.17"
   id="path1771"
   style="fill:#ccb25c" />
			<path
   d="m 74.444,377.527 c 0.939,-4.344 2.341,-8.628 2.421,-13.111 -0.136,7.596 -8.861,18.275 -3.575,25.919 -0.201,-3.819 0.342,-9.052 1.154,-12.808 z"
   id="path1773"
   style="fill:#ccb25c" />
			<path
   d="m 88.648,317.123 c -3.417,1.521 -2.412,5.438 -3.244,8.481 0.875,-2.733 2.054,-5.488 2.886,-8.124"
   id="path1775"
   style="fill:#ccb25c" />
		</g></g></svg>
